<svg width="23" height="34" viewBox="0 0 23 34" fill="none" xmlns="http://www.w3.org/2000/svg">
<path fill-rule="evenodd" clip-rule="evenodd" d="M22.9996 11.7336C21.7892 12.9522 20.9512 12.5162 20.9512 12.5162C23.0561 11.5262 22.7816 7.90362 22.4714 7.38017C20.5288 10.7518 16.6697 10.888 16.6697 10.888C22.2425 8.36967 21.5542 3.5091 21.2997 2.56929C20.3848 5.02934 15.3832 7.09574 15.3832 7.09574C19.8901 4.36025 18.4017 0 18.4017 0C16.7702 5.42 5.18937 4.08267 1.51343 7.84751C-0.734166 9.90962 -0.714153 13.5605 3.18498 17.3155C7.01624 21.0054 8.81571 27.8878 8.90142 29.1429H3.71403V34H20.9799V29.1429H14.8802C16.6453 26.9959 22.5384 19.4221 23 11.734L22.9996 11.7336Z" fill="#0F70CA"/>
</svg>
