<svg width="106" height="106" viewBox="0 0 106 106" fill="none" xmlns="http://www.w3.org/2000/svg">
<g clip-path="url(#clip0_3007_8111)">
<path fill-rule="evenodd" clip-rule="evenodd" d="M83.5535 32.1958L53.4453 56.9673V81.9986L57.3439 81.9628V72.6936L83.5535 51.1282V32.1958Z" fill="white" fill-opacity="0.5"/>
<path fill-rule="evenodd" clip-rule="evenodd" d="M23.4272 37.5781V51.0296L42.9652 67.3559V62.4392C42.9652 56.4031 40.066 51.9521 35.3481 47.6802C32.4579 45.0562 23.4272 37.5781 23.4272 37.5781Z" fill="white" fill-opacity="0.5"/>
<path fill-rule="evenodd" clip-rule="evenodd" d="M53.4454 49.9819C53.4454 41.6978 49.2857 35.1422 43.0011 29.7419C40.9933 28.0224 34.9429 22.9087 34.9429 22.9087V41.259L53.4454 56.7255V49.9908V49.9819Z" fill="white" fill-opacity="0.5"/>
<path fill-rule="evenodd" clip-rule="evenodd" d="M61.7467 21.7802C56.8487 26.1954 53.4453 31.2822 53.4453 37.8647V43.2202L65.9604 32.7689V18.2158C65.9604 18.2158 62.7731 20.8667 61.7467 21.7892V21.7802Z" fill="white" fill-opacity="0.5"/>
<path d="M17.6919 14.365C17.7639 14.3292 17.836 14.2933 17.908 14.2575L20.1229 16.7562C20.0238 16.8726 19.9338 17.0159 19.8618 17.1592L19.9698 17.2846L21.0413 16.3442L20.9332 16.2188C20.8612 16.2367 20.7982 16.2636 20.7261 16.2994C20.6541 16.3352 20.5821 16.3711 20.501 16.4158L20.42 16.3263L20.1409 13.4873L20.0509 13.0037L20.294 13.3619L21.9146 15.1889C21.8606 15.2516 21.8156 15.3233 21.7796 15.3859C21.7435 15.4486 21.7075 15.5113 21.6805 15.574L21.7886 15.6994L22.869 14.759L22.761 14.6337C22.6259 14.6784 22.4728 14.7411 22.3198 14.8396L20.1049 12.341C20.1589 12.2693 20.2039 12.2067 20.2489 12.135C20.294 12.0634 20.33 12.0007 20.366 11.929L20.2579 11.8036L19.1775 12.744L19.2855 12.8604C19.3486 12.8425 19.4206 12.8067 19.4926 12.7798C19.5647 12.744 19.6457 12.7082 19.7177 12.6634L19.8078 12.7619L20.0869 15.5651L20.1769 16.0755L19.9428 15.7173L18.3222 13.8903C18.3762 13.8187 18.4212 13.756 18.4572 13.6933C18.4932 13.6306 18.5202 13.5679 18.5473 13.5052L18.4392 13.3799L17.3678 14.3202L17.4758 14.4456C17.5568 14.4187 17.6289 14.3829 17.7009 14.356L17.6919 14.365ZM8.3281 34.0497L8.48117 34.1213L9.00338 32.9839L8.85032 32.9123C8.72427 33.0377 8.60722 33.1631 8.52619 33.2974L7.73386 32.5362L8.29209 31.3182L9.39054 31.3988C9.37253 31.4704 9.35452 31.551 9.34552 31.6316C9.33651 31.7122 9.32751 31.7928 9.32751 31.8734L9.48057 31.9361L10.0838 30.6107L9.93075 30.539C9.86773 30.5838 9.81371 30.6286 9.76869 30.6913C9.72367 30.754 9.67865 30.8077 9.63363 30.8704L5.64502 30.6375L5.57299 30.7898L8.38213 33.6108C8.35512 33.7452 8.33711 33.8885 8.33711 34.0318L8.3281 34.0497ZM6.60841 31.4346L6.21225 31.1032L6.69844 31.1928L7.97696 31.2824L7.50877 32.3123L6.60841 31.4346ZM3.70023 37.7574C3.81728 37.8917 3.97034 37.9812 4.16842 38.0439C4.32148 38.0887 4.45653 38.1156 4.59159 38.1066C4.72664 38.1066 4.84369 38.0708 4.95174 38.026C5.05978 37.9812 5.15882 37.9186 5.24886 37.838C5.33889 37.7574 5.41092 37.6768 5.47395 37.5782C5.55498 37.6857 5.63601 37.7842 5.72605 37.8917C5.81609 37.9992 5.89712 38.1066 5.98716 38.2141C6.07719 38.3216 6.16723 38.438 6.25726 38.5723C6.3473 38.6977 6.43734 38.841 6.51837 38.9932L6.56339 39.2888L6.69844 39.3336L6.91453 38.6619L6.8335 38.438C6.75247 38.3126 6.66243 38.1962 6.57239 38.0798C6.48236 37.9723 6.38332 37.8648 6.28428 37.7663C6.18524 37.6678 6.07719 37.5603 5.96915 37.4618C5.8611 37.3633 5.76206 37.2469 5.65402 37.1304L5.82509 36.5841L7.12162 36.9961C7.0856 37.1842 7.0766 37.3543 7.10361 37.5066L7.25667 37.5514L7.70685 36.1274L7.55379 36.0737C7.45475 36.1722 7.36471 36.2976 7.28368 36.4767L4.08738 35.4736C4.09639 35.3751 4.10539 35.2856 4.10539 35.205C4.10539 35.1244 4.10539 35.0527 4.08738 34.999L3.93432 34.9453L3.71824 35.6348C3.68222 35.7423 3.64621 35.8498 3.61019 35.9573C3.57418 36.0647 3.53816 36.1453 3.52015 36.217C3.46613 36.3961 3.43012 36.5842 3.41211 36.7722C3.3941 36.9603 3.41211 37.1394 3.45713 37.3096C3.50215 37.4797 3.58318 37.632 3.70023 37.7574ZM3.79927 36.3065C3.81727 36.2528 3.83528 36.1991 3.86229 36.1364C3.8893 36.0737 3.90731 36.0199 3.93432 35.9931L5.55498 36.5035C5.55498 36.5573 5.55498 36.611 5.52797 36.6827C5.50996 36.7543 5.49195 36.817 5.47395 36.8797C5.38391 37.1663 5.23985 37.3633 5.04177 37.4529C4.84369 37.5514 4.6186 37.5514 4.34849 37.4708C4.05137 37.3812 3.86229 37.229 3.79026 37.023C3.70923 36.817 3.71823 36.5842 3.79927 36.3065ZM7.70685 28.8643C7.88693 29.0793 8.13903 29.2673 8.46316 29.4464C8.77829 29.6166 9.0664 29.7241 9.33651 29.7688C9.60662 29.8136 9.85873 29.7957 10.0838 29.7241C10.3089 29.6524 10.525 29.527 10.7141 29.3479C10.9031 29.1688 11.0742 28.9449 11.2273 28.6673C11.2633 28.5956 11.3083 28.515 11.3443 28.4344C11.3803 28.3538 11.4164 28.2643 11.4434 28.1747C11.4704 28.0852 11.4884 28.0046 11.5064 27.924C11.5244 27.8434 11.5244 27.7628 11.5064 27.6911C11.3803 27.6105 11.2363 27.5389 11.0922 27.4762C10.9482 27.4135 10.8221 27.3598 10.7141 27.3329L10.642 27.4583L11.1282 28.0225C11.1282 28.0225 11.1372 28.121 11.1102 28.2016C11.0922 28.2822 11.0472 28.3807 10.9842 28.4882C10.8761 28.6942 10.7411 28.8554 10.579 28.9718C10.417 29.0972 10.2459 29.1778 10.0478 29.2136C9.84972 29.2494 9.64264 29.2494 9.41755 29.2046C9.19246 29.1599 8.96736 29.0703 8.73327 28.9449C8.47216 28.8016 8.26508 28.6494 8.10301 28.4792C7.94095 28.3091 7.8329 28.1299 7.76988 27.9508C7.70685 27.7717 7.67984 27.5926 7.69785 27.4135C7.71586 27.2344 7.76988 27.0642 7.85991 26.8941C7.90493 26.8135 7.94995 26.7328 8.00397 26.6522C8.058 26.5716 8.10301 26.5179 8.13903 26.491L8.99438 26.6254L9.0664 26.5C9.01238 26.4552 8.94936 26.4104 8.87733 26.3567C8.8053 26.303 8.73327 26.2582 8.66124 26.2045C8.58921 26.1507 8.51718 26.1059 8.44515 26.0701C8.37312 26.0253 8.3191 25.9895 8.26508 25.9627C8.14803 26.0433 8.03098 26.1507 7.92294 26.2851C7.8149 26.4194 7.69785 26.5896 7.5808 26.8135C7.46375 27.0373 7.37372 27.2612 7.3287 27.4941C7.28368 27.7359 7.29269 27.9598 7.35571 28.1926C7.41874 28.4255 7.53578 28.6404 7.71586 28.8554L7.70685 28.8643ZM9.75068 25.2731C9.91275 25.497 10.1468 25.7119 10.453 25.9179C10.7501 26.1149 11.0292 26.2403 11.2993 26.303C11.5694 26.3657 11.8125 26.3746 12.0466 26.3209C12.2807 26.2672 12.4968 26.1597 12.7039 25.9985C12.911 25.8373 13.1 25.6223 13.2711 25.3626C13.3161 25.291 13.3611 25.2193 13.4062 25.1387C13.4512 25.0581 13.4872 24.9775 13.5232 24.888C13.5592 24.8074 13.5862 24.7178 13.6042 24.6372C13.6223 24.5566 13.6313 24.476 13.6223 24.4044C13.5052 24.3148 13.3701 24.2342 13.2261 24.1626C13.082 24.0909 12.965 24.0282 12.8659 23.9834L12.7849 24.1088L13.2261 24.7089C13.2261 24.7089 13.2261 24.8074 13.1991 24.888C13.1721 24.9686 13.118 25.0581 13.055 25.1656C12.929 25.3626 12.7759 25.5149 12.6138 25.6223C12.4428 25.7298 12.2627 25.7925 12.0646 25.8194C11.8665 25.8373 11.6595 25.8194 11.4434 25.7567C11.2273 25.694 11.0022 25.5865 10.7771 25.4432C10.525 25.282 10.3359 25.1029 10.1919 24.9238C10.0478 24.7447 9.94876 24.5566 9.89474 24.3775C9.84072 24.1894 9.83171 24.0103 9.86773 23.8312C9.90374 23.6521 9.96677 23.4909 10.0748 23.3297C10.1288 23.2491 10.1829 23.1774 10.2369 23.0968C10.2999 23.0252 10.3449 22.9714 10.3899 22.9535L11.2363 23.1506L11.3173 23.0252C11.2633 22.9804 11.2003 22.9267 11.1372 22.864C11.0742 22.8102 11.0022 22.7476 10.9302 22.6938C10.8581 22.6401 10.7861 22.5863 10.7231 22.5416C10.6601 22.4968 10.597 22.452 10.552 22.4251C10.426 22.4968 10.3089 22.5953 10.1829 22.7207C10.0658 22.8461 9.93076 23.0073 9.7957 23.2132C9.66065 23.4192 9.5526 23.6431 9.48958 23.876C9.42655 24.1088 9.41755 24.3417 9.45356 24.5745C9.49858 24.8074 9.59762 25.0402 9.75969 25.2641L9.75068 25.2731ZM12.1457 21.9684C12.2897 22.1833 12.4788 22.3893 12.7129 22.5684C12.947 22.7476 13.1811 22.8908 13.4332 22.9804C13.6853 23.07 13.9194 23.1147 14.1625 23.1058C14.4056 23.1058 14.6307 23.0431 14.8467 22.9267C15.0628 22.8192 15.2609 22.649 15.432 22.4251C15.6031 22.2013 15.7201 21.9774 15.7831 21.7356C15.8372 21.5027 15.8462 21.2699 15.8011 21.037C15.7561 20.8042 15.6571 20.5803 15.504 20.3653C15.36 20.1504 15.1709 19.9444 14.9368 19.7653C14.7027 19.5862 14.4686 19.4429 14.2165 19.3533C13.9734 19.2638 13.7303 19.219 13.4872 19.2279C13.2441 19.2279 13.019 19.2906 12.8029 19.4071C12.5868 19.5145 12.3888 19.6847 12.2177 19.9086C12.0466 20.1325 11.9296 20.3564 11.8665 20.5982C11.8125 20.831 11.8035 21.0639 11.8575 21.2967C11.9026 21.5296 12.0016 21.7535 12.1457 21.9684ZM12.4158 20.1235C12.5508 19.9623 12.6949 19.8459 12.8659 19.7832C13.037 19.7205 13.2081 19.6936 13.3972 19.7116C13.5862 19.7295 13.7753 19.7832 13.9734 19.8817C14.1715 19.9713 14.3606 20.0967 14.5586 20.2399C14.7567 20.3832 14.9098 20.5444 15.0538 20.7146C15.1889 20.8848 15.2969 21.0549 15.36 21.2251C15.423 21.3952 15.45 21.5654 15.441 21.7356C15.423 21.9057 15.36 22.0669 15.2429 22.2192C15.1079 22.3804 14.9638 22.4968 14.7927 22.5595C14.6217 22.6222 14.4506 22.649 14.2615 22.6311C14.0724 22.6132 13.8834 22.5595 13.6853 22.4699C13.4872 22.3804 13.2891 22.255 13.1 22.1117C12.911 21.9594 12.7489 21.8072 12.6048 21.646C12.4608 21.4848 12.3617 21.3146 12.2897 21.1445C12.2177 20.9743 12.1997 20.8042 12.2087 20.634C12.2267 20.4638 12.2987 20.2937 12.4248 20.1325L12.4158 20.1235ZM14.6127 17.6159L17.0436 19.9086C16.9356 20.0877 16.8636 20.231 16.8186 20.3385L16.9356 20.4549L19.2585 18.01L20.0509 18.413L20.1499 18.3145C20.1049 18.2518 20.0509 18.1801 19.9878 18.0995C19.9248 18.0189 19.8618 17.9383 19.7898 17.8577C19.7177 17.7771 19.6547 17.6965 19.5827 17.6249C19.5196 17.5532 19.4566 17.4905 19.4026 17.4368L18.9524 17.9025L16.5124 15.6098C16.6025 15.4755 16.6745 15.3322 16.7285 15.18L16.6115 15.0635L15.6301 16.0934L15.7471 16.2099C15.8191 16.183 15.8912 16.1472 15.9542 16.1114C16.0172 16.0755 16.0802 16.0397 16.1433 15.9949L18.5833 18.2876L17.4218 19.5056L14.9818 17.2129C15.0718 17.0607 15.1349 16.9263 15.1709 16.8099L15.0538 16.6935L14.0724 17.7234L14.1895 17.8398C14.3515 17.7771 14.4956 17.6965 14.6127 17.607V17.6159ZM72.8933 7.79148C72.8393 7.73775 72.7853 7.68402 72.7312 7.63028C72.6772 7.57655 72.6142 7.53177 72.5602 7.48699L73.6316 5.19432L73.9287 4.54055L73.9737 4.55847L73.8837 5.2391L73.6676 8.31987L73.8027 8.38256L76.0716 6.24214L76.4948 5.77644L76.5308 5.79436L76.2337 6.38543L75.1622 8.68706C75.0812 8.66914 75.0002 8.66019 74.9281 8.64228C74.8471 8.63332 74.7751 8.62437 74.694 8.61541L74.622 8.76766L75.8825 9.34978L75.9545 9.20649C75.9095 9.15275 75.8555 9.09902 75.8015 9.05424C75.7475 9.00946 75.6844 8.95573 75.6214 8.91095L77.035 5.87496C77.107 5.89287 77.188 5.90182 77.2601 5.91078C77.3321 5.91078 77.4131 5.91974 77.4852 5.92869L77.5572 5.77644L76.6388 5.35553L74.631 7.25414L74.2078 7.71088L74.2799 7.10189L74.4689 4.36144L73.4155 3.87783L73.3435 4.02112C73.3975 4.08381 73.4605 4.13755 73.5145 4.19128C73.5776 4.24502 73.6406 4.29875 73.7036 4.34353L72.2991 7.37056C72.218 7.35265 72.137 7.33474 72.056 7.32579C71.9749 7.31683 71.8939 7.30787 71.8219 7.30787L71.7498 7.45117L72.8213 7.94373L72.8933 7.79148ZM97.3562 30.6017C97.2752 30.8256 97.2572 31.0674 97.2932 31.3271C97.3292 31.5869 97.4102 31.8555 97.5453 32.1421C97.5813 32.2138 97.6173 32.2944 97.6713 32.375C97.7164 32.4556 97.7704 32.5272 97.8244 32.5989C97.8784 32.6705 97.9324 32.7332 97.9955 32.7959C98.0585 32.8586 98.1125 32.9033 98.1846 32.9302C98.3286 32.8765 98.4637 32.8048 98.5987 32.7242C98.7338 32.6436 98.8508 32.572 98.9409 32.5093L98.8778 32.375L98.1305 32.4376C98.1305 32.4376 98.0495 32.3839 97.9955 32.3212C97.9415 32.2585 97.8874 32.169 97.8334 32.0526C97.7344 31.8466 97.6804 31.6406 97.6804 31.4346C97.6804 31.2376 97.7164 31.0406 97.7974 30.8614C97.8784 30.6823 98.0045 30.5122 98.1756 30.3599C98.3466 30.2077 98.5447 30.0733 98.7878 29.9569C99.0579 29.8315 99.31 29.7509 99.5351 29.733C99.7692 29.7062 99.9763 29.7151 100.156 29.7688C100.345 29.8226 100.498 29.9032 100.634 30.0286C100.769 30.1539 100.877 30.2972 100.958 30.4674C100.994 30.548 101.039 30.6375 101.066 30.7271C101.102 30.8167 101.12 30.8883 101.111 30.9331L100.498 31.5421L100.562 31.6764C100.634 31.6585 100.706 31.6316 100.787 31.6048C100.868 31.5779 100.958 31.551 101.039 31.5152C101.12 31.4794 101.201 31.4525 101.282 31.4257C101.354 31.3898 101.426 31.363 101.48 31.345C101.48 31.2018 101.462 31.0495 101.417 30.8794C101.372 30.7181 101.3 30.5211 101.192 30.2972C101.084 30.0733 100.949 29.8674 100.778 29.6972C100.607 29.527 100.417 29.3927 100.192 29.3031C99.9673 29.2136 99.7242 29.1867 99.4451 29.2046C99.166 29.2225 98.8598 29.3121 98.5267 29.4643C98.2026 29.6166 97.9505 29.7868 97.7524 29.9748C97.5543 30.1719 97.4193 30.3778 97.3472 30.6017H97.3562ZM95.2764 23.9655C95.0243 24.1178 94.8172 24.2969 94.6461 24.5029C94.4751 24.6999 94.358 24.9148 94.286 25.1387C94.214 25.3626 94.1959 25.5955 94.223 25.8373C94.259 26.0791 94.349 26.3209 94.5021 26.5537C94.6551 26.7955 94.8262 26.9747 95.0333 27.109C95.2404 27.2433 95.4565 27.3239 95.6905 27.3508C95.9246 27.3777 96.1767 27.3687 96.4288 27.2971C96.6809 27.2344 96.9331 27.1179 97.1852 26.9657C97.4373 26.8135 97.6443 26.6343 97.8154 26.4284C97.9865 26.2313 98.1035 26.0164 98.1756 25.7925C98.2476 25.5686 98.2656 25.3358 98.2386 25.094C98.2116 24.8521 98.1125 24.6103 97.9595 24.3775C97.8064 24.1357 97.6263 23.9566 97.4282 23.8222C97.2212 23.6879 97.0051 23.6073 96.762 23.5715C96.5279 23.5357 96.2758 23.5536 96.0237 23.6252C95.7716 23.6879 95.5195 23.7954 95.2674 23.9566L95.2764 23.9655ZM96.789 24.0372C96.9691 24.0372 97.1401 24.064 97.2932 24.1357C97.4463 24.2073 97.5813 24.3327 97.6894 24.5118C97.7974 24.6909 97.8604 24.8701 97.8604 25.0492C97.8604 25.2283 97.8244 25.4074 97.7434 25.5686C97.6623 25.7298 97.5453 25.9 97.3922 26.0522C97.2392 26.2045 97.0591 26.3478 96.852 26.4731C96.6449 26.5985 96.4469 26.697 96.2398 26.7776C96.0327 26.8493 95.8436 26.8941 95.6545 26.8941C95.4745 26.8941 95.3034 26.8672 95.1503 26.7955C94.9973 26.7239 94.8712 26.6075 94.7632 26.4463C94.6461 26.2672 94.5921 26.088 94.5831 25.9089C94.5831 25.7298 94.6191 25.5596 94.7001 25.3895C94.7812 25.2193 94.8982 25.0581 95.0513 24.8969C95.2043 24.7357 95.3844 24.6014 95.5915 24.4671C95.7986 24.3417 95.9967 24.2342 96.2038 24.1536C96.4018 24.073 96.5999 24.0372 96.78 24.0282L96.789 24.0372ZM98.4367 33.4855L98.2836 33.5392L98.7248 34.7124L98.8778 34.6587C98.8778 34.4796 98.8688 34.3094 98.8328 34.1571L99.9313 34.1392L100.399 35.393L99.5621 36.1095C99.5261 36.0468 99.4811 35.9752 99.4271 35.9125C99.373 35.8498 99.328 35.7871 99.274 35.7244L99.1209 35.7781L99.6341 37.1394L99.7872 37.0857C99.7962 37.014 99.8052 36.9424 99.7872 36.8618C99.7692 36.7812 99.7692 36.7095 99.7602 36.6379L102.749 34.0049L102.695 33.8527L98.7068 33.8168C98.6347 33.7004 98.5447 33.5929 98.4367 33.4855ZM101.507 34.1303L102.02 34.0855L101.606 34.3631L100.643 35.196L100.246 34.1392H101.507V34.1303ZM90.3424 17.8398C90.1173 18.0279 89.9462 18.2428 89.8112 18.4667C89.6761 18.6906 89.5861 18.9235 89.5501 19.1563C89.514 19.3892 89.5321 19.622 89.5951 19.8549C89.6671 20.0877 89.7932 20.3116 89.9822 20.5176C90.1713 20.7325 90.3694 20.8848 90.5945 20.9833C90.8196 21.0818 91.0447 21.1266 91.2878 21.1266C91.5309 21.1266 91.765 21.0639 92.0081 20.9654C92.2512 20.8579 92.4852 20.7146 92.7013 20.5265C92.9264 20.3295 93.0975 20.1235 93.2326 19.8996C93.3676 19.6757 93.4576 19.4429 93.4937 19.21C93.5297 18.9772 93.5117 18.7443 93.4486 18.5115C93.3766 18.2786 93.2506 18.0547 93.0615 17.8398C92.8724 17.6249 92.6743 17.4726 92.4492 17.3741C92.2241 17.2756 91.9991 17.2308 91.756 17.2308C91.5129 17.2308 91.2788 17.2935 91.0357 17.392C90.7926 17.4905 90.5585 17.6428 90.3424 17.8398ZM91.846 17.6786C92.0261 17.6428 92.1971 17.6517 92.3592 17.6965C92.5213 17.7413 92.6743 17.8488 92.8094 18.001C92.9444 18.1622 93.0345 18.3234 93.0705 18.5025C93.1065 18.6817 93.0885 18.8608 93.0435 19.0399C92.9894 19.219 92.8994 19.3981 92.7734 19.5772C92.6473 19.7563 92.4942 19.9175 92.3052 20.0787C92.1251 20.2399 91.936 20.3653 91.7469 20.4728C91.5579 20.5803 91.3688 20.643 91.1887 20.6788C91.0086 20.7146 90.8376 20.7056 90.6755 20.6609C90.5134 20.6161 90.3694 20.5176 90.2433 20.3743C90.1083 20.2131 90.0182 20.0519 89.9822 19.8728C89.9462 19.6936 89.9642 19.5145 90.0092 19.3354C90.0633 19.1563 90.1533 18.9772 90.2794 18.7981C90.4054 18.619 90.5585 18.4488 90.7385 18.2966C90.9186 18.1354 91.1077 18.001 91.2968 17.8935C91.4858 17.7861 91.6659 17.7144 91.846 17.6786ZM94.8622 20.5982L92.1701 22.5953C92.0531 22.4878 91.927 22.3893 91.783 22.3087L91.6479 22.4072L92.5753 23.6431L92.7103 23.5446C92.6563 23.3655 92.5843 23.1953 92.4943 23.0341L95.1954 21.037L95.8706 21.9415L95.3664 22.6759L95.4564 22.7923C95.5285 22.7565 95.6005 22.7117 95.6905 22.658C95.7716 22.6043 95.8616 22.5505 95.9517 22.4878C96.0417 22.4251 96.1227 22.3714 96.2038 22.3177C96.2848 22.2639 96.3568 22.2102 96.4198 22.1654L94.8352 20.0519L94.7001 20.1504C94.7181 20.231 94.7452 20.3026 94.7722 20.3832C94.7992 20.4638 94.8352 20.5355 94.8622 20.6071V20.5982ZM102.695 48.146C102.695 48.146 102.614 48.1191 102.578 48.1102C102.542 48.0923 102.506 48.0833 102.47 48.0654C102.434 48.0475 102.416 48.0385 102.398 48.0206L102.506 47.4295L102.362 47.3579C102.362 47.3579 102.272 47.3758 102.218 47.3937C102.164 47.4116 102.11 47.4295 102.056 47.4474C102.002 47.4654 101.948 47.4922 101.894 47.5101C101.84 47.537 101.804 47.5639 101.768 47.5818C101.75 47.6893 101.768 47.7878 101.822 47.8773C101.876 47.9669 101.948 48.0475 102.056 48.1191C102.164 48.1908 102.29 48.2624 102.452 48.3341C102.614 48.3968 102.803 48.4594 103.011 48.5221L105.604 49.4177C105.631 49.4983 105.667 49.5789 105.694 49.6416C105.721 49.7043 105.757 49.758 105.775 49.8118L105.937 49.7938L105.838 48.5401L105.676 48.558C105.622 48.6923 105.595 48.8535 105.577 49.0416L103.659 48.4594L103.281 48.3788L103.632 48.2176L105.423 47.134C105.451 47.2146 105.478 47.2952 105.505 47.3758C105.532 47.4564 105.568 47.5191 105.595 47.5818H105.757L105.64 46.0951H105.478C105.451 46.1757 105.432 46.2474 105.414 46.319C105.396 46.3907 105.378 46.4623 105.369 46.534L102.794 48.146C102.794 48.146 102.731 48.1281 102.695 48.1191V48.146ZM103.857 42.2621C103.596 42.2263 103.317 42.2263 103.029 42.271C102.74 42.3158 102.479 42.4054 102.245 42.5218C102.011 42.6382 101.813 42.7905 101.66 42.9696C101.507 43.1487 101.399 43.3547 101.327 43.5875C101.255 43.8204 101.255 44.0801 101.3 44.3577C101.345 44.6353 101.435 44.8772 101.57 45.0742C101.705 45.2712 101.876 45.4324 102.083 45.5578C102.29 45.6742 102.524 45.7548 102.785 45.7996C103.047 45.8444 103.326 45.8354 103.614 45.7906C103.902 45.7459 104.163 45.6563 104.397 45.5399C104.631 45.4235 104.829 45.2712 104.982 45.0921C105.135 44.913 105.243 44.707 105.315 44.4741C105.378 44.2413 105.387 43.9816 105.342 43.704C105.297 43.4263 105.207 43.1845 105.072 42.9875C104.937 42.7905 104.766 42.6293 104.559 42.5039C104.352 42.3875 104.118 42.3069 103.857 42.2621ZM105.045 43.704C105.081 43.9099 105.063 44.098 105 44.2682C104.937 44.4383 104.829 44.5816 104.694 44.707C104.55 44.8324 104.379 44.9398 104.181 45.0204C103.983 45.101 103.758 45.1637 103.524 45.1996C103.281 45.2354 103.056 45.2533 102.839 45.2443C102.623 45.2354 102.425 45.1906 102.254 45.1279C102.083 45.0652 101.939 44.9667 101.822 44.8413C101.705 44.716 101.633 44.5547 101.606 44.3667C101.57 44.1607 101.588 43.9726 101.651 43.8025C101.714 43.6323 101.822 43.489 101.957 43.3636C102.101 43.2383 102.272 43.1308 102.47 43.0502C102.668 42.9696 102.893 42.9069 103.128 42.8621C103.371 42.8263 103.596 42.8084 103.812 42.8084C104.028 42.8084 104.226 42.8532 104.397 42.9158C104.568 42.9785 104.712 43.0771 104.829 43.2024C104.946 43.3278 105.018 43.498 105.054 43.704H105.045ZM25.1469 8.63332L26.8936 11.4812C26.7406 11.6245 26.6325 11.741 26.5695 11.8395L26.6505 11.9828L29.5407 10.2274L30.198 10.8275L30.324 10.7558C30.297 10.6842 30.261 10.6036 30.225 10.514C30.189 10.4245 30.144 10.326 30.0989 10.2274C30.0539 10.1289 30.0089 10.0394 29.9639 9.94981C29.9189 9.86026 29.8738 9.78861 29.8378 9.71697L29.2796 10.0573L27.5329 7.20041C27.6499 7.09294 27.758 6.97651 27.857 6.84218L27.767 6.69888L26.5425 7.44221L26.6235 7.5855C26.7046 7.5855 26.7766 7.56759 26.8486 7.54968C26.9206 7.53177 26.9927 7.51386 27.0557 7.48699L28.8024 10.3439L27.3618 11.2215L25.6151 8.37361C25.7412 8.24823 25.8402 8.1318 25.9032 8.03329L25.8222 7.89L24.5977 8.63332L24.6787 8.77661C24.8588 8.74975 25.0119 8.71392 25.1469 8.66019V8.63332ZM100.183 37.8738C100.147 37.8021 100.111 37.7305 100.066 37.6678C100.021 37.6051 99.9763 37.5335 99.9313 37.4708L99.7692 37.5155L100.075 38.6529L100.237 38.6081C100.246 38.5275 100.255 38.4559 100.255 38.3843C100.255 38.3126 100.255 38.232 100.255 38.1604L102.713 37.5066L103.407 37.3185V37.3633L102.83 37.7305L100.309 39.5395L100.345 39.6828L103.452 40.05L104.082 40.0769V40.1217L103.452 40.2739L100.994 40.9277C100.958 40.856 100.913 40.7844 100.877 40.7217C100.841 40.6501 100.796 40.5874 100.742 40.5247L100.58 40.5695L100.94 41.9039L101.102 41.8591C101.111 41.7874 101.12 41.7158 101.12 41.6441C101.12 41.5725 101.12 41.4919 101.12 41.4202L104.361 40.5605C104.397 40.6321 104.433 40.6948 104.478 40.7575C104.523 40.8202 104.568 40.8829 104.613 40.9366L104.775 40.8919L104.514 39.9157L101.768 39.6022L101.147 39.5664L101.66 39.2261L103.902 37.6141L103.605 36.5035L103.443 36.5483C103.434 36.6289 103.425 36.7095 103.425 36.7901C103.425 36.8707 103.425 36.9513 103.425 37.0319L100.192 37.8917L100.183 37.8738ZM43.8655 4.90774L43.8385 4.74654C43.6674 4.71071 43.4964 4.6928 43.3343 4.70176L43.5054 3.61811L44.8289 3.37631L45.3961 4.31666C45.3241 4.34353 45.2521 4.37935 45.1801 4.41517C45.108 4.451 45.036 4.49578 44.964 4.5316L44.991 4.6928L46.4226 4.42413L46.3955 4.26293C46.3235 4.23606 46.2515 4.2271 46.1795 4.21815C46.1074 4.21815 46.0264 4.21815 45.9544 4.21815L43.8655 0.832883L43.7035 0.85975L42.9832 4.76445C42.8571 4.81818 42.7311 4.88983 42.605 4.97043L42.632 5.13163L43.8655 4.89878V4.90774ZM43.7755 2.07773L43.8205 1.56725H43.8295L44.0276 2.02399L44.6849 3.11659L43.5684 3.32258L43.7755 2.08668V2.07773ZM33.9435 5.44508C34.0335 5.5436 34.1236 5.61524 34.2316 5.67793C34.3307 5.73167 34.4477 5.77644 34.5647 5.79436C34.6818 5.81227 34.7988 5.82122 34.9069 5.81227C34.8799 5.93765 34.8439 6.07198 34.8168 6.19736C34.7898 6.3317 34.7628 6.46604 34.7268 6.60037C34.6908 6.73471 34.6548 6.878 34.6188 7.03025C34.5737 7.18249 34.5197 7.33474 34.4567 7.49594L34.2496 7.71984L34.3036 7.85417L34.9699 7.59446L35.096 7.39743C35.141 7.25414 35.186 7.11085 35.213 6.97651C35.24 6.83322 35.258 6.69888 35.276 6.55559C35.294 6.4123 35.312 6.26901 35.3211 6.12572C35.3391 5.98243 35.3571 5.83018 35.3841 5.66898L35.9153 5.46299L36.4105 6.72575C36.2394 6.81531 36.1044 6.91382 36.0053 7.03025L36.0684 7.18249L37.4639 6.64515L37.4009 6.4929C37.2658 6.47499 37.1038 6.4929 36.9237 6.53768L35.7082 3.43004C35.7982 3.37631 35.8703 3.32258 35.9333 3.2778C35.9963 3.22406 36.0504 3.17928 36.0864 3.13451L36.0233 2.98226L35.3481 3.24197C35.24 3.28675 35.132 3.32258 35.0239 3.3584C34.9159 3.39422 34.8259 3.42109 34.7628 3.44796C34.5828 3.5196 34.4117 3.60916 34.2586 3.71663C34.0966 3.8241 33.9705 3.94948 33.8625 4.08381C33.7634 4.2271 33.6914 4.37935 33.6644 4.54951C33.6374 4.71967 33.6644 4.89878 33.7274 5.09581C33.7814 5.2391 33.8535 5.36448 33.9435 5.46299V5.44508ZM34.2856 4.1465C34.3937 3.95843 34.5828 3.80618 34.8529 3.70767C34.8979 3.68976 34.9609 3.67185 35.0239 3.64498C35.087 3.62707 35.141 3.60916 35.186 3.60916L35.8073 5.18537C35.8073 5.18537 35.7172 5.24806 35.6452 5.28388C35.5822 5.3197 35.5191 5.34657 35.4561 5.36448C35.168 5.47195 34.9339 5.48091 34.7358 5.39135C34.5377 5.30179 34.3937 5.12268 34.2856 4.86296C34.1776 4.57638 34.1686 4.33457 34.2856 4.1465ZM55.4442 3.83305C55.3812 3.79723 55.3092 3.77036 55.2371 3.74349C55.1561 3.71663 55.0841 3.68976 54.994 3.67185V3.54647L56.7948 1.31649L57.0649 0.904529L56.9838 1.32545L56.8668 3.76141C56.7858 3.77036 56.7047 3.78827 56.6327 3.80618C56.5607 3.8241 56.4886 3.85096 56.4346 3.86887V4.03008L57.8572 4.10172V3.94052C57.7402 3.87783 57.5871 3.8241 57.407 3.77932L57.5691 0.447786C57.6501 0.429875 57.7311 0.411963 57.8122 0.394052C57.8932 0.376141 57.9652 0.358229 58.0373 0.322406V0.18807L56.6147 0.116424V0.277628C56.6687 0.304495 56.7407 0.331362 56.8128 0.367185C56.8938 0.394052 56.9658 0.420919 57.0559 0.438831V0.573167L55.2822 2.77628L54.985 3.20615L55.0661 2.78523L55.1831 0.349273C55.2731 0.331362 55.3452 0.322406 55.4172 0.295539C55.4892 0.268672 55.5523 0.25076 55.6153 0.223893V0.0716458L54.1927 0V0.161203C54.2557 0.197026 54.3368 0.223893 54.4088 0.25076C54.4898 0.277628 54.5619 0.304495 54.6339 0.322406L54.4718 3.65394C54.3098 3.67185 54.1567 3.70767 54.0036 3.77036V3.93156L55.4262 4.00321V3.84201L55.4442 3.83305ZM28.9735 6.30483C29.0545 6.28692 29.1355 6.27797 29.2076 6.26005L30.6842 9.25127C30.5491 9.34083 30.4321 9.44829 30.324 9.57367L30.3961 9.71697L31.6836 9.09006L31.6115 8.94677C31.5395 8.94677 31.4675 8.94677 31.3865 8.96468C31.3054 8.9826 31.2244 9.00051 31.1434 9.01842L31.0893 8.91095L31.5755 6.09885L31.6115 5.61524L31.7466 6.01825L32.827 8.20345C32.755 8.25718 32.701 8.30196 32.647 8.35569C32.5929 8.40943 32.5479 8.46316 32.5029 8.50794L32.5749 8.65123L33.8625 8.02433L33.7904 7.88104C33.6464 7.88104 33.4843 7.91686 33.3132 7.96164L31.8366 4.97043C31.8997 4.9167 31.9627 4.86296 32.0257 4.80923C32.0887 4.75549 32.1428 4.70176 32.1878 4.63907L32.1157 4.49578L30.8282 5.12268L30.9003 5.26597C30.9723 5.26597 31.0443 5.24806 31.1254 5.2391C31.2064 5.23015 31.2874 5.21223 31.3775 5.18537L31.4405 5.30179L30.9723 8.07807L30.9273 8.5975L30.7922 8.19449L29.7118 6.00034C29.7838 5.9466 29.8378 5.89287 29.8919 5.83913C29.9459 5.7854 29.9909 5.74062 30.0269 5.68689L29.9549 5.5436L28.6674 6.1705L28.7394 6.31379C28.8204 6.31379 28.9014 6.29588 28.9825 6.28692L28.9735 6.30483ZM86.1647 16.1114C86.0296 16.0218 85.8856 15.9502 85.7325 15.8875L85.6155 16.0039L86.6509 16.989L86.7679 16.8726C86.7409 16.8099 86.7139 16.7383 86.6779 16.6756C86.6419 16.6129 86.5969 16.5502 86.5608 16.4875L87.6503 15.3501L88.9378 16.5681L87.8484 17.7055C87.7223 17.6249 87.5873 17.5622 87.4522 17.5084L87.3352 17.6249L88.3706 18.61L88.4876 18.4936C88.4606 18.4309 88.4246 18.3592 88.3886 18.2876C88.3436 18.216 88.2985 18.1443 88.2445 18.0727L90.5585 15.6636C90.6305 15.7083 90.6935 15.7531 90.7655 15.7889C90.8376 15.8337 90.9096 15.8606 90.9906 15.8785L91.1077 15.7621L90.0723 14.777L89.9552 14.8934C89.9822 14.9561 90.0092 15.0277 90.0453 15.0904C90.0813 15.1531 90.1173 15.2247 90.1623 15.2874L89.1449 16.3532L87.8574 15.1352L88.8748 14.0694C88.9378 14.1142 89.0098 14.1501 89.0729 14.1769C89.1359 14.2127 89.2079 14.2396 89.2799 14.2575L89.397 14.1411L88.3616 13.156L88.2445 13.2724C88.2895 13.4157 88.3706 13.55 88.4786 13.6933L86.1647 16.1114ZM85.3454 11.0872L86.0206 11.6245L83.9048 14.2307C83.8147 14.1769 83.7337 14.1411 83.6527 14.1053C83.5716 14.0694 83.4906 14.0336 83.4096 14.0068L83.3105 14.1321L84.544 15.1262L84.6431 15.0008C84.607 14.9292 84.553 14.8576 84.499 14.7859C84.445 14.7143 84.382 14.6426 84.3189 14.571L86.4348 11.9649L87.1011 12.5022L86.8219 13.3172L86.939 13.4067C87.002 13.353 87.056 13.2903 87.1281 13.2187C87.2001 13.147 87.2541 13.0754 87.3261 13.0037C87.3892 12.9321 87.4612 12.8604 87.5242 12.7888C87.5873 12.7171 87.6413 12.6544 87.6863 12.5918L85.1293 10.5409C85.0842 10.6036 85.0302 10.6663 84.9762 10.7469C84.9222 10.8275 84.8592 10.8991 84.8051 10.9887C84.7421 11.0693 84.6881 11.1499 84.6341 11.2305C84.58 11.3111 84.535 11.3827 84.499 11.4454L84.607 11.535L85.3454 11.0961V11.0872ZM59.3788 0.635857L60.2342 0.752281L59.784 4.0659C59.6849 4.0659 59.5949 4.0659 59.5049 4.08381C59.4148 4.09277 59.3338 4.11068 59.2438 4.12859L59.2258 4.28979L60.8014 4.49578L60.8194 4.33457C60.7474 4.28979 60.6663 4.25397 60.5853 4.2271C60.5043 4.20024 60.4142 4.16441 60.3242 4.13755L60.7744 0.823927L61.6297 0.940351L61.8188 1.77323L61.9629 1.79115C61.9809 1.71054 62.0079 1.62994 62.0259 1.53143C62.0439 1.43292 62.0619 1.34336 62.0799 1.24485C62.0979 1.14633 62.1159 1.04782 62.1339 0.958263C62.1519 0.868706 62.1609 0.779148 62.1699 0.707503L58.9106 0.268672C58.9016 0.340318 58.8926 0.429875 58.8836 0.519432C58.8746 0.617945 58.8656 0.716458 58.8566 0.814971C58.8566 0.913484 58.8386 1.012 58.8386 1.11051C58.8386 1.20902 58.8386 1.28962 58.8386 1.37023L58.9827 1.38814L59.3878 0.626901L59.3788 0.635857ZM5.59099 43.3457L5.75306 43.3815L6.03217 42.1636L5.87011 42.1277C5.77107 42.271 5.69003 42.4233 5.62701 42.5666L4.69963 41.9755L4.99675 40.668L6.0862 40.5247C6.0862 40.6053 6.0862 40.6769 6.0862 40.7665C6.0862 40.8471 6.1042 40.9277 6.11321 41.0083L6.27527 41.0441L6.5994 39.6291L6.43734 39.5933C6.38332 39.647 6.3473 39.7097 6.31129 39.7724C6.27527 39.8351 6.23926 39.9067 6.21225 39.9784L2.25964 40.5426L2.22363 40.7038L5.54598 42.9158C5.54598 43.0502 5.56398 43.1935 5.59099 43.3368V43.3457ZM4.43853 41.8053L3.3761 41.1247L2.92591 40.8829H3.42111L4.69063 40.7127L4.43853 41.8143V41.8053ZM8.89534 79.1776L11.7945 77.5029C11.9116 77.6372 12.0286 77.7536 12.1457 77.8342L12.2897 77.7536L10.8851 75.3625C10.7411 75.4431 10.597 75.5237 10.462 75.6132C10.3269 75.7028 10.2009 75.8013 10.0748 75.8998L10.1468 76.0252L10.8761 75.9267L11.5334 77.0461L10.1739 77.8342L9.71467 77.0461L9.97577 76.6431L9.90374 76.5177C9.5526 76.6969 9.22847 76.8849 8.91334 77.0909L8.98537 77.2163L9.45356 77.1984L9.91275 77.9954L8.61622 78.7477L7.99497 77.6909L8.41814 77.1805L8.34611 77.0551C8.20205 77.1178 8.067 77.1805 7.92294 77.2521C7.78789 77.3238 7.65283 77.3864 7.51778 77.4581L8.86832 79.7597L9.01238 79.6791C9.00338 79.5985 8.98537 79.5179 8.96736 79.4373C8.94936 79.3567 8.93135 79.2761 8.90434 79.2045L8.89534 79.1776ZM98.4186 78.7656C98.3556 78.8194 98.3016 78.8731 98.2386 78.9268L95.4114 77.1267C95.4745 76.9834 95.5195 76.8312 95.5465 76.67L95.4114 76.5804L94.6371 77.7805L94.7722 77.8701C94.8352 77.8342 94.8892 77.7895 94.9522 77.7357C95.0153 77.682 95.0693 77.6283 95.1323 77.5566L95.2404 77.6193L96.2938 80.2702L96.5189 80.709L96.1947 80.4314L94.1329 79.1149C94.1689 79.0343 94.1869 78.9627 94.2049 78.891C94.2229 78.8194 94.241 78.7477 94.25 78.685L94.1149 78.5955L93.3406 79.7955L93.4756 79.8851C93.6017 79.8045 93.7188 79.706 93.8358 79.5716L96.6629 81.3717C96.6359 81.4523 96.6089 81.533 96.5819 81.6135C96.5639 81.6942 96.5369 81.7658 96.5279 81.8374L96.6629 81.927L97.4373 80.7269L97.3022 80.6374C97.2482 80.6732 97.1852 80.7269 97.1221 80.7717C97.0591 80.8255 96.9961 80.8792 96.9331 80.9419L96.816 80.8702L95.7716 78.2462L95.5375 77.7805L95.8616 78.0581L97.9324 79.3746C97.9054 79.4552 97.8784 79.5358 97.8604 79.5985C97.8424 79.6612 97.8334 79.7328 97.8244 79.8045L97.9595 79.8941L98.7338 78.694L98.5987 78.6044C98.5357 78.6492 98.4727 78.7029 98.4097 78.7567L98.4186 78.7656ZM80.6995 7.56759L78.3765 6.23319L78.2955 6.37648C78.3495 6.43917 78.4035 6.50186 78.4576 6.56455C78.5116 6.62724 78.5746 6.68097 78.6286 6.73471L76.9539 9.62741C76.7829 9.56472 76.6298 9.5289 76.4857 9.51098L76.4047 9.65427L78.8177 11.0424C78.9077 10.8991 78.9888 10.7648 79.0608 10.6125C79.1328 10.4692 79.1959 10.317 79.2499 10.1737L79.1238 10.1021L78.5476 10.5498L77.4221 9.90504L78.2055 8.54377L79.0068 9.00051L78.9798 9.48412L79.1058 9.55576C79.3219 9.23336 79.511 8.90199 79.673 8.57063L79.547 8.49899L79.1508 8.74975L78.3495 8.293L79.0968 7.00338L80.1683 7.61237L80.0602 8.26614L80.1863 8.33778C80.2763 8.2124 80.3663 8.08702 80.4564 7.96164C80.5374 7.83626 80.6184 7.71088 80.6995 7.57655V7.56759ZM95.0063 82.2584C94.8802 82.1599 94.7542 82.0972 94.6281 82.0613C94.5021 82.0255 94.385 82.0076 94.268 82.0076C94.1509 82.0076 94.0339 82.0345 93.9258 82.0793C93.8178 82.124 93.7188 82.1778 93.6197 82.2405C93.5747 82.1151 93.5387 81.9897 93.4937 81.8643C93.4486 81.7389 93.4036 81.6046 93.3586 81.4703C93.3136 81.3359 93.2686 81.1926 93.2326 81.0493C93.1875 80.8971 93.1605 80.7359 93.1245 80.5657L93.1785 80.2702L93.0705 80.1806L92.6383 80.7449V80.9866C92.6653 81.1389 92.7103 81.2732 92.7553 81.4076C92.8094 81.5419 92.8634 81.6673 92.9174 81.8016C92.9804 81.936 93.0435 82.0613 93.1065 82.1957C93.1695 82.33 93.2326 82.4643 93.2866 82.6166L92.9354 83.0644L91.855 82.2405C91.954 82.0793 92.0171 81.9181 92.0441 81.7658L91.918 81.6673L91.0086 82.8494L91.1347 82.948C91.2607 82.8942 91.3868 82.7957 91.5219 82.6614L94.1779 84.6943C94.1329 84.7839 94.0969 84.8734 94.0699 84.9451C94.0429 85.0167 94.0249 85.0884 94.0069 85.1511L94.1329 85.2496L94.5741 84.6764C94.6461 84.5869 94.7181 84.4973 94.7902 84.4167C94.8622 84.3361 94.9252 84.2644 94.9703 84.2018C95.0873 84.0495 95.1863 83.8883 95.2674 83.7092C95.3484 83.539 95.3934 83.3599 95.4114 83.1898C95.4294 83.0196 95.4024 82.8494 95.3394 82.6882C95.2764 82.527 95.1593 82.3837 94.9973 82.2584H95.0063ZM94.7542 84.0137C94.7542 84.0137 94.6821 84.1032 94.6371 84.157C94.5921 84.2107 94.5561 84.2465 94.5201 84.2734L93.1695 83.2435C93.1875 83.1987 93.2145 83.145 93.2506 83.0823C93.2866 83.0196 93.3316 82.9659 93.3676 82.9121C93.5567 82.6703 93.7548 82.536 93.9708 82.5181C94.1869 82.5002 94.403 82.5718 94.6281 82.742C94.8712 82.93 94.9973 83.136 95.0063 83.351C95.0063 83.5659 94.9252 83.7898 94.7452 84.0226L94.7542 84.0137ZM81.2307 12.6992C81.3027 12.744 81.3747 12.7888 81.4558 12.8336C81.5368 12.8783 81.6178 12.9231 81.6989 12.95C81.7799 12.9858 81.8609 13.0127 81.942 13.0306C82.023 13.0485 82.104 13.0575 82.1761 13.0575C82.2661 12.941 82.3561 12.8067 82.4282 12.6724C82.5092 12.5291 82.5632 12.4126 82.6082 12.3141L82.4912 12.2335L81.8789 12.6634C81.8789 12.6634 81.7799 12.6634 81.6989 12.6276C81.6178 12.5918 81.5278 12.547 81.4288 12.4753C81.2397 12.341 81.0866 12.1977 80.9786 12.0275C80.8705 11.8574 80.8075 11.6783 80.7895 11.4723C80.7715 11.2753 80.7895 11.0693 80.8615 10.8543C80.9246 10.6394 81.0326 10.4245 81.1857 10.2006C81.3567 9.95877 81.5278 9.76174 81.7169 9.62741C81.906 9.48412 82.086 9.39456 82.2751 9.34978C82.4642 9.305 82.6443 9.29605 82.8153 9.33187C82.9954 9.36769 83.1575 9.43934 83.3195 9.54681C83.4006 9.60054 83.4726 9.65428 83.5446 9.71697C83.6166 9.77966 83.6707 9.82443 83.6887 9.86921L83.4726 10.7021L83.5896 10.7827C83.6437 10.729 83.6887 10.6752 83.7517 10.6036C83.8147 10.5409 83.8688 10.4692 83.9228 10.3976C83.9768 10.326 84.0308 10.2633 84.0848 10.2006C84.1299 10.1379 84.1749 10.0842 84.2109 10.0304C84.1389 9.90504 84.0488 9.77966 83.9228 9.66323C83.7967 9.53785 83.6347 9.41247 83.4276 9.26918C83.2205 9.12589 82.9954 9.02737 82.7613 8.95573C82.5272 8.88408 82.2931 8.87513 82.059 8.91095C81.8249 8.94677 81.5908 9.04529 81.3567 9.19753C81.1316 9.34978 80.9065 9.58263 80.6995 9.88712C80.5014 10.1827 80.3663 10.4513 80.2943 10.72C80.2223 10.9797 80.2133 11.2305 80.2583 11.4633C80.3033 11.6962 80.4113 11.9111 80.5734 12.1261C80.7265 12.332 80.9426 12.5291 81.2037 12.7082L81.2307 12.6992ZM53.1303 3.3584C53.2113 3.20615 53.2563 3.03599 53.2473 2.83001C53.2473 2.66881 53.2113 2.53447 53.1483 2.427C53.0853 2.31953 53.0132 2.22102 52.9232 2.14937C52.8332 2.07773 52.7341 2.01504 52.6171 1.97922C52.5 1.94339 52.392 1.90757 52.2749 1.89861V1.8807C52.401 1.84488 52.509 1.8001 52.5991 1.72846C52.6891 1.65681 52.7701 1.58516 52.8242 1.49561C52.8872 1.40605 52.9232 1.31649 52.9502 1.21798C52.9772 1.11947 52.9862 1.02095 52.9862 0.92244C52.9862 0.725414 52.9322 0.573167 52.8512 0.447786C52.7701 0.331362 52.6621 0.232849 52.536 0.170159C52.41 0.107469 52.2659 0.0626901 52.1039 0.0447786C51.9508 0.0268672 51.7887 0.0179115 51.6447 0.0268672C51.5366 0.0268672 51.4466 0.0268672 51.3656 0.0447786C51.2845 0.0626901 51.2035 0.0537344 51.1315 0.0626901C51.0594 0.0716458 50.9874 0.0716458 50.9244 0.0806016C50.8614 0.0806016 50.7893 0.0895573 50.7173 0.0895573L50.1141 0.107469V0.268672C50.1951 0.295539 50.2761 0.322406 50.3572 0.340318C50.4382 0.358229 50.5192 0.376141 50.5912 0.394052L50.6993 3.72558C50.5372 3.75245 50.3842 3.79723 50.2401 3.87783V4.03903L50.7893 4.02112C50.9424 4.02112 51.1045 4.02112 51.2665 4.02112C51.4286 4.02112 51.5816 4.02112 51.7167 4.02112C51.9058 4.02112 52.0949 3.9853 52.2749 3.94052C52.455 3.89574 52.6171 3.81514 52.7611 3.71663C52.9052 3.61811 53.0132 3.49273 53.1033 3.34049L53.1303 3.3584ZM51.1225 0.367185C51.1765 0.367185 51.2395 0.349273 51.3205 0.340318C51.4016 0.340318 51.5006 0.331362 51.6177 0.322406C51.8698 0.322406 52.0678 0.367185 52.2209 0.483609C52.374 0.600034 52.455 0.788104 52.464 1.02991C52.464 1.20902 52.419 1.37023 52.3109 1.50456C52.2029 1.6389 52.0678 1.74637 51.8968 1.80906C51.8428 1.81801 51.7707 1.82697 51.6807 1.83592C51.5907 1.83592 51.5186 1.85384 51.4556 1.85384H51.1765L51.1315 0.358229L51.1225 0.367185ZM52.6441 3.22406C52.5991 3.33153 52.536 3.42109 52.455 3.49273C52.374 3.56438 52.2749 3.62707 52.1579 3.67185C52.0408 3.71663 51.9148 3.74349 51.7797 3.74349C51.6177 3.74349 51.5006 3.74349 51.4286 3.74349C51.3566 3.74349 51.2935 3.72558 51.2395 3.71663L51.1855 2.16729L51.6087 2.14937C51.7437 2.14937 51.8878 2.14937 52.0138 2.16729C52.1489 2.1852 52.2569 2.22102 52.365 2.27476C52.464 2.32849 52.545 2.40909 52.6081 2.49865C52.6711 2.59716 52.7071 2.72254 52.7071 2.86583C52.7071 2.98226 52.6891 3.09868 52.6441 3.20615V3.22406ZM66.5097 1.8807C66.5907 1.8807 66.6718 1.86279 66.7438 1.85384L66.7798 1.69263L65.3753 1.37918L65.3392 1.54039C65.3933 1.57621 65.4563 1.62099 65.5283 1.65681C65.6003 1.69263 65.6724 1.73741 65.7534 1.77323L65.7264 1.90757L63.6105 3.78827L63.2504 4.16441L63.4034 3.77036L63.9347 1.38814C64.0247 1.38814 64.1057 1.38814 64.1778 1.37918C64.2498 1.37918 64.3218 1.36127 64.3848 1.34336L64.4209 1.18216L63.0253 0.877661L62.9893 1.03886C63.0523 1.08364 63.1243 1.12842 63.1964 1.16424C63.2684 1.20007 63.3404 1.24485 63.4125 1.27171L62.6922 4.52264C62.5301 4.51369 62.368 4.52264 62.206 4.55847L62.1699 4.71967L63.5655 5.02416L63.6015 4.86296C63.5475 4.81818 63.4845 4.78236 63.4125 4.73758C63.3404 4.70176 63.2684 4.66593 63.1874 4.63011L63.2144 4.51369L65.3572 2.61507L65.6904 2.25684L65.5463 2.65985L65.0151 5.03312C64.9341 5.03312 64.853 5.03312 64.772 5.03312C64.7 5.03312 64.6279 5.05103 64.5649 5.06894L64.5289 5.23015L65.9335 5.5436L65.9695 5.38239C65.8524 5.29284 65.7084 5.22119 65.5463 5.14954L66.2756 1.88966C66.3656 1.88966 66.4467 1.88966 66.5277 1.8807H66.5097ZM49.0876 2.35536C49.0066 2.28371 48.9166 2.23893 48.8085 2.19415C48.7005 2.15833 48.5924 2.14042 48.4844 2.13146V2.11355C48.7095 1.99713 48.8715 1.84488 48.9706 1.66577C49.0606 1.48665 49.0966 1.30754 49.0786 1.11051C49.0606 0.913484 48.9976 0.761237 48.9076 0.644812C48.8175 0.528388 48.7005 0.438831 48.5654 0.385096C48.4304 0.322406 48.2863 0.295539 48.1333 0.277628C47.9802 0.268672 47.8271 0.277628 47.6741 0.286583C47.593 0.286583 47.512 0.304495 47.422 0.322406C47.3319 0.340318 47.2419 0.358229 47.1609 0.394052C47.0798 0.420919 46.9988 0.456742 46.9178 0.492565C46.8367 0.528388 46.7737 0.573167 46.7287 0.626901C46.7377 0.779148 46.7647 0.931396 46.7917 1.0926C46.8187 1.24485 46.8547 1.37023 46.8817 1.46874L47.0258 1.45083L47.2509 0.73437C47.2509 0.73437 47.3229 0.67168 47.395 0.644812C47.467 0.617945 47.566 0.600034 47.6831 0.582122C47.9262 0.555255 48.1333 0.600034 48.2863 0.725414C48.4394 0.841838 48.5294 1.02991 48.5564 1.27171C48.5744 1.45083 48.5474 1.61203 48.4664 1.75532C48.3854 1.89861 48.2683 2.00608 48.0972 2.08668C48.0342 2.1046 47.9622 2.11355 47.8721 2.13146C47.7821 2.14937 47.7101 2.15833 47.6471 2.16729L47.467 2.1852C47.458 2.28371 47.467 2.40014 47.503 2.5076L47.9262 2.40014C48.0432 2.39118 48.1513 2.39118 48.2503 2.40014C48.3583 2.41805 48.4484 2.45387 48.5384 2.49865C48.6285 2.54343 48.6915 2.62403 48.7545 2.72254C48.8175 2.82105 48.8535 2.93748 48.8625 3.08973C48.8716 3.21511 48.8625 3.33153 48.8355 3.439C48.7995 3.54647 48.7455 3.64498 48.6735 3.73454C48.6014 3.8241 48.5114 3.88679 48.3944 3.94948C48.2863 4.00321 48.1603 4.03903 48.0252 4.05695C47.9802 4.05695 47.9262 4.05694 47.8721 4.0659C47.8181 4.0659 47.7641 4.0659 47.7101 4.0659C47.6561 4.0659 47.611 4.0659 47.566 4.05695C47.521 4.05695 47.494 4.04799 47.467 4.03903L47.1428 3.2778L46.9988 3.29571C46.9898 3.37631 46.9808 3.45691 46.9718 3.53751C46.9718 3.62707 46.9538 3.70767 46.9538 3.79723C46.9538 3.88679 46.9538 3.96739 46.9538 4.03903C46.9538 4.11964 46.9538 4.18232 46.9628 4.24502C47.0978 4.29875 47.2599 4.33457 47.458 4.35248C47.6561 4.3704 47.8541 4.3704 48.0612 4.35248C48.2503 4.33457 48.4304 4.28979 48.6104 4.2271C48.7815 4.16441 48.9346 4.07486 49.0606 3.95843C49.1867 3.84201 49.2767 3.71663 49.3397 3.55542C49.4028 3.39422 49.4298 3.21511 49.4028 3.01808C49.3848 2.86583 49.3487 2.7315 49.2947 2.62403C49.2407 2.51656 49.1777 2.427 49.0966 2.36431L49.0876 2.35536ZM68.2114 6.07198L68.1664 6.22423L69.598 6.67202L69.643 6.51977C69.5439 6.42126 69.4179 6.3317 69.2378 6.2511L70.2372 3.07182C70.3363 3.08077 70.4353 3.08973 70.5073 3.08973C70.5884 3.08973 70.6604 3.08973 70.7144 3.07182L70.7594 2.91957L70.0661 2.70463C69.9581 2.66881 69.8501 2.63298 69.742 2.59716C69.634 2.56134 69.5529 2.52552 69.4809 2.5076C69.3008 2.45387 69.1118 2.41805 68.9227 2.40014C68.7336 2.38222 68.5535 2.40014 68.3825 2.44491C68.2114 2.48969 68.0673 2.57029 67.9323 2.68672C67.7972 2.80314 67.7072 2.95539 67.6442 3.15242C67.5991 3.30466 67.5721 3.439 67.5811 3.57334C67.5811 3.69872 67.6172 3.8241 67.6622 3.93156C67.7072 4.03903 67.7702 4.13755 67.8512 4.2271C67.9323 4.31666 68.0133 4.38831 68.1124 4.45995C68.0043 4.54055 67.9053 4.62116 67.7972 4.71071C67.6892 4.80027 67.5901 4.88087 67.4731 4.97043C67.3651 5.05999 67.248 5.14954 67.113 5.2391C66.9869 5.32866 66.8428 5.41822 66.6898 5.49882L66.3927 5.5436L66.3476 5.67793L67.0229 5.89287L67.248 5.81227C67.3741 5.73167 67.4911 5.64211 67.5992 5.55255C67.7072 5.46299 67.8152 5.36448 67.9143 5.26597C68.0133 5.16746 68.1214 5.05999 68.2204 4.95252C68.3194 4.84505 68.4365 4.74654 68.5535 4.63907L69.1028 4.80923L68.6976 6.09885C68.5085 6.06303 68.3375 6.06303 68.1844 6.08094L68.2114 6.07198ZM69.0307 4.49578C68.9587 4.47786 68.8957 4.45995 68.8326 4.44204C68.5445 4.35248 68.3465 4.20919 68.2564 4.02112C68.1574 3.8241 68.1574 3.6002 68.2384 3.33153C68.3284 3.03599 68.4815 2.84792 68.6796 2.77628C68.8867 2.69567 69.1208 2.69567 69.3999 2.78523C69.4539 2.80314 69.5079 2.82105 69.5709 2.84792C69.634 2.87479 69.688 2.8927 69.715 2.91957L69.2018 4.5316C69.1478 4.5316 69.0938 4.5316 69.0217 4.50473L69.0307 4.49578ZM105.622 55.3912C105.595 55.4628 105.568 55.5434 105.541 55.624L102.2 55.3464C102.2 55.2658 102.182 55.1942 102.173 55.1136C102.164 55.033 102.137 54.9524 102.11 54.8717L101.948 54.8538L101.813 56.3942L101.975 56.4121C102.011 56.3315 102.047 56.2509 102.074 56.1703C102.11 56.0808 102.137 55.9912 102.155 55.8927L103.398 56.0002C103.398 56.0002 103.389 56.0449 103.38 56.0897C103.371 56.1345 103.362 56.1703 103.362 56.2151C103.362 56.2599 103.353 56.3047 103.344 56.3405C103.344 56.3763 103.344 56.4121 103.344 56.43C103.326 56.6271 103.344 56.8151 103.362 57.0032C103.398 57.1913 103.452 57.3614 103.542 57.5137C103.632 57.6659 103.749 57.7913 103.902 57.8898C104.055 57.9883 104.235 58.051 104.46 58.0689C104.694 58.0869 104.892 58.0689 105.054 57.9883C105.216 57.9167 105.351 57.8182 105.46 57.6928C105.568 57.5674 105.649 57.4152 105.703 57.245C105.757 57.0749 105.793 56.8957 105.811 56.7077C105.829 56.5465 105.829 56.3763 105.829 56.1972C105.829 56.0181 105.829 55.8569 105.847 55.7046L105.892 55.2031L105.73 55.1852C105.694 55.2568 105.667 55.3285 105.631 55.4001L105.622 55.3912ZM105.523 56.5554C105.496 56.8599 105.396 57.0928 105.225 57.254C105.054 57.4152 104.82 57.4779 104.514 57.451C104.343 57.4331 104.199 57.3973 104.091 57.3346C103.974 57.2719 103.884 57.1913 103.812 57.1017C103.74 57.0032 103.695 56.9047 103.668 56.7793C103.641 56.6629 103.632 56.5375 103.65 56.4032C103.65 56.3853 103.65 56.3494 103.65 56.3136C103.65 56.2778 103.65 56.242 103.668 56.1972C103.668 56.1614 103.677 56.1166 103.686 56.0897C103.686 56.0539 103.695 56.027 103.704 56.0091L105.532 56.1614C105.532 56.2151 105.541 56.2688 105.532 56.3226C105.532 56.3763 105.532 56.448 105.523 56.5465V56.5554ZM101.858 57.9346L101.696 57.9077L101.498 59.1436L101.66 59.1705C101.75 59.0182 101.822 58.866 101.867 58.7138L102.83 59.2421L102.623 60.5586L101.543 60.7736C101.543 60.693 101.534 60.6213 101.525 60.5407C101.516 60.4601 101.498 60.3795 101.48 60.2989L101.318 60.2721L101.093 61.705L101.255 61.7318C101.3 61.6781 101.345 61.6154 101.372 61.5438C101.399 61.4721 101.435 61.4005 101.453 61.3288L105.36 60.4959L105.387 60.3347L101.93 58.3555C101.93 58.2122 101.894 58.0779 101.858 57.9346ZM103.11 59.3944L104.217 60.0034L104.685 60.2183L104.19 60.2541L102.938 60.5049L103.119 59.3854L103.11 59.3944ZM105.82 50.6088C105.784 50.6805 105.757 50.7611 105.73 50.8417C105.703 50.9223 105.685 50.9939 105.667 51.0745L102.317 51.0208C102.299 50.9223 102.29 50.8327 102.263 50.7521C102.236 50.6715 102.218 50.6088 102.182 50.5551H102.02L101.993 51.979H102.155C102.218 51.8447 102.263 51.7104 102.299 51.5581L105.667 51.6119L105.64 53.3224L102.272 53.2687C102.236 53.0716 102.191 52.9284 102.146 52.8478H101.984L101.966 54.2717H102.128C102.2 54.1195 102.245 53.9672 102.272 53.815L105.622 53.8687C105.64 53.9493 105.649 54.0299 105.676 54.1105C105.703 54.1911 105.721 54.2628 105.757 54.3344H105.919L105.982 50.6267H105.82V50.6088ZM1.67441 46.1041L4.99675 46.5698C4.99675 46.731 5.02376 46.8922 5.06878 47.0444L5.23085 47.0624L5.42893 45.6563L5.26686 45.6384C5.19483 45.7369 5.1228 45.8712 5.07779 46.0414L3.50215 45.8175L3.53816 45.5399C3.8713 45.3787 4.20443 45.2085 4.53757 45.0384C4.8707 44.8592 5.17683 44.6801 5.46494 44.501L5.62701 44.3309L5.72605 43.6323L5.58199 43.6144L5.41092 43.8652C5.23985 43.9816 5.06878 44.0891 4.87971 44.2055C4.69063 44.3219 4.51056 44.4294 4.33048 44.5458C4.15041 44.6533 3.97034 44.7607 3.79927 44.8592C3.6282 44.9578 3.47514 45.0473 3.34008 45.119L2.00754 43.7935C2.00754 43.7219 1.98953 43.6502 1.98053 43.5786C1.97153 43.5069 1.95352 43.4263 1.92651 43.3547L1.76444 43.3368L1.59337 44.5637L1.75544 44.5816C1.79145 44.5279 1.82747 44.4652 1.86348 44.4025C1.8995 44.3398 1.92651 44.2682 1.95352 44.1965L3.27706 45.4414L3.31307 45.7906L1.76444 45.5757C1.76444 45.4951 1.74643 45.4145 1.72843 45.3429C1.71042 45.2712 1.70142 45.1996 1.68341 45.1369L1.52134 45.119L1.32326 46.525L1.48533 46.5429C1.57537 46.4175 1.64739 46.2653 1.69241 46.1041H1.67441ZM104.568 63.2006C104.523 63.2722 104.487 63.3439 104.46 63.4066L101.201 62.6185C101.219 62.4572 101.21 62.296 101.183 62.1348L101.021 62.099L100.895 62.6274C100.859 62.7797 100.814 62.9319 100.769 63.0842C100.724 63.2364 100.679 63.3797 100.652 63.514C100.607 63.6931 100.589 63.8812 100.58 64.0693C100.571 64.2574 100.607 64.4365 100.661 64.5977C100.715 64.7589 100.805 64.9022 100.931 65.0275C101.048 65.1529 101.21 65.2335 101.408 65.2783C101.561 65.3141 101.705 65.3231 101.822 65.2962C101.948 65.2693 102.056 65.2246 102.146 65.1619C102.245 65.0992 102.326 65.0186 102.398 64.9201C102.47 64.8216 102.524 64.7231 102.569 64.6156H102.587C102.587 64.7499 102.605 64.8663 102.65 64.9738C102.695 65.0813 102.74 65.1708 102.812 65.2514C102.884 65.332 102.956 65.3947 103.047 65.4485C103.137 65.5022 103.227 65.538 103.326 65.5649C103.515 65.6097 103.677 65.6097 103.821 65.5649C103.956 65.5201 104.073 65.4395 104.172 65.332C104.271 65.2246 104.343 65.0992 104.406 64.9559C104.469 64.8126 104.514 64.6604 104.55 64.5171C104.577 64.4186 104.595 64.32 104.613 64.2394C104.631 64.1588 104.64 64.0782 104.658 64.0155C104.676 63.9439 104.685 63.8812 104.694 63.8096C104.703 63.7469 104.721 63.6752 104.739 63.6125L104.883 63.0304L104.721 62.9946C104.676 63.0573 104.631 63.1289 104.586 63.1916L104.568 63.2006ZM102.497 63.8902C102.461 64.0245 102.425 64.1499 102.371 64.2753C102.317 64.3917 102.254 64.4992 102.173 64.5798C102.092 64.6604 101.993 64.7231 101.885 64.7499C101.777 64.7768 101.642 64.7857 101.498 64.7499C101.381 64.7231 101.273 64.6693 101.192 64.5977C101.102 64.526 101.03 64.4365 100.985 64.338C100.931 64.2394 100.904 64.123 100.886 63.9976C100.877 63.8723 100.886 63.7469 100.913 63.6125C100.949 63.4603 100.985 63.3528 101.003 63.2812C101.03 63.2095 101.057 63.1558 101.084 63.1021L102.596 63.4692L102.497 63.8812V63.8902ZM104.325 64.1051C104.307 64.1857 104.289 64.2842 104.262 64.4007C104.199 64.6424 104.1 64.8216 103.938 64.938C103.785 65.0544 103.587 65.0813 103.344 65.0186C103.164 64.9738 103.029 64.8843 102.92 64.7499C102.812 64.6156 102.758 64.4544 102.74 64.2663C102.74 64.2126 102.758 64.1409 102.776 64.0514C102.794 63.9618 102.803 63.8902 102.821 63.8275L102.884 63.5498L104.361 63.9081C104.361 63.9618 104.343 64.0245 104.325 64.1051ZM102.173 71.1085C102.119 71.1712 102.074 71.2339 102.029 71.2966L98.9319 70.0069C98.9679 69.8368 98.9949 69.6756 98.9859 69.5323L98.8328 69.4696L97.7524 72.0309C97.9054 72.1026 98.0585 72.1653 98.2116 72.21C98.3646 72.2548 98.5177 72.3085 98.6798 72.3444L98.7338 72.219L98.2116 71.6996L98.7158 70.5085L100.174 71.1174L99.8142 71.9593L99.328 71.9951L99.274 72.1205C99.6251 72.2906 99.9763 72.4339 100.327 72.5593L100.381 72.4339L100.084 72.0667L100.444 71.2249L101.831 71.7981L101.354 72.9265L100.688 72.8996L100.634 73.034C100.769 73.1146 100.904 73.1862 101.039 73.2489C101.174 73.3205 101.318 73.3832 101.453 73.4459L102.488 70.9831L102.335 70.9204C102.272 70.9742 102.218 71.0368 102.164 71.0995L102.173 71.1085ZM103.245 67.7859C102.812 67.6426 102.443 67.5083 102.128 67.3739C101.822 67.2396 101.561 67.1142 101.345 67.0068C101.129 66.8903 100.958 66.7829 100.832 66.6844C100.706 66.5858 100.598 66.4963 100.526 66.4067L100.841 65.8246L100.733 65.6992C100.688 65.6903 100.634 65.6813 100.562 65.6724C100.498 65.6724 100.435 65.6724 100.363 65.6724C100.3 65.6724 100.237 65.6813 100.174 65.6903C100.111 65.6992 100.066 65.7082 100.03 65.7261C99.9943 65.8246 99.9853 65.9321 99.9943 66.0485C99.9943 66.1649 100.039 66.2724 100.111 66.3799C100.192 66.5052 100.291 66.6217 100.417 66.7381C100.535 66.8545 100.706 66.9888 100.931 67.1232C101.156 67.2575 101.444 67.4098 101.804 67.562C102.164 67.7143 102.623 67.9023 103.182 68.0994L102.848 69.0934L99.6522 68.0456C99.6522 67.965 99.6612 67.8934 99.6612 67.8217C99.6612 67.7501 99.6612 67.6695 99.6612 67.5978L99.5081 67.5441L99.0579 68.9054L99.211 68.9591C99.31 68.8516 99.4 68.7173 99.4811 68.5651L102.668 69.6039C102.641 69.783 102.632 69.9442 102.659 70.0875L102.812 70.1413L103.74 67.3292L103.587 67.2754C103.47 67.3919 103.353 67.5531 103.245 67.768V67.7859ZM100.48 74.8251L97.5003 73.2847C97.5453 73.1325 97.5813 72.9713 97.5903 72.8101L97.4463 72.7384L96.789 74.0012L96.9331 74.0728C96.9871 74.0281 97.0411 73.9833 97.0951 73.9295C97.1491 73.8758 97.2032 73.8221 97.2482 73.7594L98.6527 74.4848L97.8334 76.052L96.4288 75.3266C96.4739 75.1833 96.4919 75.0401 96.5009 74.8878L96.3568 74.8162L95.6995 76.0789L95.8436 76.1506C95.8976 76.1058 95.9607 76.052 96.0147 75.9983C96.0687 75.9356 96.1227 75.8729 96.1767 75.8013L99.157 77.3417C99.1389 77.4223 99.1119 77.4939 99.0939 77.5835C99.0759 77.6641 99.0669 77.7447 99.0669 77.8253L99.211 77.8969L99.8682 76.6342L99.7242 76.5625C99.6702 76.6073 99.6161 76.6521 99.5621 76.7058C99.5081 76.7596 99.4541 76.8133 99.4001 76.876L98.0855 76.1953L98.9048 74.6281L100.219 75.3087C100.201 75.3804 100.183 75.452 100.165 75.5326C100.147 75.6043 100.147 75.6759 100.147 75.7565L100.291 75.8281L100.949 74.5654L100.805 74.4938C100.688 74.5743 100.571 74.6908 100.462 74.8341L100.48 74.8251ZM5.41993 67.7053C5.76206 67.6068 6.04118 67.4814 6.26627 67.3202C6.49136 67.159 6.65343 66.9799 6.77047 66.765C6.87852 66.559 6.94154 66.3172 6.95055 66.0575C6.95055 65.7977 6.91453 65.5201 6.8335 65.2156C6.81549 65.135 6.77948 65.0544 6.75247 64.9649C6.71645 64.8753 6.68044 64.7947 6.63542 64.7141C6.5904 64.6335 6.54538 64.5619 6.50036 64.4902C6.45535 64.4186 6.40132 64.3648 6.3383 64.329C6.19424 64.3648 6.04118 64.4096 5.89712 64.4723C5.74406 64.535 5.62701 64.5887 5.52797 64.6335L5.57299 64.7768L6.32029 64.8395C6.32029 64.8395 6.39232 64.9022 6.43734 64.9738C6.48236 65.0455 6.51837 65.144 6.55439 65.2604C6.61741 65.4843 6.63542 65.6903 6.60841 65.8873C6.5814 66.0843 6.50937 66.2634 6.40132 66.4336C6.29328 66.5948 6.14022 66.747 5.95114 66.8635C5.76206 66.9889 5.53697 67.0874 5.28487 67.159C4.99675 67.2396 4.73565 67.2754 4.51056 67.2665C4.28547 67.2575 4.06938 67.2127 3.89831 67.1321C3.72724 67.0515 3.58318 66.9441 3.46613 66.8008C3.34908 66.6575 3.26805 66.4963 3.21403 66.3172C3.18702 66.2276 3.16901 66.1381 3.142 66.0395C3.11499 65.941 3.11499 65.8783 3.12399 65.8336L3.82628 65.3231L3.79026 65.1888C3.71824 65.1888 3.6372 65.2067 3.55617 65.2246C3.47514 65.2425 3.3851 65.2514 3.29506 65.2693C3.20503 65.2873 3.12399 65.3052 3.04296 65.3231C2.96193 65.341 2.8989 65.3589 2.83588 65.3768C2.80887 65.5201 2.80887 65.6724 2.81787 65.8425C2.83588 66.0127 2.8809 66.2187 2.94392 66.4515C3.01595 66.6933 3.11499 66.9082 3.25905 67.1142C3.3941 67.3113 3.56517 67.4725 3.77226 67.5978C3.97934 67.7143 4.22244 67.7949 4.49255 67.8128C4.76266 67.8396 5.07779 67.8038 5.43793 67.6964L5.41993 67.7053ZM4.32148 63.8096C4.67262 63.7379 4.96074 63.6305 5.19483 63.4872C5.42893 63.3439 5.609 63.1737 5.73505 62.9767C5.8611 62.7797 5.94214 62.5468 5.96915 62.2871C5.99616 62.0274 5.97815 61.7408 5.91513 61.4363C5.89712 61.3557 5.87911 61.2751 5.8521 61.1855C5.82509 61.096 5.79808 61.0154 5.76206 60.9258C5.72605 60.8452 5.68103 60.7646 5.64502 60.693C5.609 60.6213 5.55498 60.5586 5.50096 60.5139C5.3479 60.5318 5.20384 60.5676 5.04177 60.6213C4.88871 60.6661 4.76266 60.7109 4.66362 60.7467L4.69063 60.89L5.42893 61.0064C5.42893 61.0064 5.50096 61.0781 5.53697 61.1497C5.57299 61.2303 5.6 61.3288 5.62701 61.4453C5.67203 61.6691 5.67203 61.8841 5.62701 62.0811C5.58199 62.2781 5.50096 62.4483 5.37491 62.6095C5.24886 62.7617 5.08679 62.8961 4.88871 63.0035C4.69063 63.111 4.45653 63.1916 4.19543 63.2454C3.90731 63.308 3.64621 63.317 3.41211 63.2901C3.17802 63.2633 2.97994 63.2006 2.81787 63.1021C2.6468 63.0125 2.52075 62.8871 2.41271 62.7349C2.31366 62.5826 2.24164 62.4214 2.20562 62.2334C2.18761 62.1438 2.16961 62.0453 2.1606 61.9557C2.1516 61.8572 2.1516 61.7945 2.1606 61.7497L2.8989 61.302L2.87189 61.1587C2.79986 61.1587 2.71883 61.1587 2.62879 61.1766C2.53876 61.1766 2.44872 61.1945 2.36769 61.2034C2.28665 61.2124 2.19662 61.2214 2.11558 61.2393C2.03455 61.2482 1.96252 61.2661 1.9085 61.2751C1.87249 61.4094 1.85448 61.5706 1.85448 61.7408C1.85448 61.911 1.88149 62.1169 1.93551 62.3587C1.98953 62.6005 2.07057 62.8334 2.18761 63.0394C2.30466 63.2454 2.46673 63.4245 2.66481 63.5588C2.86289 63.6931 3.09698 63.7827 3.36709 63.8364C3.6372 63.8812 3.96133 63.8723 4.32148 63.8006V63.8096ZM7.03158 72.013C7.31069 71.9055 7.54479 71.7712 7.75187 71.61C7.95895 71.4488 8.11202 71.2607 8.22906 71.0547C8.34611 70.8488 8.40914 70.6249 8.42715 70.3831C8.44515 70.1413 8.40013 69.8905 8.29209 69.6218C8.19305 69.3621 8.04899 69.1382 7.87792 68.977C7.70685 68.8069 7.49977 68.6815 7.27468 68.6098C7.04959 68.5382 6.80649 68.5024 6.54538 68.5203C6.28428 68.5382 6.01417 68.5919 5.73505 68.6994C5.46494 68.8069 5.22185 68.9412 5.01476 69.1024C4.80768 69.2636 4.65461 69.4517 4.53757 69.6577C4.42052 69.8636 4.35749 70.0875 4.33949 70.3293C4.32148 70.5711 4.3665 70.8219 4.47454 71.0906C4.57358 71.3503 4.71764 71.5652 4.88871 71.7354C5.06878 71.9055 5.26686 72.0309 5.49195 72.1026C5.71705 72.1832 5.96014 72.21 6.22125 72.1921C6.48236 72.1742 6.75247 72.1115 7.03158 72.013ZM5.56398 71.6548C5.38391 71.6279 5.22185 71.5652 5.08679 71.4578C4.95174 71.3592 4.84369 71.207 4.76266 71.0189C4.69063 70.8219 4.66362 70.6338 4.69063 70.4637C4.71764 70.2846 4.78967 70.1234 4.90672 69.9711C5.02376 69.8189 5.16782 69.6845 5.3479 69.5591C5.52797 69.4338 5.73505 69.3353 5.96014 69.2457C6.18524 69.1561 6.40132 69.1024 6.61741 69.0666C6.8335 69.0308 7.03158 69.0308 7.21165 69.0666C7.39173 69.0934 7.55379 69.1561 7.68885 69.2636C7.8239 69.3711 7.93194 69.5054 8.00397 69.6845C8.076 69.8815 8.10301 70.0696 8.076 70.2398C8.04899 70.4189 7.97696 70.5801 7.85991 70.7323C7.75187 70.8846 7.59881 71.0189 7.42774 71.1443C7.24767 71.2697 7.04959 71.3772 6.81549 71.4578C6.5904 71.5473 6.37431 71.61 6.15823 71.6458C5.94214 71.6816 5.75306 71.6906 5.56398 71.6637V71.6548ZM7.01357 75.8371L10.0298 74.3773C10.0748 74.44 10.1288 74.5027 10.1739 74.5654C10.2279 74.6281 10.2819 74.6818 10.3539 74.7355L10.498 74.6639L9.82271 73.2758L9.67865 73.3474C9.67865 73.428 9.69666 73.5176 9.71467 73.6071C9.73267 73.6967 9.75969 73.7952 9.7957 73.8848L8.67024 74.4311C8.67024 74.4311 8.65224 74.3863 8.64323 74.3415C8.62523 74.3057 8.61622 74.2609 8.59822 74.2251C8.58021 74.1803 8.5622 74.1445 8.54419 74.1087C8.52619 74.0728 8.51718 74.046 8.50818 74.0281C8.41814 73.8489 8.3191 73.6967 8.19305 73.5444C8.067 73.4012 7.93194 73.2847 7.77888 73.1952C7.62582 73.1056 7.45475 73.0608 7.27468 73.0519C7.0946 73.0429 6.90553 73.0877 6.70745 73.1862C6.50036 73.2847 6.3383 73.4101 6.23926 73.5534C6.14022 73.6967 6.06819 73.8489 6.05018 74.0191C6.03217 74.1893 6.03217 74.3505 6.07719 74.5296C6.12221 74.7087 6.17623 74.8788 6.25726 75.04C6.32929 75.1833 6.41033 75.3356 6.50036 75.4878C6.5904 75.6401 6.67143 75.7834 6.73446 75.9177L6.95955 76.3745L7.10361 76.3028C7.10361 76.2222 7.0946 76.1506 7.0856 76.07C7.0766 75.9894 7.05859 75.9088 7.03158 75.8281L7.01357 75.8371ZM6.75247 75.3625C6.75247 75.3625 6.68944 75.2729 6.66243 75.2281C6.63542 75.1833 6.5994 75.1117 6.56339 75.0311C6.42833 74.7535 6.39232 74.5027 6.45535 74.2788C6.51837 74.0549 6.68944 73.8758 6.96855 73.7415C7.12162 73.6698 7.26567 73.625 7.39173 73.625C7.52678 73.625 7.64383 73.643 7.75187 73.6877C7.85991 73.7325 7.95896 73.7952 8.03999 73.8848C8.12102 73.9743 8.19305 74.0818 8.25608 74.1982C8.26508 74.2161 8.27408 74.243 8.29209 74.2788C8.3101 74.3146 8.3281 74.3505 8.33711 74.3863C8.35512 74.4221 8.36412 74.4579 8.38213 74.4938C8.40013 74.5296 8.40013 74.5564 8.40013 74.5743L6.75247 75.3714V75.3625ZM5.3569 59.7526L5.51897 59.7347L5.3569 58.3197L5.19483 58.3376C5.17683 58.4003 5.14982 58.4809 5.14081 58.5615C5.1228 58.6421 5.1228 58.7227 5.1138 58.8123L4.98775 58.8302L2.48473 57.4331L2.03455 57.2361H2.45772L4.88871 56.9674C4.91572 57.048 4.94273 57.1196 4.97875 57.1913C5.01476 57.2629 5.04177 57.3256 5.07779 57.3794L5.23985 57.3614L5.07779 55.9464L4.91572 55.9643C4.8707 56.0987 4.84369 56.2599 4.83469 56.439L1.50334 56.8241C1.47633 56.7435 1.44031 56.6629 1.4133 56.5912C1.37729 56.5106 1.35027 56.448 1.30526 56.3853L1.14319 56.4032L1.30526 57.8182L1.46732 57.8003C1.48533 57.7376 1.50334 57.657 1.52134 57.5853C1.53935 57.5047 1.54835 57.4241 1.55736 57.3346L1.69241 57.3167L4.16842 58.6869L4.64561 58.9018L4.21344 58.8839L1.77345 59.1615C1.74643 59.0809 1.71942 59.0003 1.68341 58.9376C1.6564 58.875 1.62038 58.8123 1.58437 58.7585L1.4223 58.7764L1.58437 60.1914L1.74643 60.1735C1.76444 60.0929 1.78245 60.0123 1.80046 59.9317C1.81846 59.8511 1.82747 59.7705 1.83647 59.6989L5.16782 59.3138C5.20384 59.466 5.26686 59.6183 5.3569 59.7616V59.7526ZM13.4602 81.3359C13.6223 81.112 13.7213 80.8881 13.7573 80.6553C13.7933 80.4224 13.7753 80.1806 13.7033 79.9299C13.6313 79.6791 13.5052 79.4284 13.3251 79.1686C13.2801 79.097 13.2261 79.0343 13.1631 78.9627C13.1 78.891 13.046 78.8283 12.974 78.7656C12.902 78.7029 12.8389 78.6492 12.7759 78.5955C12.7129 78.5417 12.6409 78.5149 12.5688 78.488C12.4428 78.5686 12.3167 78.6582 12.1907 78.7656C12.0646 78.8641 11.9656 78.9537 11.8936 79.0343L11.9746 79.1507L12.7039 78.9716C12.7039 78.9716 12.7939 79.0074 12.8569 79.0612C12.92 79.1149 12.983 79.1955 13.055 79.303C13.1901 79.4911 13.2711 79.6881 13.3071 79.8851C13.3431 80.0821 13.3341 80.2792 13.2891 80.4672C13.2351 80.6553 13.1361 80.8434 13.001 81.0225C12.8569 81.2016 12.6769 81.3628 12.4608 81.515C12.2177 81.6852 11.9836 81.8016 11.7585 81.8643C11.5334 81.927 11.3263 81.9449 11.1372 81.927C10.9482 81.9091 10.7771 81.8464 10.624 81.7479C10.471 81.6494 10.3449 81.524 10.2369 81.3717C10.1829 81.2911 10.1288 81.2105 10.0838 81.1299C10.0388 81.0493 10.0118 80.9867 10.0028 80.9329L10.507 80.2344L10.426 80.1179C10.3629 80.1538 10.2909 80.1806 10.2099 80.2254C10.1288 80.2612 10.0568 80.306 9.97577 80.3508C9.89474 80.3956 9.82271 80.4404 9.75068 80.4851C9.67865 80.5299 9.62463 80.5657 9.57061 80.6016C9.58862 80.7449 9.63363 80.8881 9.70566 81.0493C9.77769 81.2105 9.88574 81.3897 10.0208 81.5867C10.1649 81.7927 10.3359 81.9718 10.525 82.1151C10.7141 82.2584 10.9302 82.3569 11.1643 82.4106C11.3983 82.4643 11.6505 82.4554 11.9206 82.3927C12.1907 82.33 12.4788 82.1957 12.7849 81.9897C13.073 81.7837 13.2981 81.5777 13.4602 81.3538V81.3359ZM1.45832 50.0536C1.61138 50.2327 1.81846 50.3849 2.06156 50.5014C2.30466 50.6178 2.61979 50.6894 2.98894 50.7073C3.34008 50.7252 3.65521 50.7073 3.91632 50.6267C4.17742 50.5461 4.40251 50.4297 4.57358 50.2685C4.75365 50.1073 4.88871 49.9103 4.97875 49.6685C5.07779 49.4267 5.13181 49.149 5.14982 48.8356C5.14982 48.755 5.14982 48.6654 5.14982 48.5759C5.14982 48.4863 5.14081 48.3968 5.13181 48.3072C5.1138 48.2176 5.09579 48.137 5.07779 48.0564C5.05078 47.9758 5.02376 47.9042 4.97875 47.8505C4.82568 47.8325 4.67262 47.8325 4.51056 47.8325C4.34849 47.8325 4.21344 47.8505 4.10539 47.8594V48.0027L4.78067 48.3072C4.80768 48.3341 4.83469 48.3878 4.84369 48.4774C4.8617 48.558 4.8617 48.6654 4.85269 48.7908C4.83469 49.0237 4.78967 49.2296 4.69063 49.4088C4.60059 49.5879 4.47454 49.7312 4.31248 49.8565C4.15041 49.973 3.96133 50.0625 3.74525 50.1163C3.52015 50.17 3.27706 50.1879 3.01595 50.17C2.71883 50.1521 2.45772 50.0983 2.24164 50.0088C2.02555 49.9192 1.84547 49.8118 1.71042 49.6774C1.57537 49.5431 1.47633 49.3908 1.4133 49.2207C1.35027 49.0505 1.33227 48.8714 1.34127 48.6833C1.34127 48.5938 1.35928 48.4953 1.36828 48.3968C1.38629 48.2982 1.4043 48.2356 1.4223 48.1997L2.25064 47.9579V47.8146C2.18761 47.7967 2.10658 47.7788 2.02555 47.7699C1.93551 47.7519 1.85448 47.734 1.76444 47.7251C1.67441 47.7161 1.59337 47.6982 1.50334 47.6893C1.4223 47.6893 1.35027 47.6713 1.29625 47.6713C1.22422 47.7967 1.1702 47.94 1.12518 48.1102C1.08016 48.2803 1.05315 48.4863 1.04415 48.7281C1.02614 48.9789 1.04415 49.2207 1.11618 49.4535C1.1792 49.6864 1.28725 49.8924 1.44031 50.0715L1.45832 50.0536ZM0.629982 52.794C0.566956 52.7134 0.485924 52.6597 0.395887 52.6239C0.30585 52.588 0.215814 52.5701 0.10777 52.5791C0.0717555 52.6328 0.0447446 52.6955 0.0177336 52.7761C-0.000273691 52.8567 -0.00927734 52.9284 -0.00927734 52.9821L0.0717555 53.1164H0.57596C0.57596 53.1164 0.611975 53.2239 0.629982 53.3134C0.647989 53.403 0.647989 53.4747 0.647989 53.5373C0.647989 53.6269 0.647989 53.7075 0.629982 53.7791C0.620978 53.8597 0.602971 53.9224 0.57596 53.9762H0.0987665L0.0267373 54.1284C0.0267373 54.209 0.0447446 54.2896 0.0627519 54.3702C0.0807592 54.4508 0.116774 54.5135 0.161792 54.5493C0.368876 54.5493 0.530942 54.4598 0.665997 54.2986C0.801051 54.1374 0.864077 53.8777 0.855073 53.5373C0.855073 53.3582 0.828062 53.2149 0.783044 53.0896C0.747029 52.9731 0.693008 52.8657 0.620978 52.794H0.629982ZM1.32326 55.2479C1.34127 55.1673 1.35928 55.0867 1.37729 55.015L4.72664 54.9344C4.75365 55.0956 4.79867 55.2479 4.8707 55.3912H5.03277L4.99675 53.9672H4.83469C4.80768 54.0389 4.78067 54.1105 4.76266 54.1822C4.74465 54.2628 4.72664 54.3434 4.70864 54.424H4.58259L2.21462 52.8119L1.78245 52.5701L2.20562 52.6149L4.65461 52.5522C4.67262 52.6328 4.69063 52.7134 4.71764 52.7851C4.74465 52.8567 4.77166 52.9194 4.79867 52.9821H4.96074L4.92472 51.5492H4.76266C4.70864 51.6835 4.66362 51.8447 4.63661 52.0149L1.28725 52.0955C1.26924 52.0149 1.24223 51.9343 1.21522 51.8537C1.18821 51.7731 1.1612 51.7014 1.13419 51.6387H0.972121L1.00814 53.0716H1.1702C1.19721 53 1.21522 52.9284 1.24223 52.8567C1.26024 52.7761 1.28725 52.6955 1.30526 52.6149H1.44031L3.78126 54.2001L4.23144 54.4598L3.80827 54.4061L1.35027 54.4687C1.33227 54.3792 1.30526 54.3075 1.27824 54.2359C1.25123 54.1732 1.22422 54.1105 1.19721 54.0478H1.03515L1.07116 55.4718H1.23323C1.26024 55.3912 1.28725 55.3106 1.30526 55.23L1.32326 55.2479ZM41.1194 5.38239C41.0384 5.38239 40.9483 5.36448 40.8493 5.36448C40.7593 5.36448 40.6602 5.36448 40.5612 5.38239L40.2461 4.18233C40.2461 4.18233 40.3001 4.18232 40.3361 4.17337C40.3811 4.17337 40.4171 4.15546 40.4621 4.1465C40.5072 4.13755 40.5432 4.12859 40.5882 4.11964C40.6242 4.11068 40.6512 4.10172 40.6692 4.10172C40.8583 4.04799 41.0384 3.9853 41.2004 3.88679C41.3625 3.79723 41.5066 3.6808 41.6236 3.54647C41.7407 3.41213 41.8217 3.25989 41.8577 3.08077C41.9027 2.91061 41.8937 2.71359 41.8397 2.49865C41.7767 2.27476 41.6866 2.09564 41.5696 1.97026C41.4525 1.84488 41.3085 1.74637 41.1554 1.69263C41.0024 1.6389 40.8313 1.61203 40.6512 1.62099C40.4711 1.62099 40.2911 1.65681 40.111 1.70159C39.9579 1.73741 39.7869 1.79115 39.6248 1.85384C39.4537 1.91653 39.3007 1.9613 39.1566 1.99713L38.6614 2.12251L38.7064 2.28371C38.7875 2.29267 38.8595 2.30162 38.9405 2.31058C39.0216 2.31058 39.1026 2.31058 39.1926 2.31058L40.048 5.53464C39.9759 5.57046 39.9039 5.60629 39.8409 5.64211C39.7689 5.67793 39.7058 5.73167 39.6428 5.7854L39.6878 5.9466L41.1914 5.55255L41.1464 5.39135L41.1194 5.38239ZM39.6968 2.13146C39.7418 2.1046 39.7959 2.08668 39.8499 2.06877C39.9039 2.05086 39.9759 2.03295 40.066 2.00608C40.3631 1.92548 40.6152 1.94339 40.8313 2.04191C41.0384 2.14937 41.1824 2.3464 41.2635 2.64194C41.3085 2.80314 41.3175 2.95539 41.2995 3.08077C41.2815 3.20615 41.2365 3.32258 41.1734 3.42109C41.1104 3.5196 41.0204 3.6002 40.9213 3.66289C40.8133 3.72558 40.7052 3.77932 40.5702 3.80618C40.5522 3.80618 40.5162 3.8241 40.4801 3.83305C40.4441 3.84201 40.4081 3.85096 40.3631 3.85992C40.3181 3.86887 40.2821 3.87783 40.2551 3.87783C40.219 3.87783 40.192 3.88679 40.174 3.87783L39.7058 2.11355L39.6968 2.13146ZM26.2004 12.0723C26.1283 12.0723 26.0563 12.0992 25.9843 12.1261C25.9122 12.1529 25.8402 12.1887 25.7772 12.2156L22.4188 10.0752L22.2838 10.1737L23.3462 14.0068C23.2562 14.1142 23.1751 14.2307 23.1031 14.356L23.2021 14.4904L24.2105 13.747L24.1115 13.6127C23.9404 13.6575 23.7784 13.7112 23.6433 13.7918L23.3282 12.744L24.4086 11.9469L25.327 12.547C25.273 12.6007 25.228 12.6634 25.1739 12.7261C25.1199 12.7888 25.0749 12.8604 25.0299 12.9231L25.1289 13.0575L26.2994 12.1977L26.2004 12.0634V12.0723ZM23.2291 12.4395L22.869 11.2305L22.6889 10.7469H22.6979L23.0761 11.0693L24.1475 11.7678L23.2291 12.4395ZM13.7213 85.8138L16.3233 83.7092C16.4404 83.8167 16.5664 83.9062 16.7195 83.9779L16.8456 83.8794L16.5034 83.4584C16.4044 83.342 16.3053 83.2166 16.2153 83.0733C16.1163 82.939 16.0262 82.8226 15.9452 82.7151C15.8281 82.5718 15.6931 82.4375 15.54 82.3211C15.387 82.2046 15.2339 82.124 15.0718 82.0703C14.9098 82.0166 14.7387 81.9986 14.5676 82.0255C14.3966 82.0524 14.2345 82.124 14.0724 82.2494C13.9464 82.3479 13.8654 82.4554 13.8113 82.5718C13.7573 82.6882 13.7303 82.7957 13.7213 82.9121C13.7213 83.0286 13.7303 83.145 13.7663 83.2524C13.8023 83.3689 13.8473 83.4763 13.9014 83.5749L13.8834 83.5928C13.7753 83.5122 13.6763 83.4584 13.5592 83.4226C13.4512 83.3868 13.3431 83.3778 13.2351 83.3868C13.1271 83.3868 13.028 83.4137 12.938 83.4495C12.8389 83.4853 12.7579 83.539 12.6769 83.6017C12.5238 83.7271 12.4248 83.8525 12.3797 83.9958C12.3347 84.1391 12.3257 84.2734 12.3527 84.4167C12.3797 84.56 12.4338 84.6943 12.5148 84.8287C12.5958 84.963 12.6859 85.0884 12.7759 85.2048C12.8389 85.2854 12.902 85.357 12.956 85.4197C13.01 85.4824 13.064 85.5362 13.109 85.5899C13.1541 85.6436 13.2081 85.6974 13.2441 85.7421C13.2891 85.7869 13.3341 85.8407 13.3792 85.8944L13.7573 86.3601L13.8834 86.2616C13.8563 86.181 13.8293 86.1093 13.8023 86.0287C13.7663 85.9481 13.7393 85.8765 13.7033 85.8138H13.7213ZM14.1985 82.9659C14.2435 82.8584 14.3155 82.7599 14.4326 82.6614C14.5226 82.5897 14.6307 82.536 14.7387 82.5091C14.8468 82.4823 14.9638 82.4733 15.0718 82.5002C15.1799 82.5181 15.2879 82.5629 15.396 82.6255C15.504 82.6882 15.6031 82.7778 15.6841 82.8853C15.7831 83.0107 15.8552 83.1002 15.8912 83.1629C15.9272 83.2256 15.9632 83.2793 15.9812 83.3331L14.7747 84.3092L14.5046 83.9779C14.4146 83.8704 14.3425 83.754 14.2795 83.6465C14.2165 83.5301 14.1715 83.4226 14.1535 83.3062C14.1355 83.1898 14.1535 83.0823 14.1895 82.9748L14.1985 82.9659ZM13.3792 85.4377C13.3792 85.4377 13.2891 85.357 13.2351 85.2944C13.1811 85.2317 13.118 85.16 13.046 85.0705C12.893 84.8824 12.8119 84.6854 12.8119 84.4973C12.8119 84.3092 12.911 84.1301 13.109 83.9689C13.2531 83.8525 13.4062 83.7988 13.5772 83.7988C13.7483 83.7988 13.9194 83.8525 14.0724 83.942C14.1175 83.9779 14.1625 84.0316 14.2255 84.0943C14.2885 84.157 14.3335 84.2197 14.3786 84.2644L14.5586 84.4794L13.3792 85.4287V85.4377ZM63.6646 93.7307C63.5925 93.7307 63.5295 93.7486 63.4665 93.7754C63.4034 93.8023 63.3494 93.8381 63.3044 93.8829C63.2594 93.9277 63.2054 93.9993 63.1604 94.0799L59.5499 100.815C59.4508 100.994 59.3608 101.182 59.2798 101.37C59.1987 101.567 59.1177 101.764 59.0367 101.97C58.9556 101.773 58.8746 101.576 58.7936 101.388C58.7125 101.191 58.6225 101.012 58.5235 100.833L54.868 94.0889C54.823 94.0083 54.7779 93.9366 54.7239 93.8919C54.6789 93.8381 54.6249 93.8023 54.5619 93.7844C54.4988 93.7665 54.4358 93.7486 54.3638 93.7396C54.2917 93.7396 54.2017 93.7396 54.1027 93.7396H52.383V105.893H54.3818V98.0473C54.3818 97.8951 54.3818 97.7339 54.3638 97.5547C54.3548 97.3756 54.3368 97.1965 54.3188 97.0085L58.0553 103.922C58.2264 104.254 58.4965 104.415 58.8566 104.415H59.1807C59.5409 104.415 59.811 104.254 59.9821 103.922L63.6736 97.0264C63.6556 97.2055 63.6465 97.3846 63.6375 97.5547C63.6375 97.7249 63.6285 97.8861 63.6285 98.0384V105.884H65.6273V93.7307H63.9077C63.8086 93.7307 63.7186 93.7307 63.6465 93.7307H63.6646ZM48.2323 94.8053C47.8451 94.465 47.3499 94.1964 46.7557 94.0083C46.1614 93.8202 45.4502 93.7217 44.6308 93.7217H40.6602V105.875H42.9291V101.594H44.6308C45.4231 101.594 46.1164 101.495 46.7107 101.298C47.3049 101.101 47.8001 100.824 48.1963 100.474C48.5924 100.125 48.8896 99.6952 49.0876 99.2116C49.2857 98.719 49.3848 98.1816 49.3848 97.5906C49.3848 96.9995 49.2947 96.5069 49.1056 96.0233C48.9166 95.5487 48.6285 95.1367 48.2413 94.7964L48.2323 94.8053ZM46.9538 98.522C46.8547 98.7996 46.7017 99.0324 46.4946 99.2295C46.2875 99.4265 46.0354 99.5698 45.7203 99.6773C45.4141 99.7847 45.045 99.8295 44.6308 99.8295H42.9291V95.4681H44.6308C45.054 95.4681 45.4232 95.5218 45.7293 95.6114C46.0354 95.7099 46.2965 95.8532 46.4946 96.0323C46.6927 96.2204 46.8457 96.4442 46.9538 96.704C47.0528 96.9637 47.1068 97.2592 47.1068 97.5816C47.1068 97.9219 47.0528 98.2354 46.9538 98.513V98.522ZM31.0083 93.7217L26.2004 105.875H27.9741C28.1632 105.875 28.3252 105.821 28.4513 105.713C28.5773 105.606 28.6674 105.49 28.7124 105.364L29.6217 102.883H34.6818L35.5912 105.364C35.6542 105.507 35.7442 105.633 35.8703 105.731C35.9963 105.83 36.1584 105.875 36.3475 105.875H38.1032L33.3042 93.7217H30.9903H31.0083ZM30.216 101.289L31.7016 97.2592C31.7736 97.0711 31.8456 96.8562 31.9267 96.6144C31.9987 96.3726 32.0797 96.1039 32.1608 95.8173C32.2418 96.1039 32.3228 96.3636 32.3949 96.6144C32.4669 96.8652 32.5479 97.0711 32.62 97.2503L34.1056 101.289H30.207H30.216ZM89.406 93.8829C89.2799 93.9904 89.1899 94.1068 89.1269 94.2232L87.056 98.6742C86.939 98.916 86.831 99.1668 86.7319 99.4086C86.6329 99.6504 86.5518 99.8922 86.4798 100.143C86.3268 99.6414 86.1197 99.1489 85.8676 98.6742L83.4906 94.2232C83.4096 94.0799 83.3105 93.9545 83.1935 93.865C83.0764 93.7665 82.9144 93.7217 82.7163 93.7217H80.5914L85.4894 102.257L85.0032 103.224C84.9042 103.421 84.7961 103.591 84.6701 103.707C84.553 103.833 84.427 103.922 84.3009 103.994C84.1749 104.066 84.0488 104.11 83.9138 104.128C83.7877 104.146 83.6527 104.164 83.5356 104.164H82.8783V105.579C82.8783 105.722 82.9684 105.83 83.1575 105.901C83.3465 105.973 83.6437 106.009 84.0488 106.009C84.3459 106.009 84.6251 105.982 84.8862 105.928C85.1473 105.875 85.3904 105.785 85.6245 105.651C85.8495 105.516 86.0656 105.328 86.2637 105.095C86.4618 104.863 86.6419 104.558 86.8219 104.2L91.756 93.7396H89.8742C89.6851 93.7396 89.523 93.7933 89.397 93.9008L89.406 93.8829ZM21.9956 99.5967C22.3738 99.4713 22.6979 99.3101 22.968 99.122C23.2382 98.9339 23.4632 98.728 23.6433 98.5041C23.8234 98.2802 23.9494 98.0384 24.0395 97.7697C24.1205 97.51 24.1655 97.2323 24.1655 96.9458C24.1655 96.4442 24.0845 95.9965 23.9134 95.6024C23.7424 95.2084 23.4813 94.868 23.1121 94.5815C22.752 94.3038 22.2838 94.0889 21.7165 93.9366C21.1493 93.7844 20.465 93.7127 19.6637 93.7127H15.459V105.866H20.0689C20.7802 105.866 21.4104 105.776 21.9596 105.597C22.5089 105.418 22.977 105.167 23.3552 104.854C23.7334 104.54 24.0215 104.164 24.2196 103.725C24.4176 103.286 24.5167 102.812 24.5167 102.301C24.5167 100.868 23.6793 99.9728 21.9956 99.5967ZM17.7279 95.4681H19.6637C20.429 95.4681 20.9962 95.6024 21.3564 95.8711C21.7165 96.1397 21.8966 96.5875 21.8966 97.2234C21.8966 97.8592 21.6985 98.2802 21.3024 98.5578C20.9062 98.8354 20.321 98.9787 19.5377 98.9787H17.7279V95.4681ZM22.1487 102.964C22.0767 103.188 21.9506 103.385 21.7796 103.555C21.6085 103.725 21.3744 103.86 21.0953 103.958C20.8072 104.057 20.456 104.11 20.0329 104.11H17.7369V100.546H20.0238C20.42 100.546 20.7621 100.582 21.0503 100.662C21.3384 100.743 21.5635 100.85 21.7435 101.003C21.9236 101.155 22.0587 101.334 22.1397 101.54C22.2207 101.746 22.2658 101.988 22.2658 102.248C22.2658 102.498 22.2297 102.74 22.1487 102.964ZM78.0074 103.009C77.9443 103.009 77.8723 103.027 77.8093 103.054C77.7463 103.08 77.6922 103.125 77.6292 103.179C77.4401 103.349 77.2601 103.492 77.071 103.6C76.8819 103.707 76.6838 103.806 76.4678 103.877C76.2517 103.949 76.0266 104.003 75.7745 104.039C75.5224 104.075 75.2433 104.092 74.9371 104.092C74.4149 104.092 73.9377 103.994 73.4875 103.806C73.0374 103.609 72.6412 103.331 72.3171 102.973C71.9839 102.606 71.7228 102.158 71.5247 101.63C71.3267 101.101 71.2366 100.492 71.2366 99.8026C71.2366 99.113 71.3267 98.522 71.5067 97.9936C71.6868 97.4652 71.9389 97.0174 72.272 96.6502C72.6052 96.283 72.9923 96.0054 73.4425 95.8084C73.8927 95.6114 74.3969 95.5218 74.9461 95.5218C75.2703 95.5218 75.5494 95.5487 75.7925 95.5934C76.0356 95.6382 76.2517 95.7009 76.4407 95.7726C76.6298 95.8442 76.7919 95.9158 76.9269 96.0054C77.071 96.086 77.188 96.1666 77.2961 96.2383C77.4041 96.3099 77.5032 96.3636 77.5932 96.4174C77.6832 96.4622 77.7733 96.489 77.8543 96.489C77.9804 96.489 78.0794 96.4622 78.1424 96.4174C78.2145 96.3636 78.2685 96.3099 78.3135 96.2383L79.0788 95.1904C78.5926 94.7247 78.0074 94.3396 77.3141 94.0441C76.6208 93.7486 75.8375 93.6053 74.9461 93.6053C74.0548 93.6053 73.2354 93.7575 72.4971 94.062C71.7588 94.3665 71.1286 94.7964 70.5884 95.3427C70.0572 95.889 69.643 96.5428 69.3459 97.304C69.0487 98.0652 68.9047 98.8981 68.9047 99.8116C68.9047 100.725 69.0397 101.549 69.3098 102.31C69.58 103.071 69.9761 103.725 70.4893 104.281C71.0025 104.836 71.6238 105.257 72.3441 105.57C73.0644 105.875 73.8837 106.036 74.7931 106.036C75.8105 106.036 76.6748 105.875 77.4041 105.552C78.1244 105.23 78.7367 104.755 79.2319 104.146L78.3405 103.179C78.2415 103.08 78.1334 103.036 78.0074 103.036V103.009Z" fill="white" fill-opacity="0.5"/>
</g>
<defs>
<clipPath id="clip0_3007_8111">
<rect width="106" height="106" fill="white"/>
</clipPath>
</defs>
</svg>
