<svg width="143" height="104" viewBox="0 0 143 104" fill="none" xmlns="http://www.w3.org/2000/svg">
<g clip-path="url(#clip0_3007_8203)">
<path d="M143 101.504V103.664H131.883V88.8964H142.142V91.0756H134.015V95.5524C134.897 95.0371 135.811 94.9804 136.772 94.9804H139.958V97.1785H136.772C135.834 97.1785 134.897 97.2778 134.015 97.7553V101.518H143.005L143 101.504ZM126.448 88.8916L117.869 100.275V88.8916H115.76V103.66H117.869L126.448 92.2764V103.66H128.557V88.8916H126.448ZM99.6237 103.664V88.8964H101.732V94.9567C102.32 94.6589 102.964 94.5596 103.589 94.5596C104.447 94.5596 107.009 94.9945 108.338 94.9945C108.945 94.9945 109.686 94.8953 110.311 94.6164V88.8964H112.443V103.664H110.311V96.7956C109.686 97.0745 108.945 97.1738 108.338 97.1738C107.009 97.1738 104.452 96.7389 103.589 96.7389C102.964 96.7389 102.32 96.8382 101.732 97.136V103.669H99.6237V103.664ZM88.1941 101.504V97.7411C89.0712 97.2636 90.0089 97.1644 90.9465 97.1644H94.1328V94.9662H90.9465C89.9902 94.9662 89.0712 95.0276 88.1941 95.5382V91.0615H96.3208V88.8822H86.0622V103.65H97.1792V101.49H88.1895L88.1941 101.504ZM74.1614 88.8916V94.9709C74.9638 94.952 75.7849 94.8102 76.5453 94.3942L80.2401 88.8916H82.8012L78.0148 95.8407L80.632 99.8211C81.607 101.305 82.3721 101.485 83.0345 101.485C83.1885 101.485 83.3471 101.466 83.5057 101.466L83.5243 103.664C81.8262 103.664 80.576 103.901 78.9712 101.329L76.1768 96.7956C75.5143 97.0745 74.8472 97.1738 74.1661 97.1738V103.669H72.0341V97.1738C71.3484 97.1738 70.6859 97.0745 70.0421 96.7956L67.2291 101.329C65.6289 103.882 64.2994 103.664 62.6946 103.664L62.7132 101.466C62.8485 101.466 63.0071 101.485 63.1797 101.485C63.8235 101.485 64.5886 101.324 65.5823 99.8211L68.1994 95.8407L63.413 88.8916H65.9741L69.6456 94.3942C70.406 94.8102 71.2084 94.9473 72.0295 94.9709V88.8916H74.1614ZM50.5419 88.8916H48.2187C49.4503 94.6542 51.8342 98.3556 54.6472 100.951C54.3347 101.523 53.7888 101.764 53.1031 101.764C52.0674 101.764 51.5589 101.547 50.9338 101.031L50.1127 102.913C50.6399 103.447 52.1234 103.863 53.1031 103.863C54.4886 103.863 55.7622 103.447 56.9331 101.726C59.5316 97.864 61.1318 93.3116 62.2887 88.8964H59.8488C59.0091 92.2433 57.5209 96.5782 55.9021 99.3484C53.7515 96.772 51.6989 94.12 50.5466 88.8964M44.132 91.0709H39.9334C39.5602 94.9095 38.6832 99.4476 36.3366 102.279C35.2823 103.546 33.8175 103.664 33.0337 103.664H32.6419V101.504H33.0337C33.6962 101.504 34.4986 101.367 35.5715 99.6225C37.1344 97.0887 37.5636 94.1011 37.8761 91.0709H36.1967L35.2776 88.8916H46.2593V103.66H44.1274V91.0662L44.132 91.0709ZM30.3559 92.4182L31.7228 90.7967C30.2953 89.3502 28.3033 88.4615 26.1153 88.4615C21.9354 88.4615 18.2593 91.7091 18.2593 96.0629C18.2593 100.417 21.6788 104.005 26.092 104.005C28.4386 104.005 30.5845 102.993 32.0494 101.329L30.7385 99.528C29.6842 100.956 28.0047 101.844 26.106 101.844C23.0597 101.844 20.3446 99.5091 20.3446 96.3229C20.3446 93.1367 22.8451 90.6407 26.0874 90.6407C27.7481 90.6407 29.2923 91.312 30.3466 92.4229" fill="white"/>
<path d="M118.527 38.168C85.3297 48.6673 88.6653 44.2189 50.5512 47.7785C41.2723 48.9745 32.0307 51.7731 24.0067 57.0724C22.0333 58.3771 20.3072 60.0789 18.0073 61.9745C31.0557 52.7611 45.2843 52.052 58.1041 51.8724C83.7482 51.8724 104.121 52.2269 125.436 38.4375C132.746 34.2585 137.822 28.4535 142.655 20.5731C136.968 28.5575 130.469 33.8945 118.522 38.168" fill="white"/>
<path d="M23.9976 63.7756C28.9659 60.4902 42.5834 55.8385 64.3462 58.7316C91.0727 62.8538 101.033 60.8684 116.255 53.0258C107.993 60.8684 98.3549 65.5011 81.2479 65.5011C58.1742 64.4658 43.1106 55.6684 23.9976 63.7756Z" fill="#153C88"/>
<path d="M65.1531 67.8033C46.9545 62.3527 37.7688 64.4516 24.4546 67.9876C53.6909 63.9931 54.456 70.2189 86.1928 79.1062C104.429 83.1055 110.629 82.4862 125.683 76.9647C97.2212 81.0066 77.4131 70.8713 65.1531 67.8033Z" fill="#E42313"/>
<path d="M58.2906 40.2622C68.2413 38.6171 78.2666 37.5629 87.9234 33.7764C97.6269 29.9709 106.607 24.5818 113.792 15.288C117.211 10.8633 120.005 5.90436 121.587 0C115.233 14.2905 107.274 20.5164 91.0491 26.5862C81.131 30.2876 70.9144 31.2898 60.7258 32.7033C48.0133 34.4665 35.4128 36.9058 23.3348 42.4698C2.9249 50.5865 -14.7466 80.548 18.6977 103.66C6.23714 94.7156 -16.9672 47.7644 58.2952 40.2575" fill="#D2A35F"/>
</g>
<defs>
<clipPath id="clip0_3007_8203">
<rect width="143" height="104" fill="white"/>
</clipPath>
</defs>
</svg>
