<svg width="106" height="107" viewBox="0 0 106 107" fill="none" xmlns="http://www.w3.org/2000/svg">
<g clip-path="url(#clip0_3017_2)">
<path fill-rule="evenodd" clip-rule="evenodd" d="M83.56 32.3677L53.4517 57.2784V82.4396L57.3502 82.4055V73.0855L83.56 51.3998V32.3677Z" fill="url(#paint0_linear_3017_2)"/>
<path fill-rule="evenodd" clip-rule="evenodd" d="M23.4326 37.7817V51.3092L42.9698 67.7227V62.783C42.9698 56.7125 40.0668 52.2364 35.3519 47.9414C32.4573 45.3048 23.4326 37.7817 23.4326 37.7817Z" fill="url(#paint1_linear_3017_2)"/>
<path fill-rule="evenodd" clip-rule="evenodd" d="M53.4514 50.2509C53.4514 41.9264 49.2918 35.3283 43.005 29.8973C41.0014 28.1665 34.9458 23.0275 34.9458 23.0275V41.4766L53.4514 57.0237V50.2509Z" fill="url(#paint2_linear_3017_2)"/>
<path fill-rule="evenodd" clip-rule="evenodd" d="M61.7527 21.901C56.8513 26.3399 53.4526 31.4586 53.4526 38.0726V43.4547L65.9645 32.9432V18.3105C65.9645 18.3105 62.7779 20.9728 61.7527 21.901Z" fill="#DEEBFF"/>
<path d="M17.6903 14.4398C17.7649 14.4046 17.8363 14.3684 17.9056 14.3332L20.1234 16.8484C20.02 16.9698 19.9337 17.1063 19.8655 17.2576L19.9742 17.3802L21.0474 16.4338L20.9397 16.3102C20.8715 16.3304 20.8012 16.357 20.7287 16.3911C20.6552 16.4253 20.5816 16.4657 20.506 16.5116L20.4239 16.4189L20.1458 13.5637L20.052 13.0809L20.2907 13.4369L21.9106 15.2742C21.8573 15.3403 21.8136 15.4064 21.7753 15.4725C21.738 15.5375 21.7049 15.6014 21.6772 15.66L21.7849 15.7826L22.8623 14.833L22.7536 14.7105C22.6151 14.752 22.4691 14.8213 22.3167 14.9151L20.0978 12.3999C20.1479 12.3307 20.1948 12.2614 20.2395 12.1921C20.2832 12.1228 20.3216 12.0536 20.3525 11.9864L20.2449 11.8639L19.1674 12.8134L19.274 12.9349C19.339 12.9126 19.4093 12.8838 19.4829 12.8518C19.5575 12.8188 19.6331 12.7804 19.7099 12.7367L19.7983 12.838L20.0775 15.66L20.1703 16.1748L19.9369 15.8156L18.3127 13.9751C18.366 13.9037 18.4097 13.8366 18.4448 13.7747C18.4811 13.7129 18.512 13.6511 18.5375 13.5882L18.4288 13.4646L17.3556 14.411L17.4633 14.5336C17.54 14.5058 17.6157 14.4749 17.6903 14.4398ZM8.32238 34.2296L8.47159 34.2978L8.98954 33.1532L8.83927 33.085C8.70925 33.2086 8.60054 33.3375 8.51528 33.4729L7.72556 32.7088L8.27975 31.4832L9.38066 31.561C9.36361 31.6356 9.34869 31.7144 9.33697 31.7954C9.32525 31.8775 9.31672 31.9585 9.31459 32.0405L9.46379 32.1077L10.0649 30.7787L9.91567 30.7105C9.85492 30.7542 9.80057 30.8043 9.75261 30.864C9.70572 30.9236 9.65882 30.9844 9.61406 31.0473L5.62818 30.8149L5.55997 30.9652L8.36608 33.8043C8.3373 33.9397 8.32345 34.0814 8.32238 34.2296ZM6.60014 31.6004L6.20368 31.2679L6.20794 31.2572L6.69605 31.3595L7.97069 31.4491L7.50282 32.485L6.60014 31.6004ZM3.69598 37.9576C3.81108 38.0886 3.96775 38.1856 4.16491 38.2474C4.31625 38.2943 4.45693 38.3156 4.58695 38.3103C4.71803 38.3039 4.8374 38.2783 4.94717 38.2336C5.05587 38.1888 5.15499 38.127 5.24345 38.0481C5.33084 37.9693 5.40864 37.883 5.47258 37.7881C5.55464 37.8925 5.63777 37.997 5.72303 38.1014C5.80936 38.2059 5.89568 38.3135 5.98307 38.4244C6.07046 38.5352 6.15999 38.6535 6.24951 38.7814C6.3401 38.9093 6.42749 39.0499 6.51381 39.2034L6.56177 39.5029L6.69605 39.5444L6.91027 38.8656L6.83354 38.6396C6.75147 38.5107 6.66515 38.3924 6.57136 38.2837C6.47864 38.176 6.38166 38.0695 6.28041 37.9661C6.1781 37.8627 6.07473 37.7604 5.96922 37.6581C5.86371 37.5558 5.7582 37.4439 5.65376 37.3245L5.82534 36.7788L7.12555 37.1892C7.09038 37.3757 7.08399 37.5462 7.10637 37.6996L7.26303 37.7487L7.71384 36.3195L7.55718 36.2694C7.45913 36.3653 7.37067 36.4986 7.28861 36.6712L4.09031 35.6609C4.1031 35.5586 4.10949 35.468 4.10843 35.388C4.10843 35.3092 4.10416 35.2378 4.09457 35.177L3.93791 35.1269L3.7205 35.8175C3.68533 35.9284 3.64803 36.0371 3.60966 36.1415C3.57129 36.246 3.54039 36.3344 3.51694 36.4069C3.45939 36.5902 3.42315 36.7767 3.40823 36.9675C3.39331 37.1593 3.4093 37.3384 3.45406 37.5067C3.50095 37.6762 3.58195 37.8265 3.69598 37.9576ZM3.79723 36.5007C3.81322 36.4506 3.83347 36.393 3.85798 36.327C3.88249 36.262 3.90594 36.2129 3.92832 36.1799L5.55251 36.6925C5.55251 36.7437 5.54398 36.8044 5.52693 36.8748C5.51095 36.944 5.49176 37.0122 5.47258 37.0772C5.37986 37.3682 5.23705 37.5622 5.04309 37.6559C4.84912 37.7508 4.61679 37.7551 4.34715 37.6709C4.05301 37.5781 3.86544 37.4289 3.78551 37.2233C3.70664 37.0186 3.7109 36.7778 3.79723 36.5007ZM7.70425 29.0138C7.88223 29.227 8.13268 29.422 8.45667 29.6C8.76786 29.7705 9.05774 29.8771 9.32844 29.9208C9.60021 29.9645 9.84959 29.9495 10.0777 29.8792C10.3057 29.8089 10.5146 29.6831 10.7054 29.5041C10.8951 29.325 11.0677 29.097 11.2201 28.8188C11.2596 28.7453 11.2979 28.6675 11.3363 28.5822C11.3747 28.498 11.4066 28.4127 11.4322 28.3254C11.4578 28.239 11.4781 28.1538 11.4908 28.0706C11.5047 27.9875 11.5047 27.9108 11.4919 27.8383C11.363 27.7594 11.2255 27.688 11.0773 27.6241C10.9303 27.5602 10.8056 27.5111 10.7033 27.477L10.6329 27.606L11.12 28.1762C11.1338 28.2145 11.1296 28.2742 11.1061 28.3552C11.0837 28.4362 11.0411 28.5321 10.9825 28.6408C10.8706 28.8454 10.7352 29.0085 10.5743 29.1311C10.4144 29.2536 10.2375 29.3346 10.0414 29.373C9.8464 29.4113 9.63751 29.4081 9.41477 29.3634C9.19203 29.3197 8.96396 29.2323 8.72843 29.1033C8.46732 28.9605 8.25844 28.8028 8.10071 28.6312C7.94298 28.4596 7.83107 28.2827 7.765 28.1037C7.69785 27.9236 7.67441 27.7435 7.69359 27.5633C7.71384 27.3822 7.76819 27.2106 7.85878 27.0454C7.90354 26.9623 7.95257 26.8813 8.00586 26.8003C8.05914 26.7193 8.10497 26.6671 8.1444 26.6415L9.00019 26.7747L9.07053 26.6457C9.01405 26.602 8.9501 26.553 8.8787 26.5019C8.80836 26.4507 8.73482 26.3996 8.65916 26.3495C8.58349 26.2994 8.51102 26.2535 8.44174 26.2109C8.37247 26.1694 8.31172 26.1331 8.25844 26.1043C8.1412 26.1853 8.0261 26.294 7.91633 26.4273C7.80656 26.5605 7.69253 26.7353 7.5721 26.9548C7.45167 27.1765 7.36747 27.4056 7.32378 27.6433C7.28008 27.882 7.28754 28.1154 7.34829 28.3467C7.40691 28.579 7.52627 28.8007 7.70425 29.0138ZM9.74941 25.401C9.90928 25.628 10.1427 25.8432 10.4517 26.0468C10.748 26.2418 11.0294 26.3718 11.2958 26.4369C11.5622 26.5019 11.8116 26.5083 12.045 26.456C12.2774 26.4038 12.4969 26.2962 12.7015 26.1331C12.9061 25.9701 13.0948 25.7558 13.2696 25.4905C13.3154 25.4223 13.3602 25.3466 13.4049 25.2645C13.4486 25.1835 13.488 25.1004 13.5211 25.0162C13.5541 24.932 13.5808 24.8489 13.601 24.7679C13.6213 24.6858 13.6266 24.6091 13.6213 24.5366C13.4998 24.4471 13.3676 24.365 13.2248 24.2894C13.0831 24.2137 12.9626 24.1551 12.8646 24.1125L12.7836 24.235L13.2227 24.8425C13.2333 24.8809 13.2237 24.9395 13.1939 25.0194C13.1651 25.0993 13.115 25.191 13.0468 25.2944C12.9189 25.4894 12.7697 25.6418 12.6013 25.7505C12.433 25.8603 12.2486 25.9253 12.0514 25.9487C11.8532 25.9711 11.6454 25.9519 11.4269 25.8891C11.2084 25.8262 10.9878 25.7207 10.7629 25.5747C10.5146 25.4105 10.3185 25.2368 10.1757 25.0525C10.0329 24.8691 9.93485 24.6837 9.88263 24.4993C9.83041 24.3139 9.82188 24.1327 9.85492 23.9537C9.88902 23.7757 9.95723 23.6084 10.0606 23.4506C10.1118 23.3728 10.1683 23.295 10.2258 23.2194C10.2855 23.1437 10.3356 23.0936 10.3771 23.0723L11.2191 23.2748L11.3001 23.1522C11.2468 23.1032 11.186 23.051 11.12 22.9924C11.0549 22.9359 10.9846 22.8783 10.9143 22.8229C10.8429 22.7664 10.7736 22.7153 10.7086 22.6673C10.6436 22.6204 10.585 22.5789 10.5349 22.5458C10.4102 22.6172 10.2887 22.7153 10.1683 22.84C10.0478 22.9636 9.91993 23.1298 9.78245 23.3377C9.6439 23.5487 9.54266 23.7704 9.47978 24.0048C9.41583 24.2382 9.40518 24.4727 9.44674 24.7082C9.48937 24.9437 9.58955 25.175 9.74941 25.401ZM12.142 22.0748C12.2891 22.2943 12.4777 22.4947 12.709 22.6758C12.9403 22.8581 13.179 22.9956 13.4262 23.0872C13.6735 23.1789 13.9165 23.2215 14.1541 23.214C14.3929 23.2076 14.6209 23.149 14.8383 23.0361C15.0558 22.9242 15.2529 22.7579 15.4266 22.5352C15.6014 22.3135 15.7186 22.0844 15.7762 21.8456C15.8337 21.608 15.838 21.3735 15.7901 21.139C15.741 20.9067 15.643 20.6797 15.4959 20.4612C15.3499 20.2417 15.1602 20.0413 14.9289 19.8601C14.6987 19.6779 14.4589 19.5404 14.2128 19.4488C13.9655 19.3571 13.7225 19.3155 13.4848 19.3219C13.2461 19.3294 13.0181 19.388 12.8017 19.4999C12.5843 19.6118 12.3871 19.7781 12.2123 20.0008C12.0376 20.2225 11.9214 20.4516 11.8628 20.6904C11.8052 20.928 11.801 21.1625 11.85 21.3969C11.898 21.6293 11.9949 21.8563 12.142 22.0748ZM12.4138 20.2182C12.5449 20.053 12.6941 19.9379 12.8625 19.8729C13.0308 19.809 13.2078 19.7855 13.3953 19.8037C13.5818 19.8218 13.7747 19.8783 13.973 19.971C14.1701 20.0648 14.3641 20.1863 14.5538 20.3355C14.7435 20.4847 14.9065 20.6435 15.0451 20.8129C15.1836 20.9813 15.287 21.1518 15.3531 21.3223C15.4202 21.4939 15.4458 21.6634 15.4298 21.8328C15.4128 22.0034 15.3467 22.1632 15.2273 22.3146C15.0963 22.4797 14.947 22.5959 14.7787 22.6599C14.6103 22.7249 14.4334 22.7472 14.2458 22.7291C14.0593 22.711 13.8653 22.6556 13.6671 22.5639C13.4678 22.4712 13.2738 22.3519 13.0852 22.2016C12.8955 22.0524 12.7303 21.8957 12.5886 21.7316C12.4468 21.5664 12.3424 21.4001 12.2742 21.2307C12.206 21.0623 12.1804 20.8918 12.1974 20.7202C12.2123 20.5486 12.2848 20.3813 12.4138 20.2182ZM14.6081 17.6988L17.0434 20.004C16.9336 20.1809 16.8601 20.3237 16.8228 20.4335L16.9421 20.5465L19.2665 18.0899L20.0562 18.4981L20.1543 18.3947C20.1106 18.3319 20.0562 18.2605 19.9923 18.1827C19.9294 18.1049 19.8623 18.0239 19.7919 17.9418C19.7227 17.8597 19.6534 17.7819 19.5862 17.7073C19.5191 17.6327 19.4573 17.5699 19.4029 17.5176L18.9553 17.9898L16.5158 15.6803C16.6021 15.5449 16.6746 15.4 16.7322 15.2465L16.6128 15.1336L15.6291 16.1727L15.7485 16.2856C15.8231 16.2569 15.8924 16.2238 15.9574 16.1876C16.0234 16.1514 16.0853 16.113 16.1428 16.0746L18.5823 18.383L17.4196 19.6118L14.9801 17.3024C15.0664 17.1457 15.1293 17.0103 15.1687 16.8974L15.0494 16.7844L14.0667 17.8235L14.1861 17.9365C14.3502 17.8704 14.4898 17.7905 14.6081 17.6988ZM72.899 7.83109C72.8468 7.77354 72.7925 7.72025 72.737 7.6691C72.6816 7.61901 72.6241 7.57105 72.5655 7.52735L73.6333 5.21788L73.9296 4.56352L73.9754 4.58483L73.8827 5.27117L73.6664 8.36716L73.7996 8.42897L76.0696 6.2815L76.4927 5.81044L76.5332 5.82962L76.2348 6.42111L75.1669 8.73164C75.087 8.71566 75.0081 8.7018 74.9314 8.68795C74.8547 8.67516 74.7747 8.66663 74.6948 8.66237L74.6255 8.81157L75.8884 9.39454L75.9566 9.2464C75.9108 9.19205 75.8607 9.14089 75.8064 9.09293C75.751 9.04497 75.6913 8.99701 75.6252 8.95119L77.0352 5.90209C77.1098 5.91914 77.1855 5.933 77.2601 5.94046C77.3357 5.94792 77.4103 5.95218 77.4849 5.95431L77.5531 5.80511L76.6345 5.38094L74.6298 7.28969L74.2056 7.74796L74.2014 7.74583L74.2717 7.13622L74.4625 4.37701L73.4095 3.89103L73.3413 4.03917C73.3978 4.09885 73.4553 4.15534 73.515 4.21076C73.5747 4.26511 73.6376 4.3152 73.7026 4.36316L72.298 7.40266C72.2202 7.38241 72.1402 7.36749 72.0592 7.3579C71.9782 7.34724 71.8994 7.34085 71.8216 7.33872L71.7534 7.48685L72.8266 7.98349L72.899 7.83109ZM97.3643 30.7616C97.2875 30.9876 97.2651 31.2306 97.2982 31.4895C97.3312 31.7496 97.4154 32.0224 97.5508 32.308C97.5859 32.3826 97.6264 32.4615 97.6733 32.5414C97.7191 32.6214 97.7692 32.6981 97.8247 32.7706C97.879 32.842 97.9366 32.9081 97.9962 32.9677C98.0559 33.0274 98.1177 33.0722 98.1827 33.1052C98.3224 33.0477 98.462 32.9773 98.6005 32.8953C98.7391 32.8132 98.852 32.7418 98.9394 32.68L98.8765 32.5468L98.1295 32.6054C98.0911 32.5947 98.0453 32.5553 97.993 32.4892C97.9408 32.4221 97.8886 32.3326 97.8353 32.2206C97.7362 32.0096 97.6829 31.8039 97.6786 31.6025C97.6733 31.4011 97.7128 31.2103 97.7959 31.0291C97.879 30.848 98.0048 30.6817 98.1721 30.5272C98.3394 30.3737 98.544 30.2394 98.786 30.1254C99.0545 29.9986 99.306 29.9218 99.5373 29.8963C99.7696 29.8707 99.9775 29.8824 100.162 29.9346C100.347 29.9869 100.507 30.0732 100.641 30.1947C100.776 30.3162 100.883 30.4622 100.963 30.6316C101.003 30.7169 101.04 30.8043 101.074 30.8949C101.108 30.9844 101.124 31.0537 101.121 31.0995L100.509 31.7134L100.572 31.8455C100.641 31.8253 100.718 31.8018 100.801 31.7752C100.884 31.7485 100.97 31.7187 101.054 31.6867C101.139 31.6547 101.219 31.6238 101.295 31.5929C101.369 31.561 101.434 31.5332 101.489 31.5077C101.492 31.3638 101.472 31.2082 101.429 31.0409C101.385 30.8746 101.311 30.6775 101.204 30.4526C101.096 30.2234 100.959 30.022 100.793 29.8462C100.626 29.6703 100.433 29.5392 100.211 29.4518C99.9881 29.3655 99.7387 29.3314 99.4616 29.3495C99.1845 29.3677 98.8797 29.455 98.5451 29.6128C98.2243 29.763 97.9675 29.9368 97.7735 30.1297C97.5763 30.3258 97.441 30.5357 97.3643 30.7616ZM95.2818 24.0901C95.0324 24.2467 94.8246 24.4269 94.6551 24.6294C94.4867 24.8318 94.3653 25.0461 94.2917 25.2731C94.2182 25.499 94.1979 25.7335 94.2299 25.9765C94.2619 26.2184 94.3546 26.4592 94.5049 26.698C94.6551 26.9367 94.8331 27.1243 95.0377 27.2585C95.2424 27.3918 95.463 27.4749 95.6985 27.5058C95.934 27.5367 96.1802 27.5207 96.4349 27.4557C96.6907 27.3907 96.9422 27.2799 97.1916 27.1232C97.4399 26.9665 97.6488 26.7875 97.8183 26.585C97.9867 26.3825 98.1081 26.1672 98.1817 25.9413C98.2552 25.7153 98.2744 25.4798 98.2424 25.2379C98.2105 24.996 98.1188 24.754 97.9675 24.5153C97.8161 24.2766 97.6382 24.0901 97.4346 23.9558C97.23 23.8215 97.0094 23.7384 96.7728 23.7075C96.5372 23.6755 96.291 23.6936 96.0353 23.7576C95.7827 23.8226 95.5312 23.9324 95.2818 24.0901ZM96.792 24.1615C96.9742 24.154 97.1426 24.186 97.2982 24.2595C97.4538 24.3331 97.587 24.4578 97.6978 24.6336C97.8097 24.8116 97.8694 24.9906 97.8726 25.1707C97.8769 25.3519 97.8396 25.5267 97.7596 25.6972C97.6797 25.8677 97.5636 26.0308 97.409 26.1853C97.2545 26.3409 97.0754 26.4816 96.8719 26.6116C96.6673 26.7406 96.4626 26.8408 96.257 26.9143C96.0523 26.9889 95.8573 27.0283 95.675 27.0347C95.4917 27.0411 95.3223 27.0081 95.1678 26.9356C95.0132 26.8642 94.8853 26.7459 94.783 26.5839C94.6701 26.406 94.6114 26.2258 94.6072 26.0457C94.6029 25.8656 94.6413 25.6908 94.7201 25.5203C94.8001 25.3498 94.9162 25.1857 95.0697 25.029C95.2232 24.8723 95.4012 24.7295 95.6058 24.6006C95.8093 24.4716 96.0129 24.3682 96.2154 24.2894C96.4168 24.2126 96.6097 24.17 96.792 24.1615ZM98.4353 33.6583L98.2819 33.7159L98.7209 34.8925L98.8744 34.8349C98.8797 34.6559 98.8648 34.4875 98.8307 34.3319L99.9306 34.318L100.401 35.5777L99.565 36.2982C99.5245 36.2332 99.4798 36.1671 99.4307 36.101C99.3817 36.035 99.3295 35.9721 99.2751 35.9113L99.1217 35.9689L99.6322 37.3352L99.7856 37.2776C99.7984 37.2051 99.8005 37.1305 99.7931 37.0549C99.7856 36.9792 99.775 36.9035 99.7633 36.8279L102.754 34.1827L102.696 34.0292L98.7039 33.994C98.6282 33.8758 98.5387 33.7649 98.4353 33.6583ZM101.51 34.3106L102.025 34.2679L102.029 34.2786L101.611 34.5493L100.644 35.3848L100.246 34.3202L101.51 34.3106ZM90.3474 17.9375C90.1257 18.1304 89.9477 18.3404 89.8124 18.5674C89.677 18.7933 89.5897 19.0246 89.5524 19.2591C89.5151 19.4946 89.5321 19.7291 89.6014 19.9635C89.6717 20.198 89.7996 20.4218 89.9861 20.6339C90.1726 20.847 90.3762 21.0037 90.6 21.1039C90.8227 21.2051 91.0529 21.252 91.2916 21.2467C91.5304 21.2414 91.7702 21.187 92.0132 21.0826C92.2551 20.9781 92.4864 20.83 92.708 20.6371C92.9286 20.4431 93.1077 20.2332 93.243 20.0072C93.3784 19.7813 93.4647 19.55 93.502 19.3156C93.5393 19.08 93.5233 18.8456 93.453 18.6111C93.3837 18.3756 93.2558 18.1528 93.0693 17.9397C92.8828 17.7265 92.6792 17.5709 92.4554 17.4697C92.2316 17.3695 92.0014 17.3226 91.7638 17.3269C91.525 17.3322 91.2852 17.3876 91.0433 17.491C90.8003 17.5944 90.5691 17.7436 90.3474 17.9375ZM91.8501 17.7734C92.0281 17.7372 92.2007 17.7436 92.3648 17.7915C92.53 17.8406 92.6814 17.9418 92.8178 18.0985C92.9563 18.2583 93.0416 18.4257 93.0746 18.6026C93.1066 18.7805 93.097 18.9596 93.0448 19.1397C92.9926 19.3209 92.902 19.4999 92.7741 19.6758C92.6462 19.8538 92.4906 20.0211 92.3094 20.1799C92.1283 20.3387 91.9407 20.4698 91.7499 20.5753C91.5581 20.6797 91.3726 20.75 91.1925 20.7841C91.0114 20.8193 90.8398 20.8129 90.6767 20.765C90.5126 20.7181 90.3676 20.6222 90.2408 20.4783C90.1023 20.3184 90.016 20.1511 89.984 19.9742C89.952 19.7962 89.9616 19.6172 90.0149 19.437C90.0671 19.2559 90.1566 19.0768 90.2835 18.8978C90.4103 18.7187 90.5648 18.5503 90.747 18.3916C90.9282 18.2328 91.1137 18.0985 91.3012 17.9898C91.4877 17.8821 91.6711 17.8097 91.8501 17.7734ZM94.864 20.7053L92.1751 22.7099C92.0558 22.6012 91.9279 22.5043 91.7894 22.419L91.6572 22.5181L92.5833 23.7597L92.7155 23.6617C92.6579 23.4837 92.5865 23.311 92.4991 23.1448L95.1976 21.1337L95.8765 22.0449L95.3724 22.7877L95.4598 22.905C95.5301 22.8666 95.6068 22.8208 95.6921 22.7664C95.7774 22.7131 95.8626 22.6556 95.9489 22.5959C96.0363 22.5362 96.1205 22.4787 96.2005 22.4222C96.2815 22.3668 96.3518 22.3167 96.4126 22.2719L94.831 20.15L94.6988 20.2481C94.7201 20.3259 94.7436 20.4047 94.7724 20.4836C94.8011 20.5625 94.831 20.636 94.864 20.7053ZM102.697 48.3997C102.658 48.388 102.619 48.3741 102.58 48.3613C102.541 48.3475 102.505 48.3326 102.475 48.3187C102.443 48.3038 102.419 48.2899 102.403 48.2761L102.509 47.6825L102.36 47.61C102.317 47.6175 102.267 47.6292 102.213 47.6452C102.16 47.6601 102.106 47.6782 102.05 47.6985C101.995 47.7176 101.943 47.74 101.89 47.7645C101.839 47.7901 101.798 47.8146 101.766 47.8402C101.752 47.951 101.77 48.0512 101.822 48.1418C101.872 48.2324 101.95 48.3155 102.055 48.3891C102.159 48.4637 102.292 48.5351 102.454 48.6011C102.617 48.6672 102.803 48.7312 103.012 48.794L105.609 49.6957C105.639 49.7799 105.669 49.8555 105.698 49.9216C105.728 49.9866 105.757 50.0431 105.783 50.09L105.947 50.0761L105.844 48.8196L105.681 48.8335C105.631 48.9688 105.598 49.1329 105.579 49.3237L103.665 48.7354L103.283 48.6534V48.6416L103.633 48.4946L105.423 47.4086C105.449 47.4938 105.477 47.5738 105.508 47.6484C105.539 47.723 105.569 47.7922 105.6 47.853L105.763 47.8402L105.643 46.3577L105.48 46.3705C105.455 46.4409 105.435 46.5123 105.418 46.5858C105.401 46.6583 105.386 46.7318 105.374 46.8054L102.798 48.4264C102.771 48.42 102.737 48.4114 102.697 48.3997ZM103.858 42.4838C103.598 42.4443 103.322 42.4486 103.032 42.4966C102.742 42.5435 102.48 42.6287 102.245 42.7481C102.011 42.8685 101.816 43.0198 101.66 43.1989C101.504 43.3801 101.395 43.5879 101.33 43.8234C101.265 44.0589 101.256 44.3169 101.302 44.5961C101.348 44.8753 101.439 45.1162 101.575 45.3197C101.711 45.5222 101.882 45.6842 102.088 45.8057C102.292 45.9261 102.526 46.0071 102.786 46.0466C103.046 46.086 103.322 46.0817 103.612 46.0338C103.902 45.9869 104.164 45.9016 104.398 45.7812C104.633 45.6608 104.828 45.5105 104.983 45.3304C105.139 45.1503 105.249 44.9424 105.313 44.7058C105.378 44.4703 105.387 44.2124 105.341 43.9332C105.296 43.654 105.204 43.4131 105.067 43.2095C104.931 43.007 104.761 42.8451 104.556 42.7236C104.351 42.6042 104.118 42.5232 103.858 42.4838ZM105.045 43.9374C105.079 44.1453 105.063 44.3339 104.997 44.5012C104.931 44.6685 104.829 44.8156 104.688 44.9414C104.548 45.0671 104.377 45.1726 104.175 45.2558C103.973 45.3389 103.753 45.3996 103.515 45.438C103.276 45.4774 103.048 45.4913 102.83 45.4796C102.613 45.4679 102.418 45.4284 102.246 45.3623C102.075 45.2973 101.932 45.2014 101.818 45.0746C101.704 44.9488 101.632 44.79 101.601 44.6003C101.565 44.3925 101.582 44.2039 101.649 44.0366C101.714 43.8682 101.817 43.7222 101.958 43.5964C102.097 43.4706 102.269 43.3641 102.47 43.2799C102.673 43.1957 102.892 43.1328 103.13 43.0944C103.369 43.055 103.597 43.038 103.813 43.0443C104.029 43.0518 104.223 43.0859 104.395 43.1499C104.565 43.2127 104.708 43.3097 104.823 43.4376C104.937 43.5655 105.011 43.7318 105.045 43.9374ZM25.1452 8.68049L26.8908 11.5441C26.7384 11.6859 26.6297 11.8053 26.5647 11.9012L26.65 12.0418L29.5382 10.2812L30.1925 10.8813L30.3151 10.8066C30.2884 10.7342 30.2554 10.6521 30.2149 10.5594C30.1744 10.4667 30.1307 10.3729 30.0849 10.2748C30.038 10.1768 29.9922 10.0841 29.9463 9.99455C29.9016 9.90503 29.8589 9.82829 29.8195 9.76328L29.2643 10.1022L27.5154 7.23321C27.6358 7.12557 27.7424 7.00407 27.8383 6.87085L27.752 6.73124L26.5306 7.4762L26.6159 7.61581C26.6947 7.60835 26.7704 7.59449 26.844 7.57638C26.9164 7.55826 26.9857 7.53801 27.0518 7.51563L28.8007 10.3846L27.3566 11.2649L25.6098 8.39807C25.7334 8.26911 25.8304 8.15508 25.8976 8.05596L25.8123 7.91635L24.591 8.6613L24.6762 8.80092C24.8521 8.77747 25.0077 8.73804 25.1452 8.68049ZM100.187 38.0822C100.152 38.0098 100.113 37.9394 100.069 37.8712C100.025 37.803 99.9796 37.738 99.9316 37.6762L99.7739 37.7188L100.08 38.8602L100.239 38.8176C100.249 38.7409 100.256 38.6641 100.259 38.5895C100.263 38.5149 100.262 38.4403 100.258 38.3668L102.716 37.7092L103.409 37.5185L103.422 37.5675L102.836 37.9352L100.318 39.7512L100.357 39.8929L103.459 40.2617L104.093 40.2851L104.104 40.3288L103.459 40.478L101 41.1377C100.961 41.0663 100.922 40.996 100.882 40.9299C100.843 40.8617 100.799 40.7956 100.75 40.7306L100.591 40.7722L100.952 42.1172L101.11 42.0745C101.122 42.0052 101.13 41.9328 101.132 41.8603C101.134 41.7878 101.132 41.7111 101.126 41.6312L104.372 40.7626C104.406 40.8308 104.443 40.8979 104.486 40.9598C104.527 41.0226 104.572 41.0834 104.619 41.1409L104.778 41.0983L104.515 40.121L101.767 39.8034L101.143 39.7715V39.7661L101.655 39.4304L103.897 37.8115L103.598 36.6914L103.439 36.7341C103.429 36.8151 103.422 36.8961 103.419 36.976C103.414 37.057 103.416 37.138 103.422 37.2179L100.187 38.0822ZM43.8682 4.93759L43.8383 4.77667C43.6635 4.74043 43.4951 4.72551 43.3353 4.73297L43.5101 3.64698L44.8316 3.39972L45.3986 4.34717C45.3272 4.37595 45.2547 4.40792 45.1812 4.44522C45.1076 4.48252 45.0362 4.52195 44.9669 4.56565L44.9978 4.72658L46.4323 4.45801L46.4014 4.29708C46.3322 4.2715 46.2597 4.25658 46.184 4.25125C46.1083 4.24699 46.0316 4.24379 45.9549 4.24273L43.8639 0.841938L43.7019 0.872845L42.9804 4.79905C42.8525 4.8534 42.7267 4.92267 42.6052 5.00687L42.6351 5.16779L43.8682 4.93759ZM43.7744 2.08992L43.8213 1.57517L43.8319 1.57304L44.0259 2.03131L44.6834 3.12903L43.5665 3.33685L43.7744 2.08992ZM33.945 5.47899C34.0313 5.57704 34.1262 5.65377 34.2296 5.71132C34.3319 5.76781 34.4427 5.80618 34.5589 5.82536C34.6761 5.84454 34.7912 5.85094 34.9052 5.84241C34.8743 5.97137 34.8456 6.10245 34.8179 6.23354C34.7901 6.36569 34.7614 6.50104 34.7294 6.63852C34.6974 6.776 34.6612 6.91988 34.6186 7.07015C34.5749 7.22042 34.5205 7.37708 34.4555 7.54014L34.2509 7.76501L34.302 7.89717L34.966 7.63926L35.0939 7.43676C35.1429 7.29289 35.1802 7.15008 35.2079 7.01047C35.2346 6.87085 35.2559 6.72911 35.2729 6.58417C35.29 6.44029 35.3049 6.29429 35.3188 6.14828C35.3326 6.00121 35.3529 5.84987 35.3816 5.69321L35.9145 5.48645L36.4079 6.75682C36.2396 6.84634 36.1031 6.94759 35.9987 7.06162L36.0584 7.21509L37.4556 6.67263L37.3959 6.51916C37.2605 6.50317 37.0996 6.51916 36.9142 6.56072L35.7003 3.43489C35.7877 3.38054 35.8633 3.32832 35.9241 3.27823C35.9859 3.22814 36.0381 3.18018 36.0808 3.13542L36.0211 2.98195L35.3465 3.24519C35.2378 3.28676 35.1301 3.32619 35.0246 3.36136C34.9191 3.39653 34.8306 3.42637 34.7603 3.45408C34.5813 3.52335 34.4118 3.61287 34.2541 3.72051C34.0953 3.82815 33.9653 3.95285 33.8619 4.09352C33.7596 4.23527 33.6924 4.39087 33.6626 4.56352C33.6317 4.7351 33.6541 4.91734 33.7297 5.11131C33.7862 5.25838 33.8587 5.38094 33.945 5.47899ZM34.2903 4.17345C34.4001 3.98375 34.5908 3.83455 34.8615 3.73011C34.9106 3.71092 34.9681 3.69067 35.0342 3.66829C35.1003 3.64698 35.1536 3.63419 35.193 3.63099L35.8101 5.21788C35.7696 5.24986 35.7173 5.28076 35.6523 5.31274C35.5873 5.34471 35.5234 5.37242 35.4605 5.39586C35.1759 5.5067 34.9361 5.51629 34.7401 5.42464C34.544 5.33192 34.3948 5.15501 34.2935 4.89177C34.1816 4.60402 34.1795 4.36422 34.2903 4.17345ZM55.4496 3.86119C55.3878 3.82815 55.3174 3.79831 55.2418 3.77167C55.165 3.74503 55.0851 3.72158 54.9988 3.70346L55.0052 3.57877L56.7978 1.34071L57.0663 0.929329L56.9885 1.3503L56.867 3.79618C56.7839 3.80684 56.705 3.82283 56.6326 3.84414C56.5601 3.86439 56.493 3.88677 56.4311 3.91022L56.4237 4.07434L57.8582 4.14575L57.8656 3.98162C57.7367 3.91448 57.5843 3.86119 57.4095 3.82282L57.5747 0.473191C57.6578 0.45827 57.7399 0.441218 57.8209 0.423101C57.9008 0.403917 57.9754 0.382602 58.0447 0.354893L58.0521 0.190768L56.6176 0.119363L56.6102 0.281357C56.6731 0.310132 56.7423 0.338907 56.818 0.367682C56.8947 0.395391 56.9747 0.420969 57.061 0.44335L57.0535 0.577633L55.2844 2.79438L54.9913 3.22814L55.0745 2.80717L55.1959 0.354893C55.2833 0.341038 55.3611 0.323986 55.4304 0.304803C55.4997 0.285619 55.5647 0.263239 55.6265 0.23553L55.634 0.0714049L54.208 0L54.1995 0.163059C54.2741 0.197163 54.3498 0.228069 54.4276 0.253647C54.5054 0.280291 54.581 0.304803 54.6567 0.327184L54.4904 3.67788C54.3316 3.6928 54.175 3.73011 54.0215 3.79085L54.014 3.95391L55.4432 4.02532L55.4496 3.86119ZM28.9744 6.34438C29.0554 6.32946 29.1342 6.31454 29.2099 6.29748L30.6892 9.30715C30.557 9.39667 30.4376 9.50644 30.3321 9.63433L30.4046 9.7814L31.6888 9.15048L31.6174 9.00341C31.546 9.00448 31.4714 9.01193 31.3915 9.02579C31.3126 9.03964 31.2306 9.05883 31.1464 9.08334L31.0909 8.97144L31.5737 6.14402L31.61 5.65377L31.7464 6.05982L32.826 8.25845C32.7578 8.30854 32.697 8.36076 32.6448 8.41405C32.5915 8.46734 32.5425 8.51956 32.5009 8.56965L32.5734 8.71672L33.8629 8.08367L33.7905 7.9366C33.6455 7.94086 33.4867 7.96857 33.3152 8.01973L31.8348 5.009C31.8998 4.95571 31.9638 4.90136 32.0245 4.84594C32.0863 4.79052 32.1407 4.7351 32.1876 4.67755L32.1162 4.53048L30.8266 5.16353L30.898 5.30847C30.9663 5.30421 31.0419 5.29462 31.1218 5.2829C31.2028 5.27011 31.2849 5.25412 31.3712 5.23174L31.4309 5.35217L30.9588 8.14762L30.9119 8.66876L30.7808 8.26058L29.698 6.05769C29.7673 6.00227 29.828 5.95005 29.8792 5.89889C29.9303 5.8488 29.9762 5.79658 30.0177 5.7433L29.9453 5.59622L28.661 6.22714L28.7335 6.37422C28.8124 6.36995 28.8934 6.3593 28.9744 6.34438ZM86.1665 16.2046C86.0311 16.1173 85.8883 16.0427 85.737 15.9819L85.6229 16.1013L86.6578 17.0892L86.7718 16.9709C86.7462 16.9048 86.7153 16.8388 86.6791 16.7727C86.6429 16.7066 86.6024 16.6427 86.5587 16.5798L87.6521 15.4341L88.9363 16.6608L87.8429 17.8054C87.7161 17.7255 87.5828 17.6615 87.4432 17.6104L87.3292 17.7297L88.364 18.7177L88.477 18.5994C88.4514 18.5333 88.4173 18.464 88.3768 18.3937C88.3353 18.3223 88.2873 18.2519 88.2351 18.1805L90.551 15.7549C90.6192 15.7986 90.6895 15.8412 90.762 15.8817C90.8344 15.9233 90.909 15.9531 90.9836 15.9723L91.0977 15.854L90.0628 14.8661L89.9499 14.9844C89.9755 15.0504 90.0053 15.1155 90.0394 15.1805C90.0746 15.2455 90.114 15.3115 90.1588 15.3798L89.1388 16.4476L87.8546 15.221L88.8745 14.1531C88.9395 14.1946 89.0056 14.2309 89.0738 14.2639C89.141 14.297 89.2092 14.3236 89.2785 14.3428L89.3925 14.2245L88.3577 13.2355L88.2447 13.3548C88.2926 13.4955 88.3726 13.6362 88.4823 13.7769L86.1665 16.2046ZM85.3491 11.1562L86.0226 11.6997L83.9092 14.3183C83.8229 14.2682 83.7408 14.2256 83.6609 14.1904C83.5799 14.1552 83.4979 14.1222 83.4147 14.0945L83.3124 14.2224L84.5498 15.2199L84.6521 15.092C84.6116 15.0163 84.5647 14.9449 84.5103 14.8757C84.457 14.8075 84.3973 14.736 84.3323 14.6593L86.4457 12.0408L87.115 12.58L86.8379 13.3964L86.9541 13.4902C87.0127 13.4358 87.0745 13.373 87.1395 13.3016C87.2045 13.2302 87.2695 13.1577 87.3377 13.0831C87.4049 13.0085 87.4699 12.936 87.5317 12.8657C87.5935 12.7943 87.6489 12.7303 87.6958 12.6717L85.138 10.6084C85.0911 10.667 85.0389 10.7352 84.9814 10.812C84.9238 10.8898 84.8663 10.9686 84.8077 11.0507C84.749 11.1317 84.6926 11.2127 84.6382 11.2926C84.5838 11.3715 84.537 11.445 84.4997 11.51L84.6094 11.5985L85.3491 11.1562ZM59.3822 0.639447L60.2401 0.754547L59.7914 4.09033C59.6923 4.09246 59.5985 4.09885 59.5122 4.11058C59.4248 4.12123 59.3374 4.13615 59.2522 4.15534L59.2309 4.31733L60.806 4.52835L60.8284 4.36529C60.7538 4.32159 60.676 4.28429 60.595 4.25445C60.514 4.22461 60.4256 4.1937 60.3307 4.16173L60.7794 0.825952L61.632 0.939987L61.8185 1.78086L61.9656 1.80111C61.9879 1.72437 62.0082 1.63805 62.0263 1.54426C62.0444 1.45048 62.0636 1.3535 62.0828 1.25545C62.102 1.15633 62.1201 1.06148 62.1361 0.968762C62.1531 0.876042 62.1659 0.791848 62.1766 0.718312L58.9197 0.280291C58.909 0.354893 58.8994 0.440152 58.8909 0.536069C58.8813 0.631986 58.8738 0.730035 58.8653 0.829149C58.8578 0.929329 58.8514 1.02738 58.8461 1.12329C58.8408 1.21921 58.8387 1.30554 58.8397 1.38227L58.9804 1.40145L59.3822 0.639447ZM5.59408 43.5751L5.75394 43.6113L6.0321 42.3868L5.87223 42.3506C5.76992 42.4976 5.68893 42.6458 5.63244 42.795L4.70524 42.2035L5.00259 40.8926L6.09604 40.7487C6.09604 40.8255 6.09604 40.9054 6.1003 40.9875C6.10457 41.0695 6.11416 41.1505 6.12588 41.2315L6.28574 41.2678L6.60866 39.8439L6.4488 39.8077C6.39765 39.862 6.35502 39.9228 6.31985 39.991C6.28468 40.0581 6.25164 40.1274 6.22073 40.1977L2.26895 40.769L2.23272 40.9288L5.55145 43.1488C5.55145 43.2873 5.5653 43.4291 5.59408 43.5751ZM4.44307 42.0298L3.38052 41.3445L2.92652 41.0972L2.92971 41.0866L3.42742 41.0908L4.69459 40.9225L4.44307 42.0298ZM8.90108 79.6047L11.7988 77.9166C11.9139 78.0551 12.0312 78.1649 12.1495 78.2491L12.2912 78.166L10.8876 75.7574C10.7406 75.8352 10.6009 75.9183 10.4656 76.01C10.3313 76.1016 10.2024 76.1986 10.0787 76.3009L10.1501 76.4235L10.8759 76.3212L11.5303 77.4455L10.1672 78.2395L9.70359 77.4434L9.96363 77.0363L9.89222 76.9137C9.54479 77.0896 9.21654 77.2814 8.90534 77.4892L8.97675 77.6118L9.44887 77.5915L9.91247 78.3887L8.61759 79.1432L7.99626 78.0786L8.41723 77.5649L8.3437 77.438C8.19982 77.4999 8.06021 77.5649 7.92379 77.6341C7.78738 77.7024 7.65203 77.7727 7.52094 77.8452L8.87017 80.1621L9.01192 80.08C9.00019 79.999 8.98527 79.9191 8.96609 79.8381C8.94797 79.755 8.92559 79.6783 8.90108 79.6047ZM98.4311 79.1944C98.3693 79.2498 98.3106 79.3031 98.2531 79.3564L95.4289 77.5489C95.4949 77.4029 95.5397 77.2483 95.5642 77.0853L95.4257 76.9968L94.6541 78.2022L94.7926 78.2917C94.8523 78.2533 94.913 78.2086 94.9738 78.1553C95.0345 78.102 95.0942 78.0434 95.1539 77.9784L95.2583 78.0455L96.3113 80.7141L96.534 81.1522L96.2069 80.8761L94.1446 79.5557C94.1766 79.4779 94.2011 79.4022 94.2192 79.3276C94.2374 79.2541 94.2512 79.1848 94.2619 79.1198L94.1233 79.0313L93.3485 80.241L93.4871 80.3294C93.6096 80.2516 93.7311 80.1461 93.8516 80.0118L96.6758 81.8204C96.647 81.9003 96.6204 81.9803 96.5969 82.0591C96.5745 82.138 96.5554 82.2136 96.5447 82.2872L96.6832 82.3756L97.458 81.166L97.3216 81.0786C97.2651 81.1191 97.2055 81.165 97.1436 81.2172C97.0818 81.2694 97.019 81.327 96.9571 81.3898L96.8442 81.3174L95.7997 78.6807L95.5695 78.2118L95.8935 78.4931L97.9611 79.8168C97.9302 79.8999 97.9057 79.9767 97.8886 80.0459C97.8716 80.1152 97.8588 80.1834 97.8513 80.2505L97.9898 80.339L98.7614 79.1337L98.6229 79.0452C98.5568 79.0889 98.4929 79.1401 98.4311 79.1944ZM80.7067 7.61048L78.3833 6.27191L78.3013 6.41365C78.3514 6.47759 78.4057 6.53941 78.4612 6.60015C78.5176 6.6609 78.5752 6.71739 78.6327 6.76748L76.9574 9.67376C76.789 9.61195 76.6323 9.57358 76.4874 9.55973L76.4053 9.70147L78.8214 11.0944C78.9109 10.9548 78.9908 10.8109 79.0622 10.6649C79.1336 10.5189 79.1976 10.3708 79.253 10.2194L79.1304 10.1491L78.5517 10.5988L77.4252 9.94872L78.2128 8.58244L79.0121 9.04284L78.9887 9.52562L79.1113 9.59596C79.3255 9.27091 79.5152 8.9416 79.6814 8.60695L79.5589 8.53555L79.1592 8.78813L78.361 8.32773L79.1091 7.02858L80.177 7.64458L80.0672 8.29895L80.194 8.37355C80.2878 8.24886 80.3774 8.1231 80.4615 7.99521C80.5468 7.86839 80.6278 7.73944 80.7067 7.61048ZM95.0111 82.705C94.8853 82.609 94.7606 82.5408 94.6359 82.5025C94.5113 82.4641 94.3898 82.4471 94.2725 82.4524C94.1553 82.4566 94.0402 82.4812 93.9304 82.5259C93.8207 82.5696 93.7194 82.625 93.6256 82.6911C93.5841 82.5654 93.5425 82.4375 93.4967 82.3106C93.4519 82.1838 93.4072 82.0527 93.3613 81.9184C93.3176 81.7852 93.275 81.6424 93.2324 81.4911C93.1908 81.3408 93.1567 81.1788 93.1279 81.0051L93.1855 80.7067L93.0736 80.6204L92.6398 81.1863L92.6356 81.425C92.6686 81.5742 92.7101 81.7149 92.7592 81.8492C92.8093 81.9824 92.8636 82.1145 92.9244 82.2467C92.984 82.3788 93.0469 82.5099 93.1109 82.6432C93.1759 82.7753 93.2366 82.916 93.2942 83.0641L92.9467 83.5181L91.865 82.6879C91.962 82.5249 92.0259 82.3671 92.0579 82.2147L91.9279 82.1156L91.0145 83.305L91.1446 83.4041C91.2693 83.3476 91.3993 83.2528 91.5346 83.1195L94.1947 85.1604C94.1478 85.2532 94.1116 85.3363 94.0839 85.4109C94.0583 85.4855 94.037 85.5537 94.0242 85.6144L94.1542 85.7136L94.5955 85.1391C94.6669 85.0464 94.7383 84.9579 94.8097 84.8737C94.8821 84.7885 94.9418 84.7171 94.9876 84.6563C95.1049 84.5039 95.2019 84.3398 95.2818 84.165C95.3607 83.9902 95.4075 83.8165 95.4225 83.6428C95.4374 83.468 95.4129 83.3007 95.3511 83.1377C95.2893 82.9757 95.1752 82.8307 95.0111 82.705ZM94.7596 84.472C94.7276 84.5135 94.6882 84.5615 94.6434 84.6148C94.5976 84.6681 94.5592 84.7054 94.5272 84.7288L93.1759 83.6929C93.194 83.6449 93.2228 83.5906 93.2611 83.5309C93.3006 83.4712 93.3411 83.4137 93.3816 83.3593C93.5681 83.1174 93.7684 82.9842 93.9826 82.9618C94.1969 82.9394 94.4175 83.013 94.6413 83.1856C94.8864 83.3732 95.0111 83.5778 95.0164 83.7974C95.0217 84.0169 94.9354 84.2418 94.7596 84.472ZM81.2299 12.7708C81.2982 12.8177 81.3728 12.8635 81.4538 12.9094C81.5348 12.9552 81.6168 12.9957 81.6999 13.0298C81.7831 13.065 81.8662 13.0916 81.9472 13.1129C82.0282 13.1342 82.1049 13.1428 82.1774 13.1374C82.2691 13.017 82.3532 12.887 82.431 12.7463C82.5088 12.6046 82.5696 12.4863 82.6143 12.3882L82.4929 12.3051L81.8779 12.7335C81.8396 12.7442 81.7809 12.7324 81.7021 12.7015C81.6232 12.6696 81.5326 12.6195 81.4303 12.5491C81.2374 12.4181 81.0882 12.2667 80.9816 12.0951C80.8761 11.9246 80.8132 11.7402 80.7941 11.5409C80.7738 11.3427 80.7983 11.1349 80.8655 10.9186C80.9315 10.7011 81.0402 10.4827 81.1926 10.261C81.361 10.0159 81.538 9.8219 81.7255 9.68229C81.912 9.54268 82.0975 9.44889 82.284 9.40093C82.4694 9.35191 82.6517 9.34551 82.8286 9.38281C83.0065 9.42011 83.1728 9.49152 83.3284 9.59703C83.4062 9.65032 83.4819 9.7068 83.5565 9.76755C83.6311 9.82723 83.6801 9.87838 83.7003 9.92101L83.4829 10.7587L83.6044 10.8418C83.6545 10.7885 83.7078 10.731 83.7664 10.6649C83.825 10.5999 83.8826 10.5317 83.9401 10.4613C83.9977 10.391 84.051 10.3228 84.1 10.2589C84.149 10.1938 84.1906 10.1374 84.2247 10.0873C84.1554 9.96258 84.0595 9.83895 83.938 9.71639C83.8154 9.59383 83.6524 9.46274 83.4467 9.32207C83.2378 9.17926 83.0172 9.07481 82.7849 9.00661C82.5525 8.9384 82.3181 8.92348 82.0826 8.96184C81.847 8.99915 81.6147 9.09506 81.3845 9.25173C81.1553 9.40733 80.9358 9.63753 80.7269 9.94233C80.5276 10.2354 80.3923 10.5136 80.323 10.78C80.2527 11.0454 80.242 11.2948 80.29 11.5282C80.3379 11.7626 80.4413 11.9822 80.6012 12.19C80.7578 12.3978 80.9688 12.5918 81.2299 12.7708ZM53.1359 3.37308C53.2211 3.22281 53.2606 3.0459 53.2542 2.84234C53.2488 2.68461 53.2169 2.54926 53.1582 2.43842C53.0996 2.32759 53.0261 2.23487 52.9366 2.16026C52.847 2.08566 52.7469 2.02811 52.6339 1.98655C52.5209 1.94498 52.408 1.91727 52.295 1.90129V1.87891C52.4208 1.84374 52.5305 1.79365 52.6232 1.72651C52.7149 1.6583 52.7906 1.58263 52.8502 1.49524C52.9099 1.40891 52.9515 1.31513 52.9792 1.21601C53.0058 1.1169 53.0176 1.01885 53.0144 0.920803C53.008 0.724706 52.9632 0.566976 52.8801 0.447613C52.797 0.327183 52.6904 0.23553 52.5625 0.172651C52.4335 0.108706 52.2907 0.0682076 52.1341 0.0479585C51.9774 0.0287751 51.8229 0.0223806 51.6726 0.0266436C51.5671 0.0298408 51.4733 0.0351696 51.3902 0.041564C51.307 0.0479585 51.2303 0.054353 51.1589 0.0607474C51.0875 0.0671419 51.0182 0.0735364 50.9532 0.0788651C50.8871 0.0852596 50.8179 0.0895225 50.7465 0.091654L50.1475 0.111903L50.1528 0.276028C50.2296 0.303737 50.3074 0.328249 50.3873 0.35063C50.4672 0.373011 50.545 0.390062 50.6207 0.402851L50.7326 3.75462C50.5749 3.77806 50.4214 3.82922 50.2733 3.90489L50.2786 4.06901L50.8211 4.05089C50.9745 4.04663 51.1355 4.04663 51.3017 4.05089C51.468 4.05729 51.6172 4.05835 51.7493 4.05303C51.938 4.04663 52.1234 4.01892 52.3067 3.9699C52.49 3.92087 52.6531 3.84627 52.7948 3.74716C52.9355 3.64698 53.0506 3.52229 53.1359 3.37202V3.37308ZM51.128 0.361287C51.1813 0.352761 51.2484 0.344235 51.3305 0.337841C51.4136 0.331446 51.5138 0.327184 51.63 0.322921C51.8783 0.314395 52.0786 0.369813 52.2321 0.489177C52.3856 0.60854 52.4666 0.792914 52.474 1.04123C52.4804 1.22241 52.4303 1.3812 52.3238 1.51869C52.2161 1.65617 52.0776 1.75741 51.906 1.82455C51.8495 1.83415 51.777 1.84267 51.6886 1.8512C51.6001 1.85972 51.5234 1.86505 51.4594 1.86825L51.177 1.87678L51.128 0.361287ZM52.6499 3.22921C52.6051 3.33365 52.5412 3.4253 52.4581 3.50097C52.376 3.57664 52.2758 3.63845 52.1586 3.68321C52.0413 3.72904 51.9145 3.75355 51.7792 3.75781C51.6204 3.76314 51.5042 3.76314 51.4307 3.75781C51.3561 3.75355 51.2932 3.74396 51.2399 3.73011L51.1877 2.16986L51.6119 2.156C51.7504 2.15174 51.8868 2.15813 52.0168 2.17625C52.1479 2.19437 52.2641 2.23167 52.3653 2.28709C52.4676 2.34144 52.5497 2.41817 52.6105 2.51622C52.6723 2.61534 52.7064 2.73896 52.7106 2.88923C52.716 3.00966 52.6946 3.12263 52.6499 3.22921ZM66.5195 1.88104C66.6026 1.87678 66.6793 1.86612 66.7518 1.8512L66.787 1.69134L65.3845 1.38014L65.3493 1.53787C65.4058 1.5773 65.4697 1.6178 65.5401 1.6583C65.6104 1.6988 65.685 1.73716 65.766 1.77446L65.7372 1.90555L63.6207 3.79298L63.2583 4.17132L63.4118 3.77167L63.9425 1.37588C64.032 1.37588 64.1109 1.37268 64.1823 1.36522C64.2537 1.35776 64.3219 1.34604 64.3869 1.33005L64.4221 1.17019L63.0249 0.860056L62.9897 1.01992C63.0569 1.06574 63.1272 1.10837 63.1997 1.14781C63.2711 1.18724 63.3425 1.22454 63.4118 1.25864L62.6871 4.52941C62.5272 4.51769 62.3663 4.52941 62.2053 4.56139L62.1702 4.72125L63.5663 5.03138L63.6015 4.87152C63.545 4.82782 63.4821 4.78732 63.4118 4.74896C63.3404 4.70952 63.2647 4.67436 63.1837 4.64025L63.2103 4.51876L65.3536 2.61321L65.6893 2.25298L65.5422 2.65583L65.0115 5.0463C64.9273 5.0431 64.8473 5.0463 64.7727 5.05376C64.6981 5.06122 64.6278 5.07294 64.5628 5.08573L64.5276 5.24559L65.9301 5.55679L65.9653 5.39693C65.8491 5.30954 65.7084 5.23174 65.5411 5.1646L66.2669 1.89063C66.3532 1.8885 66.4374 1.8853 66.5195 1.88104ZM49.0999 2.3553C49.0189 2.28602 48.9251 2.2338 48.8217 2.19757C48.7173 2.16133 48.6075 2.14001 48.4935 2.13255L48.4914 2.11017C48.7205 1.98974 48.8825 1.84161 48.9752 1.66256C49.0679 1.48458 49.1042 1.29914 49.0839 1.10837C49.0626 0.913343 49.0061 0.757744 48.9145 0.639447C48.8217 0.522215 48.7098 0.434824 48.5755 0.374076C48.4423 0.314395 48.2974 0.280291 48.1407 0.269633C47.9841 0.260042 47.8306 0.263239 47.6803 0.279225C47.6015 0.287751 47.5173 0.30054 47.4256 0.317592C47.335 0.334644 47.2476 0.35809 47.1624 0.385799C47.0782 0.414575 46.9972 0.446547 46.9194 0.483848C46.8416 0.520083 46.7776 0.564844 46.7265 0.614935C46.7393 0.769467 46.7606 0.924 46.7915 1.08066C46.8213 1.23733 46.8512 1.36415 46.881 1.46327L47.0281 1.44728L47.2498 0.728969C47.2732 0.696997 47.3201 0.66609 47.3904 0.637315C47.4618 0.60854 47.5578 0.588291 47.6803 0.575502C47.9276 0.549924 48.1279 0.595751 48.2814 0.71618C48.4359 0.836609 48.5265 1.01992 48.5532 1.26717C48.5734 1.44728 48.5436 1.60927 48.4658 1.75208C48.388 1.89489 48.2665 2.00573 48.1002 2.0846C48.0405 2.09845 47.967 2.11337 47.8775 2.12829C47.788 2.14321 47.7112 2.15387 47.6483 2.16133L47.4682 2.18051C47.4565 2.28389 47.4693 2.3926 47.5087 2.50663L47.935 2.39792C48.048 2.3862 48.1567 2.38727 48.2633 2.40219C48.3688 2.41817 48.4647 2.45228 48.55 2.50557C48.6352 2.55885 48.7066 2.63345 48.7642 2.72937C48.8217 2.82529 48.859 2.94891 48.875 3.09812C48.8878 3.22175 48.8772 3.33898 48.8441 3.44875C48.81 3.55852 48.7557 3.65657 48.6811 3.74183C48.6065 3.82709 48.5159 3.89849 48.4061 3.95604C48.2963 4.01253 48.1727 4.04876 48.0341 4.06368C47.9851 4.06795 47.934 4.07221 47.8786 4.07434C47.8242 4.07434 47.7709 4.07434 47.7187 4.07434C47.6675 4.07221 47.6206 4.06795 47.578 4.06368C47.5364 4.05942 47.5034 4.05196 47.4789 4.04343L47.1581 3.28143L47.011 3.29741C47.0004 3.37521 46.9908 3.45621 46.9833 3.54253C46.9759 3.62886 46.9695 3.71412 46.9652 3.80044C46.9609 3.88677 46.9599 3.96777 46.9609 4.04557C46.962 4.12336 46.9652 4.19157 46.9716 4.25125C47.1059 4.30134 47.27 4.33758 47.4629 4.35783C47.6569 4.37914 47.8594 4.37808 48.0693 4.3557C48.2601 4.33545 48.4423 4.29282 48.615 4.22674C48.7887 4.16173 48.9368 4.07221 49.0615 3.96031C49.1862 3.8484 49.2811 3.71305 49.345 3.55426C49.41 3.39546 49.4313 3.21535 49.41 3.01179C49.393 2.85833 49.3578 2.72724 49.3024 2.6196C49.2491 2.51196 49.1809 2.4235 49.0999 2.3553ZM68.2257 6.09179L68.1767 6.24846L69.6069 6.69714L69.656 6.54047C69.5601 6.44349 69.4268 6.35397 69.2542 6.27191L70.2581 3.07148C70.3615 3.08426 70.4521 3.09066 70.532 3.08959C70.6109 3.08853 70.6823 3.08426 70.743 3.07574L70.7921 2.91907L70.1014 2.70166C69.9895 2.66649 69.8819 2.63026 69.7775 2.59082C69.673 2.55246 69.5846 2.52155 69.5132 2.49917C69.3298 2.44162 69.1423 2.40539 68.9515 2.39046C68.7607 2.37661 68.5806 2.39153 68.4122 2.43736C68.2439 2.48318 68.0947 2.56312 67.9636 2.67928C67.8325 2.79438 67.7366 2.95105 67.6737 3.14821C67.6268 3.29848 67.6055 3.44022 67.6119 3.57024C67.6183 3.70026 67.6438 3.82069 67.6897 3.9294C67.7334 4.03811 67.7962 4.13722 67.8751 4.22461C67.954 4.31307 68.0403 4.3898 68.1351 4.45481C68.0307 4.53581 67.9273 4.62 67.8229 4.70526C67.7184 4.79159 67.6119 4.87791 67.501 4.96637C67.3902 5.05376 67.2719 5.14328 67.144 5.2328C67.0161 5.32339 66.8765 5.41185 66.723 5.49818L66.4236 5.54613L66.382 5.68148L67.0609 5.8957L67.2868 5.8179C67.4158 5.73584 67.5341 5.64845 67.6417 5.55573C67.7494 5.46301 67.8559 5.36602 67.9593 5.26371C68.0627 5.1614 68.165 5.05802 68.2673 4.95145C68.3696 4.84594 68.4815 4.74043 68.5998 4.63599L69.1455 4.80757L68.7373 6.10778C68.5487 6.07474 68.3792 6.06941 68.2257 6.09179ZM69.0485 4.51023C68.9782 4.49318 68.911 4.47506 68.846 4.45481C68.554 4.36422 68.3611 4.22141 68.2662 4.02745C68.1703 3.83348 68.165 3.60115 68.2503 3.33152C68.343 3.03737 68.4922 2.8498 68.6957 2.76987C68.9004 2.68887 69.1412 2.69314 69.4194 2.78053C69.4695 2.79651 69.527 2.81676 69.5931 2.84127C69.6581 2.86579 69.7071 2.88817 69.7402 2.91055L69.2307 4.53474C69.1796 4.53474 69.1188 4.52622 69.0485 4.51023ZM105.645 55.6777C105.614 55.7512 105.588 55.8301 105.565 55.9153L102.223 55.6319C102.214 55.5551 102.204 55.4773 102.192 55.3963C102.179 55.3153 102.158 55.2365 102.127 55.1576L101.963 55.1437L101.832 56.688L101.996 56.7019C102.032 56.6251 102.067 56.5431 102.098 56.4546C102.13 56.3662 102.157 56.2724 102.176 56.1722L103.422 56.2766C103.417 56.2958 103.41 56.3257 103.403 56.3662C103.395 56.4067 103.389 56.4493 103.383 56.4951C103.376 56.5409 103.372 56.5814 103.369 56.6209C103.364 56.6603 103.362 56.6891 103.361 56.7083C103.344 56.9044 103.353 57.0962 103.384 57.2838C103.416 57.4713 103.476 57.6429 103.565 57.7953C103.654 57.9488 103.773 58.0745 103.924 58.1747C104.074 58.2738 104.261 58.3346 104.482 58.3527C104.715 58.373 104.913 58.3474 105.076 58.2749C105.239 58.2035 105.373 58.1033 105.479 57.9744C105.584 57.8454 105.664 57.6941 105.719 57.5204C105.773 57.3477 105.808 57.1687 105.823 56.9843C105.837 56.8223 105.843 56.6528 105.843 56.4749C105.843 56.2969 105.85 56.1328 105.863 55.9825L105.905 55.4752L105.742 55.4613C105.709 55.5349 105.676 55.6052 105.645 55.6777ZM105.544 56.8447C105.518 57.1527 105.42 57.3871 105.251 57.5491C105.082 57.7101 104.844 57.7783 104.536 57.7516C104.367 57.7378 104.224 57.6983 104.108 57.6365C103.992 57.5736 103.899 57.4948 103.827 57.3999C103.756 57.304 103.707 57.1974 103.681 57.0781C103.655 56.9576 103.648 56.833 103.659 56.7019C103.661 56.6795 103.663 56.6486 103.666 56.6113C103.669 56.574 103.675 56.5356 103.682 56.4972C103.689 56.4578 103.695 56.4205 103.699 56.3853C103.704 56.3502 103.712 56.3235 103.72 56.3043L105.546 56.4589C105.553 56.5122 105.556 56.5676 105.554 56.6241C105.556 56.6805 105.551 56.7541 105.544 56.8447ZM101.879 58.2355L101.717 58.2099L101.521 59.4504L101.684 59.476C101.776 59.3225 101.847 59.1701 101.893 59.0167L102.857 59.5442L102.648 60.8721L101.565 61.0895C101.562 61.0128 101.556 60.9329 101.546 60.8519C101.537 60.7698 101.523 60.6888 101.505 60.61L101.343 60.5844L101.116 62.0263L101.278 62.0519C101.325 61.9954 101.364 61.9315 101.394 61.8622C101.424 61.7919 101.452 61.7205 101.479 61.6491L105.383 60.8156L105.408 60.6536L101.949 58.6596C101.941 58.52 101.917 58.3793 101.879 58.2355ZM103.131 59.7009L104.236 60.3137L104.706 60.53L104.704 60.5407L104.207 60.5705L102.954 60.8231L103.131 59.7009ZM105.837 50.869C105.805 50.9436 105.777 51.0204 105.751 51.0992C105.725 51.1781 105.704 51.2548 105.688 51.3305L102.334 51.2762C102.32 51.1739 102.303 51.0854 102.282 51.0097C102.26 50.9341 102.235 50.868 102.205 50.8104L102.042 50.8083L102.018 52.2385L102.182 52.2407C102.244 52.1064 102.292 51.9657 102.325 51.8197L105.69 51.874L105.662 53.5931L102.297 53.5387C102.262 53.3373 102.219 53.1956 102.168 53.1114L102.003 53.1092L101.981 54.5395L102.145 54.5416C102.22 54.3849 102.267 54.2304 102.288 54.0812L105.642 54.1345C105.656 54.2144 105.673 54.2943 105.692 54.3732C105.711 54.4521 105.739 54.5288 105.775 54.6002L105.939 54.6024L106 50.8701H105.837V50.869ZM1.6732 46.3546L4.99406 46.8213C5.00152 46.9823 5.02497 47.1421 5.06333 47.2999L5.22639 47.3222L5.42569 45.9048L5.26263 45.8824C5.18803 45.9826 5.12302 46.1158 5.06973 46.2842L3.4903 46.0615L3.52866 45.7865C3.86437 45.6245 4.19582 45.4551 4.52513 45.2782C4.85445 45.1023 5.16351 44.9222 5.45233 44.7378L5.61326 44.5662L5.71237 43.866L5.57276 43.8469L5.40118 44.0962C5.23279 44.2103 5.05587 44.3254 4.86937 44.4415C4.68393 44.5588 4.49956 44.6707 4.31944 44.7804C4.13827 44.8902 3.96242 44.9947 3.7919 45.0948C3.62138 45.195 3.46792 45.2824 3.3315 45.3581L2.00039 44.0227C1.99506 43.9534 1.98653 43.881 1.97374 43.8074C1.96095 43.7339 1.9439 43.6572 1.92045 43.5783L1.7574 43.5559L1.58261 44.7932L1.74567 44.8156C1.78404 44.7602 1.81921 44.7005 1.85012 44.6366C1.88209 44.5726 1.91193 44.5044 1.94177 44.4319L3.26756 45.6863L3.29953 46.0338L1.7478 45.8163C1.74034 45.7354 1.72969 45.6576 1.71583 45.584C1.70198 45.5094 1.68492 45.4401 1.66787 45.3773L1.50481 45.3549L1.30552 46.7723L1.46858 46.7947C1.55917 46.6668 1.62631 46.5197 1.6732 46.3546ZM104.572 63.5418C104.529 63.6132 104.492 63.6836 104.46 63.7528L101.201 62.9631C101.22 62.8043 101.212 62.6434 101.179 62.4803L101.019 62.442L100.891 62.9695C100.855 63.1198 100.811 63.2743 100.761 63.4331C100.711 63.5919 100.671 63.7347 100.639 63.8637C100.596 64.047 100.572 64.2335 100.571 64.4232C100.57 64.6129 100.598 64.7898 100.655 64.9529C100.712 65.1159 100.802 65.2587 100.924 65.3824C101.045 65.5049 101.205 65.5902 101.402 65.6381C101.556 65.6754 101.695 65.6808 101.817 65.6552C101.939 65.6285 102.049 65.5816 102.144 65.5166C102.24 65.4506 102.323 65.3685 102.394 65.2715C102.463 65.1735 102.52 65.0722 102.565 64.9667L102.587 64.972C102.586 65.1042 102.607 65.2225 102.647 65.3291C102.688 65.4356 102.741 65.5294 102.809 65.6104C102.877 65.6914 102.955 65.7575 103.043 65.8097C103.131 65.863 103.223 65.9003 103.318 65.9238C103.508 65.9696 103.672 65.9685 103.81 65.9205C103.948 65.8726 104.065 65.7948 104.161 65.6882C104.256 65.5816 104.334 65.4548 104.395 65.3088C104.456 65.1617 104.504 65.0157 104.539 64.8697C104.564 64.7674 104.585 64.6747 104.601 64.5937C104.617 64.5127 104.631 64.436 104.644 64.3656C104.658 64.2953 104.67 64.2271 104.683 64.1621C104.694 64.0971 104.708 64.0299 104.725 63.9596L104.867 63.3777L104.707 63.3393C104.659 63.4022 104.615 63.4704 104.572 63.5418ZM102.503 64.2388C102.47 64.3742 102.428 64.502 102.374 64.6235C102.322 64.744 102.255 64.8473 102.175 64.9305C102.095 65.0136 101.999 65.0722 101.888 65.1053C101.778 65.1383 101.649 65.1372 101.503 65.1021C101.385 65.0733 101.282 65.0232 101.192 64.9518C101.103 64.8793 101.033 64.7941 100.981 64.6939C100.929 64.5948 100.898 64.4818 100.885 64.356C100.874 64.2313 100.883 64.1024 100.915 63.9713C100.953 63.8178 100.984 63.7059 101.008 63.6356C101.034 63.5653 101.058 63.5066 101.086 63.4587L102.602 63.8264L102.503 64.2388ZM104.33 64.4552C104.314 64.5361 104.292 64.6342 104.265 64.7482C104.206 64.9902 104.1 65.1681 103.943 65.2843C103.786 65.3994 103.588 65.4282 103.346 65.3696C103.17 65.3269 103.031 65.2353 102.926 65.0957C102.822 64.9561 102.761 64.7951 102.744 64.6118C102.749 64.5553 102.761 64.4829 102.776 64.3955C102.792 64.3081 102.807 64.2324 102.822 64.1717L102.889 63.8967L104.362 64.2537C104.357 64.306 104.346 64.3731 104.33 64.4552ZM102.177 71.4944C102.124 71.5583 102.076 71.6223 102.033 71.6852L98.9394 70.3913C98.9799 70.2166 98.998 70.0556 98.9938 69.9107L98.8424 69.8478L97.766 72.4205C97.9163 72.4919 98.0687 72.5527 98.2222 72.6049C98.3756 72.6571 98.5302 72.7008 98.6868 72.7381L98.7423 72.6081L98.2232 72.0901L98.7252 70.8901L100.181 71.4997L99.8251 72.3491L99.3433 72.3875L99.289 72.5175C99.6386 72.6891 99.9892 72.8351 100.343 72.9587L100.397 72.8287L100.097 72.4632L100.453 71.6138L101.835 72.1925L101.36 73.3296L100.696 73.304L100.639 73.4394C100.775 73.5172 100.911 73.5886 101.047 73.6568C101.185 73.725 101.322 73.7889 101.46 73.8508L102.495 71.3782L102.344 71.3143C102.286 71.3708 102.232 71.4315 102.177 71.4944ZM103.25 68.1522C102.818 68.0094 102.446 67.8719 102.136 67.7408C101.825 67.6087 101.564 67.484 101.35 67.3689C101.136 67.2527 100.964 67.1451 100.834 67.0449C100.705 66.9447 100.604 66.8531 100.532 66.77L100.848 66.1891L100.741 66.0644C100.694 66.0527 100.637 66.0442 100.573 66.0389C100.51 66.0346 100.444 66.0335 100.377 66.0378C100.311 66.041 100.247 66.0484 100.186 66.057C100.126 66.0676 100.077 66.0794 100.039 66.0953C100.007 66.1913 99.9956 66.2989 100.004 66.4172C100.013 66.5344 100.052 66.6453 100.121 66.7476C100.204 66.8701 100.306 66.9916 100.424 67.1121C100.542 67.2325 100.714 67.3614 100.937 67.4979C101.159 67.6353 101.449 67.7835 101.807 67.9433C102.165 68.1032 102.624 68.2822 103.181 68.4826L102.851 69.4865L99.6545 68.4336C99.6599 68.3558 99.6652 68.2801 99.6673 68.2055C99.6705 68.1309 99.6684 68.0563 99.6599 67.9828L99.5043 67.9316L99.0545 69.2958L99.2112 69.3469C99.3103 69.2403 99.4009 69.1082 99.4851 68.9494L102.671 69.9981C102.641 70.175 102.636 70.337 102.66 70.483L102.816 70.5342L103.746 67.7089L103.59 67.6577C103.473 67.776 103.36 67.9412 103.25 68.1522ZM100.488 75.2277L97.5113 73.6824C97.5572 73.5278 97.5891 73.3701 97.604 73.2081L97.458 73.1335L96.7994 74.4028L96.9444 74.4785C97.0008 74.4348 97.0552 74.3868 97.1085 74.3346C97.1618 74.2813 97.2129 74.2248 97.2609 74.1652L98.6666 74.8941L97.8492 76.4704L96.4435 75.7414C96.485 75.5975 96.5095 75.4504 96.5181 75.3023L96.3731 75.2277L95.7134 76.497L95.8594 76.5727C95.9159 76.529 95.9724 76.4778 96.0278 76.4192C96.0843 76.3595 96.1397 76.2934 96.193 76.2242L99.1696 77.7684C99.1473 77.8462 99.1259 77.9251 99.1068 78.0072C99.0876 78.0882 99.0801 78.1681 99.0812 78.2459L99.2272 78.3205L99.8858 77.0512L99.7409 76.9755C99.6844 77.0182 99.63 77.065 99.5778 77.1173C99.5256 77.1684 99.4734 77.2249 99.4201 77.2867L98.1092 76.6068L98.9277 75.0305L100.239 75.7105C100.217 75.784 100.2 75.8576 100.187 75.9322C100.174 76.0068 100.168 76.0792 100.168 76.1528L100.314 76.2274L100.973 74.9581L100.827 74.8824C100.706 74.9677 100.593 75.0828 100.488 75.2277ZM5.42249 68.067C5.76246 67.9678 6.04382 67.8378 6.26549 67.6769C6.48823 67.517 6.65556 67.3305 6.76639 67.1195C6.87723 66.9085 6.93798 66.6719 6.94651 66.4097C6.95503 66.1486 6.91453 65.8651 6.82608 65.5614C6.8037 65.4815 6.77492 65.3983 6.74295 65.311C6.70991 65.2246 6.67154 65.1415 6.62891 65.0616C6.58628 64.9816 6.54046 64.9081 6.49037 64.8399C6.44134 64.7717 6.38699 64.7173 6.32731 64.6747C6.18023 64.7099 6.0321 64.7568 5.88183 64.8154C5.73262 64.8751 5.61006 64.9283 5.51308 64.9752L5.55464 65.117L6.30279 65.1767C6.33903 65.1937 6.3774 65.2385 6.41896 65.3131C6.46053 65.3877 6.49783 65.4847 6.533 65.603C6.59801 65.8268 6.61719 66.0389 6.59055 66.2371C6.5639 66.4364 6.49463 66.6197 6.38486 66.7849C6.27402 66.9501 6.12375 67.0961 5.93405 67.2208C5.74435 67.3465 5.5216 67.4467 5.26369 67.5202C4.97701 67.6034 4.71803 67.6396 4.4857 67.6289C4.25337 67.6183 4.04875 67.5725 3.87396 67.4925C3.69918 67.4115 3.55637 67.3007 3.44127 67.16C3.32724 67.0183 3.24517 66.8573 3.19295 66.6772C3.16738 66.5877 3.14393 66.495 3.12475 66.4012C3.10556 66.3074 3.10023 66.2371 3.11089 66.1902L3.81108 65.6808L3.77165 65.5433C3.70025 65.5518 3.62032 65.5625 3.53399 65.5763C3.44767 65.5902 3.35921 65.6051 3.27075 65.6232C3.18123 65.6413 3.0981 65.6595 3.01924 65.6786C2.94037 65.6978 2.87216 65.7159 2.81461 65.7319C2.78904 65.8737 2.78371 66.0293 2.80076 66.2019C2.81781 66.3735 2.86044 66.5792 2.92971 66.8179C3.00112 67.0598 3.1045 67.2815 3.24091 67.4819C3.37733 67.6812 3.54891 67.8421 3.7546 67.9636C3.96029 68.084 4.20115 68.1575 4.47824 68.1831C4.75214 68.2087 5.0676 68.1703 5.42249 68.067ZM4.32797 64.1493C4.6754 64.0779 4.96635 63.9713 5.20082 63.8296C5.43528 63.6867 5.61646 63.5152 5.74541 63.3148C5.8733 63.1134 5.95217 62.8821 5.98201 62.6231C6.01078 62.3631 5.9948 62.0775 5.93192 61.7673C5.91486 61.6864 5.89355 61.6022 5.86797 61.5126C5.84239 61.4231 5.81149 61.3379 5.77525 61.2547C5.73902 61.1716 5.69852 61.0938 5.65482 61.0224C5.61113 60.951 5.5621 60.8913 5.50668 60.8444C5.35748 60.8668 5.20508 60.902 5.05161 60.9489C4.89814 60.9958 4.77026 61.0384 4.67114 61.0778L4.69992 61.2217L5.43954 61.3421C5.47471 61.3613 5.50988 61.4103 5.54399 61.4871C5.57915 61.5649 5.609 61.664 5.63351 61.7855C5.6804 62.0146 5.68253 62.2267 5.6399 62.4228C5.59727 62.6199 5.51414 62.7958 5.38945 62.9514C5.26583 63.1081 5.10383 63.2402 4.90454 63.35C4.70524 63.4597 4.47504 63.5418 4.21287 63.5951C3.92192 63.6548 3.65975 63.6697 3.42848 63.6399C3.19722 63.61 2.99899 63.5482 2.8306 63.4534C2.66328 63.3596 2.52899 63.237 2.42775 63.0867C2.32544 62.9365 2.25616 62.7691 2.21886 62.5858C2.19968 62.4931 2.18369 62.3993 2.17197 62.3045C2.16131 62.2086 2.16131 62.1393 2.17517 62.0935L2.91479 61.6427L2.88602 61.4988C2.81355 61.502 2.73362 61.5062 2.64623 61.5126C2.5599 61.519 2.47038 61.5276 2.38086 61.5382C2.29133 61.5489 2.20607 61.5606 2.12508 61.5734C2.04515 61.5862 1.97481 61.599 1.91619 61.6107C1.87889 61.7492 1.86184 61.9048 1.86504 62.0775C1.86717 62.2491 1.89381 62.458 1.94284 62.702C1.99293 62.9493 2.07818 63.1784 2.19861 63.3894C2.31904 63.5994 2.47677 63.7731 2.6718 63.9106C2.86684 64.048 3.1013 64.1397 3.3752 64.1887C3.64696 64.2356 3.96562 64.2228 4.32797 64.1493ZM7.03923 72.4013C7.31419 72.2948 7.55291 72.1594 7.75754 71.9932C7.96216 71.8269 8.12202 71.6393 8.23712 71.4315C8.35222 71.2237 8.41723 70.9967 8.43215 70.7526C8.44601 70.5086 8.40338 70.2549 8.30107 69.9917C8.19876 69.7285 8.05914 69.51 7.88436 69.3395C7.70958 69.1689 7.50922 69.0453 7.28328 68.9686C7.05734 68.8918 6.81329 68.862 6.55005 68.8759C6.28681 68.8908 6.01824 68.9515 5.74328 69.0581C5.46938 69.1636 5.22959 69.3 5.02497 69.4663C4.82034 69.6315 4.66048 69.819 4.54538 70.0279C4.43028 70.2357 4.36421 70.4628 4.35035 70.7068C4.33543 70.9519 4.37913 71.2045 4.48144 71.4688C4.58268 71.7321 4.7223 71.9495 4.89708 72.121C5.07293 72.2916 5.27329 72.4141 5.49922 72.4909C5.72516 72.5676 5.96922 72.5985 6.23246 72.5836C6.49676 72.5676 6.76533 72.5069 7.03923 72.4013ZM5.57169 72.0422C5.39158 72.0145 5.23279 71.9495 5.09318 71.8482C4.95463 71.7459 4.84805 71.5988 4.77239 71.4059C4.69672 71.2088 4.67327 71.0212 4.70418 70.8443C4.73509 70.6663 4.80542 70.5022 4.91626 70.3498C5.0271 70.1974 5.17311 70.0599 5.35322 69.9384C5.53439 69.8148 5.73795 69.7103 5.96282 69.624C6.1877 69.5377 6.4083 69.4769 6.62358 69.4439C6.83886 69.4109 7.03816 69.4087 7.21827 69.4375C7.39945 69.4663 7.55931 69.5313 7.69679 69.6315C7.83427 69.7317 7.93871 69.8713 8.00799 70.0503C8.08365 70.2475 8.1071 70.4351 8.07619 70.612C8.04635 70.7899 7.97495 70.9541 7.86411 71.1065C7.75327 71.2578 7.60727 71.3963 7.42822 71.521C7.24704 71.6457 7.04562 71.7512 6.81968 71.8386C6.59481 71.926 6.37527 71.9889 6.16212 72.0273C5.95003 72.0635 5.75287 72.0688 5.57169 72.0422ZM7.02111 76.2497L10.0372 74.7822C10.0841 74.843 10.1331 74.9058 10.1842 74.9687C10.2354 75.0316 10.2951 75.0891 10.3622 75.1403L10.5093 75.0689L9.83148 73.676L9.6844 73.7474C9.69186 73.8316 9.70465 73.92 9.7217 74.0117C9.73982 74.1044 9.7654 74.1982 9.7995 74.2952L8.67621 74.8419C8.67195 74.8238 8.66129 74.795 8.64637 74.7556C8.63251 74.7161 8.61546 74.6756 8.59734 74.6351C8.57923 74.5936 8.56217 74.5541 8.54406 74.519C8.527 74.4838 8.51421 74.4572 8.50569 74.4401C8.41936 74.2643 8.31599 74.1033 8.19236 73.9573C8.0698 73.8124 7.92912 73.6962 7.77459 73.6099C7.61899 73.5236 7.45167 73.4767 7.27156 73.4682C7.09145 73.4596 6.90174 73.5033 6.70138 73.6014C6.49143 73.7037 6.33477 73.8273 6.23032 73.9712C6.12695 74.1161 6.063 74.2707 6.03849 74.4359C6.01398 74.601 6.0225 74.7716 6.06407 74.9485C6.10563 75.1254 6.16745 75.2959 6.24844 75.4632C6.31985 75.6082 6.40084 75.7574 6.49143 75.9108C6.58309 76.0643 6.66088 76.2071 6.72696 76.3435L6.9497 76.8007L7.09677 76.7293C7.09251 76.6515 7.08505 76.5737 7.07439 76.4959C7.06267 76.4149 7.04562 76.3339 7.02111 76.2497ZM6.75893 75.7734C6.7259 75.7318 6.69499 75.6849 6.66621 75.6359C6.63744 75.5869 6.6044 75.5218 6.5639 75.4398C6.42855 75.1616 6.39232 74.9101 6.4552 74.6842C6.51701 74.4582 6.68753 74.2781 6.96569 74.1438C7.11809 74.0692 7.25983 74.0298 7.39199 74.0234C7.52414 74.0191 7.64457 74.0383 7.75434 74.0831C7.86411 74.1279 7.96109 74.195 8.04422 74.2845C8.12735 74.374 8.19875 74.4785 8.2563 74.5968C8.2659 74.617 8.27869 74.6437 8.29574 74.6778C8.31279 74.7119 8.32771 74.7471 8.34156 74.7844C8.35542 74.8227 8.36927 74.8568 8.38313 74.8899C8.39698 74.9229 8.40444 74.9495 8.40551 74.9698L6.75893 75.7734ZM5.36601 60.0835L5.52906 60.0653L5.36387 58.6437L5.20082 58.6628C5.17843 58.73 5.15925 58.8035 5.14646 58.8834C5.13261 58.9623 5.12408 59.0465 5.11875 59.1339L4.99513 59.1477L2.49276 57.7463L2.04302 57.5481L2.47038 57.5555L4.90241 57.2742C4.92799 57.3552 4.95569 57.4287 4.98873 57.498C5.0207 57.5662 5.05374 57.6291 5.08785 57.6855L5.25091 57.6664L5.08572 56.2393L4.92266 56.2585C4.87896 56.3971 4.85125 56.5548 4.84166 56.7338L1.51014 57.1207C1.48137 57.0397 1.45153 56.9619 1.42062 56.8862C1.38865 56.8095 1.35454 56.7402 1.31618 56.6763L1.15312 56.6944L1.31831 58.1214L1.47924 58.1023C1.49842 58.0362 1.51441 57.9626 1.52933 57.8827C1.54425 57.8038 1.55597 57.7197 1.5645 57.6312L1.69771 57.6163L4.17344 58.9975L4.64983 59.216L4.2214 59.2021L1.78297 59.4845C1.7542 59.4014 1.72542 59.3268 1.69452 59.2618C1.66468 59.1968 1.63057 59.136 1.59327 59.0795L1.43021 59.0987L1.5954 60.5194L1.75846 60.5002C1.77978 60.4224 1.79683 60.3424 1.81068 60.2615C1.82454 60.1805 1.83626 60.1016 1.84585 60.0238L5.17737 59.6369C5.21787 59.7936 5.28075 59.9428 5.36601 60.0835ZM13.4667 81.7874C13.6266 81.5646 13.7268 81.3355 13.7662 81.0999C13.8046 80.8644 13.7865 80.6214 13.7129 80.3699C13.6383 80.1195 13.5104 79.8637 13.3303 79.6026C13.2834 79.5344 13.2301 79.464 13.1715 79.3926C13.1118 79.3212 13.05 79.2541 12.985 79.1923C12.92 79.1305 12.8518 79.074 12.7836 79.0249C12.7154 78.9759 12.6461 78.9418 12.5768 78.9205C12.4489 79.0004 12.3232 79.0921 12.1996 79.1955C12.077 79.2988 11.9758 79.3884 11.9001 79.464L11.9832 79.5845L12.7111 79.4044C12.7516 79.4086 12.8028 79.4395 12.8646 79.4971C12.9264 79.5546 12.9935 79.6346 13.0639 79.7358C13.196 79.9287 13.2813 80.1227 13.3197 80.3209C13.358 80.5181 13.3506 80.7131 13.2973 80.9049C13.244 81.0978 13.1481 81.2833 13.0074 81.4623C12.8678 81.6403 12.6877 81.8065 12.4681 81.9589C12.223 82.1284 11.9885 82.2446 11.7637 82.3085C11.5399 82.3714 11.332 82.3927 11.1413 82.3724C10.9505 82.3511 10.7779 82.2915 10.6265 82.1934C10.4741 82.0954 10.3452 81.9696 10.2375 81.8151C10.1842 81.7373 10.1331 81.6573 10.0851 81.5742C10.0372 81.4911 10.0105 81.4261 10.0052 81.3792L10.5082 80.6737L10.4251 80.5532C10.3601 80.5852 10.2876 80.6204 10.2109 80.6609C10.1331 80.7003 10.0542 80.7429 9.97535 80.7887C9.89649 80.8335 9.82295 80.8783 9.75474 80.9209C9.68653 80.9646 9.62579 81.003 9.57676 81.0371C9.59701 81.1788 9.64177 81.3291 9.71211 81.4868C9.78245 81.6445 9.88796 81.8257 10.0297 82.0303C10.1736 82.2382 10.342 82.4151 10.5349 82.5621C10.7278 82.7082 10.9409 82.8062 11.1743 82.8552C11.4077 82.9053 11.6603 82.8979 11.9299 82.835C12.2006 82.7721 12.4873 82.6357 12.791 82.4257C13.082 82.2222 13.3079 82.009 13.4667 81.7874ZM1.46218 50.3223C1.61565 50.5056 1.81814 50.6548 2.06966 50.7721C2.32117 50.8893 2.63237 50.9586 3.00112 50.9799C3.35495 51.0012 3.66401 50.9724 3.92619 50.8968C4.18942 50.819 4.40897 50.7007 4.58482 50.5397C4.76066 50.3777 4.89601 50.1752 4.99193 49.9323C5.08785 49.6882 5.1454 49.4079 5.16351 49.0924C5.16778 49.0093 5.16991 48.9209 5.16778 48.8292C5.16778 48.7365 5.15819 48.6448 5.1454 48.5564C5.13154 48.4669 5.11342 48.3816 5.08891 48.3006C5.06547 48.2196 5.03243 48.1503 4.99086 48.0906C4.84059 48.0736 4.685 48.0683 4.52407 48.0736C4.36314 48.0789 4.22886 48.0885 4.12228 48.1013L4.11376 48.2484L4.79903 48.5553C4.82781 48.583 4.84912 48.6384 4.86191 48.7226C4.87576 48.8058 4.87896 48.9102 4.87257 49.0338C4.85871 49.2662 4.80542 49.4729 4.71377 49.6509C4.62105 49.8299 4.49636 49.9791 4.33543 50.0974C4.17557 50.2168 3.9848 50.3021 3.76526 50.3575C3.54465 50.4118 3.30059 50.4321 3.03416 50.415C2.73681 50.398 2.47997 50.3447 2.26362 50.2562C2.04834 50.1688 1.87143 50.0569 1.73395 49.9237C1.59647 49.7884 1.49842 49.637 1.43767 49.4655C1.37799 49.2939 1.35454 49.1148 1.3652 48.9273C1.37053 48.8335 1.38012 48.7386 1.39291 48.6427C1.40677 48.5479 1.42488 48.4796 1.45046 48.4402L2.28174 48.1951L2.29027 48.048C2.21886 48.0331 2.14106 48.016 2.05474 48.0011C1.96841 47.9841 1.87996 47.9692 1.7915 47.9574C1.70198 47.9446 1.61672 47.934 1.53465 47.9255C1.45366 47.9169 1.38438 47.9116 1.32364 47.9073C1.25223 48.031 1.19575 48.177 1.15312 48.3443C1.11155 48.5127 1.08278 48.7194 1.06786 48.9688C1.05294 49.2214 1.07639 49.4644 1.1382 49.6978C1.20108 49.9312 1.30872 50.139 1.46218 50.3223ZM0.629838 53.0762C0.563762 52.9984 0.487028 52.9419 0.399637 52.9067C0.312246 52.8716 0.217395 52.8556 0.115084 52.8577C0.0788482 52.9078 0.0490073 52.9739 0.0266267 53.0549C0.00424608 53.1369 -0.00427987 53.2052 0.00104885 53.2627L0.0788482 53.4013L0.575485 53.3885C0.595734 53.4418 0.612786 53.511 0.625575 53.5995C0.63943 53.6879 0.64689 53.7636 0.647956 53.8276C0.650087 53.9139 0.645824 53.9959 0.634101 54.0748C0.623444 54.1526 0.605326 54.2176 0.579748 54.2709L0.0990973 54.2826L0.0287582 54.4265C0.0351527 54.5054 0.0479416 54.5853 0.0692565 54.6652C0.0905714 54.7462 0.122544 54.807 0.165173 54.8464C0.368731 54.8421 0.537118 54.7569 0.670336 54.5928C0.80462 54.4297 0.866433 54.1739 0.857907 53.8276C0.853644 53.6496 0.830198 53.5004 0.7897 53.3767C0.750267 53.2552 0.695914 53.1551 0.629838 53.0762ZM1.32577 55.5434C1.34708 55.4635 1.3652 55.3857 1.38225 55.31L4.73509 55.2247C4.76173 55.3825 4.81075 55.5359 4.88216 55.6851L5.04628 55.6809L5.01005 54.2507L4.84592 54.2549C4.81715 54.3199 4.79264 54.3903 4.77132 54.4691C4.75107 54.5469 4.73402 54.629 4.72123 54.7164L4.59654 54.7196L2.23059 53.0996L1.80109 52.8609L2.22632 52.9067L4.67434 52.8449C4.69139 52.9281 4.7127 53.0048 4.73935 53.0751C4.76599 53.1465 4.79264 53.2116 4.82034 53.2712L4.98447 53.267L4.94823 51.8314L4.78411 51.8357C4.72763 51.9689 4.68606 52.1245 4.66048 52.3025L1.30765 52.3867C1.28634 52.3046 1.26396 52.2236 1.23944 52.1447C1.21493 52.0659 1.18616 51.9934 1.15525 51.9263L0.991125 51.9305L1.02736 53.3671L1.18935 53.3629C1.21387 53.2979 1.23731 53.2275 1.25969 53.1487C1.28207 53.0709 1.30126 52.9888 1.31831 52.9014L1.45153 52.8982L3.79403 54.4968L4.24804 54.7569L3.82174 54.7057L1.36733 54.7675C1.34708 54.6812 1.32364 54.6045 1.29913 54.5373C1.27461 54.4702 1.2469 54.4073 1.216 54.3476L1.05187 54.3519L1.08811 55.7821L1.25223 55.7779C1.28101 55.7011 1.30552 55.6223 1.32577 55.5434ZM41.1196 5.41078C41.0354 5.40226 40.9459 5.39693 40.8521 5.39693C40.7594 5.39693 40.6613 5.40332 40.5601 5.41824L40.2425 4.20862C40.2617 4.20862 40.2926 4.20436 40.3331 4.1969C40.3746 4.18944 40.4162 4.18198 40.461 4.17239C40.5047 4.16173 40.5462 4.15214 40.5846 4.14255C40.623 4.13189 40.6507 4.1255 40.6688 4.12017C40.8585 4.07008 41.0365 3.99974 41.2038 3.90595C41.37 3.81323 41.5107 3.70026 41.6248 3.56385C41.7388 3.4285 41.8187 3.27397 41.8624 3.09812C41.9061 2.92334 41.8997 2.72724 41.8432 2.51303C41.7836 2.28709 41.693 2.10911 41.5715 1.97909C41.45 1.85013 41.3104 1.75635 41.1537 1.70093C40.997 1.64444 40.8265 1.61993 40.6453 1.62633C40.4642 1.63379 40.2841 1.66043 40.1061 1.70732C39.9494 1.74782 39.7864 1.79898 39.619 1.85759C39.4517 1.91727 39.295 1.9663 39.149 2.00467L38.6567 2.13362L38.6982 2.29242C38.776 2.30307 38.8528 2.3116 38.9327 2.31586C39.0116 2.32013 39.0958 2.31906 39.1831 2.3116L40.0357 5.55573C39.9665 5.58983 39.8961 5.62606 39.8247 5.66337C39.7533 5.70173 39.6862 5.74969 39.6222 5.80511L39.6638 5.96391L41.1633 5.57065L41.1196 5.41078ZM39.7011 2.14641C39.7491 2.1219 39.8002 2.10058 39.8535 2.08246C39.9068 2.06435 39.9782 2.0441 40.0656 2.02065C40.3651 1.94285 40.6187 1.95564 40.8265 2.06115C41.0354 2.16559 41.1793 2.36808 41.2581 2.66756C41.3008 2.83168 41.3125 2.97876 41.2923 3.10878C41.272 3.2388 41.2294 3.3539 41.1633 3.45301C41.0983 3.55213 41.013 3.63419 40.9096 3.69813C40.8052 3.76314 40.6901 3.81217 40.5622 3.84521C40.5398 3.8516 40.5111 3.85906 40.4748 3.86865C40.4386 3.87824 40.4002 3.8857 40.3608 3.8921C40.3214 3.89849 40.2841 3.90595 40.25 3.91235C40.2148 3.91981 40.1871 3.92194 40.1668 3.91981L39.7011 2.14641ZM26.2066 12.142C26.132 12.1495 26.0606 12.1676 25.9903 12.1953C25.92 12.2241 25.8496 12.255 25.7803 12.287L22.4179 10.1352L22.2858 10.2322L23.3451 14.0817C23.2535 14.1861 23.1714 14.3034 23.0979 14.4323L23.1948 14.5645L24.2052 13.8195L24.1082 13.6874C23.9334 13.731 23.7767 13.7907 23.6361 13.8664L23.3217 12.8134L24.4045 12.0152L25.3263 12.6216C25.2752 12.6792 25.224 12.7399 25.1729 12.8049C25.1228 12.8699 25.0769 12.9371 25.0333 13.0063L25.1313 13.1385L26.3058 12.2731L26.2066 12.142ZM23.2364 12.5097L22.8804 11.2969L22.6982 10.812L22.7078 10.8056L23.0829 11.1338L24.1508 11.8351L23.2364 12.5097ZM13.7193 86.2752L16.3197 84.1586C16.4338 84.2695 16.567 84.3611 16.7183 84.4325L16.8451 84.3292L16.502 83.9082C16.405 83.7878 16.308 83.6609 16.2121 83.5245C16.1162 83.3892 16.0266 83.2698 15.9435 83.1675C15.8242 83.0215 15.6899 82.8904 15.5396 82.7742C15.3893 82.6581 15.2316 82.5739 15.0675 82.5206C14.9023 82.4673 14.735 82.4524 14.5634 82.4748C14.3918 82.4971 14.2277 82.5728 14.0699 82.7007C13.9474 82.8009 13.8589 82.9085 13.8056 83.0215C13.7523 83.1355 13.7236 83.2506 13.7182 83.3668C13.7129 83.483 13.7278 83.5981 13.763 83.7132C13.7982 83.8272 13.844 83.9348 13.9016 84.0339L13.8834 84.0478C13.779 83.9679 13.6724 83.9114 13.5626 83.8794C13.4539 83.8464 13.3463 83.8325 13.2419 83.8389C13.1374 83.8432 13.0372 83.8656 12.9424 83.9039C12.8465 83.9423 12.7612 83.9924 12.6855 84.0542C12.5342 84.1778 12.4351 84.3089 12.3903 84.4475C12.3456 84.586 12.336 84.7256 12.3626 84.8663C12.3903 85.008 12.4436 85.1466 12.5235 85.283C12.6035 85.4205 12.6909 85.5462 12.7857 85.6645C12.8529 85.7455 12.9136 85.818 12.969 85.8798C13.0244 85.9416 13.0767 86.0002 13.1246 86.0525C13.1726 86.1058 13.2195 86.1569 13.2632 86.2059C13.3079 86.255 13.3527 86.3072 13.3985 86.3626L13.7769 86.8273L13.9048 86.7239C13.8802 86.6461 13.8525 86.5694 13.8216 86.4926C13.7886 86.4159 13.7545 86.3423 13.7193 86.2752ZM14.1978 83.4094C14.2394 83.3018 14.3183 83.1995 14.4344 83.1036C14.5271 83.0279 14.6305 82.9757 14.7414 82.948C14.8533 82.9213 14.9641 82.916 15.0739 82.9362C15.1847 82.9565 15.2934 82.998 15.4011 83.0641C15.5087 83.1302 15.6046 83.2155 15.6909 83.321C15.7911 83.4435 15.8615 83.5352 15.902 83.5981C15.9425 83.6599 15.9734 83.7153 15.9947 83.7664L14.784 84.7523L14.5165 84.4229C14.428 84.3153 14.3513 84.2023 14.2874 84.0872C14.2234 83.9721 14.1818 83.8581 14.1648 83.743C14.1456 83.629 14.1573 83.5181 14.1978 83.4094ZM13.3804 85.8947C13.341 85.8585 13.2941 85.8095 13.2387 85.7477C13.1843 85.6859 13.1193 85.6091 13.0458 85.5185C12.8891 85.3256 12.8113 85.1327 12.8134 84.9388C12.8156 84.7448 12.9136 84.5689 13.1065 84.4112C13.2472 84.2972 13.4039 84.2407 13.5776 84.2428C13.7523 84.2439 13.9165 84.294 14.0731 84.3899C14.1147 84.4283 14.1659 84.4805 14.2266 84.5466C14.2863 84.6116 14.3374 84.6691 14.3779 84.7181L14.5559 84.9377L13.3804 85.8947ZM63.6707 94.2289C63.5972 94.2342 63.5322 94.2491 63.4725 94.2715C63.4128 94.2939 63.3585 94.3312 63.3073 94.3813C63.2562 94.4313 63.2082 94.4996 63.1635 94.5837L59.5559 101.352C59.46 101.533 59.3694 101.72 59.2852 101.914C59.201 102.109 59.12 102.31 59.0401 102.518C58.9612 102.321 58.8802 102.125 58.7982 101.931C58.7172 101.736 58.6276 101.549 58.5317 101.368L54.8752 94.5848C54.8304 94.5006 54.7835 94.4324 54.7355 94.3823C54.6887 94.3322 54.6343 94.2949 54.5757 94.2726C54.516 94.2502 54.4499 94.2352 54.3764 94.2299C54.3029 94.2246 54.2165 94.2214 54.1142 94.2214H52.3984V106.44H54.4009V98.5483C54.4009 98.3959 54.3956 98.2307 54.3839 98.0538C54.3721 97.8758 54.3583 97.6947 54.3412 97.5081L58.0767 104.463C58.2514 104.796 58.5189 104.962 58.8792 104.962H59.1999C59.5602 104.962 59.8277 104.796 60.0035 104.463L63.6953 97.5337C63.6782 97.7149 63.6665 97.8918 63.6569 98.0666C63.6494 98.2414 63.6441 98.4023 63.6441 98.5483V106.44H65.6466V94.2203H63.9308C63.8317 94.2203 63.7443 94.2235 63.6707 94.2289ZM48.242 95.3106C47.853 94.9674 47.3606 94.6989 46.7638 94.5081C46.167 94.3163 45.4593 94.2203 44.643 94.2203H40.6709V106.439H42.9442V102.138H44.643C45.4369 102.138 46.1318 102.039 46.7265 101.841C47.3212 101.644 47.8146 101.368 48.2089 101.013C48.6033 100.658 48.8985 100.234 49.0967 99.742C49.2939 99.2485 49.3919 98.7071 49.3919 98.1146C49.3919 97.522 49.2981 97.0222 49.1095 96.5426C48.9198 96.0662 48.631 95.6538 48.242 95.3106ZM46.9663 99.0503C46.865 99.3284 46.7116 99.565 46.5059 99.7601C46.3002 99.9551 46.0423 100.104 45.7321 100.209C45.422 100.313 45.0586 100.365 44.6419 100.365H42.9431V95.9799H44.6419C45.0639 95.9799 45.4305 96.03 45.7407 96.1269C46.0508 96.2261 46.3076 96.3689 46.5101 96.5543C46.7126 96.7408 46.865 96.9657 46.9663 97.23C47.0675 97.4954 47.1187 97.7906 47.1187 98.1167C47.1187 98.4599 47.0675 98.7711 46.9663 99.0503ZM31.0217 94.2203L26.213 106.439H27.9875C28.1793 106.439 28.3392 106.386 28.4692 106.279C28.5982 106.172 28.6866 106.053 28.7314 105.924L29.6437 103.432H34.7049L35.6172 105.924C35.679 106.07 35.7717 106.193 35.8964 106.292C36.02 106.391 36.1809 106.439 36.3781 106.439H38.1355L33.3365 94.2203H31.0217ZM30.2266 101.827L31.7144 97.7788C31.7869 97.5923 31.8625 97.376 31.9382 97.1277C32.0139 96.8804 32.0917 96.6129 32.1705 96.3252C32.2494 96.6119 32.3283 96.8783 32.4071 97.1234C32.486 97.3685 32.5617 97.5806 32.6352 97.7618L34.123 101.827H30.2266ZM89.4191 94.3813C89.2955 94.4889 89.2017 94.604 89.1399 94.7276L87.0702 99.2059C86.9519 99.4531 86.8443 99.6993 86.7494 99.9412C86.6535 100.183 86.5683 100.431 86.4958 100.684C86.3445 100.177 86.1388 99.6844 85.8798 99.2059L83.5053 94.7276C83.4264 94.5806 83.3273 94.4601 83.2101 94.3642C83.0918 94.2683 82.9341 94.2203 82.7369 94.2203H80.6076L85.5079 102.797L85.0261 103.769C84.9238 103.972 84.8151 104.136 84.6968 104.26C84.5785 104.383 84.456 104.479 84.3291 104.546C84.2034 104.615 84.0744 104.659 83.9444 104.682C83.8154 104.704 83.6876 104.716 83.5639 104.716H82.9053V106.135C82.9053 106.277 82.998 106.384 83.1835 106.456C83.37 106.53 83.6652 106.567 84.0712 106.567C84.3696 106.567 84.6499 106.54 84.911 106.486C85.1732 106.433 85.4183 106.338 85.6464 106.202C85.8745 106.067 86.0876 105.882 86.2848 105.645C86.4819 105.409 86.6674 105.108 86.8422 104.741L91.7776 94.2214H89.8934C89.7005 94.2203 89.5428 94.2747 89.4191 94.3813ZM22.0055 100.128C22.3827 99.9988 22.7078 99.8411 22.9817 99.6546C23.2556 99.4691 23.4805 99.2613 23.6574 99.0332C23.8343 98.8052 23.9654 98.5611 24.0506 98.2989C24.1348 98.0368 24.1775 97.7629 24.1775 97.474C24.1775 96.9731 24.0933 96.5223 23.9238 96.1227C23.7554 95.723 23.489 95.382 23.1256 95.0996C22.7622 94.8182 22.2964 94.6008 21.7273 94.4495C21.1582 94.2971 20.474 94.2203 19.6747 94.2203H15.4661V106.439H20.0797C20.7895 106.439 21.4204 106.35 21.9724 106.168C22.5245 105.988 22.9892 105.739 23.3664 105.421C23.7437 105.103 24.0304 104.724 24.2276 104.284C24.4247 103.845 24.5238 103.367 24.5238 102.849C24.5238 101.412 23.684 100.505 22.0055 100.128ZM17.7382 95.9788H19.6736C20.4399 95.9788 21.0037 96.1142 21.3628 96.3849C21.7231 96.6556 21.9042 97.1085 21.9042 97.7448C21.9042 98.381 21.706 98.8073 21.3085 99.0887C20.912 99.37 20.3237 99.5107 19.5468 99.5107H17.7382V95.9788ZM22.1621 103.516C22.0865 103.741 21.9618 103.938 21.7902 104.107C21.6186 104.276 21.3895 104.412 21.1017 104.513C20.814 104.616 20.4591 104.666 20.037 104.666H17.7382V101.083H20.0285C20.4282 101.083 20.7713 101.122 21.0559 101.201C21.3405 101.28 21.5728 101.394 21.7529 101.543C21.933 101.692 22.0652 101.872 22.1493 102.083C22.2346 102.294 22.2762 102.533 22.2762 102.797C22.2762 103.051 22.2378 103.291 22.1621 103.516ZM78.0274 103.558C77.9603 103.558 77.8952 103.574 77.8334 103.605C77.7716 103.636 77.713 103.677 77.6554 103.728C77.47 103.897 77.2824 104.039 77.0938 104.155C76.9052 104.271 76.7048 104.365 76.4938 104.439C76.2828 104.512 76.0515 104.566 75.801 104.599C75.5506 104.633 75.2703 104.65 74.9602 104.65C74.4422 104.65 73.9573 104.552 73.5065 104.358C73.0557 104.164 72.6646 103.883 72.3321 103.518C71.9995 103.151 71.7363 102.7 71.5423 102.165C71.3484 101.63 71.2514 101.019 71.2514 100.331C71.2514 99.6439 71.3409 99.0428 71.521 98.51C71.7022 97.9781 71.9548 97.5273 72.282 97.1586C72.6091 96.7898 72.9992 96.5074 73.4521 96.3134C73.9062 96.1195 74.406 96.0225 74.9517 96.0225C75.2724 96.0225 75.5559 96.0459 75.801 96.0939C76.0451 96.1408 76.2615 96.2005 76.4469 96.2708C76.6323 96.3422 76.7954 96.419 76.9371 96.5032C77.0778 96.5873 77.2014 96.6652 77.3091 96.7355C77.4167 96.8069 77.5148 96.8655 77.6054 96.9135C77.6949 96.9614 77.7833 96.9849 77.8675 96.9849C77.9912 96.9849 78.0881 96.9593 78.1585 96.9092C78.2299 96.8591 78.2874 96.7994 78.3322 96.7312L79.0931 95.6751C78.6082 95.2029 78.021 94.8193 77.3315 94.5262C76.6409 94.2331 75.8511 94.0871 74.9612 94.0871C74.0713 94.0871 73.2486 94.2406 72.51 94.5475C71.7725 94.8545 71.1374 95.2839 70.6045 95.836C70.0727 96.3881 69.6602 97.0456 69.3661 97.8098C69.073 98.5728 68.927 99.4137 68.927 100.331C68.927 101.249 69.0634 102.075 69.3363 102.841C69.6091 103.607 70.0023 104.266 70.515 104.818C71.0276 105.37 71.6457 105.801 72.3704 106.111C73.0941 106.421 73.9093 106.576 74.8163 106.576C75.8298 106.576 76.6995 106.412 77.4231 106.085C78.1468 105.758 78.7564 105.288 79.2519 104.674L78.3567 103.702C78.2619 103.606 78.151 103.558 78.0274 103.558Z" fill="white"/>
</g>
<defs>
<linearGradient id="paint0_linear_3017_2" x1="53.4517" y1="57.4031" x2="83.56" y2="57.4031" gradientUnits="userSpaceOnUse">
<stop stop-color="#C79A4D"/>
<stop offset="1" stop-color="#FAD79B"/>
</linearGradient>
<linearGradient id="paint1_linear_3017_2" x1="39.1426" y1="52.0646" x2="19.6797" y2="53.7673" gradientUnits="userSpaceOnUse">
<stop stop-color="#F00000"/>
<stop offset="0.62" stop-color="#FF4242"/>
</linearGradient>
<linearGradient id="paint2_linear_3017_2" x1="34.9458" y1="40.0262" x2="53.4514" y2="40.0262" gradientUnits="userSpaceOnUse">
<stop stop-color="#5C85FF"/>
<stop offset="1" stop-color="#145CD2"/>
</linearGradient>
<clipPath id="clip0_3017_2">
<rect width="106" height="106.576" fill="white"/>
</clipPath>
</defs>
</svg>
