<svg width="261" height="24" viewBox="0 0 261 24" fill="none" xmlns="http://www.w3.org/2000/svg">
<g clip-path="url(#clip0_3007_8210)">
<mask id="mask0_3007_8210" style="mask-type:luminance" maskUnits="userSpaceOnUse" x="0" y="0" width="261" height="24">
<path d="M260.571 0H0V24H260.571V0Z" fill="white"/>
</mask>
<g mask="url(#mask0_3007_8210)">
<g filter="url(#filter0_ddddd_3007_8210)">
<path d="M253.993 15.3922C257.048 15.1482 258.575 13.7926 258.575 11.3255C258.575 10.1206 258.189 9.18602 257.418 8.5218C256.647 7.85758 255.505 7.46975 253.993 7.3583V15.3922ZM247.452 11.3255C247.452 12.547 247.831 13.5027 248.589 14.1925C249.347 14.8823 250.489 15.2777 252.015 15.3786V7.3583C250.489 7.45771 249.347 7.84553 248.589 8.5218C247.831 9.19807 247.452 10.1296 247.452 11.3165V11.3255ZM260.573 11.3255C260.573 13.0938 259.998 14.4885 258.848 15.5097C257.698 16.5309 256.083 17.0987 254.002 17.2131V21.2369H252.019V17.2041C249.931 17.0896 248.315 16.5286 247.172 15.521C246.03 14.5133 245.462 13.1119 245.47 11.3165C245.47 9.54676 246.037 8.16711 247.172 7.17756C248.308 6.18801 249.923 5.63449 252.019 5.51701V1.05273H254.002V5.51701C256.09 5.63147 257.705 6.19177 258.848 7.19789C259.991 8.20401 260.566 9.57689 260.573 11.3165V11.3255ZM237.77 15.3628C238.44 15.3747 239.101 15.204 239.685 14.868C240.252 14.5294 240.718 14.0369 241.031 13.4447C241.373 12.7969 241.547 12.0693 241.535 11.3323C241.549 10.6016 241.375 9.88001 241.031 9.24026C240.727 8.64151 240.259 8.1468 239.685 7.81692C239.101 7.48022 238.44 7.3087 237.77 7.3199C237.099 7.31275 236.438 7.49148 235.858 7.83726C235.294 8.1721 234.829 8.65684 234.512 9.24026C234.18 9.88416 234.013 10.6041 234.027 11.3323C234.015 12.0668 234.182 12.7928 234.512 13.4447C234.824 14.0374 235.29 14.53 235.858 14.868C236.443 15.2006 237.102 15.3711 237.77 15.3628ZM237.94 5.51023C238.952 5.49314 239.952 5.74533 240.841 6.24223C241.682 6.71748 242.375 7.42813 242.837 8.29137C243.341 9.22023 243.595 10.2697 243.573 11.3323C243.593 12.4012 243.339 13.4567 242.837 14.3936C242.375 15.2568 241.682 15.9675 240.841 16.4427C239.952 16.9396 238.952 17.1918 237.94 17.1747C237.181 17.182 236.429 17.0201 235.737 16.7003C235.078 16.3838 234.501 15.9106 234.056 15.3199V21.2369H232.038V5.6232H233.972V7.4306C234.406 6.80913 234.994 6.31776 235.675 6.00727C236.386 5.67432 237.159 5.50688 237.94 5.51701V5.51023ZM227.709 17.1747C227.523 17.1784 227.338 17.1441 227.165 17.074C226.992 17.0038 226.834 16.899 226.7 16.7658C226.562 16.6253 226.453 16.4572 226.381 16.2718C226.309 16.0864 226.274 15.8878 226.28 15.6881C226.273 15.4945 226.308 15.3017 226.38 15.1229C226.453 14.944 226.562 14.7831 226.7 14.6511C226.831 14.5126 226.988 14.403 227.161 14.3292C227.335 14.2553 227.522 14.2188 227.709 14.2219C227.892 14.2173 228.074 14.2512 228.244 14.3215C228.414 14.3918 228.568 14.4971 228.696 14.6308C228.83 14.7698 228.934 14.9352 229.003 15.117C229.072 15.2988 229.104 15.4932 229.097 15.6881C229.102 15.8877 229.068 16.0862 228.995 16.2715C228.923 16.4568 228.814 16.625 228.676 16.7658C228.551 16.8991 228.401 17.0047 228.235 17.0762C228.069 17.1477 227.89 17.1835 227.709 17.1815V17.1747ZM214.849 15.4939C215.758 15.5074 216.444 15.3206 216.908 14.9336C217.384 14.545 217.624 13.9689 217.624 13.2075C217.624 12.4461 217.404 11.9129 216.93 11.5695C216.457 11.2261 215.774 11.0431 214.849 11.0296L212.326 10.9867V15.4713L214.849 15.4939ZM221.323 5.61641H223.343V17.046H221.323V5.61641ZM215.331 9.4978C216.734 9.51287 217.806 9.84348 218.55 10.4896C219.293 11.1358 219.66 12.0492 219.651 13.2301C219.651 14.4651 219.245 15.4208 218.433 16.0971C217.621 16.7733 216.471 17.0964 214.985 17.0663L210.295 17.046V5.6232H212.315V9.48877L215.331 9.4978ZM208.242 7.42833H204.164V17.046H202.144V7.43511H198.067V5.62771H208.242V7.42833ZM191.77 7.25663C190.874 7.22856 190.002 7.55171 189.33 8.16033C188.678 8.77909 188.274 9.62352 188.195 10.5303H195.344C195.26 9.62585 194.847 8.78699 194.187 8.18067C193.531 7.564 192.666 7.23481 191.777 7.26341L191.77 7.25663ZM197.278 11.3956C197.275 11.6048 197.261 11.8137 197.236 12.0214H188.204C188.302 12.9753 188.763 13.8511 189.486 14.4591C190.275 15.0776 191.248 15.3969 192.24 15.3628C193.572 15.3628 194.645 14.9034 195.458 13.9847L196.573 15.3199C196.06 15.9301 195.411 16.4037 194.681 16.7003C193.885 17.0266 193.035 17.1878 192.178 17.1747C191.091 17.1966 190.016 16.9453 189.045 16.4427C188.16 15.9642 187.424 15.2391 186.922 14.3507C186.423 13.4279 186.17 12.3871 186.186 11.3323C186.171 10.2869 186.417 9.25496 186.9 8.3343C187.366 7.46789 188.058 6.7514 188.898 6.26482C189.776 5.75517 190.77 5.49471 191.779 5.51023C192.775 5.49119 193.756 5.75216 194.617 6.26482C195.451 6.74486 196.131 7.46405 196.573 8.3343C197.061 9.27806 197.306 10.3342 197.284 11.4023L197.278 11.3956ZM185.635 7.42833H181.555V17.046H179.538V7.43511H175.46V5.62771H185.635V7.42833ZM162.725 5.62094H164.743V13.944L171.572 5.62094H173.402V17.0505H171.382V8.72966L164.571 17.0527H162.72L162.725 5.62094ZM158.821 5.62094V17.0505H156.803V7.43511H152.009L151.884 9.97902C151.839 11.2741 151.705 12.5644 151.483 13.8401C151.343 14.7229 151.012 15.5626 150.516 16.2981C150.302 16.5984 150.02 16.84 149.694 17.0015C149.368 17.1631 149.008 17.2397 148.646 17.2244C148.226 17.2168 147.808 17.1515 147.405 17.0301L147.531 15.2837C147.696 15.3249 147.865 15.3468 148.035 15.3493C148.294 15.359 148.55 15.2932 148.773 15.1596C148.997 15.026 149.178 14.8301 149.298 14.5947C149.593 14.0411 149.779 13.4329 149.844 12.8053C149.928 12.114 150.001 11.129 150.064 9.85024L150.254 5.6232L158.821 5.62094ZM140.391 15.5887C141.091 15.6078 141.782 15.4288 142.389 15.0714C142.945 14.7177 143.372 14.1879 143.607 13.5622V11.9739H140.497C138.786 11.9739 137.93 12.5636 137.93 13.7429C137.923 14.0073 137.979 14.2696 138.094 14.5062C138.209 14.7428 138.38 14.9463 138.591 15.0985C139.019 15.4216 139.62 15.5887 140.391 15.5887ZM140.854 5.51927C142.396 5.51927 143.571 5.90711 144.378 6.68279C145.186 7.45846 145.6 8.61595 145.619 10.1552V17.055H143.704V15.5436C143.349 16.0913 142.844 16.5189 142.253 16.7726C141.553 17.0614 140.803 17.2005 140.05 17.1815C138.803 17.1815 137.801 16.8727 137.045 16.2552C136.7 15.9592 136.421 15.5899 136.229 15.1728C136.036 14.7557 135.935 14.3007 135.93 13.8392C135.926 13.3778 136.02 12.9209 136.204 12.5002C136.389 12.0794 136.661 11.7049 137.001 11.4023C137.717 10.7848 138.853 10.4761 140.409 10.4761H143.603V10.0649C143.603 9.17474 143.351 8.49244 142.847 8.018C142.344 7.54355 141.601 7.30634 140.618 7.30634C139.959 7.30653 139.304 7.42347 138.684 7.652C138.101 7.83949 137.559 8.13932 137.087 8.53537L136.245 6.98326C136.857 6.48983 137.557 6.12306 138.305 5.90334C139.13 5.64161 139.99 5.51131 140.854 5.51701V5.51927ZM132.974 5.62546V17.055H130.956V7.43511H124.669V17.0527H122.651V5.6232L132.974 5.62546ZM108.052 5.62546H110.07V13.9485L116.899 5.62546H118.727V17.055H116.709V8.72966L109.898 17.0527H108.047L108.052 5.62546ZM105.435 15.2431V19.7909H103.523V17.0527H93.5256V5.6232H95.5435V15.2408H101.641V5.6232H103.659V15.2408L105.435 15.2431ZM78.9354 5.6232H80.9533V13.9463L87.7825 5.6232H89.6131V17.0527H87.593V8.72966L80.7815 17.0527H78.931L78.9354 5.6232ZM64.6163 5.6232H66.6496V10.4761H72.9985V5.6232H75.0208V17.0527H73.0029V12.2654H66.6496V17.0527H64.6229L64.6163 5.6232ZM62.5499 5.6232L57.1461 18.1959C56.6702 19.3602 56.1099 20.1795 55.4652 20.654C54.7965 21.1405 53.9915 21.3904 53.1719 21.3656C52.628 21.3654 52.088 21.2706 51.5748 21.0855C51.1006 20.9311 50.6683 20.6649 50.3125 20.3083L51.1761 18.7562C51.4384 19.0242 51.7497 19.2364 52.0922 19.3806C52.4348 19.5249 52.8017 19.5983 53.1719 19.5966C53.6133 19.6143 54.0463 19.4692 54.3924 19.1877C54.8024 18.8233 55.1135 18.3563 55.2956 17.8322L55.6547 17.0324L50.7333 5.62546H52.8371L56.7363 14.7664L60.5849 5.6232H62.5499ZM48.6713 5.6232V17.0527H46.8429V8.70706L42.6793 15.7582H41.7981L37.6786 8.68674V17.046H35.8281V5.6232H37.9099L42.2828 13.343L46.7812 5.6232H48.6713Z" fill="white"/>
</g>
<g filter="url(#filter1_ddddd_3007_8210)">
<path d="M11.6985 0.00500488L0 12.0024L11.6985 23.9999L23.397 12.0024L11.6985 0.00500488Z" fill="white"/>
</g>
<g filter="url(#filter2_ddddd_3007_8210)">
<path d="M30.8936 11.9966L19.196 0L17.4336 1.8074L27.3689 11.9966L17.4336 22.1858L19.196 23.9932L30.8936 11.9966Z" fill="white"/>
</g>
</g>
</g>
<defs>
<filter id="filter0_ddddd_3007_8210" x="24.8281" y="-0.947266" width="246.745" height="60.3146" filterUnits="userSpaceOnUse" color-interpolation-filters="sRGB">
<feFlood flood-opacity="0" result="BackgroundImageFix"/>
<feColorMatrix in="SourceAlpha" type="matrix" values="0 0 0 0 0 0 0 0 0 0 0 0 0 0 0 0 0 0 127 0" result="hardAlpha"/>
<feOffset/>
<feColorMatrix type="matrix" values="0 0 0 0 0 0 0 0 0 0 0 0 0 0 0 0 0 0 0.05 0"/>
<feBlend mode="normal" in2="BackgroundImageFix" result="effect1_dropShadow_3007_8210"/>
<feColorMatrix in="SourceAlpha" type="matrix" values="0 0 0 0 0 0 0 0 0 0 0 0 0 0 0 0 0 0 127 0" result="hardAlpha"/>
<feOffset dy="2"/>
<feGaussianBlur stdDeviation="2"/>
<feColorMatrix type="matrix" values="0 0 0 0 0 0 0 0 0 0 0 0 0 0 0 0 0 0 0.05 0"/>
<feBlend mode="normal" in2="effect1_dropShadow_3007_8210" result="effect2_dropShadow_3007_8210"/>
<feColorMatrix in="SourceAlpha" type="matrix" values="0 0 0 0 0 0 0 0 0 0 0 0 0 0 0 0 0 0 127 0" result="hardAlpha"/>
<feOffset dy="7"/>
<feGaussianBlur stdDeviation="3.5"/>
<feColorMatrix type="matrix" values="0 0 0 0 0 0 0 0 0 0 0 0 0 0 0 0 0 0 0.04 0"/>
<feBlend mode="normal" in2="effect2_dropShadow_3007_8210" result="effect3_dropShadow_3007_8210"/>
<feColorMatrix in="SourceAlpha" type="matrix" values="0 0 0 0 0 0 0 0 0 0 0 0 0 0 0 0 0 0 127 0" result="hardAlpha"/>
<feOffset dy="15"/>
<feGaussianBlur stdDeviation="4.5"/>
<feColorMatrix type="matrix" values="0 0 0 0 0 0 0 0 0 0 0 0 0 0 0 0 0 0 0.03 0"/>
<feBlend mode="normal" in2="effect3_dropShadow_3007_8210" result="effect4_dropShadow_3007_8210"/>
<feColorMatrix in="SourceAlpha" type="matrix" values="0 0 0 0 0 0 0 0 0 0 0 0 0 0 0 0 0 0 127 0" result="hardAlpha"/>
<feOffset dy="27"/>
<feGaussianBlur stdDeviation="5.5"/>
<feColorMatrix type="matrix" values="0 0 0 0 0 0 0 0 0 0 0 0 0 0 0 0 0 0 0.01 0"/>
<feBlend mode="normal" in2="effect4_dropShadow_3007_8210" result="effect5_dropShadow_3007_8210"/>
<feBlend mode="normal" in="SourceGraphic" in2="effect5_dropShadow_3007_8210" result="shape"/>
</filter>
<filter id="filter1_ddddd_3007_8210" x="-11" y="-1.995" width="45.397" height="63.9949" filterUnits="userSpaceOnUse" color-interpolation-filters="sRGB">
<feFlood flood-opacity="0" result="BackgroundImageFix"/>
<feColorMatrix in="SourceAlpha" type="matrix" values="0 0 0 0 0 0 0 0 0 0 0 0 0 0 0 0 0 0 127 0" result="hardAlpha"/>
<feOffset/>
<feColorMatrix type="matrix" values="0 0 0 0 0 0 0 0 0 0 0 0 0 0 0 0 0 0 0.05 0"/>
<feBlend mode="normal" in2="BackgroundImageFix" result="effect1_dropShadow_3007_8210"/>
<feColorMatrix in="SourceAlpha" type="matrix" values="0 0 0 0 0 0 0 0 0 0 0 0 0 0 0 0 0 0 127 0" result="hardAlpha"/>
<feOffset dy="2"/>
<feGaussianBlur stdDeviation="2"/>
<feColorMatrix type="matrix" values="0 0 0 0 0 0 0 0 0 0 0 0 0 0 0 0 0 0 0.05 0"/>
<feBlend mode="normal" in2="effect1_dropShadow_3007_8210" result="effect2_dropShadow_3007_8210"/>
<feColorMatrix in="SourceAlpha" type="matrix" values="0 0 0 0 0 0 0 0 0 0 0 0 0 0 0 0 0 0 127 0" result="hardAlpha"/>
<feOffset dy="7"/>
<feGaussianBlur stdDeviation="3.5"/>
<feColorMatrix type="matrix" values="0 0 0 0 0 0 0 0 0 0 0 0 0 0 0 0 0 0 0.04 0"/>
<feBlend mode="normal" in2="effect2_dropShadow_3007_8210" result="effect3_dropShadow_3007_8210"/>
<feColorMatrix in="SourceAlpha" type="matrix" values="0 0 0 0 0 0 0 0 0 0 0 0 0 0 0 0 0 0 127 0" result="hardAlpha"/>
<feOffset dy="15"/>
<feGaussianBlur stdDeviation="4.5"/>
<feColorMatrix type="matrix" values="0 0 0 0 0 0 0 0 0 0 0 0 0 0 0 0 0 0 0.03 0"/>
<feBlend mode="normal" in2="effect3_dropShadow_3007_8210" result="effect4_dropShadow_3007_8210"/>
<feColorMatrix in="SourceAlpha" type="matrix" values="0 0 0 0 0 0 0 0 0 0 0 0 0 0 0 0 0 0 127 0" result="hardAlpha"/>
<feOffset dy="27"/>
<feGaussianBlur stdDeviation="5.5"/>
<feColorMatrix type="matrix" values="0 0 0 0 0 0 0 0 0 0 0 0 0 0 0 0 0 0 0.01 0"/>
<feBlend mode="normal" in2="effect4_dropShadow_3007_8210" result="effect5_dropShadow_3007_8210"/>
<feBlend mode="normal" in="SourceGraphic" in2="effect5_dropShadow_3007_8210" result="shape"/>
</filter>
<filter id="filter2_ddddd_3007_8210" x="6.43359" y="-2" width="35.46" height="63.9932" filterUnits="userSpaceOnUse" color-interpolation-filters="sRGB">
<feFlood flood-opacity="0" result="BackgroundImageFix"/>
<feColorMatrix in="SourceAlpha" type="matrix" values="0 0 0 0 0 0 0 0 0 0 0 0 0 0 0 0 0 0 127 0" result="hardAlpha"/>
<feOffset/>
<feColorMatrix type="matrix" values="0 0 0 0 0 0 0 0 0 0 0 0 0 0 0 0 0 0 0.05 0"/>
<feBlend mode="normal" in2="BackgroundImageFix" result="effect1_dropShadow_3007_8210"/>
<feColorMatrix in="SourceAlpha" type="matrix" values="0 0 0 0 0 0 0 0 0 0 0 0 0 0 0 0 0 0 127 0" result="hardAlpha"/>
<feOffset dy="2"/>
<feGaussianBlur stdDeviation="2"/>
<feColorMatrix type="matrix" values="0 0 0 0 0 0 0 0 0 0 0 0 0 0 0 0 0 0 0.05 0"/>
<feBlend mode="normal" in2="effect1_dropShadow_3007_8210" result="effect2_dropShadow_3007_8210"/>
<feColorMatrix in="SourceAlpha" type="matrix" values="0 0 0 0 0 0 0 0 0 0 0 0 0 0 0 0 0 0 127 0" result="hardAlpha"/>
<feOffset dy="7"/>
<feGaussianBlur stdDeviation="3.5"/>
<feColorMatrix type="matrix" values="0 0 0 0 0 0 0 0 0 0 0 0 0 0 0 0 0 0 0.04 0"/>
<feBlend mode="normal" in2="effect2_dropShadow_3007_8210" result="effect3_dropShadow_3007_8210"/>
<feColorMatrix in="SourceAlpha" type="matrix" values="0 0 0 0 0 0 0 0 0 0 0 0 0 0 0 0 0 0 127 0" result="hardAlpha"/>
<feOffset dy="15"/>
<feGaussianBlur stdDeviation="4.5"/>
<feColorMatrix type="matrix" values="0 0 0 0 0 0 0 0 0 0 0 0 0 0 0 0 0 0 0.03 0"/>
<feBlend mode="normal" in2="effect3_dropShadow_3007_8210" result="effect4_dropShadow_3007_8210"/>
<feColorMatrix in="SourceAlpha" type="matrix" values="0 0 0 0 0 0 0 0 0 0 0 0 0 0 0 0 0 0 127 0" result="hardAlpha"/>
<feOffset dy="27"/>
<feGaussianBlur stdDeviation="5.5"/>
<feColorMatrix type="matrix" values="0 0 0 0 0 0 0 0 0 0 0 0 0 0 0 0 0 0 0.01 0"/>
<feBlend mode="normal" in2="effect4_dropShadow_3007_8210" result="effect5_dropShadow_3007_8210"/>
<feBlend mode="normal" in="SourceGraphic" in2="effect5_dropShadow_3007_8210" result="shape"/>
</filter>
<clipPath id="clip0_3007_8210">
<rect width="261" height="24" fill="white"/>
</clipPath>
</defs>
</svg>
