<svg width="57" height="41" viewBox="0 0 57 41" fill="none" xmlns="http://www.w3.org/2000/svg">
<g clip-path="url(#clip0_3446_98)">
<path d="M56.9824 40.016V40.8677H52.5525V35.0457H56.6404V35.9048H53.402V37.6697C53.7534 37.4666 54.1178 37.4442 54.5007 37.4442H55.7704V38.3108H54.5007C54.127 38.3108 53.7534 38.3499 53.402 38.5381V40.0216H56.9843L56.9824 40.016ZM50.3868 35.0438L46.9681 39.5315V35.0438H46.1279V40.8658H46.9681L50.3868 36.3782V40.8658H51.2271V35.0438H50.3868ZM39.6977 40.8677V35.0457H40.538V37.4349C40.7722 37.3175 41.0287 37.2783 41.2778 37.2783C41.6199 37.2783 42.6405 37.4498 43.1703 37.4498C43.4119 37.4498 43.7075 37.4106 43.9566 37.3007V35.0457H44.8062V40.8677H43.9566V38.1598C43.7075 38.2698 43.4119 38.3089 43.1703 38.3089C42.6405 38.3089 41.6217 38.1375 41.2778 38.1375C41.0287 38.1375 40.7722 38.1766 40.538 38.294V40.8696H39.6977V40.8677ZM35.1432 40.016V38.5326C35.4927 38.3443 35.8664 38.3052 36.24 38.3052H37.5097V37.4386H36.24C35.8589 37.4386 35.4927 37.4628 35.1432 37.6641V35.8992H38.3816V35.0401H34.2937V40.8621H38.7236V40.0104H35.1414L35.1432 40.016ZM29.5514 35.0438V37.4405C29.8712 37.433 30.1984 37.3771 30.5014 37.2131L31.9737 35.0438H32.9943L31.087 37.7834L32.1298 39.3526C32.5184 39.9377 32.8232 40.0086 33.0872 40.0086C33.1486 40.0086 33.2118 40.0011 33.275 40.0011L33.2824 40.8677C32.6057 40.8677 32.1075 40.9609 31.468 39.9471L30.3545 38.1598C30.0905 38.2698 29.8247 38.3089 29.5533 38.3089V40.8696H28.7038V38.3089C28.4305 38.3089 28.1665 38.2698 27.91 38.1598L26.789 39.9471C26.1514 40.9534 25.6216 40.8677 24.9821 40.8677L24.9895 40.0011C25.0434 40.0011 25.1066 40.0086 25.1754 40.0086C25.432 40.0086 25.7368 39.9452 26.1328 39.3526L27.1757 37.7834L25.2684 35.0438H26.2889L27.752 37.2131C28.055 37.3771 28.3747 37.4311 28.7019 37.4405V35.0438H29.5514ZM20.1395 35.0438H19.2137C19.7045 37.3156 20.6544 38.7748 21.7754 39.798C21.6508 40.0235 21.4333 40.1185 21.16 40.1185C20.7474 40.1185 20.5447 40.0328 20.2956 39.8296L19.9684 40.5714C20.1785 40.782 20.7697 40.946 21.16 40.946C21.7122 40.946 22.2197 40.782 22.6863 40.1036C23.7217 38.581 24.3593 36.7863 24.8204 35.0457H23.8481C23.5135 36.3651 22.9205 38.0741 22.2754 39.1662C21.4184 38.1505 20.6005 37.105 20.1413 35.0457M17.5852 35.903H15.9122C15.7635 37.4162 15.414 39.2053 14.4789 40.3216C14.0588 40.8211 13.4751 40.8677 13.1628 40.8677H13.0066V40.016H13.1628C13.4267 40.016 13.7465 39.962 14.174 39.2743C14.7968 38.2754 14.9678 37.0976 15.0924 35.903H14.4231L14.0569 35.0438H18.4329V40.8658H17.5834V35.9011L17.5852 35.903ZM12.0957 36.4341L12.6404 35.7949C12.0715 35.2246 11.2778 34.8742 10.4059 34.8742C8.74026 34.8742 7.27539 36.1546 7.27539 37.871C7.27539 39.5874 8.63802 41.0019 10.3966 41.0019C11.3317 41.0019 12.1868 40.6031 12.7705 39.9471L12.2481 39.237C11.828 39.7998 11.1588 40.1502 10.4022 40.1502C9.18827 40.1502 8.10635 39.2296 8.10635 37.9735C8.10635 36.7174 9.10276 35.7334 10.3947 35.7334C11.0565 35.7334 11.6719 35.998 12.092 36.436" fill="#D2A35F"/>
<path d="M47.231 15.047C34.0026 19.1861 35.3318 17.4324 20.144 18.8358C16.4465 19.3073 12.7638 20.4105 9.56642 22.4997C8.78007 23.014 8.09225 23.6849 7.17578 24.4323C12.3753 20.8 18.0452 20.5205 23.1536 20.4497C33.3724 20.4497 41.4905 20.5894 49.9842 15.1532C52.8972 13.5058 54.9197 11.2172 56.8456 8.11053C54.5795 11.2582 51.99 13.3623 47.2292 15.047" fill="#D2A35F"/>
<path d="M9.5625 25.1423C11.5423 23.8471 16.9686 22.0133 25.6407 23.1538C36.2908 24.7789 40.2597 23.9962 46.3255 20.9044C43.0333 23.9962 39.1926 25.8226 32.3758 25.8226C23.1813 25.4144 17.1787 21.9462 9.5625 25.1423Z" fill="#153C88"/>
<path d="M25.9618 26.7301C18.71 24.5814 15.0496 25.4088 9.74414 26.8028C21.3943 25.2281 21.6992 27.6825 34.3458 31.1861C41.6125 32.7627 44.0831 32.5186 50.082 30.3419C38.7404 31.9353 30.8472 27.9396 25.9618 26.7301Z" fill="#E42313"/>
<path d="M23.229 15.8726C27.1942 15.224 31.1891 14.8085 35.0372 13.3157C38.9038 11.8155 42.4823 9.69091 45.3451 6.027C46.7078 4.28264 47.8213 2.32768 48.4515 0C45.9196 5.63377 42.7482 8.08818 36.2827 10.4811C32.3305 11.9403 28.2593 12.3354 24.1994 12.8926C19.1337 13.5878 14.1126 14.5494 9.2997 16.7429C1.1667 19.9428 -5.87509 31.7545 7.45188 40.8658C2.48657 37.3398 -6.75996 18.8302 23.2308 15.8707" fill="#D2A35F"/>
</g>
<defs>
<clipPath id="clip0_3446_98">
<rect width="56.9831" height="41" fill="white"/>
</clipPath>
</defs>
</svg>
