<svg width="154" height="44" viewBox="0 0 154 44" fill="none" xmlns="http://www.w3.org/2000/svg">
<g clip-path="url(#clip0_4904_3456)">
<path d="M31.8735 0C32.4491 0.121249 33.0381 0.242498 33.6137 0.37722C35.1532 0.740968 36.5454 1.42805 37.8573 2.34415C39.8118 3.71831 41.2441 5.5101 42.1812 7.69259C42.6765 8.82425 43.0513 10.0233 43.1049 11.2762C43.1718 12.8928 43.1986 14.5095 43.1986 16.1127C43.1986 21.1243 43.1986 26.1359 43.1986 31.1476C43.1986 32.9528 42.8104 34.6638 42.0875 36.3074C41.5119 37.6142 40.7087 38.7593 39.7448 39.8236C38.3392 41.3595 36.6659 42.4507 34.7382 43.1513C33.5468 43.5824 32.3152 43.8653 31.0301 43.8653C27.4826 43.8653 23.9352 43.8653 20.3877 43.8653H19.8389C19.7452 43.3129 20.2405 43.2186 20.4948 43.0031C21.472 42.1408 22.4894 41.3325 23.4934 40.4972C24.3234 39.8102 25.1534 39.1366 25.9967 38.4495C26.9606 37.6681 27.9244 36.8867 28.8882 36.0919C30.1198 35.0814 31.3514 34.071 32.5696 33.0472C32.6767 32.9663 32.7971 32.8181 32.7971 32.7104C32.8105 31.1745 32.7971 29.6252 32.7971 28.049H18.6073C18.7412 27.8065 18.7947 27.6044 18.9286 27.4966C19.705 26.8365 20.4814 26.1898 21.2712 25.5432C22.1815 24.7887 23.1052 24.0478 24.0155 23.3068C25.0864 22.4311 26.144 21.5419 27.2015 20.6663C28.1118 19.9118 29.0355 19.1843 29.9592 18.4434C30.749 17.8102 31.5388 17.1635 32.3152 16.5303C32.6097 16.2878 32.8239 16.0184 32.8105 15.5603C32.7704 14.1592 32.7971 12.7581 32.7971 11.3166H10.9903V15.8163H24.4573C24.6447 16.436 24.0958 16.5573 23.8415 16.7863C22.5564 17.891 21.2311 18.9553 19.9192 20.0196C18.8884 20.8549 17.8309 21.6767 16.8001 22.5119C15.8898 23.2529 15.0063 24.0074 14.1094 24.7483C12.9983 25.6644 11.8738 26.5671 10.7627 27.4697C10.5485 27.6448 10.4147 27.8469 10.4147 28.1702C10.4414 29.6118 10.4147 31.0667 10.4147 32.5622H24.4573C24.6715 33.1953 24.1092 33.3031 23.8549 33.5321C22.5564 34.6503 21.2177 35.7146 19.8924 36.8059C18.8616 37.6412 17.8041 38.463 16.7733 39.2982C15.8764 40.0257 14.9929 40.7667 14.1094 41.5077C13.2393 42.2217 12.3959 42.9626 11.499 43.6363C11.2982 43.7844 10.8966 43.7306 10.6155 43.6767C8.56731 43.2994 6.66641 42.5315 5.03324 41.2517C2.87799 39.5542 1.32514 37.4121 0.54871 34.7177C0.160497 33.357 -0.000142613 32.0233 -0.000142613 30.6356C-0.000142613 24.4654 -0.0269159 18.2952 0.0266307 12.1249C0.0400173 10.0233 0.722737 8.05634 1.7669 6.22413C2.44961 5.02511 3.31975 4.00122 4.35052 3.09859C5.9703 1.69749 7.84443 0.740968 9.94614 0.282915C10.4013 0.18861 10.8698 0.094305 11.3383 0H31.8735Z" fill="black"/>
<path d="M63.185 0C63.707 0.202082 64.2693 0.350276 64.7378 0.63319C65.7017 1.21249 66.2639 2.10165 66.371 3.23331C66.4647 4.31108 66.4379 5.38886 65.7686 6.34538C65.0323 7.38273 64.0149 7.90814 62.77 7.94856C61.5116 7.98898 60.2533 7.94856 58.9548 7.94856V12.9198H57.1074V0H63.185ZM58.9414 1.93999V6.11635C60.1194 6.11635 61.2305 6.14329 62.3416 6.11635C62.944 6.08941 63.5464 5.95468 64.0149 5.52358C64.6977 4.90386 64.8583 4.06859 64.537 3.1929C64.2559 2.42498 63.5732 2.00735 62.7834 1.96693C61.525 1.89957 60.2667 1.95346 58.9548 1.95346" fill="black"/>
<path d="M154 10.2794C153.746 10.8587 153.612 11.4919 153.116 11.9634C152.474 12.5832 151.724 12.9469 150.867 13.0277C149.743 13.1355 148.645 13.0008 147.708 12.2329C146.945 11.6132 146.463 10.8318 146.262 9.86178C146.022 8.70318 145.981 7.5311 146.262 6.38597C146.704 4.63459 148.404 3.38169 150.265 3.40863C151.845 3.43557 153.304 4.44598 153.732 6.00875C153.839 6.39944 153.893 6.81708 153.987 7.22124V8.70318H147.748C147.708 9.76748 148.511 11.0608 149.596 11.3841C150.171 11.5458 150.707 11.4919 151.229 11.2898C151.831 11.0608 152.099 10.5084 152.3 9.91567H153.987V10.2794H154ZM152.126 7.01916C152.233 6.11653 151.403 5.18695 150.412 5.07917C149.181 4.95793 148.07 5.83361 147.909 7.01916H152.126Z" fill="black"/>
<path d="M114.121 0C114.041 0.767912 114.108 1.60318 113.398 2.1286C113.023 2.39804 112.541 2.54623 112.086 2.66748C111.471 2.84262 110.828 2.74832 110.226 2.55971C109.288 2.27679 108.793 1.53582 108.78 0.552358C108.78 0.363748 108.78 0.18861 108.78 0H110.252C110.226 1.05083 110.989 1.67054 111.872 1.29333C112.421 1.0643 112.541 0.525413 112.649 0H114.121Z" fill="black"/>
<path d="M64.6577 37.1696C65.0192 37.5468 65.4743 37.951 65.8358 38.436C66.3712 39.15 66.2775 39.9988 66.157 40.8206C65.8759 42.6393 64.6042 43.5015 62.9576 43.8249C61.378 44.1347 59.785 44.1078 58.3125 43.3129C57.2014 42.7202 56.5187 41.804 56.2911 40.5511C56.2242 40.1739 56.2108 39.7967 56.1572 39.3791H58.6873C58.8479 39.7293 58.9952 40.0931 59.1692 40.4568C59.4236 40.9553 59.8519 41.2247 60.3606 41.3595C61.2174 41.575 62.0741 41.5885 62.8907 41.1978C63.3459 40.9688 63.627 40.5511 63.6404 40.0257C63.6404 39.5273 63.4396 39.0692 62.9576 38.8806C62.4891 38.7055 61.9804 38.5707 61.4851 38.5168C60.9363 38.4495 60.3874 38.5034 59.8118 38.5034V35.9302C60.4945 35.9302 61.204 35.9437 61.9001 35.9302C62.4891 35.9167 62.9844 35.6877 63.2655 35.1219C63.6404 34.3944 63.4262 33.6669 62.6631 33.357C61.7261 32.9663 60.7756 32.899 59.8653 33.5052C59.2228 33.9363 59.022 34.6099 58.8881 35.3374H56.2643C56.3179 34.2731 56.5722 33.3031 57.2014 32.4544C58.1251 31.2015 59.3834 30.6491 60.9229 30.6491C62.0875 30.6491 63.2388 30.6222 64.2829 31.2149C65.4342 31.8616 66.1303 32.8047 66.1169 34.1923C66.1169 34.812 66.1838 35.4721 65.7822 35.9976C65.4342 36.4556 64.979 36.8328 64.6444 37.1831" fill="black"/>
<path d="M99.6768 43.7711V34.4618H102.113V40.3491C102.113 40.3491 102.167 40.3626 102.207 40.3761C102.287 40.2548 102.367 40.1201 102.434 39.9989C103.291 38.2744 104.161 36.5635 105.005 34.8256C105.152 34.5022 105.326 34.4214 105.661 34.4214C106.598 34.4349 107.521 34.4214 108.485 34.4214V43.7172H106.049V37.8164C106.049 37.8164 105.982 37.8164 105.955 37.8029C105.366 38.975 104.777 40.147 104.188 41.3191C103.84 42.0062 103.492 42.7068 103.171 43.4073C103.05 43.6633 102.903 43.7711 102.622 43.7576C101.658 43.7441 100.694 43.7576 99.7035 43.7576" fill="black"/>
<path d="M89.5033 26.7555H90.9758V30.7837H89.5435V28.3183H77.2144V19.1033H78.8208V26.7285H82.5289V19.0898H84.162V26.7151H87.8567V19.1033H89.5033V26.7555Z" fill="black"/>
<path d="M84.5502 35.2564C84.5502 34.987 84.5769 34.7849 84.5769 34.5559H87.0936V43.7439H84.5769C84.5636 43.4609 84.5502 43.178 84.5368 42.8682C82.9839 44.5791 80.2798 44.1884 79.0215 42.464C78.4325 41.6557 78.1647 40.7665 78.0844 39.7696C77.9907 38.5167 78.1246 37.3311 78.7002 36.1995C79.731 34.1921 82.2075 33.761 83.7871 34.7175C84.0281 34.8657 84.2557 35.0543 84.5368 35.2564M84.4966 39.069C84.4431 38.7861 84.3895 38.3685 84.2691 37.9643C84.0415 37.1829 83.506 36.6844 82.7028 36.5632C82.0201 36.4554 81.498 36.8461 81.0964 37.3715C80.1192 38.6649 80.3735 40.2815 81.4177 41.3323C81.9398 41.8578 82.7564 41.8847 83.3721 41.4805C84.2021 40.9416 84.4029 40.1198 84.4832 39.0555" fill="black"/>
<path d="M112.689 39.9582C112.997 41.036 113.733 41.6826 114.643 41.6557C115.259 41.6422 115.794 41.4401 116.076 40.8069C116.129 40.6992 116.276 40.5644 116.383 40.5644C117.12 40.5375 117.856 40.5644 118.632 40.5644C118.512 41.3323 118.271 42.006 117.776 42.5583C116.946 43.4744 115.902 43.8786 114.67 43.9055C113.572 43.9325 112.622 43.7034 111.765 42.9894C110.895 42.2619 110.386 41.3054 110.279 40.2276C110.172 39.1633 110.119 38.0721 110.507 37.0078C111.123 35.3103 112.541 34.2999 114.322 34.2729C115.527 34.2729 116.611 34.5154 117.468 35.4046C118.231 36.186 118.592 37.1425 118.619 38.2338C118.619 38.7996 118.619 39.3654 118.619 39.9851H112.689V39.9582ZM116.129 37.8431C116.102 36.8731 114.898 36.3881 114.228 36.4824C113.264 36.6171 112.582 37.2772 112.729 37.8431H116.129Z" fill="black"/>
<path d="M73.64 15.2908H75.1527C75.1393 15.9375 75.3133 16.5976 74.9385 17.1634C74.7779 17.4194 74.4833 17.6484 74.2022 17.7427C73.0777 18.12 71.8997 17.9179 70.7485 17.9314C69.0216 17.9448 68.4192 18.834 68.1648 20.1677C68.1381 20.3025 68.1247 20.4372 68.0979 20.5449C68.5397 20.262 68.968 19.9252 69.45 19.6827C71.7525 18.4972 74.5235 19.8579 75.0456 22.4041C75.3133 23.7244 75.2732 25.0581 74.6038 26.2706C73.8676 27.6043 72.7699 28.4127 71.1902 28.3992C70.4272 28.3992 69.6775 28.3723 68.9814 28.022C68.2853 27.6717 67.7231 27.1598 67.375 26.4727C66.9868 25.7182 66.7191 24.9099 66.7057 24.0477C66.7057 23.4684 66.5852 22.8891 66.6254 22.3098C66.7191 21.0299 66.7057 19.7366 67.1475 18.4837C67.5892 17.2847 68.4058 16.5437 69.6508 16.3955C70.6012 16.2743 71.5651 16.3012 72.5289 16.2878C73.4124 16.2743 73.5329 16.1934 73.64 15.2773M68.3255 23.7917C68.3121 24.6001 68.5397 25.3276 69.0082 25.9742C69.8382 27.1194 70.9359 27.2675 72.0336 26.6074C73.5061 25.7317 73.8542 23.6435 73.051 22.202C72.3816 21.003 71.0028 20.6393 69.8649 21.2051C68.8208 21.7305 68.4058 22.6735 68.3389 23.7917" fill="black"/>
<path d="M91.6183 37.8434H94.9516V34.4754H97.4148V43.7442H94.9918V40.0933H91.6585V43.7307H89.2891V34.4619H91.6183V37.8434Z" fill="black"/>
<path d="M70.5206 37.8434H73.8539V34.4754H76.2234V43.7442H73.8941V40.0933H70.5608V43.7307H68.0977V34.4619H70.5206V37.8434Z" fill="black"/>
<path d="M119.315 19.0766C120.962 19.0766 122.568 19.0361 124.175 19.0766C125.286 19.1035 126.143 19.7906 126.397 20.7067C126.718 21.8249 126.397 22.8622 125.487 23.5493C126.611 24.2229 127.026 25.2468 126.638 26.5401C126.37 27.4428 125.38 28.3319 124.188 28.3184C122.582 28.2915 120.975 28.3184 119.329 28.3184V19.0766H119.315ZM121.042 24.3846V26.85C121.939 26.85 122.809 26.8769 123.679 26.85C124.349 26.823 124.938 26.3111 124.978 25.7992C125.032 25.0717 124.764 24.6675 123.88 24.5462C122.957 24.425 122.006 24.4385 121.042 24.3981M121.042 22.8757C121.846 22.8757 122.595 22.9026 123.345 22.8622C123.666 22.8488 124.041 22.7679 124.268 22.5658C124.523 22.3368 124.764 21.9461 124.777 21.6093C124.791 21.1917 124.456 20.801 124.028 20.7471C123.037 20.6528 122.033 20.6393 121.042 20.5989V22.8757Z" fill="black"/>
<path d="M96.8389 3.62382H98.5256V10.4946C98.5256 10.4946 98.5925 10.5216 98.6327 10.5216C98.9673 9.94226 99.3154 9.37643 99.6501 8.79712C100.493 7.34213 101.337 5.90061 102.18 4.44562C102.314 4.2166 102.461 3.9741 102.622 3.75854C102.675 3.69118 102.796 3.62382 102.876 3.61035C103.532 3.61035 104.188 3.61035 104.871 3.61035V12.9061H103.171V6.18353L103.064 6.15659C102.595 6.93797 102.127 7.71935 101.671 8.51421C100.868 9.88837 100.052 11.276 99.2619 12.6636C99.128 12.9061 98.9673 12.96 98.713 12.96C98.0972 12.96 97.4948 12.96 96.8389 12.96V3.62382Z" fill="black"/>
<path d="M113.773 12.8253V6.02183C113.773 6.02183 113.72 5.99489 113.693 5.98142C113.465 6.37211 113.238 6.74933 113.01 7.14002C111.939 8.97223 110.882 10.791 109.811 12.6232C109.744 12.731 109.597 12.8522 109.476 12.8522C108.807 12.8791 108.138 12.8522 107.441 12.8522V3.65074H109.048V10.5619L109.155 10.5889C109.61 9.83445 110.065 9.08001 110.507 8.3121C111.364 6.84363 112.22 5.3617 113.091 3.89323C113.171 3.74504 113.412 3.62379 113.586 3.62379C114.215 3.59685 114.831 3.62379 115.487 3.62379V12.8387H113.787L113.773 12.8253Z" fill="black"/>
<path d="M99.9046 25.3682C100.052 26.6481 99.3424 27.4699 98.4722 27.9953C97.0131 28.8844 95.4469 28.8575 93.9743 27.9414C92.9837 27.3351 92.4215 26.3651 92.2341 25.2604C92.0199 23.9267 91.9262 22.566 92.4616 21.2457C93.0239 19.8446 94.2287 19.0094 95.728 18.9016C96.3036 18.8612 96.906 18.9555 97.4816 19.0767C98.9943 19.427 99.9716 21.1514 99.9314 22.4313C99.918 22.9836 99.9314 23.536 99.9314 24.1422H93.8137C93.6263 24.7889 94.4429 26.2574 95.139 26.6211C96.1831 27.1869 97.0131 26.9849 97.7494 26.3921C97.9502 26.2304 98.0974 25.961 98.1777 25.7185C98.2714 25.449 98.3785 25.3547 98.6597 25.3682C99.0746 25.3952 99.4762 25.3682 99.918 25.3682M98.2179 22.4852C98.1644 21.2727 97.2407 20.4913 96.2768 20.4374C95.0988 20.3835 94.0279 21.4209 93.9074 22.4852H98.2179Z" fill="black"/>
<path d="M64.8316 23.6436C64.9387 25.0042 64.5237 26.1898 63.6803 27.2137C63.0646 27.9546 62.2346 28.3723 61.2975 28.4935C60.4542 28.5878 59.5706 28.6013 58.7942 28.1837C57.3886 27.4427 56.572 26.2841 56.3712 24.654C56.2374 23.5897 56.2909 22.5658 56.6657 21.5554C57.228 20.0869 58.6202 18.9014 60.3471 18.8744C61.7125 18.8475 62.8905 19.2112 63.7874 20.2755C64.604 21.2455 64.9387 22.3907 64.8316 23.6301M58.0044 23.684C58.0446 24.4249 58.1918 25.139 58.6068 25.7856C59.4368 27.1328 61.3243 27.3753 62.3818 26.0955C63.4662 24.7887 63.4528 22.1616 62.0606 21.003C61.2038 20.289 59.8652 20.2486 59.0486 21.003C58.2721 21.7305 58.0446 22.6601 57.991 23.684" fill="black"/>
<path d="M144.549 8.19092C144.602 9.53814 144.187 10.7237 143.357 11.7341C142.742 12.4885 141.885 12.9062 140.934 13.0139C139.997 13.1217 139.06 13.0678 138.204 12.5559C136.985 11.8419 136.303 10.7776 136.062 9.41689C135.874 8.39301 135.928 7.35565 136.236 6.34524C136.771 4.64775 138.471 3.43526 140.278 3.39484C142.233 3.34095 144.228 4.98456 144.428 6.96496C144.468 7.36912 144.509 7.78676 144.562 8.19092M137.695 8.08315C137.695 9.08009 137.909 9.90189 138.458 10.589C139.368 11.7341 141.095 11.761 142.005 10.7237C143.076 9.49772 143.143 7.24787 142.126 5.92761C141.282 4.82289 139.703 4.68817 138.739 5.57733C137.976 6.29135 137.762 7.22093 137.708 8.08315" fill="black"/>
<path d="M67.3882 8.326C67.3882 6.89795 67.763 5.6181 68.7938 4.59421C69.5702 3.8263 70.5073 3.43561 71.6317 3.40867C72.8098 3.38172 73.8138 3.732 74.6304 4.5538C75.5139 5.42949 75.9155 6.54767 75.9556 7.78711C75.9824 8.67627 75.9289 9.55196 75.5942 10.3872C75.0052 11.8422 73.6264 13.0412 71.9396 13.0547C70.9089 13.0547 69.9718 12.8931 69.1418 12.2464C68.2315 11.5458 67.7362 10.6163 67.522 9.51154C67.4417 9.12085 67.4283 8.73016 67.3882 8.33947M74.2421 8.24516C74.2689 7.42336 74.0547 6.65545 73.5728 5.98184C73.0106 5.18699 71.8995 4.80977 71.0427 5.09268C70.0923 5.40254 69.5434 6.07615 69.3159 7.0192C68.9678 8.47419 69.0615 9.84835 70.2262 10.9261C71.1231 11.7479 72.6491 11.6536 73.4523 10.6836C74.0681 9.95612 74.2154 9.12085 74.2421 8.23169" fill="black"/>
<path d="M132.193 28.5206C130.078 28.6554 128.324 26.6076 128.204 24.4386C128.137 23.0914 128.257 21.825 129.034 20.6799C130.132 19.0632 131.872 18.6186 133.639 19.0363C135.553 19.4943 136.624 21.4612 136.691 22.9971C136.745 24.1152 136.691 25.1795 136.169 26.2169C135.393 27.7797 134.148 28.5206 132.193 28.5341M135.071 23.4147C134.924 22.9836 134.79 22.2426 134.442 21.6364C133.518 20.0197 131.35 20.1275 130.493 21.5286C129.69 22.8354 129.676 24.1557 130.306 25.5433C130.921 26.8905 132.595 27.4563 133.866 26.4594C134.75 25.7723 134.951 24.7484 135.071 23.4012" fill="black"/>
<path d="M130.547 8.64913C130.105 9.12066 129.663 9.55176 129.261 10.0098C129.168 10.1176 129.128 10.3197 129.128 10.4679C129.128 11.2762 129.128 12.098 129.128 12.9333H127.508V3.65097H129.114V7.94858C129.636 7.40969 130.078 6.96511 130.506 6.52053C131.417 5.59096 132.314 4.64791 133.224 3.71833C133.277 3.66444 133.385 3.62402 133.465 3.62402C134.054 3.62402 134.656 3.62402 135.259 3.62402C135.299 3.66444 135.326 3.70486 135.366 3.7318C135.219 3.94735 135.098 4.20333 134.924 4.37846C133.947 5.3754 132.956 6.35887 131.939 7.38275C132.903 8.79732 133.866 10.2119 134.83 11.613C135.004 11.869 135.192 12.1384 135.352 12.4079C135.433 12.556 135.459 12.7312 135.54 12.9467C134.884 12.9467 134.322 12.9602 133.759 12.9467C133.626 12.9467 133.478 12.7985 133.385 12.6773C132.447 11.357 131.524 10.0368 130.547 8.6626" fill="black"/>
<path d="M94.965 6.84377C94.7241 6.84377 94.5366 6.84377 94.3492 6.84377C93.7468 6.84377 93.2114 6.96502 92.9302 6.11628C92.6625 5.30795 91.8593 4.99809 90.9892 5.07892C90.0655 5.17323 89.3962 5.65822 89.008 6.48002C88.3654 7.84071 88.4591 9.2014 89.2489 10.4543C89.7844 11.3165 90.6813 11.7342 91.7522 11.4782C92.4483 11.303 92.783 10.7776 93.0239 10.1714C93.0775 10.0367 93.1177 9.88847 93.1578 9.74028H94.8178C94.8178 11.0336 94.2154 12.3943 92.8098 12.9062C91.3506 13.4451 89.9182 13.3778 88.6197 12.4751C87.5354 11.7207 86.9464 10.6294 86.8795 9.32264C86.8393 8.46043 86.8929 7.57127 87.0535 6.72252C87.3748 5.06545 88.3654 3.93379 90.012 3.52963C91.3774 3.19282 92.7161 3.36796 93.8271 4.31101C94.3894 4.78253 94.6839 5.46961 94.8445 6.19711C94.8847 6.38572 94.9115 6.5878 94.9516 6.84377" fill="black"/>
<path d="M123.88 9.74022H125.393C125.567 10.8854 124.683 12.4077 123.586 12.8388C122.046 13.4585 120.547 13.3912 119.155 12.4077C118.218 11.7341 117.749 10.7506 117.548 9.65939C117.334 8.47384 117.401 7.30177 117.803 6.15663C118.365 4.56692 119.878 3.39485 121.618 3.40832C122.756 3.40832 123.786 3.63734 124.59 4.47262C125.192 5.10581 125.487 5.88719 125.54 6.8033H123.853C123.612 6.11622 123.358 5.42914 122.542 5.18664C121.337 4.82289 120.078 5.29442 119.556 6.57427C119.021 7.92148 119.088 9.28217 119.904 10.5351C120.574 11.559 122.019 11.9092 122.956 11.1683C123.358 10.8449 123.546 10.2656 123.88 9.74022Z" fill="black"/>
<path d="M109.503 22.2697H107.937C107.602 21.7981 107.374 21.3266 107.013 20.9629C106.196 20.1276 104.376 20.5183 103.787 21.5826C102.983 23.0106 103.01 24.4522 103.787 25.8802C104.309 26.8367 105.607 27.3352 106.558 26.8771C107.187 26.5808 107.548 26.0015 107.696 25.2874H109.396C109.382 26.1362 109.141 26.9041 108.579 27.5238C107.468 28.7363 106.049 28.8845 104.563 28.5477C102.809 28.157 101.739 26.8233 101.484 24.991C101.31 23.7651 101.431 22.593 101.872 21.4613C102.421 19.9929 103.733 18.9151 105.42 18.8882C106.598 18.8612 107.696 19.0498 108.539 19.9255C109.155 20.5587 109.436 21.367 109.489 22.2697" fill="black"/>
<path d="M85.3267 9.72699C85.5409 11.0068 84.5905 12.5157 83.3053 12.9603C81.6989 13.5127 80.1996 13.2836 78.861 12.2598C78.1783 11.7343 77.7365 10.953 77.5892 10.1042C77.3751 8.86477 77.3349 7.61187 77.7365 6.39937C78.2586 4.82313 79.3161 3.73189 80.9493 3.48939C82.9439 3.17953 84.8046 3.75884 85.4204 6.23771C85.474 6.42632 85.4472 6.6284 85.474 6.85743C84.9519 6.85743 84.4834 6.85743 84.0148 6.85743C83.9211 6.85743 83.7739 6.72271 83.7471 6.6284C83.399 5.17341 81.8462 4.80966 80.7619 5.33508C79.7177 5.84702 79.3429 6.76312 79.2358 7.787C79.1287 8.81089 79.3161 9.79435 79.9721 10.67C80.4808 11.3436 81.1501 11.6131 81.9265 11.5861C82.8368 11.5592 83.3723 10.9664 83.6266 10.1312C83.7203 9.8213 83.8542 9.72699 84.1621 9.74046C84.5503 9.76741 84.9519 9.74046 85.3401 9.74046" fill="black"/>
<path d="M110.292 19.0898H117.762V20.6122H114.857V28.2913H113.211V20.6391H110.292V19.0898Z" fill="black"/>
</g>
<defs>
<clipPath id="clip0_4904_3456">
<rect width="154" height="44" fill="white"/>
</clipPath>
</defs>
</svg>
