<svg width="160" height="52" viewBox="0 0 160 52" fill="none" xmlns="http://www.w3.org/2000/svg">
<g clip-path="url(#clip0_4904_3422)">
<path d="M104.802 50.5537C105.279 50.5537 105.671 50.4126 105.952 50.1445C106.232 49.8764 106.386 49.5096 106.386 49.044C106.386 48.5784 106.246 48.2115 105.952 47.9435C105.671 47.6754 105.279 47.5343 104.802 47.5343H103.778V50.5396H104.802V50.5537ZM102.671 46.6313H104.858C105.377 46.6313 105.839 46.7301 106.246 46.9276C106.653 47.1251 106.961 47.4073 107.185 47.7742C107.41 48.141 107.522 48.5643 107.522 49.044C107.522 49.5237 107.41 49.947 107.185 50.3138C106.961 50.6807 106.653 50.9629 106.246 51.1604C105.839 51.3579 105.377 51.4567 104.858 51.4567H102.671V46.6172V46.6313Z" fill="#2553C3"/>
<path d="M110.172 48.5928H108.223V49.4534H110.172V48.5928Z" fill="#2553C3"/>
<path d="M114.896 50.5679V51.4709H111.167V46.6313H114.798V47.5343H112.275V48.5784H114.504V49.4532H112.275V50.5679H114.896Z" fill="#2553C3"/>
<path d="M116.733 51.2312C116.341 51.0195 116.018 50.7232 115.794 50.3423C115.57 49.9613 115.458 49.5239 115.458 49.0583C115.458 48.5927 115.57 48.1553 115.794 47.7603C116.018 47.3793 116.341 47.083 116.733 46.8714C117.126 46.6597 117.575 46.5469 118.065 46.5469C118.486 46.5469 118.864 46.6174 119.201 46.7726C119.537 46.9137 119.818 47.1254 120.056 47.4075L119.341 48.0707C119.019 47.6897 118.612 47.5063 118.135 47.5063C117.841 47.5063 117.575 47.5769 117.336 47.7038C117.098 47.8308 116.916 48.0142 116.789 48.2541C116.663 48.494 116.593 48.762 116.593 49.0583C116.593 49.3546 116.663 49.6227 116.789 49.8626C116.916 50.1024 117.098 50.2858 117.336 50.4128C117.575 50.5398 117.841 50.6104 118.135 50.6104C118.612 50.6104 119.019 50.4128 119.341 50.0319L120.056 50.695C119.832 50.9772 119.551 51.1888 119.201 51.3441C118.864 51.4851 118.486 51.5698 118.065 51.5698C117.575 51.5698 117.126 51.4569 116.733 51.2453" fill="#2553C3"/>
<path d="M123.8 50.3987C124.024 50.2717 124.206 50.0883 124.346 49.8484C124.473 49.6086 124.543 49.3405 124.543 49.0442C124.543 48.7479 124.473 48.4798 124.346 48.2399C124.22 48.0001 124.038 47.8167 123.8 47.6897C123.575 47.5627 123.309 47.4922 123.029 47.4922C122.748 47.4922 122.482 47.5627 122.257 47.6897C122.033 47.8167 121.851 48.0001 121.711 48.2399C121.584 48.4798 121.514 48.7479 121.514 49.0442C121.514 49.3405 121.584 49.6086 121.711 49.8484C121.837 50.0883 122.019 50.2717 122.257 50.3987C122.496 50.5257 122.748 50.5962 123.029 50.5962C123.309 50.5962 123.575 50.5257 123.8 50.3987ZM121.683 51.2311C121.276 51.0195 120.968 50.7091 120.743 50.3281C120.519 49.9472 120.407 49.5239 120.407 49.0442C120.407 48.5645 120.519 48.1412 120.743 47.7602C120.968 47.3793 121.29 47.083 121.683 46.8572C122.089 46.6456 122.538 46.5327 123.029 46.5327C123.519 46.5327 123.982 46.6456 124.374 46.8572C124.781 47.0689 125.09 47.3652 125.314 47.7602C125.538 48.1412 125.65 48.5645 125.65 49.0442C125.65 49.5239 125.538 49.9472 125.314 50.3281C125.09 50.7091 124.767 51.0054 124.374 51.2311C123.982 51.4428 123.533 51.5556 123.029 51.5556C122.524 51.5556 122.075 51.4428 121.683 51.2311Z" fill="#2553C3"/>
<path d="M130.922 46.6313V51.4709H130.01L127.613 48.5361V51.4709H126.505V46.6313H127.431L129.828 49.5661V46.6313H130.922Z" fill="#2553C3"/>
<path d="M135.17 50.3987C135.394 50.2717 135.576 50.0883 135.717 49.8484C135.843 49.6086 135.913 49.3405 135.913 49.0442C135.913 48.7479 135.843 48.4798 135.717 48.2399C135.59 48.0001 135.408 47.8167 135.17 47.6897C134.945 47.5627 134.679 47.4922 134.399 47.4922C134.118 47.4922 133.852 47.5627 133.628 47.6897C133.403 47.8167 133.221 48.0001 133.095 48.2399C132.969 48.4798 132.898 48.7479 132.898 49.0442C132.898 49.3405 132.969 49.6086 133.095 49.8484C133.221 50.0883 133.403 50.2717 133.628 50.3987C133.852 50.5257 134.118 50.5962 134.399 50.5962C134.679 50.5962 134.945 50.5257 135.17 50.3987ZM133.053 51.2311C132.646 51.0195 132.338 50.7091 132.113 50.3281C131.889 49.9472 131.777 49.5239 131.777 49.0442C131.777 48.5645 131.889 48.1412 132.113 47.7602C132.338 47.3793 132.66 47.083 133.053 46.8572C133.459 46.6456 133.908 46.5327 134.399 46.5327C134.889 46.5327 135.352 46.6456 135.745 46.8572C136.151 47.0689 136.46 47.3652 136.684 47.7602C136.908 48.1412 137.02 48.5645 137.02 49.0442C137.02 49.5239 136.908 49.9472 136.684 50.3281C136.46 50.7091 136.137 51.0054 135.745 51.2311C135.352 51.4428 134.903 51.5556 134.399 51.5556C133.894 51.5556 133.445 51.4428 133.053 51.2311Z" fill="#2553C3"/>
<path d="M142.25 51.4709L142.236 48.5643L140.82 50.9629H140.33L138.913 48.6349V51.4709H137.876V46.6313H138.787L140.596 49.6366L142.362 46.6313H143.288L143.302 51.4709H142.25Z" fill="#2553C3"/>
<path d="M146.751 49.7636V51.4709H145.629V49.7495L143.765 46.6313H144.956L146.246 48.776L147.522 46.6313H148.616L146.751 49.7636Z" fill="#2553C3"/>
<path d="M148.686 51.3299C148.559 51.2029 148.489 51.0336 148.489 50.8502C148.489 50.6667 148.545 50.4974 148.686 50.3704C148.826 50.2435 148.966 50.187 149.162 50.187C149.359 50.187 149.513 50.2435 149.639 50.3704C149.765 50.4974 149.835 50.6526 149.835 50.8502C149.835 51.0477 149.779 51.2029 149.639 51.3299C149.513 51.4569 149.344 51.5274 149.162 51.5274C148.98 51.5274 148.812 51.4569 148.686 51.3299Z" fill="#2553C3"/>
<path d="M153.41 47.7601C153.242 47.619 152.976 47.5485 152.639 47.5485H151.728V49.2416H152.639C152.976 49.2416 153.228 49.1711 153.41 49.0159C153.579 48.8607 153.677 48.6631 153.677 48.3951C153.677 48.127 153.593 47.9153 153.41 47.7743M153.691 51.485L152.765 50.1305H151.742V51.485H150.634V46.6455H152.723C153.144 46.6455 153.522 46.7161 153.831 46.8571C154.139 46.9982 154.392 47.2099 154.56 47.4638C154.728 47.7178 154.812 48.0423 154.812 48.3951C154.812 48.7478 154.728 49.0723 154.56 49.3263C154.392 49.5944 154.139 49.7919 153.831 49.9189L154.91 51.4709H153.719L153.691 51.485Z" fill="#2553C3"/>
<path d="M156.214 50.977C155.836 50.5961 155.64 50.0458 155.64 49.3403V46.6313H156.761V49.298C156.761 50.1587 157.126 50.5961 157.841 50.5961C158.191 50.5961 158.458 50.4973 158.64 50.2857C158.822 50.074 158.92 49.7495 158.92 49.298V46.6313H160.014V49.3403C160.014 50.0458 159.818 50.5961 159.439 50.977C159.061 51.358 158.528 51.5555 157.827 51.5555C157.126 51.5555 156.607 51.358 156.228 50.977" fill="#2553C3"/>
<path d="M35.093 23.1533C36.1726 22.0669 37.5185 21.5166 39.1169 21.5166C40.7152 21.5166 42.0471 22.0669 43.1407 23.1533C44.2203 24.2397 44.7671 25.6083 44.7671 27.2591C44.7671 28.9099 44.2203 30.2644 43.1407 31.3508C42.0611 32.4373 40.7152 32.9875 39.1169 32.9875C37.5185 32.9875 36.1866 32.4373 35.093 31.3508C34.0135 30.2644 33.4667 28.8958 33.4667 27.2591C33.4667 25.6225 34.0135 24.2538 35.093 23.1533ZM39.1169 35.5413C41.4162 35.5413 43.379 34.7371 44.9774 33.1286C46.5757 31.5202 47.3748 29.559 47.3748 27.245C47.3748 24.9311 46.5757 22.9699 44.9774 21.3614C43.379 19.753 41.4162 18.9487 39.1169 18.9487C36.8175 18.9487 34.8547 19.753 33.2564 21.3614C31.658 22.9699 30.8589 24.9311 30.8589 27.245C30.8589 29.559 31.658 31.5202 33.2564 33.1286C34.8547 34.7371 36.8175 35.5413 39.1169 35.5413Z" fill="#00BFFF"/>
<path d="M83.6031 31.3509C82.5235 32.4373 81.1776 32.9876 79.5793 32.9876C77.9809 32.9876 76.649 32.4514 75.5695 31.3509C74.4899 30.2645 73.9431 28.8959 73.9431 27.2592C73.9431 25.6225 74.4899 24.2539 75.5695 23.1675C76.649 22.0811 77.995 21.5308 79.5793 21.5308C81.1636 21.5308 82.5095 22.0811 83.6031 23.1675C84.6827 24.2539 85.2295 25.6225 85.2295 27.2592C85.2295 28.8959 84.6827 30.2645 83.6031 31.3509ZM79.5793 18.9629C77.2799 18.9629 75.3171 19.7671 73.7188 21.3756C72.1205 22.9841 71.3213 24.9453 71.3213 27.2592C71.3213 29.5731 72.1205 31.5343 73.7188 33.1428C75.3171 34.7513 77.2799 35.5555 79.5793 35.5555C81.8786 35.5555 83.8414 34.7513 85.4398 33.1428C87.0381 31.5343 87.8372 29.5731 87.8372 27.2592C87.8372 24.9453 87.0381 22.9841 85.4398 21.3756C83.8414 19.7671 81.8786 18.9629 79.5793 18.9629Z" fill="#00BFFF"/>
<path d="M141.241 19.0195H137.988L132.282 27.1042L138.226 35.6686H141.479L135.661 27.1324L141.241 19.0195Z" fill="#FF0054"/>
<path d="M27.6339 35.6827L21.8154 27.1466L27.3955 19.0337H24.1428L18.4365 27.1183L24.3811 35.6827H27.6339Z" fill="#FF0054"/>
<path d="M122.271 24.367L118.149 30.3211V19.0195H115.429V35.6686H117.56L124.29 25.9754V22.8573V21.4463L122.271 24.367Z" fill="#2553C3"/>
<path d="M126.267 21.2488V24.3811V35.6827H128.987V19.0195H126.267V21.2488Z" fill="#00BFFF"/>
<path d="M106.414 21.1922V24.3103V35.6119H109.134V18.9629H106.414V21.1922Z" fill="#00BFFF"/>
<path d="M95.6749 24.3103L101.003 31.9858L104.396 27.104V27.0899V27.104L104.41 22.589L101.003 27.4849L95.086 18.9629H92.9409V35.6119H95.6749V24.3103Z" fill="#2553C3"/>
<path d="M63.4559 25.7918H57.2729V28.402H63.4559V35.6119H66.1759V18.9629H63.4559V25.7918Z" fill="#2553C3"/>
<path d="M52.52 18.9629V35.6119H55.254V28.402V25.7777V18.9629H52.52Z" fill="#00BFFF"/>
<path d="M150.732 19.0195L144.704 35.6686H147.662L148.826 32.3246H153.803L152.906 29.7426H149.737L152.359 22.2365L157.07 35.6686H160L153.999 19.0195H150.732Z" fill="#2553C3"/>
<path d="M6.91202 19.0195C5.45391 19.0195 4.10796 19.3582 2.87417 20.0495C1.6544 20.7409 0.686996 21.6721 0 22.8573L2.28531 24.1836C2.70592 23.3934 3.33684 22.7585 4.16404 22.2929C4.99124 21.8273 5.90256 21.5874 6.91202 21.5874C8.38416 21.5874 9.63197 21.9966 10.6134 22.8291C11.6088 23.6615 12.2257 24.7479 12.4641 26.1165H4.78093V28.5998H15.1279C15.184 28.1906 15.2121 27.7814 15.2121 27.3582C15.2121 25.0019 14.4269 23.0266 12.8707 21.4322C11.3004 19.8379 9.32352 19.0336 6.91202 19.0336" fill="#2553C3"/>
<path d="M11.721 30.5891C11.4266 31.0688 11.062 31.5062 10.6134 31.8731C9.61795 32.6914 8.38416 33.1147 6.91202 33.1147C5.90256 33.1147 4.99124 32.8889 4.16404 32.4092C3.33684 31.9436 2.71994 31.3087 2.28531 30.5186L0 31.8307C0.686996 33.0018 1.64038 33.9471 2.87417 34.6385C4.10796 35.3298 5.45391 35.6826 6.91202 35.6826C9.32352 35.6826 11.3004 34.8783 12.8707 33.284C13.6558 32.4798 14.2306 31.5768 14.6232 30.5891H11.721Z" fill="#2553C3"/>
<path d="M15.0719 0.338867L11.3846 5.39001V0.338867H9.604V8.09901H11.3005L14.9738 3.06197V8.09901H16.7404V0.338867H15.0719Z" fill="#2553C3"/>
<path d="M25.5032 5.5873C25.1246 5.91182 24.5358 6.10935 23.7647 6.194V2.21517C25.3209 2.35626 26.078 3.00529 26.078 4.19048C26.078 4.79718 25.8817 5.26279 25.5032 5.5873ZM22.1243 6.194C20.582 6.02469 19.8109 5.36155 19.8109 4.19048C19.8109 3.58377 20.0072 3.11817 20.3858 2.80776C20.7643 2.48325 21.3532 2.28571 22.1243 2.21517V6.194ZM26.751 1.79189C26.064 1.19929 25.0686 0.86067 23.7647 0.790123V0H22.1243V0.804233C20.8204 0.888889 19.8249 1.2134 19.1239 1.79189C18.4369 2.37037 18.0864 3.1746 18.0864 4.19048C18.0864 5.20635 18.4369 5.99647 19.1239 6.60317C19.8249 7.18166 20.8204 7.50617 22.1243 7.60494V8.4515H23.7647V7.60494C25.0686 7.5485 26.064 7.20988 26.751 6.63139C27.452 6.0388 27.8025 5.23457 27.8025 4.20459C27.8025 3.1746 27.452 2.39859 26.751 1.806" fill="#2553C3"/>
<path d="M33.5927 4.13428C33.3123 4.37414 32.9057 4.48702 32.373 4.48702H30.9149V1.79213H32.373C32.9057 1.79213 33.3264 1.91911 33.5927 2.14486C33.8731 2.38472 34.0134 2.70924 34.0134 3.14663C34.0134 3.58402 33.8731 3.89442 33.5927 4.13428ZM35.4154 1.65104C35.135 1.22776 34.7564 0.903241 34.2517 0.677492C33.747 0.451742 33.1581 0.338867 32.4711 0.338867H29.1343V8.09901H30.9289V5.95439H32.4851C33.1721 5.95439 33.761 5.84151 34.2657 5.61576C34.7704 5.39001 35.163 5.0655 35.4294 4.64222C35.6958 4.21894 35.836 3.711 35.836 3.14663C35.836 2.58225 35.6958 2.06021 35.4294 1.65104" fill="#2553C3"/>
<path d="M42.8881 5.50243C42.6918 5.88338 42.3974 6.17968 42.0329 6.39132C41.6683 6.60296 41.2618 6.71584 40.7991 6.71584C40.3364 6.71584 39.9438 6.61707 39.5653 6.39132C39.2008 6.17968 38.9063 5.88338 38.7101 5.50243C38.4997 5.12148 38.3876 4.6982 38.3876 4.21848C38.3876 3.73876 38.4857 3.31548 38.7101 2.92042C38.9204 2.53947 39.2148 2.25728 39.5653 2.03153C39.9298 1.81989 40.3504 1.72113 40.7991 1.72113C41.2477 1.72113 41.6824 1.81989 42.0329 2.03153C42.3974 2.24317 42.6918 2.53947 42.8881 2.92042C43.0984 3.30137 43.2106 3.72465 43.2106 4.21848C43.2106 4.71231 43.0984 5.12148 42.8881 5.50243ZM44.4584 2.17263C44.0939 1.56592 43.5891 1.08621 42.9582 0.733472C42.3273 0.394847 41.5982 0.211426 40.7851 0.211426C39.9719 0.211426 39.2709 0.380738 38.6259 0.733472C37.981 1.08621 37.4763 1.56592 37.1117 2.17263C36.7472 2.77933 36.5649 3.47069 36.5649 4.23259C36.5649 4.99449 36.7472 5.67174 37.1117 6.29255C37.4763 6.89926 37.981 7.37897 38.6259 7.7176C39.2709 8.07033 39.9999 8.23964 40.7851 8.23964C41.5702 8.23964 42.3133 8.07033 42.9582 7.7176C43.5891 7.37897 44.0939 6.89926 44.4584 6.29255C44.8229 5.67174 45.0052 4.98039 45.0052 4.23259C45.0052 3.48479 44.8229 2.77933 44.4584 2.17263Z" fill="#2553C3"/>
<path d="M50.1228 6.75862H48.174V4.79742H50.1228C50.964 4.79742 51.3847 5.12194 51.3847 5.75686C51.3847 6.39178 50.964 6.75862 50.1228 6.75862ZM48.174 1.66515H49.8284C50.221 1.66515 50.5014 1.7498 50.7117 1.905C50.908 2.07432 51.0061 2.30007 51.0061 2.61047C51.0061 2.92088 50.908 3.16074 50.7117 3.31594C50.5154 3.48525 50.221 3.5558 49.8284 3.5558H48.174V1.66515ZM52.8287 4.74098C52.5764 4.41647 52.2118 4.19072 51.7492 4.04963C52.0857 3.89442 52.3661 3.66867 52.5483 3.37238C52.7306 3.07608 52.8287 2.73746 52.8287 2.3565C52.8287 1.70747 52.5764 1.21365 52.0716 0.860913C51.5669 0.508179 50.8799 0.338867 49.9826 0.338867H46.3794V8.09901H50.1789C51.1463 8.09901 51.8754 7.90148 52.3941 7.53464C52.9129 7.13957 53.1793 6.60342 53.1793 5.91206C53.1793 5.44645 53.0531 5.0655 52.8007 4.74098" fill="#2553C3"/>
<path d="M56.8246 5.0655L58.0443 2.08843L59.2641 5.0655H56.8246ZM58.9416 0.338867H57.1751L53.7261 8.09901H55.5627L56.2497 6.43411H59.8389L60.5119 8.09901H62.3906L58.9416 0.338867Z" fill="#2553C3"/>
<path d="M67.4097 4.614H65.8394C65.3487 4.614 64.9702 4.48702 64.7178 4.24716C64.4654 3.99319 64.3252 3.65456 64.3252 3.20306C64.3252 2.75157 64.4514 2.38472 64.7178 2.15897C64.9982 1.91911 65.3768 1.79213 65.8815 1.79213H67.4097V4.614ZM65.8394 0.338867C65.1664 0.338867 64.5776 0.451742 64.0869 0.677492C63.5821 0.91735 63.2036 1.24187 62.9232 1.67926C62.6568 2.11664 62.5166 2.63869 62.5166 3.23128C62.5166 3.82388 62.6568 4.36003 62.9372 4.79742C63.2176 5.23481 63.6102 5.54522 64.1289 5.77097L62.5306 8.11312H64.4093L65.7833 6.05315H67.4237V8.11312H69.1903V0.338867H65.8534H65.8394Z" fill="#2553C3"/>
<path d="M8.08973 6.63164H6.98212V0.338867H5.20154V6.63164H1.76656V0.338867H0V8.09901H6.98212H8.08973H8.44024V6.63164H8.08973Z" fill="#2553C3"/>
</g>
<defs>
<clipPath id="clip0_4904_3422">
<rect width="160" height="51.5556" fill="white"/>
</clipPath>
</defs>
</svg>
