<svg width="150" height="28" viewBox="0 0 150 28" fill="none" xmlns="http://www.w3.org/2000/svg">
<g clip-path="url(#clip0_4904_3090)">
<path d="M61.7638 12.2856H49.4878V6.25895H65.9889V3.22241H46.6147V24.2458H61.7177C65.0978 24.2458 67.7404 21.5811 67.7404 18.1727C67.7404 15.3686 65.5126 12.2856 61.7638 12.2856ZM61.7177 21.2093H49.4417V15.1362H61.7177C63.3924 15.1362 64.7291 16.484 64.7291 18.1727C64.7291 19.8614 63.3924 21.2093 61.7177 21.2093Z" fill="#323E48"/>
<path d="M44.6175 13.7418C44.6175 16.639 43.4652 19.2572 41.56 21.1783C39.6549 23.0994 37.0583 24.2613 34.1852 24.2613H22.0015V21.2247H34.1852C37.7958 21.2247 40.8072 18.6065 41.4678 15.1517H25.4891V12.2546H41.4678C40.7764 8.84619 37.8112 6.22795 34.1852 6.22795H22.0015V3.19141H34.1852C39.9314 3.23788 44.6175 7.96312 44.6175 13.7573" fill="#323E48"/>
<path d="M18.3448 13.463C19.3588 12.394 20.0195 10.8912 20.0195 9.26449C20.0195 5.9026 17.3307 3.19141 14.0428 3.19141H0V24.1993H14.5498C17.8838 24.1993 20.5726 21.4881 20.5726 18.1262C20.5726 16.2516 19.6968 14.5784 18.3448 13.4475M13.9967 6.25893C15.6253 6.25893 16.962 7.60679 16.962 9.249C16.962 10.8912 15.6253 12.2391 13.9967 12.2391H2.87309V6.25893H13.9967ZM14.5498 21.2093H2.87309V15.1362H14.5498C16.2245 15.1362 17.5612 16.484 17.5612 18.1727C17.5612 19.8614 16.2245 21.2093 14.5498 21.2093Z" fill="#323E48"/>
<path d="M82.6128 24.2459H85.7163V20.977H108.655V3.17603H82.6128V24.2459ZM85.7163 6.25905H105.551V17.894H85.7163V6.25905Z" fill="#616E7D"/>
<path d="M111.62 20.977H129.274V24.2459H132.331V20.977H149.985V3.17603H111.574V20.977H111.62ZM132.377 6.25905H146.973V17.894H132.377V6.25905ZM114.678 6.25905H129.274V17.894H114.678V6.25905Z" fill="#616E7D"/>
<path d="M76.6363 0H73.5327V27.5148H76.6363V0Z" fill="#616E7D"/>
</g>
<defs>
<clipPath id="clip0_4904_3090">
<rect width="150" height="27.5148" fill="white"/>
</clipPath>
</defs>
</svg>
