<svg width="161" height="134" viewBox="0 0 161 134" fill="none" xmlns="http://www.w3.org/2000/svg">
<g clip-path="url(#clip0_4904_3579)">
<path fill-rule="evenodd" clip-rule="evenodd" d="M96.4303 93.9975L98.2565 91.3883C96.5281 90.1815 94.7997 88.9584 93.055 87.7517L93.9681 86.447C95.6965 87.6538 97.4249 88.8769 99.1696 90.0836C99.7729 89.2193 100.376 88.355 100.996 87.4744C99.2674 86.2677 97.539 85.0446 95.7944 83.8378L96.7075 82.5332C98.4358 83.74 101.485 85.8763 103.213 87.083L104.126 85.7947L105.415 86.708L104.501 88.0126L103.213 87.0993C101.094 90.1326 98.9739 93.1658 96.8379 96.199L96.1857 95.7424L95.7617 95.4489L95.5335 95.2858C93.8051 94.079 92.0767 92.8559 90.332 91.6492L91.2451 90.3609C92.9735 91.5676 94.7019 92.7907 96.4466 93.9975H96.4303Z" fill="#E41D37"/>
<path fill-rule="evenodd" clip-rule="evenodd" d="M79.8639 106.603L80.5813 105.576L80.777 105.298L83.5 101.401L83.6956 101.124L84.4131 100.096L85.2773 100.7L85.7012 100.993L89.5982 103.716L90.0221 104.01L90.8863 104.613L90.332 105.396L89.9732 105.918L87.2502 109.816L86.8752 110.337L86.3208 111.12L85.3588 110.452L85.0164 110.207L81.1194 107.484L80.777 107.239L79.8149 106.57H79.8476L79.8639 106.603ZM88.7014 105.021L84.8044 102.298L82.0814 106.195L85.9784 108.919L88.7014 105.021Z" fill="#E41D37"/>
<path fill-rule="evenodd" clip-rule="evenodd" d="M91.8484 100.553L92.3376 99.8516L93.0224 98.8569L93.2996 98.4655L93.9355 97.5523L92.6474 96.639L92.0441 97.5033L91.7506 97.9273L90.8375 99.2156L90.544 99.6559L89.9407 100.52L91.2451 101.433L91.881 100.52L91.8484 100.553ZM89.0113 101.857L88.6851 101.629L88.0166 101.173L87.6905 100.944L86.4024 100.031L85.1143 99.1178L86.0274 97.8132C86.9242 96.5086 87.8536 95.204 88.7504 93.8993L89.6635 92.5947L90.9516 93.508L90.0385 94.7963L89.3537 95.791L89.1254 96.1172L88.2123 97.4055L87.984 97.7316L87.2992 98.7101L88.6036 99.6233L89.2069 98.759L89.5004 98.3187L90.4135 97.0141L90.707 96.5901L91.3103 95.7258L92.2234 94.4212L93.2181 95.1061L93.5442 95.3344L94.8323 96.2476L96.1367 97.1609L95.2236 98.4492C94.3105 99.7375 93.4137 101.058 92.5006 102.347L91.5875 103.651L90.2831 102.738L88.995 101.825L89.0113 101.857Z" fill="#E41D37"/>
<path fill-rule="evenodd" clip-rule="evenodd" d="M103.735 83.5767L104.648 82.2721L105.561 80.9838L106.474 79.6792L106.849 79.1574L107.388 78.3746L108.676 79.2878L108.138 80.0706C106.98 81.7177 105.822 83.3647 104.681 85.0281L104.143 85.8109L103.099 85.077C101.632 84.0333 100.148 83.006 98.6642 81.9786L97.6206 81.2447L98.1587 80.462L98.5337 79.9401L99.4468 78.6355L100.36 77.3309L101.273 76.0263L101.632 75.5044L102.17 74.7217L103.474 75.6349L102.936 76.4014L102.561 76.9232L101.648 78.2278L100.735 79.5324L99.8218 80.8371L101.11 81.7503L102.023 80.4457L102.936 79.1411L103.849 77.8528L104.224 77.3309L104.762 76.5481L106.067 77.4614L105.529 78.2278L105.154 78.7497L104.241 80.0543L103.328 81.3589L102.414 82.6472L103.719 83.5604L103.735 83.5767Z" fill="#E41D37"/>
<path fill-rule="evenodd" clip-rule="evenodd" d="M102.855 73.7595L103.442 72.9441C104.567 71.3296 105.708 69.7152 106.833 68.1007L107.42 67.269L108.317 67.905L108.725 68.1823L110.013 69.0955L110.42 69.3727L111.317 70.0087L110.73 70.8241L110.404 71.297L109.491 72.6016L108.578 73.89L107.665 75.1946L108.953 76.1078L109.279 76.3361L110.257 77.021L109.344 78.3093L108.366 77.6244C106.85 76.5481 105.333 75.5044 103.817 74.4281L102.838 73.7432L102.855 73.7595ZM109.1 70.4001L107.812 69.4869L106.898 70.7915L105.985 72.0961L105.072 73.4007L106.377 74.3139L107.29 73.0093L108.203 71.721L109.116 70.4164L109.1 70.4001Z" fill="#E41D37"/>
<path fill-rule="evenodd" clip-rule="evenodd" d="M108.089 66.2907L108.839 65.2144C109.85 63.7631 110.861 62.328 111.872 60.8766L112.622 59.8003L113.633 60.5015C115.1 61.5615 116.617 62.5726 118.084 63.6326L119.095 64.3338L118.345 65.4101C117.334 66.8615 116.323 68.2966 115.312 69.748L114.562 70.8243L113.551 70.123L113.274 69.9274L111.986 69.0141L110.681 68.1009L109.377 67.1877L109.1 66.992L108.089 66.2907ZM116.926 64.7415L115.638 63.8283L114.334 62.9151L113.046 62.0018L112.133 63.3064L111.22 64.5947L110.306 65.8994L111.611 66.8126L112.899 67.7258L114.203 68.639L115.117 67.3344L116.03 66.0461L116.943 64.7415H116.926Z" fill="#E41D37"/>
<path fill-rule="evenodd" clip-rule="evenodd" d="M113.323 58.8056C114.839 56.6367 116.356 54.4677 117.872 52.2988L119.16 53.2121L118.524 54.1253L118.247 54.5167L117.334 55.8213L116.421 57.1259L115.508 58.4305L116.796 59.3437L118.084 60.257L119.372 61.1702L120.285 59.8656L121.199 58.5773L122.112 57.2727L122.389 56.8813L123.025 55.9681L124.329 56.8813C122.813 59.0502 121.296 61.2191 119.78 63.388L118.834 62.7357C117.285 61.6757 115.753 60.5668 114.204 59.5068L113.258 58.8545H113.274L113.323 58.8056Z" fill="#E41D37"/>
<path fill-rule="evenodd" clip-rule="evenodd" d="M123.775 43.8674L124.688 42.5791L125.748 43.3129C127.199 44.3403 128.667 45.3514 130.118 46.3951L131.178 47.1289L130.264 48.4172L129.205 47.6834L128.96 47.504L127.656 46.5908L126.367 45.6776L125.079 44.7643L124.835 44.5849L123.775 43.8511V43.8674ZM133.77 41.1766L134.83 41.9105L133.917 43.2151L132.857 42.4812C131.406 41.4539 129.938 40.4428 128.487 39.3991L127.427 38.6653L128.34 37.377L129.4 38.1108L129.645 38.2902L130.949 39.2034L132.237 40.1166L133.526 41.0299L133.77 41.2093V41.1766ZM127.802 40.8831L128.715 39.5785L130.004 40.4917L129.09 41.78L127.802 40.8668V40.8831ZM128.194 43.0846L129.107 41.78L130.411 42.6932L129.498 43.9816L128.21 43.0683L128.194 43.0846ZM128.585 45.2862L129.498 43.9816L130.803 44.8948L129.889 46.1994L128.601 45.2862H128.585Z" fill="#E41D37"/>
<path fill-rule="evenodd" clip-rule="evenodd" d="M135.123 38.7306L135.645 39.1057L136.411 39.6439L135.498 40.9485L134.732 40.4103C133.085 39.2525 131.438 38.0946 129.791 36.9531L129.009 36.415L129.922 35.1103L130.705 35.6485L131.226 36.0236L132.514 36.9368L133.803 37.85L134.716 36.5454L136.004 37.4586L135.091 38.747L135.123 38.7306ZM139.298 33.9036L140.064 34.4417L139.151 35.7463L138.384 35.2082C136.738 34.0503 135.091 32.9088 133.444 31.751L132.661 31.2128L133.574 29.9082L134.357 30.4464L134.879 30.8214L136.167 31.7347L137.455 32.6479L138.759 33.5611L139.281 33.9362L139.298 33.9036ZM133.053 33.398L133.966 32.0934L135.27 33.0067L134.357 34.295L133.069 33.3817L133.053 33.398ZM133.444 35.5996L134.357 34.295L135.661 35.2082L134.748 36.5128L133.46 35.5996H133.444Z" fill="#E41D37"/>
<path d="M130.448 31.5968L129.541 32.8926L130.837 33.7999L131.744 32.5041L130.448 31.5968Z" fill="#E41D37"/>
<path fill-rule="evenodd" clip-rule="evenodd" d="M118.557 51.3363L119.16 50.472C120.269 48.8902 121.394 47.292 122.503 45.6939L123.106 44.8296L124.394 45.7428L123.791 46.6071L123.481 47.0474L122.568 48.3357L121.655 49.6403L120.742 50.945L122.03 51.8582L123.334 52.7714L124.639 53.6846L125.552 52.38L126.465 51.0754L127.378 49.7871L127.688 49.3468L128.291 48.4825L129.579 49.3957L128.976 50.26C127.851 51.8419 126.758 53.4563 125.633 55.0382L125.03 55.9025L124.133 55.2828L123.726 54.9893L122.421 54.076L121.117 53.1628L119.812 52.2496L119.405 51.9723L118.508 51.3363H118.557Z" fill="#E41D37"/>
<path fill-rule="evenodd" clip-rule="evenodd" d="M134.243 28.9135L134.797 28.1144C135.938 26.4837 137.08 24.8366 138.238 23.2058L138.792 22.4067L140.08 23.32L139.526 24.119L139.167 24.6246L138.254 25.9129L137.341 27.2175L136.428 28.5221L137.732 29.4353L139.02 30.3486L140.325 31.2618L141.238 29.9572L142.151 28.6526L143.064 27.3643L143.423 26.8587L143.977 26.0597L145.281 26.9729L144.727 27.772C143.586 29.4027 142.444 31.0498 141.287 32.6806L140.732 33.4796L139.721 32.7784L139.428 32.5827L138.123 31.6695L136.835 30.7563L135.531 29.843L135.254 29.6473L134.243 28.9298V28.9135Z" fill="#E41D37"/>
<path fill-rule="evenodd" clip-rule="evenodd" d="M145.591 23.7929L145.852 23.9722L146.896 24.7061L145.982 25.9944L144.939 25.2768C143.471 24.2495 142.004 23.2058 140.52 22.1784L139.477 21.4445L140.39 20.1562L141.433 20.8901L141.694 21.0695L142.999 21.9827L143.912 20.6781L144.221 20.2378L144.825 19.3735L146.113 20.2867L145.51 21.151L145.2 21.5913L144.287 22.8959L145.591 23.8092V23.7929ZM143.129 16.2587L144.042 14.9541L145.347 15.8673L144.433 17.1719L145.722 18.0852L144.808 19.3898L143.52 18.4766L144.433 17.1719L143.129 16.2587ZM148.33 19.8953L149.244 18.5907L150.548 19.5039L149.635 20.8086L148.347 19.8953L147.434 21.1999L146.129 20.2867L147.042 18.9821L148.33 19.8953Z" fill="#E41D37"/>
<path fill-rule="evenodd" clip-rule="evenodd" d="M144.711 13.9595L145.624 12.6549L146.276 13.1115C148.005 14.3183 149.733 15.5413 151.461 16.7481L152.114 17.2047L151.201 18.5093L150.548 18.0527L149.896 17.5961L148.608 16.6829L147.303 15.7696L146.015 14.8564L145.363 14.3998L144.711 13.9432V13.9595ZM155.098 11.5623L155.75 12.0189L154.837 13.3235L154.184 12.8669C152.456 11.6601 150.728 10.437 148.999 9.23027L148.347 8.77366L149.26 7.48535L149.912 7.94197L150.565 8.39858L151.869 9.31181L153.157 10.225L154.445 11.1383L155.098 11.5949V11.5623ZM148.738 10.9752L149.651 9.67058L150.94 10.5838L150.027 11.8721L148.738 10.9589V10.9752ZM149.13 13.1767L150.043 11.8721L151.347 12.7853L150.434 14.0736L149.146 13.1604L149.13 13.1767ZM149.521 15.3783L150.434 14.0736L151.739 14.9869L150.825 16.2915L149.537 15.3783H149.521Z" fill="#E41D37"/>
<path fill-rule="evenodd" clip-rule="evenodd" d="M156.06 8.83875L156.712 9.29536L157.364 9.75198L156.451 11.0566L155.799 10.6C154.07 9.39321 152.342 8.17014 150.614 6.96337L149.961 6.50675L150.875 5.20214L151.527 5.65876L152.179 6.11537L153.467 7.0286L154.755 7.94183L155.668 6.65352L156.956 7.56675L156.043 8.87136L156.06 8.83875ZM160.348 4.09322L161 4.54984L160.087 5.83814L159.435 5.38153C157.707 4.17476 155.978 2.95169 154.25 1.74492L153.598 1.2883L154.511 0L155.163 0.456614L155.815 0.913229L157.12 1.82646L158.408 2.73969L159.712 3.65291L160.364 4.10953L160.348 4.09322ZM153.989 3.50615L154.902 2.20153L156.206 3.11476L155.293 4.40307L154.005 3.48984L153.989 3.50615ZM154.38 5.70768L155.293 4.40307L156.598 5.3163L155.685 6.62091L154.397 5.70768H154.38Z" fill="#E41D37"/>
<path d="M151.371 1.693L150.463 2.98877L151.759 3.89608L152.666 2.60031L151.371 1.693Z" fill="#E41D37"/>
<path fill-rule="evenodd" clip-rule="evenodd" d="M108.448 92.6925L109.556 93.4753L111.04 94.5027L110.127 95.8073L108.643 94.7636L107.534 93.9808L107.159 93.7362L106.214 93.0839L104.926 92.1707L103.621 91.2575L104.306 90.2627C105.284 88.8602 106.279 87.4415 107.274 86.039L107.958 85.0605L109.263 85.9738L110.551 86.887L111.839 87.8002L111.154 88.7787L110.926 89.1048L110.241 90.0833L109.328 91.3879L108.415 92.6762L108.448 92.6925ZM105.839 90.8824L107.127 91.7956L108.04 90.491L108.953 89.1864L109.638 88.2079L108.35 87.2947L107.665 88.2732L106.752 89.5615L105.839 90.8661V90.8824Z" fill="#0C54A0"/>
<path fill-rule="evenodd" clip-rule="evenodd" d="M97.3762 105.755L97.6045 105.429L98.5013 104.124L99.4144 102.82L98.1263 101.923L96.8219 101.01L97.735 99.7051L99.0231 100.618L100.328 101.532L101.224 102.151L101.616 102.445L102.724 103.211L104.225 104.255L103.311 105.56L101.811 104.5L100.719 103.733L99.8058 105.038L98.8926 106.342L98.6644 106.652L97.9795 107.631L99.1209 108.43L100.588 109.457L99.6753 110.762L98.1915 109.734L97.0827 108.935L96.724 108.691L95.7783 108.022L94.4902 107.109L93.1694 106.212L94.0825 104.907L95.387 105.82L96.6914 106.734L97.3762 105.755Z" fill="#0C54A0"/>
<path fill-rule="evenodd" clip-rule="evenodd" d="M108.007 95.775L109.458 96.7861L108.545 98.0744L107.094 97.0633L105.936 96.2642L105.023 97.5688L104.11 98.8571L103.882 99.1833L103.197 100.162L104.355 100.961L105.806 101.972L104.893 103.277L103.442 102.265L102.284 101.466L101.991 101.254L100.996 100.553L99.6915 99.6399L98.4033 98.7267L99.3164 97.4221L100.001 96.4273L100.23 96.1011L101.143 94.7965L102.056 93.4919L102.969 92.2036L104.257 93.1168L105.561 94.0301L106.556 94.7313L106.85 94.9433L108.007 95.7424V95.775ZM103.735 96.6556L104.648 95.351L103.36 94.4378L102.447 95.7261L101.534 97.0307L101.306 97.3568L100.621 98.3353L101.909 99.2485L102.594 98.2538L102.822 97.9276L103.735 96.623V96.6556Z" fill="#0C54A0"/>
<path fill-rule="evenodd" clip-rule="evenodd" d="M111.448 80.1196L112.296 78.9128L112.475 78.6519L113.209 77.6245L114.513 78.5377L115.818 79.451L116.682 80.0544L117.122 80.3479L118.198 81.098L119.715 82.158L118.981 83.1854C117.937 84.6531 116.91 86.1208 115.883 87.6048L115.149 88.6322L113.633 87.5722L112.557 86.822L112.116 86.5285L111.252 85.9251L109.964 85.0119L108.66 84.0987L109.393 83.0713L109.573 82.8103L110.421 81.6036L111.464 80.1359L111.448 80.1196ZM116.193 81.6362L115.753 81.3427L114.888 80.7393L113.6 79.826L112.752 81.0328L111.709 82.5005L110.861 83.7073L112.165 84.6205L113.03 85.2239L113.47 85.5174L114.546 86.2676L114.758 86.4306L115.606 85.2239L116.649 83.7562L117.497 82.5494L117.285 82.3864L116.209 81.6362H116.193Z" fill="#0C54A0"/>
<path fill-rule="evenodd" clip-rule="evenodd" d="M119.568 68.5085L120.481 67.2039L121.785 68.1171L123.074 69.0304C123.987 67.7258 124.9 66.4211 125.797 65.1328L124.492 64.2196L123.204 63.3064L124.117 62.0181C126.286 63.5347 128.454 65.0513 130.623 66.5679L129.71 67.8562L128.242 66.8288L127.117 66.0461C126.204 67.3507 125.291 68.6553 124.394 69.9436L125.519 70.7264L126.987 71.7537L126.074 73.0583C123.905 71.5417 121.736 70.0251 119.568 68.5085Z" fill="#0C54A0"/>
<path fill-rule="evenodd" clip-rule="evenodd" d="M130.134 58.9687L131.047 57.6641L132.352 58.5773L131.438 59.8819L130.525 61.1702L129.612 62.4748L130.9 63.388L131.813 62.0997L132.727 60.7951L133.64 59.4905L134.928 60.4037L134.015 61.7084L133.102 63.013L132.189 64.3176L131.275 65.6059C129.107 64.0893 126.938 62.5727 124.77 61.0561L125.683 59.7678L126.987 60.681L128.292 61.5942L129.205 60.3059L130.118 59.0013H130.134V58.9687Z" fill="#0C54A0"/>
<path fill-rule="evenodd" clip-rule="evenodd" d="M132.335 58.5772L133.248 57.2726L132.156 56.5062L130.753 55.5277L129.351 54.5492L130.264 53.2446L131.65 54.2231L133.052 55.2015L134.161 55.968L134.455 56.18L135.466 56.8812L136.754 57.7945L135.841 59.0991L134.553 58.1858L133.639 59.4905L132.335 58.5772Z" fill="#0C54A0"/>
<path fill-rule="evenodd" clip-rule="evenodd" d="M139.379 48.499L139.933 48.8903L140.683 49.4122L141.971 50.3254L141.058 51.6137L139.754 50.7005L139.004 50.1787L138.449 49.7873L137.52 49.135L137.145 48.874L136.232 50.1787L137.52 51.0919L136.607 52.3965L135.302 51.4833L136.216 50.195L134.911 49.2817L135.824 47.9771L134.52 47.0639L135.433 45.7593L136.917 46.803L138.401 47.8467L139.33 48.499H139.379ZM137.031 54.6143L138.319 55.5276L137.406 56.8159L136.118 55.9026L135.27 55.3156L134.83 54.9894L133.835 54.2882L132.384 53.2771L130.933 52.266L131.846 50.9777L133.297 51.9888L134.748 52.9999L135.743 53.7011L136.656 52.4128L137.944 53.326L137.031 54.6306V54.6143Z" fill="#0C54A0"/>
<path d="M132.378 47.4581L131.47 48.7529L132.764 49.6616L133.673 48.3668L132.378 47.4581Z" fill="#0C54A0"/>
<path fill-rule="evenodd" clip-rule="evenodd" d="M119.698 82.1579L120.595 80.8696L119.307 79.9563C117.513 78.717 118.035 79.0594 115.41 77.233L114.105 76.3197C115.622 74.1508 117.138 71.9819 118.655 69.813L120.09 70.8241C121.329 71.7047 122.601 72.569 123.84 73.4496L125.128 74.3628L126.025 73.0745L127.313 73.9877L126.4 75.2924L125.095 74.3791C123.726 76.3197 121.916 78.9127 120.562 80.8696L121.851 81.7828L120.937 83.0874L119.649 82.1742L119.698 82.1579ZM120.22 78.6517C121.133 77.3471 122.046 76.0425 122.943 74.7542C121.704 73.8736 120.432 73.0093 119.193 72.1287L119.046 72.0308C118.133 73.3354 117.22 74.6401 116.323 75.9284C118.166 77.2167 118.769 77.6407 120.22 78.6517Z" fill="#0C54A0"/>
<path fill-rule="evenodd" clip-rule="evenodd" d="M112.703 111.153L111.399 110.24L106.197 106.603L108.92 102.706L107.632 101.792L108.545 100.488L109.833 101.401L110.746 100.113L112.573 97.5034C115.41 99.493 116.519 100.276 119.079 102.053L116.356 105.951L117.644 106.864L116.731 108.152L115.426 107.239C114.268 108.902 114.317 108.805 112.703 111.137V111.153ZM114.138 106.342L110.241 103.619L108.415 106.228L112.312 108.951C113.453 107.321 112.997 107.989 114.138 106.342ZM112.964 99.7049L111.138 102.314L113.747 104.141L115.035 105.054L116.845 102.445C115.41 101.434 114.676 100.928 112.948 99.7213" fill="#727271"/>
<path fill-rule="evenodd" clip-rule="evenodd" d="M131.927 69.8783L132.84 68.5737L134.145 69.487L132.319 72.0962L137.52 75.7328L136.607 77.0374C134.879 75.8306 133.15 74.6076 131.406 73.4008C130.802 74.2651 130.199 75.1294 129.579 76.01L128.275 75.0968C129.482 73.3682 130.704 71.6396 131.911 69.8947L131.927 69.8783Z" fill="#727271"/>
<path fill-rule="evenodd" clip-rule="evenodd" d="M133.476 78.7172L134.781 79.6304L133.868 80.935L131.275 79.1086L130.362 80.4132L128.536 83.0061L129.84 83.9193V83.9356V83.9193L131.145 84.8325L130.231 86.1372L128.927 85.2239L127.623 84.3107L123.726 81.5873L124.639 80.2827L127.248 82.0929L129.057 79.4999L129.971 78.1953L127.362 76.3852L128.275 75.0806L129.579 75.9938L132.172 77.8203L133.476 78.7172Z" fill="#727271"/>
<path fill-rule="evenodd" clip-rule="evenodd" d="M118.492 89.0561C120.008 86.8872 121.525 84.7182 123.041 82.5493C125.21 84.0659 127.378 85.5825 129.547 87.0992C128.03 89.2681 126.514 91.437 124.998 93.6059L118.492 89.0561ZM123.432 84.7672L120.709 88.6647L124.606 91.3881C125.519 90.0835 126.432 88.7788 127.329 87.4905L123.432 84.7672Z" fill="#727271"/>
<path fill-rule="evenodd" clip-rule="evenodd" d="M118.198 92.2359L117.285 93.5405L115.459 96.1497L116.747 97.063L117.66 95.7584L119.47 93.1491L118.182 92.2359H118.198ZM117.807 90.0344L121.704 92.7578L120.791 94.0624L118.068 97.9599L119.372 98.8731L120.66 99.7863L119.747 101.075L117.138 99.2482L113.241 96.5248C114.611 94.5842 115.915 92.6925 117.79 90.0181L117.807 90.0344Z" fill="#727271"/>
<mask id="mask0_4904_3579" style="mask-type:luminance" maskUnits="userSpaceOnUse" x="41" y="48" width="44" height="54">
<path d="M41.3506 48.8901L78.5107 101.988L84.6742 93.1817L53.6775 48.8901H41.3506Z" fill="white"/>
</mask>
<g mask="url(#mask0_4904_3579)">
<path d="M70.6616 28.6074L16.5112 66.0381L55.346 122.235L109.496 84.8042L70.6616 28.6074Z" fill="url(#paint0_linear_4904_3579)"/>
</g>
<mask id="mask1_4904_3579" style="mask-type:luminance" maskUnits="userSpaceOnUse" x="29" y="48" width="50" height="63">
<path d="M29.0239 48.8901L72.3638 110.794L78.511 101.988L41.3508 48.8901H29.0239Z" fill="white"/>
</mask>
<g mask="url(#mask1_4904_3579)">
<path d="M62.3756 25.6935L-0.00292969 69.0859L45.1526 134.017L107.531 90.6242L62.3756 25.6935Z" fill="url(#paint1_linear_4904_3579)"/>
</g>
<mask id="mask2_4904_3579" style="mask-type:luminance" maskUnits="userSpaceOnUse" x="53" y="48" width="38" height="46">
<path d="M53.6777 48.8901L84.6744 93.1817L90.8379 84.3756L66.0047 48.8901H53.6777Z" fill="white"/>
</mask>
<g mask="url(#mask2_4904_3579)">
<path d="M78.2257 31.2845L32.7017 63.917L66.2796 110.773L111.804 78.1402L78.2257 31.2845Z" fill="url(#paint2_linear_4904_3579)"/>
</g>
<path fill-rule="evenodd" clip-rule="evenodd" d="M91.5715 83.3156L90.8378 84.3756L65.9883 48.8901H67.4721L91.5715 83.3156Z" fill="#B2B3B3"/>
</g>
<defs>
<linearGradient id="paint0_linear_4904_3579" x1="47.4913" y1="57.6296" x2="64.914" y2="82.8348" gradientUnits="userSpaceOnUse">
<stop stop-color="#00A0E3"/>
<stop offset="1" stop-color="#0C54A0"/>
</linearGradient>
<linearGradient id="paint1_linear_4904_3579" x1="48.0913" y1="66.2396" x2="71.8558" y2="100.402" gradientUnits="userSpaceOnUse">
<stop stop-color="#E41D37"/>
<stop offset="1" stop-color="#AF212E"/>
</linearGradient>
<linearGradient id="paint2_linear_4904_3579" x1="64.816" y1="62.5926" x2="76.074" y2="78.2981" gradientUnits="userSpaceOnUse">
<stop stop-color="#FEFEFE"/>
<stop offset="1" stop-color="#D9DADA"/>
</linearGradient>
<clipPath id="clip0_4904_3579">
<rect width="161" height="134" fill="white"/>
</clipPath>
</defs>
</svg>
