<svg width="150" height="23" viewBox="0 0 150 23" fill="none" xmlns="http://www.w3.org/2000/svg">
<g clip-path="url(#clip0_4904_3238)">
<path d="M5.91363 3.7998C9.13175 3.7998 11.731 6.2465 11.731 9.55432C11.731 12.8621 9.09049 15.3088 6.07867 15.3088C4.64839 15.3088 3.27313 14.8714 2.26918 13.6823H2.15916V22.0338H0V10.4154C0 6.41052 2.26919 3.7998 5.91363 3.7998ZM5.85862 13.3542C7.97653 13.3542 9.44806 11.6183 9.44806 9.49964C9.44806 7.381 8.01779 5.69975 5.85862 5.69975C3.69946 5.69975 2.21417 7.381 2.21417 9.49964C2.21417 11.6183 3.74072 13.3542 5.85862 13.3542Z" fill="#8566D0"/>
<path d="M13.7388 9.55432C13.7388 6.2465 16.4343 3.7998 19.5974 3.7998C22.7605 3.7998 25.456 6.2465 25.456 9.55432C25.456 12.8621 22.7605 15.3088 19.5974 15.3088C16.4343 15.3088 13.7388 12.8621 13.7388 9.55432ZM19.5974 13.3542C21.7703 13.3542 23.1868 11.673 23.1868 9.55432C23.1868 7.43567 21.7015 5.75442 19.5974 5.75442C17.4932 5.75442 16.008 7.43567 16.008 9.55432C16.008 11.673 17.4382 13.3542 19.5974 13.3542Z" fill="#8566D0"/>
<path d="M33.3912 15.3088C30.008 15.3088 27.4775 12.8621 27.4775 9.55432C27.4775 6.2465 29.9668 3.7998 33.3362 3.7998C35.9217 3.7998 38.3009 5.20768 38.9335 7.98242H36.7193C36.1967 6.51987 34.8765 5.75442 33.3912 5.75442C31.122 5.75442 29.7467 7.49035 29.7467 9.60899C29.7467 11.7276 31.177 13.4089 33.4462 13.4089C34.9315 13.4089 36.2517 12.6981 36.7743 11.1262H38.9885C38.1908 13.9556 35.8666 15.3088 33.3912 15.3088Z" fill="#8566D0"/>
<path d="M46.9653 13.737L43.4309 6.1372H43.3759V15.0902H41.313V4.01855H44.5861L48.0793 11.5637H48.1343L51.6137 4.01855H54.9006V15.0355H52.8377V6.1372H52.7827L49.2483 13.737H46.9653Z" fill="#8566D0"/>
<path d="M57.2246 9.55432C57.2246 6.2465 59.9201 3.7998 63.097 3.7998C66.2738 3.7998 68.9556 6.2465 68.9556 9.55432C68.9556 12.8621 66.2601 15.3088 63.097 15.3088C59.9339 15.3088 57.2246 12.8621 57.2246 9.55432ZM63.1382 13.3542C65.3112 13.3542 66.7277 11.673 66.7277 9.55432C66.7277 7.43567 65.2424 5.75442 63.1382 5.75442C61.0341 5.75442 59.5488 7.43567 59.5488 9.55432C59.4938 11.673 60.9791 13.3542 63.1382 13.3542Z" fill="#8566D0"/>
<path d="M70.0562 15.1448V12.8622H70.1112C70.5375 12.8622 71.0051 12.6981 71.3214 12.3154C71.7477 11.878 71.899 11.0169 72.119 9.81405L72.4354 8.02346C72.8067 6.01416 73.4943 3.9502 76.4511 3.9502H80.6319V15.0355H78.4728V6.02783H76.7812C75.0896 6.02783 74.7733 6.51991 74.347 8.85725L74.0857 10.4838C73.8244 12.001 73.4531 13.2996 72.7104 14.1197C72.1328 14.7758 71.3352 15.0902 70.2212 15.0902H70.0699V15.1448H70.0562Z" fill="#8566D0"/>
<path d="M83.0522 9.55432C83.0522 6.2465 85.7478 3.7998 88.9109 3.7998C92.074 3.7998 94.7695 6.2465 94.7695 9.55432C94.7695 12.8621 92.074 15.3088 88.9109 15.3088C85.7478 15.3088 83.0522 12.8621 83.0522 9.55432ZM88.9109 13.3542C91.0838 13.3542 92.5003 11.673 92.5003 9.55432C92.5003 7.43567 91.015 5.75442 88.9109 5.75442C86.8067 5.75442 85.3214 7.43567 85.3214 9.55432C85.3214 11.673 86.8067 13.3542 88.9109 13.3542Z" fill="#8566D0"/>
<path d="M97.3275 17.7556H95.2646V13.0399H96.6399C97.2725 12.3291 97.5889 11.2493 97.8502 10.0054L98.3315 7.94145C98.7578 5.98683 99.5967 3.97754 102.237 3.97754H106.404V13.0399H107.931V17.7556H105.868V15.0902H97.2588V17.7556H97.3138H97.3275ZM104.3 13.0945V6.02784H102.292C100.972 6.02784 100.546 7.10766 100.284 8.25583L99.803 10.3745C99.5417 11.5637 99.1704 12.5478 98.7441 12.9305V13.0945H104.286H104.3Z" fill="#8566D0"/>
<path d="M115.44 15.3089C112.001 15.3089 109.526 12.8622 109.526 9.5544C109.526 6.24658 112.015 3.79989 115.343 3.79989C117.929 3.79989 120.996 5.53581 120.996 9.71842V10.1558H111.644C111.85 12.0011 113.28 13.3543 115.398 13.3543C116.664 13.3543 118.149 12.8622 118.575 11.7824H120.789C120.157 14.2291 117.667 15.3089 115.453 15.3089M111.754 0H113.968V2.28267H111.754V0ZM118.836 8.47457C118.52 6.79333 117.255 5.7135 115.343 5.7135C113.432 5.7135 112.18 6.90268 111.809 8.47457H118.836ZM116.567 0H118.781V2.28267H116.567V0Z" fill="#8566D0"/>
<path d="M131.187 4.01855V8.4062H132.988L135.519 4.01855H137.898L134.735 9.28099L138.118 15.0355H135.684L132.988 10.3608H131.132V15.0355H129.124V10.3608H127.336L124.64 15.0355H122.206L125.589 9.28099L122.412 4.01855H124.792L127.336 8.4062H129.124V4.01855H131.187Z" fill="#8566D0"/>
<path d="M139.644 10.1011L139.589 4.01855H141.762V7.16235H141.817C142.711 6.02785 143.88 5.4811 145.255 5.4811C147.896 5.4811 150.014 7.4904 150.014 10.3061C150.014 13.1219 147.841 15.2952 144.829 15.2952C141.817 15.2952 139.644 13.1219 139.644 10.0874M144.829 13.3406C146.521 13.3406 147.786 12.0967 147.786 10.4155C147.786 8.73425 146.521 7.43572 144.829 7.43572C143.138 7.43572 141.927 8.67957 141.927 10.4155C141.927 12.1514 143.138 13.3406 144.829 13.3406Z" fill="#8566D0"/>
</g>
<defs>
<clipPath id="clip0_4904_3238">
<rect width="150" height="22.0339" fill="white"/>
</clipPath>
</defs>
</svg>
