<svg width="158" height="28" viewBox="0 0 158 28" fill="none" xmlns="http://www.w3.org/2000/svg">
<g clip-path="url(#clip0_4904_3088)">
<path d="M133.41 26.1012L143.09 0H158V28H150.197V1.89877L140.517 28H125.607V0H133.41V26.1012ZM109.446 14.1307H102.005V6.26044H109.473C112.436 6.26044 113.618 7.88403 113.618 9.98919V10.058C113.618 12.6585 112.339 14.1307 109.446 14.1307ZM109.849 0H93.729V28H102.005V20.3499H109.988C117.568 20.3499 121.963 16.4698 121.963 9.94791V9.83784C121.963 3.42604 117.415 0 109.835 0M74.4937 0L64.8134 26.1012V0H57.0107V28H71.9206L81.6009 1.89877V28H89.4035V0L74.4937 0ZM15.0072 0V14.0069L27.5944 0H30.0283V14.0069L42.6155 0H45.0495V28H30.0283V14.0069L17.4412 28.0138H15.0072V14.0069L2.43398 28H0V0H15.0072Z" fill="black"/>
</g>
<defs>
<clipPath id="clip0_4904_3088">
<rect width="158" height="28" fill="white"/>
</clipPath>
</defs>
</svg>
