<svg width="131" height="42" viewBox="0 0 131 42" fill="none" xmlns="http://www.w3.org/2000/svg">
<g clip-path="url(#clip0_4904_3211)">
<path d="M131 4.22712C130.174 4.24145 129.334 4.28443 128.494 4.28443C126.38 4.28443 124.28 4.28443 122.165 4.29876C121.861 4.29876 121.542 4.32742 121.238 4.4134C120.529 4.59968 120.137 5.11555 120.036 5.8177C119.978 6.16161 119.964 6.51985 119.964 6.87809C119.964 14.4011 119.964 21.9385 119.964 29.4615C119.964 29.8341 119.78 30.0204 119.413 30.0204C118.414 30.0204 117.415 30.0204 116.43 30.0204C116.111 30.0204 116.01 29.9201 116.01 29.6048C116.01 20.0756 116.01 10.5321 116.01 1.00296C116.01 0.702039 116.097 0.616062 116.401 0.616062C118.747 0.616062 121.079 0.616062 123.425 0.616062C125.771 0.616062 128.103 0.587402 130.449 0.587402C130.638 0.587402 130.812 0.630391 131 0.644721V4.22712Z" fill="black"/>
<path d="M131 40.7391C130.199 40.7964 129.798 40.4429 129.798 39.6787V37.2856C129.798 37.2856 129.755 37.2713 129.726 37.257C129.291 37.9018 128.857 38.5466 128.437 39.1771C128.132 39.6213 127.843 40.0799 127.524 40.5098C127.437 40.6387 127.234 40.7104 127.075 40.7534C126.872 40.7964 126.655 40.7534 126.452 40.7534C126.119 40.782 126.003 40.6531 126.003 40.3235C126.003 39.0195 126.003 37.7155 126.003 36.4115C126.003 36.0389 126.003 35.6521 126.003 35.2795C126.003 35.0359 126.076 34.9356 126.351 34.9356C127.481 34.9642 127.307 34.7636 127.321 35.867C127.321 36.6121 127.321 37.3573 127.321 38.1024C127.321 38.217 127.321 38.3174 127.336 38.518C127.423 38.4033 127.481 38.346 127.524 38.2887C128.19 37.3 128.857 36.2969 129.508 35.2938C129.682 35.0359 129.87 34.9069 130.189 34.9356C130.464 34.9642 130.739 34.9499 131.015 34.9642V40.7391H131Z" fill="black"/>
<path d="M24.4766 15.4043V1.27535C24.4766 0.893229 24.6745 0.702168 25.0704 0.702168C27.0256 0.702168 28.9808 0.702168 30.936 0.702168C31.2981 0.702168 31.385 0.816805 31.385 1.16072C31.385 5.00104 31.385 8.84137 31.385 12.6817C31.385 12.8107 31.385 12.9396 31.385 13.0543C31.385 13.4698 31.5443 13.6991 31.8485 13.7707C32.1526 13.8281 32.3699 13.6848 32.5292 13.2692C32.8913 12.4094 33.2244 11.5497 33.5865 10.6899C34.8899 7.48006 36.2079 4.27023 37.5114 1.06041C37.6273 0.773816 37.7721 0.65918 38.0907 0.65918C40.1039 0.65918 42.117 0.65918 44.1447 0.65918C44.5792 0.65918 44.5936 0.673509 44.5936 1.1034V29.5619C44.5936 30.0205 44.5936 30.0348 44.1302 30.0348C42.1315 30.0348 40.1184 30.0348 38.1197 30.0348C37.7576 30.0348 37.6707 29.9202 37.6707 29.5763C37.6707 25.7073 37.6707 21.8526 37.6707 17.998C37.6707 17.8833 37.6707 17.7687 37.6707 17.6541C37.6707 17.2815 37.4969 17.0379 37.1928 16.9949C36.8452 16.9376 36.6569 17.1382 36.5265 17.4248C36.1789 18.2846 35.8313 19.1443 35.4837 20.0041C34.1948 23.1853 32.9058 26.3665 31.6312 29.5476C31.4864 29.9059 31.3126 30.0492 30.9071 30.0492C28.9374 30.0492 26.9677 30.0635 24.998 30.0778C24.4766 30.0778 24.4766 30.0778 24.4766 29.5619V15.4043Z" fill="black"/>
<path d="M0.0291794 15.4044V1.27548C0.0291794 0.773945 0.0291794 0.759615 0.521606 0.759615C3.59203 0.745286 6.66246 0.716627 9.73288 0.730956C11.1088 0.730956 12.4847 0.917241 13.8171 1.28981C15.9027 1.86299 17.6407 2.92338 18.7414 4.82922C19.3642 5.91826 19.7118 7.10762 19.8421 8.35429C19.9435 9.31437 19.9725 10.2888 19.9869 11.2632C20.0014 14.4014 20.0159 17.5396 19.9869 20.6777C19.9869 22.1823 19.7697 23.6726 19.1904 25.0769C18.3938 27.0114 16.9889 28.3297 15.0627 29.1179C13.7302 29.6624 12.3254 29.992 10.8771 30.0206C7.38662 30.0923 3.88169 30.0779 0.376775 30.1209C0.116078 30.1209 0.0146963 30.0349 0.0291794 29.777C0.0291794 29.691 0.0291794 29.5907 0.0291794 29.5048V15.4044ZM7.61835 15.4044C7.61835 17.8261 7.61835 20.2335 7.61835 22.6552C7.61835 22.9561 7.70524 23.0851 8.03836 23.0708C8.70458 23.0564 9.38529 23.0994 10.0515 23.0421C10.486 23.0135 10.935 22.8988 11.3115 22.7125C12.0936 22.3256 12.3109 21.5805 12.3254 20.778C12.3398 19.4167 12.3254 18.0554 12.3254 16.6941C12.3254 14.5017 12.3254 12.2949 12.3254 10.1025C12.3254 8.61223 11.4998 7.79544 9.9791 7.75245C9.35632 7.75245 8.73355 7.75245 8.11077 7.75245C7.63283 7.75245 7.63283 7.75245 7.63283 8.22533V15.4044" fill="black"/>
<path d="M69.5189 29.949C69.3596 29.949 69.2437 29.9777 69.1134 29.9777C67.2595 29.9777 65.4057 29.9777 63.5518 29.9777C63.2912 29.9777 63.1753 29.9204 63.1174 29.6338C62.8422 28.3155 62.538 26.9971 62.2629 25.6645C62.1904 25.3492 62.0746 25.2059 61.7125 25.2059C59.6849 25.2346 57.6572 25.2489 55.6296 25.2489C55.3544 25.2489 55.253 25.3349 55.1951 25.6072C54.9199 26.9398 54.6158 28.2725 54.3406 29.6051C54.2826 29.9204 54.1378 30.0207 53.8337 30.0064C52.0233 30.0064 50.2129 30.0064 48.417 30.0064C47.9535 30.0064 47.939 29.992 48.0549 29.5335C49.3873 23.902 50.7053 18.2704 52.0378 12.6389C52.9502 8.76991 53.8626 4.90093 54.7751 1.03194C54.8475 0.716687 54.9633 0.602051 55.2965 0.602051C57.6282 0.602051 59.96 0.602051 62.2773 0.602051C62.5815 0.602051 62.6973 0.702358 62.7698 0.988949C63.6677 4.81495 64.5657 8.64095 65.4636 12.4669C66.7961 18.1701 68.143 23.859 69.4755 29.5621C69.5044 29.6768 69.5044 29.7771 69.5334 29.9347M61.0028 19.5887C61.0028 19.5887 61.0318 19.4884 61.0318 19.4598C60.5538 17.0811 60.0759 14.7024 59.5835 12.338C59.4966 11.9367 59.1924 11.7075 58.7869 11.7075C58.4103 11.7075 58.1062 11.9081 57.9758 12.2807C57.9469 12.3666 57.9179 12.4526 57.9034 12.5529C57.5413 14.3155 57.1793 16.0637 56.8172 17.8262C56.7013 18.3994 56.5855 18.9869 56.4551 19.5887H60.9883H61.0028Z" fill="black"/>
<path d="M94.5459 15.1891C94.5459 12.6241 94.4879 10.0591 94.5603 7.49415C94.6328 5.14409 95.5597 3.15228 97.4859 1.705C98.7605 0.744913 100.252 0.272037 101.831 0.100082C103.453 -0.0862026 105.061 -0.0145547 106.668 0.343685C109.579 1.01718 111.795 3.25259 112.317 6.17582C112.433 6.86364 112.505 7.58012 112.505 8.2966C112.519 13.011 112.519 17.7398 112.505 22.4542C112.505 23.8729 112.201 25.2485 111.491 26.5095C110.535 28.2004 109.101 29.3324 107.248 29.8913C104.481 30.7224 101.715 30.7224 99.0212 29.6047C96.3997 28.5156 94.9948 26.4522 94.6328 23.7009C94.5024 22.7265 94.5459 21.7377 94.5459 20.749C94.5459 18.9005 94.5459 17.0376 94.5459 15.1891ZM99.0356 15.2178C99.0356 17.3672 99.0356 19.531 99.0356 21.6804C99.0356 22.1533 99.0646 22.6262 99.1225 23.0847C99.3398 24.6753 100.325 25.7644 101.903 26.1513C102.83 26.3805 103.757 26.3949 104.699 26.2372C106.248 25.965 107.378 25.1768 107.798 23.6149C107.957 23.0417 108.03 22.4256 108.03 21.8237C108.044 17.4102 108.044 13.011 108.03 8.59752C108.03 8.12465 107.972 7.63744 107.885 7.16457C107.639 5.91789 106.972 4.97214 105.756 4.4706C104.785 4.06938 103.772 4.04072 102.758 4.12669C101.99 4.19834 101.252 4.39896 100.614 4.84317C99.5136 5.60264 99.0936 6.73468 99.0646 7.99568C99.0212 10.4031 99.0646 12.8104 99.0646 15.2178" fill="black"/>
<path d="M71.3582 29.9629C71.4596 29.5187 71.561 29.1318 71.6479 28.7449C72.8645 23.8155 74.0811 18.9005 75.3121 13.9711C76.3839 9.62926 77.4701 5.30173 78.5419 0.959863C78.6143 0.673271 78.7302 0.558635 79.0343 0.572964C80.9316 0.572964 82.8289 0.572964 84.7407 0.572964C85.0014 0.572964 85.1317 0.658942 85.1896 0.916874C86.189 4.95782 87.1883 9.01309 88.1876 13.054C88.8684 15.7766 89.5491 18.4993 90.2153 21.2219C90.896 23.9732 91.5912 26.7388 92.2719 29.4901C92.3733 29.9056 92.3588 29.9343 91.9098 29.9343C90.4036 29.9343 88.8973 29.9343 87.3911 29.9343C87.0869 29.9343 86.9421 29.8483 86.8697 29.533C85.8414 25.1482 84.7986 20.7777 83.7558 16.3928C83.4517 15.0888 83.1475 13.7848 82.8289 12.4808C82.6406 11.6927 81.844 11.3488 81.2937 11.8647C81.0909 12.051 80.975 12.3662 80.9026 12.6385C80.3667 14.8022 79.8743 16.9803 79.3529 19.1584C78.5419 22.5975 77.7163 26.0223 76.9198 29.4614C76.8329 29.834 76.7025 29.9629 76.297 29.9486C74.8052 29.9199 73.3135 29.9486 71.8072 29.9486H71.3438" fill="black"/>
<path d="M101.99 34.9355C102.396 34.9355 102.743 34.9355 103.091 34.9355C103.323 34.9355 103.337 35.0931 103.352 35.2651C103.352 35.8239 103.352 36.3828 103.352 36.956C103.352 37.0706 103.366 37.1996 103.381 37.3142C103.41 37.3429 103.439 37.3572 103.482 37.3859C103.627 37.2712 103.815 37.1853 103.888 37.042C104.09 36.7124 104.221 36.3398 104.394 35.9959C104.814 35.1361 105.336 34.8352 106.306 34.8925C106.509 34.8925 106.596 34.9928 106.61 35.1791C106.668 35.7093 106.625 35.781 106.118 35.8526C105.785 35.9099 105.597 36.1105 105.466 36.3971C105.249 36.87 105.003 37.3285 104.757 37.8014C105.597 38.303 105.857 39.306 106.364 40.1371C106.437 40.2661 106.509 40.4094 106.625 40.61C106.712 40.4524 106.77 40.3521 106.799 40.2518C107.494 38.5752 108.189 36.8987 108.87 35.2221C108.957 35.0072 109.072 34.9212 109.304 34.9355C109.608 34.9498 109.913 34.9212 110.202 34.9498C110.333 34.9642 110.506 35.0788 110.564 35.1934C111.346 36.9703 112.099 38.7472 112.867 40.524C112.882 40.567 112.882 40.6387 112.911 40.739C112.447 40.739 112.013 40.739 111.593 40.739C111.52 40.739 111.448 40.61 111.404 40.524C111.317 40.3378 111.216 40.1515 111.173 39.9509C111.071 39.564 110.868 39.4207 110.448 39.4493C109.956 39.4923 109.449 39.478 108.957 39.4493C108.681 39.4493 108.522 39.5496 108.45 39.8076C108.406 39.9509 108.334 40.0798 108.29 40.2231C108.088 40.7676 108.175 40.7533 107.494 40.7533C106.842 40.7533 106.19 40.739 105.553 40.7533C105.234 40.7533 105.061 40.653 104.93 40.3808C104.699 39.8935 104.452 39.4207 104.192 38.9478C104.09 38.7472 103.931 38.5609 103.786 38.4033C103.728 38.3316 103.569 38.303 103.482 38.3173C103.439 38.3173 103.395 38.4892 103.395 38.5752C103.395 39.1627 103.395 39.7646 103.395 40.3664C103.395 40.6387 103.308 40.7533 103.019 40.7533C102.048 40.7533 102.048 40.7677 102.048 39.8219V34.9355H101.99ZM108.986 38.3459H110.477C110.231 37.7298 109.999 37.1709 109.768 36.6121H109.666C109.449 37.1709 109.232 37.7441 109 38.3459" fill="black"/>
<path d="M78.2236 36.7985C78.2236 37.9736 78.2236 39.1199 78.2236 40.2806C78.2236 40.7535 78.2236 40.7678 77.7311 40.7678C76.8042 40.7678 76.9056 40.8968 76.8911 39.951C76.8911 38.4464 76.8911 36.9275 76.8911 35.4229C76.8911 34.9644 76.8911 34.9644 77.3546 34.9644C77.6732 34.9644 78.0063 34.9644 78.3249 34.9644C78.8898 34.9644 78.8898 34.9644 79.0346 35.4802C79.2953 36.3973 79.5415 37.3144 79.7877 38.2315C79.8167 38.3461 79.8602 38.4751 79.9615 38.6041C80.1353 38.0022 80.3091 37.4147 80.4829 36.8129C80.6278 36.3113 80.7726 35.7955 80.9029 35.2939C80.9609 35.0647 81.0767 34.9644 81.3085 34.9787C81.7574 34.993 82.2064 34.9787 82.6699 34.9787C82.9161 34.9787 83.003 35.079 83.003 35.3083C83.003 37.0278 83.003 38.7474 83.003 40.4669C83.003 40.7105 82.9016 40.8108 82.6554 40.8108C81.5257 40.7965 81.6995 40.9541 81.685 39.8794C81.685 38.905 81.685 37.9306 81.6271 36.9562C81.5112 37.3574 81.3954 37.7443 81.2795 38.1455C81.0767 38.8907 80.8595 39.6501 80.6712 40.3953C80.5988 40.6962 80.4684 40.8252 80.1209 40.8252C79.0926 40.7822 79.3243 40.9685 79.0491 39.9797C78.7884 39.0626 78.5567 38.1455 78.3105 37.2284C78.2815 37.1138 78.238 36.9992 78.1946 36.8559" fill="black"/>
<path d="M74.4576 36.87C74.2114 37.7584 73.9797 38.6325 73.7335 39.5209C73.6321 39.8649 73.5452 40.2088 73.4438 40.5527C73.4438 40.5813 73.4293 40.6387 73.4149 40.653C73.0673 40.696 72.7052 40.7533 72.3431 40.7533C72.2417 40.7533 72.0824 40.5813 72.039 40.4524C71.7203 39.3203 71.4162 38.174 71.112 37.0419C71.0975 36.9846 71.0831 36.913 71.0107 36.8556V39.3776C71.0107 39.7359 71.0107 40.0941 71.0107 40.438C71.0107 40.6673 70.9382 40.7819 70.692 40.7676C69.5189 40.7533 69.7072 40.9252 69.6927 39.8362C69.6927 38.3602 69.6927 36.8843 69.6927 35.4084C69.6927 35.0788 69.7941 34.9355 70.1417 34.9498C70.5472 34.9785 70.9527 34.9641 71.3582 34.9498C71.6189 34.9498 71.7348 35.0358 71.8072 35.2794C72.0534 36.1678 72.2996 37.0706 72.5603 37.959C72.6183 38.174 72.6907 38.3746 72.821 38.5895C72.9659 38.1023 73.0962 37.6151 73.2411 37.1279C73.4149 36.5261 73.5886 35.9385 73.748 35.3367C73.8204 35.0644 73.9507 34.9355 74.2549 34.9498C74.6749 34.9785 75.0949 34.9641 75.5004 34.9498C75.7466 34.9498 75.8335 35.0358 75.8335 35.2794C75.8335 37.0133 75.8335 38.7328 75.8335 40.4667C75.8335 40.696 75.7466 40.7819 75.5004 40.7819C74.3852 40.7533 74.559 40.9539 74.5445 39.8362C74.5445 38.9621 74.5445 38.1023 74.5445 37.2282V36.8986H74.4721L74.4576 36.87Z" fill="black"/>
<path d="M15.5984 34.9358C15.7288 34.9358 15.8591 34.9358 15.975 34.9358C16.1778 34.9358 16.2936 35.0074 16.2791 35.208C16.2791 35.4373 16.395 35.4803 16.5978 35.5233C17.0033 35.6092 17.4233 35.6809 17.7999 35.8385C18.5385 36.1538 18.9006 36.7556 18.944 37.5294C18.973 38.1169 18.9296 38.6758 18.553 39.163C18.0895 39.7648 17.4088 39.9511 16.6991 40.0371C16.424 40.0657 16.2647 40.1231 16.2936 40.4383C16.3081 40.6533 16.1922 40.7536 15.975 40.7392C15.7867 40.7392 15.5984 40.7249 15.4246 40.7392C15.077 40.7679 14.8598 40.6962 14.9032 40.2807C14.9322 40.0801 14.7584 40.0801 14.5991 40.0371C14.0922 39.8938 13.5708 39.7792 13.1073 39.5499C12.8466 39.4209 12.6004 39.12 12.4846 38.8477C11.9632 37.687 12.1659 35.9818 14.0198 35.5949C14.1646 35.5663 14.3094 35.5376 14.4687 35.5233C14.7294 35.4946 14.9467 35.466 14.9322 35.1077C14.9322 35.0504 15.077 34.9358 15.1639 34.9214C15.3088 34.8928 15.4681 34.9214 15.6129 34.9214L15.5984 34.9358ZM14.9032 37.773C14.9032 37.4721 14.9032 37.1568 14.9032 36.8559C14.9032 36.641 14.8308 36.555 14.5846 36.598C13.846 36.727 13.5273 37.1855 13.5853 38.0166C13.6287 38.5755 14.0342 38.9767 14.5846 39.0054C14.7874 39.0054 14.8888 38.948 14.8888 38.7474C14.8888 38.4322 14.8888 38.1026 14.8888 37.7873M16.2791 37.7873C16.2791 38.0739 16.2791 38.3605 16.2791 38.6471C16.2791 39.0054 16.3805 39.0627 16.7281 38.991C17.3364 38.8621 17.655 38.3749 17.5971 37.6297C17.5537 37.0422 17.1481 36.641 16.5398 36.6123C16.4529 36.6123 16.3081 36.7556 16.2936 36.8273C16.2647 37.1425 16.2936 37.4721 16.2936 37.7873" fill="black"/>
<path d="M36.6425 37.6295C36.7294 37.6868 36.7728 37.7155 36.8163 37.7441C37.497 38.1167 37.7577 38.6326 37.6273 39.3634C37.5259 40.0082 36.9756 40.5814 36.2804 40.6817C35.8314 40.739 35.3535 40.7534 34.9045 40.7534C34.1803 40.7534 33.4417 40.7534 32.7175 40.7534C32.4424 40.7534 32.3555 40.6531 32.3555 40.3951C32.3555 38.6899 32.3555 36.9847 32.3555 35.2795C32.3555 35.1218 32.3555 34.9355 32.5872 34.9355C33.7024 34.9499 34.8031 34.9355 35.9183 34.9929C36.628 35.0215 37.1204 35.4084 37.3232 36.0819C37.5115 36.7267 37.2073 37.214 36.6425 37.6152M34.7597 39.6786C34.9914 39.6786 35.2231 39.6786 35.4549 39.6786C35.9328 39.6643 36.2514 39.392 36.2514 38.9908C36.2514 38.5896 35.9618 38.303 35.4693 38.2887C35.0059 38.26 34.5424 38.2887 34.079 38.26C33.8472 38.26 33.7314 38.3317 33.7314 38.5753C33.7314 38.8475 33.7314 39.1198 33.7314 39.4064C33.7314 39.607 33.8183 39.7073 34.021 39.693C34.2672 39.693 34.5135 39.693 34.7452 39.693M34.7017 36.0246C34.47 36.0103 34.2383 35.9816 34.0065 36.0246C33.9052 36.0389 33.7459 36.1679 33.7314 36.2682C33.6879 36.4688 33.6879 36.6981 33.7314 36.913C33.7459 37.0133 33.8907 37.1566 33.9776 37.1566C34.4555 37.171 34.9479 37.171 35.4259 37.1566C35.7735 37.128 35.9907 36.8844 35.9907 36.5835C35.9907 36.2969 35.759 36.0819 35.4114 36.0389C35.1652 36.0246 34.9335 36.0389 34.6873 36.0389" fill="black"/>
<path d="M123.455 37.3143C122.977 38.0165 122.513 38.7186 122.035 39.4208C121.789 39.7933 121.543 40.1659 121.268 40.5241C121.181 40.6388 120.992 40.7391 120.848 40.7391C119.616 40.7391 119.805 40.9254 119.805 39.7647C119.805 38.3031 119.805 36.8271 119.805 35.3655C119.805 35.0502 119.906 34.9213 120.239 34.9356C121.224 34.9643 121.123 34.778 121.137 35.8097C121.137 36.6838 121.137 37.5579 121.137 38.5467C121.543 37.9305 121.905 37.4003 122.252 36.8701C122.629 36.3113 122.991 35.7381 123.382 35.1792C123.469 35.0502 123.672 34.9643 123.831 34.9356C124.063 34.8926 124.324 34.9356 124.555 34.9356C124.772 34.9356 124.874 34.9929 124.874 35.2222C124.874 36.9704 124.874 38.7186 124.874 40.4812C124.874 40.6818 124.772 40.7678 124.57 40.7678C123.382 40.7534 123.57 40.9254 123.556 39.8507C123.556 39.1342 123.556 38.4034 123.556 37.6869C123.556 37.5723 123.556 37.4719 123.541 37.3573C123.512 37.3573 123.483 37.3573 123.455 37.343" fill="black"/>
<path d="M7.63273 38.5034C8.35689 37.4144 9.08105 36.3253 9.80521 35.2363C9.95004 35.0213 10.1094 34.9067 10.37 34.9354C10.5873 34.9497 10.8045 34.9497 11.0218 34.9354C11.268 34.921 11.3549 35.0357 11.3549 35.2649C11.3549 36.9845 11.3549 38.704 11.3549 40.4236C11.3549 40.6672 11.268 40.7675 11.0073 40.7675C9.93555 40.7388 10.0514 40.9108 10.0369 39.8504C10.0369 39.0193 10.0369 38.1882 9.96452 37.3284C9.77624 37.5863 9.60244 37.8299 9.41416 38.0879C8.8638 38.8903 8.32792 39.7071 7.77757 40.5096C7.69067 40.6385 7.4879 40.7102 7.32859 40.7388C7.12582 40.7818 6.90858 40.7388 6.70581 40.7388C6.3727 40.7675 6.25684 40.6385 6.25684 40.309C6.25684 38.919 6.25684 37.5433 6.25684 36.1534C6.25684 35.8525 6.25684 35.5515 6.25684 35.2649C6.25684 35.0213 6.32925 34.921 6.58995 34.921C7.53135 34.9067 7.53135 34.8924 7.53135 35.8095C7.53135 36.5833 7.53135 37.3427 7.53135 38.1165V38.4891C7.53135 38.4891 7.58928 38.4891 7.61825 38.4891" fill="black"/>
<path d="M99.4556 37.2568C98.7314 38.3172 98.0073 39.3776 97.2976 40.4523C97.1527 40.6672 96.9934 40.7819 96.7327 40.7532C96.5589 40.7389 96.3851 40.7532 96.2113 40.7532C95.7479 40.7532 95.7334 40.7532 95.7334 40.266C95.7334 39.1769 95.7334 38.0879 95.7334 36.9988C95.7334 36.4543 95.7334 35.9241 95.7334 35.3796C95.7334 35.05 95.8058 34.8781 96.1824 34.9211C96.3417 34.9354 96.501 34.9354 96.6603 34.9211C96.9934 34.8781 97.0369 35.0357 97.0369 35.3223C97.0224 36.311 97.0369 37.3141 97.0369 38.3028C97.0369 38.3745 97.0369 38.4318 97.0658 38.5608C97.5293 37.8586 97.9638 37.2138 98.3983 36.569C98.7169 36.0961 99.0066 35.6232 99.3252 35.1647C99.4121 35.0357 99.6149 34.964 99.7742 34.9354C99.9914 34.8924 100.238 34.9354 100.469 34.9354C100.774 34.9067 100.846 35.05 100.846 35.3223C100.846 36.3254 100.846 37.3141 100.846 38.3028C100.846 39.005 100.846 39.6928 100.846 40.395C100.846 40.6672 100.745 40.7675 100.469 40.7532C99.3976 40.7245 99.5714 40.8822 99.5569 39.8648C99.5569 39.005 99.5569 38.1309 99.5569 37.2711C99.528 37.2711 99.499 37.2711 99.4701 37.2568" fill="black"/>
<path d="M114.823 37.2854C114.823 37.9589 114.823 38.6324 114.823 39.3202C114.823 39.6068 114.924 39.7071 115.214 39.6928C115.749 39.6785 116.285 39.6785 116.807 39.6928C117.082 39.6928 117.169 39.5925 117.169 39.3346C117.169 38.0306 117.169 36.7266 117.169 35.4226C117.169 34.9497 117.169 34.9497 117.661 34.9497C118.241 34.9497 118.53 35.2315 118.53 35.7952C118.53 36.9702 118.53 38.1596 118.53 39.3346C118.53 39.5495 118.559 39.7071 118.834 39.7215C118.921 39.7215 119.052 39.8934 119.052 39.9794C119.066 40.5669 119.052 41.1544 119.052 41.7276C119.052 41.9282 118.95 42.0142 118.747 41.9999C117.792 41.9999 117.936 42.1002 117.922 41.2118C117.922 40.7532 117.922 40.7532 117.458 40.7532C116.271 40.7532 115.098 40.7532 113.91 40.7532C113.577 40.7532 113.476 40.6386 113.476 40.3233C113.476 38.6754 113.476 37.0275 113.476 35.3796C113.476 35.0214 113.591 34.9211 113.939 34.9354C114.837 34.9497 114.837 34.9354 114.837 35.8095V37.2854" fill="black"/>
<path d="M68.8673 37.8729C68.9832 39.5638 67.7086 40.8248 65.9417 40.8535C63.9865 40.8821 62.7844 39.7358 62.7554 37.9159C62.7264 36.0101 63.8851 34.9067 65.7969 34.8494C67.419 34.8064 68.9976 35.8954 68.8673 37.8586M67.4769 37.7296C67.4769 37.5863 67.4769 37.4287 67.4479 37.2854C67.3321 36.4973 66.7528 35.9671 65.9852 35.9384C65.0727 35.9098 64.421 36.3253 64.2761 37.1564C64.2037 37.5863 64.2037 38.0449 64.2761 38.4748C64.4355 39.4348 65.4058 39.9794 66.3472 39.6928C67.1293 39.4492 67.5348 38.7327 67.4769 37.7439" fill="black"/>
<path d="M28.4448 40.8249C27.2716 40.8393 26.3447 40.4954 25.7654 39.5209C25.0123 38.2743 25.244 36.2251 26.533 35.3367C27.9958 34.3336 30.4579 34.8495 31.1676 36.3971C31.9352 38.088 31.3993 40.8966 28.4448 40.8249ZM30.0524 37.8444C30.0524 37.6724 30.0524 37.5005 30.0234 37.3285C29.951 36.655 29.4875 36.1105 28.8648 35.9815C28.0827 35.8096 27.3875 36.0389 27.0254 36.6264C26.6778 37.1852 26.7068 37.8157 26.8082 38.4319C27.0254 39.6642 28.4448 40.1801 29.4441 39.392C29.9365 39.0051 30.0524 38.4462 30.0524 37.8444Z" fill="black"/>
<path d="M3.67872 37.2712C3.67872 36.5977 3.67872 35.9243 3.67872 35.2364C3.67872 35.0215 3.73665 34.9212 3.96838 34.9355C4.17114 34.9355 4.38839 34.9498 4.59116 34.9355C4.92427 34.9069 5.04013 35.0358 5.04013 35.3654C5.04013 36.6264 5.04013 37.8874 5.04013 39.1484C5.04013 39.2487 5.01117 39.3634 5.04013 39.4493C5.0691 39.5353 5.156 39.6643 5.22841 39.6786C5.48911 39.6929 5.51808 39.8506 5.51808 40.0512C5.51808 40.5957 5.51808 41.1259 5.51808 41.6704C5.51808 41.914 5.41669 42.0143 5.17048 42.0143C4.31598 42 4.40287 42.1003 4.40287 41.2692C4.40287 40.7677 4.40287 40.7677 3.88148 40.7677C2.73731 40.7677 1.59315 40.7677 0.434494 40.7677C0.101382 40.7677 0 40.653 0 40.3378C0 38.6755 0 37.0133 0 35.3511C0 35.0358 0.101382 34.9355 0.420011 34.9355C1.30348 34.9355 1.30348 34.9355 1.30348 35.7953C1.30348 36.956 1.30348 38.1024 1.30348 39.2631C1.30348 39.5783 1.39038 39.7216 1.72349 39.7073C2.27385 39.6786 2.80973 39.7073 3.36009 39.7073C3.6063 39.7073 3.6932 39.6213 3.6932 39.3777C3.6932 38.6755 3.6932 37.9734 3.6932 37.2856L3.67872 37.2712Z" fill="black"/>
<path d="M47.2148 37.8446C47.2148 36.9848 47.2148 36.1251 47.2148 35.2653C47.2148 35.0217 47.2873 34.9214 47.548 34.9214C48.8949 34.9214 50.2563 34.9214 51.6177 34.9214C51.8494 34.9214 51.9074 35.0074 51.9219 35.2223C51.9508 35.9961 51.9508 35.9961 51.1977 35.9961C50.4446 35.9961 49.6915 35.9961 48.9383 35.9961C48.6776 35.9961 48.5618 36.0821 48.5763 36.3543C48.5907 37.2858 48.4749 37.1568 49.3873 37.1711C50.0391 37.1711 50.6908 37.1711 51.3281 37.1711C51.6032 37.1711 51.7191 37.2571 51.7191 37.5437C51.7046 38.3318 51.7481 38.2172 51.0239 38.2315C50.3142 38.2315 49.6046 38.2315 48.9094 38.2315C48.6776 38.2315 48.5618 38.3032 48.5763 38.5468C48.5763 38.819 48.5763 39.0913 48.5763 39.3779C48.5763 39.6358 48.6632 39.7218 48.9239 39.7218C49.8218 39.7218 50.7343 39.7218 51.6322 39.7218C51.9508 39.7218 52.0522 39.8221 52.0522 40.1374C52.0522 40.7965 52.0522 40.7965 51.386 40.7965C50.126 40.7965 48.8659 40.7965 47.6059 40.7965C47.3307 40.7965 47.2293 40.7249 47.2293 40.4239C47.2438 39.5785 47.2293 38.7331 47.2293 37.8876" fill="black"/>
<path d="M94.5893 37.859C94.5893 38.6901 94.5893 39.5355 94.5893 40.3666C94.5893 40.6676 94.4879 40.7679 94.1838 40.7535C93.0686 40.7249 93.2424 40.9112 93.2279 39.8364C93.2279 39.4066 93.2279 38.991 93.2279 38.5611C93.2279 38.3462 93.1555 38.2459 92.9238 38.2459C92.3445 38.2459 91.7651 38.2459 91.1858 38.2459C90.9541 38.2459 90.8816 38.3462 90.8816 38.5611C90.8816 39.163 90.8816 39.7505 90.8816 40.3523C90.8816 40.6532 90.7803 40.7535 90.4761 40.7535C89.3464 40.7249 89.5347 40.8968 89.5347 39.8364C89.5347 38.3318 89.5347 36.8272 89.5347 35.337C89.5347 35.0217 89.6361 34.9214 89.9547 34.9214C90.8961 34.9214 90.8961 34.9214 90.8961 35.8528C90.8961 36.1824 90.8961 36.512 90.8961 36.8416C90.8961 37.0565 90.9685 37.1568 91.2003 37.1568C91.7796 37.1568 92.3589 37.1568 92.9383 37.1568C93.17 37.1568 93.2424 37.0565 93.2424 36.8416C93.2424 36.3257 93.2424 35.8098 93.2424 35.294C93.2424 35.036 93.3148 34.9214 93.6045 34.9214C94.6038 34.9214 94.6038 34.9071 94.6038 35.8815V37.8446" fill="black"/>
<path d="M40.4515 40.7533C39.9591 40.7533 39.4522 40.7533 38.9597 40.7533C38.7135 40.7533 38.5977 40.6816 38.5977 40.4237C38.5977 38.6898 38.5977 36.9703 38.5977 35.2364C38.5977 34.9928 38.699 34.9068 38.9308 34.9355C39.0756 34.9355 39.2349 34.9355 39.3797 34.9355C39.7563 34.9355 39.9446 35.1265 39.9446 35.5087C39.9446 35.9385 39.9736 36.3541 39.9446 36.784C39.9156 37.1422 40.0605 37.2282 40.408 37.2282C41.0598 37.2282 41.7115 37.1995 42.3488 37.2999C43.7247 37.5291 44.304 38.9621 43.5219 40.0655C43.1454 40.5957 42.566 40.7246 41.9577 40.7533C41.4653 40.7819 40.9584 40.7533 40.466 40.7533M40.9439 39.6642C41.2191 39.6642 41.5088 39.6929 41.7695 39.6642C42.175 39.6212 42.4357 39.3346 42.4357 39.0051C42.4357 38.6612 42.2329 38.4176 41.7984 38.3602C41.3205 38.3029 40.8281 38.3172 40.3501 38.2886C40.017 38.2599 39.9446 38.4032 39.9446 38.7041C39.9446 39.7072 39.9446 39.7072 40.9439 39.6786" fill="black"/>
<path d="M62.3787 40.7392C61.9153 40.7392 61.4663 40.7678 61.0028 40.7249C60.887 40.7249 60.7566 40.5242 60.6842 40.3953C60.4235 39.9081 60.1918 39.4065 59.9166 38.9337C59.8007 38.733 59.6559 38.5324 59.4676 38.3748C59.2359 38.1885 59.12 38.2602 59.12 38.5611C59.12 39.1629 59.12 39.7504 59.12 40.3523C59.12 40.6389 59.0331 40.7678 58.729 40.7535C57.6138 40.7249 57.7876 40.8968 57.7731 39.8364C57.7731 38.3318 57.7731 36.8415 57.7731 35.3369C57.7731 35.036 57.831 34.907 58.1641 34.9214C59.12 34.9357 59.12 34.9214 59.12 35.8671V37.3144C59.4676 37.3431 59.6269 37.1711 59.7283 36.9418C59.9166 36.5693 60.0759 36.168 60.2787 35.7955C60.6408 35.0933 61.3939 34.7351 62.1615 34.8927C62.2339 34.907 62.3498 35.0074 62.3643 35.079C62.3932 35.251 62.3932 35.4229 62.3643 35.5949C62.3498 35.6808 62.2339 35.7955 62.1615 35.7955C61.5098 35.7955 61.2925 36.254 61.0753 36.7412C60.9304 37.0851 60.7132 37.4147 60.5104 37.773C61.5098 38.4321 61.756 39.6645 62.4222 40.6389C62.4077 40.6819 62.3932 40.7105 62.3787 40.7535" fill="black"/>
<path d="M19.8421 37.83C19.8421 36.9989 19.8421 36.1534 19.8421 35.3223C19.8421 35.0214 19.9435 34.9211 20.2476 34.9354C21.1166 34.9497 21.9856 34.9354 22.8546 34.9497C23.5208 34.9497 24.0856 35.1647 24.4477 35.7379C25.2008 36.9559 24.4477 38.4032 22.9994 38.5321C22.5359 38.5751 22.058 38.5895 21.58 38.5895C21.3338 38.5895 21.218 38.6898 21.2325 38.9334C21.2325 39.4062 21.2325 39.8648 21.2325 40.3377C21.2325 40.6242 21.1456 40.7532 20.8414 40.7532C19.6828 40.7246 19.8566 40.9108 19.8421 39.7788C19.8421 39.1196 19.8421 38.4748 19.8421 37.8157M22.0435 37.5004C22.2463 37.5004 22.4635 37.5004 22.6663 37.4574C23.0284 37.4144 23.2891 37.1278 23.3035 36.7983C23.318 36.4257 23.1153 36.1248 22.7387 36.0531C22.4925 35.9958 22.2318 35.9958 21.9856 35.9958C21.16 35.9815 21.2469 35.8955 21.2469 36.7123C21.2469 37.6007 21.16 37.4861 22.0435 37.5004Z" fill="black"/>
<path d="M83.5098 34.9497C84.0167 34.9497 84.4512 34.9354 84.8857 34.9641C84.987 34.9641 85.1029 35.1504 85.1753 35.265C85.5084 35.9528 85.8416 36.655 86.1602 37.3428C86.2181 37.4574 86.276 37.5864 86.3919 37.787C86.5657 37.3858 86.725 37.0705 86.8554 36.7409C87.0726 36.2251 87.2754 35.6949 87.5216 35.1934C87.5795 35.0787 87.7388 34.9641 87.8692 34.9497C88.2168 34.9211 88.5789 34.9497 89.0134 34.9497C88.7092 35.6089 88.434 36.1821 88.1589 36.7553C87.6809 37.7297 87.2174 38.7184 86.7395 39.6928C86.6381 39.8935 86.5078 40.0941 86.3774 40.2804C86.0009 40.7962 85.0595 41.0398 84.4946 40.7962C84.4367 40.7676 84.3788 40.6673 84.3498 40.5956C84.3208 40.481 84.3498 40.3663 84.3208 40.2517C84.2774 39.9508 84.3932 39.8218 84.6974 39.8361C85.0595 39.8505 85.4505 39.8648 85.6098 39.4636C85.6678 39.3059 85.6967 39.0623 85.6243 38.919C85.0015 37.744 84.3643 36.569 83.727 35.4083C83.6546 35.2793 83.6111 35.1504 83.5242 34.9497" fill="black"/>
<path d="M44.7241 37.816C44.7241 36.9848 44.7241 36.1681 44.7241 35.3369C44.7241 35.0217 44.8255 34.9214 45.1441 34.9214C46.2449 34.95 46.1 34.7494 46.1145 35.8528C46.1145 37.3288 46.1145 38.8047 46.1145 40.2806C46.1145 40.7249 46.1 40.7392 45.6366 40.7392C44.5938 40.7249 44.7386 40.8968 44.7241 39.8221C44.7241 39.1486 44.7241 38.4751 44.7241 37.8016" fill="black"/>
</g>
<defs>
<clipPath id="clip0_4904_3211">
<rect width="131" height="42" fill="white"/>
</clipPath>
</defs>
</svg>
