<svg width="109" height="106" viewBox="0 0 109 106" fill="none" xmlns="http://www.w3.org/2000/svg">
<g clip-path="url(#clip0_4904_3565)">
<path fill-rule="evenodd" clip-rule="evenodd" d="M12.8843 81.847L39.973 1.64404L60.0132 1.67477L32.9244 81.8623L12.8843 81.847Z" fill="white"/>
<path d="M12.8843 81.847L39.973 1.64404L60.0132 1.67477L32.9244 81.8623L12.8843 81.847Z" stroke="white" stroke-width="0.23" stroke-miterlimit="10"/>
<path fill-rule="evenodd" clip-rule="evenodd" d="M96.4229 24.1377L74.6629 24.1069L47.0366 105.969L68.7967 106L96.4229 24.1377Z" fill="#E93E3B"/>
<path fill-rule="evenodd" clip-rule="evenodd" d="M60.013 1.64401H39.9728L12.8841 81.8469L32.9242 81.8777L60.013 1.64401ZM78.9935 12.4914L51.352 94.3383L29.5919 94.3076L33.2314 83.5063L11.7477 83.4756H10.6113L10.9799 82.4001L38.6215 0.568488L38.7904 0H39.3739L61.134 0.0307291H62.2704L61.9325 1.10625L58.0781 12.476L78.9935 12.5067V12.4914Z" fill="#0B7DBC"/>
<path fill-rule="evenodd" clip-rule="evenodd" d="M8.7071 40.3164H109L100.293 66.3439H0L8.7071 40.3164Z" fill="white"/>
<path fill-rule="evenodd" clip-rule="evenodd" d="M58.7844 41.8379H82.1262L74.448 64.8232H51.1216L58.7844 41.8379Z" fill="#0B7DBC"/>
<path fill-rule="evenodd" clip-rule="evenodd" d="M34.1682 41.8379H57.4793L49.8164 64.8232H26.4746L34.1682 41.8379Z" fill="#0B7DBC"/>
<path fill-rule="evenodd" clip-rule="evenodd" d="M9.81298 41.8379H33.1241L25.4458 64.8232H2.13477L9.81298 41.8379Z" fill="#0B7DBC"/>
<path fill-rule="evenodd" clip-rule="evenodd" d="M54.3926 43.866L53.2408 47.1848C44.4416 46.8621 39.7425 47.5535 38.1455 53.1155C36.3488 59.0462 41.8617 59.5839 49.3096 59.461L48.0504 62.9488C35.8266 63.2868 29.1466 62.3803 32.2639 53.0847C35.6884 42.8827 42.3685 43.866 54.3926 43.866Z" fill="white"/>
<path fill-rule="evenodd" clip-rule="evenodd" d="M83.5388 41.8379H106.85L99.187 64.8232H75.8452L83.5388 41.8379Z" fill="#0B7DBC"/>
<path fill-rule="evenodd" clip-rule="evenodd" d="M60.3354 43.8657L53.5479 62.9792H60.0129L65.2495 47.2306H71.7913L66.3858 62.9792H72.8509L79.3467 43.8657H60.3354Z" fill="white"/>
<path fill-rule="evenodd" clip-rule="evenodd" d="M84.9978 43.8657L78.2563 62.9792H84.7214L89.958 47.1845L96.4998 47.1998L91.0943 62.9792H97.5594L104.055 43.8657H84.9978Z" fill="white"/>
<path fill-rule="evenodd" clip-rule="evenodd" d="M11.5788 43.8657L4.94482 62.9792H11.241L13.2834 57.0024C22.8044 57.0331 26.9045 56.8334 27.7645 50.4878C28.4555 45.6173 25.8756 43.7735 17.7982 43.8965H11.5788V43.8657ZM14.5733 53.192L16.6925 47.0462C19.9174 46.8925 21.6373 47.5686 21.7755 49.5967C21.7294 52.7464 19.1495 53.361 14.5733 53.192Z" fill="white"/>
</g>
<defs>
<clipPath id="clip0_4904_3565">
<rect width="109" height="106" fill="white"/>
</clipPath>
</defs>
</svg>
