<svg width="82" height="82" viewBox="0 0 82 82" fill="none" xmlns="http://www.w3.org/2000/svg">
<g clip-path="url(#clip0_4904_3349)">
<path d="M0 39.36C0 20.8017 0 11.5225 5.76124 5.76124C11.5225 0 20.8017 0 39.36 0H42.64C61.1983 0 70.4775 0 76.2388 5.76124C82 11.5225 82 20.8017 82 39.36V42.64C82 61.1983 82 70.4775 76.2388 76.2388C70.4775 82 61.1983 82 42.64 82H39.36C20.8017 82 11.5225 82 5.76124 76.2388C0 70.4605 0 61.1983 0 42.64V39.36Z" fill="#0077FF"/>
<path d="M43.6259 59.0738C24.9316 59.0738 14.2758 46.2597 13.834 24.9482H23.1981C23.504 40.6005 30.4039 47.2284 35.8763 48.588V24.9482H44.6966V38.4421C50.1009 37.8643 55.7602 31.7122 57.6806 24.9482H66.5009C65.0394 33.2757 58.8872 39.4278 54.5026 41.9601C58.8703 44.0164 65.8721 49.3698 68.5403 59.0738H58.8363C56.7459 52.5818 51.5625 47.5683 44.6966 46.8716V59.0738H43.6429H43.6259Z" fill="white"/>
</g>
<defs>
<clipPath id="clip0_4904_3349">
<rect width="82" height="82" fill="white"/>
</clipPath>
</defs>
</svg>
