<svg width="150" height="74" viewBox="0 0 150 74" fill="none" xmlns="http://www.w3.org/2000/svg">
<g clip-path="url(#clip0_4904_3542)">
<path d="M27.302 47.9036C27.0873 47.8098 26.9933 47.7561 26.8993 47.7159C25.9598 47.3138 25.1275 47.5953 24.6309 48.4799C24.3624 48.9624 24.1342 49.4718 23.8658 49.9543C22.9933 51.4957 21.5705 52.1659 19.9061 52.3803C19.1275 52.4875 18.2953 52.5009 17.4631 52.0988C17.6376 51.8978 17.7853 51.7101 17.9463 51.5359C19.0202 50.41 20.1342 49.3109 21.1544 48.1314C22.2551 46.8715 23.1007 45.4374 23.651 43.7887C23.2886 43.7083 23.1812 43.963 23.0336 44.1372C22.3087 45.0219 21.6242 45.9333 20.8859 46.7911C19.8121 48.0242 18.5504 49.0161 17.047 49.6862C15.2618 50.4904 13.49 50.2626 11.6108 49.579C12.1074 49.1099 12.6175 48.8418 13.1141 48.5737C14.8725 47.6087 16.604 46.59 18.1879 45.3569C18.9262 44.7806 19.6242 44.1238 20.3087 43.4805C20.4967 43.3062 20.6309 43.065 20.8457 42.7835C20.349 42.6763 20.1342 42.9979 19.8658 43.1454C18.4564 43.9764 17.0604 44.8476 15.6242 45.6384C14.3356 46.3622 12.9396 46.8715 11.4497 47.0056C9.85237 47.153 8.36244 46.7509 6.97989 45.9467C6.51009 45.6652 6.08056 45.3167 5.55707 44.928C5.77183 44.8208 5.89264 44.7404 6.01344 44.7136C8.01344 44.2579 10.0403 43.896 12.0134 43.3598C13.5034 42.9577 14.953 42.3412 16.4027 41.7782C16.8725 41.5906 17.2752 41.2555 17.7181 40.9874C17.6913 40.9338 17.6644 40.8802 17.651 40.8266C17.396 40.8936 17.1275 40.9472 16.8725 41.0277C15.1275 41.604 13.3289 42.0061 11.5168 42.1535C9.87921 42.2876 8.22821 42.2474 6.59062 42.1535C5.55707 42.0999 4.63089 41.5504 3.8121 40.907C2.80539 40.1296 2.04029 39.1512 1.50338 37.9985C1.47653 37.9315 1.48995 37.8511 1.48995 37.7304C2.37586 37.8913 3.24834 38.0387 4.1074 38.2129C6.13425 38.615 8.18794 38.7357 10.2551 38.6955C11.7718 38.6687 13.2483 38.481 14.6846 38.0253C14.8322 37.9717 14.9799 37.9047 15.1544 37.8108C14.9128 37.4489 14.5906 37.5562 14.3087 37.5428C13.4765 37.5428 12.6443 37.5562 11.8121 37.5294C10.9262 37.4892 10.0403 37.4221 9.15438 37.3417C7.75841 37.2211 6.42955 36.8324 5.12754 36.3499C3.30203 35.6797 1.86579 34.5538 1.02015 32.7712C0.496664 31.6453 0.120825 30.4658 0.0537109 29.0987C1.10069 29.6616 2.08056 30.1977 3.06042 30.7205C5.58391 32.0608 8.22821 33.0526 11.0336 33.6022C11.9195 33.7764 12.8188 33.9775 13.7853 33.7496C13.6376 33.4279 13.3826 33.3743 13.1141 33.3073C11.5571 32.9052 10 32.4763 8.53693 31.8061C6.83223 31.0153 5.19465 30.1173 3.86579 28.777C2.18794 27.0881 1.32888 25.024 1.30203 22.6382C1.30203 21.9815 1.2215 21.3247 1.40942 20.5473C1.70472 20.8154 1.91948 21.003 2.13425 21.2041C3.78525 22.7857 5.44968 24.3405 7.30203 25.6942C9.10069 27.0077 10.9665 28.2274 13.0336 29.0852C13.2081 29.1523 13.3826 29.2059 13.651 29.1791C13.5571 29.045 13.49 28.8842 13.3557 28.7904C12.2416 27.9058 11.1007 27.0613 10.0134 26.1499C8.06713 24.5013 6.37586 22.6248 5.14096 20.3731C4.55036 19.3008 4.24163 18.1213 4.1074 16.8882C3.85237 14.6364 4.42955 12.5589 5.3423 10.535C5.36915 10.468 5.43626 10.401 5.53022 10.3071C5.82552 10.468 5.87921 10.7762 6.00002 11.0309C7.18123 13.658 8.65774 16.0974 10.3222 18.443C11.651 20.3328 13.1141 22.1155 14.7114 23.7909C16.8054 26.0025 19.047 28.0398 21.5571 29.7688C21.9061 30.0101 22.2416 30.2379 22.5772 30.4926C22.7517 30.6266 22.8993 30.7741 23.141 30.9885C22.8054 31.27 22.5369 31.5113 22.2685 31.7257C21.0738 32.6639 20.5638 33.9239 20.7383 35.3982C20.9262 36.8994 21.8524 37.9315 23.2483 38.4676C24.4967 38.9501 25.7047 38.8027 26.8054 37.9851C26.9799 37.8511 27.1678 37.717 27.3423 37.5964C27.3826 37.5696 27.4497 37.5964 27.5705 37.5964C27.5034 40.974 27.7047 44.3651 27.3691 47.8634" fill="black"/>
<path d="M57.2616 33.8033C58.3488 33.9775 59.3019 33.8033 60.2414 33.6156C63.6643 32.9321 66.8186 31.5783 69.8119 29.8225C70.1878 29.5946 70.577 29.407 71.0737 29.1389C71.0334 29.541 71.0602 29.8359 70.9797 30.104C70.7247 30.9886 70.4965 31.8732 70.1475 32.7176C69.3824 34.5003 67.973 35.6395 66.1878 36.3365C64.7784 36.8727 63.3555 37.3016 61.8388 37.4088C60.6978 37.4892 59.5703 37.6232 58.4294 37.6903C58.0133 37.7171 57.5971 37.65 57.181 37.6366C56.7784 37.6366 56.3623 37.4624 55.879 37.8645C56.2549 37.9985 56.5502 38.146 56.8589 38.213C58.322 38.5883 59.8119 38.7357 61.3153 38.7625C64.0267 38.7893 66.6844 38.4811 69.3153 37.8109C69.3958 37.7975 69.4763 37.7841 69.624 37.7707C69.6106 37.9181 69.624 38.0656 69.5837 38.1594C68.6978 39.8214 67.4763 41.1483 65.6911 41.8989C65.1676 42.1134 64.6441 42.2608 64.0804 42.2474C62.6844 42.2206 61.2884 42.2876 59.9059 42.2206C58.0938 42.1268 56.3488 41.7113 54.6173 41.1617C54.228 41.0411 53.8656 40.7998 53.3555 40.9607C54.1475 41.6443 55.0602 41.9927 55.9461 42.3546C58.2951 43.3197 60.7381 43.9496 63.2213 44.4188C63.9461 44.5528 64.671 44.7136 65.5435 44.8879C65.2213 45.1693 65.0065 45.3704 64.7784 45.5446C63.3421 46.6169 61.7045 47.1128 59.9327 47.0726C58.5904 47.0324 57.3287 46.5901 56.1072 46.0138C54.4159 45.223 52.8052 44.2713 51.275 43.2125C51.0065 43.0382 50.7784 42.7701 50.3488 42.7835C50.4159 43.199 50.6978 43.4269 50.926 43.6682C52.3622 45.1291 54.0401 46.2818 55.7716 47.3273C56.9529 48.0511 58.1743 48.7212 59.4361 49.4584C58.9126 49.9543 58.2951 49.9677 57.7314 50.075C55.2347 50.5709 53.2213 49.6059 51.4092 47.9975C50.1743 46.8984 49.0871 45.6787 48.1475 44.3249C47.9998 44.1105 47.8119 43.9228 47.4898 43.7888C47.53 43.9496 47.5435 44.1373 47.5971 44.2847C48.1341 45.7323 48.926 47.0458 49.9596 48.1985C50.9529 49.3244 52.0133 50.3833 53.0602 51.4689C53.2347 51.6432 53.4629 51.7772 53.6643 51.938C53.3421 52.3535 52.9797 52.367 52.6844 52.3938C50.2951 52.635 48.0938 51.8308 46.9126 49.4718C46.7784 49.2038 46.6576 48.9223 46.5233 48.6408C45.973 47.5685 45.1408 47.2871 44.0267 47.7964C43.9596 47.8232 43.8656 47.8366 43.7448 47.8634C43.4092 44.4322 43.624 41.0277 43.5435 37.4892C43.8119 37.6635 43.9596 37.7305 44.0804 37.8377C45.6643 39.2451 48.1878 39.0708 49.7045 37.1809C50.9529 35.6127 50.5502 33.0527 48.8455 31.7526C48.577 31.5515 48.3354 31.3371 47.9864 31.0556C48.2414 30.8277 48.4294 30.6401 48.6307 30.4792C49.9596 29.4606 51.3153 28.4821 52.6173 27.4501C54.4428 25.9891 56.1206 24.3405 57.6106 22.5445C58.9663 20.8958 60.322 19.2204 61.5032 17.4378C62.7112 15.6149 63.718 13.6446 64.8052 11.7413C65.0468 11.3124 65.275 10.8567 65.5435 10.334C65.6911 10.5484 65.8253 10.6691 65.8925 10.8299C66.5233 12.2641 66.9126 13.7384 67.02 15.32C67.2079 18.309 66.0938 20.7752 64.228 23.027C62.4159 25.2117 60.2549 26.9944 57.9998 28.6698C57.7851 28.8306 57.5032 28.9245 57.4763 29.3266C58.4965 29.0585 59.369 28.5894 60.228 28.0934C62.6307 26.7263 64.8589 25.1045 66.8723 23.2146C67.6508 22.4908 68.4159 21.7671 69.181 21.0433C69.3153 20.9092 69.4763 20.802 69.6106 20.6814C69.6911 20.735 69.7716 20.7618 69.7716 20.7886C69.9059 22.3166 69.9059 23.8312 69.4227 25.319C68.671 27.6377 67.1005 29.2461 65.1005 30.5329C63.0871 31.833 60.8723 32.6238 58.577 33.1867C58.2817 33.2537 57.9864 33.3342 57.7045 33.4414C57.5703 33.495 57.4629 33.629 57.275 33.8033" fill="black"/>
<path d="M5.00684 55.9188C5.28872 55.5569 5.54375 55.2352 5.79878 54.9135C5.77194 54.6052 5.73167 54.3104 5.73167 54.0021C5.73167 53.0638 6.36254 52.4473 7.28871 52.6081C7.94643 52.7288 8.40281 52.5947 8.80549 52.0854C8.85918 52.0318 8.93972 51.9916 9.03368 51.938C9.57059 52.2194 9.65113 52.7556 9.74509 53.2649C9.78536 53.4525 9.77194 53.6536 9.74509 53.8412C9.6914 54.364 9.77194 54.8197 10.1612 55.2218C10.2686 55.329 10.3894 55.5033 10.3894 55.6507C10.3894 56.2673 10.7921 56.5889 11.1679 56.9642C12.7921 58.5726 14.4162 60.181 16.0135 61.8028C16.4028 62.2049 16.8323 62.3926 17.4095 62.4328C17.9867 62.473 18.5639 62.5936 19.1142 62.7679C20.7115 63.2772 22.0001 62.6339 23.2082 61.7224C23.6511 61.3873 23.7585 60.8244 23.6914 60.2749C23.6243 59.7789 23.4632 59.3098 23.3558 58.8273C23.1813 58.1303 22.9129 57.4333 22.8458 56.7364C22.6981 55.2084 23.1813 53.8546 24.4297 52.903C25.0203 52.4473 25.7182 52.1256 26.4028 51.8307C27.0203 51.5627 27.2619 51.7503 27.3156 52.4339C27.3156 52.4875 27.3156 52.5411 27.3156 52.5947C27.3961 54.1093 28.0807 54.8197 29.6109 54.9001C30.1075 54.9269 30.6176 54.9537 31.1142 54.8733C31.7048 54.7795 32.2686 54.8331 32.8592 54.8867C33.9599 54.9805 34.6981 55.5703 35.2216 56.5085C35.3156 56.6694 35.3827 56.8436 35.5169 57.1117C35.678 56.8436 35.7988 56.6425 35.9062 56.4281C36.4297 55.4362 37.235 54.8867 38.3894 54.9001C39.3156 54.9001 40.2283 54.9001 41.1545 54.9001C41.4901 54.9001 41.8256 54.8733 42.1478 54.7929C43.1142 54.565 43.6646 53.8949 43.7317 52.903C43.7585 52.5143 43.7317 52.1256 43.7317 51.6565C44.8726 51.7637 45.7988 52.2194 46.6176 52.8628C48.0135 53.9753 48.4162 55.4765 48.1209 57.1921C48.0135 57.7818 47.7854 58.3582 47.6511 58.9613C47.5303 59.4707 47.4498 59.9934 47.3961 60.5161C47.3424 61.1595 47.6511 61.642 48.1612 61.9905C48.6847 62.3524 49.2753 62.5936 49.8525 62.7813C49.9867 62.0575 50.0941 61.3873 50.2417 60.7306C50.3223 60.4089 50.4699 60.1006 50.6444 59.8191C50.9531 59.3098 51.1948 59.3098 51.584 59.7789C52.3357 60.677 53.2753 60.9986 54.4162 60.744C54.8995 60.6367 55.2753 60.3821 55.6109 60.0202C55.8122 59.8057 56.027 59.5913 56.2283 59.3902C56.6713 59.4975 56.8055 59.8325 56.9531 60.114C58.1209 62.4328 56.886 64.8856 54.631 65.5022C53.584 65.7836 52.4968 65.7032 51.6109 64.9928C50.5773 64.1752 49.4229 63.8536 48.1478 63.7329C47.5169 63.6793 46.886 63.5185 46.2686 63.4247C45.9196 63.371 45.6511 63.1968 45.4766 62.8885C45.6243 62.2854 45.8256 61.709 45.933 61.1193C46.376 58.6128 44.188 56.5889 41.6914 57.1787C40.6444 57.4199 39.678 57.7818 38.9129 58.5994C38.376 59.1624 38.2552 59.8325 38.4028 60.5295C38.4699 60.811 38.725 61.1193 38.9666 61.2935C39.3021 61.5214 39.7182 61.6554 40.1075 61.7894C41.5303 62.2452 42.8726 62.8483 43.9867 63.8536C44.9666 64.7516 45.7585 65.7702 45.7988 67.191C45.8391 68.3839 45.2887 69.2417 44.2686 69.9923C43.5706 66.6549 41.4632 64.6846 38.4565 63.4247C38.9397 63.9742 39.3693 64.4567 39.8122 64.9526C40.5773 65.8104 41.2484 66.7085 41.5706 67.8478C41.9733 69.3221 41.6646 70.5955 40.5907 71.6677C40.3625 71.909 40.1209 72.1234 39.7585 72.4719C39.6243 71.6677 39.5169 70.9976 39.3827 70.3408C39.0471 68.6118 38.5236 66.9497 37.4229 65.529C37.3156 65.3815 37.1679 65.2609 36.98 65.0599C36.725 65.7166 37.0471 66.226 37.1142 66.7353C37.329 68.3303 37.5303 69.9253 37.1948 71.5337C36.9934 72.5255 36.4028 73.3968 35.4766 73.9865C35.2484 73.7989 34.9666 73.6246 34.7652 73.37C34.0672 72.4987 33.7048 71.5069 33.6646 70.381C33.6109 68.8396 33.7719 67.3384 34.1075 65.8373C34.1344 65.7032 34.1612 65.5692 34.1612 65.4218C34.1612 65.3413 34.1344 65.2609 34.1075 65.1135C33.9464 65.2207 33.7988 65.2743 33.7182 65.3815C32.725 66.5878 32.188 68.0086 31.8391 69.5098C31.6377 70.4212 31.4901 71.3594 31.3156 72.2977C29.5169 71.2388 28.8592 69.1747 29.5974 67.4189C30.0001 66.4672 30.5639 65.6094 31.3021 64.8722C31.7451 64.4299 32.188 63.9876 32.5773 63.4917C29.5706 64.6444 27.4632 66.6281 26.8055 69.9119C25.4498 69.1077 24.9397 67.6869 25.4095 66.2126C25.6914 65.3413 26.2417 64.631 26.886 64.0144C27.9196 63.0091 29.1545 62.3122 30.537 61.9101C30.886 61.8162 31.235 61.709 31.5706 61.575C32.7787 61.0925 33.1545 59.8191 32.3491 58.8005C32.0807 58.452 31.7317 58.1571 31.3693 57.9025C30.6713 57.4333 29.8525 57.1921 29.0337 57.0715C27.0068 56.79 25.1948 58.2778 25.074 60.3285C25.0471 60.7842 25.1948 61.2533 25.2753 61.7224C25.3021 61.8833 25.3693 62.0441 25.4229 62.1915C25.6511 62.9555 25.5303 63.2236 24.7652 63.3978C24.0941 63.5453 23.3961 63.6123 22.7115 63.7463C22.027 63.8804 21.3558 64.0412 20.6981 64.2289C20.2149 64.3763 19.8122 64.6846 19.5572 65.1805C19.8122 65.4888 20.0807 65.7702 20.3088 66.0785C20.631 66.5208 20.6713 66.8961 20.4565 67.1508C20.2149 67.4323 19.7854 67.4055 19.3156 67.0704C19.2887 67.057 19.2619 67.0436 19.2484 67.0168C18.7384 66.3734 18.0807 66.2125 17.2753 66.2394C16.3223 66.2662 15.4632 65.2877 15.5169 64.1618C15.5572 63.2906 15.1276 62.8483 14.5907 62.339C13.0471 60.8914 11.5437 59.3902 10.0404 57.9159C9.74509 57.621 9.46321 57.3529 8.97999 57.3261C8.73838 57.3261 8.44308 57.1385 8.26858 56.9508C7.91959 56.5755 7.54375 56.5085 7.06053 56.5889C6.22831 56.723 5.71825 56.5219 5.02026 55.8786" fill="black"/>
<path d="M51.8924 20.2793C49.1541 20.1184 46.7917 20.8422 44.6172 22.1557C42.4427 23.4693 41.2749 25.4798 40.8722 27.9862C40.5098 30.2514 41.0467 32.3289 42.0266 34.3394C42.2011 34.6879 42.3622 35.0364 42.5635 35.4251C42.4293 35.4787 42.3353 35.5323 42.2414 35.5323C38.7649 35.5725 35.2749 35.6261 31.7984 35.6529C30.9125 35.6529 30.0132 35.5859 29.1273 35.5457C28.9394 35.5457 28.7514 35.5055 28.4964 35.4787C28.7649 34.9291 29.0065 34.4332 29.2481 33.9373C29.9461 32.4897 30.3622 30.9618 30.3488 29.3533C30.3219 25.8283 28.4293 22.7991 25.1273 21.432C23.6239 20.802 22.0803 20.3865 20.4696 20.2257C20.0937 20.1854 19.7045 20.2525 19.2481 20.2793C19.0602 19.2606 19.3152 18.3894 19.9326 17.6254C20.5098 16.9016 21.3018 16.4593 22.1474 16.2046C23.0467 15.9366 23.9729 15.7489 24.9125 15.6685C26.3488 15.5479 27.7984 15.5479 29.2481 15.4809C30.1608 15.4407 31.0736 15.3736 31.9998 15.32C32.134 15.32 32.2682 15.32 32.5501 15.32C32.3756 15.5881 32.2414 15.7757 32.1206 15.9634C31.879 16.3387 31.5971 16.6872 31.3957 17.0759C30.7649 18.2956 31.0333 19.408 31.7716 20.5205C32.5635 21.7268 33.342 22.9465 33.9863 24.2333C34.7917 25.8283 35.2078 27.5573 35.3957 29.3399C35.4092 29.474 35.4628 29.5946 35.6239 29.7286C35.7045 29.2863 35.785 28.8574 35.8521 28.4151C36.2548 25.8149 37.3152 23.4827 38.7917 21.3247C38.9796 21.0433 39.1675 20.7752 39.3555 20.4937C40.389 18.9523 40.3219 17.5718 39.1541 16.1376C38.9259 15.8562 38.6977 15.5747 38.4696 15.2932C40.5098 15.3602 42.5098 15.3736 44.5232 15.5077C45.7984 15.5881 47.0736 15.6283 48.3219 15.9902C49.4092 16.2985 50.4159 16.7274 51.181 17.612C51.8387 18.376 52.0132 19.2606 51.9326 20.2793" fill="black"/>
<path d="M16.7787 15.7088C16.0673 15.2262 13.1277 13.9395 11.9331 13.5642C12.1613 13.3498 12.3492 13.1755 12.5506 13.0013C12.913 12.693 13.262 12.3847 13.6244 12.0765C14.2553 11.5537 14.3626 10.8701 14.215 10.1062C14.1613 9.81128 14.0942 9.50301 14.0539 9.20813C13.9734 8.64519 14.0136 8.53796 14.5506 8.32351C14.9532 8.14926 15.3828 8.00183 15.8123 7.8812C17.7183 7.35847 19.3291 6.36662 20.6982 4.97267C21.0606 4.61078 21.4633 4.34271 21.9734 4.20867C22.4432 4.07464 22.8861 4.14166 23.2083 4.49014C23.5036 4.81183 23.5707 5.22733 23.3962 5.65624C23.1277 6.2996 22.8593 6.94296 22.6042 7.58632C22.1881 8.60498 21.9868 9.66385 22.1479 10.7629C22.3358 11.996 23.517 12.8136 24.8727 12.5456C24.7385 12.2909 24.6177 12.0496 24.4834 11.8218C24.3224 11.5671 24.1076 11.3259 23.9734 11.0578C23.4096 9.98553 23.9599 8.75242 25.1143 8.41733C25.5573 8.2833 25.7049 8.36372 25.8257 8.83284C25.9331 9.26174 26.0405 9.69065 26.1479 10.1196C26.2418 10.4949 26.4566 10.6825 26.8727 10.6557C27.3559 10.6289 27.5036 10.5753 27.6647 10.0794C27.8123 9.66385 27.8928 9.22153 28.0136 8.79263C28.1479 8.32351 28.2687 8.2699 28.7385 8.43074C29.9197 8.83284 30.3761 9.93191 29.8123 11.0444C29.6781 11.3125 29.4633 11.5403 29.3022 11.8084C29.1546 12.063 28.9264 12.3043 29.1143 12.6796C29.7855 12.76 30.3492 12.5054 30.8459 12.0899C31.7989 11.2857 32.1479 10.2402 32.0136 9.03389C31.9868 8.80603 31.8257 8.57817 31.6915 8.37712C31.3828 7.92141 30.9935 7.4925 30.7385 7.00998C29.8123 5.33456 30.3626 3.17661 32.7251 2.49304C32.9264 2.43943 33.168 2.49304 33.4633 2.49304C33.5975 3.00237 33.7183 3.4983 33.866 3.99422C34.0271 4.55716 34.1881 5.1067 34.3626 5.66964C34.4969 6.12536 34.7922 6.38002 35.2888 6.313C35.4499 6.2862 35.6244 6.2996 35.7855 6.313C36.3224 6.36662 36.6311 6.08515 36.7787 5.60262C36.9935 4.85204 37.2083 4.11485 37.3693 3.35086C37.5573 2.42603 37.7989 2.29199 38.6848 2.61367C40.7251 3.35086 41.2754 5.45519 40.3089 7.1038C40.0942 7.46569 39.8794 7.84099 39.5841 8.12246C38.913 8.75242 38.9532 9.50301 39.1412 10.2804C39.4767 11.7414 40.6445 12.7466 41.96 12.7332C42.2016 12.3981 41.9868 12.1167 41.8257 11.8486C41.6244 11.5135 41.3828 11.2052 41.2351 10.8433C40.7922 9.73086 41.2754 8.76582 42.4163 8.41733C42.8324 8.2967 42.9532 8.33691 43.0875 8.76582C43.2351 9.20813 43.3291 9.67725 43.4767 10.1196C43.5841 10.468 43.8123 10.6691 44.215 10.6557C44.6042 10.6557 44.8593 10.5485 44.9532 10.1464C45.0472 9.74427 45.1546 9.34216 45.262 8.94006C45.423 8.33691 45.6512 8.22969 46.2284 8.49775C47.262 8.96687 47.6512 10.0525 47.1277 11.0578C46.9801 11.3527 46.7519 11.6073 46.5908 11.9022C46.47 12.1033 46.3895 12.3177 46.2821 12.559C47.5304 12.7868 48.6042 12.1033 48.9264 10.9774C49.1546 10.2 49.0606 9.42258 48.8459 8.6854C48.6579 7.98842 48.3492 7.33166 48.0942 6.66149C47.9465 6.27279 47.772 5.8975 47.6781 5.4954C47.5036 4.7046 48.1479 4.03443 48.9398 4.20867C49.3559 4.3025 49.7586 4.54376 50.121 4.78502C50.4029 4.95926 50.6311 5.22733 50.8593 5.45519C52.1747 6.72851 53.7586 7.4925 55.4902 8.00183C55.9465 8.13586 56.3895 8.2833 56.8593 8.44414C57.0204 9.03389 57.0204 9.62364 56.8861 10.1732C56.6445 11.1382 56.9398 11.8486 57.7318 12.4249C58.215 12.7868 58.6848 13.1621 59.3022 13.6715C58.8861 13.7519 58.6445 13.8457 58.4163 13.8457C56.8861 13.7921 55.6378 14.3148 54.6982 15.5479C54.6311 15.6283 54.5237 15.6686 54.4029 15.749C53.8257 15.3201 53.7183 14.6901 53.611 14.0736C53.3425 12.559 53.611 11.165 54.4298 9.85149C54.9398 9.02048 54.7251 8.35032 53.866 7.908C52.7385 7.30485 51.5841 6.72851 50.3224 6.48725C50.0673 6.43363 49.7989 6.46044 49.4633 6.44704C49.4633 6.91615 49.4633 7.29145 49.4633 7.66674C49.5036 8.6988 49.6244 9.71746 49.5707 10.7361C49.517 11.6341 49.0069 12.3847 48.1479 12.7466C47.5707 12.9879 46.9264 13.1621 46.3089 13.1889C44.8861 13.2559 43.4633 13.1889 42.0405 13.2157C41.0204 13.2425 40.2016 12.8136 39.4767 12.1837C39.0606 11.8218 38.6714 11.4063 38.3626 10.9506C37.8257 10.2 37.1277 9.8783 36.2284 9.8783C35.7318 9.8783 35.2217 9.8783 34.7251 9.8783C33.9197 9.8783 33.2888 10.2 32.8056 10.8567C32.5103 11.2588 32.1747 11.6341 31.8257 11.996C31.0472 12.8002 30.0808 13.1755 28.9801 13.2023C27.5841 13.2291 26.1881 13.2425 24.8056 13.1889C24.2016 13.1621 23.5841 13.0281 23.0338 12.8002C22.0405 12.3847 21.5573 11.5403 21.4902 10.4949C21.423 9.52981 21.3828 8.55137 21.6378 7.58632C21.6781 7.45229 21.6646 7.30485 21.6781 7.17082C21.7452 6.46044 21.611 6.32641 20.8861 6.46044C19.5304 6.72851 18.2955 7.29145 17.1009 7.97502C16.3492 8.40393 16.2016 9.06069 16.6579 9.83809C17.1412 10.6691 17.4499 11.5537 17.5707 12.492C17.7183 13.658 17.4365 14.7303 16.7922 15.7758" fill="black"/>
<path d="M41.6642 50.8927C41.1676 50.8927 40.7783 50.9195 40.4025 50.8927C39.8253 50.8391 39.6374 50.6246 39.5568 50.0617C39.436 49.2709 39.3286 48.4667 39.2212 47.6759C39.2212 47.5955 39.1541 47.5285 39.1139 47.4346H37.6105C37.53 47.6625 37.436 47.9037 37.3689 48.1718C37.0333 49.4049 36.6441 50.6112 36.0535 51.7505C35.9327 51.9918 35.785 52.2196 35.5702 52.5815C35.3555 52.2598 35.1541 52.0588 35.0736 51.8175C34.6038 50.571 34.1608 49.3245 33.7179 48.078C33.6508 47.8769 33.5702 47.6759 33.5031 47.4614H31.9327C31.7984 48.3595 31.6776 49.2307 31.5434 50.1019C31.4494 50.7185 31.3421 50.8525 30.7112 50.9195C30.3219 50.9597 29.9327 50.9195 29.4092 50.9195C30.4964 49.8204 30.7783 48.4801 31.0467 47.113C30.8991 47.0057 30.7783 46.8851 30.6441 46.8181C29.2481 46.1479 28.6709 43.6683 29.9058 42.2341C30.0669 42.0465 30.2682 41.899 30.4561 41.7248C30.9394 41.2959 30.9394 41.2959 30.7246 40.6659C30.6172 40.3577 30.4964 40.0494 30.389 39.7411C31.2615 39.406 31.5837 39.473 31.9595 40.237C32.228 40.7598 32.577 40.9206 33.1407 40.9206C33.7447 40.9206 34.3353 41.0814 34.9931 41.1887C35.0199 41.0814 35.0736 40.934 35.087 40.7866C35.1139 40.4649 35.2347 40.2504 35.5971 40.2638C35.9595 40.2772 36.0535 40.5185 36.0669 40.8268C36.0669 40.9608 36.1206 41.0814 36.134 41.1485C36.9528 41.0546 37.7045 40.9608 38.4696 40.8938C38.8051 40.867 38.9394 40.6391 39.0736 40.3979C39.6642 39.4328 39.6776 39.4328 40.832 39.6205C40.6843 39.9824 40.5233 40.3308 40.4025 40.6927C40.1877 41.2825 40.1877 41.3093 40.6575 41.6712C41.7582 42.5424 42.0937 43.6415 41.785 44.9952C41.6105 45.7458 41.2212 46.3087 40.6038 46.7377C40.0803 47.0995 40.1072 47.0995 40.228 47.7429C40.4427 48.8956 40.7917 49.9813 41.7179 50.9195M36.0669 42.2341C36.0669 43.3198 36.0669 44.3653 36.0669 45.4241C36.0669 46.2417 36.2951 46.4696 37.1944 46.6036C37.6374 45.3437 38.4427 41.9393 38.389 41.4835C37.5702 41.5103 36.8051 41.6846 36.0669 42.2207M33.9863 46.6706C34.5635 46.5232 35.0736 46.349 35.087 45.7458C35.1273 44.5529 35.1004 43.36 35.1004 42.1939C34.3085 41.7114 33.5702 41.4031 32.6709 41.564C33.1139 43.2796 33.5434 44.9416 33.9863 46.6706ZM39.2481 41.8454C39.2481 41.8454 39.1407 41.8186 39.087 41.8052C38.483 43.4136 38.134 45.0756 37.8387 46.7913C38.4025 46.9923 38.832 46.8583 39.2615 46.6304V41.8454H39.2481ZM31.9998 41.8454V46.6572C32.4561 46.8449 32.8857 47.0057 33.4092 46.7645C33.1004 45.0756 32.7649 43.4002 31.9998 41.8454ZM40.0132 46.3624C41.4494 45.1829 41.4629 43.3198 40.1474 42.2609C39.8253 43.5879 39.9461 44.888 40.0132 46.3624ZM31.1944 46.2417C31.2212 44.8478 31.3957 43.5611 31.0333 42.2475C29.7179 43.36 29.7582 45.3303 31.1944 46.2417ZM36.1206 46.9655C36.0535 47.9038 36.0266 48.775 36.389 49.7936C36.6441 48.8688 36.8588 48.1182 37.087 47.3274C36.738 47.1934 36.4561 47.0995 36.1206 46.9655ZM34.7649 49.606C35.087 48.7214 35.1676 47.8903 35.0602 46.9655C34.7112 47.0995 34.4159 47.2068 34.0937 47.3274C34.3353 48.145 34.5635 48.8822 34.7783 49.606" fill="black"/>
<path d="M123.114 31.3907C122.913 32.4227 122.778 32.4898 121.436 32.2351C121.383 31.9938 121.329 31.7258 121.262 31.4041C120.94 31.3371 120.604 31.2298 120.255 31.1896C119.517 31.1226 118.859 30.868 118.215 30.5061C117.074 29.8895 116.497 28.9379 116.309 27.6511C116.107 26.2706 116.456 25.1447 117.517 24.2199C118.336 23.4961 119.342 23.1744 120.389 23.0002C121.262 22.8527 121.262 22.8795 121.45 22.0217H122.94C122.993 22.2898 123.06 22.5579 123.127 22.8661C123.638 22.96 124.148 23.027 124.658 23.1744C125.772 23.4961 126.832 23.925 127.463 24.9705C128.416 26.5521 128.376 29.1657 126.322 30.3988C125.651 30.8009 124.94 31.0958 124.148 31.1762C123.825 31.2164 123.49 31.2969 123.127 31.3773M121.154 24.3271C120.013 24.5282 118.819 24.6756 118.255 25.9087C117.825 26.8335 117.852 27.7986 118.483 28.6698C119.06 29.4606 120.309 29.9297 121.262 29.7421C121.436 28.6296 121.383 24.9571 121.154 24.3405M123.087 29.8627C124.403 29.8225 125.463 29.4472 126.054 28.3347C126.537 27.4501 126.523 26.485 125.919 25.6406C125.235 24.689 124.228 24.4209 123.087 24.3539V29.8493V29.8627Z" fill="black"/>
<path d="M90.1341 22.3701H91.4093C91.6375 23.0537 91.7314 30.7875 91.5301 31.9401C91.3019 31.9535 91.0603 31.9804 90.8187 31.9938C90.5771 31.9938 90.322 31.9938 90.0401 31.9938C89.812 31.3102 89.9462 30.64 89.9193 29.9832C89.8925 29.2863 89.9193 28.5893 89.9193 27.8923V25.922C89.9193 25.922 89.812 25.8818 89.7583 25.8684C89.5838 26.1365 89.4093 26.418 89.2482 26.686C88.5771 27.7985 87.9193 28.9378 87.2214 30.0369C86.6039 31.0153 86.161 31.0153 85.5032 30.0369C84.7918 28.9378 84.1207 27.8253 83.4227 26.7128C83.275 26.485 83.1274 26.2571 82.8724 25.8818C82.8187 26.2437 82.765 26.4448 82.765 26.6458C82.765 28.1202 82.765 29.5946 82.765 31.0689C82.765 31.337 82.7381 31.6051 82.7247 31.9267H81.1945C81.02 31.337 80.9529 24.2466 81.114 22.3433C81.5032 22.3433 81.9059 22.3165 82.322 22.3299C82.6576 22.3299 82.765 22.6248 82.9126 22.8527C83.9328 24.5415 84.9529 26.2303 85.973 27.9191C86.0804 28.1068 86.2146 28.281 86.4026 28.5491C87.1677 27.517 87.718 26.4314 88.3623 25.3993C88.9932 24.3806 89.5703 23.3486 90.1744 22.3433" fill="black"/>
<path d="M129.986 22.3836H131.731V29.0451C131.959 28.8306 132.094 28.7368 132.188 28.6162C133.624 26.7129 135.074 24.8096 136.496 22.8795C136.792 22.4908 137.114 22.263 137.61 22.3166C137.906 22.3568 138.215 22.3166 138.564 22.3166V31.9268H136.805C136.778 29.7421 136.805 27.5841 136.792 25.2251C136.268 25.8819 135.852 26.3778 135.463 26.9006C134.402 28.2945 133.342 29.6885 132.295 31.0958C131.543 32.1011 131.409 32.1547 129.986 31.8598V22.3568V22.3836Z" fill="black"/>
<path d="M124.363 47.4613C125.101 46.4963 125.839 45.5312 126.564 44.5662C127.383 43.4805 128.228 42.4082 129.034 41.3092C129.275 40.9875 129.544 40.8401 129.933 40.8669C130.269 40.8937 130.591 40.8669 130.913 40.8669C131.087 41.5236 131.114 49.5656 130.953 50.5173C130.725 50.5307 130.483 50.5575 130.228 50.5575C129.933 50.5575 129.624 50.5575 129.262 50.5575V43.9898C129.262 43.9898 129.168 43.9496 129.114 43.9228C128.806 44.2847 128.483 44.6466 128.202 45.0353C127.007 46.6035 125.799 48.1583 124.658 49.7667C124.242 50.3565 123.785 50.6647 123.074 50.5441C122.886 50.5173 122.698 50.5173 122.457 50.5039V40.9205H124.175C124.282 41.604 124.202 42.3144 124.215 43.0248C124.215 43.7754 124.215 44.526 124.215 45.2766V47.4077C124.215 47.4077 124.322 47.4345 124.376 47.4479" fill="black"/>
<path d="M94.4028 22.3568H96.0673C96.1746 23.0672 96.1075 23.7909 96.121 24.5013C96.121 25.2519 96.121 26.0025 96.121 26.7531V29.1255C96.4297 28.777 96.6176 28.5894 96.7787 28.3749C98.0807 26.6459 99.423 24.9436 100.671 23.1744C101.141 22.5176 101.651 22.2496 102.416 22.3434C102.577 22.3702 102.738 22.3702 102.94 22.3836V31.9536C102.671 31.967 102.416 31.9938 102.175 31.9938C101.933 31.9938 101.678 31.9938 101.396 31.9938C101.155 31.2432 101.302 30.5194 101.275 29.8225C101.248 29.0987 101.275 28.3749 101.275 27.6511V25.4128C100.792 25.587 100.604 25.9623 100.363 26.284C99.0471 28.013 97.7317 29.7286 96.4431 31.4845C96.1344 31.9 95.8256 32.0742 95.329 32.0072C95.0605 31.9804 94.7921 31.9804 94.4028 31.967C94.4028 28.7636 94.4028 25.6004 94.4028 22.3702" fill="black"/>
<path d="M133.799 50.4906V40.9474H135.423C135.544 41.6444 135.463 42.3681 135.476 43.0785C135.49 43.8291 135.476 44.5797 135.476 45.3303C135.476 46.0407 135.476 46.7511 135.49 47.448C135.544 47.4614 135.597 47.4882 135.651 47.5016C135.893 47.2068 136.134 46.9253 136.362 46.617C137.691 44.8612 139.02 43.1187 140.322 41.3495C140.577 41.001 140.846 40.8 141.289 40.8536C141.584 40.8804 141.893 40.8536 142.174 40.8536C142.362 41.5103 142.429 48.9626 142.268 50.4772H140.644C140.591 49.4183 140.631 48.346 140.617 47.2604C140.617 46.1747 140.617 45.089 140.617 43.8425C140.362 44.0838 140.201 44.2044 140.08 44.3652C138.819 46.0139 137.557 47.6759 136.282 49.3379C136.201 49.4451 136.121 49.5658 136.04 49.673C135.289 50.5844 135.141 50.638 133.785 50.4638" fill="black"/>
<path d="M95.3957 50.6111C94.1877 50.6379 93.1004 50.2894 92.134 49.5523C91.2615 48.8955 90.7649 48.0377 90.4964 47.019C90.2548 46.0942 90.2682 45.1425 90.5098 44.2177C90.8051 43.1186 91.5031 42.2876 92.4159 41.6711C94.5501 40.2235 97.6374 40.4648 99.3689 42.3546C101.651 44.8343 100.899 49.2842 97.2212 50.3699C96.9796 50.4369 96.738 50.5173 96.4964 50.5441C96.134 50.5843 95.7716 50.5843 95.4092 50.5977M98.832 45.6787C98.9528 43.8558 97.3823 42.3144 95.4629 42.3144C93.7045 42.3144 92.0803 43.7754 92.0937 45.7189C92.0937 47.4613 93.5165 49.0831 95.5837 49.0831C97.1676 49.0831 99.0199 47.5417 98.8186 45.6787" fill="black"/>
<path d="M107.436 31.9535H105.718V22.3835H107.477V26.1901C108.161 26.3643 110.899 26.418 112.416 26.2973C112.618 25.6674 112.483 24.9972 112.51 24.3404C112.537 23.7105 112.51 23.0671 112.51 22.3835H114.215C114.376 22.9733 114.443 30.2245 114.295 31.9267H112.524V27.8923H107.53C107.396 29.2193 107.557 30.573 107.436 31.9401" fill="black"/>
<path d="M149.892 31.9401H148.255C148.08 31.2968 148.188 30.6266 148.174 29.9832C148.147 29.3131 148.174 28.6563 148.174 27.9995C147.584 27.8119 144.402 27.7583 143.181 27.9191C143.074 29.2192 143.208 30.5596 143.1 31.9401H141.423C141.423 31.9401 141.396 31.9267 141.382 31.8999C141.369 31.8865 141.342 31.8597 141.342 31.8329C141.329 31.7257 141.302 31.6184 141.302 31.4978C141.302 28.5491 141.302 25.6003 141.302 22.6516C141.302 22.5712 141.342 22.5042 141.369 22.3701H143.114V26.2839H148.107C148.241 24.9972 148.094 23.7239 148.201 22.3835H149.839C150 22.9197 150.067 30.6132 149.892 31.9267" fill="black"/>
<path d="M81.1408 40.8936C82.9395 40.8534 84.6979 40.7863 86.4429 41.0678C88.2415 41.3627 89.0737 42.9309 89.114 44.231C89.1811 46.2549 87.718 47.3674 86.4563 47.5416C85.5838 47.6757 84.6845 47.6623 83.7851 47.7159C83.5167 47.7293 83.2482 47.7427 82.8992 47.7561V50.5038H81.1811C81.02 49.9542 80.9664 42.006 81.1408 40.8936ZM82.9395 42.4215V46.2281C83.6643 46.2281 84.3355 46.2415 84.9932 46.2281C85.3556 46.2147 85.718 46.1611 86.0536 46.0673C86.8724 45.826 87.3825 45.129 87.3422 44.3248C87.2751 43.3062 86.7247 42.7566 85.9462 42.569C84.9529 42.3277 83.9731 42.4349 82.9261 42.4484" fill="black"/>
<path d="M110.913 42.3144C110.752 42.502 110.671 42.6226 110.577 42.7165C109.96 43.333 109.812 43.3732 109.087 42.8773C108.04 42.1535 105.96 42.1535 104.873 43.1722C103.839 44.1372 103.597 45.3167 103.866 46.6034C104.134 47.8366 104.953 48.681 106.188 48.9758C107.275 49.2439 108.349 49.1903 109.275 48.4263C109.383 48.3325 109.504 48.2655 109.611 48.185C109.651 48.1582 109.705 48.1448 109.839 48.0778C110.161 48.3593 110.497 48.6676 110.873 48.9892C110.658 49.4316 110.336 49.6728 109.987 49.8873C109.262 50.3296 108.483 50.5976 107.624 50.5708C106.873 50.544 106.134 50.6245 105.383 50.41C103.061 49.7398 101.705 47.3808 102.027 45.1023C102.322 42.9845 103.517 41.537 105.624 40.974C107.584 40.4513 109.342 40.8534 110.926 42.3144" fill="black"/>
<path d="M120.59 42.3814C120.429 42.569 120.322 42.7165 120.188 42.8505C119.705 43.3196 119.611 43.3464 119.033 42.9711C118.309 42.502 117.517 42.368 116.658 42.3546C115.221 42.3278 113.463 43.7485 113.503 45.7858C113.53 47.4881 114.926 49.0697 116.711 49.0697C117.946 49.0697 117.973 49.0697 119.584 48.051C119.946 48.3459 120.362 48.6273 120.577 49.1501C119.906 49.9275 119.033 50.41 118.067 50.5306C117.168 50.6379 116.215 50.5976 115.342 50.41C113.382 49.9677 112.268 48.6273 111.839 46.6973C111.382 44.5929 112.188 42.9443 113.839 41.671C114.51 41.1483 115.302 40.8668 116.161 40.8668C116.725 40.8668 117.275 40.8534 117.839 40.8668C118.792 40.907 119.986 41.5504 120.59 42.368" fill="black"/>
<path d="M36.8589 1.32691C36.8858 1.98367 36.3086 2.56002 35.624 2.62704C34.9395 2.69405 34.2549 1.97027 34.2146 1.36712C34.1743 0.696951 34.8455 -2.43655e-05 35.5032 -0.0134277C36.1609 -0.0134277 36.8321 0.643337 36.8589 1.31351" fill="black"/>
<path d="M53.7049 59.4573C52.9934 59.4573 52.4431 58.9077 52.4297 58.2242C52.4297 57.5138 53.0337 56.9106 53.7451 56.924C54.376 56.924 55.0874 57.6478 55.0203 58.3046C54.9532 59.0418 54.5102 59.5109 53.6914 59.4707" fill="black"/>
<path d="M44.1879 8.26992C43.8792 8.29673 43.4765 7.96164 43.4228 7.62656C43.3691 7.27807 43.7315 6.84916 44.0939 6.82236C44.4429 6.79555 44.859 7.18425 44.859 7.54614C44.859 7.85442 44.4832 8.24311 44.1745 8.26992" fill="black"/>
<path d="M27.6374 7.53266C27.6374 7.85434 27.1676 8.28325 26.8589 8.26984C26.5502 8.25644 26.1743 7.84093 26.1743 7.54606C26.1743 7.21098 26.6038 6.79547 26.9528 6.82228C27.275 6.84909 27.6508 7.22438 27.6508 7.53266" fill="black"/>
</g>
<defs>
<clipPath id="clip0_4904_3542">
<rect width="150" height="74" fill="white"/>
</clipPath>
</defs>
</svg>
