<svg width="167" height="28" viewBox="0 0 167 28" fill="none" xmlns="http://www.w3.org/2000/svg">
<mask id="mask0_4904_8063" style="mask-type:luminance" maskUnits="userSpaceOnUse" x="0" y="0" width="167" height="28">
<path d="M13.7041 0C6.14527 0 0 6.13039 0 13.6892C0 21.248 6.13039 27.3933 13.7041 27.3933H152.917C160.476 27.3933 166.622 21.2629 166.622 13.6892C166.622 6.11551 160.491 0 152.917 0H13.7041Z" fill="white"/>
</mask>
<g mask="url(#mask0_4904_8063)">
<path d="M83.3039 -83.3083L-13.6934 13.689L83.3039 110.686L180.301 13.689L83.3039 -83.3083Z" fill="url(#paint0_linear_4904_8063)"/>
<path d="M18.525 16.0253H20.4593L21.2033 13.2279H19.269L19.6856 11.6358H21.6348L22.6764 7.78197H24.581L23.5394 11.6209H25.1018L26.1433 7.76709H28.0331L26.9915 11.6209H28.9258L28.5092 13.213H26.56L25.816 16.0104H27.7503L27.3337 17.6025H25.3845L24.3578 21.4265H22.4532L23.4799 17.6174H21.9027L20.876 21.4265H18.9714L19.9981 17.6174H18.0786L18.4952 16.0253H18.525ZM23.9263 16.0253L24.6703 13.2279H23.093L22.3342 16.0253H23.9114H23.9263Z" fill="white"/>
<path d="M30.3242 7.4248H34.5947L37.0647 18.3315H37.0944L39.5644 7.4248H43.8646V21.4414H41.1417V9.71626L38.4633 21.4414H35.6213L33.0621 9.71626H33.0174V21.4414H30.3391V7.4248H30.3242Z" fill="white"/>
<path d="M46.8257 7.42503H49.7272V12.9454H52.5245C52.7328 12.9454 53.0007 12.9454 53.328 12.9602C53.6851 12.9751 54.0423 13.0198 54.3845 13.0942C54.7714 13.1834 55.1433 13.3025 55.5005 13.4661C55.8873 13.6447 56.2295 13.8828 56.5271 14.1952C56.8545 14.5375 57.1074 14.9541 57.2711 15.4005C57.4794 15.9808 57.5836 16.5909 57.5538 17.2009C57.5687 17.811 57.4794 18.421 57.2711 18.9865C57.1074 19.4329 56.8545 19.8346 56.542 20.1768C56.2593 20.4744 55.932 20.7274 55.56 20.9059C55.2326 21.0696 54.8755 21.1886 54.5035 21.2779C54.1911 21.3523 53.8786 21.397 53.5661 21.4118C53.2834 21.4118 53.0751 21.4267 52.9412 21.4267H46.7959V7.41016L46.8257 7.42503ZM49.7569 19.0162H52.2567C52.5394 19.0162 52.8072 19.0014 53.09 18.9567C53.3578 18.9121 53.6256 18.8377 53.8637 18.7038C54.1018 18.5698 54.3101 18.3764 54.444 18.1383C54.6077 17.8259 54.6821 17.4836 54.6672 17.1414C54.6821 16.7843 54.6077 16.4272 54.444 16.0998C54.3101 15.8618 54.1018 15.6683 53.8637 15.5344C53.6107 15.4005 53.328 15.3261 53.0304 15.2963C52.7328 15.2666 52.4204 15.2517 52.1228 15.2517H49.7718V19.0162H49.7569ZM59.4882 7.42503H62.3897V21.4416H59.4882V7.42503Z" fill="white"/>
<path d="M65.2466 7.42503H72.1209C72.6268 7.42503 73.1327 7.46967 73.6386 7.58871C74.0404 7.67799 74.4124 7.82678 74.7695 8.0351C75.3349 8.36245 75.7962 8.8386 76.0789 9.43378C76.1979 9.68673 76.2872 9.95456 76.3467 10.2373C76.4062 10.4902 76.4211 10.7581 76.436 11.011C76.436 11.3384 76.4062 11.6508 76.3318 11.9633C76.2723 12.2311 76.1682 12.499 76.0343 12.737C75.9003 12.9751 75.7218 13.1834 75.4986 13.362C75.2605 13.5703 74.9927 13.734 74.71 13.8679C75.1266 14.0167 75.5135 14.2399 75.8557 14.5375C76.1235 14.7756 76.3467 15.0583 76.5104 15.3707C76.6592 15.6683 76.7634 15.9808 76.808 16.3081C76.8526 16.6206 76.8824 16.9182 76.8824 17.2307C76.8824 17.8556 76.7634 18.4657 76.5104 19.0311C76.2723 19.5519 75.9152 19.9983 75.454 20.3405C74.9629 20.7125 74.3975 20.9952 73.7874 21.144C73.0881 21.3374 72.359 21.4267 71.6448 21.4267H65.2168V7.41016L65.2466 7.42503ZM68.0588 12.9454H71.6745C71.9275 12.9454 72.1656 12.9156 72.4036 12.8561C72.6268 12.8114 72.8351 12.7073 73.0286 12.5734C73.2071 12.4395 73.3559 12.2758 73.4601 12.0823C73.5791 11.8592 73.6238 11.6062 73.6238 11.3532C73.6238 11.1003 73.5791 10.8473 73.475 10.6093C73.3857 10.4158 73.2369 10.267 73.0583 10.148C72.8798 10.029 72.6715 9.95457 72.4632 9.90993C72.2251 9.86529 71.987 9.83553 71.7341 9.85041H68.0439V12.9602L68.0588 12.9454ZM68.0588 19.0162H71.7043C72.0019 19.0162 72.2995 18.9865 72.5971 18.8972C72.85 18.8377 73.103 18.7186 73.3113 18.555C73.5196 18.4062 73.6684 18.1978 73.7726 17.9598C73.8916 17.6919 73.9511 17.4092 73.9362 17.1265C73.9362 16.7843 73.8767 16.4569 73.7428 16.1445C73.6238 15.9064 73.4452 15.713 73.222 15.579C72.9988 15.4451 72.7459 15.3558 72.478 15.3112C72.2102 15.2666 71.9275 15.2517 71.6448 15.2517H68.0737V19.0162H68.0588Z" fill="white"/>
<path d="M79.1147 7.4248H83.4001L85.8552 18.3315H85.8998L88.355 7.4248H92.6849V21.4414H89.9768V9.71626H89.9471L87.2688 21.4414H84.4268L81.8675 9.71626H81.8377V21.4414H79.1445L79.1147 7.4248Z" fill="white"/>
<path d="M95.6162 7.4248H105.913V9.8353H98.4285V12.9451H105.318V15.3705H98.4285V18.9118H106.24V21.4414H95.6162V7.4248Z" fill="white"/>
<path d="M117.474 12.0374C117.444 11.9035 117.385 11.7547 117.325 11.5761C117.266 11.3976 117.191 11.219 117.087 11.0405C116.983 10.847 116.864 10.6834 116.715 10.5197C116.551 10.3411 116.373 10.1774 116.165 10.0584C115.912 9.90961 115.644 9.80546 115.361 9.73106C115.004 9.64178 114.632 9.59714 114.26 9.61202C114.052 9.61202 113.828 9.64178 113.62 9.67154C113.367 9.71618 113.114 9.80546 112.876 9.92449C112.608 10.0584 112.355 10.237 112.132 10.4453C111.864 10.6982 111.641 10.9809 111.477 11.3083C111.269 11.7249 111.106 12.1564 111.001 12.6177C110.867 13.2129 110.808 13.8229 110.823 14.433C110.823 15.1175 110.897 15.8019 111.061 16.4715C111.195 17.0221 111.418 17.528 111.745 17.9892C112.326 18.8076 113.278 19.2837 114.275 19.2391C114.796 19.254 115.316 19.1647 115.778 18.9564C116.12 18.7927 116.432 18.5546 116.7 18.2719C116.923 18.019 117.102 17.7214 117.221 17.4089C117.34 17.1113 117.429 16.8435 117.489 16.6352H120.39C120.256 17.4387 119.989 18.2124 119.602 18.9266C119.26 19.5367 118.798 20.0873 118.263 20.5336C117.727 20.9651 117.132 21.2776 116.477 21.4859C114.87 21.9621 113.159 21.9026 111.611 21.2776C110.823 20.9503 110.138 20.4444 109.573 19.7897C109.007 19.1052 108.576 18.3166 108.323 17.4684C108.025 16.4864 107.892 15.4597 107.906 14.433C107.906 13.6444 107.981 12.8558 108.159 12.082C108.308 11.4273 108.546 10.8024 108.859 10.2221C109.394 9.21028 110.213 8.37702 111.21 7.82647C111.686 7.57352 112.177 7.38008 112.698 7.26105C113.218 7.12713 113.739 7.06761 114.275 7.05273C114.959 7.05273 115.644 7.12713 116.313 7.29081C116.849 7.4396 117.385 7.64792 117.861 7.93063C118.277 8.18358 118.664 8.48118 118.992 8.83829C119.289 9.16564 119.557 9.52274 119.765 9.89473C119.959 10.237 120.108 10.609 120.212 10.9958C120.301 11.3232 120.375 11.6654 120.39 12.0076L117.444 12.0374H117.474Z" fill="white"/>
<path d="M121.388 7.4248H132.875V9.8353H128.589V21.4414H125.658V9.8353H121.388V7.4248Z" fill="white"/>
<path d="M134.69 7.4248H144.987V9.8353H137.502V12.9451H144.377V15.3705H137.502V18.9118H145.314V21.4414H134.69V7.4248Z" fill="white"/>
</g>
<defs>
<linearGradient id="paint0_linear_4904_8063" x1="149.954" y1="-50.5674" x2="24.6117" y2="74.7746" gradientUnits="userSpaceOnUse">
<stop stop-color="#F2E500"/>
<stop offset="0.11" stop-color="#F8DA1C"/>
<stop offset="0.22" stop-color="#FDD033"/>
<stop offset="0.3" stop-color="#FFCD3C"/>
<stop offset="0.53" stop-color="#F7A848"/>
<stop offset="0.74" stop-color="#F2904F"/>
<stop offset="0.86" stop-color="#F08752"/>
<stop offset="1" stop-color="#F08752"/>
</linearGradient>
</defs>
</svg>
