<svg width="150" height="55" viewBox="0 0 150 55" fill="none" xmlns="http://www.w3.org/2000/svg">
<g clip-path="url(#clip0_4904_3317)">
<path d="M13.7095 0.0896983C13.7095 0.0896983 13.7095 0.0298994 13.7095 0H54.7634C54.7634 0.164447 54.7634 0.313944 54.7634 0.478391C54.7634 13.9331 54.7634 27.4028 54.7634 40.8576C54.7634 41.022 54.8527 41.2313 54.674 41.3659C54.7187 41.2164 54.7038 41.0519 54.7038 40.9024V0.583039C54.7038 0.433542 54.7187 0.298994 54.674 0.149497C54.5252 0.0149497 54.3615 0.0747486 54.1977 0.0747486C41.6345 0.0747486 29.0861 0.0747486 16.5228 0.0747486C15.585 0.0747486 14.6473 0.0747486 13.7095 0.0747486" fill="#EDFBF7"/>
<path d="M0.0893123 54.9701C0.0893123 54.9701 0.0297708 54.9701 0 54.9701V27.5225C0 27.5225 0.104198 27.5225 0.163739 27.5225C0.0595415 27.672 0.0893123 27.8514 0.0893123 28.0158V38.1069C0.0893123 43.728 0.0893123 49.3341 0.0893123 54.9552" fill="#98E9D0"/>
<path d="M54.6738 0.164551C54.7185 0.299098 54.7036 0.448595 54.7036 0.598093C54.7036 14.0379 54.7036 27.4777 54.7036 40.9025C54.7036 41.067 54.7036 41.2165 54.6738 41.366C54.3017 41.7248 53.9147 42.0835 53.5574 42.4573C50.5357 45.4771 47.4991 48.497 44.4773 51.5168C43.4205 52.5633 42.3636 53.6247 41.3067 54.6712C41.2323 54.746 41.1728 54.8656 40.9941 54.8656V14.3967C40.9941 14.2173 40.9941 14.0379 40.9941 13.8435C41.0983 13.7538 41.2025 13.6492 41.3067 13.5595C45.1472 9.70247 48.9876 5.86039 52.828 2.00337C53.4532 1.37548 54.0784 0.777489 54.7036 0.164551" fill="#0092DA"/>
<path d="M54.6738 0.164236C54.0487 0.777175 53.4235 1.39011 52.7983 2.00305C48.9579 5.86008 45.1174 9.70215 41.277 13.5592C41.1728 13.6638 41.0686 13.7535 40.9644 13.8432H0.163574C0.223116 13.6788 0.312428 13.619 0.386855 13.5293C1.20555 12.707 2.02425 11.8848 2.84294 11.0476C2.94714 10.943 3.08111 10.8383 3.15554 10.6888C3.58721 10.2553 4.03377 9.8367 4.46545 9.40316C7.51695 6.35342 10.5387 3.28873 13.5753 0.224035C13.62 0.179186 13.6646 0.134337 13.7093 0.0745382C14.6471 0.0745382 15.5848 0.0745382 16.5226 0.0745382C29.0859 0.0894879 41.6491 0.0894879 54.1975 0.0894879C54.3613 0.0894879 54.5399 0.0147394 54.6738 0.164236Z" fill="#32D3A2"/>
<path d="M0.0893858 54.9701C0.0893858 49.349 0.0893858 43.7429 0.0893858 38.1218V28.0308C0.0893858 27.8663 0.0596151 27.6869 0.163813 27.5374C0.297781 27.5374 0.43175 27.5374 0.550833 27.5374C9.36298 27.5374 18.1751 27.5374 26.9873 27.5374C27.1361 27.5374 27.2999 27.4776 27.4338 27.5972C27.3296 27.6869 27.2106 27.7916 27.1212 27.8813C18.2198 36.8062 9.33321 45.7312 0.446635 54.6562C0.342437 54.7608 0.253125 54.8655 0.163813 54.9701H0.134042H0.104271H0.0893858Z" fill="#32D3A2"/>
<path d="M0.148926 54.9703C0.253123 54.8656 0.342436 54.761 0.446633 54.6563C9.33321 45.7314 18.2198 36.8213 27.1064 27.8964C27.2105 27.7917 27.3147 27.702 27.4189 27.6123C27.4189 27.7618 27.4487 27.9263 27.4487 28.0757V54.6264C27.4487 55.045 27.4785 55.0151 27.0617 55.0151H0.625258C0.476404 55.0151 0.312665 55.0002 0.163811 54.9852" fill="#0092DA"/>
<path d="M68.2642 8.55116V3.7523C68.2642 3.6626 68.2642 3.57291 68.2642 3.48321C68.2642 3.31876 68.3237 3.24401 68.4874 3.24401C68.9935 3.24401 69.4996 3.24401 70.0057 3.24401C70.1695 3.24401 70.2141 3.31876 70.1993 3.45331C70.1993 3.54301 70.1993 3.6327 70.1993 3.7224C70.1993 6.4283 70.1993 9.14915 70.1993 11.855C70.1993 12.2886 70.1993 12.2886 70.616 12.2886C71.6729 12.2886 72.7298 12.2886 73.7866 12.2886C74.3076 12.2886 74.263 12.3185 74.263 11.8401C74.263 9.194 74.263 6.5479 74.263 3.9018C74.263 3.82705 74.263 3.73735 74.263 3.6626C74.263 3.21411 74.2183 3.22906 74.6798 3.22906C75.0965 3.22906 75.5133 3.22906 75.9301 3.22906C76.1981 3.22906 76.1981 3.22906 76.213 3.52806C76.213 4.03635 76.213 4.54464 76.213 5.05293V11.87C76.213 12.3185 76.1683 12.3035 76.6297 12.3035C76.7935 12.3035 76.9423 12.3035 77.1061 12.3035C77.2698 12.3035 77.3294 12.3783 77.3294 12.5427C77.3294 13.649 77.3294 14.7702 77.3294 15.8765C77.3294 16.026 77.2996 16.1157 77.121 16.1157C76.6595 16.1157 76.213 16.1157 75.7515 16.1157C75.5729 16.1157 75.5431 16.026 75.5431 15.8765C75.5431 15.3533 75.5431 14.83 75.5431 14.3068C75.5431 14.2171 75.5431 14.1274 75.5431 14.0377C75.5431 13.9181 75.4985 13.8733 75.3794 13.8733C75.2752 13.8733 75.171 13.8733 75.0668 13.8733H68.6512C68.279 13.8733 68.279 13.8733 68.279 13.5145C68.279 12.6474 68.279 11.7803 68.279 10.9132V8.55116H68.2642Z" fill="#0092DA"/>
<path d="M126.675 41.0518C126.303 41.0518 125.916 41.0518 125.543 41.0518C125.38 41.0518 125.29 40.992 125.305 40.8275C125.305 40.7528 125.305 40.6631 125.305 40.5883C125.305 38.2562 125.305 35.924 125.305 33.5919C125.305 33.547 125.305 33.5171 125.305 33.4723C125.305 33.1284 125.305 33.1284 125.648 33.1284C126.213 33.1284 126.764 33.1284 127.33 33.1284C127.672 33.1284 127.687 33.1284 127.806 33.4424C128.297 34.728 128.788 36.0137 129.28 37.2994C129.429 37.6731 129.563 38.0469 129.711 38.4356C129.86 38.3459 129.86 38.1964 129.905 38.0768C130.471 36.537 131.021 34.9971 131.572 33.4723C131.691 33.1434 131.691 33.1434 132.034 33.1434C132.629 33.1434 133.209 33.1434 133.79 33.1434C133.969 33.1434 134.043 33.2032 134.043 33.3975C134.043 33.8909 134.043 34.3991 134.043 34.8925V40.5883C134.043 40.678 134.043 40.7677 134.043 40.8574C134.043 41.0069 133.984 41.0667 133.835 41.0667C133.403 41.0667 132.971 41.0667 132.54 41.0667C132.406 41.0667 132.346 41.0069 132.346 40.8724C132.346 40.7976 132.346 40.7079 132.346 40.6332V34.8775C132.242 34.9672 132.212 35.1317 132.167 35.2662C131.513 37.0751 130.872 38.8841 130.217 40.693C130.188 40.7677 130.158 40.8425 130.143 40.9172C130.113 41.0219 130.039 41.0667 129.935 41.0667C129.89 41.0667 129.86 41.0667 129.816 41.0667C129.349 41.0767 129.032 40.8624 128.863 40.4239C128.193 38.6449 127.523 36.8808 126.839 35.1018C126.839 34.9971 126.794 34.9224 126.734 34.8327C126.66 34.9224 126.69 34.9822 126.69 35.042C126.749 36.9107 126.69 38.7794 126.719 40.6481C126.719 40.7976 126.734 40.9322 126.675 41.0667" fill="#0092DA"/>
<path d="M68.2643 35.7297V30.9309C68.2643 30.8412 68.2643 30.7515 68.2643 30.6618C68.2494 30.4674 68.3387 30.4076 68.5173 30.4226C68.562 30.4226 68.5918 30.4226 68.6364 30.4226H72.3578C72.9234 30.4226 73.4742 30.4824 74.0101 30.6767C75.186 31.0953 75.9303 32.0671 76.0196 33.278C76.1535 35.0421 75.1562 36.7463 72.7597 36.8809C72.0452 36.9108 71.3307 36.8809 70.6013 36.8809C70.2143 36.8809 70.2143 36.8809 70.2143 37.2546C70.2143 38.3908 70.2143 39.527 70.2143 40.6781C70.2143 41.0369 70.2143 41.0369 69.857 41.0369C69.4402 41.0369 69.0234 41.0369 68.6067 41.0369C68.2792 41.0369 68.2792 41.0369 68.2792 40.7229C68.2792 39.9904 68.2792 39.2579 68.2792 38.5253V35.7297H68.2643ZM70.2143 33.6517C70.2143 34.1301 70.2143 34.5936 70.2143 35.057C70.2143 35.2364 70.2589 35.3261 70.4524 35.3112C71.1223 35.3112 71.807 35.3112 72.4769 35.2962C73.623 35.2364 74.3375 34.16 73.9952 33.0687C73.7719 32.3661 73.236 32.0671 72.5513 31.9923C71.8517 31.9176 71.1521 31.9774 70.4376 31.9624C70.2292 31.9624 70.1994 32.0671 70.2143 32.2315C70.2143 32.695 70.2143 33.1733 70.2143 33.6368" fill="#0092DA"/>
<path d="M103.364 7.20595C103.498 7.14616 103.513 7.07141 103.558 6.99666C104.54 5.56149 106.58 5.39704 107.77 6.66776C108.217 7.13121 108.5 7.68434 108.649 8.31223C108.902 9.41851 108.902 10.5248 108.589 11.6161C108.396 12.3038 108.053 12.9317 107.488 13.3802C106.594 14.0828 105.627 14.1875 104.585 13.7838C104.243 13.6493 103.989 13.425 103.766 13.126C103.692 13.0363 103.662 12.9167 103.513 12.827V13.1559C103.513 14.1426 103.513 15.1293 103.513 16.101C103.513 16.4 103.513 16.4 103.215 16.4C102.814 16.4 102.412 16.4 101.995 16.4C101.727 16.4 101.727 16.4 101.712 16.101C101.712 16.0412 101.712 15.9964 101.712 15.9366C101.712 12.7523 101.712 9.56801 101.712 6.38372C101.712 5.89038 101.667 5.95018 102.159 5.95018C102.486 5.95018 102.814 5.95018 103.141 5.95018C103.335 5.95018 103.394 6.02493 103.394 6.20432C103.394 6.51827 103.394 6.83221 103.394 7.17605M103.528 9.91185C103.528 10.2706 103.528 10.6145 103.528 10.9733C103.558 11.4965 103.751 11.96 104.153 12.3188C104.778 12.8868 105.731 12.8121 106.267 12.1543C106.49 11.8703 106.654 11.5563 106.743 11.2125C106.937 10.465 106.937 9.71751 106.833 8.95507C106.773 8.49163 106.639 8.05809 106.356 7.68434C106.103 7.3405 105.761 7.14616 105.329 7.11626C104.481 7.05646 103.841 7.5199 103.617 8.34213C103.468 8.85042 103.543 9.38861 103.528 9.8969" fill="#0092DA"/>
<path d="M87.0649 26.416C86.9904 26.5805 87.0202 26.715 87.0202 26.8495C87.0202 27.7914 87.0202 28.7332 87.0202 29.675C87.0202 29.974 87.0202 29.974 86.7225 29.974C86.3057 29.974 85.8889 29.974 85.4721 29.974C85.3084 29.974 85.2191 29.9292 85.2488 29.7498C85.2488 29.675 85.2488 29.5853 85.2488 29.5106V20.0026C85.2488 20.0026 85.2488 19.868 85.2488 19.8082C85.234 19.6288 85.2935 19.5391 85.487 19.5541C85.874 19.5541 86.2759 19.5541 86.6629 19.5541C86.8713 19.5541 86.9309 19.6438 86.916 19.8381C86.916 20.1371 86.916 20.4511 86.916 20.78C87.05 20.7202 87.0797 20.6305 87.1244 20.5557C88.0919 19.0906 90.161 19.0906 91.2328 20.1521C91.8579 20.78 92.1854 21.5574 92.3045 22.4244C92.4236 23.3214 92.4087 24.2334 92.1557 25.1154C91.977 25.7433 91.6942 26.3114 91.2328 26.7748C90.4141 27.597 89.1786 27.8362 88.1217 27.3728C87.7942 27.2233 87.5114 27.014 87.303 26.73C87.2435 26.6403 87.1691 26.5506 87.0797 26.416M87.05 23.5158C87.05 23.9045 87.05 24.2932 87.05 24.6968C87.0649 25.1154 87.2435 25.4742 87.5263 25.7881C88.1664 26.5057 89.2679 26.4609 89.8335 25.6835C90.0419 25.3994 90.1908 25.0705 90.2652 24.7267C90.4587 23.8746 90.4438 23.0075 90.2652 22.1553C90.1908 21.8264 90.0419 21.5125 89.8335 21.2434C89.4763 20.8099 88.9999 20.6305 88.4492 20.7202C87.6603 20.8547 87.1691 21.4079 87.0649 22.26C87.0202 22.6786 87.05 23.0972 87.0649 23.5158" fill="#0092DA"/>
<path d="M107.413 23.2769C107.621 23.3516 107.844 23.3965 108.038 23.4862C108.961 23.8898 109.303 24.712 109.095 25.7585C108.916 26.6405 108.321 27.1488 107.457 27.3581C107.175 27.4179 106.892 27.4478 106.609 27.4478C105.239 27.4478 103.87 27.4478 102.501 27.4478C102.143 27.4478 102.128 27.4478 102.128 27.089C102.128 24.6971 102.128 22.2902 102.128 19.8982C102.128 19.5693 102.128 19.5693 102.411 19.5693C103.796 19.5693 105.18 19.5693 106.564 19.5693C106.877 19.5693 107.189 19.6291 107.487 19.7188C108.261 19.973 108.708 20.571 108.752 21.3783C108.782 22.1855 108.38 22.8134 107.621 23.1274C107.562 23.1573 107.502 23.1722 107.442 23.2021C107.398 23.2021 107.323 23.2021 107.323 23.232C107.323 23.2769 107.383 23.2769 107.442 23.2619M105.15 26.2668C105.507 26.2519 105.865 26.2668 106.207 26.2369C106.773 26.1921 107.16 25.8034 107.204 25.2652C107.264 24.6672 107.011 24.2336 106.46 24.0393C106.281 23.9795 106.103 23.9496 105.924 23.9496C105.344 23.9496 104.778 23.9496 104.197 23.9496C104.004 23.9496 103.915 23.9945 103.915 24.2187C103.915 24.8167 103.915 25.4296 103.915 26.0276C103.915 26.2519 104.004 26.2967 104.197 26.2818C104.51 26.2818 104.823 26.2818 105.135 26.2818M105.046 20.6906C104.718 20.6906 104.436 20.6906 104.168 20.6906C103.989 20.6906 103.915 20.7504 103.915 20.9298C103.915 21.4679 103.915 22.0061 103.915 22.5443C103.915 22.7237 103.974 22.7985 104.168 22.7985C104.704 22.7985 105.239 22.7985 105.775 22.7985C105.999 22.7985 106.222 22.7387 106.401 22.6191C106.758 22.3799 106.951 21.9314 106.862 21.4829C106.788 21.0793 106.49 20.8102 106.014 20.7205C105.671 20.6607 105.329 20.7205 105.061 20.6906" fill="#0092DA"/>
<path d="M100.536 27.4476C99.9556 27.4476 99.4197 27.4476 98.8987 27.4476C98.7648 27.4476 98.7201 27.3728 98.7052 27.2532C98.6605 26.9243 98.601 26.5954 98.5564 26.2516C98.467 26.2516 98.4522 26.3263 98.4075 26.3712C97.9461 27.0589 97.306 27.4326 96.5022 27.5522C95.8919 27.6419 95.2816 27.5971 94.6862 27.3878C93.793 27.0589 93.2869 26.4011 93.1827 25.4593C93.0785 24.5174 93.4358 23.7699 94.2247 23.2467C94.7457 22.9028 95.3411 22.7384 95.9514 22.6338C96.6957 22.4992 97.4548 22.4693 98.214 22.4693C98.5712 22.4693 98.5712 22.4693 98.5564 22.0956C98.5564 22.0657 98.5564 22.0358 98.5564 22.0208C98.4968 21.0939 98.1247 20.7202 97.1869 20.6454C96.8892 20.6305 96.5915 20.6454 96.2938 20.6903C95.7579 20.78 95.356 21.0939 95.1774 21.6172C95.1178 21.7966 95.0285 21.8564 94.835 21.8265C94.448 21.7667 94.061 21.7218 93.6739 21.677C93.4209 21.6471 93.406 21.6172 93.4804 21.378C93.7633 20.5408 94.314 19.9727 95.1327 19.6588C95.4453 19.5392 95.7579 19.4794 96.0854 19.4495C96.7403 19.3897 97.4102 19.3747 98.08 19.4644C99.7918 19.7186 100.328 20.7202 100.357 22.1554C100.372 23.0673 100.357 23.9942 100.357 24.9061C100.357 25.7433 100.357 26.5805 100.536 27.4476ZM96.5617 26.2964C97.2167 26.2665 97.7972 25.9974 98.1693 25.3995C98.4075 25.0108 98.5266 24.5772 98.5564 24.1287C98.601 23.6055 98.5861 23.6055 98.08 23.6204C97.4697 23.6503 96.8445 23.6354 96.2491 23.8148C95.9216 23.9194 95.6239 24.0689 95.4006 24.338C94.835 25.0407 95.0881 25.9077 95.9365 26.1918C96.13 26.2516 96.3235 26.2665 96.5468 26.2815" fill="#0092DA"/>
<path d="M96.5914 36.0586C95.6239 37.419 94.7158 38.7047 93.7929 39.9903C93.6292 40.2146 93.525 40.4538 93.5399 40.7528C93.5548 41.0518 93.5399 41.0518 93.2422 41.0518C92.8403 41.0518 92.4384 41.0518 92.0216 41.0518C91.7537 41.0518 91.7388 41.0518 91.7388 40.7677C91.7388 40.0202 91.7388 39.2728 91.7388 38.5253V33.6068C91.7388 33.5171 91.7388 33.4274 91.7388 33.3377C91.7388 33.2181 91.7834 33.1434 91.9174 33.1434C92.3937 33.1434 92.8849 33.1434 93.3613 33.1434C93.5101 33.1434 93.5399 33.2181 93.5399 33.3377C93.5399 33.4872 93.5399 33.6218 93.5399 33.7713V38.017C93.659 38.017 93.659 37.8974 93.7036 37.8376C94.3437 36.9107 94.9987 35.9988 95.6387 35.0719C95.862 34.7579 96.0853 34.429 96.3235 34.1151C96.4872 33.8909 96.5765 33.6666 96.5467 33.3826C96.5319 33.2032 96.6063 33.1284 96.7849 33.1284C97.2315 33.1284 97.678 33.1284 98.1097 33.1284C98.2735 33.1284 98.3479 33.1882 98.3479 33.3527C98.3479 33.4274 98.3479 33.5171 98.3479 33.5919V40.5883C98.3479 40.5883 98.3479 40.693 98.3479 40.7378C98.3479 41.0368 98.3479 41.0368 98.0353 41.0368C97.6483 41.0368 97.2464 41.0368 96.8593 41.0368C96.5467 41.0368 96.5319 41.0368 96.5319 40.7079C96.5319 39.2279 96.4872 37.7479 96.5616 36.2679C96.5616 36.223 96.5616 36.1632 96.5616 36.0436" fill="#0092DA"/>
<path d="M143.302 27.4478C143.912 26.3565 144.493 25.3399 145.058 24.3233C145.028 24.1887 144.909 24.1887 144.835 24.1588C143.763 23.6506 143.332 22.7386 143.495 21.5875C143.659 20.3915 144.493 19.6739 145.788 19.5992C146.443 19.5543 147.098 19.5693 147.738 19.5693C148.363 19.5693 148.988 19.5693 149.613 19.5693C149.985 19.5693 149.985 19.5693 149.985 19.9281C149.985 22.32 149.985 24.7269 149.985 27.1189C149.985 27.4627 149.985 27.4627 149.628 27.4627C149.241 27.4627 148.839 27.4627 148.452 27.4627C148.169 27.4627 148.169 27.4627 148.169 27.1787C148.169 26.4163 148.169 25.6538 148.169 24.9063C148.169 24.5475 148.169 24.5475 147.812 24.5475C147.574 24.5475 147.336 24.5625 147.112 24.5475C146.874 24.5326 146.77 24.6372 146.666 24.8316C146.264 25.6239 145.847 26.4163 145.46 27.2086C145.356 27.4029 145.252 27.4926 145.014 27.4926C144.463 27.4777 143.927 27.4926 143.302 27.4926M148.199 22.0659C148.199 21.7519 148.199 21.438 148.199 21.1241C148.199 20.9895 148.169 20.8998 148.006 20.8998C147.44 20.9148 146.889 20.855 146.324 20.9596C145.743 21.0643 145.386 21.4829 145.356 22.0659C145.326 22.5891 145.669 23.0227 146.219 23.1722C146.353 23.2021 146.502 23.232 146.636 23.232C147.068 23.232 147.499 23.232 147.916 23.232C148.14 23.232 148.184 23.1423 148.184 22.9479C148.184 22.6489 148.184 22.3499 148.184 22.0509" fill="#0092DA"/>
<path d="M137.273 24.4577C138.225 23.1122 139.119 21.8266 140.041 20.5259C140.19 20.3017 140.324 20.0924 140.28 19.8083C140.25 19.6289 140.324 19.5542 140.518 19.5542C140.964 19.5542 141.411 19.5542 141.843 19.5542C142.021 19.5542 142.066 19.6289 142.066 19.7934C142.066 19.8831 142.066 19.9728 142.066 20.0625V26.9394C142.066 26.9394 142.066 27.044 142.066 27.1038C142.066 27.4476 142.066 27.4476 141.724 27.4476C141.322 27.4476 140.92 27.4476 140.503 27.4476C140.339 27.4476 140.265 27.3878 140.28 27.2234C140.28 27.1337 140.28 27.044 140.28 26.9543C140.295 25.5191 140.235 24.069 140.309 22.6338C140.309 22.6189 140.309 22.589 140.28 22.5292C140.161 22.7086 140.041 22.8581 139.937 23.0076C139.148 24.1288 138.345 25.25 137.541 26.3713C137.362 26.6254 137.213 26.8646 137.258 27.1935C137.288 27.3879 137.198 27.4626 137.005 27.4626C136.573 27.4626 136.141 27.4626 135.71 27.4626C135.531 27.4626 135.457 27.4028 135.457 27.2234C135.457 26.76 135.457 26.3115 135.457 25.848V20.1073C135.457 20.0176 135.457 19.9279 135.457 19.8382C135.442 19.6588 135.501 19.5841 135.695 19.5841C136.141 19.5841 136.588 19.5841 137.02 19.5841C137.228 19.5841 137.258 19.6738 137.258 19.8532C137.258 20.6605 137.258 21.4528 137.258 22.2451V24.4876" fill="#0092DA"/>
<path d="M85.3974 11.5858C85.442 11.7503 85.3527 11.8848 85.2932 12.0044C84.921 12.8266 84.2959 13.4097 83.4623 13.7386C82.2863 14.1721 81.1402 14.1273 80.0089 13.5741C79.2646 13.2004 78.7287 12.6323 78.4161 11.8549C77.9249 10.644 77.8951 9.43306 78.3566 8.20718C78.9818 6.54776 80.5596 5.57603 82.4203 5.86008C84.0875 6.11422 85.1443 7.1607 85.4718 8.85002C85.5462 9.25366 85.576 9.6573 85.576 10.0609C85.576 10.2104 85.5165 10.2702 85.3676 10.2702C85.2783 10.2702 85.189 10.2702 85.0997 10.2702H80.4852C80.3959 10.2702 80.3066 10.2702 80.2173 10.2702C80.0982 10.2702 80.0089 10.3151 80.0237 10.4496C80.0684 11.1971 80.247 11.8848 80.8722 12.3483C81.8249 13.0658 83.2241 12.6771 83.6856 11.5709C83.76 11.4064 83.8195 11.3466 83.9981 11.3765C84.4745 11.4363 84.9508 11.4812 85.4271 11.5709M81.8547 9.07426C82.3756 9.07426 82.8966 9.07426 83.4176 9.07426C83.5516 9.07426 83.6409 9.05931 83.6409 8.89487C83.6111 8.22213 83.3432 7.4597 82.4798 7.1607C81.4974 6.81686 80.2321 7.44475 80.0982 8.83507C80.0833 9.04436 80.1726 9.07426 80.3512 9.07426C80.8573 9.07426 81.3634 9.07426 81.8695 9.07426" fill="#0092DA"/>
<path d="M84.0576 38.7349C83.745 39.7066 83.1794 40.3943 82.3011 40.7979C80.9466 41.4109 79.6069 41.3212 78.3267 40.5737C77.8206 40.2747 77.4187 39.8561 77.1657 39.3329C76.4958 37.9276 76.4512 36.4924 77.0912 35.0871C77.7462 33.652 79.205 32.8746 80.7977 33.0091C82.5691 33.1586 83.8641 34.3247 84.132 36.4326C84.1618 36.6718 84.1767 36.8961 84.1767 37.1353C84.1767 37.4342 84.1767 37.4492 83.879 37.4492C83.7301 37.4492 83.5962 37.4492 83.4473 37.4492C81.929 37.4492 80.4256 37.4492 78.9073 37.4492C78.5798 37.4492 78.5798 37.4492 78.6096 37.7781C78.6393 38.107 78.684 38.4359 78.818 38.7349C79.1454 39.4674 79.7111 39.886 80.5298 39.886C81.3336 39.886 81.929 39.5272 82.2565 38.7648C82.3309 38.5854 82.4202 38.5256 82.5988 38.5555C83.0603 38.6302 83.5217 38.6751 84.0427 38.7498M80.4107 36.2682H81.6164C82.0729 36.2682 82.2466 36.0489 82.1374 35.6104C81.8992 34.5938 80.9763 34.0407 79.9939 34.3247C79.1305 34.5789 78.7435 35.2964 78.6393 36.029C78.6096 36.2233 78.684 36.2831 78.8775 36.2831C79.3836 36.2831 79.8897 36.2831 80.3958 36.2831" fill="#0092DA"/>
<path d="M125.618 25.1606C125.29 26.1622 124.695 26.8649 123.787 27.2535C122.551 27.7768 121.316 27.7319 120.125 27.119C119.366 26.7303 118.86 26.1323 118.547 25.34C118.145 24.2636 118.1 23.1573 118.428 22.066C118.919 20.4215 120.318 19.39 122.03 19.4049C124.01 19.4049 125.409 20.6757 125.677 22.6789C125.722 22.9779 125.737 23.2769 125.751 23.5759C125.751 23.7852 125.677 23.845 125.484 23.845C124.903 23.845 124.308 23.845 123.727 23.845C122.64 23.845 121.554 23.845 120.482 23.845C120.184 23.845 120.184 23.845 120.184 24.159C120.184 24.5327 120.274 24.8915 120.437 25.2204C120.795 25.923 121.36 26.3117 122.164 26.2818C122.953 26.2669 123.534 25.8931 123.846 25.1606C123.891 25.0559 123.891 24.9214 124.069 24.9513C124.576 25.026 125.067 25.0858 125.632 25.1606M122 22.664H123.176C123.663 22.664 123.841 22.4248 123.712 21.9464C123.489 21.0793 122.745 20.571 121.866 20.6757C121.018 20.7654 120.378 21.4531 120.244 22.3949C120.214 22.649 120.214 22.664 120.467 22.664C120.973 22.664 121.479 22.664 122 22.664Z" fill="#0092DA"/>
<path d="M67.2969 16.8335C67.9221 16.8335 68.5324 16.8335 69.1427 16.8335C69.3808 16.8335 69.4106 16.9979 69.485 17.1474C70.0953 18.4481 70.7056 19.7487 71.3159 21.0643C71.5243 21.5128 71.7327 21.9612 71.956 22.4247C72.1049 22.3499 72.1197 22.2154 72.1644 22.1107C72.8194 20.4663 73.4594 18.8218 74.1144 17.1923C74.2632 16.8036 74.2335 16.8634 74.5907 16.8634C75.0373 16.8634 75.469 16.8634 75.9006 16.8634C75.9602 16.9979 75.9006 17.0876 75.856 17.1923C74.7842 19.7786 73.7274 22.3649 72.6556 24.9512C72.4323 25.4894 72.1942 26.0126 71.8518 26.4761C71.4797 26.9844 71.0182 27.373 70.3781 27.5076C69.8423 27.6272 69.2915 27.5973 68.7408 27.5375C68.6068 27.5225 68.4877 27.4777 68.5026 27.2983C68.5026 26.8498 68.5026 26.4163 68.5026 25.9528C68.9045 25.9827 69.2469 26.0575 69.619 25.9977C70.393 25.8781 70.7354 25.31 70.9438 24.7568C71.0033 24.5774 70.8843 24.4579 70.8247 24.3233C70.0209 22.6489 69.2171 20.9746 68.4133 19.3002C68.0858 18.6125 67.7583 17.9398 67.4308 17.2521C67.3862 17.1474 67.3118 17.0577 67.3118 16.8783" fill="#0092DA"/>
<path d="M107.219 37.0755C107.219 37.7931 107.085 38.4658 106.803 39.0937C106.133 40.5738 104.748 41.3063 103.141 41.1867C100.878 41.0222 99.9107 39.2731 99.732 37.7034C99.6278 36.8064 99.732 35.9543 100.104 35.1321C100.774 33.6221 102.158 32.8896 103.781 33.0092C106.118 33.1886 107.056 35.0125 107.204 36.5672C107.204 36.7466 107.219 36.941 107.234 37.0755M105.299 37.0606C105.284 36.8064 105.269 36.5074 105.225 36.2234C105.165 35.8646 105.076 35.5058 104.912 35.1769C104.6 34.6088 104.138 34.2949 103.498 34.2949C102.843 34.2949 102.352 34.6088 102.039 35.1919C101.98 35.3264 101.92 35.4609 101.876 35.5955C101.578 36.5822 101.578 37.5838 101.876 38.5705C101.92 38.7499 101.995 38.9143 102.084 39.0788C102.397 39.617 102.873 39.901 103.498 39.8861C104.123 39.8861 104.585 39.5721 104.897 39.0339C105.225 38.4359 105.269 37.7632 105.299 37.0755" fill="#0092DA"/>
<path d="M123.98 37.105C123.98 37.7927 123.846 38.4654 123.564 39.0933C122.894 40.5733 121.509 41.3059 119.902 41.1863C117.684 41.0218 116.686 39.3325 116.493 37.7329C116.389 36.8509 116.493 36.0137 116.82 35.1914C117.475 33.6217 118.889 32.8742 120.527 32.9938C122.67 33.1433 123.757 34.7579 123.951 36.522C123.965 36.7163 123.965 36.9107 123.98 37.105ZM122.03 37.105C122.03 36.507 121.971 35.909 121.733 35.3409C121.45 34.6533 120.884 34.2646 120.185 34.2945C119.455 34.3094 118.979 34.6981 118.696 35.3708C118.517 35.7745 118.458 36.1931 118.428 36.6266C118.368 37.3741 118.428 38.1216 118.711 38.8242C118.979 39.4671 119.455 39.8558 120.17 39.8857C120.869 39.9156 121.36 39.5717 121.673 38.9588C121.956 38.3907 122.015 37.7628 122.03 37.12" fill="#0092DA"/>
<path d="M115.123 37.0901V40.5435C115.123 40.6182 115.123 40.7079 115.123 40.7827C115.123 40.9621 115.079 41.0518 114.885 41.0368C114.439 41.0368 113.992 41.0368 113.56 41.0368C113.397 41.0368 113.322 40.977 113.322 40.8126C113.322 40.5734 113.322 40.3342 113.322 40.1099C113.322 39.3774 113.322 38.6449 113.322 37.9123C113.322 37.5984 113.322 37.5984 112.995 37.5984C112.206 37.5984 111.432 37.5984 110.643 37.5984C110.345 37.5984 110.345 37.5984 110.345 37.9123C110.345 38.8392 110.345 39.7661 110.345 40.7079C110.345 41.0518 110.345 41.0518 110.003 41.0518C109.601 41.0518 109.199 41.0518 108.782 41.0518C108.619 41.0518 108.529 40.992 108.544 40.8275C108.544 40.7677 108.544 40.693 108.544 40.6332C108.544 38.2711 108.544 35.924 108.544 33.562C108.544 33.0537 108.574 33.1434 108.961 33.1284C109.318 33.1284 109.66 33.1284 110.018 33.1284C110.315 33.1284 110.33 33.1284 110.33 33.4274C110.33 34.2197 110.33 35.027 110.33 35.8194C110.33 36.2828 110.301 36.2529 110.747 36.2529C111.506 36.2529 112.265 36.2529 113.01 36.2529C113.293 36.2529 113.293 36.2529 113.293 35.9689C113.293 35.1466 113.293 34.3094 113.293 33.4872C113.293 33.1284 113.293 33.1284 113.665 33.1284C114.037 33.1284 114.424 33.1284 114.796 33.1284C115.094 33.1284 115.094 33.1284 115.094 33.4424C115.094 34.5636 115.094 35.6998 115.094 36.821V37.0901H115.123Z" fill="#0092DA"/>
<path d="M93.48 9.9264C93.48 11.1224 93.48 12.3184 93.48 13.4994C93.48 13.8582 93.48 13.8582 93.1078 13.8582C92.7208 13.8582 92.3189 13.8582 91.9319 13.8582C91.7235 13.8582 91.664 13.7834 91.664 13.5891C91.664 12.7071 91.664 11.84 91.664 10.9579C91.664 10.8682 91.664 10.7785 91.664 10.6888C91.6788 10.5094 91.6193 10.4347 91.4258 10.4347C90.6071 10.4347 89.7735 10.4347 88.9548 10.4347C88.6869 10.4347 88.6869 10.4347 88.6869 10.7337C88.6869 11.5858 88.6869 12.438 88.6869 13.2901V13.4844C88.6869 13.8731 88.7166 13.8731 88.2999 13.8731C87.9277 13.8731 87.5705 13.8731 87.1983 13.8731C86.8857 13.8731 86.8857 13.8731 86.8857 13.5442C86.8857 12.6921 86.8857 11.84 86.8857 10.9878V6.47302C86.8857 6.38332 86.8857 6.29362 86.8857 6.20392C86.8857 6.05443 86.9453 5.99463 87.0941 5.99463C87.5407 5.99463 87.9873 5.99463 88.4189 5.99463C88.6422 5.99463 88.672 6.08433 88.672 6.27867C88.672 7.05606 88.672 7.81849 88.672 8.59588C88.672 8.68558 88.672 8.77528 88.672 8.86497C88.672 9.02942 88.7315 9.10417 88.8953 9.08922C89.3269 9.08922 89.7586 9.08922 90.1903 9.08922C90.5773 9.08922 90.9792 9.08922 91.3662 9.08922C91.6342 9.08922 91.6491 9.08922 91.6491 8.80517C91.6491 8.02779 91.6491 7.23545 91.6491 6.44312C91.6491 6.35342 91.6491 6.26372 91.6491 6.17403C91.6491 6.06938 91.6937 5.99463 91.7979 5.99463H93.2865C93.4055 5.99463 93.4502 6.05443 93.4353 6.17403C93.4353 6.27867 93.4353 6.38332 93.4353 6.48797V9.94135" fill="#0092DA"/>
<path d="M76.7935 23.4862V19.9431C76.7935 19.5693 76.7935 19.5693 77.1507 19.5693C79.1156 19.5693 81.0656 19.5693 83.0304 19.5693C83.3728 19.5693 83.3728 19.5693 83.3728 19.9132V27.104C83.3728 27.4628 83.3728 27.4628 83.0007 27.4628C82.6434 27.4628 82.2713 27.4628 81.8991 27.4628C81.5717 27.4628 81.5717 27.4628 81.5717 27.1488C81.5717 26.3266 81.5717 25.5044 81.5717 24.6672C81.5717 23.531 81.5717 22.3799 81.5717 21.2437C81.5717 20.9148 81.5717 20.9148 81.2591 20.9148C80.4701 20.9148 79.6961 20.9148 78.9072 20.9148C78.5946 20.9148 78.5946 20.9148 78.5946 21.2437C78.5946 23.1722 78.5946 25.1007 78.5946 27.0292C78.5946 27.5226 78.6392 27.4628 78.148 27.4628C77.8057 27.4628 77.4633 27.4628 77.1358 27.4628C76.8083 27.4628 76.8083 27.4628 76.7935 27.104C76.7935 25.8931 76.7935 24.6971 76.7935 23.4862Z" fill="#0092DA"/>
<path d="M133.641 23.5308C133.641 24.7268 133.641 25.9228 133.641 27.1038C133.641 27.4476 133.641 27.4476 133.298 27.4476C132.926 27.4476 132.569 27.4476 132.197 27.4476C131.825 27.4476 131.84 27.4775 131.84 27.0739V24.4428C131.84 24.368 131.84 24.2783 131.84 24.2036C131.84 24.0541 131.795 23.9793 131.631 23.9943C131.468 23.9943 131.289 23.9943 131.125 23.9943C130.485 23.9943 129.845 23.9943 129.205 23.9943C128.863 23.9943 128.863 23.9943 128.863 24.3381C128.863 25.25 128.863 26.1769 128.863 27.0889C128.863 27.4476 128.863 27.4476 128.505 27.4476C128.103 27.4476 127.702 27.4476 127.285 27.4476C127.121 27.4476 127.047 27.3878 127.061 27.2234C127.061 27.1786 127.061 27.1487 127.061 27.1038V19.913C127.061 19.5691 127.061 19.5691 127.389 19.5542C127.746 19.5542 128.089 19.5542 128.446 19.5542C128.892 19.5542 128.863 19.5542 128.863 19.9578C128.863 20.7502 128.863 21.5276 128.863 22.3199C128.863 22.6488 128.863 22.6637 129.205 22.6637C129.994 22.6637 130.768 22.6637 131.557 22.6637C131.825 22.6637 131.84 22.6637 131.84 22.3797C131.84 21.5575 131.84 20.7352 131.84 19.898C131.84 19.5691 131.84 19.5691 132.152 19.5691C132.539 19.5691 132.941 19.5691 133.328 19.5691C133.626 19.5691 133.626 19.5691 133.626 19.8831C133.626 20.8548 133.626 21.8266 133.626 22.7983V23.5458L133.641 23.5308Z" fill="#0092DA"/>
<path d="M116.88 23.516C116.88 24.7269 116.88 25.9229 116.88 27.1338C116.88 27.4477 116.88 27.4627 116.552 27.4627C116.151 27.4627 115.749 27.4627 115.332 27.4627C115.123 27.4627 115.064 27.3879 115.064 27.1936C115.064 26.6554 115.064 26.1172 115.064 25.579C115.064 24.1438 115.064 22.6937 115.064 21.2586C115.064 20.9147 115.064 20.9147 114.722 20.9147C114.245 20.9147 113.784 20.9147 113.307 20.9147C113.039 20.9147 113.039 20.9147 113.025 21.1988C112.98 22.0957 112.935 23.0077 112.876 23.9047C112.831 24.6073 112.727 25.3099 112.474 25.9827C112.102 26.9544 111.268 27.5374 110.286 27.5225C110.196 27.5225 110.107 27.5225 110.018 27.4926C109.899 27.4776 109.824 27.4328 109.824 27.2833C109.824 26.9394 109.824 26.6105 109.824 26.2667C109.824 26.1621 109.869 26.1023 109.973 26.0873C110.033 26.0873 110.107 26.0574 110.167 26.0425C110.643 25.9378 110.956 25.6388 111.134 25.2053C111.283 24.8465 111.357 24.4578 111.402 24.0691C111.521 22.7834 111.566 21.5127 111.566 20.227C111.566 19.5692 111.566 19.5692 112.206 19.5692H116.389C116.463 19.5692 116.552 19.5692 116.627 19.5692C116.82 19.5543 116.88 19.629 116.88 19.8234C116.88 20.4812 116.88 21.139 116.88 21.7818V23.516Z" fill="#0092DA"/>
<path d="M98.4819 10.5991C98.4819 11.5858 98.4819 12.5576 98.4819 13.5442C98.4819 13.8582 98.4819 13.8731 98.1544 13.8731C97.7525 13.8731 97.3506 13.8731 96.9338 13.8731C96.7254 13.8731 96.6659 13.7984 96.6659 13.604C96.6659 13.021 96.6659 12.4529 96.6659 11.8699C96.6659 10.4646 96.6659 9.07427 96.6659 7.669C96.6659 7.32515 96.6659 7.32515 96.3235 7.32515C95.7578 7.32515 95.2071 7.32515 94.6414 7.32515C94.314 7.32515 94.314 7.32515 94.314 7.01121C94.314 6.77201 94.314 6.53282 94.314 6.30857C94.314 5.99463 94.314 5.99463 94.6414 5.99463C94.7159 5.99463 94.8052 5.99463 94.8796 5.99463H100.357C100.447 5.99463 100.536 5.99463 100.625 5.99463C100.759 5.99463 100.819 6.03948 100.819 6.17403C100.819 6.48797 100.819 6.80191 100.819 7.11586C100.819 7.29525 100.73 7.32515 100.581 7.32515C100 7.32515 99.4048 7.32515 98.8242 7.32515C98.467 7.32515 98.467 7.32515 98.467 7.6989C98.467 8.67063 98.467 9.64236 98.467 10.5991" fill="#0092DA"/>
<path d="M85.5166 37.0901V33.5919C85.5166 33.5022 85.5166 33.4125 85.5166 33.3228C85.5166 33.2032 85.5761 33.1284 85.7101 33.1284C85.7697 33.1284 85.8441 33.1284 85.9036 33.1284H90.4883C90.8605 33.1284 90.8605 33.1284 90.8605 33.4872C90.8605 33.7264 90.8605 33.9656 90.8605 34.1898C90.8605 34.4589 90.8605 34.4739 90.5776 34.4739C89.7887 34.4739 89.0147 34.4739 88.2257 34.4739C88.0471 34.4739 87.8685 34.4739 87.675 34.4739C87.3475 34.4739 87.3326 34.4739 87.3326 34.8327C87.3326 36.7313 87.3326 38.6299 87.3326 40.5285C87.3326 40.6332 87.3326 40.7378 87.3326 40.8425C87.3326 40.992 87.2731 41.0518 87.1242 41.0518C86.6628 41.0518 86.2162 41.0518 85.7548 41.0518C85.591 41.0518 85.5166 40.992 85.5315 40.8275C85.5315 40.7378 85.5315 40.6481 85.5315 40.5584V37.105" fill="#0092DA"/>
<path d="M126.675 41.0519C126.734 40.9174 126.719 40.7679 126.719 40.6333C126.705 38.7646 126.749 36.8959 126.69 35.0272C126.69 34.9674 126.675 34.9076 126.734 34.8179C126.794 34.9076 126.853 34.9823 126.839 35.087C126.719 35.1767 126.779 35.2963 126.779 35.4159C126.779 37.165 126.779 38.9141 126.779 40.6782C126.779 40.8127 126.853 40.9772 126.675 41.0519Z" fill="#B4DFF4"/>
<path d="M107.413 23.2767C107.413 23.2767 107.294 23.2767 107.294 23.2468C107.294 23.202 107.368 23.202 107.413 23.2169C107.413 23.2468 107.413 23.2618 107.413 23.2917" fill="#9DD5F1"/>
</g>
<defs>
<clipPath id="clip0_4904_3317">
<rect width="150" height="55" fill="white"/>
</clipPath>
</defs>
</svg>
