<svg width="161" height="44" viewBox="0 0 161 44" fill="none" xmlns="http://www.w3.org/2000/svg">
<g clip-path="url(#clip0_4904_957)">
<path d="M124.668 36.4684V34.4048H131.805V36.4684H129.492V43.8717H126.993V36.4684H124.668Z" fill="#005CA9"/>
<path d="M77.1631 44.0002C76.2493 44.0002 75.4281 43.8137 74.6878 43.4406C73.9475 43.0675 73.3692 42.5196 72.9412 41.7967C72.5132 41.0739 72.2935 40.1878 72.2935 39.1502C72.2935 38.1126 72.5132 37.2032 72.9412 36.4804C73.3692 35.7575 73.9591 35.2096 74.6878 34.8365C75.4281 34.4634 76.2493 34.2769 77.1631 34.2769C78.0769 34.2769 78.8982 34.4634 79.6269 34.8365C80.3672 35.2096 80.9455 35.7575 81.3735 36.4804C81.8015 37.2032 82.0212 38.0893 82.0212 39.1502C82.0212 40.2111 81.8015 41.0855 81.3735 41.8084C80.9455 42.5312 80.3556 43.0792 79.6269 43.4523C78.8866 43.8253 78.0654 44.0119 77.1631 44.0119M77.1631 41.7734C77.6142 41.7734 77.996 41.6801 78.2967 41.4703C78.609 41.2721 78.8403 40.969 78.9907 40.5842C79.1411 40.1995 79.222 39.7215 79.222 39.1502C79.222 38.5789 79.1411 38.1009 78.9907 37.7162C78.8288 37.3314 78.5974 37.0283 78.2967 36.8301C77.9844 36.6319 77.6142 36.527 77.1631 36.527C76.712 36.527 76.3419 36.6319 76.0296 36.8301C75.7173 37.0283 75.4859 37.3314 75.324 37.7162C75.1621 38.1126 75.0927 38.5906 75.0927 39.1502C75.0927 39.7098 75.1736 40.1878 75.324 40.5842C75.4859 40.969 75.7173 41.2721 76.0296 41.4703C76.3419 41.6685 76.712 41.7734 77.1631 41.7734Z" fill="#005CA9"/>
<path d="M91.3789 43.8716V34.3931H97.6135V36.4683H94.0393V38.0656H97.2549V40.0942H94.0393V41.7964H97.5903V43.8599H91.3789V43.8716Z" fill="#005CA9"/>
<path d="M107.619 43.8716V34.3931H113.865V36.4683H110.279V38.0656H113.495V40.0942H110.279V41.7964H113.83V43.8599H107.619V43.8716Z" fill="#005CA9"/>
<path d="M104.021 34.3931V38.5902C103.894 38.5902 103.767 38.6135 103.616 38.6252C103.431 38.6252 103.258 38.6368 103.096 38.6485C102.934 38.6485 102.818 38.6485 102.749 38.6485C102.159 38.6485 101.754 38.5436 101.534 38.3454C101.314 38.1472 101.21 37.8207 101.21 37.366V34.3931H98.9316V37.366C98.9316 38.1005 99.0936 38.7068 99.4059 39.1848C99.7298 39.6628 100.169 40.0242 100.748 40.2691C101.326 40.5022 101.997 40.6188 102.76 40.6188C102.795 40.6188 102.888 40.6188 103.049 40.6188C103.2 40.6188 103.373 40.6072 103.57 40.5838C103.732 40.5838 103.894 40.5605 104.044 40.5372V43.8599H106.346V34.3931H104.044H104.021Z" fill="#005CA9"/>
<path d="M119.371 44.0002C118.468 44.0002 117.67 43.8137 116.965 43.4406C116.259 43.0675 115.692 42.5196 115.276 41.7967C114.86 41.0739 114.651 40.1878 114.651 39.1502C114.651 38.1126 114.86 37.2032 115.288 36.4804C115.704 35.7575 116.271 35.2096 116.988 34.8365C117.705 34.4634 118.492 34.2769 119.371 34.2769C119.984 34.2769 120.562 34.3585 121.083 34.5217C121.603 34.6849 122.066 34.9297 122.447 35.2329C122.841 35.5477 123.153 35.9324 123.396 36.3871C123.639 36.8418 123.778 37.3664 123.824 37.9494H121.129C121.117 37.7278 121.059 37.5296 120.978 37.3548C120.897 37.1799 120.793 37.0167 120.643 36.9001C120.504 36.7718 120.331 36.6786 120.123 36.6086C119.926 36.5386 119.695 36.5037 119.44 36.5037C119.001 36.5037 118.619 36.6086 118.307 36.8185C117.994 37.0283 117.763 37.3314 117.601 37.7162C117.439 38.1126 117.37 38.5789 117.37 39.1385C117.37 39.6982 117.451 40.1995 117.612 40.5842C117.774 40.969 118.006 41.2604 118.307 41.4586C118.607 41.6568 118.977 41.7501 119.417 41.7501C119.66 41.7501 119.88 41.7151 120.076 41.6685C120.273 41.6102 120.435 41.5286 120.585 41.412C120.724 41.2954 120.851 41.1555 120.932 40.9923C121.025 40.8291 121.083 40.6542 121.117 40.4443H123.812C123.778 40.8524 123.674 41.2604 123.465 41.6685C123.269 42.0882 122.98 42.4729 122.609 42.8227C122.239 43.1725 121.788 43.4523 121.245 43.6738C120.701 43.8836 120.076 44.0002 119.359 44.0002H119.371Z" fill="#005CA9"/>
<path d="M82.5879 36.4684V34.4048H90.0601V36.4684H87.6311V43.8717H85.0169V36.4684H82.5879Z" fill="#005CA9"/>
<path d="M133.112 43.8717V34.4048H137.357C138.109 34.4048 138.722 34.4981 139.242 34.6963C139.751 34.8945 140.133 35.1626 140.388 35.524C140.642 35.8738 140.769 36.2935 140.769 36.7715C140.769 37.1213 140.688 37.4361 140.526 37.7275C140.364 38.019 140.145 38.2522 139.867 38.4504C139.589 38.6486 139.254 38.7768 138.872 38.8468V38.9517C139.289 38.9517 139.682 39.0683 140.017 39.2548C140.364 39.4413 140.631 39.7095 140.839 40.0359C141.047 40.374 141.139 40.7588 141.139 41.2018C141.139 41.7265 141.001 42.1811 140.723 42.5775C140.445 42.9856 140.052 43.3004 139.543 43.5336C139.023 43.7667 138.421 43.8833 137.704 43.8833H133.089L133.112 43.8717ZM135.772 38.2172H136.86C137.091 38.2172 137.299 38.1822 137.473 38.1123C137.646 38.0423 137.785 37.9374 137.889 37.8091C137.993 37.6809 138.04 37.5177 138.04 37.3195C138.04 37.028 137.935 36.8065 137.716 36.6549C137.496 36.5034 137.23 36.4217 136.894 36.4217H135.761V38.2288L135.772 38.2172ZM135.772 41.8081H137.022C137.461 41.8081 137.797 41.7265 138.028 41.5632C138.259 41.4 138.363 41.1552 138.363 40.8521C138.363 40.6305 138.306 40.4323 138.201 40.2808C138.097 40.1292 137.947 40.0126 137.75 39.931C137.554 39.8494 137.322 39.8144 137.056 39.8144H135.772V41.8197V41.8081Z" fill="#005CA9"/>
<path d="M148.75 43.8717H151.156L146.888 34.4048H145.315L141.047 43.8717H143.43L144.251 42.0529H147.906L148.727 43.8717H148.75ZM145.13 40.1409L146.055 38.1123H146.136L147.062 40.1409H145.142H145.13Z" fill="#005CA9"/>
<path d="M75.9023 31.2571C75.2083 31.2571 74.5837 31.1289 74.0285 30.8724C73.4849 30.6159 73.0569 30.2545 72.7561 29.8114C72.4438 29.3568 72.2935 28.8321 72.2935 28.2492H74.7225C74.7225 28.4357 74.7688 28.5873 74.8729 28.7388C74.977 28.8787 75.1158 28.9953 75.3009 29.0769C75.4859 29.1586 75.6941 29.1935 75.9255 29.1935C76.1568 29.1935 76.3419 29.1469 76.5154 29.0653C76.6889 28.9837 76.8161 28.8671 76.9087 28.7155C77.0012 28.564 77.0475 28.3891 77.0475 28.2025C77.0475 28.016 76.9896 27.8411 76.8855 27.6896C76.7814 27.538 76.6195 27.4331 76.4228 27.3515C76.2262 27.2698 75.9949 27.2232 75.7288 27.2232H74.8266V25.4394H75.7288C75.9602 25.4394 76.1799 25.3928 76.365 25.3112C76.5501 25.2296 76.6889 25.113 76.793 24.9614C76.8971 24.8099 76.9434 24.6466 76.9434 24.4601C76.9434 24.2735 76.8971 24.1103 76.8046 23.9704C76.712 23.8305 76.5963 23.7256 76.446 23.6323C76.2956 23.5507 76.1221 23.5157 75.9139 23.5157C75.6941 23.5157 75.4975 23.5624 75.3124 23.644C75.1389 23.7256 75.0001 23.8422 74.9076 23.9821C74.815 24.122 74.7688 24.2969 74.7688 24.4951H72.4554C72.4554 23.9121 72.6058 23.3991 72.9065 22.9561C73.2072 22.5131 73.6121 22.1633 74.1326 21.9185C74.6531 21.662 75.2546 21.5454 75.9255 21.5454C76.5964 21.5454 77.1631 21.662 77.6721 21.9068C78.181 22.1517 78.5743 22.4781 78.8519 22.8862C79.1295 23.2942 79.2799 23.7722 79.2799 24.3085C79.2799 24.8448 79.1064 25.2645 78.7594 25.6026C78.4124 25.9407 77.9728 26.1506 77.4407 26.2089V26.2672C78.1579 26.3488 78.7015 26.582 79.0485 26.9667C79.4071 27.3515 79.5806 27.8295 79.5806 28.4124C79.5806 28.9953 79.4187 29.4617 79.1064 29.8931C78.7941 30.3244 78.3545 30.6625 77.7993 30.8957C77.2441 31.1405 76.5964 31.2571 75.8792 31.2571H75.9023Z" fill="#005CA9"/>
<path d="M102.876 29.2169V21.6504H100.355V29.1469H98.0645V21.6504H95.5429V29.1469H93.1832V21.6504H90.627V31.1289H101.477H102.182V32.3997H104.623V29.2169H102.876Z" fill="#005CA9"/>
<path d="M105.56 21.6504H108.127V26.6053H108.208L112.28 21.6504H113.772V31.1289H111.193V26.1507H111.135L107.04 31.1289H105.56V21.6504Z" fill="#005CA9"/>
<path d="M133.101 21.6504H135.726V26.6053H135.807L139.971 21.6504H141.487V31.1289H138.849V26.1507H138.792L134.616 31.1289H133.101V21.6504Z" fill="#005CA9"/>
<path d="M152.695 21.6504H155.297V26.6053H155.378L159.496 21.6504H161V31.1289H158.397V26.1507H158.328L154.199 31.1289H152.695V21.6504Z" fill="#005CA9"/>
<path d="M115.068 23.7023V21.6387H122.205V23.7023H119.88V31.1056H117.381V23.7023H115.068Z" fill="#005CA9"/>
<path d="M123.5 31.1289V21.6504H125.998V25.3579H129.307V21.6504H131.793V31.1289H129.307V27.4215H125.998V31.1289H123.5Z" fill="#005CA9"/>
<path d="M148.543 31.1289L145.686 27.3049H145.315V31.1289H142.782V21.6504H145.315V25.2296H145.639L148.323 21.6504H151.527L147.964 26.2089L151.723 31.1289H148.531H148.543Z" fill="#005CA9"/>
<path d="M87.3648 31.0006H89.7476L85.5256 21.5337H83.9641L79.7422 31.0006H82.1018L82.9115 29.1818H86.532L87.3417 31.0006H87.3648ZM83.7906 27.2698L84.7044 25.2412H84.7854L85.6991 27.2698H83.8022H83.7906Z" fill="#005CA9"/>
<path d="M15.0719 31.1171H15.1413C15.6733 31.0821 16.1592 31.0588 16.5871 31.0239C16.8879 31.0005 18.0561 30.8606 18.5998 31.2104L18.9236 32.248L18.7733 31.7584L17.9058 29.0186C17.9058 29.0186 17.4431 29.1235 16.8416 29.2634C15.3032 29.6481 13.7532 30.1728 12.3999 30.8956C13.0824 31.0472 13.9614 31.1638 15.0719 31.1055V31.1171Z" fill="black"/>
<path d="M16.749 33.5307C16.3211 33.554 15.8237 33.589 15.2569 33.624H15.1759C14.9446 33.6356 14.7133 33.6473 14.4819 33.6473C12.3536 33.6473 10.8615 33.146 10.0402 32.7612C9.87828 33.0177 9.75104 33.2975 9.70477 33.5773C9.69321 33.6706 9.68164 33.7406 9.68164 33.8105V33.8455C9.72791 33.9737 9.76261 34.102 9.80888 34.2069C9.91298 34.4867 10.0286 34.8365 10.0518 34.8598C10.1675 35.0347 10.3063 35.1979 10.7805 35.4544C11.2663 35.7109 11.9372 35.8858 12.851 36.0606C13.5219 36.1889 14.3662 36.3638 15.28 36.3171H15.3263C15.5345 36.3171 15.7311 36.2938 15.9278 36.2822H16.0319C17.4546 36.1889 18.3221 36.1306 18.9352 36.1423C19.0393 36.1423 19.1203 36.1423 19.2128 36.1539H19.2591C19.34 36.1539 19.421 36.1772 19.4904 36.1889H19.502C19.5829 36.2122 19.6523 36.2239 19.7217 36.2472C19.7796 36.2705 19.849 36.2938 19.9068 36.3288C19.9184 36.3288 19.9415 36.3405 19.9531 36.3521C19.9993 36.3754 20.0456 36.3987 20.0919 36.4337C20.1034 36.4337 20.1266 36.457 20.1381 36.4687C20.196 36.5037 20.2538 36.5503 20.3001 36.5969L19.3632 33.6473C19.1202 33.4491 18.993 33.4141 16.749 33.5424V33.5307Z" fill="black"/>
<path d="M9.68164 34.055C9.68164 34.055 9.69321 34.1716 9.70477 34.2299C9.73948 34.2299 9.77418 34.2066 9.80888 34.1949C9.77418 34.09 9.72791 33.9617 9.68164 33.8335V34.0434V34.055Z" fill="black"/>
<path d="M9.71631 34.2765C9.71631 34.2765 9.72788 34.3348 9.73944 34.3581C9.76258 34.4514 9.78571 34.533 9.83198 34.6146C10.0402 35.0227 10.5029 35.3491 10.7458 35.4773C11.1969 35.7105 11.8215 35.9553 12.6312 36.1302C12.689 36.1069 12.7584 36.0836 12.8162 36.0486H12.8394C11.914 35.8854 11.2547 35.7105 10.7689 35.454C10.2947 35.2092 10.1559 35.0343 10.0402 34.8594C10.0286 34.8361 9.90138 34.4864 9.80884 34.2065C9.77414 34.2065 9.75101 34.2299 9.71631 34.2415C9.71631 34.2532 9.71631 34.2765 9.71631 34.2882V34.2765Z" fill="black"/>
<path d="M9.71616 34.2415C9.71616 34.2415 9.78556 34.2182 9.80869 34.2065C9.77399 34.2065 9.75086 34.2299 9.70459 34.2415H9.71616Z" fill="black"/>
<path d="M20.0918 36.4219C20.0918 36.4219 20.1265 36.4452 20.1381 36.4569C20.1265 36.4569 20.1034 36.4335 20.0918 36.4219Z" fill="#DE5A13"/>
<path d="M19.9067 36.3286C19.9067 36.3286 19.9414 36.3403 19.953 36.3519C19.9414 36.3519 19.9183 36.3403 19.9067 36.3286Z" fill="#DE5A13"/>
<path d="M15.2801 36.3053C14.3664 36.352 13.522 36.1771 12.8511 36.0488C12.7933 36.0721 12.7239 36.0955 12.666 36.1304C13.3947 36.2703 14.2623 36.3636 15.2801 36.3053Z" fill="black"/>
<path d="M12.6309 36.1188H12.654C12.7118 36.0955 12.7812 36.0721 12.8391 36.0488H12.8159C12.7581 36.0721 12.6887 36.0955 12.6309 36.1188Z" fill="black"/>
<path d="M8.87172 31.6416C6.76654 32.3528 3.99047 33.1572 0.80957 33.4487L1.60769 36.0253C4.74232 35.7455 7.51839 34.9877 9.69297 34.2415C9.58886 33.9034 9.27656 32.9241 8.87172 31.6416Z" fill="#FBBB30"/>
<path d="M9.716 34.2418C9.716 34.1835 9.69287 34.1252 9.69287 34.0669C9.69287 34.1368 9.70444 34.1951 9.716 34.2418Z" fill="black"/>
<path d="M15.9278 36.2702C15.7427 36.2702 15.5461 36.2935 15.3263 36.3052H15.2801C14.2622 36.3518 13.3946 36.2702 12.6659 36.1303H12.6428C10.1906 37.1213 6.59329 38.1939 2.4292 38.5553L3.23888 41.0969C3.58589 41.0619 3.94447 41.0386 4.27991 41.0037C4.43028 40.992 4.58065 40.9687 4.74258 40.9454C4.92765 40.922 5.11273 40.8987 5.28623 40.8754C5.49443 40.8521 5.70264 40.8171 5.89928 40.7821C6.01495 40.7705 6.11905 40.7472 6.23472 40.7355C6.47762 40.6889 6.72053 40.6539 6.96343 40.6073C7.02127 40.6073 7.06754 40.5839 7.12537 40.5723C7.40298 40.514 7.68058 40.4674 7.94662 40.4091H7.95819C8.81414 40.2225 9.64696 40.0243 10.4219 39.8145C10.6186 39.7562 10.8152 39.6979 11.0119 39.6396C11.0928 39.6163 11.1738 39.5929 11.2548 39.5696C11.4977 39.4997 11.729 39.4297 11.9603 39.3481C12.0066 39.3365 12.0529 39.3131 12.0991 39.3015C12.2958 39.2432 12.4809 39.1732 12.6659 39.1033C12.77 39.0683 12.8857 39.0217 12.9898 38.9867C13.1055 38.9401 13.2327 38.8934 13.3368 38.8585C13.5334 38.7768 13.7301 38.7069 13.9152 38.6253C13.9383 38.6253 13.973 38.602 13.9961 38.5903C14.9793 38.1939 15.789 37.7975 16.3905 37.4361C17.1076 37.0047 17.7091 36.5617 18.1486 36.1187C17.6166 36.142 16.9341 36.1886 16.0319 36.2469H15.9162L15.9278 36.2702Z" fill="#FBBB30"/>
<path d="M18.5996 31.222C18.0559 30.8605 16.8992 31.0121 16.5869 31.0238C16.1589 31.0471 15.6731 31.082 15.1411 31.1054H15.0716C13.9728 31.1637 13.0821 31.0587 12.3997 30.8955C11.8445 31.187 11.3124 31.5251 10.8266 31.8982C10.5374 32.1313 10.2598 32.4228 10.04 32.7492C10.8613 33.134 12.3419 33.6353 14.4817 33.6353C14.7015 33.6353 14.9328 33.6353 15.1758 33.6236H15.2567C15.8235 33.5887 16.3093 33.5654 16.7489 33.5304C19.0044 33.3905 19.1201 33.4371 19.363 33.6353L18.9234 32.2596L18.5996 31.222Z" fill="#DE5A13"/>
<path d="M7.99297 24.5299C8.71012 23.8654 9.53137 23.3174 10.422 22.9093C13.3369 21.5686 16.46 20.8807 19.6062 20.496C21.8501 20.2162 24.2445 20.1112 26.5116 20.018L23.1341 17.5347C21.6882 17.6046 20.2423 17.6979 18.8196 17.8728C15.6734 18.2575 12.5503 18.9454 9.63547 20.2861C8.74482 20.6942 7.93514 21.2421 7.20642 21.9067C6.72061 22.3497 6.43144 23.0726 6.3042 23.5039C6.5471 24.2617 6.82471 25.1362 7.11388 26.0572C7.25269 25.6258 7.53029 24.9613 8.00454 24.5416L7.99297 24.5299Z" fill="#FBBB30"/>
<path d="M29.8428 22.478C29.1256 22.5013 28.235 22.6179 27.5063 22.6529C25.1697 22.7462 22.8217 22.8394 20.5198 23.1193C17.3736 23.504 14.2506 24.1919 11.3357 25.5326C10.445 25.9407 9.63536 26.4886 8.90665 27.1532C8.38614 27.6312 8.09696 28.4123 7.96973 28.8204L8.02756 29.0069C8.27047 29.7647 8.50181 30.5109 8.72158 31.1871C8.72158 31.1521 8.75628 31.1055 8.76784 31.0705C8.92978 30.6508 9.18425 30.1261 9.57753 29.7647C10.2947 29.1002 11.1159 28.5522 12.0066 28.1442C14.9214 26.8034 18.0445 26.1155 21.1907 25.7308C23.4925 25.451 25.8522 25.3577 28.1887 25.2645C28.5936 25.2411 28.9868 25.2295 29.3917 25.2178L30.1898 22.6995L29.8543 22.478H29.8428Z" fill="#FBBB30"/>
<path d="M20.1379 36.4568C20.1379 36.4568 20.1032 36.4334 20.0916 36.4218C20.0453 36.3868 19.9991 36.3635 19.9528 36.3402C19.9412 36.3402 19.9181 36.3285 19.9065 36.3169C19.8487 36.2935 19.7909 36.2586 19.7214 36.2352C19.652 36.2119 19.5826 36.1886 19.5017 36.1769H19.4901C19.4207 36.1653 19.3397 36.1536 19.2588 36.142H19.2241C19.1315 36.142 19.0506 36.1303 18.9465 36.1187C18.7267 36.1187 18.4722 36.1187 18.1715 36.1187C17.7319 36.5617 17.1305 37.0047 16.4133 37.4361C15.8118 37.7975 15.0021 38.1939 14.019 38.5903C13.9958 38.5903 13.9727 38.6136 13.938 38.6253C13.7529 38.7069 13.5563 38.7768 13.3596 38.8585C13.244 38.8934 13.1283 38.9401 13.0126 38.9867C12.9085 39.0217 12.7929 39.0683 12.6888 39.1033C12.5037 39.1732 12.3071 39.2315 12.122 39.3015C12.0757 39.3131 12.0179 39.3365 11.9832 39.3481C11.7518 39.4297 11.5205 39.4997 11.2776 39.5696C11.1966 39.5929 11.1157 39.6163 11.0347 39.6396C10.8496 39.6862 10.6877 39.7445 10.5026 39.7911C10.491 39.7911 10.4679 39.7911 10.4448 39.8028C9.66979 40.0127 8.84854 40.2109 7.98102 40.3974H7.96946C7.69185 40.4557 7.42581 40.514 7.1482 40.5606C7.09037 40.5606 7.0441 40.5839 6.98627 40.5956C6.74336 40.6422 6.50046 40.6772 6.25755 40.7238C6.15345 40.7355 6.03778 40.7588 5.92211 40.7705C5.71391 40.8055 5.51727 40.8288 5.30906 40.8637C5.12399 40.8871 4.95049 40.9104 4.76542 40.9337C4.61505 40.957 4.46468 40.9687 4.30274 40.992C3.95573 41.027 3.60873 41.0619 3.26172 41.0969L4.0714 43.6502C10.4101 43.1605 15.835 41.1902 18.0211 39.7095C19.5364 38.6836 20.6815 37.8441 20.3345 36.585C20.2767 36.5384 20.2188 36.5034 20.1726 36.4568H20.1379Z" fill="black"/>
<path d="M6.29227 23.504C6.41951 23.0842 6.70868 22.3614 7.19449 21.9067C7.91164 21.2422 8.73289 20.6942 9.62355 20.2862C12.5384 18.9454 15.6615 18.2575 18.8077 17.8728C20.2304 17.6979 21.6763 17.6046 23.1221 17.5347L19.7909 15.0747C18.8077 15.133 18.1021 15.1913 17.6626 15.2496C16.2861 15.4245 14.9212 15.6576 13.591 15.9608C12.2608 16.2639 10.9422 16.6603 9.69295 17.1849C8.42059 17.7329 7.20606 18.5024 6.1766 19.4467C5.48259 20.0763 5.47102 20.9157 5.48259 20.9507C5.48259 20.9507 5.81803 22 6.29227 23.4923V23.504Z" fill="black"/>
<path d="M21.1905 25.7424C18.0442 26.1272 14.9212 26.815 12.0063 28.1558C11.1157 28.5638 10.306 29.1118 9.57726 29.7763C9.18398 30.1378 8.92951 30.6624 8.76758 31.0821C8.75601 31.1171 8.73288 31.1637 8.72131 31.1987C8.5131 30.5225 8.2702 29.788 8.02729 29.0185C5.96838 29.6947 3.31956 30.3476 -0.0117188 30.9072L0.797966 33.4488C3.97887 33.1457 6.75493 32.3529 8.86011 31.6417C9.26495 32.9242 9.57726 33.9035 9.68136 34.2416C7.49521 34.9878 4.73072 35.7456 1.59608 36.0254L2.40577 38.5553C6.56986 38.1939 10.1672 37.133 12.6194 36.1303C11.8097 35.9671 11.1851 35.7223 10.734 35.4774C10.491 35.3492 10.0284 35.0228 9.82017 34.6147C9.7739 34.5331 9.75076 34.4398 9.72763 34.3582C9.72763 34.3465 9.72763 34.3116 9.7045 34.2766C9.7045 34.2649 9.7045 34.2416 9.7045 34.23C9.7045 34.1833 9.69293 34.125 9.68136 34.0551V33.8102C9.68136 33.7286 9.68136 33.6587 9.7045 33.5654C9.75076 33.2856 9.878 33.0058 10.0399 32.7493C10.2481 32.4229 10.5257 32.1314 10.8265 31.8982C11.3007 31.5251 11.8328 31.1987 12.3996 30.8956C13.7645 30.1727 15.3029 29.6481 16.8413 29.2633C18.611 28.8203 20.3692 28.5522 21.7804 28.354C24.2788 28.0042 28.3272 27.9226 28.5239 27.8876L29.3683 25.2178C28.9634 25.2294 28.5701 25.2411 28.1653 25.2644C25.8288 25.3577 23.4807 25.4509 21.1789 25.7308L21.1905 25.7424Z" fill="black"/>
<path d="M10.4218 22.9094C9.5311 23.3175 8.72142 23.8654 7.9927 24.53C7.53003 24.9497 7.24085 25.6143 7.10205 26.0456C7.39122 26.955 7.69196 27.8994 7.98114 28.8204C8.09681 28.4123 8.39755 27.6196 8.91806 27.1532C9.63521 26.4887 10.4565 25.9407 11.3471 25.5326C14.262 24.1919 17.385 23.504 20.5312 23.1193C22.8331 22.8395 25.1927 22.7462 27.5292 22.6529C28.2464 22.618 29.137 22.513 29.8658 22.4781L26.5229 20.0181C24.2558 20.1113 21.8614 20.2163 19.6175 20.4961C16.4713 20.8808 13.3482 21.5687 10.4333 22.9094H10.4218Z" fill="black"/>
<path d="M30.9994 22.4781L27.5525 33.3673L37.3034 26.3604L47.089 33.379L43.6305 22.4781L53.6937 15.0748L41.132 14.5968L37.3149 2.57666L33.4979 14.5968L20.9478 15.0631L30.9994 22.4781Z" fill="#E30613"/>
<path d="M59.2111 7.34499H59.2574C62.5887 5.86434 65.7002 5.17647 71.8538 4.24377L70.512 0C64.1734 0.489666 58.7485 2.45999 56.5623 3.94065C55.0471 4.96661 53.9019 5.80604 54.2489 7.06518C55.0008 7.70641 55.6138 7.54319 59.2227 7.34499H59.2111Z" fill="#F2EFF0"/>
<path d="M64.9597 9.92145C64.8788 9.66496 64.8094 9.46676 64.7515 9.29188C64.659 9.01207 64.5086 8.82553 64.4623 8.75558C64.3929 8.65065 64.2194 8.42913 63.7452 8.19596C62.8892 7.75293 61.3855 7.2516 59.211 7.36819H59.1647C55.5674 7.56639 54.9543 7.72961 54.1909 7.08838L55.5558 11.4021C55.5558 11.4021 55.6252 11.4021 55.6715 11.4138C55.7293 11.4138 55.7987 11.4371 55.8681 11.4371C56.6894 11.5304 57.4181 11.4721 58.5169 11.4604H58.7946C60.0438 11.4604 60.8419 11.4604 61.4202 11.4954C61.5706 11.4954 61.7094 11.507 61.8367 11.5187C62.4728 11.5653 62.8083 11.6353 63.3519 11.7052C63.4676 11.7169 63.5717 11.7402 63.6758 11.7519C64.312 11.2272 64.5896 10.7609 64.7168 10.3878C64.7168 10.3878 64.7168 10.3761 64.7168 10.3645C64.7515 10.2712 64.7631 10.1779 64.7862 10.0847C64.8556 9.66496 64.7862 9.37349 64.7515 9.29188C64.7631 9.33851 64.8325 9.51339 64.9597 9.92145Z" fill="#C6C6C6"/>
<path d="M63.3287 11.6937C62.7735 11.6121 62.4496 11.5422 61.8135 11.4955C61.6862 11.4955 61.5474 11.4839 61.3971 11.4722C60.8187 11.4489 60.0206 11.4256 58.7714 11.4372H58.4938C57.3949 11.4489 57.1404 11.4955 56.0994 11.4372C55.9028 11.4372 55.5789 11.309 55.4517 11.0991L55.6946 11.8803L56.5852 14.6667C56.5852 14.6667 56.6778 14.6434 56.7009 14.6434C56.8397 14.6084 56.9785 14.5851 57.1173 14.5501C57.499 14.4568 57.8692 14.3636 58.2162 14.2703C58.5863 14.1654 58.9333 14.0721 59.2687 13.9672H59.2803C59.8471 13.7923 60.356 13.5941 60.7956 13.3959C62.172 12.7896 63.0627 12.23 63.6526 11.752C63.5601 11.7403 63.456 11.717 63.3287 11.6937Z" fill="#183E75"/>
<path d="M65.7465 12.4514C65.5614 11.8452 65.4226 11.3672 65.2954 10.9591C65.2029 10.6677 65.1219 10.4345 65.0641 10.2363C65.0409 10.1547 65.0178 10.0731 64.9947 10.0031L64.96 9.90984C64.8211 9.50179 64.7749 9.32691 64.7517 9.28027C64.7749 9.36188 64.8558 9.66501 64.7864 10.0731C64.7749 10.1663 64.7517 10.2479 64.717 10.3529C64.717 10.3529 64.717 10.3645 64.717 10.3762C64.5898 10.7609 64.3122 11.2156 63.676 11.7519C63.0861 12.2416 62.1955 12.7895 60.819 13.4075C60.3795 13.6057 59.8705 13.7922 59.3037 13.9671H59.2922C58.9567 14.072 58.6097 14.1769 58.2396 14.2702C57.881 14.3635 57.5224 14.4567 57.1407 14.55C57.0019 14.585 56.8631 14.6083 56.7243 14.6433C56.7012 14.6433 56.6896 14.6433 56.6665 14.6549C56.6433 14.6549 56.6202 14.6549 56.5971 14.6666C55.9493 14.8065 54.8736 15.0863 54.8736 15.0863L47.9219 20.1928C47.9219 20.1928 52.7221 19.9363 54.0986 19.7615C55.4751 19.5866 56.84 19.3534 58.1702 19.0503C58.4478 18.992 58.7369 18.9104 59.0261 18.8404C59.0261 18.8404 59.0493 18.8404 59.0608 18.8404C59.0724 18.8404 59.0955 18.8404 59.0955 18.8404C59.2459 18.7938 59.4078 18.7472 59.5698 18.7005C60.4373 18.4557 61.2932 18.1642 62.0567 17.8378C63.3059 17.3015 64.6708 16.567 65.573 15.576C65.8043 15.3195 65.9663 15.0047 66.0819 14.7249C66.2207 14.3868 66.2786 14.107 66.267 14.0603L66.4174 14.5267C66.1745 13.7339 65.9431 13.046 65.7581 12.4631L65.7465 12.4514Z" fill="#E6E6E6"/>
<path d="M65.7463 12.4515C65.9313 13.0228 66.1627 13.7223 66.4056 14.5151L66.4287 14.5967C68.4992 13.9205 71.1364 13.256 74.4793 12.6964L73.126 8.44092C69.6212 9.0122 67.0071 9.63011 65.0522 10.248C65.1216 10.4462 65.191 10.6794 65.2836 10.9709C65.4108 11.3673 65.5496 11.8569 65.7347 12.4632" fill="#E30613"/>
<path d="M63.7339 8.1843C64.2082 8.42913 64.4164 8.70894 64.4858 8.81387C64.5668 8.93046 64.7634 9.32685 64.9485 9.92145L64.9832 10.0147C65.0063 10.0847 65.0294 10.1546 65.0526 10.2479C67.0074 9.64164 69.6215 9.02373 73.1263 8.44079L71.8539 4.24365H71.7961C65.6425 5.18801 62.531 5.87587 59.1997 7.35653C61.3743 7.23994 62.878 7.74127 63.7339 8.1843Z" fill="#005CA9"/>
<path d="M67.0997 16.742C66.9146 16.1357 66.7758 15.6577 66.6486 15.2497C66.556 14.9582 66.4751 14.725 66.4172 14.5268C66.3941 14.4452 66.371 14.3636 66.3478 14.2936L66.3131 14.2004C66.1743 13.7923 66.1281 13.6174 66.1049 13.5708C66.1281 13.6524 66.209 13.9555 66.1396 14.3636C66.1281 14.4569 66.1049 14.5385 66.0702 14.6434C66.0702 14.6434 66.0702 14.6551 66.0702 14.6667C65.943 15.0515 65.6654 15.5061 65.0292 16.0424C64.4393 16.5321 63.5486 17.0801 62.1722 17.698C61.7326 17.8962 61.2237 18.0827 60.6569 18.2576H60.6454C59.5812 18.5957 58.7831 18.8755 57.4413 19.1087C53.6936 19.7732 48.7546 20.0064 48.2109 20.0647C48.2109 20.0647 48.0721 20.0997 48.0837 20.0764L44.4517 22.7462L45.0763 24.7165C45.0763 24.7165 54.0869 24.2152 55.4518 24.0403C56.8283 23.8654 58.1932 23.6323 59.5234 23.3291C60.8536 23.026 62.1722 22.6296 63.4214 22.105C64.6938 21.557 66.0008 20.8808 66.9378 19.8432C67.1691 19.5867 67.331 19.2719 67.4467 18.9921C67.5855 18.654 67.6433 18.3742 67.6318 18.3276L67.7821 18.7939C67.5392 18.0011 67.3079 17.3132 67.1228 16.7303L67.0997 16.742Z" fill="#005CA9"/>
<path d="M68.4876 21.1023C68.3026 20.4961 68.1637 20.0181 68.0365 19.61C67.944 19.3185 67.863 19.0854 67.8052 18.8872C67.782 18.8056 67.7589 18.7239 67.7358 18.654L67.7011 18.5607C67.5623 18.1527 67.516 17.9778 67.4929 17.9312C67.8167 18.9105 66.9955 19.8082 66.3477 20.3911C65.781 20.9041 64.925 21.4288 63.5485 22.0467C63.109 22.2449 62.6001 22.4314 62.0333 22.6063H62.0217C60.9576 22.9444 60.1594 23.2242 58.8177 23.469C55.07 24.1336 50.8828 24.3668 50.3276 24.4251C50.3276 24.4251 45.8049 24.6932 45.0762 24.7398L45.8627 27.2232L46.4295 29.0069C46.4295 29.0069 54.9659 28.6688 56.8397 28.424C58.2162 28.2375 59.5811 28.0159 60.9113 27.7128C62.2415 27.4097 63.5601 27.0133 64.8093 26.4886C66.0817 25.9407 67.3888 25.2645 68.3257 24.2269C68.557 23.9704 68.719 23.6556 68.8346 23.3874C68.9734 23.0493 69.0313 22.7695 69.0197 22.7229C69.0197 22.7229 68.6958 21.6969 68.5108 21.1256" fill="#E30613"/>
</g>
<defs>
<clipPath id="clip0_4904_957">
<rect width="161" height="44" fill="white"/>
</clipPath>
</defs>
</svg>
