<svg width="103" height="109" viewBox="0 0 103 109" fill="none" xmlns="http://www.w3.org/2000/svg">
<g clip-path="url(#clip0_4904_3352)">
<path d="M47.8784 0H48.8635C49.0663 0.116298 49.2836 0.0436116 49.4864 0.0581488C49.6458 0.0581488 49.8196 0.0581488 49.979 0.0581488C50.0949 0.0581488 50.2252 0.0581488 50.3411 0.0581488C52.3258 0.174447 54.2815 0.421579 56.2227 0.843158C64.3642 2.66031 71.1584 6.74527 76.5475 13.1126C81.5453 19.0147 84.3847 25.8472 85.1525 33.5519C85.5002 37.0844 85.3408 40.6024 84.66 44.0914C82.9505 52.8137 78.677 60.0387 71.8538 65.7082C65.8563 70.6944 58.9317 73.442 51.1524 74.0525C48.0377 74.2997 44.9376 74.1398 41.8664 73.5874C38.4186 72.9768 35.1012 71.8865 31.9721 70.3165C25.5545 67.0892 20.4552 62.3937 16.7321 56.2445C13.5451 50.9675 11.8212 45.2253 11.4735 39.076V38.7126C11.4735 38.5527 11.4735 38.3782 11.4735 38.2183C11.4735 37.9712 11.5314 37.7095 11.4155 37.4624V36.721C11.5314 36.4739 11.459 36.2267 11.4735 35.9651C11.4735 35.8051 11.4735 35.6452 11.4735 35.4708C11.4735 35.34 11.4735 35.2237 11.4735 35.1074C11.5604 33.581 11.7197 32.0545 11.995 30.5427C12.8352 25.8472 14.5012 21.4715 17.0363 17.4447C20.7159 11.5862 25.6269 7.07962 31.7982 3.95412C36.376 1.61363 41.258 0.334356 46.3863 0.0436116C46.5022 0.0436116 46.6325 0.0436116 46.7484 0.0436116H47.241C47.4438 0.0436116 47.6611 0.10176 47.8639 0M48.1102 10.4959C47.9943 10.5686 48.0088 10.6848 47.9798 10.7721C47.6901 11.7751 47.2989 12.7346 46.8209 13.665C46.1255 15.0315 45.2563 16.2962 44.4596 17.6046C43.4455 19.2618 42.7791 21.0063 43.0543 23.0124C43.2137 24.2045 43.7062 25.2075 44.6334 25.978C45.0825 26.3414 45.546 26.6758 46.0241 26.9956C46.7629 27.5044 47.4728 28.0423 47.9508 28.8273C48.0667 29.0163 48.1392 28.9436 48.2261 28.7982C48.4868 28.3766 48.82 28.0132 49.1967 27.6934C49.7327 27.2427 50.3266 26.8793 50.8916 26.4723C51.7463 25.8617 52.4851 25.1639 52.8328 24.1463C53.3543 22.5763 53.2529 21.0208 52.659 19.4944C52.2099 18.3314 51.529 17.2993 50.8626 16.2671C50.0079 14.9443 49.2112 13.5778 48.6462 12.1095C48.4434 11.5862 48.284 11.0483 48.0957 10.5104M48.849 40.835C48.849 40.835 48.878 40.835 48.9069 40.835C49.0228 40.617 49.1098 40.3989 49.2401 40.1808C49.8776 39.076 50.8482 38.3055 51.8912 37.6514C53.4702 36.6628 55.0927 35.7179 56.6718 34.7294C58.9896 33.2757 60.1341 31.1532 60.1196 28.4057C60.1196 26.5013 60.1196 24.597 60.1196 22.6926V22.4018C59.8878 22.867 59.6415 23.3031 59.3228 23.6957C58.642 24.5533 57.8017 25.2511 56.9036 25.8762C55.5708 26.8211 54.1076 27.5771 52.7169 28.4202C50.9785 29.4815 49.6747 30.9061 49.1387 32.9413C48.9214 33.7699 48.849 34.6131 48.8635 35.4708C48.878 37.2443 48.8635 39.0324 48.8635 40.8059M47.3569 40.8059C47.3569 40.8059 47.3569 40.7333 47.3569 40.6896C47.3569 38.7271 47.3858 36.7791 47.3569 34.8166C47.3569 33.9589 47.183 33.1158 46.8788 32.3162C46.2414 30.6299 45.0825 29.3942 43.5614 28.4639C42.1272 27.5771 40.6061 26.8066 39.2299 25.8181C38.3462 25.193 37.5349 24.4807 36.8541 23.6375C36.5643 23.2741 36.3325 22.867 36.1008 22.4455V22.7217C36.1008 24.6696 36.1008 26.6176 36.1008 28.5656C36.1008 29.1907 36.1732 29.8158 36.3325 30.4264C36.8106 32.4034 38.0565 33.8135 39.7514 34.8457C41.1131 35.6743 42.4894 36.4739 43.8366 37.3025C45.2708 38.1892 46.6325 39.1632 47.3569 40.8059ZM60.1196 33.6391C59.8588 34.1915 59.5257 34.6858 59.1345 35.151C58.4971 35.8924 57.7293 36.5029 56.9325 37.0699C55.5853 38.0148 54.1366 38.7707 52.7314 39.6284C50.2397 41.1403 48.8925 43.3354 48.878 46.2865C48.878 48.1182 48.878 49.9498 48.878 51.7815C48.878 51.8542 48.878 51.9269 48.878 51.9996C49.0953 51.6652 49.2546 51.3163 49.4719 51.0111C50.2107 49.9644 51.2248 49.223 52.2968 48.5688C53.7745 47.6675 55.2811 46.7953 56.7442 45.8794C58.8738 44.542 60.0472 42.594 60.1196 40.05C60.1776 37.913 60.1196 35.7615 60.1196 33.6246M36.1152 33.6246V33.9589C36.1152 35.747 36.1152 37.5351 36.1152 39.3377C36.1152 39.9192 36.1442 40.5007 36.2456 41.0822C36.4774 42.5504 37.1438 43.7861 38.1868 44.8182C38.8677 45.4869 39.679 45.9812 40.4757 46.4755C41.8375 47.3186 43.2572 48.0891 44.6044 48.9904C45.7489 49.7609 46.7629 50.6622 47.3134 51.9851C47.3134 51.9851 47.3424 51.9851 47.3714 51.9851C47.3714 51.9414 47.3714 51.8833 47.3714 51.8397C47.3714 50.0371 47.3858 48.2345 47.3714 46.4318C47.3714 45.6904 47.2844 44.9345 47.0961 44.2077C46.5601 42.1143 45.2273 40.646 43.431 39.5703C42.0403 38.7271 40.5771 37.9857 39.2588 37.0263C37.9985 36.1104 36.7961 35.1364 36.1152 33.6391M48.9069 63.1787C49.0953 62.8298 49.2691 62.4809 49.5009 62.1611C50.2252 61.158 51.2103 60.4457 52.2389 59.8061C53.6875 58.9193 55.1652 58.0471 56.6138 57.1603C58.9752 55.7066 60.1341 53.5842 60.1341 50.8075C60.1341 48.8886 60.1341 46.9843 60.1341 45.0653C60.1341 44.9781 60.1341 44.9054 60.1196 44.7455C59.6271 45.9667 58.8013 46.8244 57.8597 47.5803C56.4835 48.6997 54.9479 49.5573 53.4123 50.4296C52.3548 51.0256 51.3552 51.7234 50.5729 52.6683C49.5444 53.8894 48.9939 55.3141 48.9359 56.8986C48.849 58.992 48.9359 61.0854 48.9359 63.1933M47.4003 63.1933C47.4003 63.1933 47.4003 63.0915 47.4003 63.0479C47.4003 61.1435 47.4003 59.2391 47.4003 57.3348C47.4003 57.044 47.3714 56.7387 47.3279 56.448C47.0237 54.1511 45.8503 52.4212 43.9525 51.1419C43.0688 50.5459 42.1272 50.0516 41.2001 49.4992C40.0701 48.8305 38.9691 48.1182 37.984 47.2459C37.2307 46.5772 36.5788 45.8213 36.1442 44.8764V45.138C36.1442 47.1006 36.1442 49.0485 36.1442 51.0111C36.1442 51.3745 36.1732 51.7379 36.2311 52.0868C36.5354 54.2965 37.6943 55.9537 39.5486 57.1458C41.0697 58.1052 42.6197 58.992 44.1553 59.9369C45.0825 60.5039 45.9372 61.1435 46.6181 62.0012C46.9223 62.3792 47.1251 62.8153 47.4003 63.2223" fill="#F7B949"/>
<path d="M11.4735 35.9504C11.4735 36.1976 11.5314 36.4592 11.4155 36.7064V35.965C11.4155 35.965 11.459 35.965 11.4735 35.965" fill="#F9C465"/>
<path d="M11.4155 37.4478C11.5314 37.6949 11.459 37.942 11.4735 38.2037C11.459 38.2037 11.43 38.2037 11.4155 38.2037V37.4623V37.4478Z" fill="#F9C465"/>
<path d="M47.8783 0C47.6755 0.116298 47.4582 0.0436116 47.2554 0.0581488C47.2554 0.0436116 47.2554 0.0145372 47.2554 0H47.8783Z" fill="#F9C567"/>
<path d="M49.472 0.0581488C49.2692 0.0581488 49.0519 0.116298 48.8491 0H49.472C49.472 0 49.472 0.0436116 49.472 0.0581488Z" fill="#F9C567"/>
<path d="M47.2552 0C47.2552 0 47.2552 0.0436116 47.2552 0.0581488C47.0959 0.0581488 46.922 0.0581488 46.7627 0.0581488C46.7627 0.0436116 46.7627 0.0290744 46.7627 0H47.2552Z" fill="#FBD899"/>
<path d="M49.4717 0.0581488C49.4717 0.0581488 49.4717 0.0145372 49.4717 0H49.9642C49.9642 0 49.9642 0.0290744 49.9642 0.0581488C49.8049 0.0581488 49.631 0.0581488 49.4717 0.0581488Z" fill="#FBD899"/>
<path d="M11.4735 35.9506C11.4735 35.9506 11.43 35.9506 11.4155 35.9506V35.4563C11.4155 35.4563 11.4445 35.4563 11.4735 35.4563C11.4735 35.6162 11.4735 35.7907 11.4735 35.9506Z" fill="#FBD99C"/>
<path d="M11.4155 38.1892C11.4155 38.1892 11.459 38.1892 11.4735 38.1892C11.4735 38.3491 11.4735 38.5236 11.4735 38.6835C11.459 38.6835 11.4445 38.6835 11.4155 38.6835V38.1892Z" fill="#FBD99C"/>
<path d="M46.763 0C46.763 0 46.763 0.0290744 46.763 0.0581488C46.6472 0.0581488 46.5168 0.0581488 46.4009 0.0581488C46.4009 0.0436116 46.4009 0.0290744 46.4009 0.0145372H46.763V0Z" fill="#FCEDD1"/>
<path d="M49.9644 0.0581488C49.9644 0.0581488 49.9644 0.0290744 49.9644 0H50.3265C50.3265 0 50.3265 0.0290744 50.3265 0.0581488C50.2106 0.0581488 50.0802 0.0581488 49.9644 0.0581488Z" fill="#FCEDD2"/>
<path d="M11.4735 35.4707C11.4735 35.4707 11.4445 35.4707 11.4155 35.4707V35.0928C11.4155 35.0928 11.4445 35.0928 11.459 35.0928C11.459 35.2236 11.459 35.3399 11.459 35.4562" fill="#FDEDD0"/>
<path d="M11.4155 38.6835C11.4155 38.6835 11.4445 38.6835 11.4735 38.6835C11.4735 38.7998 11.4735 38.9306 11.4735 39.0469H11.4155V38.6689V38.6835Z" fill="#FDEBCC"/>
<path d="M48.1247 10.496C48.313 11.0339 48.4724 11.5717 48.6752 12.0951C49.2546 13.5633 50.0514 14.9298 50.8916 16.2527C51.558 17.2994 52.2389 18.3315 52.688 19.48C53.2819 21.0064 53.3833 22.5619 52.8618 24.1319C52.5141 25.164 51.7753 25.8473 50.9206 26.4578C50.3556 26.8649 49.7617 27.2283 49.2257 27.679C48.849 27.9988 48.5158 28.3622 48.2551 28.7838C48.1681 28.9292 48.1102 29.0018 47.9798 28.8129C47.5018 28.0279 46.7919 27.49 46.0531 26.9812C45.575 26.6614 45.097 26.327 44.6624 25.9636C43.7207 25.1931 43.2427 24.1755 43.0833 22.998C42.8081 20.9918 43.4745 19.2474 44.4885 17.5901C45.2853 16.2818 46.1545 15.0171 46.8499 13.6506C47.3279 12.7202 47.7191 11.7607 48.0088 10.7577C48.0378 10.6704 48.0233 10.5541 48.1392 10.4814" fill="#DA9722"/>
<path d="M48.8636 40.8204C48.8636 39.0468 48.8636 37.2588 48.8636 35.4852C48.8636 34.6275 48.9215 33.7844 49.1388 32.9557C49.6749 30.9351 50.9787 29.4959 52.7171 28.4347C54.1078 27.577 55.5564 26.8356 56.9037 25.8907C57.7874 25.2656 58.6421 24.5823 59.323 23.7101C59.6417 23.3176 59.8879 22.8815 60.1197 22.4163V22.707C60.1197 24.6114 60.1197 26.5158 60.1197 28.4201C60.1197 31.1677 58.9898 33.2901 56.6719 34.7438C55.0929 35.7323 53.4704 36.6773 51.8913 37.6658C50.8483 38.32 49.8777 39.0904 49.2403 40.1953C49.1244 40.4133 49.023 40.6314 48.9071 40.8494C48.8926 40.8494 48.8781 40.8494 48.8491 40.8494" fill="#FEFEFE"/>
<path d="M47.3567 40.8205C46.6324 39.1778 45.2706 38.2038 43.8365 37.317C42.4747 36.4884 41.0985 35.6888 39.7512 34.8602C38.0563 33.8281 36.8249 32.4179 36.3324 30.4409C36.1875 29.8303 36.1006 29.2052 36.1006 28.5801C36.1006 26.6321 36.1006 24.6842 36.1006 22.7362V22.46C36.3324 22.867 36.5642 23.2886 36.8539 23.652C37.5348 24.4952 38.346 25.2075 39.2297 25.8326C40.6204 26.8066 42.127 27.5916 43.5612 28.4784C45.0678 29.4087 46.2412 30.6444 46.8786 32.3307C47.1829 33.1303 47.3422 33.988 47.3567 34.8311C47.3857 36.7936 47.3567 38.7416 47.3567 40.7042C47.3567 40.7478 47.3567 40.7768 47.3567 40.8205Z" fill="#DA9722"/>
<path d="M60.1196 33.6536C60.1196 35.7905 60.1631 37.942 60.1196 40.079C60.0617 42.6085 58.8738 44.5565 56.7443 45.9084C55.2811 46.8388 53.7745 47.6965 52.2969 48.6124C51.2249 49.2665 50.2108 49.9934 49.472 51.0546C49.2547 51.3599 49.0953 51.7088 48.878 52.0431V51.8105C48.878 49.9788 48.8635 48.1472 48.878 46.3155C48.8925 43.3644 50.2398 41.1693 52.746 39.6574C54.1512 38.7997 55.6143 38.0583 56.9471 37.0989C57.7438 36.5319 58.5116 35.9214 59.149 35.18C59.5402 34.7148 59.8734 34.2205 60.1341 33.6681" fill="#3B5FAC"/>
<path d="M36.1152 33.6536C36.7961 35.1509 37.9985 36.1394 39.2588 37.0408C40.5916 38.0002 42.0403 38.7416 43.4455 39.5848C45.2418 40.6605 46.5746 42.1288 47.1106 44.2221C47.2989 44.949 47.3714 45.7049 47.3858 46.4463C47.4148 48.2489 47.3858 50.0516 47.3858 51.8542C47.3858 51.9123 47.3858 51.9559 47.3858 51.9995C47.3569 51.9995 47.3279 51.9995 47.3279 51.9995C46.7774 50.6767 45.7633 49.7899 44.6189 49.0049C43.2861 48.1036 41.8664 47.3331 40.4902 46.4899C39.6934 45.9957 38.8677 45.5014 38.2013 44.8327C37.1583 43.8006 36.4919 42.5504 36.2601 41.0966C36.1587 40.5152 36.1297 39.9337 36.1297 39.3376C36.1297 37.5496 36.1297 35.7615 36.1297 33.9589V33.6245" fill="#DA9722"/>
<path d="M48.9068 63.1933C48.9068 61.1 48.8199 58.9921 48.9068 56.8987C48.9792 55.3142 49.5152 53.8895 50.5438 52.6684C51.3406 51.7235 52.3256 51.0402 53.3832 50.4297C54.9188 49.5574 56.4543 48.6997 57.8306 47.5804C58.7577 46.8244 59.5979 45.9813 60.0905 44.7456C60.0905 44.9055 60.105 44.9927 60.105 45.0654C60.105 46.9843 60.105 48.8887 60.105 50.8076C60.105 53.5842 58.946 55.7067 56.5847 57.1604C55.1361 58.0472 53.6584 58.9194 52.2098 59.8062C51.1812 60.4458 50.1961 61.1581 49.4718 62.1612C49.24 62.481 49.0662 62.8299 48.8778 63.1788" fill="#FC2029"/>
<path d="M47.3714 63.1787C47.0961 62.7717 46.8933 62.3356 46.5891 61.9576C45.9082 61.0999 45.039 60.4603 44.1263 59.8933C42.5908 58.9484 41.0262 58.0762 39.5196 57.1022C37.6653 55.9101 36.5064 54.2529 36.2022 52.0432C36.1587 51.6943 36.1152 51.3309 36.1152 50.9675C36.1152 49.0049 36.1152 47.057 36.1152 45.0944V44.8328C36.5353 45.7777 37.2017 46.5336 37.955 47.2023C38.9401 48.0746 40.0411 48.7869 41.1711 49.4556C42.0837 50.008 43.0254 50.5023 43.9235 51.0983C45.8213 52.3776 46.9947 54.122 47.2989 56.4044C47.3424 56.6951 47.3714 57.0004 47.3714 57.2912C47.3714 59.1955 47.3714 61.0999 47.3714 63.0043C47.3714 63.0479 47.3714 63.106 47.3714 63.1496" fill="#DA9722"/>
<path d="M17.7314 87.2086V81.292H18.166L20.5853 86.5254L22.9756 81.292H23.4247V87.1941H22.9611V82.3823L20.7736 87.2086H20.3825L18.1805 82.3823V87.2086H17.7314Z" fill="black"/>
<path d="M28.9298 87.2086H28.4518V82.1352L25.0474 87.2086H24.5693V81.292H25.0474V86.3655L28.4518 81.292H28.9298V87.2086Z" fill="black"/>
<path d="M30.0742 87.2086V81.292H30.5523V84.025H33.9566V81.292H34.4347V87.2086H33.9566V84.4756H30.5523V87.2086H30.0742Z" fill="black"/>
<path d="M39.9396 87.2086H39.4615V82.1352L36.0572 87.2086H35.5791V81.292H36.0572V86.3655L39.4615 81.292H39.9396V87.2086Z" fill="black"/>
<path d="M43.4457 87.3249C42.8662 87.3249 42.3592 87.1941 41.968 86.9324C41.5624 86.6707 41.2727 86.3073 41.0698 85.8421C40.867 85.3769 40.7656 84.8536 40.7656 84.243C40.7656 83.6325 40.867 83.1091 41.0698 82.6439C41.2727 82.1787 41.5769 81.8153 41.968 81.5536C42.3592 81.292 42.8517 81.1611 43.4457 81.1611C44.1265 81.1611 44.6915 81.3356 45.1116 81.699C45.5317 82.0479 45.8359 82.5276 45.9808 83.1237L45.4883 83.2399C45.3579 82.7457 45.1261 82.3532 44.7929 82.0624C44.4452 81.7717 43.9961 81.6263 43.4457 81.6263C42.9676 81.6263 42.562 81.7426 42.2433 81.9607C41.9246 82.1787 41.6783 82.484 41.5189 82.8911C41.3596 83.2836 41.2727 83.7342 41.2727 84.243C41.2727 84.7518 41.3451 85.2025 41.5044 85.595C41.6638 85.9875 41.9101 86.2928 42.2288 86.5254C42.5475 86.7434 42.9531 86.8597 43.4457 86.8597C43.9961 86.8597 44.4452 86.7143 44.7929 86.4236C45.1406 86.1329 45.3724 85.7404 45.4883 85.2461L45.9808 85.3624C45.8359 85.9584 45.5317 86.4381 45.1116 86.787C44.6915 87.1359 44.1265 87.3249 43.4457 87.3249Z" fill="black"/>
<path d="M48.5013 87.2086V81.7572H46.3862V81.292H51.0799V81.7572H48.9649V87.2086H48.5013Z" fill="black"/>
<path d="M51.7319 87.2086V81.292H55.3826V81.7572H52.21V83.9959H54.89V84.4611H52.21V86.7434H55.3826V87.2086H51.7319Z" fill="black"/>
<path d="M56.353 87.2086V81.292H58.5695C58.5695 81.292 58.6854 81.292 58.7578 81.292C58.8302 81.292 58.9027 81.292 58.9751 81.3211C59.2648 81.3647 59.5256 81.4664 59.7284 81.6409C59.9457 81.8008 60.1051 82.0189 60.2065 82.266C60.3224 82.5131 60.3803 82.7893 60.3803 83.0946C60.3803 83.3999 60.3224 83.6761 60.2065 83.9232C60.0906 84.1704 59.9312 84.3884 59.7284 84.5483C59.5111 84.7082 59.2648 84.8245 58.9751 84.8681C58.9027 84.8681 58.8302 84.8827 58.7578 84.8972C58.6854 84.8972 58.6274 84.8972 58.5695 84.8972H56.8166V87.1941H56.353V87.2086ZM56.8166 84.4466H58.555C58.555 84.4466 58.6564 84.4466 58.7288 84.4466C58.7868 84.4466 58.8592 84.4466 58.9172 84.4175C59.1345 84.3739 59.3083 84.2867 59.4532 84.1558C59.598 84.025 59.6994 83.8651 59.7719 83.6906C59.8443 83.5017 59.8733 83.3127 59.8733 83.1091C59.8733 82.9056 59.8443 82.7166 59.7719 82.5277C59.6994 82.3387 59.598 82.1933 59.4532 82.0625C59.3083 81.9316 59.1345 81.8444 58.9172 81.8008C58.8592 81.8008 58.7868 81.7717 58.7288 81.7717C58.6709 81.7717 58.6129 81.7717 58.555 81.7717H56.8166V84.4611V84.4466Z" fill="black"/>
<path d="M63.5531 87.3249C62.9736 87.3249 62.4811 87.1941 62.0754 86.9324C61.6843 86.6707 61.3801 86.3073 61.1773 85.8421C60.9745 85.3769 60.873 84.8536 60.873 84.243C60.873 83.6325 60.9745 83.1091 61.1773 82.6439C61.3801 82.1787 61.6843 81.8153 62.0754 81.5536C62.4811 81.292 62.9736 81.1611 63.5531 81.1611C64.2339 81.1611 64.7989 81.3356 65.219 81.699C65.6392 82.0479 65.9289 82.5276 66.0882 83.1237L65.5957 83.2399C65.4653 82.7457 65.2335 82.3532 64.9003 82.0624C64.5527 81.7717 64.1036 81.6263 63.5531 81.6263C63.075 81.6263 62.6694 81.7426 62.3507 81.9607C62.032 82.1787 61.7857 82.484 61.6264 82.8911C61.467 83.2836 61.3801 83.7342 61.3801 84.243C61.3801 84.7518 61.4525 85.2025 61.6119 85.595C61.7712 85.9875 62.0175 86.2928 62.3362 86.5254C62.6549 86.7434 63.0605 86.8597 63.5531 86.8597C64.1036 86.8597 64.5527 86.7143 64.9003 86.4236C65.248 86.1329 65.4798 85.7404 65.5957 85.2461L66.0882 85.3624C65.9289 85.9584 65.6392 86.4381 65.219 86.787C64.7989 87.1359 64.2339 87.3249 63.5531 87.3249Z" fill="black"/>
<path d="M68.6233 87.2086V81.7572H66.5083V81.292H71.202V81.7572H69.0869V87.2086H68.6233Z" fill="black"/>
<path d="M71.8535 87.2086V81.292H74.1134C74.4177 81.292 74.6929 81.3501 74.9392 81.481C75.1854 81.6118 75.3738 81.7863 75.5186 82.0189C75.6635 82.2369 75.7359 82.4986 75.7359 82.7748C75.7359 83.0946 75.649 83.3854 75.4752 83.6325C75.3013 83.8796 75.0695 84.0686 74.7798 84.1704V83.9668C75.1565 84.0831 75.4607 84.2721 75.678 84.5483C75.9098 84.8245 76.0257 85.1589 76.0257 85.5659C76.0257 85.9003 75.9532 86.191 75.8084 86.4382C75.6635 86.6853 75.4607 86.8743 75.1854 86.9906C74.9247 87.1214 74.6205 87.1796 74.2873 87.1796H71.8535V87.2086ZM72.3316 83.8651H74.1134C74.3162 83.8651 74.5046 83.8215 74.6784 83.7197C74.8523 83.6179 74.9826 83.4871 75.084 83.3272C75.1854 83.1673 75.2289 82.9783 75.2289 82.7603C75.2289 82.455 75.1275 82.2078 74.9102 82.0189C74.6929 81.8299 74.4321 81.7426 74.1134 81.7426H72.3316V83.8651ZM72.3316 86.7434H74.1279C74.3887 86.7434 74.6205 86.6998 74.8378 86.6126C75.0406 86.5254 75.2144 86.3946 75.3303 86.2201C75.4462 86.0457 75.5186 85.8421 75.5186 85.6095C75.5186 85.3769 75.4607 85.1589 75.3448 84.9554C75.2289 84.7664 75.084 84.6065 74.8957 84.4902C74.7074 84.3739 74.4901 84.3157 74.2583 84.3157H72.3316V86.7289V86.7434Z" fill="black"/>
<path d="M79.1693 87.3249C78.5898 87.3249 78.0973 87.1941 77.6917 86.9324C77.3005 86.6707 76.9963 86.3073 76.7935 85.8421C76.5907 85.3769 76.4893 84.8536 76.4893 84.243C76.4893 83.6325 76.5907 83.1091 76.7935 82.6439C76.9963 82.1787 77.3005 81.8153 77.6917 81.5536C78.0973 81.292 78.5898 81.1611 79.1693 81.1611C79.7488 81.1611 80.2413 81.292 80.6469 81.5536C81.0381 81.8153 81.3423 82.1787 81.5451 82.6439C81.7479 83.1091 81.8493 83.647 81.8493 84.243C81.8493 84.839 81.7479 85.3769 81.5451 85.8421C81.3423 86.3073 81.0381 86.6707 80.6469 86.9324C80.2558 87.1941 79.7632 87.3249 79.1693 87.3249ZM79.1693 86.8597C79.6473 86.8597 80.053 86.758 80.3717 86.5254C80.6904 86.3073 80.9367 85.9875 81.096 85.595C81.2554 85.2025 81.3423 84.7518 81.3423 84.243C81.3423 83.7342 81.2554 83.2836 81.096 82.8911C80.9367 82.4986 80.6904 82.1933 80.3717 81.9607C80.053 81.7426 79.6473 81.6263 79.1693 81.6263C78.6912 81.6263 78.2856 81.7281 77.9669 81.9607C77.6482 82.1787 77.4019 82.484 77.2426 82.8911C77.0832 83.2836 76.9963 83.7342 76.9963 84.2576C76.9963 84.7664 77.0687 85.217 77.2281 85.6095C77.3874 86.002 77.6337 86.3073 77.9524 86.5399C78.2711 86.758 78.6767 86.8743 79.1693 86.8743" fill="black"/>
<path d="M6.15659 97.7336C5.57713 97.7336 5.07009 97.6028 4.67895 97.3411C4.27333 97.0794 3.98359 96.716 3.78078 96.2508C3.57797 95.7856 3.47656 95.2623 3.47656 94.6517C3.47656 94.0411 3.57797 93.5178 3.78078 93.0526C3.98359 92.5874 4.28781 92.224 4.67895 91.9623C5.07009 91.7007 5.56264 91.5698 6.15659 91.5698C6.83746 91.5698 7.40244 91.7443 7.82255 92.1077C8.24267 92.4566 8.54689 92.9363 8.69175 93.5323L8.19921 93.6486C8.06883 93.1544 7.83704 92.7619 7.50385 92.4711C7.15617 92.1804 6.70708 92.035 6.15659 92.035C5.67853 92.035 5.27291 92.1513 4.9542 92.3694C4.63549 92.5874 4.38922 92.8927 4.22987 93.2998C4.07051 93.6923 3.98359 94.1429 3.98359 94.6517C3.98359 95.1605 4.05603 95.6112 4.21538 96.0037C4.37473 96.3962 4.62101 96.7015 4.93971 96.9341C5.25842 97.1521 5.66404 97.2684 6.15659 97.2684C6.70708 97.2684 7.15617 97.123 7.50385 96.8323C7.85153 96.5415 8.08331 96.149 8.19921 95.6548L8.69175 95.7711C8.54689 96.3671 8.24267 96.8468 7.82255 97.1957C7.40244 97.5446 6.83746 97.7336 6.15659 97.7336Z" fill="black"/>
<path d="M9.59033 97.6173V91.7007H13.2265V92.1513H10.0539V94.4046H12.7339V94.8698H10.0539V97.1521H13.2265V97.6173H9.59033Z" fill="black"/>
<path d="M13.8057 97.6173V97.1812C13.965 97.1957 14.0954 97.1957 14.1968 97.1812C14.2982 97.1521 14.3706 97.094 14.4431 96.9922C14.501 96.8904 14.559 96.7451 14.6024 96.5561C14.6459 96.3671 14.6893 96.1054 14.7328 95.7856C14.7763 95.4658 14.8197 95.1605 14.8632 94.8552C14.8922 94.55 14.9356 94.2447 14.9646 93.9103C14.9936 93.5905 15.0225 93.2416 15.037 92.8927C15.066 92.5293 15.0805 92.1368 15.095 91.7297H18.7311V97.6464H18.2531V92.1949H15.5585C15.5441 92.5147 15.5151 92.82 15.5006 93.1398C15.4861 93.4451 15.4571 93.7504 15.4427 94.0702C15.4282 94.39 15.3847 94.6953 15.3557 95.0297C15.3268 95.364 15.2833 95.6984 15.2254 96.0618C15.1819 96.3235 15.1384 96.5561 15.0805 96.7887C15.0225 97.0067 14.9501 97.1957 14.8487 97.3556C14.7473 97.5155 14.6169 97.6173 14.4576 97.6755C14.2982 97.7336 14.0809 97.7336 13.8057 97.6609" fill="black"/>
<path d="M19.8755 97.6173V91.7007H20.3391V94.0121H22.0919C22.0919 94.0121 22.2078 94.0121 22.2803 94.0121C22.3382 94.0121 22.4107 94.0121 22.4831 94.0412C22.7728 94.0848 23.0336 94.2011 23.2364 94.361C23.4537 94.5209 23.613 94.739 23.7289 94.9861C23.8448 95.2332 23.9028 95.5094 23.9028 95.8147C23.9028 96.12 23.8448 96.3962 23.7289 96.6433C23.613 96.8905 23.4537 97.1085 23.2509 97.2684C23.0336 97.4283 22.7873 97.5446 22.4831 97.5882C22.4107 97.5882 22.3382 97.6028 22.2803 97.6173C22.2223 97.6173 22.1499 97.6173 22.0919 97.6173H19.8755ZM20.3391 97.1521H22.0775C22.0775 97.1521 22.1789 97.1521 22.2513 97.1521C22.3092 97.1521 22.3817 97.1521 22.4396 97.1231C22.6569 97.0794 22.8308 96.9922 22.9756 96.8614C23.1205 96.7306 23.2219 96.5706 23.2943 96.3962C23.3668 96.2217 23.3957 96.0182 23.3957 95.8147C23.3957 95.6112 23.3668 95.4222 23.2943 95.2332C23.2219 95.0442 23.1205 94.8989 22.9756 94.768C22.8308 94.6372 22.6569 94.55 22.4396 94.5064C22.3817 94.5064 22.3092 94.4918 22.2513 94.4773C22.1933 94.4773 22.1354 94.4773 22.0775 94.4773H20.3391V97.1667V97.1521Z" fill="black"/>
<path d="M27.1478 97.7336C26.5683 97.7336 26.0613 97.6028 25.6702 97.3411C25.2645 97.0794 24.9748 96.716 24.772 96.2508C24.5692 95.7856 24.4678 95.2623 24.4678 94.6517C24.4678 94.0411 24.5692 93.5178 24.772 93.0526C24.9748 92.5874 25.279 92.224 25.6702 91.9623C26.0613 91.7007 26.5538 91.5698 27.1478 91.5698C27.8287 91.5698 28.3937 91.7443 28.8138 92.1077C29.2339 92.4566 29.5381 92.9363 29.683 93.5323L29.1904 93.6486C29.06 93.1544 28.8283 92.7619 28.4951 92.4711C28.1474 92.1804 27.6983 92.035 27.1478 92.035C26.6697 92.035 26.2641 92.1513 25.9454 92.3694C25.6267 92.5874 25.3804 92.8927 25.2211 93.2998C25.0617 93.6923 24.9748 94.1429 24.9748 94.6517C24.9748 95.1605 25.0472 95.6112 25.2066 96.0037C25.3659 96.3962 25.6122 96.7015 25.9309 96.9341C26.2496 97.1521 26.6553 97.2684 27.1478 97.2684C27.6983 97.2684 28.1474 97.123 28.4951 96.8323C28.8427 96.5415 29.0745 96.149 29.1904 95.6548L29.683 95.7711C29.5381 96.3671 29.2339 96.8468 28.8138 97.1957C28.3937 97.5446 27.8287 97.7336 27.1478 97.7336Z" fill="black"/>
<path d="M30.5957 97.6173V91.7007H31.0593V94.5064L33.8697 91.7007H34.4926L31.6677 94.5354L34.7389 97.6173H34.1015L31.0593 94.5936V97.6173H30.5957Z" fill="black"/>
<path d="M37.4046 97.7336C36.8252 97.7336 36.3181 97.6028 35.927 97.3411C35.5214 97.0794 35.2316 96.716 35.0288 96.2508C34.826 95.7856 34.7246 95.2623 34.7246 94.6517C34.7246 94.0411 34.826 93.5178 35.0288 93.0526C35.2316 92.5874 35.5359 92.224 35.927 91.9623C36.3181 91.7007 36.8107 91.5698 37.4046 91.5698C37.9986 91.5698 38.4766 91.7007 38.8823 91.9623C39.2734 92.224 39.5776 92.5874 39.7804 93.0526C39.9833 93.5178 40.0847 94.0557 40.0847 94.6517C40.0847 95.2477 39.9833 95.7856 39.7804 96.2508C39.5776 96.716 39.2734 97.0794 38.8823 97.3411C38.4911 97.6028 37.9986 97.7336 37.4046 97.7336ZM37.4046 97.2684C37.8827 97.2684 38.2883 97.1666 38.607 96.9341C38.9257 96.716 39.172 96.3962 39.3314 96.0037C39.4907 95.6112 39.5776 95.1605 39.5776 94.6517C39.5776 94.1429 39.4907 93.6923 39.3314 93.2998C39.172 92.9072 38.9257 92.602 38.607 92.3694C38.2883 92.1513 37.8827 92.035 37.4046 92.035C36.9266 92.035 36.521 92.1368 36.2022 92.3694C35.8835 92.5874 35.6373 92.8927 35.4779 93.2998C35.3186 93.6923 35.2316 94.1429 35.2316 94.6663C35.2316 95.1751 35.3041 95.6257 35.4634 96.0182C35.6228 96.4107 35.8691 96.716 36.1878 96.9486C36.5065 97.1667 36.9121 97.2829 37.4046 97.2829" fill="black"/>
<path d="M40.896 97.6173V91.7007H44.5321V92.1513H41.3596V97.6173H40.896Z" fill="black"/>
<path d="M47.5453 97.7336C46.9658 97.7336 46.4588 97.6028 46.0676 97.3411C45.662 97.0794 45.3723 96.716 45.1695 96.2508C44.9666 95.7856 44.8652 95.2623 44.8652 94.6517C44.8652 94.0411 44.9666 93.5178 45.1695 93.0526C45.3723 92.5874 45.6765 92.224 46.0676 91.9623C46.4588 91.7007 46.9513 91.5698 47.5453 91.5698C48.1392 91.5698 48.6173 91.7007 49.0229 91.9623C49.414 92.224 49.7183 92.5874 49.9211 93.0526C50.1239 93.5178 50.2253 94.0557 50.2253 94.6517C50.2253 95.2477 50.1239 95.7856 49.9211 96.2508C49.7183 96.716 49.414 97.0794 49.0229 97.3411C48.6318 97.6028 48.1392 97.7336 47.5453 97.7336ZM47.5453 97.2684C48.0233 97.2684 48.429 97.1666 48.7477 96.9341C49.0664 96.716 49.3126 96.3962 49.472 96.0037C49.6313 95.6112 49.7183 95.1605 49.7183 94.6517C49.7183 94.1429 49.6313 93.6923 49.472 93.2998C49.3126 92.9072 49.0664 92.602 48.7477 92.3694C48.429 92.1513 48.0233 92.035 47.5453 92.035C47.0672 92.035 46.6616 92.1368 46.3429 92.3694C46.0242 92.5874 45.7779 92.8927 45.6185 93.2998C45.4592 93.6923 45.3723 94.1429 45.3723 94.6663C45.3723 95.1751 45.4447 95.6257 45.6041 96.0182C45.7634 96.4107 46.0097 96.716 46.3284 96.9486C46.6471 97.1667 47.0527 97.2829 47.5453 97.2829" fill="black"/>
<path d="M52.1807 97.6173L54.2378 94.6081L52.2386 91.7007H52.8036L54.513 94.2302L56.2224 91.7007H56.8019L54.7883 94.6081L56.8454 97.6173H56.2804L54.513 95.0152L52.7601 97.6173H52.1807Z" fill="black"/>
<path d="M59.6126 97.7336C59.0332 97.7336 58.5406 97.6028 58.135 97.3411C57.7439 97.0794 57.4396 96.716 57.2368 96.2508C57.034 95.7856 56.9326 95.2623 56.9326 94.6517C56.9326 94.0411 57.034 93.5178 57.2368 93.0526C57.4396 92.5874 57.7439 92.224 58.135 91.9623C58.5406 91.7007 59.0332 91.5698 59.6126 91.5698C60.1921 91.5698 60.6847 91.7007 61.0903 91.9623C61.4814 92.224 61.7856 92.5874 61.9885 93.0526C62.1913 93.5178 62.2927 94.0557 62.2927 94.6517C62.2927 95.2477 62.1913 95.7856 61.9885 96.2508C61.7856 96.716 61.4814 97.0794 61.0903 97.3411C60.6991 97.6028 60.2066 97.7336 59.6126 97.7336ZM59.6126 97.2684C60.0907 97.2684 60.4963 97.1666 60.815 96.9341C61.1337 96.716 61.38 96.3962 61.5394 96.0037C61.6987 95.6112 61.7856 95.1605 61.7856 94.6517C61.7856 94.1429 61.6987 93.6923 61.5394 93.2998C61.38 92.9072 61.1337 92.602 60.815 92.3694C60.4963 92.1513 60.0907 92.035 59.6126 92.035C59.1346 92.035 58.729 92.1368 58.4103 92.3694C58.0915 92.5874 57.8453 92.8927 57.6859 93.2998C57.5266 93.6923 57.4397 94.1429 57.4397 94.6663C57.4397 95.1751 57.5121 95.6257 57.6714 96.0182C57.8308 96.4107 58.0771 96.716 58.3958 96.9486C58.7145 97.1667 59.1201 97.2829 59.6126 97.2829" fill="black"/>
<path d="M64.9145 97.7336C64.5234 97.7336 64.1757 97.6754 63.886 97.5591C63.5962 97.4428 63.3645 97.2829 63.1761 97.0939C62.9878 96.905 62.8574 96.6869 62.7705 96.4543L63.2196 96.2217C63.2775 96.4252 63.3934 96.5997 63.5383 96.7596C63.6832 96.9195 63.8715 97.0358 64.1033 97.1376C64.3351 97.2248 64.6103 97.2684 64.9145 97.2684C65.2477 97.2684 65.523 97.2102 65.7548 97.1085C65.9865 97.0067 66.1604 96.8468 66.2908 96.6578C66.4211 96.4688 66.4791 96.2363 66.4791 95.96C66.4791 95.6693 66.4067 95.4512 66.2763 95.2913C66.1459 95.1314 65.9721 95.0151 65.7403 94.957C65.5085 94.8843 65.2622 94.8552 64.9725 94.8407C64.7697 94.8407 64.6248 94.8261 64.5524 94.8261C64.4654 94.8261 64.4075 94.8261 64.3785 94.8261H64.2916V94.361H64.451C64.5379 94.361 64.6248 94.361 64.7262 94.361C64.8276 94.361 64.9 94.361 64.958 94.361C65.3781 94.3464 65.6968 94.2301 65.9286 94.0266C66.1604 93.8231 66.2763 93.5469 66.2763 93.2125C66.2763 92.8491 66.1459 92.5729 65.8996 92.3694C65.6533 92.1658 65.3202 92.0641 64.929 92.0641C64.5524 92.0641 64.2481 92.1513 63.9874 92.3403C63.7411 92.5293 63.5383 92.7764 63.3645 93.0962L62.9299 92.8345C63.1182 92.4711 63.3645 92.1804 63.7121 91.9478C64.0453 91.7152 64.451 91.5989 64.929 91.5989C65.1753 91.5989 65.4071 91.628 65.6244 91.7006C65.8417 91.7733 66.0445 91.8751 66.2183 92.0059C66.3922 92.1368 66.5225 92.3112 66.624 92.5147C66.7254 92.7182 66.7688 92.9508 66.7688 93.2125C66.7688 93.5469 66.6964 93.8376 66.537 94.0847C66.3777 94.3319 66.1894 94.5063 65.9576 94.6226C66.2618 94.7098 66.5081 94.8697 66.6964 95.1023C66.8702 95.3349 66.9716 95.6402 66.9716 96.0182C66.9716 96.3671 66.8847 96.6869 66.7254 96.9486C66.5515 97.2102 66.3197 97.4138 66.001 97.5591C65.6823 97.7045 65.3202 97.7772 64.8856 97.7772" fill="black"/>
<path d="M68.1452 97.6174H67.5947L68.8696 94.9862L69.3042 95.2043L68.1452 97.6029V97.6174ZM71.7814 97.6174H71.3033V95.3206H69.2027L69.0724 95.2624C68.6523 95.1752 68.3335 94.9717 68.1018 94.6518C67.87 94.332 67.7541 93.9541 67.7541 93.5179C67.7541 93.2127 67.812 92.9365 67.9279 92.6893C68.0438 92.4422 68.2032 92.2241 68.4205 92.0642C68.6378 91.9043 68.884 91.788 69.1738 91.7444C69.2462 91.7444 69.3186 91.7153 69.3766 91.7153C69.449 91.7153 69.507 91.7153 69.5649 91.7153H71.7814V97.632V97.6174ZM71.3033 94.8554V92.166H69.5649C69.5649 92.166 69.4635 92.166 69.4056 92.166C69.3331 92.166 69.2752 92.1805 69.2027 92.1951C68.9854 92.2387 68.8116 92.3259 68.6667 92.4567C68.5219 92.5876 68.4205 92.7475 68.348 92.9219C68.2756 93.0964 68.2466 93.2999 68.2466 93.5034C68.2466 93.7069 68.2756 93.8959 68.348 94.0849C68.4205 94.2739 68.5219 94.4193 68.6667 94.5501C68.8116 94.6809 68.9854 94.7681 69.2027 94.8118C69.2607 94.8118 69.3331 94.8263 69.4056 94.8408C69.4635 94.8408 69.5215 94.8408 69.5649 94.8408H71.3033V94.8554Z" fill="black"/>
<path d="M72.9111 97.6175V91.7008H73.3892V96.7743L76.808 91.7008H77.2861V97.6175H76.808V92.544L73.3892 97.6175H72.9111ZM75.1566 91.1775C74.9682 91.1775 74.8089 91.1339 74.664 91.0467C74.5191 90.9594 74.3888 90.8286 74.3018 90.6832C74.2149 90.5379 74.1715 90.3634 74.1715 90.189H74.5771C74.5771 90.3489 74.635 90.4797 74.7509 90.596C74.8668 90.7123 75.0117 90.7704 75.1566 90.7704C75.3014 90.7704 75.4608 90.7123 75.5767 90.596C75.6926 90.4797 75.7505 90.3489 75.7505 90.189H76.1561C76.1561 90.3779 76.1127 90.5379 76.0258 90.6832C75.9388 90.8286 75.8229 90.9594 75.6636 91.0467C75.5187 91.1339 75.3449 91.1775 75.1566 91.1775Z" fill="black"/>
<path d="M80.7777 97.7336C80.1982 97.7336 79.7057 97.6028 79.3 97.3411C78.9089 97.0794 78.6047 96.716 78.4019 96.2508C78.1991 95.7856 78.0977 95.2623 78.0977 94.6517C78.0977 94.0411 78.1991 93.5178 78.4019 93.0526C78.6047 92.5874 78.9089 92.224 79.3 91.9623C79.7057 91.7007 80.1982 91.5698 80.7777 91.5698C81.4586 91.5698 82.0235 91.7443 82.4436 92.1077C82.8638 92.4566 83.1535 92.9363 83.3128 93.5323L82.8203 93.6486C82.6899 93.1544 82.4581 92.7619 82.1249 92.4711C81.7773 92.1804 81.3282 92.035 80.7777 92.035C80.2996 92.035 79.894 92.1513 79.5753 92.3694C79.2566 92.5874 79.0103 92.8927 78.851 93.2998C78.6916 93.6923 78.6047 94.1429 78.6047 94.6517C78.6047 95.1605 78.6771 95.6112 78.8365 96.0037C78.9958 96.3962 79.2421 96.7015 79.5608 96.9341C79.8795 97.1521 80.2851 97.2684 80.7777 97.2684C81.3282 97.2684 81.7773 97.123 82.1249 96.8323C82.4726 96.5415 82.7044 96.149 82.8203 95.6548L83.3128 95.7711C83.1535 96.3671 82.8638 96.8468 82.4436 97.1957C82.0235 97.5446 81.4586 97.7336 80.7777 97.7336Z" fill="black"/>
<path d="M85.8333 97.6173V92.1513H83.7183V91.7007H88.4119V92.1513H86.3114V97.6173H85.8333Z" fill="black"/>
<path d="M89.064 97.6173V91.7007H91.3239C91.6281 91.7007 91.9033 91.7588 92.1496 91.8897C92.3959 92.0205 92.5842 92.1949 92.7291 92.4275C92.874 92.6456 92.9464 92.9073 92.9464 93.1835C92.9464 93.5033 92.8595 93.794 92.6856 94.0412C92.5118 94.2883 92.28 94.4773 91.9903 94.579V94.3755C92.3669 94.4918 92.6711 94.6953 92.8884 94.9716C93.1202 95.2478 93.2361 95.5821 93.2361 95.9892C93.2361 96.3235 93.1637 96.6143 93.0188 96.8614C92.874 97.1085 92.6711 97.2975 92.3959 97.4138C92.1351 97.5446 91.8309 97.6028 91.4977 97.6028H89.064V97.6173ZM89.542 94.2738H91.3239C91.5267 94.2738 91.715 94.2302 91.8889 94.1284C92.0627 94.0266 92.1931 93.8958 92.2945 93.7359C92.3959 93.576 92.4394 93.387 92.4394 93.1689C92.4394 92.8637 92.3379 92.6165 92.1206 92.4275C91.9033 92.2386 91.6426 92.1513 91.3239 92.1513H89.542V94.2738ZM89.542 97.1521H91.3384C91.5991 97.1521 91.8309 97.1085 92.0482 97.0213C92.251 96.9341 92.4249 96.8032 92.5408 96.6288C92.6567 96.4544 92.7291 96.2508 92.7291 96.0182C92.7291 95.7856 92.6711 95.5676 92.5552 95.3641C92.4394 95.1751 92.2945 95.0152 92.1062 94.8989C91.9178 94.7826 91.7005 94.7244 91.4687 94.7244H89.542V97.1376V97.1521Z" fill="black"/>
<path d="M93.6273 97.6173L95.7134 91.7007H96.2928L98.3789 97.6173H97.8719L95.8727 91.9478H96.1045L94.1053 97.6173H93.6128H93.6273ZM94.4965 95.6839H97.5242V96.1345H94.4965V95.6839Z" fill="black"/>
<path d="M0 108.011V102.095H2.21646C2.21646 102.095 2.33235 102.095 2.40478 102.095C2.47722 102.095 2.54965 102.095 2.62208 102.124C2.91181 102.167 3.17257 102.269 3.37539 102.444C3.59269 102.604 3.75204 102.822 3.85345 103.069C3.96934 103.316 4.02729 103.592 4.02729 103.897C4.02729 104.203 3.96934 104.479 3.85345 104.726C3.73755 104.973 3.5782 105.191 3.37539 105.351C3.15809 105.511 2.91181 105.627 2.62208 105.671C2.54965 105.671 2.47722 105.685 2.40478 105.7C2.33235 105.7 2.2744 105.7 2.21646 105.7H0.463572V107.997H0V108.011ZM0.463572 105.249H2.21646C2.21646 105.249 2.31786 105.249 2.3903 105.249C2.44824 105.249 2.52068 105.249 2.57862 105.22C2.79592 105.177 2.96976 105.089 3.11463 104.959C3.25949 104.828 3.3609 104.668 3.43333 104.493C3.50577 104.304 3.53474 104.115 3.53474 103.912C3.53474 103.708 3.50577 103.519 3.43333 103.33C3.3609 103.141 3.25949 102.996 3.11463 102.865C2.96976 102.734 2.79592 102.647 2.57862 102.604C2.50619 102.604 2.44824 102.574 2.3903 102.574C2.33235 102.574 2.2744 102.574 2.21646 102.574H0.463572V105.264V105.249Z" fill="black"/>
<path d="M7.20005 108.142C6.62058 108.142 6.11355 108.011 5.72241 107.75C5.31678 107.488 5.02705 107.125 4.82424 106.659C4.62143 106.194 4.52002 105.671 4.52002 105.06C4.52002 104.45 4.62143 103.926 4.82424 103.461C5.02705 102.996 5.33127 102.633 5.72241 102.371C6.11355 102.109 6.6061 101.979 7.20005 101.979C7.794 101.979 8.27206 102.109 8.67768 102.371C9.06882 102.633 9.37304 102.996 9.57586 103.461C9.77867 103.926 9.88008 104.464 9.88008 105.06C9.88008 105.656 9.77867 106.194 9.57586 106.659C9.37304 107.125 9.06882 107.488 8.67768 107.75C8.28655 108.011 7.794 108.142 7.20005 108.142ZM7.20005 107.677C7.67811 107.677 8.08373 107.575 8.40244 107.343C8.72115 107.125 8.96742 106.805 9.12677 106.412C9.28612 106.02 9.37304 105.569 9.37304 105.06C9.37304 104.552 9.28612 104.101 9.12677 103.708C8.96742 103.316 8.72115 103.011 8.40244 102.778C8.08373 102.56 7.67811 102.444 7.20005 102.444C6.72199 102.444 6.31636 102.545 5.99766 102.778C5.67895 102.996 5.43268 103.301 5.27333 103.708C5.11397 104.101 5.02705 104.552 5.02705 105.075C5.02705 105.584 5.09949 106.034 5.25884 106.427C5.41819 106.819 5.66446 107.125 5.98317 107.357C6.30188 107.575 6.7075 107.692 7.20005 107.692" fill="black"/>
<path d="M13.0526 108.142C12.4731 108.142 11.9661 108.011 11.5749 107.75C11.1693 107.488 10.8796 107.125 10.6768 106.659C10.474 106.194 10.3726 105.671 10.3726 105.06C10.3726 104.45 10.474 103.926 10.6768 103.461C10.8796 102.996 11.1838 102.633 11.5749 102.371C11.9661 102.109 12.4586 101.979 13.0526 101.979C13.7335 101.979 14.2984 102.153 14.7186 102.516C15.1387 102.865 15.4429 103.345 15.5877 103.941L15.0952 104.057C14.9648 103.563 14.733 103.171 14.3998 102.88C14.0522 102.589 13.6031 102.444 13.0526 102.444C12.5745 102.444 12.1689 102.56 11.8502 102.778C11.5315 102.996 11.2852 103.301 11.1259 103.708C10.9665 104.101 10.8796 104.552 10.8796 105.06C10.8796 105.569 10.952 106.02 11.1114 106.412C11.2707 106.805 11.517 107.11 11.8357 107.343C12.1544 107.561 12.56 107.677 13.0526 107.677C13.6031 107.677 14.0522 107.532 14.3998 107.241C14.7475 106.95 14.9793 106.558 15.0952 106.063L15.5877 106.18C15.4429 106.776 15.1387 107.256 14.7186 107.604C14.2984 107.953 13.7335 108.142 13.0526 108.142Z" fill="black"/>
<path d="M18.8329 108.142C18.2534 108.142 17.7464 108.011 17.3552 107.75C16.9496 107.488 16.6599 107.125 16.4571 106.659C16.2542 106.194 16.1528 105.671 16.1528 105.06C16.1528 104.45 16.2542 103.926 16.4571 103.461C16.6599 102.996 16.9641 102.633 17.3552 102.371C17.7464 102.109 18.2389 101.979 18.8329 101.979C19.5137 101.979 20.0787 102.153 20.4988 102.516C20.9189 102.865 21.2232 103.345 21.368 103.941L20.8755 104.057C20.7451 103.563 20.5133 103.171 20.1801 102.88C19.8324 102.589 19.3834 102.444 18.8329 102.444C18.3548 102.444 17.9492 102.56 17.6305 102.778C17.3118 102.996 17.0655 103.301 16.9061 103.708C16.7468 104.101 16.6599 104.552 16.6599 105.06C16.6599 105.569 16.7323 106.02 16.8917 106.412C17.051 106.805 17.2973 107.11 17.616 107.343C17.9347 107.561 18.3403 107.677 18.8329 107.677C19.3834 107.677 19.8324 107.532 20.1801 107.241C20.5278 106.95 20.7596 106.558 20.8755 106.063L21.368 106.18C21.2232 106.776 20.9189 107.256 20.4988 107.604C20.0787 107.953 19.5137 108.142 18.8329 108.142Z" fill="black"/>
<path d="M26.6408 108.011H26.1627V102.938L22.7438 108.011H22.2803V102.095H22.7438V107.168L26.1627 102.095H26.6408V108.011Z" fill="black"/>
<path d="M27.7852 108.012V102.095H28.2632V107.168L31.6821 102.095H32.1601V108.012H31.6821V102.938L28.2632 108.012H27.7852ZM30.0306 101.572C29.8423 101.572 29.6829 101.528 29.538 101.441C29.3932 101.353 29.2628 101.223 29.1759 101.077C29.089 100.932 29.0455 100.757 29.0455 100.583H29.4511C29.4511 100.743 29.5091 100.874 29.625 100.99C29.7409 101.106 29.8712 101.164 30.0306 101.164C30.1899 101.164 30.3348 101.106 30.4507 100.99C30.5666 100.874 30.6245 100.743 30.6245 100.583H31.0302C31.0302 100.772 30.9867 100.932 30.8998 101.077C30.8129 101.223 30.697 101.353 30.5376 101.441C30.3783 101.528 30.2189 101.572 30.0306 101.572Z" fill="black"/>
<path d="M35.6371 108.142C35.0576 108.142 34.5506 108.011 34.1594 107.75C33.7538 107.488 33.4641 107.125 33.2612 106.659C33.0584 106.194 32.957 105.671 32.957 105.06C32.957 104.45 33.0584 103.926 33.2612 103.461C33.4641 102.996 33.7683 102.633 34.1594 102.371C34.5506 102.109 35.0431 101.979 35.6371 101.979C36.3179 101.979 36.8829 102.153 37.303 102.516C37.7231 102.865 38.0274 103.345 38.1722 103.941L37.6797 104.057C37.5493 103.563 37.3175 103.171 36.9843 102.88C36.6366 102.589 36.1876 102.444 35.6371 102.444C35.159 102.444 34.7534 102.56 34.4347 102.778C34.116 102.996 33.8697 103.301 33.7103 103.708C33.551 104.101 33.4641 104.552 33.4641 105.06C33.4641 105.569 33.5365 106.02 33.6959 106.412C33.8552 106.805 34.1015 107.11 34.4202 107.343C34.7389 107.561 35.1445 107.677 35.6371 107.677C36.1876 107.677 36.6366 107.532 36.9843 107.241C37.332 106.95 37.5638 106.558 37.6797 106.063L38.1722 106.18C38.0274 106.776 37.7231 107.256 37.303 107.604C36.8829 107.953 36.3179 108.142 35.6371 108.142Z" fill="black"/>
<path d="M39.085 108.011V102.095H39.5485V104.915L42.3589 102.095H42.9819L40.157 104.944L43.2281 108.011H42.5907L39.5485 104.988V108.011H39.085Z" fill="black"/>
<path d="M45.8939 108.142C45.3144 108.142 44.8074 108.011 44.4163 107.75C44.0106 107.488 43.7209 107.125 43.5181 106.659C43.3153 106.194 43.2139 105.671 43.2139 105.06C43.2139 104.45 43.3153 103.926 43.5181 103.461C43.7209 102.996 44.0251 102.633 44.4163 102.371C44.8074 102.109 45.2999 101.979 45.8939 101.979C46.4878 101.979 46.9659 102.109 47.3715 102.371C47.7627 102.633 48.0669 102.996 48.2697 103.461C48.4725 103.926 48.5739 104.464 48.5739 105.06C48.5739 105.656 48.4725 106.194 48.2697 106.659C48.0669 107.125 47.7627 107.488 47.3715 107.75C46.9804 108.011 46.4878 108.142 45.8939 108.142ZM45.8939 107.677C46.372 107.677 46.7776 107.575 47.0963 107.343C47.415 107.125 47.6613 106.805 47.8206 106.412C47.98 106.02 48.0669 105.569 48.0669 105.06C48.0669 104.552 47.98 104.101 47.8206 103.708C47.6613 103.316 47.415 103.011 47.0963 102.778C46.7776 102.56 46.372 102.444 45.8939 102.444C45.4158 102.444 45.0102 102.545 44.6915 102.778C44.3728 102.996 44.1265 103.301 43.9672 103.708C43.8078 104.101 43.7209 104.552 43.7209 105.075C43.7209 105.584 43.7933 106.034 43.9527 106.427C44.112 106.819 44.3583 107.125 44.677 107.357C44.9957 107.575 45.4014 107.692 45.8939 107.692" fill="black"/>
<path d="M49.3848 108.012V102.095H49.8628V107.168L53.2817 102.095H53.7597V108.012H53.2817V102.938L49.8628 108.012H49.3848ZM51.6302 101.572C51.4419 101.572 51.2825 101.528 51.1376 101.441C50.9928 101.353 50.8624 101.223 50.7755 101.077C50.6886 100.932 50.6451 100.757 50.6451 100.583H51.0507C51.0507 100.743 51.1087 100.874 51.2246 100.99C51.3405 101.106 51.4853 101.164 51.6302 101.164C51.7751 101.164 51.9344 101.106 52.0503 100.99C52.1662 100.874 52.2241 100.743 52.2241 100.583H52.6298C52.6298 100.772 52.5863 100.932 52.4994 101.077C52.4125 101.223 52.2966 101.353 52.1372 101.441C51.9924 101.528 51.8185 101.572 51.6302 101.572Z" fill="black"/>
<path d="M58.5841 108.011V107.241C58.2799 107.299 57.9902 107.285 57.7005 107.197C57.4107 107.11 57.1644 106.979 56.9327 106.776C56.7009 106.572 56.527 106.311 56.3967 105.991C56.2663 105.671 56.1938 105.293 56.1938 104.871C56.1938 104.45 56.2663 104.072 56.3967 103.752C56.527 103.432 56.7154 103.17 56.9327 102.967C57.1644 102.763 57.4107 102.618 57.7005 102.531C57.9902 102.444 58.2799 102.429 58.5841 102.487V102.095H59.0477V102.487C59.3519 102.429 59.6417 102.458 59.9314 102.531C60.2211 102.618 60.4674 102.749 60.6992 102.967C60.931 103.17 61.1048 103.432 61.2352 103.752C61.3656 104.072 61.438 104.45 61.438 104.871C61.438 105.293 61.3656 105.671 61.2352 105.991C61.1048 106.311 60.9165 106.572 60.6992 106.776C60.4674 106.979 60.2211 107.125 59.9314 107.197C59.6417 107.27 59.3519 107.299 59.0477 107.241V108.011H58.5841ZM58.5841 106.776V102.938C58.3234 102.894 58.0626 102.923 57.8453 102.996C57.6135 103.069 57.4107 103.2 57.2369 103.374C57.063 103.548 56.9327 103.752 56.8313 104.014C56.7299 104.261 56.6864 104.552 56.6864 104.871C56.6864 105.191 56.7299 105.467 56.8313 105.729C56.9327 105.976 57.063 106.194 57.2369 106.369C57.4107 106.543 57.6135 106.659 57.8453 106.732C58.0771 106.805 58.3234 106.834 58.5841 106.79M59.0477 106.79C59.3085 106.819 59.5692 106.805 59.7865 106.732C60.0183 106.659 60.2211 106.543 60.3805 106.369C60.5543 106.194 60.6847 105.991 60.7861 105.744C60.8875 105.496 60.931 105.206 60.931 104.886C60.931 104.566 60.8875 104.29 60.7861 104.028C60.6847 103.781 60.5543 103.563 60.3805 103.389C60.2066 103.214 60.0038 103.083 59.7865 103.011C59.5547 102.938 59.3085 102.909 59.0477 102.952V106.79Z" fill="black"/>
<path d="M62.2637 108.011V102.095H65.9143V102.56H62.7417V104.813H65.4218V105.264H62.7417V107.561H65.9143V108.011H62.2637Z" fill="black"/>
<path d="M66.6387 109V107.561C66.8849 107.561 67.0733 107.503 67.2181 107.372C67.363 107.256 67.4644 107.081 67.5368 106.878C67.6093 106.674 67.6672 106.441 67.7107 106.209C67.7397 105.962 67.7831 105.715 67.7976 105.467C67.8411 105.09 67.87 104.741 67.899 104.392C67.928 104.043 67.9425 103.694 67.957 103.316C67.9714 102.953 68.0004 102.545 68.0149 102.109H71.5786V107.561H71.9987V109H71.5207V108.011H67.1167V109H66.6532H66.6387ZM67.6527 107.561H71.1006V102.575H68.464C68.4495 102.923 68.435 103.258 68.406 103.592C68.3916 103.927 68.3626 104.261 68.3481 104.61C68.3191 104.944 68.2901 105.293 68.2612 105.656C68.2322 105.976 68.1887 106.267 68.1453 106.514C68.1018 106.761 68.0439 106.979 67.9714 107.154C67.899 107.328 67.7976 107.474 67.6672 107.575" fill="black"/>
<path d="M72.897 108.011V102.095H76.5331V102.56H73.3605V104.813H76.0406V105.264H73.3605V107.561H76.5331V108.011H72.897Z" fill="black"/>
<path d="M77.5181 108.011V102.095H79.7345C79.7345 102.095 79.8504 102.095 79.9228 102.095C79.9953 102.095 80.0677 102.095 80.1402 102.124C80.4299 102.167 80.6906 102.269 80.8935 102.444C81.1108 102.604 81.2701 102.822 81.3715 103.069C81.4874 103.316 81.5454 103.592 81.5454 103.897C81.5454 104.203 81.4874 104.479 81.3715 104.726C81.2556 104.973 81.0963 105.191 80.8935 105.351C80.6762 105.511 80.4299 105.627 80.1402 105.671C80.0677 105.671 79.9953 105.685 79.9228 105.7C79.8504 105.7 79.7925 105.7 79.7345 105.7H77.9816V107.997H77.5181V108.011ZM77.9816 105.249H79.72C79.72 105.249 79.8214 105.249 79.8939 105.249C79.9518 105.249 80.0243 105.249 80.0822 105.22C80.2995 105.177 80.4733 105.089 80.6182 104.959C80.7631 104.828 80.8645 104.668 80.9369 104.493C81.0093 104.304 81.0383 104.115 81.0383 103.912C81.0383 103.708 81.0093 103.519 80.9369 103.33C80.8645 103.141 80.7631 102.996 80.6182 102.865C80.4733 102.734 80.2995 102.647 80.0822 102.604C80.0243 102.604 79.9518 102.574 79.8939 102.574C79.8359 102.574 79.778 102.574 79.72 102.574H77.9816V105.264V105.249Z" fill="black"/>
<path d="M81.8783 108.011L83.9643 102.095H84.5438L86.6299 108.011H86.1228L84.1237 102.342H84.3555L82.3563 108.011H81.8638H81.8783ZM82.7475 106.078H85.7752V106.529H82.7475V106.078Z" fill="black"/>
<path d="M92.0049 108.724V108.011H87.3691V102.095H87.8327V107.561H91.3964V102.124H91.8745V107.561H92.4829V108.724H92.0049Z" fill="black"/>
<path d="M97.4952 108.011H97.0172V102.938L93.6128 108.011H93.1348V102.095H93.6128V107.168L97.0172 102.095H97.4952V108.011Z" fill="black"/>
<path d="M103 108.011H102.537V102.938L99.1177 108.011H98.6396V102.095H99.1177V107.168L102.537 102.095H103V108.011Z" fill="black"/>
</g>
<defs>
<clipPath id="clip0_4904_3352">
<rect width="103" height="109" fill="white"/>
</clipPath>
</defs>
</svg>
