<svg width="147" height="83" viewBox="0 0 147 83" fill="none" xmlns="http://www.w3.org/2000/svg">
<g clip-path="url(#clip0_4904_896)">
<path d="M110.366 0L22.0269 19.0363V37.505L110.54 18.4396L110.366 0Z" fill="#EDEDED"/>
<path d="M28.7204 32.2803C28.7204 32.8188 28.4736 33.139 27.9799 33.2408C27.4862 33.3427 27.2539 33.1244 27.2539 32.5859V22.7185C27.2539 22.442 27.3265 22.2091 27.4427 22.0345C27.5588 21.8598 27.7331 21.7434 27.9509 21.6997L31.2759 20.9866C32.7715 20.6664 33.846 20.6664 34.5139 20.9575C35.1818 21.2485 35.5158 21.8889 35.5158 22.8495C35.5158 23.8391 35.2254 24.6541 34.6446 25.2945C34.0638 25.9349 33.2216 26.3715 32.1181 26.6043L28.7204 27.332V32.2803ZM31.2905 25.309C32.4666 25.0616 33.2216 24.7997 33.5556 24.5231C33.8895 24.2757 34.0638 23.8682 34.0638 23.2715C34.0638 22.8786 33.9912 22.602 33.8314 22.4274C33.6862 22.2673 33.4104 22.18 33.0328 22.18C32.6553 22.18 32.0745 22.2673 31.2905 22.442L28.7204 22.9804V25.833L31.2759 25.2945L31.2905 25.309Z" fill="#1D1D1B"/>
<path d="M28.7204 32.2803C28.7204 32.8188 28.4736 33.139 27.9799 33.2408C27.4862 33.3427 27.2539 33.1244 27.2539 32.5859V22.7185C27.2539 22.442 27.3265 22.2091 27.4427 22.0345C27.5588 21.8598 27.7331 21.7434 27.9509 21.6997L31.2759 20.9866C32.7715 20.6664 33.846 20.6664 34.5139 20.9575C35.1818 21.2485 35.5158 21.8889 35.5158 22.8495C35.5158 23.8391 35.2254 24.6541 34.6446 25.2945C34.0638 25.9349 33.2216 26.3715 32.1181 26.6043L28.7204 27.332V32.2803ZM31.2905 25.309C32.4666 25.0616 33.2216 24.7997 33.5556 24.5231C33.8895 24.2757 34.0638 23.8682 34.0638 23.2715C34.0638 22.8786 33.9912 22.602 33.8314 22.4274C33.6862 22.2673 33.4104 22.18 33.0328 22.18C32.6553 22.18 32.0745 22.2673 31.2905 22.442L28.7204 22.9804V25.833L31.2759 25.2945L31.2905 25.309Z" fill="#1D1D1B"/>
<path d="M28.7204 32.2803C28.7204 32.8188 28.4736 33.139 27.9799 33.2408C27.4862 33.3427 27.2539 33.1244 27.2539 32.5859V22.7185C27.2539 22.442 27.3265 22.2091 27.4427 22.0345C27.5588 21.8598 27.7331 21.7434 27.9509 21.6997L31.2759 20.9866C32.7715 20.6664 33.846 20.6664 34.5139 20.9575C35.1818 21.2485 35.5158 21.8889 35.5158 22.8495C35.5158 23.8391 35.2254 24.6541 34.6446 25.2945C34.0638 25.9349 33.2216 26.3715 32.1181 26.6043L28.7204 27.332V32.2803ZM31.2905 25.309C32.4666 25.0616 33.2216 24.7997 33.5556 24.5231C33.8895 24.2757 34.0638 23.8682 34.0638 23.2715C34.0638 22.8786 33.9912 22.602 33.8314 22.4274C33.6862 22.2673 33.4104 22.18 33.0328 22.18C32.6553 22.18 32.0745 22.2673 31.2905 22.442L28.7204 22.9804V25.833L31.2759 25.2945L31.2905 25.309Z" stroke="white" stroke-width="0.5" stroke-miterlimit="10"/>
<path d="M46.0283 25.1488C46.0283 26.0074 45.8395 26.8079 45.4765 27.5356C45.1135 28.2633 44.5908 28.8745 43.9083 29.3693C43.2259 29.8642 42.4273 30.2135 41.5271 30.4027C40.6268 30.5919 39.8282 30.5919 39.1458 30.3881C38.4634 30.1844 37.9406 29.7914 37.5776 29.2238C37.2146 28.6562 37.0259 27.9431 37.0259 27.0699V23.999C37.0259 23.1403 37.2146 22.3399 37.5776 21.6122C37.9406 20.8845 38.4634 20.2733 39.1458 19.7784C39.8282 19.2836 40.6268 18.9343 41.5271 18.7451C42.4273 18.5559 43.2259 18.5559 43.9083 18.7597C44.5908 18.9634 45.1135 19.3564 45.4765 19.924C45.8395 20.4916 46.0283 21.2047 46.0283 22.0779V25.1633V25.1488ZM41.5271 20.215C40.5397 20.4188 39.7847 20.8263 39.262 21.423C38.7392 22.0197 38.4924 22.7911 38.4779 23.7225V26.6915C38.4779 27.6229 38.7247 28.2778 39.2474 28.6562C39.7556 29.0346 40.5107 29.1219 41.498 28.9036C42.4854 28.6999 43.2404 28.2924 43.7631 27.6957C44.2859 27.099 44.5327 26.3276 44.5472 25.3962V22.4272C44.5472 21.5249 44.3004 20.87 43.8067 20.4479C43.284 20.0695 42.5289 19.9822 41.5271 20.2005" fill="#1D1D1B"/>
<path d="M46.0283 25.1488C46.0283 26.0074 45.8395 26.8079 45.4765 27.5356C45.1135 28.2633 44.5908 28.8745 43.9083 29.3693C43.2259 29.8642 42.4273 30.2135 41.5271 30.4027C40.6268 30.5919 39.8282 30.5919 39.1458 30.3881C38.4634 30.1844 37.9406 29.7914 37.5776 29.2238C37.2146 28.6562 37.0259 27.9431 37.0259 27.0699V23.999C37.0259 23.1403 37.2146 22.3399 37.5776 21.6122C37.9406 20.8845 38.4634 20.2733 39.1458 19.7784C39.8282 19.2836 40.6268 18.9343 41.5271 18.7451C42.4273 18.5559 43.2259 18.5559 43.9083 18.7597C44.5908 18.9634 45.1135 19.3564 45.4765 19.924C45.8395 20.4916 46.0283 21.2047 46.0283 22.0779V25.1633V25.1488ZM41.5271 20.215C40.5397 20.4188 39.7847 20.8263 39.262 21.423C38.7392 22.0197 38.4924 22.7911 38.4779 23.7225V26.6915C38.4779 27.6229 38.7247 28.2778 39.2474 28.6562C39.7556 29.0346 40.5107 29.1219 41.498 28.9036C42.4854 28.6999 43.2404 28.2924 43.7631 27.6957C44.2859 27.099 44.5327 26.3276 44.5472 25.3962V22.4272C44.5472 21.5249 44.3004 20.87 43.8067 20.4479C43.284 20.0695 42.5289 19.9822 41.5271 20.2005" fill="#1D1D1B"/>
<path d="M46.0283 25.1488C46.0283 26.0074 45.8395 26.8079 45.4765 27.5356C45.1135 28.2633 44.5908 28.8745 43.9083 29.3693C43.2259 29.8642 42.4273 30.2135 41.5271 30.4027C40.6268 30.5919 39.8282 30.5919 39.1458 30.3881C38.4634 30.1844 37.9406 29.7914 37.5776 29.2238C37.2146 28.6562 37.0259 27.9431 37.0259 27.0699V23.999C37.0259 23.1403 37.2146 22.3399 37.5776 21.6122C37.9406 20.8845 38.4634 20.2733 39.1458 19.7784C39.8282 19.2836 40.6268 18.9343 41.5271 18.7451C42.4273 18.5559 43.2259 18.5559 43.9083 18.7597C44.5908 18.9634 45.1135 19.3564 45.4765 19.924C45.8395 20.4916 46.0283 21.2047 46.0283 22.0779V25.1633V25.1488ZM41.5271 20.215C40.5397 20.4188 39.7847 20.8263 39.262 21.423C38.7392 22.0197 38.4924 22.7911 38.4779 23.7225V26.6915C38.4779 27.6229 38.7247 28.2778 39.2474 28.6562C39.7556 29.0346 40.5107 29.1219 41.498 28.9036C42.4854 28.6999 43.2404 28.2924 43.7631 27.6957C44.2859 27.099 44.5327 26.3276 44.5472 25.3962V22.4272C44.5472 21.5249 44.3004 20.87 43.8067 20.4479C43.284 20.0695 42.5289 19.9822 41.5271 20.2005V20.215Z" stroke="white" stroke-width="0.5" stroke-miterlimit="10"/>
<path d="M52.693 27.8707C51.5604 28.1181 50.6602 28.1908 50.0213 28.1181C49.3679 28.0453 48.9032 27.7979 48.6128 27.3904C48.3224 26.9683 48.1772 26.3425 48.1772 25.4984V20.8121C48.1772 19.9825 48.3224 19.2985 48.5983 18.76C48.8742 18.2215 49.3098 17.7849 49.9196 17.4356C50.5295 17.0863 51.3571 16.8098 52.388 16.5915L55.1613 16.0094C55.8438 15.8638 56.352 15.9366 56.6859 16.2131C57.0199 16.4896 57.1796 16.999 57.1796 17.7267C57.1796 18.3816 56.9328 18.76 56.4391 18.8619C56.2068 18.9055 56.0325 18.8619 55.9019 18.7309C55.7712 18.5999 55.7131 18.3816 55.7131 18.0905C55.7131 17.7995 55.6695 17.6103 55.5679 17.5375C55.4808 17.4647 55.292 17.4502 55.0307 17.5084L52.3735 18.076C51.5749 18.2506 50.9796 18.4253 50.6166 18.5854C50.2391 18.76 49.9922 18.9929 49.847 19.2839C49.7018 19.575 49.6438 19.9971 49.6438 20.5356V25.1491C49.6438 25.7167 49.7164 26.0951 49.8616 26.328C50.0068 26.5463 50.2826 26.6627 50.7037 26.6772C51.1248 26.6772 51.7782 26.5899 52.693 26.4007L55.0307 25.9059C55.292 25.8477 55.4808 25.7604 55.5679 25.6439C55.655 25.5275 55.7131 25.3237 55.7131 25.0327C55.7131 24.7416 55.7712 24.4942 55.9019 24.305C56.0325 24.1158 56.2068 23.9994 56.4391 23.9411C56.9328 23.8538 57.1651 24.1303 57.1651 24.7853C57.1651 25.5129 56.9909 26.0805 56.6714 26.5026C56.3375 26.9247 55.8293 27.2012 55.1468 27.3467L52.693 27.8707Z" fill="#1D1D1B"/>
<path d="M52.693 27.8707C51.5604 28.1181 50.6602 28.1908 50.0213 28.1181C49.3679 28.0453 48.9032 27.7979 48.6128 27.3904C48.3224 26.9683 48.1772 26.3425 48.1772 25.4984V20.8121C48.1772 19.9825 48.3224 19.2985 48.5983 18.76C48.8742 18.2215 49.3098 17.7849 49.9196 17.4356C50.5295 17.0863 51.3571 16.8098 52.388 16.5915L55.1613 16.0094C55.8438 15.8638 56.352 15.9366 56.6859 16.2131C57.0199 16.4896 57.1796 16.999 57.1796 17.7267C57.1796 18.3816 56.9328 18.76 56.4391 18.8619C56.2068 18.9055 56.0325 18.8619 55.9019 18.7309C55.7712 18.5999 55.7131 18.3816 55.7131 18.0905C55.7131 17.7995 55.6695 17.6103 55.5679 17.5375C55.4808 17.4647 55.292 17.4502 55.0307 17.5084L52.3735 18.076C51.5749 18.2506 50.9796 18.4253 50.6166 18.5854C50.2391 18.76 49.9922 18.9929 49.847 19.2839C49.7018 19.575 49.6438 19.9971 49.6438 20.5356V25.1491C49.6438 25.7167 49.7164 26.0951 49.8616 26.328C50.0068 26.5463 50.2826 26.6627 50.7037 26.6772C51.1248 26.6772 51.7782 26.5899 52.693 26.4007L55.0307 25.9059C55.292 25.8477 55.4808 25.7604 55.5679 25.6439C55.655 25.5275 55.7131 25.3237 55.7131 25.0327C55.7131 24.7416 55.7712 24.4942 55.9019 24.305C56.0325 24.1158 56.2068 23.9994 56.4391 23.9411C56.9328 23.8538 57.1651 24.1303 57.1651 24.7853C57.1651 25.5129 56.9909 26.0805 56.6714 26.5026C56.3375 26.9247 55.8293 27.2012 55.1468 27.3467L52.693 27.8707Z" fill="#1D1D1B"/>
<path d="M52.693 27.8707C51.5604 28.1181 50.6602 28.1908 50.0213 28.1181C49.3679 28.0453 48.9032 27.7979 48.6128 27.3904C48.3224 26.9683 48.1772 26.3425 48.1772 25.4984V20.8121C48.1772 19.9825 48.3224 19.2985 48.5983 18.76C48.8742 18.2215 49.3098 17.7849 49.9196 17.4356C50.5295 17.0863 51.3571 16.8098 52.388 16.5915L55.1613 16.0094C55.8438 15.8638 56.352 15.9366 56.6859 16.2131C57.0199 16.4896 57.1796 16.999 57.1796 17.7267C57.1796 18.3816 56.9328 18.76 56.4391 18.8619C56.2068 18.9055 56.0325 18.8619 55.9019 18.7309C55.7712 18.5999 55.7131 18.3816 55.7131 18.0905C55.7131 17.7995 55.6695 17.6103 55.5679 17.5375C55.4808 17.4647 55.292 17.4502 55.0307 17.5084L52.3735 18.076C51.5749 18.2506 50.9796 18.4253 50.6166 18.5854C50.2391 18.76 49.9922 18.9929 49.847 19.2839C49.7018 19.575 49.6438 19.9971 49.6438 20.5356V25.1491C49.6438 25.7167 49.7164 26.0951 49.8616 26.328C50.0068 26.5463 50.2826 26.6627 50.7037 26.6772C51.1248 26.6772 51.7782 26.5899 52.693 26.4007L55.0307 25.9059C55.292 25.8477 55.4808 25.7604 55.5679 25.6439C55.655 25.5275 55.7131 25.3237 55.7131 25.0327C55.7131 24.7416 55.7712 24.4942 55.9019 24.305C56.0325 24.1158 56.2068 23.9994 56.4391 23.9411C56.9328 23.8538 57.1651 24.1303 57.1651 24.7853C57.1651 25.5129 56.9909 26.0805 56.6714 26.5026C56.3375 26.9247 55.8293 27.2012 55.1468 27.3467L52.693 27.8707Z" stroke="white" stroke-width="0.5" stroke-miterlimit="10"/>
<path d="M63.6988 25.542C62.5663 25.7895 61.666 25.8622 61.0271 25.7895C60.3737 25.7167 59.9091 25.4693 59.6187 25.0472C59.3283 24.6252 59.1831 23.9993 59.1831 23.1698V18.4835C59.1831 17.6539 59.3283 16.9699 59.6042 16.4314C59.8801 15.8929 60.3157 15.4563 60.9255 15.107C61.5353 14.7577 62.363 14.4812 63.3939 14.2629L66.1672 13.6807C66.8496 13.5352 67.3578 13.608 67.6918 13.8845C68.0258 14.161 68.1855 14.6704 68.1855 15.3981C68.1855 16.053 67.9386 16.4314 67.445 16.5333C67.2126 16.5769 67.0384 16.5333 66.9077 16.4023C66.777 16.2713 66.719 16.053 66.719 15.7619C66.719 15.4708 66.6754 15.2817 66.5738 15.2089C66.4866 15.1361 66.2979 15.1216 66.0365 15.1798L63.3794 15.7474C62.5808 15.922 61.9855 16.0967 61.6225 16.2568C61.2449 16.4314 60.9981 16.6643 60.8529 16.9553C60.7077 17.2464 60.6496 17.6685 60.6496 18.207V22.8205C60.6496 23.3881 60.7222 23.7665 60.8674 23.9993C61.0126 24.2176 61.2885 24.3341 61.7096 24.3486C62.1307 24.3486 62.7841 24.2613 63.6988 24.0721L66.0365 23.5773C66.2979 23.5191 66.4866 23.4317 66.5738 23.3153C66.6609 23.1989 66.719 22.9951 66.719 22.7041C66.719 22.413 66.777 22.1656 66.9077 21.9764C67.0384 21.7872 67.2126 21.6707 67.445 21.6125C67.9386 21.5252 68.171 21.8017 68.171 22.4566C68.171 23.1843 67.9967 23.7519 67.6773 24.174C67.3433 24.596 66.8351 24.8726 66.1527 25.0181L63.6988 25.542Z" fill="#1D1D1B"/>
<path d="M63.6988 25.542C62.5663 25.7895 61.666 25.8622 61.0271 25.7895C60.3737 25.7167 59.9091 25.4693 59.6187 25.0472C59.3283 24.6252 59.1831 23.9993 59.1831 23.1698V18.4835C59.1831 17.6539 59.3283 16.9699 59.6042 16.4314C59.8801 15.8929 60.3157 15.4563 60.9255 15.107C61.5353 14.7577 62.363 14.4812 63.3939 14.2629L66.1672 13.6807C66.8496 13.5352 67.3578 13.608 67.6918 13.8845C68.0258 14.161 68.1855 14.6704 68.1855 15.3981C68.1855 16.053 67.9386 16.4314 67.445 16.5333C67.2126 16.5769 67.0384 16.5333 66.9077 16.4023C66.777 16.2713 66.719 16.053 66.719 15.7619C66.719 15.4708 66.6754 15.2817 66.5738 15.2089C66.4866 15.1361 66.2979 15.1216 66.0365 15.1798L63.3794 15.7474C62.5808 15.922 61.9855 16.0967 61.6225 16.2568C61.2449 16.4314 60.9981 16.6643 60.8529 16.9553C60.7077 17.2464 60.6496 17.6685 60.6496 18.207V22.8205C60.6496 23.3881 60.7222 23.7665 60.8674 23.9993C61.0126 24.2176 61.2885 24.3341 61.7096 24.3486C62.1307 24.3486 62.7841 24.2613 63.6988 24.0721L66.0365 23.5773C66.2979 23.5191 66.4866 23.4317 66.5738 23.3153C66.6609 23.1989 66.719 22.9951 66.719 22.7041C66.719 22.413 66.777 22.1656 66.9077 21.9764C67.0384 21.7872 67.2126 21.6707 67.445 21.6125C67.9386 21.5252 68.171 21.8017 68.171 22.4566C68.171 23.1843 67.9967 23.7519 67.6773 24.174C67.3433 24.596 66.8351 24.8726 66.1527 25.0181L63.6988 25.542Z" fill="#1D1D1B"/>
<path d="M63.6988 25.542C62.5663 25.7895 61.666 25.8622 61.0271 25.7895C60.3737 25.7167 59.9091 25.4693 59.6187 25.0472C59.3283 24.6252 59.1831 23.9993 59.1831 23.1698V18.4835C59.1831 17.6539 59.3283 16.9699 59.6042 16.4314C59.8801 15.8929 60.3157 15.4563 60.9255 15.107C61.5353 14.7577 62.363 14.4812 63.3939 14.2629L66.1672 13.6807C66.8496 13.5352 67.3578 13.608 67.6918 13.8845C68.0258 14.161 68.1855 14.6704 68.1855 15.3981C68.1855 16.053 67.9386 16.4314 67.445 16.5333C67.2126 16.5769 67.0384 16.5333 66.9077 16.4023C66.777 16.2713 66.719 16.053 66.719 15.7619C66.719 15.4708 66.6754 15.2817 66.5738 15.2089C66.4866 15.1361 66.2979 15.1216 66.0365 15.1798L63.3794 15.7474C62.5808 15.922 61.9855 16.0967 61.6225 16.2568C61.2449 16.4314 60.9981 16.6643 60.8529 16.9553C60.7077 17.2464 60.6496 17.6685 60.6496 18.207V22.8205C60.6496 23.3881 60.7222 23.7665 60.8674 23.9993C61.0126 24.2176 61.2885 24.3341 61.7096 24.3486C62.1307 24.3486 62.7841 24.2613 63.6988 24.0721L66.0365 23.5773C66.2979 23.5191 66.4866 23.4317 66.5738 23.3153C66.6609 23.1989 66.719 22.9951 66.719 22.7041C66.719 22.413 66.777 22.1656 66.9077 21.9764C67.0384 21.7872 67.2126 21.6707 67.445 21.6125C67.9386 21.5252 68.171 21.8017 68.171 22.4566C68.171 23.1843 67.9967 23.7519 67.6773 24.174C67.3433 24.596 66.8351 24.8726 66.1527 25.0181L63.6988 25.542Z" stroke="white" stroke-width="0.5" stroke-miterlimit="10"/>
<path d="M70.4072 23.3878V13.5058C70.4072 12.9382 70.6686 12.6035 71.1477 12.4871C71.6414 12.3852 71.8737 12.6326 71.8737 13.2439V21.2921L77.9576 11.4828C78.1754 11.1481 78.4222 10.9444 78.7126 10.8861C79.1773 10.7843 79.4096 11.0317 79.4096 11.5993V21.4813C79.4096 22.0489 79.1482 22.369 78.6691 22.4709C78.1754 22.5728 77.9431 22.3691 77.9431 21.8451V13.695L71.9173 23.4169C71.7721 23.6498 71.6559 23.7953 71.5543 23.8826C71.4527 23.97 71.3075 24.0282 71.1187 24.0718C70.6395 24.1737 70.4072 23.9409 70.4072 23.3878Z" fill="#1D1D1B"/>
<path d="M70.4072 23.3878V13.5058C70.4072 12.9382 70.6686 12.6035 71.1477 12.4871C71.6414 12.3852 71.8737 12.6326 71.8737 13.2439V21.2921L77.9576 11.4828C78.1754 11.1481 78.4222 10.9444 78.7126 10.8861C79.1773 10.7843 79.4096 11.0317 79.4096 11.5993V21.4813C79.4096 22.0489 79.1482 22.369 78.6691 22.4709C78.1754 22.5728 77.9431 22.3691 77.9431 21.8451V13.695L71.9173 23.4169C71.7721 23.6498 71.6559 23.7953 71.5543 23.8826C71.4527 23.97 71.3075 24.0282 71.1187 24.0718C70.6395 24.1737 70.4072 23.9409 70.4072 23.3878Z" fill="#1D1D1B"/>
<path d="M70.4072 23.3878V13.5058C70.4072 12.9382 70.6686 12.6035 71.1477 12.4871C71.6414 12.3852 71.8737 12.6326 71.8737 13.2439V21.2921L77.9576 11.4828C78.1754 11.1481 78.4222 10.9444 78.7126 10.8861C79.1773 10.7843 79.4096 11.0317 79.4096 11.5993V21.4813C79.4096 22.0489 79.1482 22.369 78.6691 22.4709C78.1754 22.5728 77.9431 22.3691 77.9431 21.8451V13.695L71.9173 23.4169C71.7721 23.6498 71.6559 23.7953 71.5543 23.8826C71.4527 23.97 71.3075 24.0282 71.1187 24.0718C70.6395 24.1737 70.4072 23.9409 70.4072 23.3878Z" stroke="white" stroke-width="0.5" stroke-miterlimit="10"/>
<path d="M88.9055 19.5022V15.2089L86.4516 15.7328C85.9144 15.8492 85.5224 16.0239 85.261 16.2567C84.9996 16.4896 84.8109 16.8389 84.6947 17.2901L84.2591 19.0074C84.0558 19.7351 83.7364 20.3609 83.2863 20.8703C82.8362 21.3797 82.328 21.6998 81.7762 21.8163C81.1664 21.9472 80.876 21.7581 80.876 21.2778C80.876 20.7975 81.1809 20.4919 81.7907 20.3754C81.994 20.3318 82.1973 20.1862 82.3861 19.9388C82.5748 19.6914 82.691 19.4586 82.7491 19.2403L83.2427 17.3483C83.4025 16.7807 83.6638 16.2713 84.0268 15.8347C82.8507 15.5582 82.2699 14.7577 82.2699 13.4479C82.2699 12.4291 82.6329 11.5559 83.3734 10.8573C84.1139 10.1587 85.1594 9.66389 86.5097 9.37282L89.7186 8.68879C90.1833 8.58691 90.4156 8.83433 90.4156 9.43103V19.1966C90.4156 19.7351 90.1687 20.0553 89.6896 20.1571C89.1814 20.259 88.92 20.0553 88.92 19.5168M88.92 10.3334L86.4952 10.8427C85.5369 11.0465 84.8399 11.3376 84.4043 11.7014C83.9687 12.0798 83.7509 12.5746 83.7509 13.1859C83.7509 14.292 84.6657 14.6558 86.4952 14.2629L88.92 13.7535V10.3188V10.3334Z" fill="#1D1D1B"/>
<path d="M88.9055 19.5022V15.2089L86.4516 15.7328C85.9144 15.8492 85.5224 16.0239 85.261 16.2567C84.9996 16.4896 84.8109 16.8389 84.6947 17.2901L84.2591 19.0074C84.0558 19.7351 83.7364 20.3609 83.2863 20.8703C82.8362 21.3797 82.328 21.6998 81.7762 21.8163C81.1664 21.9472 80.876 21.7581 80.876 21.2778C80.876 20.7975 81.1809 20.4919 81.7907 20.3754C81.994 20.3318 82.1973 20.1862 82.3861 19.9388C82.5748 19.6914 82.691 19.4586 82.7491 19.2403L83.2427 17.3483C83.4025 16.7807 83.6638 16.2713 84.0268 15.8347C82.8507 15.5582 82.2699 14.7577 82.2699 13.4479C82.2699 12.4291 82.6329 11.5559 83.3734 10.8573C84.1139 10.1587 85.1594 9.66389 86.5097 9.37282L89.7186 8.68879C90.1833 8.58691 90.4156 8.83433 90.4156 9.43103V19.1966C90.4156 19.7351 90.1687 20.0553 89.6896 20.1571C89.1814 20.259 88.92 20.0553 88.92 19.5168M88.92 10.3334L86.4952 10.8427C85.5369 11.0465 84.8399 11.3376 84.4043 11.7014C83.9687 12.0798 83.7509 12.5746 83.7509 13.1859C83.7509 14.292 84.6657 14.6558 86.4952 14.2629L88.92 13.7535V10.3188V10.3334Z" fill="#1D1D1B"/>
<path d="M88.9055 19.5022V15.2089L86.4516 15.7328C85.9144 15.8492 85.5224 16.0239 85.261 16.2567C84.9996 16.4896 84.8109 16.8389 84.6947 17.2901L84.2591 19.0074C84.0558 19.7351 83.7364 20.3609 83.2863 20.8703C82.8362 21.3797 82.328 21.6998 81.7762 21.8163C81.1664 21.9472 80.876 21.7581 80.876 21.2778C80.876 20.7975 81.1809 20.4919 81.7907 20.3754C81.994 20.3318 82.1973 20.1862 82.3861 19.9388C82.5748 19.6914 82.691 19.4586 82.7491 19.2403L83.2427 17.3483C83.4025 16.7807 83.6638 16.2713 84.0268 15.8347C82.8507 15.5582 82.2699 14.7577 82.2699 13.4479C82.2699 12.4291 82.6329 11.5559 83.3734 10.8573C84.1139 10.1587 85.1594 9.66389 86.5097 9.37282L89.7186 8.68879C90.1833 8.58691 90.4156 8.83433 90.4156 9.43103V19.1966C90.4156 19.7351 90.1687 20.0553 89.6896 20.1571C89.1814 20.259 88.92 20.0553 88.92 19.5168L88.9055 19.5022ZM88.9055 10.3188L86.4807 10.8282C85.5224 11.0319 84.8254 11.323 84.3898 11.6869C83.9542 12.0653 83.7364 12.5601 83.7364 13.1713C83.7364 14.2774 84.6512 14.6413 86.4807 14.2483L88.9055 13.7389V10.3043V10.3188Z" stroke="white" stroke-width="0.5" stroke-miterlimit="10"/>
<path d="M98.8663 13.6803C98.7501 13.593 98.7065 13.462 98.7065 13.2728C98.7065 13.0691 98.7646 12.909 98.8663 12.778C98.9824 12.647 99.1276 12.5597 99.3164 12.5306L105.792 11.1625C105.996 11.1189 106.141 11.1334 106.242 11.2207C106.344 11.3081 106.402 11.439 106.402 11.6428C106.402 11.8465 106.344 12.0066 106.242 12.1376C106.141 12.2686 105.981 12.3414 105.792 12.385L99.3164 13.7531C99.1276 13.7967 98.9824 13.7676 98.8663 13.6803Z" fill="#1D1D1B"/>
<path d="M98.8663 13.6803C98.7501 13.593 98.7065 13.462 98.7065 13.2728C98.7065 13.0691 98.7646 12.909 98.8663 12.778C98.9824 12.647 99.1276 12.5597 99.3164 12.5306L105.792 11.1625C105.996 11.1189 106.141 11.1334 106.242 11.2207C106.344 11.3081 106.402 11.439 106.402 11.6428C106.402 11.8465 106.344 12.0066 106.242 12.1376C106.141 12.2686 105.981 12.3414 105.792 12.385L99.3164 13.7531C99.1276 13.7967 98.9824 13.7676 98.8663 13.6803Z" fill="#1D1D1B"/>
<path d="M98.8663 13.6803C98.7501 13.593 98.7065 13.462 98.7065 13.2728C98.7065 13.0691 98.7646 12.909 98.8663 12.778C98.9824 12.647 99.1276 12.5597 99.3164 12.5306L105.792 11.1625C105.996 11.1189 106.141 11.1334 106.242 11.2207C106.344 11.3081 106.402 11.439 106.402 11.6428C106.402 11.8465 106.344 12.0066 106.242 12.1376C106.141 12.2686 105.981 12.3414 105.792 12.385L99.3164 13.7531C99.1276 13.7967 98.9824 13.7676 98.8663 13.6803Z" stroke="white" stroke-width="0.5" stroke-miterlimit="10"/>
<path d="M37.9116 35.9334V54.6058L110.54 38.946V20.2881L37.9116 35.9334Z" fill="#0062A1"/>
<path d="M47.4078 49.4971C46.2752 49.7445 45.375 49.8173 44.7361 49.7445C44.0827 49.6718 43.6181 49.4243 43.3277 49.0023C43.0373 48.5802 42.8921 47.9544 42.8921 47.1249V42.4386C42.8921 41.609 43.0373 40.925 43.3132 40.3865C43.589 39.848 44.0246 39.4114 44.6345 39.0621C45.2443 38.7128 46.072 38.4363 47.1029 38.218L49.8762 37.6358C50.5586 37.4903 51.0668 37.563 51.4008 37.8396C51.7347 38.1161 51.8945 38.6255 51.8945 39.3532C51.8945 40.0081 51.6476 40.3865 51.1539 40.4883C50.9216 40.532 50.7474 40.4883 50.6167 40.3574C50.486 40.2264 50.4279 40.0081 50.4279 39.717C50.4279 39.4259 50.3844 39.2367 50.2827 39.164C50.1956 39.0912 50.0069 39.0766 49.7455 39.1349L47.0884 39.7024C46.2898 39.8771 45.6944 40.0517 45.3314 40.2118C44.9539 40.3865 44.7071 40.6193 44.5619 40.9104C44.4167 41.2015 44.3586 41.6235 44.3586 42.162V46.7756C44.3586 47.3432 44.4312 47.7216 44.5764 47.9544C44.7216 48.1727 44.9975 48.2892 45.4186 48.3037C45.8396 48.3037 46.493 48.2164 47.4078 48.0272L49.7455 47.5324C50.0069 47.4741 50.1956 47.3868 50.2827 47.2704C50.3699 47.154 50.4279 46.9502 50.4279 46.6591C50.4279 46.3681 50.486 46.1206 50.6167 45.9314C50.7474 45.7423 50.9216 45.6258 51.1539 45.5676C51.6476 45.4803 51.8799 45.7568 51.8799 46.4117C51.8799 47.1394 51.7057 47.707 51.3863 48.1291C51.0523 48.5511 50.5441 48.8276 49.8617 48.9732L47.4078 49.4971Z" fill="white"/>
<path d="M47.4078 49.4971C46.2752 49.7445 45.375 49.8173 44.7361 49.7445C44.0827 49.6718 43.6181 49.4243 43.3277 49.0023C43.0373 48.5802 42.8921 47.9544 42.8921 47.1249V42.4386C42.8921 41.609 43.0373 40.925 43.3132 40.3865C43.589 39.848 44.0246 39.4114 44.6345 39.0621C45.2443 38.7128 46.072 38.4363 47.1029 38.218L49.8762 37.6358C50.5586 37.4903 51.0668 37.563 51.4008 37.8396C51.7347 38.1161 51.8945 38.6255 51.8945 39.3532C51.8945 40.0081 51.6476 40.3865 51.1539 40.4883C50.9216 40.532 50.7474 40.4883 50.6167 40.3574C50.486 40.2264 50.4279 40.0081 50.4279 39.717C50.4279 39.4259 50.3844 39.2367 50.2827 39.164C50.1956 39.0912 50.0069 39.0766 49.7455 39.1349L47.0884 39.7024C46.2898 39.8771 45.6944 40.0517 45.3314 40.2118C44.9539 40.3865 44.7071 40.6193 44.5619 40.9104C44.4167 41.2015 44.3586 41.6235 44.3586 42.162V46.7756C44.3586 47.3432 44.4312 47.7216 44.5764 47.9544C44.7216 48.1727 44.9975 48.2892 45.4186 48.3037C45.8396 48.3037 46.493 48.2164 47.4078 48.0272L49.7455 47.5324C50.0069 47.4741 50.1956 47.3868 50.2827 47.2704C50.3699 47.154 50.4279 46.9502 50.4279 46.6591C50.4279 46.3681 50.486 46.1206 50.6167 45.9314C50.7474 45.7423 50.9216 45.6258 51.1539 45.5676C51.6476 45.4803 51.8799 45.7568 51.8799 46.4117C51.8799 47.1394 51.7057 47.707 51.3863 48.1291C51.0523 48.5511 50.5441 48.8276 49.8617 48.9732L47.4078 49.4971Z" stroke="white" stroke-width="0.5" stroke-miterlimit="10"/>
<path d="M60.6208 35.3658C61.1871 35.2493 61.4775 35.424 61.4775 35.9188C61.4775 36.4136 61.1871 36.7193 60.6208 36.8357L58.1379 37.3596V46.543C58.1379 46.7759 58.0508 46.9796 57.8911 47.1688C57.7313 47.358 57.5281 47.4745 57.2667 47.5327C57.0054 47.5909 56.8166 47.5618 56.6714 47.4454C56.5262 47.3289 56.4681 47.1543 56.4681 46.8923V37.7089L53.9707 38.2474C53.7093 38.3056 53.4915 38.2765 53.3463 38.1746C53.2011 38.0728 53.114 37.9127 53.1285 37.6944C53.1285 37.476 53.2011 37.2723 53.3608 37.1122C53.506 36.9521 53.7238 36.8357 53.9852 36.7775L60.6353 35.3658H60.6208Z" fill="white"/>
<path d="M60.6208 35.3658C61.1871 35.2493 61.4775 35.424 61.4775 35.9188C61.4775 36.4136 61.1871 36.7193 60.6208 36.8357L58.1379 37.3596V46.543C58.1379 46.7759 58.0508 46.9796 57.8911 47.1688C57.7313 47.358 57.5281 47.4745 57.2667 47.5327C57.0054 47.5909 56.8166 47.5618 56.6714 47.4454C56.5262 47.3289 56.4681 47.1543 56.4681 46.8923V37.7089L53.9707 38.2474C53.7093 38.3056 53.4915 38.2765 53.3463 38.1746C53.2011 38.0728 53.114 37.9127 53.1285 37.6944C53.1285 37.476 53.2011 37.2723 53.3608 37.1122C53.506 36.9521 53.7238 36.8357 53.9852 36.7775L60.6353 35.3658H60.6208Z" stroke="white" stroke-width="0.5" stroke-miterlimit="10"/>
<path d="M64.6574 45.1602C64.6574 45.6987 64.4106 46.0188 63.9169 46.1207C63.4232 46.2226 63.1909 46.0043 63.1909 45.4658V35.5984C63.1909 35.3218 63.2635 35.089 63.3797 34.9143C63.4958 34.7397 63.6701 34.6233 63.8879 34.5796L67.2129 33.8665C68.7085 33.5463 69.783 33.5463 70.4509 33.8374C71.1188 34.1284 71.4528 34.7688 71.4528 35.7293C71.4528 36.719 71.1624 37.534 70.5816 38.1744C70.0008 38.8147 69.1586 39.2513 68.0551 39.4842L64.6574 40.1973V45.1456V45.1602ZM67.2275 38.1889C68.4036 37.9415 69.1586 37.6795 69.4926 37.403C69.8265 37.1556 70.0008 36.7481 70.0008 36.1514C70.0008 35.7585 69.9282 35.4819 69.7685 35.3073C69.6233 35.1472 69.3474 35.0599 68.9699 35.0599C68.5923 35.0599 68.0115 35.1472 67.2275 35.3218L64.6574 35.8603V38.7129L67.2129 38.1744L67.2275 38.1889Z" fill="white"/>
<path d="M64.6574 45.1602C64.6574 45.6987 64.4106 46.0188 63.9169 46.1207C63.4232 46.2226 63.1909 46.0043 63.1909 45.4658V35.5984C63.1909 35.3218 63.2635 35.089 63.3797 34.9143C63.4958 34.7397 63.6701 34.6233 63.8879 34.5796L67.2129 33.8665C68.7085 33.5463 69.783 33.5463 70.4509 33.8374C71.1188 34.1284 71.4528 34.7688 71.4528 35.7293C71.4528 36.719 71.1624 37.534 70.5816 38.1744C70.0008 38.8147 69.1586 39.2513 68.0551 39.4842L64.6574 40.1973V45.1456V45.1602ZM67.2275 38.1889C68.4036 37.9415 69.1586 37.6795 69.4926 37.403C69.8265 37.1556 70.0008 36.7481 70.0008 36.1514C70.0008 35.7585 69.9282 35.4819 69.7685 35.3073C69.6233 35.1472 69.3474 35.0599 68.9699 35.0599C68.5923 35.0599 68.0115 35.1472 67.2275 35.3218L64.6574 35.8603V38.7129L67.2129 38.1744L67.2275 38.1889Z" stroke="white" stroke-width="0.5" stroke-miterlimit="10"/>
<path d="M78.0736 31.6542L82.2263 41.3179C82.2554 41.4343 82.2844 41.5653 82.2844 41.7399C82.2844 41.9 82.2118 42.0601 82.0666 42.2202C81.9214 42.3803 81.7472 42.4822 81.5584 42.5258C81.1954 42.5986 80.9486 42.4676 80.8034 42.1183L79.6418 39.3386L74.9373 40.3428L73.7612 43.6174C73.6015 44.0249 73.3546 44.2577 73.0061 44.3305C72.8029 44.3742 72.6286 44.3451 72.4834 44.2432C72.3382 44.1413 72.2656 44.0103 72.2656 43.8502C72.2656 43.6756 72.2801 43.5301 72.3237 43.3991L76.5054 31.9744L78.0736 31.6396V31.6542ZM77.275 34.0265L75.5181 38.7564L79.0464 38.0142L77.275 34.041V34.0265Z" fill="white"/>
<path d="M78.0736 31.6542L82.2263 41.3179C82.2554 41.4343 82.2844 41.5653 82.2844 41.7399C82.2844 41.9 82.2118 42.0601 82.0666 42.2202C81.9214 42.3803 81.7472 42.4822 81.5584 42.5258C81.1954 42.5986 80.9486 42.4676 80.8034 42.1183L79.6418 39.3386L74.9373 40.3428L73.7612 43.6174C73.6015 44.0249 73.3546 44.2577 73.0061 44.3305C72.8029 44.3742 72.6286 44.3451 72.4834 44.2432C72.3382 44.1413 72.2656 44.0103 72.2656 43.8502C72.2656 43.6756 72.2801 43.5301 72.3237 43.3991L76.5054 31.9744L78.0736 31.6396V31.6542ZM77.275 34.0265L75.5181 38.7564L79.0464 38.0142L77.275 34.041V34.0265Z" stroke="white" stroke-width="0.5" stroke-miterlimit="10"/>
<path d="M85.4207 40.7212C85.4207 41.2888 85.1739 41.609 84.6802 41.7109C84.1865 41.8128 83.9397 41.5799 83.9542 41.0269V31.1449C83.9542 30.5773 84.2011 30.2425 84.6657 30.1407C85.1739 30.0242 85.4353 30.2571 85.4353 30.8393V34.5941L91.5046 33.2988V29.544C91.5046 28.9764 91.7514 28.6416 92.2451 28.5252C92.7388 28.4233 92.9711 28.6562 92.9711 29.2238V39.1058C92.9711 39.6588 92.7098 39.9936 92.2306 40.0954C91.7369 40.1973 91.5046 39.9644 91.5046 39.4114V34.7542L85.4353 36.0349V40.6921L85.4207 40.7212Z" fill="white"/>
<path d="M85.4207 40.7212C85.4207 41.2888 85.1739 41.609 84.6802 41.7109C84.1865 41.8128 83.9397 41.5799 83.9542 41.0269V31.1449C83.9542 30.5773 84.2011 30.2425 84.6657 30.1407C85.1739 30.0242 85.4353 30.2571 85.4353 30.8393V34.5941L91.5046 33.2988V29.544C91.5046 28.9764 91.7514 28.6416 92.2451 28.5252C92.7388 28.4233 92.9711 28.6562 92.9711 29.2238V39.1058C92.9711 39.6588 92.7098 39.9936 92.2306 40.0954C91.7369 40.1973 91.5046 39.9644 91.5046 39.4114V34.7542L85.4353 36.0349V40.6921L85.4207 40.7212Z" stroke="white" stroke-width="0.5" stroke-miterlimit="10"/>
<path d="M100.434 26.91L104.587 36.5737C104.616 36.6901 104.645 36.8211 104.645 36.9957C104.645 37.1558 104.573 37.3159 104.427 37.476C104.282 37.6361 104.108 37.738 103.919 37.7816C103.556 37.8544 103.309 37.7234 103.164 37.3741L102.003 34.5943L97.2981 35.5986L96.122 38.8731C95.9623 39.2806 95.7155 39.5135 95.367 39.5863C95.1637 39.6299 94.9895 39.6008 94.8443 39.499C94.6991 39.3971 94.6265 39.2661 94.6265 39.106C94.6265 38.9314 94.641 38.7858 94.6845 38.6548L98.8663 27.2156L100.434 26.8809V26.91ZM99.6359 29.2822L97.8935 34.0122L101.422 33.27L99.6504 29.2968L99.6359 29.2822Z" fill="white"/>
<path d="M100.434 26.91L104.587 36.5737C104.616 36.6901 104.645 36.8211 104.645 36.9957C104.645 37.1558 104.573 37.3159 104.427 37.476C104.282 37.6361 104.108 37.738 103.919 37.7816C103.556 37.8544 103.309 37.7234 103.164 37.3741L102.003 34.5943L97.2981 35.5986L96.122 38.8731C95.9623 39.2806 95.7155 39.5135 95.367 39.5863C95.1637 39.6299 94.9895 39.6008 94.8443 39.499C94.6991 39.3971 94.6265 39.2661 94.6265 39.106C94.6265 38.9314 94.641 38.7858 94.6845 38.6548L98.8663 27.2156L100.434 26.8809V26.91ZM99.6359 29.2822L97.8935 34.0122L101.422 33.27L99.6504 29.2968L99.6359 29.2822Z" stroke="white" stroke-width="0.5" stroke-miterlimit="10"/>
<path d="M0 64.5166V82.9999L147 51.3164V32.8477L0 64.5166Z" fill="#BA2B54"/>
<path d="M5.19824 67.7478C5.19824 67.4712 5.25632 67.2384 5.387 67.0637C5.51768 66.8891 5.6774 66.7727 5.90972 66.729L9.19123 66.0304C10.2221 65.8121 11.0498 65.7394 11.6741 65.7976C12.2985 65.8703 12.7486 66.0741 13.039 66.4379C13.3294 66.8018 13.4746 67.3403 13.4746 68.0388C13.4746 68.8393 13.2713 69.5088 12.8503 70.0473C13.7505 70.382 14.2151 71.2407 14.2006 72.6378V72.9726C14.2006 73.8167 14.0554 74.5007 13.765 75.0392C13.4746 75.5777 13.01 76.0289 12.3566 76.3636C11.7177 76.7129 10.832 77.004 9.69943 77.2368L5.8952 78.0373C5.6774 78.0809 5.50316 78.0373 5.387 77.9208C5.27084 77.7899 5.19824 77.5861 5.19824 77.3096V67.7187V67.7478ZM6.66476 72.4341V76.4218L9.69943 75.7814C10.5997 75.5922 11.2531 75.403 11.6596 75.2284C12.0662 75.0537 12.3566 74.8209 12.5018 74.5298C12.647 74.2533 12.7341 73.8312 12.7341 73.2782V73.0017C12.7341 72.4486 12.6615 72.0702 12.5308 71.8519C12.4001 71.6336 12.1388 71.5172 11.7613 71.5026C11.3837 71.4881 10.8029 71.5609 10.0189 71.7355L6.66476 72.4486V72.4341ZM9.17671 70.4257C9.96079 70.2656 10.5416 70.0909 10.9336 69.9308C11.3257 69.7707 11.6015 69.567 11.7613 69.3341C11.921 69.1013 11.9936 68.7811 11.9936 68.3881C11.9936 67.9952 11.921 67.7187 11.7613 67.5586C11.6015 67.3985 11.3257 67.3257 10.9336 67.3257C10.5416 67.3257 9.94627 67.413 9.17671 67.5731L6.66476 68.1116V70.9641L9.17671 70.4257Z" fill="white"/>
<path d="M5.19824 67.7478C5.19824 67.4712 5.25632 67.2384 5.387 67.0637C5.51768 66.8891 5.6774 66.7727 5.90972 66.729L9.19123 66.0304C10.2221 65.8121 11.0498 65.7394 11.6741 65.7976C12.2985 65.8703 12.7486 66.0741 13.039 66.4379C13.3294 66.8018 13.4746 67.3403 13.4746 68.0388C13.4746 68.8393 13.2713 69.5088 12.8503 70.0473C13.7505 70.382 14.2151 71.2407 14.2006 72.6378V72.9726C14.2006 73.8167 14.0554 74.5007 13.765 75.0392C13.4746 75.5777 13.01 76.0289 12.3566 76.3636C11.7177 76.7129 10.832 77.004 9.69943 77.2368L5.8952 78.0373C5.6774 78.0809 5.50316 78.0373 5.387 77.9208C5.27084 77.7899 5.19824 77.5861 5.19824 77.3096V67.7187V67.7478ZM6.66476 72.4341V76.4218L9.69943 75.7814C10.5997 75.5922 11.2531 75.403 11.6596 75.2284C12.0662 75.0537 12.3566 74.8209 12.5018 74.5298C12.647 74.2533 12.7341 73.8312 12.7341 73.2782V73.0017C12.7341 72.4486 12.6615 72.0702 12.5308 71.8519C12.4001 71.6336 12.1388 71.5172 11.7613 71.5026C11.3837 71.4881 10.8029 71.5609 10.0189 71.7355L6.66476 72.4486V72.4341ZM9.17671 70.4257C9.96079 70.2656 10.5416 70.0909 10.9336 69.9308C11.3257 69.7707 11.6015 69.567 11.7613 69.3341C11.921 69.1013 11.9936 68.7811 11.9936 68.3881C11.9936 67.9952 11.921 67.7187 11.7613 67.5586C11.6015 67.3985 11.3257 67.3257 10.9336 67.3257C10.5416 67.3257 9.94627 67.413 9.17671 67.5731L6.66476 68.1116V70.9641L9.17671 70.4257Z" stroke="white" stroke-width="0.5" stroke-miterlimit="10"/>
<path d="M25.0761 69.8577C25.0761 70.7164 24.8873 71.5169 24.5243 72.2446C24.1613 72.9722 23.6386 73.5835 22.9562 74.0783C22.2738 74.5732 21.4752 74.9224 20.5749 75.1116C19.6747 75.3008 18.8761 75.3008 18.1936 75.0971C17.5112 74.8933 16.9885 74.5004 16.6255 73.9328C16.2625 73.3652 16.0737 72.6521 16.0737 71.7788V68.708C16.0737 67.8493 16.2625 67.0489 16.6255 66.3212C16.9885 65.5935 17.5112 64.9822 18.1936 64.4874C18.8761 63.9926 19.6747 63.6433 20.5749 63.4541C21.4752 63.2649 22.2738 63.2649 22.9562 63.4687C23.6386 63.6724 24.1613 64.0654 24.5243 64.6329C24.8873 65.2005 25.0761 65.9137 25.0761 66.7869V69.8723V69.8577ZM20.5749 64.924C19.5876 65.1278 18.8325 65.5353 18.3098 66.132C17.7871 66.7287 17.5402 67.5 17.5257 68.4315V71.4004C17.5257 72.3319 17.7726 72.9868 18.2953 73.3652C18.8035 73.7436 19.5585 73.8309 20.5459 73.6126C21.5332 73.4089 22.2883 73.0014 22.811 72.4046C23.3337 71.8079 23.5805 71.0366 23.5951 70.1052V67.1362C23.5951 66.2339 23.3482 65.5789 22.8545 65.1569C22.3318 64.7785 21.5768 64.6912 20.5749 64.9095" fill="white"/>
<path d="M25.0761 69.8577C25.0761 70.7164 24.8873 71.5169 24.5243 72.2446C24.1613 72.9722 23.6386 73.5835 22.9562 74.0783C22.2738 74.5732 21.4752 74.9224 20.5749 75.1116C19.6747 75.3008 18.8761 75.3008 18.1936 75.0971C17.5112 74.8933 16.9885 74.5004 16.6255 73.9328C16.2625 73.3652 16.0737 72.6521 16.0737 71.7788V68.708C16.0737 67.8493 16.2625 67.0489 16.6255 66.3212C16.9885 65.5935 17.5112 64.9822 18.1936 64.4874C18.8761 63.9926 19.6747 63.6433 20.5749 63.4541C21.4752 63.2649 22.2738 63.2649 22.9562 63.4687C23.6386 63.6724 24.1613 64.0654 24.5243 64.6329C24.8873 65.2005 25.0761 65.9137 25.0761 66.7869V69.8723V69.8577ZM20.5749 64.924C19.5876 65.1278 18.8325 65.5353 18.3098 66.132C17.7871 66.7287 17.5402 67.5 17.5257 68.4315V71.4004C17.5257 72.3319 17.7726 72.9868 18.2953 73.3652C18.8035 73.7436 19.5585 73.8309 20.5459 73.6126C21.5332 73.4089 22.2883 73.0014 22.811 72.4046C23.3337 71.8079 23.5805 71.0366 23.5951 70.1052V67.1362C23.5951 66.2339 23.3482 65.5789 22.8545 65.1569C22.3318 64.7785 21.5768 64.6912 20.5749 64.9095V64.924Z" stroke="white" stroke-width="0.5" stroke-miterlimit="10"/>
<path d="M32.3503 65.8701C33.0037 65.7245 33.5119 65.4771 33.9039 65.1133C34.2814 64.7495 34.4847 64.3274 34.4847 63.8617C34.4847 63.3523 34.2814 62.9739 33.8603 62.741C33.4538 62.5082 32.9165 62.4645 32.2777 62.5955L29.0833 63.265C28.8074 63.3232 28.6186 63.4105 28.5315 63.5269C28.4444 63.6434 28.4008 63.8471 28.4008 64.1673V64.4875C28.4008 65.0842 28.154 65.4335 27.6603 65.5353C27.1666 65.6372 26.9198 65.3898 26.9198 64.7931C26.9198 63.8617 27.0795 63.1776 27.3699 62.7265C27.6748 62.2899 28.1975 61.9842 28.9381 61.8241L32.3793 61.0965C33.0763 60.9509 33.6861 60.9509 34.2233 61.0965C34.7606 61.242 35.1671 61.5185 35.472 61.9115C35.7624 62.319 35.9222 62.8138 35.9076 63.4251C35.9076 64.4584 35.5301 65.3462 34.7896 66.0884C35.5301 66.5978 35.9076 67.3691 35.9076 68.417C35.9076 69.0282 35.7479 69.625 35.4575 70.178C35.1526 70.731 34.7315 71.2113 34.1943 71.6043C33.657 71.9972 33.0472 72.2737 32.3648 72.4047L28.9235 73.1324C28.183 73.2925 27.6603 73.2052 27.3554 72.8995C27.0505 72.5794 26.9053 71.9681 26.9053 71.0221C26.9053 70.4254 27.1521 70.0761 27.6458 69.9742C28.1395 69.8724 28.3863 70.1198 28.3863 70.7165V71.0367C28.3863 71.3568 28.4299 71.546 28.517 71.6188C28.6041 71.6916 28.7929 71.7061 29.0687 71.6479L32.2631 70.9785C32.8875 70.8475 33.4102 70.5564 33.8313 70.0907C34.2524 69.6395 34.4556 69.1447 34.4556 68.6062C34.4556 68.0968 34.2524 67.7184 33.8603 67.4856C33.4683 67.2527 32.9601 67.1945 32.3212 67.3255L30.8257 67.6456C30.2158 67.7766 29.9254 67.5874 29.9254 67.1072C29.9254 66.6269 30.2303 66.3067 30.8402 66.1757L32.3357 65.8555L32.3503 65.8701Z" fill="white"/>
<path d="M32.3503 65.8701C33.0037 65.7245 33.5119 65.4771 33.9039 65.1133C34.2814 64.7495 34.4847 64.3274 34.4847 63.8617C34.4847 63.3523 34.2814 62.9739 33.8603 62.741C33.4538 62.5082 32.9165 62.4645 32.2777 62.5955L29.0833 63.265C28.8074 63.3232 28.6186 63.4105 28.5315 63.5269C28.4444 63.6434 28.4008 63.8471 28.4008 64.1673V64.4875C28.4008 65.0842 28.154 65.4335 27.6603 65.5353C27.1666 65.6372 26.9198 65.3898 26.9198 64.7931C26.9198 63.8617 27.0795 63.1776 27.3699 62.7265C27.6748 62.2899 28.1975 61.9842 28.9381 61.8241L32.3793 61.0965C33.0763 60.9509 33.6861 60.9509 34.2233 61.0965C34.7606 61.242 35.1671 61.5185 35.472 61.9115C35.7624 62.319 35.9222 62.8138 35.9076 63.4251C35.9076 64.4584 35.5301 65.3462 34.7896 66.0884C35.5301 66.5978 35.9076 67.3691 35.9076 68.417C35.9076 69.0282 35.7479 69.625 35.4575 70.178C35.1526 70.731 34.7315 71.2113 34.1943 71.6043C33.657 71.9972 33.0472 72.2737 32.3648 72.4047L28.9235 73.1324C28.183 73.2925 27.6603 73.2052 27.3554 72.8995C27.0505 72.5794 26.9053 71.9681 26.9053 71.0221C26.9053 70.4254 27.1521 70.0761 27.6458 69.9742C28.1395 69.8724 28.3863 70.1198 28.3863 70.7165V71.0367C28.3863 71.3568 28.4299 71.546 28.517 71.6188C28.6041 71.6916 28.7929 71.7061 29.0687 71.6479L32.2631 70.9785C32.8875 70.8475 33.4102 70.5564 33.8313 70.0907C34.2524 69.6395 34.4556 69.1447 34.4556 68.6062C34.4556 68.0968 34.2524 67.7184 33.8603 67.4856C33.4683 67.2527 32.9601 67.1945 32.3212 67.3255L30.8257 67.6456C30.2158 67.7766 29.9254 67.5874 29.9254 67.1072C29.9254 66.6269 30.2303 66.3067 30.8402 66.1757L32.3357 65.8555L32.3503 65.8701Z" stroke="white" stroke-width="0.5" stroke-miterlimit="10"/>
<path d="M43.5746 64.9388C43.4149 65.1425 43.2261 65.2589 43.0083 65.3026C42.7905 65.3463 42.6017 65.3026 42.4275 65.1862L39.7849 61.9552V70.1053C39.7849 70.702 39.538 71.0513 39.0444 71.1532C38.5507 71.2551 38.3184 71.0222 38.3184 70.4692V60.5872C38.3184 60.0196 38.5652 59.6848 39.0298 59.583C39.3202 59.5248 39.5671 59.6266 39.7849 59.874L43.0083 63.7162L46.2608 58.4769C46.4786 58.1422 46.7254 57.9384 47.0013 57.8802C47.4804 57.7783 47.7128 58.0112 47.7128 58.5788V68.4608C47.7128 69.0138 47.4659 69.3485 46.9722 69.4504C46.4786 69.5523 46.2317 69.3049 46.2317 68.7082V60.5581L43.5891 64.9096L43.5746 64.9388Z" fill="white"/>
<path d="M43.5746 64.9388C43.4149 65.1425 43.2261 65.2589 43.0083 65.3026C42.7905 65.3463 42.6017 65.3026 42.4275 65.1862L39.7849 61.9552V70.1053C39.7849 70.702 39.538 71.0513 39.0444 71.1532C38.5507 71.2551 38.3184 71.0222 38.3184 70.4692V60.5872C38.3184 60.0196 38.5652 59.6848 39.0298 59.583C39.3202 59.5248 39.5671 59.6266 39.7849 59.874L43.0083 63.7162L46.2608 58.4769C46.4786 58.1422 46.7254 57.9384 47.0013 57.8802C47.4804 57.7783 47.7128 58.0112 47.7128 58.5788V68.4608C47.7128 69.0138 47.4659 69.3485 46.9722 69.4504C46.4786 69.5523 46.2317 69.3049 46.2317 68.7082V60.5581L43.5891 64.9096L43.5746 64.9388Z" stroke="white" stroke-width="0.5" stroke-miterlimit="10"/>
<path d="M59.0673 62.6536C59.0673 63.5123 58.8786 64.3128 58.5156 65.0405C58.1526 65.7681 57.6298 66.3794 56.9474 66.8742C56.265 67.3691 55.4664 67.7183 54.5661 67.9075C53.6659 68.0967 52.8673 68.0967 52.1849 67.893C51.5024 67.6892 50.9797 67.2963 50.6167 66.7287C50.2537 66.1611 50.0649 65.448 50.0649 64.5747V61.5039C50.0649 60.6452 50.2537 59.8448 50.6167 59.1171C50.9797 58.3894 51.5024 57.7781 52.1849 57.2833C52.8673 56.7885 53.6659 56.4392 54.5661 56.25C55.4664 56.0608 56.265 56.0608 56.9474 56.2645C57.6298 56.4683 58.1526 56.8612 58.5156 57.4288C58.8786 57.9964 59.0673 58.7096 59.0673 59.5828V62.6682V62.6536ZM54.5661 57.7199C53.5788 57.9237 52.8237 58.3312 52.301 58.9279C51.7783 59.5246 51.5315 60.2959 51.5169 61.2274V64.1963C51.5169 65.1278 51.7638 65.7827 52.2865 66.1611C52.7947 66.5395 53.5497 66.6268 54.5371 66.4085C55.5244 66.2048 56.2795 65.7972 56.8022 65.2005C57.3249 64.6038 57.5718 63.8325 57.5863 62.9011V59.9321C57.5863 59.0298 57.3394 58.3748 56.8458 57.9528C56.323 57.5744 55.568 57.4871 54.5661 57.7054" fill="white"/>
<path d="M59.0673 62.6536C59.0673 63.5123 58.8786 64.3128 58.5156 65.0405C58.1526 65.7681 57.6298 66.3794 56.9474 66.8742C56.265 67.3691 55.4664 67.7183 54.5661 67.9075C53.6659 68.0967 52.8673 68.0967 52.1849 67.893C51.5024 67.6892 50.9797 67.2963 50.6167 66.7287C50.2537 66.1611 50.0649 65.448 50.0649 64.5747V61.5039C50.0649 60.6452 50.2537 59.8448 50.6167 59.1171C50.9797 58.3894 51.5024 57.7781 52.1849 57.2833C52.8673 56.7885 53.6659 56.4392 54.5661 56.25C55.4664 56.0608 56.265 56.0608 56.9474 56.2645C57.6298 56.4683 58.1526 56.8612 58.5156 57.4288C58.8786 57.9964 59.0673 58.7096 59.0673 59.5828V62.6682V62.6536ZM54.5661 57.7199C53.5788 57.9237 52.8237 58.3312 52.301 58.9279C51.7783 59.5246 51.5315 60.2959 51.5169 61.2274V64.1963C51.5169 65.1278 51.7638 65.7827 52.2865 66.1611C52.7947 66.5395 53.5497 66.6268 54.5371 66.4085C55.5244 66.2048 56.2795 65.7972 56.8022 65.2005C57.3249 64.6038 57.5718 63.8325 57.5863 62.9011V59.9321C57.5863 59.0298 57.3394 58.3748 56.8458 57.9528C56.323 57.5744 55.568 57.4871 54.5661 57.7054V57.7199Z" stroke="white" stroke-width="0.5" stroke-miterlimit="10"/>
<path d="M67.9681 60.3398V64.2111C67.9681 64.4439 67.8955 64.6477 67.7358 64.8369C67.5906 65.0261 67.3873 65.1425 67.155 65.1862C66.9372 65.2298 66.7629 65.1862 66.6177 65.0697C66.4871 64.9533 66.4145 64.7641 66.4145 64.5312V60.6599L66.2983 60.689C65.7901 60.8055 65.3545 61.0238 64.9915 61.3731C64.6285 61.7224 64.3671 62.159 64.2074 62.712C64.1058 63.0322 63.9606 63.527 63.7718 64.1674C63.5831 64.7495 63.3072 65.2444 62.9297 65.6228C62.5521 66.0012 62.102 66.2486 61.5793 66.365C61.3034 66.4232 61.0856 66.4087 60.9114 66.3068C60.7372 66.2049 60.6646 66.0448 60.6646 65.8265C60.6646 65.3317 60.9695 65.0261 61.5648 64.8951C61.6229 64.8951 61.6809 64.8223 61.7535 64.735C61.8116 64.6331 61.8697 64.5167 61.9133 64.3566C62.0875 63.789 62.2182 63.3524 62.3053 63.0176C62.436 62.4937 62.6828 61.9407 63.0603 61.3731C63.4379 60.8055 63.8735 60.3543 64.3671 60.0196C64.1058 59.7576 63.7718 59.321 63.3943 58.7243C62.9732 58.0839 62.6247 57.5745 62.3489 57.2398C62.0875 56.9051 61.8262 56.7595 61.5648 56.7886C61.2889 56.8323 61.0711 56.8178 60.9114 56.7159C60.7517 56.614 60.6791 56.4539 60.6791 56.2211C60.6791 55.7408 60.955 55.4497 61.5212 55.3187C61.9713 55.2168 62.4215 55.2751 62.8571 55.4934C63.2927 55.6971 63.7137 56.061 64.0913 56.5558C64.3526 56.9196 64.6575 57.3417 64.977 57.822C65.2819 58.3022 65.5433 58.6515 65.7611 58.8844C65.9643 59.1609 66.1531 59.2773 66.3128 59.2337L66.4145 59.2046V55.1441C66.4145 54.8821 66.4871 54.6492 66.6323 54.4746C66.7775 54.3 66.9517 54.1835 67.1985 54.1253C67.7067 54.0234 67.9681 54.2417 67.9681 54.8239V58.8844L68.0697 58.8553C68.2149 58.8262 68.4037 58.6224 68.6505 58.2586C68.8393 57.9821 69.1006 57.5163 69.4491 56.8614C69.8412 56.1192 70.1751 55.5225 70.4655 55.0422C70.7559 54.5619 71.0899 54.1253 71.4819 53.7324C71.932 53.2812 72.3822 53.0192 72.8323 52.9173C73.1082 52.8591 73.3259 52.8737 73.5002 52.9756C73.6599 53.0774 73.747 53.2375 73.747 53.4558C73.747 53.6741 73.6744 53.8633 73.5147 54.0234C73.3695 54.1835 73.1372 54.3 72.8468 54.3727C72.5854 54.4455 72.3096 54.722 72.0482 55.1732C71.7578 55.6243 71.4093 56.2647 71.0028 57.0943C70.6252 57.822 70.3058 58.3896 70.0299 58.8116C70.3929 58.8989 70.7124 59.0445 71.0173 59.2628C71.3077 59.4811 71.54 59.7285 71.6852 60.0341C72.0046 60.6017 72.237 61.1984 72.3822 61.7951C72.4257 62.0571 72.4983 62.2463 72.5709 62.3627C72.658 62.4792 72.7452 62.5374 72.8323 62.5228C73.0936 62.4646 73.3114 62.4792 73.4857 62.581C73.6599 62.6829 73.7325 62.843 73.7325 63.0613C73.7325 63.5561 73.4131 63.8618 72.7887 63.9928C72.266 64.1092 71.8159 64.051 71.4384 63.8327C71.0608 63.6144 70.785 63.236 70.6252 62.7266C70.5526 62.5374 70.5091 62.3773 70.4946 62.29C70.3203 61.8097 70.1606 61.4167 70.0299 61.1548C69.8992 60.8928 69.7105 60.6599 69.4636 60.4853C69.1152 60.267 68.665 60.2233 68.0988 60.3398L67.9826 60.3689L67.9681 60.3398Z" fill="white"/>
<path d="M67.9681 60.3398V64.2111C67.9681 64.4439 67.8955 64.6477 67.7358 64.8369C67.5906 65.0261 67.3873 65.1425 67.155 65.1862C66.9372 65.2298 66.7629 65.1862 66.6177 65.0697C66.4871 64.9533 66.4145 64.7641 66.4145 64.5312V60.6599L66.2983 60.689C65.7901 60.8055 65.3545 61.0238 64.9915 61.3731C64.6285 61.7224 64.3671 62.159 64.2074 62.712C64.1058 63.0322 63.9606 63.527 63.7718 64.1674C63.5831 64.7495 63.3072 65.2444 62.9297 65.6228C62.5521 66.0012 62.102 66.2486 61.5793 66.365C61.3034 66.4232 61.0856 66.4087 60.9114 66.3068C60.7372 66.2049 60.6646 66.0448 60.6646 65.8265C60.6646 65.3317 60.9695 65.0261 61.5648 64.8951C61.6229 64.8951 61.6809 64.8223 61.7535 64.735C61.8116 64.6331 61.8697 64.5167 61.9133 64.3566C62.0875 63.789 62.2182 63.3524 62.3053 63.0176C62.436 62.4937 62.6828 61.9407 63.0603 61.3731C63.4379 60.8055 63.8735 60.3543 64.3671 60.0196C64.1058 59.7576 63.7718 59.321 63.3943 58.7243C62.9732 58.0839 62.6247 57.5745 62.3489 57.2398C62.0875 56.9051 61.8262 56.7595 61.5648 56.7886C61.2889 56.8323 61.0711 56.8178 60.9114 56.7159C60.7517 56.614 60.6791 56.4539 60.6791 56.2211C60.6791 55.7408 60.955 55.4497 61.5212 55.3187C61.9713 55.2168 62.4215 55.2751 62.8571 55.4934C63.2927 55.6971 63.7137 56.061 64.0913 56.5558C64.3526 56.9196 64.6575 57.3417 64.977 57.822C65.2819 58.3022 65.5433 58.6515 65.7611 58.8844C65.9643 59.1609 66.1531 59.2773 66.3128 59.2337L66.4145 59.2046V55.1441C66.4145 54.8821 66.4871 54.6492 66.6323 54.4746C66.7775 54.3 66.9517 54.1835 67.1985 54.1253C67.7067 54.0234 67.9681 54.2417 67.9681 54.8239V58.8844L68.0697 58.8553C68.2149 58.8262 68.4037 58.6224 68.6505 58.2586C68.8393 57.9821 69.1006 57.5163 69.4491 56.8614C69.8412 56.1192 70.1751 55.5225 70.4655 55.0422C70.7559 54.5619 71.0899 54.1253 71.4819 53.7324C71.932 53.2812 72.3822 53.0192 72.8323 52.9173C73.1082 52.8591 73.3259 52.8737 73.5002 52.9756C73.6599 53.0774 73.747 53.2375 73.747 53.4558C73.747 53.6741 73.6744 53.8633 73.5147 54.0234C73.3695 54.1835 73.1372 54.3 72.8468 54.3727C72.5854 54.4455 72.3096 54.722 72.0482 55.1732C71.7578 55.6243 71.4093 56.2647 71.0028 57.0943C70.6252 57.822 70.3058 58.3896 70.0299 58.8116C70.3929 58.8989 70.7124 59.0445 71.0173 59.2628C71.3077 59.4811 71.54 59.7285 71.6852 60.0341C72.0046 60.6017 72.237 61.1984 72.3822 61.7951C72.4257 62.0571 72.4983 62.2463 72.5709 62.3627C72.658 62.4792 72.7452 62.5374 72.8323 62.5228C73.0936 62.4646 73.3114 62.4792 73.4857 62.581C73.6599 62.6829 73.7325 62.843 73.7325 63.0613C73.7325 63.5561 73.4131 63.8618 72.7887 63.9928C72.266 64.1092 71.8159 64.051 71.4384 63.8327C71.0608 63.6144 70.785 63.236 70.6252 62.7266C70.5526 62.5374 70.5091 62.3773 70.4946 62.29C70.3203 61.8097 70.1606 61.4167 70.0299 61.1548C69.8992 60.8928 69.7105 60.6599 69.4636 60.4853C69.1152 60.267 68.665 60.2233 68.0988 60.3398L67.9826 60.3689L67.9681 60.3398Z" stroke="white" stroke-width="0.5" stroke-miterlimit="10"/>
<path d="M77.1444 62.2316C77.1444 62.7992 76.8975 63.1194 76.4038 63.2212C75.9102 63.3231 75.6633 63.0903 75.6779 62.5372V52.6552C75.6779 52.0876 75.9247 51.7529 76.3893 51.651C76.8975 51.5346 77.1589 51.7675 77.1589 52.3496V56.1045L83.2282 54.8237V51.0689C83.2282 50.5013 83.4751 50.1665 83.9687 50.0501C84.4624 49.9482 84.7093 50.1811 84.7093 50.7487V60.6307C84.7093 61.1837 84.4479 61.5185 83.9687 61.6203C83.4751 61.7222 83.2428 61.5039 83.2428 60.9363V56.2791L77.1734 57.5744V62.2316H77.1444Z" fill="white"/>
<path d="M77.1444 62.2316C77.1444 62.7992 76.8975 63.1194 76.4038 63.2212C75.9102 63.3231 75.6633 63.0903 75.6779 62.5372V52.6552C75.6779 52.0876 75.9247 51.7529 76.3893 51.651C76.8975 51.5346 77.1589 51.7675 77.1589 52.3496V56.1045L83.2282 54.8237V51.0689C83.2282 50.5013 83.4751 50.1665 83.9687 50.0501C84.4624 49.9482 84.7093 50.1811 84.7093 50.7487V60.6307C84.7093 61.1837 84.4479 61.5185 83.9687 61.6203C83.4751 61.7222 83.2428 61.5039 83.2428 60.9363V56.2791L77.1734 57.5744V62.2316H77.1444Z" stroke="white" stroke-width="0.5" stroke-miterlimit="10"/>
<path d="M96.0492 54.8094C96.0492 55.6681 95.8605 56.4685 95.4975 57.1962C95.1345 57.9239 94.6118 58.5352 93.9293 59.03C93.2469 59.5248 92.4483 59.8741 91.5481 60.0633C90.6478 60.2525 89.8492 60.2525 89.1668 60.0487C88.4843 59.845 87.9616 59.452 87.5986 58.8845C87.2356 58.3169 87.0469 57.6037 87.0469 56.7305V53.6597C87.0469 52.801 87.2356 52.0005 87.5986 51.2728C87.9616 50.5452 88.4843 49.9339 89.1668 49.4391C89.8492 48.9442 90.6478 48.595 91.5481 48.4058C92.4483 48.2166 93.2469 48.2166 93.9293 48.4203C94.6118 48.6241 95.1345 49.017 95.4975 49.5846C95.8605 50.1522 96.0492 50.8653 96.0492 51.7386V54.824V54.8094ZM91.5481 49.8757C90.5607 50.0794 89.8057 50.4869 89.2829 51.0836C88.7602 51.6803 88.5134 52.4517 88.4989 53.3831V56.3521C88.4989 57.2835 88.7457 57.9385 89.2684 58.3169C89.7766 58.6953 90.5317 58.7826 91.519 58.5643C92.5064 58.3605 93.2614 57.953 93.7841 57.3563C94.3068 56.7596 94.5537 55.9883 94.5682 55.0568V52.0879C94.5682 51.1855 94.3214 50.5306 93.8277 50.1085C93.305 49.7301 92.5499 49.6428 91.5481 49.8611" fill="white"/>
<path d="M96.0492 54.8094C96.0492 55.6681 95.8605 56.4685 95.4975 57.1962C95.1345 57.9239 94.6118 58.5352 93.9293 59.03C93.2469 59.5248 92.4483 59.8741 91.5481 60.0633C90.6478 60.2525 89.8492 60.2525 89.1668 60.0487C88.4843 59.845 87.9616 59.452 87.5986 58.8845C87.2356 58.3169 87.0469 57.6037 87.0469 56.7305V53.6597C87.0469 52.801 87.2356 52.0005 87.5986 51.2728C87.9616 50.5452 88.4843 49.9339 89.1668 49.4391C89.8492 48.9442 90.6478 48.595 91.5481 48.4058C92.4483 48.2166 93.2469 48.2166 93.9293 48.4203C94.6118 48.6241 95.1345 49.017 95.4975 49.5846C95.8605 50.1522 96.0492 50.8653 96.0492 51.7386V54.824V54.8094ZM91.5481 49.8757C90.5607 50.0794 89.8057 50.4869 89.2829 51.0836C88.7602 51.6803 88.5134 52.4517 88.4989 53.3831V56.3521C88.4989 57.2835 88.7457 57.9385 89.2684 58.3169C89.7766 58.6953 90.5317 58.7826 91.519 58.5643C92.5064 58.3605 93.2614 57.953 93.7841 57.3563C94.3068 56.7596 94.5537 55.9883 94.5682 55.0568V52.0879C94.5682 51.1855 94.3214 50.5306 93.8277 50.1085C93.305 49.7301 92.5499 49.6428 91.5481 49.8611V49.8757Z" stroke="white" stroke-width="0.5" stroke-miterlimit="10"/>
<path d="M102.714 57.5162C101.581 57.7636 100.681 57.8363 100.042 57.7636C99.3889 57.6908 98.9242 57.4434 98.6338 57.0213C98.3434 56.5993 98.1982 55.9735 98.1982 55.1439V50.4576C98.1982 49.628 98.3434 48.944 98.6193 48.4055C98.8952 47.867 99.3308 47.4304 99.9406 47.0811C100.55 46.7318 101.378 46.4553 102.409 46.237L105.182 45.6549C105.865 45.5093 106.373 45.5821 106.707 45.8586C107.041 46.1351 107.201 46.6445 107.201 47.3722C107.201 48.0271 106.954 48.4055 106.46 48.5074C106.228 48.5511 106.054 48.5074 105.923 48.3764C105.792 48.2454 105.734 48.0271 105.734 47.736C105.734 47.445 105.691 47.2558 105.589 47.183C105.502 47.1102 105.313 47.0957 105.052 47.1539L102.395 47.7215C101.596 47.8961 101.001 48.0708 100.638 48.2309C100.26 48.4055 100.013 48.6384 99.868 48.9294C99.7228 49.2205 99.6648 49.6426 99.6648 50.1811V54.7946C99.6648 55.3622 99.7374 55.7406 99.8826 55.9735C100.028 56.1918 100.304 56.3082 100.725 56.3228C101.146 56.3228 101.799 56.2354 102.714 56.0462L105.052 55.5514C105.313 55.4932 105.502 55.4059 105.589 55.2894C105.676 55.173 105.734 54.9693 105.734 54.6782C105.734 54.3871 105.792 54.1397 105.923 53.9505C106.054 53.7613 106.228 53.6449 106.46 53.5866C106.954 53.4993 107.186 53.7759 107.186 54.4308C107.186 55.1585 107.012 55.7261 106.692 56.1481C106.358 56.5702 105.85 56.8467 105.168 56.9922L102.714 57.5162Z" fill="white"/>
<path d="M102.714 57.5162C101.581 57.7636 100.681 57.8363 100.042 57.7636C99.3889 57.6908 98.9242 57.4434 98.6338 57.0213C98.3434 56.5993 98.1982 55.9735 98.1982 55.1439V50.4576C98.1982 49.628 98.3434 48.944 98.6193 48.4055C98.8952 47.867 99.3308 47.4304 99.9406 47.0811C100.55 46.7318 101.378 46.4553 102.409 46.237L105.182 45.6549C105.865 45.5093 106.373 45.5821 106.707 45.8586C107.041 46.1351 107.201 46.6445 107.201 47.3722C107.201 48.0271 106.954 48.4055 106.46 48.5074C106.228 48.5511 106.054 48.5074 105.923 48.3764C105.792 48.2454 105.734 48.0271 105.734 47.736C105.734 47.445 105.691 47.2558 105.589 47.183C105.502 47.1102 105.313 47.0957 105.052 47.1539L102.395 47.7215C101.596 47.8961 101.001 48.0708 100.638 48.2309C100.26 48.4055 100.013 48.6384 99.868 48.9294C99.7228 49.2205 99.6648 49.6426 99.6648 50.1811V54.7946C99.6648 55.3622 99.7374 55.7406 99.8826 55.9735C100.028 56.1918 100.304 56.3082 100.725 56.3228C101.146 56.3228 101.799 56.2354 102.714 56.0462L105.052 55.5514C105.313 55.4932 105.502 55.4059 105.589 55.2894C105.676 55.173 105.734 54.9693 105.734 54.6782C105.734 54.3871 105.792 54.1397 105.923 53.9505C106.054 53.7613 106.228 53.6449 106.46 53.5866C106.954 53.4993 107.186 53.7759 107.186 54.4308C107.186 55.1585 107.012 55.7261 106.692 56.1481C106.358 56.5702 105.85 56.8467 105.168 56.9922L102.714 57.5162Z" stroke="white" stroke-width="0.5" stroke-miterlimit="10"/>
<path d="M115.927 43.3848C116.494 43.2684 116.784 43.443 116.784 43.9378C116.784 44.4327 116.494 44.7383 115.927 44.8547L113.445 45.3787V54.5621C113.445 54.7949 113.357 54.9987 113.198 55.1879C113.038 55.3771 112.835 55.4935 112.573 55.5517C112.312 55.6099 112.123 55.5808 111.978 55.4644C111.833 55.348 111.775 55.1733 111.775 54.9114V45.728L109.277 46.2664C109.016 46.3247 108.798 46.2955 108.653 46.1937C108.508 46.0918 108.421 45.9317 108.435 45.7134C108.435 45.4951 108.508 45.2913 108.667 45.1312C108.813 44.9712 109.03 44.8547 109.292 44.7965L115.942 43.3848H115.927Z" fill="white"/>
<path d="M115.927 43.3848C116.494 43.2684 116.784 43.443 116.784 43.9378C116.784 44.4327 116.494 44.7383 115.927 44.8547L113.445 45.3787V54.5621C113.445 54.7949 113.357 54.9987 113.198 55.1879C113.038 55.3771 112.835 55.4935 112.573 55.5517C112.312 55.6099 112.123 55.5808 111.978 55.4644C111.833 55.348 111.775 55.1733 111.775 54.9114V45.728L109.277 46.2664C109.016 46.3247 108.798 46.2955 108.653 46.1937C108.508 46.0918 108.421 45.9317 108.435 45.7134C108.435 45.4951 108.508 45.2913 108.667 45.1312C108.813 44.9712 109.03 44.8547 109.292 44.7965L115.942 43.3848H115.927Z" stroke="white" stroke-width="0.5" stroke-miterlimit="10"/>
<path d="M119.978 48.2309V52.3933L126.643 50.9816C126.919 50.9233 127.137 50.9379 127.296 51.0398C127.441 51.1417 127.529 51.3163 127.529 51.5637C127.529 51.782 127.456 51.9712 127.296 52.1313C127.151 52.2914 126.933 52.3933 126.643 52.4515L119.209 54.0233C118.991 54.067 118.817 54.0233 118.7 53.9069C118.584 53.7759 118.512 53.5721 118.512 53.2956V43.7047C118.512 43.4282 118.584 43.1953 118.7 43.0207C118.831 42.846 118.991 42.7296 119.209 42.6859L126.643 41.1141C126.919 41.0559 127.137 41.0705 127.282 41.1723C127.427 41.2742 127.514 41.4489 127.514 41.6963C127.514 41.9146 127.441 42.1038 127.282 42.2639C127.122 42.424 126.919 42.5258 126.628 42.5841L119.964 43.9958V46.761L124.479 45.8004C124.799 45.7277 125.031 45.7422 125.205 45.8441C125.365 45.9314 125.452 46.1061 125.452 46.368C125.452 46.8337 125.133 47.1394 124.479 47.2704L119.964 48.2309H119.978Z" fill="white"/>
<path d="M119.978 48.2309V52.3933L126.643 50.9816C126.919 50.9233 127.137 50.9379 127.296 51.0398C127.441 51.1417 127.529 51.3163 127.529 51.5637C127.529 51.782 127.456 51.9712 127.296 52.1313C127.151 52.2914 126.933 52.3933 126.643 52.4515L119.209 54.0233C118.991 54.067 118.817 54.0233 118.7 53.9069C118.584 53.7759 118.512 53.5721 118.512 53.2956V43.7047C118.512 43.4282 118.584 43.1953 118.7 43.0207C118.831 42.846 118.991 42.7296 119.209 42.6859L126.643 41.1141C126.919 41.0559 127.137 41.0705 127.282 41.1723C127.427 41.2742 127.514 41.4489 127.514 41.6963C127.514 41.9146 127.441 42.1038 127.282 42.2639C127.122 42.424 126.919 42.5258 126.628 42.5841L119.964 43.9958V46.761L124.479 45.8004C124.799 45.7277 125.031 45.7422 125.205 45.8441C125.365 45.9314 125.452 46.1061 125.452 46.368C125.452 46.8337 125.133 47.1394 124.479 47.2704L119.964 48.2309H119.978Z" stroke="white" stroke-width="0.5" stroke-miterlimit="10"/>
<path d="M129.605 51.0981V41.2161C129.605 40.6485 129.852 40.3137 130.345 40.1973C130.839 40.0954 131.071 40.3428 131.071 40.9541V49.0023L137.155 39.1931C137.373 38.8584 137.62 38.6546 137.91 38.5964C138.375 38.4945 138.607 38.7419 138.607 39.3095V49.1915C138.607 49.7446 138.346 50.0793 137.867 50.1812C137.373 50.2831 137.141 50.0793 137.141 49.5554V41.4053L131.115 51.1272C130.97 51.36 130.854 51.5056 130.752 51.5929C130.65 51.6802 130.505 51.7384 130.316 51.7821C129.837 51.884 129.605 51.6511 129.605 51.0981ZM133.032 40.0518C132.349 40.1973 131.87 40.1245 131.58 39.8335C131.304 39.5424 131.159 38.9748 131.159 38.1161V37.3593L132.625 37.0537V38.087C132.625 38.349 132.654 38.4945 132.712 38.5527C132.77 38.6109 132.916 38.6109 133.162 38.5527L134.948 38.1743C135.181 38.1307 135.326 38.0579 135.384 37.9851C135.442 37.9124 135.471 37.7377 135.471 37.4903V36.457L136.938 36.1514V36.9082C136.938 37.7668 136.792 38.4072 136.516 38.8001C136.241 39.2077 135.747 39.4842 135.064 39.6297L133.017 40.0663L133.032 40.0518Z" fill="white"/>
<path d="M129.605 51.0981V41.2161C129.605 40.6485 129.852 40.3137 130.345 40.1973C130.839 40.0954 131.071 40.3428 131.071 40.9541V49.0023L137.155 39.1931C137.373 38.8584 137.62 38.6546 137.91 38.5964C138.375 38.4945 138.607 38.7419 138.607 39.3095V49.1915C138.607 49.7446 138.346 50.0793 137.867 50.1812C137.373 50.2831 137.141 50.0793 137.141 49.5554V41.4053L131.115 51.1272C130.97 51.36 130.854 51.5056 130.752 51.5929C130.65 51.6802 130.505 51.7384 130.316 51.7821C129.837 51.884 129.605 51.6511 129.605 51.0981ZM133.032 40.0518C132.349 40.1973 131.87 40.1245 131.58 39.8335C131.304 39.5424 131.159 38.9748 131.159 38.1161V37.3593L132.625 37.0537V38.087C132.625 38.349 132.654 38.4945 132.712 38.5527C132.77 38.6109 132.916 38.6109 133.162 38.5527L134.948 38.1743C135.181 38.1307 135.326 38.0579 135.384 37.9851C135.442 37.9124 135.471 37.7377 135.471 37.4903V36.457L136.938 36.1514V36.9082C136.938 37.7668 136.792 38.4072 136.516 38.8001C136.241 39.2077 135.747 39.4842 135.064 39.6297L133.017 40.0663L133.032 40.0518Z" stroke="white" stroke-width="0.5" stroke-miterlimit="10"/>
</g>
<defs>
<clipPath id="clip0_4904_896">
<rect width="147" height="83" fill="white"/>
</clipPath>
</defs>
</svg>
