<svg width="133" height="83" viewBox="0 0 133 83" fill="none" xmlns="http://www.w3.org/2000/svg">
<g clip-path="url(#clip0_4904_1005)">
<path d="M1.43187 77.0371C1.43187 78.8114 1.97246 80.0621 2.68838 80.862C3.57963 82.011 4.74847 82.3746 5.72738 82.3746V82.9127H5.63972C4.57315 82.9127 2.68838 82.7382 1.35882 81.1384C0.467576 80.0767 0.0146484 78.6514 0.0146484 77.4007C0.0146484 76.4263 0.189975 75.1755 1.25655 73.9393C1.97246 72.9649 3.21436 71.8887 5.62511 71.8014V72.3395C5.62511 72.2523 5.53744 72.2523 5.53744 72.2523C4.73386 72.2523 3.38969 72.4268 2.49845 73.4885C1.78253 74.4629 1.43187 75.6264 1.43187 77.0371ZM5.71277 72.4122C6.60401 72.4122 7.67059 72.674 8.57644 73.5612C9.38002 74.4483 10.0083 75.6991 10.0083 77.5607C10.0083 78.7096 9.83295 80.0476 8.94171 81.1093C8.40111 81.7346 7.50987 82.3455 6.09264 82.3455H5.74199V82.8836C7.88974 82.8836 9.13164 81.9092 9.93522 81.1093C10.7388 80.2221 11.3671 78.9714 11.3671 77.1098C11.3671 75.9609 11.1041 74.2593 9.7599 73.1103C8.50339 72.0486 6.9985 71.6851 5.74199 71.6851H5.65433V72.3977H5.74199L5.71277 72.4122Z" fill="#003571"/>
<path d="M21.9595 73.0377C21.9595 72.9504 21.9595 72.8631 21.8718 72.7759C21.7842 72.6886 21.6965 72.6886 21.6088 72.6886H16.2467C16.1591 72.6886 16.0714 72.6886 15.9838 72.7759C15.8961 72.8631 15.8961 72.9504 15.8961 73.0377V80.4112C15.8961 80.673 15.9838 81.8365 16.0714 82.1855C16.1591 82.4473 16.2468 82.5346 16.6997 82.6218H16.875C17.0503 82.6218 17.2257 82.5346 17.2257 82.7091C17.2257 82.7964 17.0503 82.7964 17.0503 82.7964H16.9627C16.7873 82.7964 16.612 82.7091 16.4221 82.7091H14.099C13.8652 82.7673 13.7191 82.7964 13.6607 82.7964C13.573 82.7964 13.573 82.7091 13.573 82.7091C13.573 82.6218 13.6607 82.6218 13.7483 82.6218H13.9237C14.2743 82.5346 14.3766 82.4473 14.4643 82.1855C14.5519 81.9238 14.6396 81.4729 14.6396 80.0476V74.0121C14.6396 73.8375 14.6396 73.1249 14.5519 72.8631C14.5519 72.7759 14.4643 72.6013 14.3766 72.5141C14.2013 72.3396 14.0259 72.3396 13.836 72.3396H13.573C13.573 72.3396 13.4854 72.3396 13.4854 72.2523C13.4854 72.165 13.573 72.165 13.6607 72.165H14.2013C14.3766 72.165 14.9172 72.2523 15.4432 72.2523H22.6754C22.9384 72.2523 23.3037 72.2523 23.9173 72.165H24.005C24.0926 72.165 24.1803 72.2523 24.1803 72.2523C24.1803 72.3396 24.0926 72.3396 24.005 72.3396H23.9173C23.5666 72.4268 23.3767 72.4268 23.289 72.6886C23.2014 72.7759 23.2014 73.0377 23.1137 73.663V80.0622C23.1137 80.4112 23.1137 81.7492 23.289 82.2001C23.3767 82.4619 23.4644 82.5491 23.9173 82.6364H24.1803C24.3556 82.6364 24.5309 82.5491 24.5309 82.7237C24.5309 82.8109 24.4433 82.8109 24.3556 82.8109H24.268C24.0926 82.8109 23.815 82.7237 23.6397 82.7237H21.4919C21.229 82.8109 21.1413 82.8109 21.1413 82.8109C21.0536 82.8109 20.966 82.7237 20.966 82.7237C20.966 82.6364 21.0536 82.6364 21.1413 82.6364H21.4043C21.6673 82.5491 21.7549 82.4619 21.8572 82.2001C22.0325 81.7638 22.0325 80.9493 22.0325 80.4258V73.0522H21.9449L21.9595 73.0377Z" fill="#003571"/>
<path d="M28.0229 77.0371C27.9353 78.8114 28.5635 80.0621 29.1772 80.862C30.0684 82.011 31.3249 82.3746 32.2161 82.3746V82.9127H32.1285C31.0619 82.9127 29.1772 82.7382 27.8476 81.1384C26.9563 80.0767 26.5034 78.6514 26.5034 77.4007C26.5034 76.4263 26.7664 75.1755 27.7453 73.9393C28.5489 72.9649 29.8054 71.8887 32.2161 71.8014V72.3395C32.2161 72.2523 32.1285 72.2523 32.1285 72.2523C31.3249 72.2523 30.083 72.4268 29.0895 73.4885C28.3736 74.4629 28.0229 75.6264 28.0229 77.0371ZM32.3038 72.4122C33.1951 72.4122 34.2616 72.674 35.1675 73.5612C35.9711 74.4483 36.5993 75.6991 36.5993 77.5607C36.5993 78.7096 36.424 80.0476 35.5327 81.1093C34.9922 81.7346 34.1009 82.3455 32.6691 82.3455H32.4061V82.8836C34.5538 82.8836 35.7957 81.9092 36.5117 81.1093C37.3152 80.2221 38.0312 78.9714 38.0312 77.1098C38.0312 75.9609 37.6805 74.2593 36.3363 73.1103C35.1821 72.0486 33.6626 71.6851 32.4061 71.6851V72.3977H32.3184L32.3038 72.4122Z" fill="#003571"/>
<path d="M41.5085 74.2011C41.5085 73.1395 41.4208 72.7759 41.4208 72.6886C41.3332 72.6013 41.2455 72.3396 40.7926 72.3396H40.6173C40.5296 72.3396 40.2666 72.3396 40.2666 72.2523C40.2666 72.165 40.3543 72.165 40.4419 72.165H40.5296C41.1578 72.2523 41.5962 72.2523 41.9614 72.2523H42.6773C43.028 72.165 43.3056 72.165 43.7439 72.165C45.3511 72.165 46.067 72.5141 46.6076 72.9649C47.1482 73.503 47.3235 74.1139 47.3235 74.652C47.3235 75.2774 47.2358 76.1645 46.4323 77.0517C45.6287 77.8516 44.7374 78.0261 43.6709 78.0261H43.5832C43.4955 78.0261 43.4079 78.0261 43.4079 77.9388C43.4079 77.8516 43.5832 77.8516 43.5832 77.8516H43.7585C44.7374 77.7643 45.6287 77.3135 45.9939 76.5136C46.1693 76.1645 46.1693 75.7137 46.1693 75.3646C46.2569 74.5647 46.0816 73.8521 45.4534 73.2267C44.7374 72.6013 43.8462 72.5141 43.5832 72.5141H43.4079C43.1449 72.5141 42.7796 72.5141 42.7796 72.8631V80.0622C42.7796 80.4112 42.7796 81.7492 42.8673 82.2001C42.9549 82.4619 43.1303 82.5491 43.5832 82.6364H44.1238C44.1822 82.6364 44.2115 82.6655 44.2115 82.7237C44.2115 82.8982 43.7585 82.8109 43.4955 82.8109H42.0637C41.976 82.8109 41.3478 82.8109 40.9971 82.8982H40.7341L40.6465 82.8109C40.6465 82.7237 40.7341 82.7237 40.7341 82.7237H40.9095C41.1725 82.6364 41.4501 82.6364 41.5377 82.2873C41.6254 82.1128 41.713 81.662 41.713 80.1494V74.2011H41.5377H41.5085Z" fill="#003571"/>
<path d="M51.4146 78.0989H52.7588V78.5498H51.2393C51.1809 78.5498 51.1516 78.6079 51.1516 78.7243L50.348 81.2112C50.0851 81.7493 50.0851 82.0111 50.0851 82.0984C50.0851 82.5347 50.4357 82.5347 50.6257 82.5347H50.801C50.801 82.5347 50.8886 82.5347 50.8886 82.6219C50.8886 82.7092 50.7133 82.7092 50.6257 82.7092C50.4503 82.7092 50.275 82.6219 49.9974 82.6219H49.2815C48.3026 82.6219 48.4779 82.6219 47.9373 82.7092H47.8496C47.762 82.7092 47.6743 82.6219 47.6743 82.6219C47.6743 82.4474 47.8496 82.5347 48.025 82.5347C48.4633 82.4474 48.9162 82.3602 49.3691 81.1967L52.5835 72.3978C52.6711 72.3106 52.6711 72.2233 52.6711 72.0488V73.9976C52.5835 73.9976 52.5835 74.0849 52.5835 74.0849L51.2393 77.9098C51.2977 78.0262 51.3562 78.0844 51.4146 78.0844M52.7588 73.9976C52.8465 73.9976 52.8465 74.0849 52.8465 74.0849L54.1906 77.9098C54.1906 77.968 54.1614 77.9971 54.103 77.9971H52.7588V78.4479H54.366C54.366 78.4479 54.4536 78.4479 54.4536 78.5352L55.7978 81.9966C55.7978 82.0838 55.7978 82.2584 55.7101 82.3456C55.6225 82.4329 55.5348 82.3456 55.5348 82.4329C55.5348 82.5201 55.7101 82.5201 55.7978 82.5201C55.9731 82.5201 56.6014 82.6074 56.7767 82.6074H58.1209C58.2085 82.6074 58.4715 82.6074 58.4715 82.5201C58.4715 82.4329 58.4715 82.4329 58.3839 82.4329H57.9455C57.2296 82.3456 56.9666 81.8075 56.7913 81.3712C56.616 80.9204 56.1631 80.1205 54.5559 75.8592C54.2929 75.0593 54.0153 74.4339 53.7523 73.7213C53.577 73.1832 53.314 72.7469 53.1241 72.2088C53.0364 72.0342 52.8611 71.7725 52.7734 71.7725C52.6857 71.7725 52.5981 71.8597 52.5981 72.0342V73.9831H52.7734L52.7588 73.9976Z" fill="#003571"/>
<path d="M64.009 74.2011C64.009 73.1395 63.9213 72.7759 63.9213 72.6886C63.8337 72.6013 63.746 72.3396 63.2931 72.3396H63.1177C62.9424 72.3396 62.7671 72.3396 62.7671 72.2523C62.7671 72.165 62.8548 72.165 62.9424 72.165H63.0301C63.6583 72.2523 64.009 72.2523 64.4619 72.2523H65.2655C65.6161 72.165 65.8938 72.165 66.2444 72.165C67.8516 72.165 68.6552 72.5141 69.1957 72.9649C69.7363 73.503 69.9117 74.1139 69.9117 74.652C69.9117 75.2774 69.7363 76.1645 69.0204 77.0517C68.2168 77.8516 67.3256 78.0261 66.259 78.0261H66.1714C66.0837 78.0261 65.9084 78.0261 65.9084 77.9388C65.9084 77.8516 66.0837 77.8516 66.1714 77.8516H66.3467C67.3256 77.7643 68.1292 77.3135 68.5821 76.5136C68.7574 76.1645 68.8451 75.7137 68.8451 75.3646C68.8451 74.5647 68.7574 73.8521 68.1292 73.2267C67.4133 72.6013 66.522 72.5141 66.259 72.5141H66.0837C65.733 72.5141 65.4554 72.5141 65.4554 72.8631L65.2801 80.0622C65.2801 80.4112 65.2801 81.7492 65.4554 82.2001C65.5431 82.4619 65.7184 82.5491 66.0837 82.6364H66.6243C66.6243 82.6364 66.7119 82.6364 66.7119 82.7237C66.7119 82.8982 66.1714 82.8109 65.9084 82.8109H64.4765C64.3012 82.8109 63.7606 82.8109 63.41 82.8982H63.2346C63.147 82.8109 63.0593 82.8109 63.0593 82.8109C63.0593 82.7237 63.147 82.7237 63.147 82.7237H63.3223C63.5853 82.6364 63.8629 82.6364 63.9505 82.2873C64.0382 82.1128 64.1259 81.662 64.1259 80.1494V74.2011H64.0382H64.009Z" fill="#003571"/>
<path d="M71.6797 77.7498V77.4008C71.6797 76.4264 71.855 75.1756 72.9216 73.9394C73.6375 72.965 74.9817 71.8888 77.2901 71.8015V72.3396C77.2901 72.2524 77.2025 72.2524 77.2025 72.2524C76.3112 72.2524 75.0547 72.4269 74.1635 73.4886C73.3599 74.3757 73.0092 75.5392 73.0092 76.9499C73.0092 78.7242 73.5498 79.975 74.2658 80.7749C75.157 81.9238 76.3258 82.2874 77.3048 82.2874V82.8255H77.2171C76.1505 82.8255 74.2658 82.651 72.9362 81.0512C72.1326 80.2513 71.6943 79.0151 71.6943 77.7644M77.3194 72.4269C78.2106 72.4269 79.2772 72.6887 80.183 73.5758C80.9866 74.463 81.7025 75.7137 81.7025 77.5753C81.7025 78.7242 81.5272 80.0622 80.5483 81.1239C80.0077 81.7493 79.1165 82.3601 77.6846 82.3601H77.334V82.8982C79.4817 82.8982 80.8113 81.9238 81.5272 81.1239C82.3308 80.2368 83.0467 78.986 83.0467 77.1244C83.0467 75.9755 82.6961 74.2739 81.3519 73.125C80.1976 72.0633 78.6782 71.6997 77.4216 71.6997H77.334V72.4123L77.3194 72.4269Z" fill="#003571"/>
<path d="M94.2672 75.001C94.1796 75.001 94.1796 74.8265 94.1796 74.7392C94.1796 74.1138 94.0919 73.4012 93.0253 72.8776C92.0464 72.4268 91.0675 72.4268 90.6146 72.4268C89.6357 72.4268 88.3792 72.6013 87.4879 73.4012C86.5967 74.1138 86.1437 75.35 86.1437 76.9498C86.1437 79.8876 88.1016 82.2873 91.5058 82.2873C92.5724 82.2873 93.5513 82.1128 94.0042 81.3129C94.1796 81.0511 94.2672 80.6003 94.3549 80.3385C94.3549 80.2803 94.3841 80.2512 94.4426 80.2512C94.5302 80.2512 94.5302 80.4257 94.5302 80.513C94.5302 80.9638 94.2672 82.3746 94.0919 82.5491C93.9166 82.7236 92.9377 82.9999 91.2282 82.9999C89.7964 82.9999 87.9262 82.8254 86.4944 81.4874C85.1502 80.2512 84.7119 78.7387 84.7119 77.3134C84.7119 75.7136 85.4278 74.3756 86.3191 73.4012C87.3857 72.3395 88.7298 71.8887 90.6876 71.8887C91.3159 71.8887 91.8419 71.9759 92.4701 72.0632C92.7331 72.1505 93.0107 72.1505 93.3614 72.2377C93.5367 72.2377 93.6244 72.325 93.8143 72.325C94.165 72.4122 94.2526 72.325 94.3549 72.4122C94.4426 72.4122 94.4426 72.4995 94.4426 72.4995V72.5868C94.3549 72.9358 94.3549 73.0376 94.3549 74.3611C94.4426 74.5356 94.4425 74.9864 94.2672 74.9864" fill="#003571"/>
<path d="M105.868 75.001C105.781 75.001 105.781 74.8265 105.781 74.7392C105.781 74.1138 105.693 73.4012 104.626 72.8776C103.735 72.4268 102.669 72.4268 102.216 72.4268C101.237 72.4268 100.068 72.6013 99.089 73.4012C98.1978 74.1138 97.7448 75.35 97.7448 76.9498C97.7448 79.8876 99.7026 82.2873 103.195 82.2873C104.261 82.2873 105.255 82.1128 105.693 81.3129C105.868 81.0511 105.868 80.6003 105.956 80.3385C105.956 80.2512 106.044 80.2512 106.044 80.2512C106.131 80.2512 106.131 80.4257 106.131 80.513C106.131 80.9638 105.868 82.3746 105.781 82.5491C105.518 82.7236 104.626 82.9999 102.829 82.9999C101.397 82.9999 99.615 82.8254 98.0955 81.4874C96.7513 80.2512 96.313 78.7387 96.313 77.3134C96.313 75.7136 97.0289 74.3756 97.9201 73.4012C98.9867 72.3395 100.331 71.8887 102.289 71.8887C102.917 71.8887 103.443 71.9759 104.071 72.0632C104.334 72.1505 104.699 72.1505 104.962 72.2377C105.138 72.2377 105.225 72.325 105.415 72.325C105.766 72.4122 105.956 72.325 105.956 72.4122C106.044 72.4122 106.044 72.4995 106.044 72.4995V72.5868C105.956 72.9358 105.956 73.0376 105.956 74.3611C105.956 74.5356 106.044 74.9864 105.868 74.9864" fill="#003571"/>
<path d="M117.381 72.2377C117.469 72.0632 117.644 71.8887 117.82 71.8887C117.907 71.8887 118.083 71.9759 118.083 72.325V80.2367C117.995 81.9237 118.17 82.2728 118.346 82.4618C118.433 82.6364 118.799 82.6363 118.886 82.6363H119.062C119.325 82.6363 119.412 82.5491 119.412 82.7236C119.412 82.8109 119.325 82.8109 119.237 82.8109H119.149C118.609 82.8109 118.083 82.7236 117.542 82.7236H117.191C116.841 82.7236 116.476 82.7236 116.037 82.8109H115.95C115.862 82.7236 115.774 82.7236 115.862 82.6363C115.862 82.5491 115.95 82.5491 115.95 82.5491H116.213C116.3 82.4618 116.476 82.4618 116.476 82.3746C116.563 82.2873 116.651 82.2 116.739 81.6619C116.826 81.2111 116.826 80.513 116.826 80.0621L116.914 73.8375L109.857 82.6363C109.769 82.7236 109.682 82.8981 109.506 82.8981C109.419 82.8981 109.331 82.8109 109.331 82.4473V74.012C109.331 72.9503 109.243 72.5868 109.243 72.4995C109.156 72.325 108.98 72.1505 108.615 72.1505H108.44C108.352 72.1505 108.352 72.0632 108.352 72.0632C108.352 71.9759 108.44 71.9759 108.527 71.9759H108.615C108.966 71.9759 109.594 72.0632 109.959 72.0632H110.222C110.398 72.0632 110.763 72.0632 111.376 71.9759H111.464C111.552 71.9759 111.552 72.0632 111.552 72.0632C111.552 72.1505 111.464 72.1505 111.289 72.1505L111.113 72.2377C110.85 72.2377 110.763 72.325 110.573 72.5868C110.573 72.674 110.485 72.9358 110.485 73.6484V80.8475L117.352 72.2232L117.381 72.2377Z" fill="#003571"/>
<path d="M130.954 72.2377C131.042 72.0632 131.217 71.8887 131.393 71.8887C131.48 71.8887 131.656 71.9759 131.656 72.325L131.568 80.2367C131.568 81.9237 131.656 82.2728 131.831 82.4618C132.006 82.6364 132.269 82.6363 132.459 82.6363H132.635C132.81 82.6363 132.985 82.5491 132.985 82.7236C132.985 82.8109 132.898 82.8109 132.81 82.8109H132.722C132.182 82.8109 131.656 82.7236 131.115 82.7236H130.852C130.487 82.7236 130.136 82.7236 129.596 82.8109H129.508C129.391 82.7527 129.333 82.6945 129.333 82.6363H129.873C129.961 82.5491 130.136 82.5491 130.224 82.4618C130.312 82.3746 130.399 82.2873 130.399 81.7492C130.487 81.3129 130.487 80.6003 130.487 80.1494V73.9248L123.532 82.7236C123.445 82.8109 123.269 82.9854 123.182 82.9854C123.094 82.9854 123.006 82.8981 123.006 82.5345V74.0993C123.006 73.0376 122.919 72.674 122.919 72.5868C122.831 72.4122 122.656 72.2377 122.29 72.2377H122.115C122.027 72.2377 122.027 72.1505 122.027 72.1505C122.027 72.0632 122.115 72.0632 122.203 72.0632H122.29C122.641 72.0632 123.357 72.1505 123.635 72.1505H123.81C124.073 72.1505 124.35 72.1505 125.066 72.0632H125.154C125.242 72.0632 125.329 72.1505 125.329 72.1505C125.329 72.2377 125.242 72.2377 125.066 72.2377L124.891 72.325C124.716 72.325 124.54 72.4122 124.453 72.674C124.365 72.7613 124.365 73.0231 124.365 73.7357V80.9348L130.969 72.2232L130.954 72.2377Z" fill="#003571"/>
<path d="M31.8657 35.0938L106.321 1.25098V57.5781L97.7448 45.5797H31.8657V35.0938Z" fill="#003571"/>
<path d="M107.037 0L68.7282 17.3214H26.9566L26.7812 60.2394H107.037V0Z" fill="#003571"/>
<path d="M31.8657 35.0938L106.321 1.25098V57.5781L97.7448 45.5797H31.8657V35.0938Z" fill="white"/>
<path d="M31.8657 38.5697L103.458 17.4233L106.321 57.5781L97.7448 45.5796H31.8657V38.5697Z" fill="#0076BE"/>
<path d="M31.8657 42.0309L100.156 33.5811L106.321 57.5779L97.7448 45.5795H31.8657V42.0309Z" fill="#E72F36"/>
</g>
<defs>
<clipPath id="clip0_4904_1005">
<rect width="133" height="83" fill="white"/>
</clipPath>
</defs>
</svg>
