<svg width="170" height="41" viewBox="0 0 170 41" fill="none" xmlns="http://www.w3.org/2000/svg">
<g clip-path="url(#clip0_4904_3483)">
<path d="M132.571 41C132.571 40.8582 132.529 40.7022 132.698 40.6172C132.882 40.9716 133.221 40.8157 133.476 40.8157C136.048 40.8157 138.621 40.8157 141.193 40.8157C141.193 40.8724 141.193 40.9291 141.193 41H132.571Z" fill="#FE7498"/>
<path d="M149.292 41C149.292 40.8582 149.264 40.7022 149.434 40.6313C149.617 40.9858 149.957 40.8157 150.211 40.8157C152.784 40.8298 155.342 40.8156 157.915 40.8298C157.915 40.8865 157.915 40.9432 157.915 41H149.292Z" fill="#FE7599"/>
<path d="M0 21.6343C0 21.6343 0.113079 21.6343 0.155483 21.6343C0.310967 21.9745 0.621934 21.8186 0.848092 21.8186C2.68562 21.8328 4.50902 21.8186 6.34655 21.8328C6.2052 22.1163 5.93664 21.9887 5.72462 21.9887C3.81641 21.9887 1.90821 21.9887 0 21.9887V21.6343Z" fill="#FE9BB3"/>
<path d="M157.929 40.8298C155.356 40.8298 152.798 40.8298 150.225 40.8298C149.971 40.8298 149.632 41 149.448 40.6455C151.978 36.4066 154.508 32.1535 157.024 27.9145C158.395 25.6037 159.766 23.2928 161.166 20.982C161.392 20.5992 161.378 20.344 161.152 19.9754C157.759 14.3188 154.367 8.63377 150.989 2.96295C150.437 2.04144 149.9 1.10576 149.292 0.0708346C149.589 0.0708346 149.815 0.0424805 150.027 0.0424805C152.43 0.0424805 154.833 0.0566575 157.236 0.0424805C157.745 0.0424805 158.014 0.198428 158.268 0.637916C161.943 6.81911 165.632 12.9861 169.322 19.1673C169.59 19.621 170 20.0888 170.014 20.5567C170.014 20.982 169.576 21.4215 169.322 21.8468C166.127 27.2199 162.918 32.593 159.71 37.9661C159.13 38.9443 158.523 39.9083 157.929 40.8724" fill="#FE0040"/>
<path d="M141.193 40.8159C138.621 40.8159 136.048 40.8159 133.476 40.8159C133.207 40.8159 132.882 40.9718 132.698 40.6174C135.285 36.2651 137.872 31.9269 140.458 27.5745C141.773 25.3629 143.073 23.1513 144.416 20.9539C144.656 20.5569 144.6 20.2875 144.388 19.9331C143.427 18.3595 142.494 16.7716 141.547 15.1838C141.363 14.8861 141.193 14.5884 141.024 14.2906C141.222 14.1631 141.405 14.2056 141.575 14.2056C144.034 14.2056 146.494 14.2056 148.967 14.1914C149.434 14.1914 149.702 14.319 149.943 14.7301C150.946 16.4739 151.964 18.2177 153.052 19.9189C153.335 20.3584 153.264 20.6278 153.024 21.0106C151.512 23.5483 150.013 26.0859 148.501 28.6236C146.225 32.4373 143.95 36.2509 141.674 40.0645C141.518 40.3197 141.363 40.5607 141.207 40.8017" fill="#FE0040"/>
<path d="M137.363 19.9472C136.854 19.1108 136.401 18.3877 135.977 17.6647C135.115 16.2045 134.295 14.7301 133.377 13.2982C133.066 12.8162 133.122 12.4901 133.405 12.0506C134.352 10.5053 135.242 8.93164 136.204 7.40052C136.486 6.94686 136.458 6.63496 136.204 6.20965C135.045 4.30993 133.928 2.39603 132.783 0.496306C132.712 0.368712 132.599 0.269473 132.627 0.0993487C132.797 -0.0424217 133.009 0.0284635 133.207 0.0284635C135.638 0.0284635 138.069 0.0284635 140.501 0.0284635C140.967 0.0284635 141.236 0.14188 141.476 0.567191C142.593 2.48109 143.723 4.39499 144.882 6.28054C145.137 6.69167 145.123 6.97521 144.882 7.37217C143.059 10.3919 141.25 13.4258 139.426 16.4597C138.748 17.5938 138.084 18.7138 137.349 19.9614" fill="#FE0040"/>
<path d="M6.34634 21.8326C4.50881 21.8326 2.68541 21.8326 0.847882 21.8185C0.607589 21.8185 0.310757 21.9744 0.155273 21.6342C2.95398 16.9416 5.76681 12.2348 8.56552 7.54219C8.73514 7.25865 8.84821 6.98929 9.27226 7.00347C11.2087 7.01764 13.1311 7.00347 15.1948 7.00347C14.587 8.05257 14.0357 9.00243 13.4703 9.95229C11.1381 13.8793 8.79168 17.7922 6.45942 21.7192C6.43115 21.7618 6.37461 21.8043 6.34634 21.8468" fill="#FE0040"/>
<path d="M73.6283 31.2036C72.9781 32.6638 72.3137 34.1241 71.6635 35.5843C71.3808 36.2223 71.0699 36.8602 70.8154 37.5124C70.6741 37.881 70.4621 38.0086 70.0946 37.9802C69.7129 37.9519 69.3313 37.9802 68.9496 37.9802C68.3843 37.9802 68.3701 37.9661 68.3701 37.3706C68.3701 35.3717 68.3701 33.3869 68.3701 31.3879C68.3701 30.1545 68.3701 28.9211 68.3701 27.6877C68.3701 27.1064 68.3843 27.0923 68.9638 27.0923C69.4868 27.0923 70.1511 26.8796 70.4903 27.1915C70.8437 27.5176 70.6034 28.1839 70.6034 28.7084C70.6176 30.438 70.6034 32.1535 70.6034 33.9823C71.0133 33.4578 71.183 32.919 71.4091 32.4228C72.13 30.835 72.8509 29.233 73.5435 27.6168C73.7131 27.234 73.8686 27.0356 74.3068 27.0923C74.8439 27.1632 75.5506 26.8513 75.904 27.234C76.215 27.5743 76.0029 28.2406 76.0029 28.7652C76.0029 31.5155 76.0029 34.28 76.0029 37.0304C76.0029 37.243 76.0029 37.4415 76.0029 37.64C76.0029 37.8385 75.8757 37.9661 75.6637 37.9661C75.1407 37.9661 74.6036 37.9661 74.0806 37.9661C73.8544 37.9661 73.7696 37.8526 73.7696 37.64C73.7696 37.4273 73.7696 37.2288 73.7696 37.0304V31.232C73.7696 31.232 73.6707 31.2178 73.6283 31.2036Z" fill="#313131"/>
<path d="M40.8779 27.1066V33.8974C41.2313 33.8123 41.2454 33.5004 41.3444 33.2736C42.1924 31.4022 43.0264 29.545 43.8321 27.6595C44.0017 27.2483 44.2137 27.064 44.666 27.1066C45.1042 27.1491 45.5424 27.1066 45.9806 27.1066C46.1926 27.1066 46.3057 27.1916 46.3057 27.4185C46.3057 27.5602 46.3057 27.7162 46.3057 27.8579V37.1864C46.3057 37.3282 46.3057 37.4842 46.3057 37.6259C46.3057 37.8811 46.1926 37.9945 45.9382 37.9804C45.4717 37.9804 45.0053 37.952 44.5247 37.9804C44.1148 38.0087 44.03 37.8244 44.0441 37.4558C44.0441 35.6979 44.0441 33.9399 44.0441 32.1819C44.0441 31.8559 44.1007 31.5298 43.9593 31.1328C43.3798 32.4513 42.8144 33.6989 42.2631 34.9465C41.8815 35.7971 41.4857 36.6477 41.1182 37.5125C40.9768 37.8528 40.779 38.0229 40.3973 37.9804C39.8743 37.9378 39.2241 38.1788 38.8566 37.8811C38.4608 37.5692 38.7153 36.8887 38.7153 36.3783C38.7011 33.5288 38.7153 30.6934 38.7153 27.8438C38.7153 27.0073 38.6587 27.1066 39.4786 27.1066C39.9167 27.1066 40.3549 27.1066 40.892 27.1066" fill="#313131"/>
<path d="M19.0112 32.5079C19.0112 30.8917 19.0112 29.2897 19.0112 27.6735C19.0112 27.1206 19.0112 27.1064 19.5201 27.1064C21.7251 27.1064 23.916 27.1064 26.121 27.1064C26.5027 27.1064 26.6299 27.2199 26.6158 27.6026C26.6158 30.8917 26.6158 34.1666 26.6158 37.4557C26.6158 37.9661 26.6016 37.9802 26.0645 37.9944C25.7111 37.9944 25.3578 37.9944 25.0044 37.9944C24.4531 37.9944 24.439 37.9802 24.439 37.3848C24.439 34.918 24.439 32.4512 24.439 29.9986C24.439 29.7859 24.439 29.5874 24.439 29.3889C24.439 29.1338 24.34 29.0203 24.0715 29.0203C23.2234 29.0203 22.3753 29.0203 21.5131 29.0203C21.2445 29.0203 21.1597 29.1621 21.1597 29.4031C21.1597 30.1687 21.1597 30.9342 21.1597 31.6856C21.1597 33.557 21.1597 35.4425 21.1597 37.3139C21.1597 37.9802 21.1597 37.9944 20.4812 37.9802C20.0148 37.9802 19.4211 38.1787 19.1243 37.8952C18.7709 37.5691 18.9971 36.9595 18.9971 36.4775C18.9829 35.159 18.9971 33.8405 18.9971 32.5221" fill="#313131"/>
<path d="M56.5252 32.7775C56.4828 33.4438 56.5394 34.2378 56.3697 35.0175C55.9457 36.9456 54.6453 38.1081 52.6805 38.1081C50.631 38.1081 49.2458 37.1299 48.8641 35.06C48.5532 33.3446 48.5249 31.5583 48.9348 29.8145C49.3447 28.0849 50.5744 26.9649 52.5392 26.9366C54.4898 26.9082 55.7337 27.9857 56.2567 29.6869C56.5535 30.651 56.5252 31.6575 56.5252 32.7633M54.2354 32.6074C54.2354 31.9694 54.2354 31.3173 54.2354 30.6793C54.2354 30.2965 54.094 29.9421 53.9244 29.6019C53.6559 29.0915 53.2459 28.8221 52.6523 28.8221C51.8466 28.8221 51.2671 29.1907 51.0974 30.0697C50.7582 31.7142 50.8006 33.373 51.0974 35.0317C51.1257 35.1734 51.1964 35.301 51.2671 35.4286C51.5639 35.9957 52.0445 36.2651 52.6947 36.2509C53.3166 36.2367 53.7548 35.9248 54.0092 35.3861C54.1647 35.0742 54.2637 34.734 54.2637 34.3795C54.2637 33.7983 54.2637 33.217 54.2637 32.6216" fill="#313131"/>
<path d="M29.3017 27.1065C30.6021 27.1065 31.8601 27.0781 33.1181 27.1065C34.9981 27.149 36.3692 28.51 36.4398 30.3955C36.454 30.7783 36.4681 31.1611 36.3974 31.5297C36.1147 33.0183 35.0122 33.9965 33.4856 34.1241C33.1323 34.1524 32.7789 34.1383 32.4255 34.1525C31.3371 34.1666 31.4785 33.9823 31.4644 35.1448C31.4644 35.8821 31.4644 36.6051 31.4644 37.3423C31.4644 37.9519 31.4502 37.9803 30.8142 37.9661C30.2912 37.9661 29.641 38.1929 29.3017 37.8385C29.0049 37.5266 29.2169 36.8886 29.2169 36.3924C29.2169 33.6137 29.2169 30.8208 29.2169 28.0421C29.2169 27.7586 29.1604 27.4609 29.2876 27.0923M31.4644 30.594C31.4644 30.7074 31.4644 30.8208 31.4644 30.9484C31.5068 31.3738 31.2665 31.955 31.5633 32.2102C31.9591 32.5221 32.5669 32.3094 33.0899 32.3094C33.1464 32.3094 33.203 32.2811 33.2595 32.2527C33.7542 32.111 34.0652 31.7849 34.1359 31.2745C34.1783 31.0193 34.1783 30.75 34.1641 30.4948C34.1217 29.4031 33.6835 28.992 32.581 28.992C31.8272 28.992 31.4502 29.3512 31.4502 30.0695V30.594" fill="#313131"/>
<path d="M105.164 32.5081C105.164 31.0195 105.164 29.5168 105.164 28.0282C105.164 26.9082 105.206 27.1208 106.125 27.1067C106.422 27.1067 106.704 27.1208 107.001 27.1067C107.326 27.0925 107.397 27.2343 107.397 27.532C107.397 28.5244 107.397 29.5168 107.397 30.5233C107.397 30.9203 107.538 31.0195 107.906 31.0195C108.485 31.0195 109.065 31.0195 109.644 31.1188C111.454 31.4448 112.556 33.0894 112.259 35.06C112.005 36.8463 110.719 37.9379 108.867 37.9946C107.821 38.023 106.761 38.0088 105.701 37.9946C105.178 37.9946 105.149 37.9663 105.149 37.4417C105.149 35.7972 105.149 34.1668 105.149 32.5223M107.383 34.4362C107.383 34.6063 107.383 34.7906 107.383 34.9607C107.425 36.3076 107.1 36.0949 108.612 36.1091C109.333 36.1091 109.715 35.8255 109.941 35.2018C110.097 34.7481 110.097 34.2802 109.969 33.8266C109.786 33.2028 109.418 32.9334 108.754 32.8909C108.4 32.8767 108.047 32.8909 107.708 32.8909C107.496 32.8909 107.397 33.0043 107.397 33.217C107.397 33.6281 107.397 34.0392 107.397 34.4504" fill="#313131"/>
<path d="M87.495 32.4937C87.495 30.8775 87.495 29.2755 87.495 27.6593C87.495 27.1206 87.495 27.1064 88.0038 27.1064C89.7283 27.1064 91.4669 27.1064 93.1913 27.1064C93.5306 27.1064 93.7143 27.1632 93.7284 27.5743C93.7708 29.0062 93.785 29.0062 92.3856 29.0062C91.6789 29.0062 90.9721 29.0062 90.2795 29.0062C89.9403 29.0062 89.7283 29.0629 89.7424 29.474C89.7848 30.112 89.7707 30.7641 89.7848 31.4021C90.4067 31.6289 91.057 31.4588 91.693 31.5013C91.9899 31.5155 92.2725 31.5013 92.5694 31.5013C93.1206 31.5013 93.1348 31.5013 93.1206 32.0968C93.1065 33.5145 93.3327 33.2451 92.004 33.2735C91.3962 33.2735 90.7743 33.2735 90.1523 33.2735C89.8555 33.2735 89.7283 33.3727 89.7424 33.6846C89.7424 34.3509 89.7565 35.0314 89.7424 35.7119C89.7424 36.0096 89.8414 36.123 90.1523 36.123C91.1135 36.123 92.0888 36.123 93.05 36.123C93.7002 36.123 93.7143 36.123 93.7143 36.8035C93.7143 38.2212 93.8839 37.9802 92.5835 37.9944C91.1418 37.9944 89.7141 37.9944 88.2724 37.9944C87.4102 37.9944 87.495 38.0795 87.495 37.1721C87.495 35.6127 87.495 34.0674 87.495 32.5079" fill="#313131"/>
<path d="M58.9566 32.5079C58.9566 30.8917 58.9566 29.2897 58.9566 27.6735C58.9566 27.1206 58.9707 27.1064 59.5502 27.1064C60.5821 27.1064 61.5998 27.1064 62.6316 27.1064C65.4162 27.1064 66.5187 29.3889 66.123 31.4871C65.812 33.1317 64.6812 34.0674 62.9991 34.1524C62.5892 34.1666 62.1793 34.1524 61.7694 34.1524C61.1475 34.1524 61.1333 34.1524 61.1333 34.762C61.1333 35.6694 61.1192 36.5767 61.1333 37.484C61.1333 37.8668 61.0061 38.0086 60.6245 37.9802C60.1015 37.9377 59.4513 38.1787 59.0979 37.881C58.7304 37.5549 58.9707 36.8886 58.9707 36.3782C58.9566 35.0881 58.9707 33.798 58.9707 32.5079M61.1333 30.594C61.1333 30.7074 61.1333 30.835 61.1333 30.9484C61.1758 31.3737 60.9213 31.9408 61.2464 32.2102C61.6563 32.5504 62.25 32.3094 62.773 32.3236C62.8013 32.3236 62.8295 32.3236 62.8578 32.3094C63.4797 32.1818 63.819 31.8132 63.9038 31.1894C63.932 30.9626 63.9462 30.7216 63.9038 30.4948C63.7624 29.3748 63.4515 28.9069 61.7411 29.0203C61.1192 29.0629 61.1051 29.0345 61.1051 30.353V30.6224L61.1333 30.594Z" fill="#313131"/>
<path d="M80.4981 33.4719C80.4981 32.1818 80.4981 30.8917 80.4981 29.6016C80.4981 29.0062 80.4981 29.0062 79.862 28.992C79.339 28.992 78.8019 28.992 78.2789 28.992C77.9821 28.992 77.8831 28.8644 77.8549 28.5809C77.7135 27.1064 77.6994 27.1064 79.2118 27.1064C81.0918 27.1064 82.9576 27.1064 84.8375 27.1064C85.4029 27.1064 85.4029 27.1064 85.417 27.6877C85.4453 28.992 85.4453 28.992 84.1449 28.992C83.7067 28.992 83.1413 28.8644 82.8728 29.0771C82.5194 29.3606 82.7455 29.956 82.7455 30.4097C82.7314 32.7206 82.7455 35.0314 82.7455 37.3564C82.7455 37.9661 82.7455 37.9802 82.1095 37.9661C81.6147 37.9661 81.007 38.1787 80.6536 37.8668C80.2578 37.5266 80.5122 36.8744 80.4981 36.3641C80.4698 35.4 80.4981 34.436 80.4981 33.4719Z" fill="#323232"/>
<path d="M103.029 27.1065C103.029 27.6594 103.029 28.1272 103.029 28.5809C103.029 28.8786 102.916 29.0062 102.619 28.992C101.997 28.992 101.389 28.992 100.768 28.992C100.654 28.992 100.541 29.0062 100.442 29.0204C100.273 29.3181 100.358 29.6158 100.358 29.8993C100.358 32.3661 100.358 34.8329 100.358 37.2856C100.358 38.037 100.329 37.9803 99.6933 37.9519C99.2268 37.9377 98.6473 38.1504 98.3222 37.8668C97.9547 37.5408 98.1808 36.9311 98.1808 36.4491C98.1667 34.2233 98.1808 31.9975 98.1808 29.7576C98.1808 29.0345 98.3222 28.9637 97.4458 28.9778C96.9794 28.9778 96.5129 28.9778 96.0323 28.9778C95.5235 28.9778 95.5093 28.9495 95.4811 28.4249C95.434 27.5365 95.858 27.0923 96.7532 27.0923H103.029V27.1065Z" fill="#313131"/>
<path d="M128.74 19.8902C130.239 22.3995 131.638 24.7529 133.066 27.1204C132.373 27.2906 125.376 27.3189 124.415 27.1488C125.843 24.7529 127.256 22.3853 128.74 19.876" fill="#FE0040"/>
<path d="M114.902 27.1067C115.058 27.4044 115.001 27.6454 115.001 27.8723C115.001 30.9771 115.001 34.0818 115.001 37.1866C115.001 37.3284 115.001 37.4843 115.001 37.6261C115.001 37.8813 114.888 37.9947 114.634 37.9805C114.167 37.9805 113.701 37.9805 113.235 37.9805C112.909 37.9805 112.839 37.8387 112.839 37.5552C112.839 36.7046 112.839 35.854 112.839 35.0033C112.839 32.6074 112.839 30.1973 112.839 27.8014C112.839 27.05 112.796 27.0925 113.56 27.1067C114.026 27.1067 114.478 27.1067 114.902 27.1067Z" fill="#313131"/>
<path d="M43.1962 21.9745C43.1821 21.9036 43.1396 21.8186 43.1396 21.7335C43.1396 19.3234 43.1396 16.9275 43.1396 14.5174C43.1396 14.0212 43.2386 13.9645 43.6909 14.007C44.0584 14.0354 44.0019 14.2764 44.0019 14.5032C44.0019 16.1194 44.0019 17.7214 44.0019 19.3376V20.174C44.0019 20.174 44.1008 20.1882 44.1432 20.2024C44.6803 19.21 45.2316 18.2176 45.7687 17.2252C46.2635 16.3037 46.7582 15.368 47.267 14.4465C47.3801 14.248 47.4508 14.0354 47.7476 14.007C48.2282 13.9645 48.3837 14.0637 48.3837 14.5599C48.3837 16.8708 48.3837 19.1958 48.3837 21.5067C48.3837 21.776 48.412 22.0454 48.0162 22.0454C47.7193 22.0454 47.5215 22.0029 47.5356 21.6201C47.5639 20.8545 47.5356 20.1032 47.5356 19.3376V15.524C46.7864 16.8991 46.1221 18.1042 45.4719 19.2951C45.0761 20.0181 44.6662 20.7269 44.327 21.4641C44.0867 21.9745 43.7616 22.173 43.2103 21.9603" fill="#323232"/>
<path d="M34.8851 17.9624C34.8851 16.8141 34.8851 15.6799 34.8851 14.5316C34.8851 14.0496 34.9982 13.9645 35.4363 14.0071C35.6484 14.0212 35.7473 14.1205 35.7473 14.3331C35.7473 14.6025 35.7473 14.8577 35.7473 15.127C35.7473 16.9417 35.7473 18.7564 35.7473 20.571C35.7473 21.2515 35.7473 21.2515 36.3975 21.2657C37.1891 21.2657 37.9806 21.2515 38.7722 21.2657C39.168 21.2657 39.2669 21.1239 39.2669 20.7553C39.2669 18.969 39.2669 17.1827 39.2669 15.3964C39.2669 15.0987 39.2669 14.8151 39.2669 14.5174C39.281 14.0496 39.4082 13.9503 39.8323 14.0071C40.0443 14.0354 40.1291 14.1488 40.1291 14.3473C40.1291 14.8435 40.1291 15.3397 40.1291 15.8359C40.1291 17.4237 40.1291 18.9974 40.1291 20.5852C40.1291 20.9255 40.0302 21.3366 40.6238 21.2799C40.8076 21.2657 40.8359 21.4358 40.8359 21.5918C40.8359 22.3857 40.8217 23.1796 40.8076 23.9593C40.8076 24.2571 40.6945 24.4414 40.3411 24.4414C39.9878 24.4414 39.9878 24.2287 39.9878 23.9877C39.9878 23.5198 39.9878 23.052 39.9878 22.5842C39.9878 22.0596 39.9736 22.0454 39.4506 22.0454C38.2209 22.0454 36.9912 22.0454 35.7614 22.0454C34.7579 22.0454 34.8851 22.1163 34.8851 21.1381C34.8851 20.089 34.8851 19.0257 34.8851 17.9766" fill="#333333"/>
<path d="M32.1849 21.9458C31.6289 22.0309 31.2661 21.7615 31.0965 21.1378C30.418 21.9458 29.5699 22.3145 28.5381 22.1869C27.7041 22.0876 27.1387 21.6481 26.8702 20.84C26.3331 19.1671 27.3508 17.5935 29.1176 17.4234C29.5558 17.3808 29.994 17.395 30.4322 17.3808C31.1813 17.3808 31.1813 17.4801 31.1672 16.6011C31.1672 16.4877 31.1672 16.3743 31.1672 16.2467C31.1389 15.2259 30.7714 14.7864 29.7961 14.6447C28.9056 14.5313 28.0716 14.9991 27.8314 15.7647C27.789 15.9206 27.8314 16.1333 27.6193 16.19C27.4214 16.2325 27.2094 16.275 27.0257 16.1474C26.8561 16.0198 26.9267 15.8214 26.9691 15.6512C27.0963 15.1976 27.3366 14.8006 27.7041 14.4745C28.5381 13.7515 30.1495 13.6097 31.0824 14.2052C31.8033 14.6589 32.0011 15.3819 32.0294 16.1758C32.0577 17.2958 32.0294 18.4016 32.0294 19.5216C32.0294 20.3297 31.987 21.1519 32.199 21.9458M30.1919 18.0755C29.5841 18.0897 28.9621 18.0755 28.4109 18.4158C27.7041 18.8553 27.4073 19.7626 27.7183 20.5707C27.9868 21.2512 28.6653 21.5205 29.5558 21.3221C30.729 21.0527 31.1813 20.4289 31.1813 19.1246C31.1813 18.4252 30.8515 18.0802 30.1919 18.0897" fill="#323232"/>
<path d="M72.5545 22.0028C71.9797 22.0312 71.6027 21.7476 71.4237 21.1522C70.7311 21.9461 69.8971 22.3005 68.8653 22.173C68.102 22.0737 67.5507 21.7051 67.268 20.9821C66.7309 19.6069 67.1832 17.693 69.4448 17.4095C69.9678 17.3386 70.4908 17.3669 71.0279 17.3669C71.353 17.3669 71.5368 17.2819 71.5085 16.9274C71.4944 16.7006 71.5085 16.4596 71.5085 16.2186C71.4802 15.2687 71.1551 14.8292 70.307 14.6449C69.4448 14.4606 68.5826 14.8576 68.2433 15.5948C68.2009 15.694 68.1868 15.8216 68.1444 15.9209C68.0455 16.1619 67.6921 16.2895 67.4377 16.1761C67.1691 16.0627 67.268 15.8216 67.3246 15.6515C67.4518 15.1979 67.6779 14.7867 68.0455 14.4748C68.8511 13.7943 70.3353 13.61 71.2682 14.1062C72.0598 14.5174 72.3425 15.2262 72.3566 16.0627C72.3707 17.055 72.3566 18.0474 72.3566 19.054C72.3566 20.018 72.2859 20.9821 72.5545 21.9887M70.3777 18.0616C70.1798 18.0616 69.8547 18.0616 69.5296 18.1183C68.9077 18.2317 68.3706 18.4869 68.0879 19.1107C67.7204 19.933 68.0031 20.9679 68.6815 21.2514C69.5862 21.6201 70.8442 21.1522 71.3389 20.3016C71.565 19.9188 71.4802 19.5077 71.4802 19.1107C71.4802 17.9198 71.6781 18.09 70.3777 18.0758" fill="#323232"/>
<path d="M114.351 20.6275C114.874 21.1379 114.874 21.1946 114.379 21.6057C112.711 22.9667 110.026 22.0877 109.531 19.9895C109.234 18.7278 109.248 17.4235 109.531 16.1617C109.658 15.5521 109.941 14.9992 110.393 14.5597C111.807 13.1845 114.195 13.8083 114.789 15.6939C115.001 16.346 114.959 17.0265 114.987 17.6928C115.001 18.0614 114.846 18.1323 114.52 18.1181C113.291 18.1181 112.061 18.1181 110.831 18.1181C110.209 18.1181 110.223 18.1181 110.223 18.7561C110.223 19.1105 110.294 19.4508 110.379 19.791C110.803 21.4214 112.457 21.8184 113.729 21.1095C113.955 20.9819 114.153 20.7976 114.365 20.6417M112.16 17.3101C112.655 17.3101 113.164 17.2959 113.658 17.3101C114.068 17.3384 114.167 17.1683 114.125 16.7997C114.096 16.4453 114.054 16.105 113.927 15.7789C113.46 14.5172 111.948 14.3612 111.086 15.0559C110.478 15.5521 110.322 16.2751 110.238 17.0123C110.209 17.2392 110.379 17.3101 110.577 17.3101C111.1 17.3101 111.623 17.3101 112.16 17.3101Z" fill="#323232"/>
<path d="M56.8365 17.8914C56.8083 18.7704 56.7658 19.4792 56.5397 20.1455C56.0874 21.5207 55.1403 22.2154 53.7268 22.187C52.4264 22.1587 51.4229 21.3931 51.0695 20.0463C50.7303 18.6995 50.6737 17.296 51.0836 15.9775C51.649 14.177 52.8222 13.6525 54.5325 13.9218C55.5644 14.0919 56.4549 15.1269 56.6528 16.3461C56.7517 16.9132 56.8648 17.4944 56.8224 17.9056M55.9743 18.0473C55.946 17.6646 55.946 17.2818 55.8895 16.9132C55.8471 16.6296 55.7764 16.3461 55.6775 16.0626C55.3382 15.1269 54.6598 14.6023 53.8117 14.6165C53.0201 14.6165 52.2851 15.1411 52.0024 16.0342C51.5925 17.3385 51.5925 18.6853 52.0024 19.9896C52.2851 20.9395 53.1332 21.4782 53.9813 21.4073C54.9 21.3364 55.5927 20.6984 55.8047 19.6777C55.9178 19.139 56.0167 18.5861 55.9884 18.0332" fill="#323232"/>
<path d="M63.7199 18.4442H60.3134C60.1296 18.6711 60.2003 18.9121 60.2003 19.1389C60.2003 19.8761 60.2003 20.5992 60.2003 21.3364C60.2003 22.031 60.1721 22.031 59.7339 22.0452C59.1826 22.0452 59.3381 21.6624 59.3381 21.3789C59.3381 19.1531 59.3381 16.9273 59.3381 14.6873C59.3381 14.6023 59.3381 14.5172 59.3381 14.418C59.3098 14.1203 59.437 14.0068 59.748 14.0068C60.059 14.0068 60.2286 14.0777 60.2286 14.4463C60.2003 15.3253 60.2286 16.2043 60.2286 17.0833C60.2286 17.4519 60.3275 17.6078 60.7233 17.5936C61.5997 17.5653 62.476 17.5794 63.3665 17.5936C63.6775 17.5936 63.7764 17.4802 63.7764 17.1825C63.7623 16.3886 63.7482 15.5947 63.7764 14.8149C63.7764 14.5456 63.4937 14.0494 64.1298 14.021C64.5963 14.0068 64.6245 14.0352 64.6245 14.7724C64.6245 16.8281 64.6245 18.8837 64.6245 20.9252C64.6245 21.1662 64.6245 21.3931 64.6245 21.6341C64.6528 22.0169 64.4125 22.0452 64.1298 22.0452C63.7906 22.0452 63.7623 21.8609 63.7623 21.6057C63.7623 20.585 63.7623 19.5642 63.7623 18.4442" fill="#333333"/>
<path d="M19.0112 18.0472C19.0112 16.8421 19.0112 15.6371 19.0112 14.4462C19.0112 14.1627 19.0819 14.0067 19.3929 14.0209C19.7038 14.0209 19.8876 14.0776 19.8876 14.4462C19.8735 15.3252 19.8876 16.2042 19.8876 17.0831C19.8876 17.4376 19.9583 17.6219 20.3682 17.6077C21.2163 17.5793 22.0644 17.5793 22.9266 17.6077C23.3082 17.6077 23.4354 17.4943 23.4354 17.1115C23.4072 16.2325 23.4354 15.3536 23.4354 14.4746C23.4354 14.2052 23.4778 14.0209 23.8029 14.0351C24.1139 14.0351 24.2835 14.1201 24.2835 14.4746C24.2835 16.5019 24.2835 18.515 24.2835 20.5423C24.2835 20.9251 24.2835 21.3079 24.2835 21.6907C24.2835 22.0168 24.1139 22.0735 23.8312 22.0735C23.5344 22.0735 23.4213 21.96 23.4213 21.6623C23.4213 20.7834 23.4213 19.9044 23.4213 19.0254C23.4213 18.4725 23.4072 18.4583 22.9125 18.4583C22.0926 18.4583 21.2728 18.4583 20.453 18.4583C19.9159 18.4583 19.9159 18.4725 19.9017 18.9829C19.9017 19.8618 19.8876 20.7408 19.9017 21.6198C19.9017 21.9742 19.7745 22.0735 19.4353 22.0735C19.1384 22.0735 19.0112 21.9884 19.0112 21.6765C19.0112 20.6558 19.0112 19.6208 19.0112 18.6001V18.0755" fill="#343434"/>
<path d="M80.4417 14.021V21.9176C80.2721 22.1303 80.0459 22.031 79.8622 22.0452C79.6926 22.0452 79.6078 21.9318 79.6078 21.7617C79.6078 21.549 79.6078 21.3505 79.6078 21.152C79.6078 19.068 79.6078 16.9982 79.6078 14.8007C78.7597 14.8007 77.9257 14.8007 77.0776 14.8007C76.8515 15.0559 76.9504 15.3678 76.9363 15.6514C76.8939 17.1683 76.8373 18.6852 76.5829 20.2022C76.5122 20.6133 76.385 20.9961 76.173 21.3505C75.8762 21.8467 75.4238 22.0736 74.8584 22.0736C74.6747 22.0736 74.4909 22.0736 74.4909 21.8184C74.4909 21.6341 74.3637 21.3647 74.6464 21.2938C75.7489 21.0528 75.7631 20.1455 75.8762 19.309C76.074 17.7921 76.0458 16.2751 76.0882 14.744C76.1023 14.0635 76.1165 14.0493 76.7667 14.0493C77.9681 14.0493 79.1696 14.0493 80.4417 14.0493" fill="#323232"/>
<path d="M96.3291 18.0614C96.3291 19.2381 96.3291 20.4006 96.3291 21.5773C96.3291 21.8892 96.2584 22.0594 95.8909 22.0594C95.5375 22.0594 95.4386 21.9034 95.4527 21.5773C95.4668 20.67 95.4527 19.7627 95.4527 18.8554C95.4527 18.5718 95.3679 18.43 95.0569 18.43C94.1806 18.43 93.3042 18.4442 92.4137 18.43C92.0038 18.43 91.9331 18.6143 91.9331 18.9688C91.9473 19.8477 91.9331 20.7267 91.9331 21.6057C91.9331 21.8751 91.8907 22.0452 91.5656 22.0594C91.1981 22.0594 91.1274 21.9034 91.1274 21.5915C91.1274 19.2098 91.1274 16.8422 91.1274 14.4746C91.1274 14.2053 91.184 14.0493 91.5091 14.0352C91.8907 14.0352 91.9331 14.2195 91.9331 14.5314C91.9331 15.3536 91.9331 16.1759 91.9331 16.9982C91.9331 17.6078 91.9473 17.6078 92.5833 17.6219C93.3183 17.6219 94.0534 17.6219 94.7742 17.6219C95.4103 17.6219 95.4103 17.6219 95.4244 16.9273C95.4244 16.1334 95.4386 15.3394 95.4244 14.5597C95.4244 14.1769 95.5375 14.021 95.9333 14.0493C96.1736 14.0635 96.3149 14.1344 96.3008 14.4038C96.3008 14.9567 96.3008 15.5237 96.3008 16.0767V18.104" fill="#323232"/>
<path d="M99.3397 22.0455C99.3115 21.8753 99.2832 21.7619 99.2832 21.6485C99.2832 19.2809 99.2832 16.9134 99.2832 14.5458C99.2832 14.2197 99.2832 13.9646 99.7355 14.0071C100.032 14.0354 100.145 14.1489 100.145 14.4324C100.145 15.0987 100.145 15.7792 100.145 16.4455C100.145 16.7858 100.273 16.8992 100.612 16.885C101.163 16.8708 101.729 16.8567 102.28 16.885C103.283 16.9701 104.329 17.5797 104.499 19.0683C104.612 20.1032 104.146 21.4784 103.114 21.8186C102.916 21.8895 102.732 21.9604 102.52 21.9746C102.223 21.9746 101.941 22.0029 101.644 22.0029C100.895 22.0029 100.131 22.0029 99.3539 22.0029M100.145 19.4794C100.23 19.9756 99.99 20.5994 100.273 21.1807C100.852 21.2799 101.432 21.2374 102.011 21.2232C103.085 21.1948 103.707 20.486 103.679 19.3944C103.651 18.3027 102.873 17.5797 101.983 17.6931C101.842 17.7073 101.686 17.6931 101.545 17.6931C101.107 17.7215 100.584 17.523 100.273 17.7782C99.9475 18.0617 100.202 18.6004 100.16 19.0258C100.16 19.1392 100.16 19.2668 100.16 19.4652" fill="#323232"/>
<path d="M85.1341 22.0452C84.7525 22.0452 84.3708 22.0452 83.9892 22.0452C83.4238 22.0452 83.4097 22.0452 83.4097 21.464C83.4097 19.1815 83.4097 16.899 83.4097 14.6165C83.4097 14.5314 83.4097 14.4463 83.4097 14.3471C83.4097 14.0636 83.5652 14.0069 83.8054 14.021C84.0316 14.021 84.2154 14.0494 84.2154 14.3471C84.2154 15.0134 84.2154 15.6939 84.2154 16.3602C84.2154 16.8706 84.2436 16.8848 84.7808 16.899C85.2472 16.899 85.7137 16.899 86.1801 16.899C87.848 16.9415 88.6254 18.1466 88.583 19.3516C88.5689 19.7627 88.583 20.1597 88.4134 20.5566C88.06 21.4214 87.4522 21.946 86.5193 22.0169C86.0529 22.0594 85.5864 22.0169 85.12 22.0169V22.0452M84.2012 19.3516C84.2012 19.862 84.2012 20.3015 84.2012 20.741C84.2012 21.0954 84.3002 21.2939 84.6959 21.2797C85.1907 21.2513 85.6995 21.2939 86.1942 21.2797C86.8586 21.2371 87.3957 20.9536 87.6219 20.3015C88.06 18.9972 87.424 17.5653 85.8833 17.7496C85.3603 17.8063 84.6818 17.5369 84.3567 17.8488C83.9751 18.2033 84.286 18.8979 84.2154 19.3658" fill="#323232"/>
<path d="M105.969 17.9907C105.969 16.8423 105.969 15.7082 105.969 14.5598C105.969 14.2338 105.969 13.9928 106.422 14.0069C106.789 14.0069 106.846 14.2054 106.846 14.5173C106.846 16.8565 106.846 19.2099 106.846 21.5491C106.846 22.0028 106.761 22.0595 106.351 22.0595C106.096 22.0595 105.983 21.9461 105.983 21.6909C105.983 21.5208 105.983 21.3365 105.983 21.1663V18.0049" fill="#3A3A3A"/>
<path d="M61.119 30.58V30.3106C61.119 28.9921 61.119 29.0205 61.755 28.978C63.4654 28.8645 63.7763 29.3324 63.9177 30.4524C63.946 30.6792 63.9318 30.9202 63.9177 31.147C63.8329 31.785 63.4936 32.1394 62.8717 32.267C62.8434 32.267 62.8152 32.2812 62.7869 32.2812C62.2639 32.267 61.6702 32.4939 61.2603 32.1678C60.9352 31.8984 61.1897 31.3455 61.1472 30.906C61.1472 30.7926 61.1472 30.6792 61.1472 30.5516" fill="#FCFCFC"/>
</g>
<defs>
<clipPath id="clip0_4904_3483">
<rect width="170" height="41" fill="white"/>
</clipPath>
</defs>
</svg>
