<svg width="150" height="62" viewBox="0 0 150 62" fill="none" xmlns="http://www.w3.org/2000/svg">
<g clip-path="url(#clip0_4904_3250)">
<path fill-rule="evenodd" clip-rule="evenodd" d="M6.37057 10.4087H8.99159L9.09192 10.2961C9.49322 9.69558 10.1579 9.08256 10.4965 8.45703H10.4839H3.43604V8.55712C3.76209 9.57047 4.69011 10.3211 5.80624 10.3711L6.38311 10.3962L6.37057 10.4087Z" fill="#004E90"/>
<path fill-rule="evenodd" clip-rule="evenodd" d="M4.62765 7.81919H10.6723C10.6723 7.63154 10.6096 7.33128 10.4842 7.14362C9.93239 6.23035 8.01366 6.36797 6.7972 6.11776C5.30485 5.86754 2.33269 5.37963 2.33269 5.37963L2.06934 5.32959V5.47972C2.1822 6.74328 3.22309 7.75664 4.52732 7.81919H4.62765Z" fill="#004E90"/>
<path d="M4.62765 7.81919H10.6723C10.6723 7.63154 10.6096 7.33128 10.4842 7.14362C9.93239 6.23035 8.01366 6.36797 6.7972 6.11776C5.30485 5.86754 2.33269 5.37963 2.33269 5.37963L2.06934 5.32959V5.47972C2.1822 6.74328 3.22309 7.75664 4.52732 7.81919H4.62765Z" stroke="#004E90" stroke-width="0.22" stroke-miterlimit="10"/>
<path fill-rule="evenodd" clip-rule="evenodd" d="M9.04204 13.9366L8.91663 13.5737C8.64073 12.8356 8.62819 11.6721 8.80376 10.934L5.24219 10.8965L5.26727 10.9966C5.55571 12.3852 6.67183 13.4987 8.08894 13.7739C8.22689 13.7989 8.82884 13.924 9.06712 13.924" fill="#004E90"/>
<path d="M9.04204 13.9366L8.91663 13.5737C8.64073 12.8356 8.62819 11.6721 8.80376 10.934L5.24219 10.8965L5.26727 10.9966C5.55571 12.3852 6.67183 13.4987 8.08894 13.7739C8.22689 13.7989 8.82884 13.924 9.06712 13.924L9.04204 13.9366Z" stroke="#004E90" stroke-width="0.22" stroke-miterlimit="10"/>
<path fill-rule="evenodd" clip-rule="evenodd" d="M37.8855 10.8965L34.5998 10.934C34.7879 11.7347 34.7503 13.0358 34.4117 13.7614L34.3364 13.9115L34.9258 13.8365C36.5436 13.6989 37.8353 12.5229 38.1488 10.9966L38.1739 10.8965H37.8855Z" fill="#004E90"/>
<path d="M37.8855 10.8965L34.5998 10.934C34.7879 11.7347 34.7503 13.0358 34.4117 13.7614L34.3364 13.9115L34.9258 13.8365C36.5436 13.6989 37.8353 12.5229 38.1488 10.9966L38.1739 10.8965H37.8855Z" stroke="#004E90" stroke-width="0.22" stroke-miterlimit="10"/>
<path fill-rule="evenodd" clip-rule="evenodd" d="M39.7041 8.45703H32.9321C33.2582 9.08256 33.9228 9.69558 34.3367 10.2961L34.3994 10.4087H37.5095C37.6976 10.4087 37.8857 10.3586 37.9484 10.3461C38.9141 10.1835 39.6916 9.47039 39.9675 8.56963V8.46954H39.7041V8.45703Z" fill="#004E90"/>
<path d="M39.7041 8.45703H32.9321C33.2582 9.08256 33.9228 9.69558 34.3367 10.2961L34.3994 10.4087H37.5095C37.6976 10.4087 37.8857 10.3586 37.9484 10.3461C38.9141 10.1835 39.6916 9.47039 39.9675 8.56963V8.46954H39.7041V8.45703Z" stroke="#004E90" stroke-width="0.22" stroke-miterlimit="10"/>
<path fill-rule="evenodd" clip-rule="evenodd" d="M41.071 5.37939C39.5787 5.62961 38.0989 5.87982 36.6065 6.11752C35.3901 6.36773 33.4713 6.23011 32.9196 7.14339C32.7941 7.33104 32.744 7.53121 32.7314 7.71887V7.81896H38.7761H38.8764C40.1807 7.7564 41.2215 6.74305 41.3344 5.47948L41.0334 5.52952L41.0585 5.37939H41.071Z" fill="#004E90"/>
<path fill-rule="evenodd" clip-rule="evenodd" d="M34.9638 16.9017C34.1361 16.9017 33.3962 16.5264 32.6814 15.9384L32.1045 15.2378L29.195 11.8975C28.9944 11.7223 28.8063 11.5597 28.6307 11.3845C26.8625 9.44539 24.718 7.73145 21.6079 7.73145C19.175 7.73145 17.344 8.78233 15.8141 10.1585C15.2999 10.5964 14.8233 11.0718 14.3844 11.5472L14.1587 11.7473L10.6974 15.7132L10.572 15.8508C9.84465 16.4638 9.09221 16.8642 8.25198 16.8642H8.21436V16.8892C8.21436 17.2895 8.50279 17.6148 8.87902 17.6899H34.3117C34.6879 17.6148 34.9763 17.2895 34.9763 16.8892" fill="#004E90"/>
<path fill-rule="evenodd" clip-rule="evenodd" d="M22.937 51.4186C22.3727 51.0433 21.7707 50.668 21.1312 50.2927C20.3536 49.8173 19.5385 49.3419 18.7484 48.8164C16.1776 50.6805 14.6601 52.8073 14.7855 54.6714C14.9987 57.749 18.924 59.1501 18.924 59.1501C18.924 59.1501 18.786 59.0751 18.5728 58.9249C18.8864 59.0751 19.0996 59.1501 19.0996 59.1501C19.0996 59.1501 17.0429 58.0867 16.8924 55.5221C16.8171 54.3836 17.6072 52.8448 19.25 51.5437C19.6137 51.256 20.0025 50.9807 20.4289 50.7055L20.6671 60.7515C20.6671 61.3145 21.1312 61.7774 21.6955 61.7774C22.2598 61.7774 22.7238 61.3145 22.7238 60.7515V60.6139L22.937 51.4436V51.4186Z" fill="#004E90"/>
<path fill-rule="evenodd" clip-rule="evenodd" d="M18.6358 35.4051L18.9117 35.5552L18.8364 35.5177C19.2503 35.7429 19.8397 36.0681 20.078 36.2058L20.1783 36.2683C21.332 36.9314 22.398 37.6069 23.2508 38.3325C24.6177 39.4835 25.483 40.7596 25.3451 42.2358C25.2698 42.9615 24.718 44.0749 23.464 45.2259L23.4013 47.728L23.489 47.7905C23.489 47.7905 23.8151 48.0157 24.1035 48.2159C26.8374 46.3894 29.17 44.0999 28.4301 40.2592C28.2796 39.4585 27.941 38.6954 27.4394 37.9572C26.7873 37.0314 25.9094 36.1432 24.9689 35.33C23.5141 34.0915 21.8462 32.9905 19.9651 31.827C19.4885 31.5393 18.9995 31.2391 18.5229 30.9388C18.2721 30.7887 18.0213 30.6385 17.7579 30.4759H17.7705C17.2187 30.1381 16.6543 29.7878 16.1025 29.4375C9.07972 25.0338 16.9177 22.6068 16.2405 25.8095C17.0933 25.5968 19.4384 23.8203 17.5196 21.6184C16.3659 20.2923 12.9046 19.5292 10.4592 21.756C10.0328 22.1439 9.69421 22.5567 9.41832 22.9946C7.56228 25.5593 8.50284 28.7494 11.0862 31.0264C11.1991 31.1265 11.312 31.214 11.4248 31.3141C13.2056 32.7278 15.9646 34.0039 18.5605 35.3926L18.6232 35.4301L18.6358 35.4051ZM20.0654 36.1807C19.8648 36.0806 19.7017 35.9931 19.5387 35.893C19.7143 35.9931 19.8898 36.0806 20.0654 36.1807Z" fill="#004E90"/>
<path fill-rule="evenodd" clip-rule="evenodd" d="M19.6387 18.103L19.6638 18.2281V18.2907L19.9647 31.3642C21.2063 32.1274 22.3224 32.8405 23.3633 33.5661L23.4134 31.6395L23.7395 18.2657V18.2281L23.7646 18.103H19.6387Z" fill="#004E90"/>
<path fill-rule="evenodd" clip-rule="evenodd" d="M33.1829 21.956C32.9948 21.7809 32.7942 21.6308 32.5935 21.4932C30.1732 19.6541 27.0003 20.3922 25.9093 21.6558C24.3919 23.4073 25.5456 24.8835 26.5238 25.5216C26.8499 25.7843 27.1885 25.9469 27.4142 26.0095L27.3891 25.8468L27.4518 25.8719L27.3891 25.8343C27.2386 24.4832 28.731 24.2705 29.7091 24.871C30.6497 25.6467 30.7751 27.3231 27.3389 29.4874C26.1476 30.238 24.9687 30.9637 23.815 31.6768L23.7397 33.8411C24.2665 34.2289 24.7806 34.6293 25.2697 35.0421L25.3073 35.0796C27.9284 33.716 30.6748 32.4774 32.3929 30.9637C35.3023 28.399 36.13 24.6458 33.1955 21.9686" fill="#004E90"/>
<path fill-rule="evenodd" clip-rule="evenodd" d="M40.9956 5.39196V5.52957L41.3342 5.5546L41.3593 5.31689L40.9956 5.39196Z" fill="white"/>
<path fill-rule="evenodd" clip-rule="evenodd" d="M11.3241 7.95657C11.3241 8.63214 11.0231 9.23265 10.5591 9.63298L10.2707 9.89571C9.63108 10.5463 9.22978 11.4345 9.22978 12.4228C9.22978 13.2861 9.5433 14.0867 10.0575 14.7123L10.5466 15.2127L10.5842 15.2627L13.8573 11.4971L13.7946 11.2093C13.7946 11.0342 13.8448 10.884 13.9451 10.7464C14.4217 10.0208 14.685 9.17009 14.685 8.24431C14.685 6.24262 13.4059 4.52867 11.6125 3.89063L11.3115 3.79055L0.551575 0.250053L0.350922 0.1875L0.288219 0.362648C0.125189 0.712944 0.0248627 1.11328 -0.000218808 1.53864C-0.0629226 2.92732 0.80239 4.12833 2.04392 4.5662L2.19441 4.61624C2.42015 4.6788 2.64588 4.71633 2.88416 4.72884C4.76527 5.0416 9.15453 5.71717 9.61854 5.77973C10.5967 6.01743 11.3241 6.89317 11.3241 7.94406" fill="#004E90"/>
<path fill-rule="evenodd" clip-rule="evenodd" d="M43.1401 0.42532L43.0524 0.162598L32.0917 3.79066L31.7907 3.89075C29.9974 4.52879 28.7183 6.24274 28.7183 8.24443C28.7183 9.17021 28.9942 10.0334 29.4582 10.7465C29.546 10.8716 29.5961 11.0343 29.5961 11.2094C29.5961 11.3596 29.546 11.5097 29.4707 11.6223H29.4832L32.3927 14.9751V14.9876C32.493 15.1127 32.6059 15.2629 32.7062 15.388L32.8316 15.2128L33.3207 14.7124C33.8349 14.0869 34.1359 13.2987 34.1359 12.423C34.1359 11.4346 33.7346 10.5464 33.095 9.89582L32.8065 9.6331C32.33 9.22025 32.0416 8.61975 32.0416 7.95669C32.0416 6.91831 32.7689 6.03006 33.7471 5.79236C34.2111 5.71729 38.6004 5.05423 40.4815 4.74147C40.7198 4.72896 41.3217 4.57883 41.3217 4.56632C42.5633 4.12845 43.4286 2.91492 43.3784 1.53876C43.3659 1.13842 43.2655 0.763105 43.1151 0.42532" fill="#004E90"/>
<path d="M43.1401 0.42532L43.0524 0.162598L32.0917 3.79066L31.7907 3.89075C29.9974 4.52879 28.7183 6.24274 28.7183 8.24443C28.7183 9.17021 28.9942 10.0334 29.4582 10.7465C29.546 10.8716 29.5961 11.0343 29.5961 11.2094C29.5961 11.3596 29.546 11.5097 29.4707 11.6223H29.4832L32.3927 14.9751V14.9876C32.493 15.1127 32.6059 15.2629 32.7062 15.388L32.8316 15.2128L33.3207 14.7124C33.8349 14.0869 34.1359 13.2987 34.1359 12.423C34.1359 11.4346 33.7346 10.5464 33.095 9.89582L32.8065 9.6331C32.33 9.22025 32.0416 8.61975 32.0416 7.95669C32.0416 6.91831 32.7689 6.03006 33.7471 5.79236C34.2111 5.71729 38.6004 5.05423 40.4815 4.74147C40.7198 4.72896 41.3217 4.57883 41.3217 4.56632C42.5633 4.12845 43.4286 2.91492 43.3784 1.53876C43.3659 1.13842 43.2655 0.763105 43.1151 0.42532H43.1401Z" stroke="#004E90" stroke-width="0.22" stroke-miterlimit="10"/>
<path fill-rule="evenodd" clip-rule="evenodd" d="M20.1406 36.7061V38.6702L20.2911 45.4384C21.031 46.089 21.9465 46.752 23.0125 47.4526L23.0752 44.888H23.0877L23.2382 38.8329C22.3478 38.0197 21.2191 37.3316 20.1406 36.7061Z" fill="#004E90"/>
<path fill-rule="evenodd" clip-rule="evenodd" d="M18.1718 35.6177C16.3659 37.144 15.0993 38.7328 14.7481 40.5343C14.0082 44.4001 16.3283 46.7146 19.0747 48.5536C20.8806 49.7546 22.8745 50.768 24.2666 51.8814C24.4547 52.0316 24.6177 52.1817 24.7807 52.3318H24.7557C26.085 53.5578 26.712 54.909 26.6493 55.9474C26.549 57.4987 25.784 58.4995 25.1695 59.0625C24.9563 59.1751 24.7682 59.2752 24.6052 59.3502C24.4672 59.4378 24.392 59.4879 24.392 59.4879C24.392 59.4879 24.6177 59.4003 24.9688 59.2376C24.7557 59.4003 24.6052 59.4753 24.6052 59.4753L24.7431 59.4253C24.555 59.5629 24.4296 59.6255 24.4296 59.6255C24.4296 59.6255 25.7715 59.1376 26.9377 58.1242C27.8281 57.3986 28.6433 56.3602 28.7436 54.9966C28.869 53.2451 27.5146 51.2559 25.2197 49.4669C25.0065 49.3168 24.7933 49.1666 24.5675 49.004C24.5174 48.9665 24.2039 48.7538 23.9029 48.5411L23.7649 48.4535C23.5392 48.2909 23.3385 48.1533 23.2884 48.1283C21.771 47.1274 20.542 46.2642 19.639 45.3634C18.5981 44.3501 17.9962 43.3742 17.9836 42.3359C17.9711 41.0598 18.6859 39.8963 19.7644 38.8579V36.5059C19.4258 36.3058 18.711 35.9054 18.3975 35.7428L18.1843 35.6302L18.1718 35.6177Z" fill="#004E90"/>
<path d="M50.2131 28.9993V24.2328H48.3696V23.5947H52.7338V24.2328H50.8778V28.9993H50.2131Z" fill="#004E90"/>
<path d="M55.5682 29.1122C55.029 29.1122 54.565 28.9871 54.1888 28.7494C53.8125 28.5117 53.5241 28.1864 53.3234 27.761C53.1228 27.3357 53.0225 26.8478 53.0225 26.2973C53.0225 25.7468 53.1228 25.2464 53.3234 24.8336C53.5241 24.4082 53.8125 24.0829 54.1888 23.8452C54.565 23.6075 55.029 23.4824 55.5682 23.4824C56.1075 23.4824 56.5715 23.6075 56.9477 23.8452C57.3239 24.0829 57.6124 24.4082 57.8005 24.8336C58.0011 25.2589 58.0889 25.7468 58.0889 26.2973C58.0889 26.8478 57.9886 27.3357 57.8005 27.761C57.5998 28.1864 57.3239 28.5117 56.9477 28.7494C56.5715 28.9871 56.1075 29.1122 55.5682 29.1122ZM55.5682 28.4741C55.9695 28.4741 56.3081 28.3866 56.584 28.1989C56.8474 28.0113 57.0606 27.761 57.186 27.4358C57.3239 27.1105 57.3866 26.7227 57.3866 26.2973C57.3866 25.8719 57.3239 25.4841 57.186 25.1588C57.048 24.8336 56.8474 24.5834 56.584 24.3957C56.3207 24.208 55.9821 24.1205 55.5682 24.1205C55.1669 24.1205 54.8283 24.208 54.565 24.3957C54.3016 24.5834 54.101 24.8336 53.963 25.1588C53.8251 25.4841 53.7624 25.8719 53.7624 26.2973C53.7624 26.7227 53.8251 27.1105 53.963 27.4358C54.101 27.761 54.3016 28.0113 54.5775 28.1989C54.8534 28.3866 55.1795 28.4741 55.5933 28.4741" fill="#004E90"/>
<path d="M58.8413 28.9993V23.5947H60.9858C60.9858 23.5947 61.0986 23.5947 61.1739 23.5947C61.2491 23.5947 61.3118 23.5947 61.3871 23.6197C61.6755 23.6698 61.9263 23.7699 62.127 23.92C62.3276 24.0701 62.4781 24.2703 62.5785 24.508C62.6788 24.7457 62.7289 25.0084 62.7289 25.2962C62.7289 25.5839 62.6788 25.8466 62.5785 26.0843C62.4781 26.322 62.3276 26.5222 62.127 26.6723C61.9263 26.8225 61.6881 26.9225 61.3871 26.9726C61.3244 26.9726 61.2491 26.9851 61.1739 26.9976C61.0986 27.0101 61.0359 26.9976 60.9858 26.9976H59.5185V28.9993H58.8539H58.8413ZM59.506 26.3721H60.9607C60.9607 26.3721 61.061 26.3721 61.1237 26.3721C61.1864 26.3721 61.2491 26.3596 61.2993 26.3471C61.4749 26.3095 61.6128 26.2345 61.7257 26.1219C61.8386 26.0218 61.9138 25.8967 61.964 25.7465C62.0141 25.5964 62.0392 25.4588 62.0392 25.3087C62.0392 25.1585 62.0141 25.0084 61.964 24.8708C61.9138 24.7332 61.8386 24.5956 61.7257 24.4955C61.6128 24.3829 61.4749 24.3203 61.2993 24.2828C61.2491 24.2703 61.1864 24.2578 61.1237 24.2578C61.061 24.2578 61.0109 24.2578 60.9607 24.2578H59.506V26.3971V26.3721Z" fill="#004E90"/>
<path d="M63.4814 28.9993V23.5947H66.9051V24.2328H64.1461V28.9993H63.4814Z" fill="#004E90"/>
<path d="M69.7391 29.1122C69.1999 29.1122 68.7359 28.9871 68.3596 28.7494C67.9834 28.5117 67.695 28.1864 67.4943 27.761C67.2937 27.3357 67.1934 26.8478 67.1934 26.2973C67.1934 25.7468 67.2937 25.2464 67.4943 24.8336C67.695 24.4082 67.9834 24.0829 68.3596 23.8452C68.7359 23.6075 69.1999 23.4824 69.7391 23.4824C70.2784 23.4824 70.7424 23.6075 71.1186 23.8452C71.4948 24.0829 71.7833 24.4082 71.9714 24.8336C72.172 25.2589 72.2598 25.7468 72.2598 26.2973C72.2598 26.8478 72.1595 27.3357 71.9714 27.761C71.7707 28.1864 71.4948 28.5117 71.1186 28.7494C70.7424 28.9871 70.2784 29.1122 69.7391 29.1122ZM69.7391 28.4741C70.1404 28.4741 70.479 28.3866 70.7549 28.1989C71.0183 28.0113 71.2315 27.761 71.3569 27.4358C71.4948 27.1105 71.5575 26.7227 71.5575 26.2973C71.5575 25.8719 71.4948 25.4841 71.3569 25.1588C71.2189 24.8336 71.0183 24.5834 70.7549 24.3957C70.4916 24.208 70.153 24.1205 69.7391 24.1205C69.3378 24.1205 68.9992 24.208 68.7359 24.3957C68.4725 24.5834 68.2719 24.8336 68.1339 25.1588C67.996 25.4841 67.9333 25.8719 67.9333 26.2973C67.9333 26.7227 67.996 27.1105 68.1339 27.4358C68.2719 27.761 68.4725 28.0113 68.7484 28.1989C69.0243 28.3866 69.3504 28.4741 69.7642 28.4741" fill="#004E90"/>
<path d="M73.0249 28.9993V23.5947H75.1318C75.4578 23.5947 75.7337 23.6573 75.9594 23.7949C76.1852 23.9325 76.3607 24.1077 76.4862 24.3203C76.6116 24.533 76.6743 24.7707 76.6743 25.0209C76.6743 25.3087 76.599 25.5714 76.4485 25.7966C76.298 26.0218 76.0974 26.1719 75.834 26.247V26.0593C76.1726 26.1469 76.4485 26.322 76.6366 26.5722C76.8248 26.8225 76.9251 27.1102 76.9251 27.4605C76.9251 27.7733 76.8624 28.0485 76.737 28.2737C76.6116 28.4989 76.4234 28.6865 76.1852 28.8116C75.9469 28.9367 75.6585 28.9993 75.3199 28.9993H73.0249ZM73.7021 25.8466H75.1318C75.2948 25.8466 75.4327 25.8091 75.5707 25.7465C75.6961 25.684 75.8089 25.5839 75.8842 25.4588C75.9594 25.3337 75.9971 25.1836 75.9971 25.0209C75.9971 24.7832 75.9218 24.5956 75.7588 24.4454C75.5958 24.2953 75.3951 24.2203 75.1443 24.2203H73.7146V25.8466H73.7021ZM73.7021 28.3613H75.1945C75.3951 28.3613 75.5707 28.3237 75.7337 28.2487C75.8967 28.1736 76.0221 28.0735 76.1099 27.9359C76.1977 27.7983 76.2479 27.6356 76.2479 27.448C76.2479 27.2603 76.2103 27.0977 76.1225 26.9601C76.0347 26.8099 75.9218 26.6973 75.7839 26.6098C75.6334 26.5222 75.4704 26.4847 75.2697 26.4847H73.7021V28.3613Z" fill="#004E90"/>
<path d="M79.9095 29.1122C79.3703 29.1122 78.9063 28.9871 78.5301 28.7494C78.1538 28.5117 77.8654 28.1864 77.6647 27.761C77.4641 27.3357 77.3638 26.8478 77.3638 26.2973C77.3638 25.7468 77.4641 25.2464 77.6647 24.8336C77.8654 24.4082 78.1538 24.0829 78.5301 23.8452C78.9063 23.6075 79.3703 23.4824 79.9095 23.4824C80.4488 23.4824 80.9128 23.6075 81.289 23.8452C81.6653 24.0829 81.9537 24.4082 82.1418 24.8336C82.3425 25.2589 82.4302 25.7468 82.4302 26.2973C82.4302 26.8478 82.3299 27.3357 82.1418 27.761C81.9411 28.1864 81.6653 28.5117 81.289 28.7494C80.9128 28.9871 80.4488 29.1122 79.9095 29.1122ZM79.9095 28.4741C80.3109 28.4741 80.6494 28.3866 80.9253 28.1989C81.1887 28.0113 81.4019 27.761 81.5273 27.4358C81.6653 27.1105 81.728 26.7227 81.728 26.2973C81.728 25.8719 81.6653 25.4841 81.5273 25.1588C81.3894 24.8336 81.1887 24.5834 80.9253 24.3957C80.662 24.208 80.3234 24.1205 79.9095 24.1205C79.5082 24.1205 79.1696 24.208 78.9063 24.3957C78.6429 24.5834 78.4423 24.8336 78.3043 25.1588C78.1664 25.4841 78.1037 25.8719 78.1037 26.2973C78.1037 26.7227 78.1664 27.1105 78.3043 27.4358C78.4423 27.761 78.6429 28.0113 78.9188 28.1989C79.1947 28.3866 79.5208 28.4741 79.9346 28.4741" fill="#004E90"/>
<path d="M85.3775 26.3599H83.1201V26.9103H85.3775V26.3599Z" fill="#004E90"/>
<path d="M86.3555 28.9993V23.5947H90.5817V28.9993H89.917V24.2328H87.0201V28.9993H86.3555Z" fill="#004E90"/>
<path d="M91.6353 28.9993V23.5947H93.7797C93.7797 23.5947 93.8926 23.5947 93.9678 23.5947C94.0431 23.5947 94.1058 23.5947 94.181 23.6197C94.4695 23.6698 94.7203 23.7699 94.9209 23.92C95.1216 24.0701 95.2721 24.2703 95.3724 24.508C95.4727 24.7457 95.5229 25.0084 95.5229 25.2962C95.5229 25.5839 95.4727 25.8466 95.3724 26.0843C95.2721 26.322 95.1216 26.5222 94.9209 26.6723C94.7203 26.8225 94.482 26.9225 94.181 26.9726C94.1183 26.9726 94.0431 26.9851 93.9678 26.9976C93.8926 27.0101 93.8299 26.9976 93.7797 26.9976H92.3125V28.9993H91.6478H91.6353ZM92.2999 26.3721H93.7546C93.7546 26.3721 93.855 26.3721 93.9177 26.3721C93.9804 26.3721 94.0431 26.3596 94.0932 26.3471C94.2688 26.3095 94.4068 26.2345 94.5196 26.1219C94.6325 26.0218 94.7077 25.8967 94.7579 25.7465C94.8081 25.5964 94.8332 25.4588 94.8332 25.3087C94.8332 25.1585 94.8081 25.0084 94.7579 24.8708C94.7077 24.7332 94.6325 24.5956 94.5196 24.4955C94.4068 24.3829 94.2688 24.3203 94.0932 24.2828C94.0431 24.2703 93.9804 24.2578 93.9177 24.2578C93.855 24.2578 93.8048 24.2578 93.7546 24.2578H92.2999V26.3971V26.3721Z" fill="#004E90"/>
<path d="M98.5077 29.1122C97.9684 29.1122 97.5044 28.9871 97.1282 28.7494C96.752 28.5117 96.4636 28.1864 96.2629 27.761C96.0622 27.3357 95.9619 26.8478 95.9619 26.2973C95.9619 25.7468 96.0622 25.2464 96.2629 24.8336C96.4636 24.4082 96.752 24.0829 97.1282 23.8452C97.5044 23.6075 97.9684 23.4824 98.5077 23.4824C99.0469 23.4824 99.511 23.6075 99.8872 23.8452C100.263 24.0829 100.552 24.4082 100.74 24.8336C100.941 25.2589 101.028 25.7468 101.028 26.2973C101.028 26.8478 100.928 27.3357 100.74 27.761C100.539 28.1864 100.263 28.5117 99.8872 28.7494C99.511 28.9871 99.0469 29.1122 98.5077 29.1122ZM98.5077 28.4741C98.909 28.4741 99.2476 28.3866 99.5235 28.1989C99.7869 28.0113 100 27.761 100.125 27.4358C100.263 27.1105 100.326 26.7227 100.326 26.2973C100.326 25.8719 100.263 25.4841 100.125 25.1588C99.9875 24.8336 99.7869 24.5834 99.5235 24.3957C99.2601 24.208 98.9215 24.1205 98.5077 24.1205C98.1064 24.1205 97.7678 24.208 97.5044 24.3957C97.2411 24.5834 97.0404 24.8336 96.9025 25.1588C96.7645 25.4841 96.7018 25.8719 96.7018 26.2973C96.7018 26.7227 96.7645 27.1105 96.9025 27.4358C97.0404 27.761 97.2411 28.0113 97.517 28.1989C97.7929 28.3866 98.1189 28.4741 98.5328 28.4741" fill="#004E90"/>
<path d="M101.781 28.9993V23.5947H102.395L104.439 27.8984L106.484 23.5947H107.098V28.9993H106.458V25.0585L104.615 28.9993H104.264L102.42 25.0585V28.9993H101.781Z" fill="#004E90"/>
<path d="M108.151 28.9996V23.595H108.829V25.5967H110.296C110.296 25.5967 110.409 25.5967 110.484 25.5967C110.559 25.5967 110.622 25.5967 110.697 25.6217C110.986 25.6718 111.236 25.7719 111.437 25.922C111.638 26.0721 111.788 26.2723 111.889 26.51C111.989 26.7477 112.039 27.0104 112.039 27.2982C112.039 27.5859 111.989 27.8486 111.889 28.0863C111.788 28.324 111.638 28.5242 111.437 28.6743C111.236 28.8244 110.998 28.937 110.697 28.9746C110.634 28.9746 110.559 28.9871 110.484 28.9996C110.409 29.0121 110.346 28.9996 110.296 28.9996H108.151ZM108.829 28.3616H110.271C110.271 28.3616 110.371 28.3616 110.434 28.3616C110.496 28.3616 110.559 28.349 110.609 28.3365C110.785 28.299 110.923 28.2239 111.036 28.1113C111.149 28.0113 111.224 27.8862 111.274 27.736C111.324 27.5859 111.349 27.4483 111.349 27.2982C111.349 27.148 111.324 26.9979 111.274 26.8603C111.224 26.7102 111.149 26.5976 111.036 26.485C110.923 26.3724 110.785 26.3098 110.609 26.2723C110.559 26.2598 110.496 26.2473 110.434 26.2473C110.371 26.2473 110.321 26.2473 110.271 26.2473H108.829V28.3866V28.3616ZM112.578 23.5825H113.243V28.9871H112.578V23.5825Z" fill="#004E90"/>
<path d="M114.284 28.9993V23.5947H114.961V28.3738H116.892V23.5947H117.557V28.3738H119.488V23.5947H120.165V28.9993H114.284Z" fill="#004E90"/>
<path d="M120.843 28.9996V28.4241C120.981 28.4366 121.081 28.4241 121.169 28.3991C121.257 28.3741 121.332 28.324 121.382 28.2365C121.432 28.1489 121.482 28.0363 121.533 27.8736C121.57 27.711 121.62 27.5108 121.658 27.2481C121.708 26.9479 121.758 26.6476 121.796 26.3348C121.833 26.0346 121.859 25.7218 121.884 25.4091C121.909 25.0963 121.934 24.796 121.946 24.4833C121.959 24.183 121.984 23.8703 121.997 23.5825H125.483V28.9871H124.818V24.208H122.636C122.624 24.4332 122.611 24.6835 122.586 24.9337C122.561 25.1839 122.548 25.4591 122.523 25.7468C122.498 26.0221 122.473 26.3223 122.435 26.6101C122.398 26.9103 122.36 27.2106 122.297 27.5234C122.26 27.7736 122.21 27.9988 122.147 28.1989C122.084 28.3991 122.009 28.5742 121.909 28.7119C121.808 28.8495 121.67 28.937 121.495 28.9996C121.332 29.0496 121.106 29.0371 120.843 28.9746" fill="#004E90"/>
<path d="M126.536 28.9993V23.5947H129.96V24.2328H127.213V25.9217H129.508V26.5597H127.213V28.3738H129.96V28.9993H126.536Z" fill="#004E90"/>
<path d="M130.875 28.9993V23.5947H131.54V25.9842H134.399V23.5947H135.064V28.9993H134.399V26.6098H131.54V28.9993H130.875Z" fill="#004E90"/>
<path d="M136.117 28.9993V23.5947H136.782V25.9842H139.641V23.5947H140.306V28.9993H139.641V26.6098H136.782V28.9993H136.117Z" fill="#004E90"/>
<path d="M140.983 28.9993L142.802 23.5947H143.73L145.548 28.9993H144.858L143.165 23.9826H143.379L141.698 28.9993H140.996H140.983ZM141.861 27.1102H144.67V27.7357H141.861V27.1102Z" fill="#004E90"/>
<path d="M146.777 28.9993H146.012L147.191 26.5973L147.856 26.7974L146.79 28.9993H146.777ZM150 28.9993H149.336V26.9976H147.668L147.417 26.9601C146.99 26.885 146.677 26.6973 146.451 26.3846C146.238 26.0718 146.125 25.709 146.125 25.2962C146.125 25.0084 146.175 24.7457 146.276 24.508C146.376 24.2703 146.526 24.0701 146.727 23.92C146.928 23.7699 147.166 23.6698 147.467 23.6197C147.542 23.6072 147.605 23.5947 147.68 23.5947C147.755 23.5947 147.818 23.5947 147.868 23.5947H150.013V28.9993H150ZM149.336 26.3721V24.2328H147.881C147.881 24.2328 147.78 24.2328 147.718 24.2328C147.655 24.2328 147.592 24.2453 147.542 24.2578C147.367 24.2953 147.229 24.3704 147.116 24.4705C147.003 24.5831 146.928 24.7082 146.878 24.8458C146.827 24.9959 146.802 25.1335 146.802 25.2837C146.802 25.4338 146.827 25.5839 146.878 25.7215C146.928 25.8591 147.003 25.9842 147.116 26.0968C147.229 26.1969 147.367 26.272 147.542 26.322C147.605 26.3345 147.655 26.3471 147.718 26.3471C147.78 26.3471 147.831 26.3471 147.881 26.3471H149.336V26.3721Z" fill="#004E90"/>
<path d="M48.8213 38.0196V32.6025H53.0475V38.0196H52.3829V33.2406H49.4859V38.0196H48.8213Z" fill="#004E90"/>
<path d="M53.7246 38.0198L55.543 32.6152H56.471L58.2894 38.0198H57.5872L55.8942 33.0031H56.1074L54.4269 38.0198H53.7371H53.7246ZM54.6025 36.1307H57.4116V36.7562H54.6025V36.1307Z" fill="#004E90"/>
<path d="M58.854 38.0196V37.4441C58.992 37.4566 59.0923 37.4441 59.1801 37.4191C59.2678 37.3941 59.3431 37.344 59.3933 37.2565C59.4434 37.1689 59.4936 37.0563 59.5437 36.8937C59.5814 36.731 59.6315 36.5309 59.6692 36.2681C59.7193 35.9679 59.7695 35.6676 59.8071 35.3549C59.8447 35.0546 59.8698 34.7418 59.8949 34.4291C59.92 34.1163 59.9451 33.8161 59.9576 33.5033C59.9701 33.203 59.9952 32.8903 60.0078 32.6025H63.4941V38.0071H62.8294V33.2281H60.6473C60.6348 33.4533 60.6222 33.7035 60.5972 33.9537C60.5721 34.2039 60.5595 34.4791 60.5345 34.7669C60.5094 35.0421 60.4843 35.3424 60.4467 35.6301C60.4091 35.9304 60.3714 36.2306 60.3087 36.5434C60.2711 36.7936 60.2209 37.0188 60.1582 37.2189C60.0955 37.4191 60.0203 37.5943 59.92 37.7319C59.8196 37.8695 59.6817 37.9571 59.5061 38.0196C59.3431 38.0697 59.1174 38.0572 58.854 37.9946" fill="#004E90"/>
<path d="M64.1709 38.0198L65.9893 32.6152H66.9173L68.7357 38.0198H68.046L66.353 33.0031H66.5662L64.8857 38.0198H64.1834H64.1709ZM65.0488 36.1307H67.8579V36.7562H65.0488V36.1307Z" fill="#004E90"/>
<path d="M70.3663 38.0196V33.2406H68.5103V32.6025H72.887V33.2406H71.0309V38.0196H70.3663Z" fill="#004E90"/>
<path d="M72.9619 38.0198L74.7803 32.6152H75.7083L77.5267 38.0198H76.8245L75.1315 33.0031H75.3447L73.6642 38.0198H72.9745H72.9619ZM73.8398 36.1307H76.6489V36.7562H73.8398V36.1307Z" fill="#004E90"/>
<path d="M79.709 38.0198V32.6152H81.8534C81.8534 32.6152 81.9663 32.6152 82.0416 32.6152C82.1168 32.6152 82.1795 32.6152 82.2548 32.6403C82.5432 32.6903 82.794 32.7904 82.9947 32.9405C83.1953 33.0906 83.3458 33.2908 83.4461 33.5285C83.5465 33.7662 83.5966 34.0289 83.5966 34.3167C83.5966 34.6044 83.5465 34.8671 83.4461 35.1048C83.3458 35.3425 83.1953 35.5427 82.9947 35.6928C82.794 35.843 82.5557 35.943 82.2548 35.9931C82.192 35.9931 82.1168 36.0056 82.0416 36.0181C81.9663 36.0306 81.9036 36.0181 81.8534 36.0181H80.3862V38.0198H79.7215H79.709ZM80.3736 35.3926H81.8284C81.8284 35.3926 81.9287 35.3926 81.9914 35.3926C82.0541 35.3926 82.1168 35.3801 82.167 35.3676C82.3425 35.33 82.4805 35.255 82.5934 35.1424C82.7062 35.0423 82.7815 34.9172 82.8316 34.7671C82.8818 34.6169 82.9069 34.4793 82.9069 34.3292C82.9069 34.1791 82.8818 34.0289 82.8316 33.8913C82.7815 33.7537 82.7062 33.6161 82.5934 33.516C82.4805 33.4034 82.3425 33.3408 82.167 33.3033C82.1168 33.2908 82.0541 33.2783 81.9914 33.2783C81.9287 33.2783 81.8785 33.2783 81.8284 33.2783H80.3736V35.4176V35.3926Z" fill="#004E90"/>
<path d="M86.5687 38.1322C86.0295 38.1322 85.5655 38.0071 85.1892 37.7694C84.813 37.5317 84.5246 37.2064 84.3239 36.7811C84.1233 36.3557 84.0229 35.8678 84.0229 35.3173C84.0229 34.7669 84.1233 34.2664 84.3239 33.8536C84.5246 33.4282 84.813 33.103 85.1892 32.8652C85.5655 32.6275 86.0295 32.5024 86.5687 32.5024C87.108 32.5024 87.572 32.6275 87.9482 32.8652C88.3244 33.103 88.6129 33.4282 88.801 33.8536C89.0016 34.2789 89.0894 34.7669 89.0894 35.3173C89.0894 35.8678 88.9891 36.3557 88.801 36.7811C88.6003 37.2064 88.3244 37.5317 87.9482 37.7694C87.572 38.0071 87.108 38.1322 86.5687 38.1322ZM86.5687 37.4942C86.97 37.4942 87.3086 37.4066 87.5845 37.2189C87.8479 37.0313 88.0611 36.7811 88.1865 36.4558C88.3244 36.1305 88.3871 35.7427 88.3871 35.3173C88.3871 34.892 88.3244 34.5041 88.1865 34.1789C88.0485 33.8536 87.8479 33.6034 87.5845 33.4157C87.3212 33.2281 86.9826 33.1405 86.5687 33.1405C86.1674 33.1405 85.8288 33.2281 85.5655 33.4157C85.3021 33.6034 85.1015 33.8536 84.9635 34.1789C84.8256 34.5041 84.7628 34.892 84.7628 35.3173C84.7628 35.7427 84.8256 36.1305 84.9635 36.4558C85.1015 36.7811 85.3021 37.0313 85.578 37.2189C85.8539 37.4066 86.18 37.4942 86.5938 37.4942" fill="#004E90"/>
<path d="M92.0741 38.1322C91.5348 38.1322 91.0708 38.0071 90.6946 37.7694C90.3184 37.5317 90.0299 37.2064 89.8293 36.7811C89.6286 36.3557 89.5283 35.8678 89.5283 35.3173C89.5283 34.7669 89.6286 34.2789 89.8293 33.8536C90.0299 33.4282 90.3184 33.103 90.6946 32.8652C91.0708 32.6275 91.5348 32.5024 92.0741 32.5024C92.7011 32.5024 93.2153 32.6651 93.6292 32.9778C94.0305 33.2906 94.3189 33.7285 94.4694 34.2664L93.7922 34.4416C93.6793 34.0412 93.4912 33.716 93.2028 33.4908C92.9143 33.2531 92.5506 33.1405 92.0866 33.1405C91.6853 33.1405 91.3467 33.2281 91.0834 33.4157C90.82 33.6034 90.6068 33.8536 90.4814 34.1789C90.3435 34.5041 90.2808 34.892 90.2682 35.3173C90.2682 35.7552 90.3309 36.1305 90.4689 36.4558C90.6068 36.7811 90.8075 37.0313 91.0834 37.2189C91.3593 37.4066 91.6979 37.4942 92.0992 37.4942C92.5632 37.4942 92.9269 37.3816 93.2153 37.1439C93.5037 36.9062 93.6919 36.5934 93.8047 36.1931L94.4819 36.3682C94.3314 36.9062 94.0555 37.3315 93.6417 37.6443C93.2404 37.9696 92.7137 38.1197 92.0866 38.1197" fill="#004E90"/>
<path d="M97.517 38.1322C96.9777 38.1322 96.5137 38.0071 96.1375 37.7694C95.7613 37.5317 95.4728 37.2064 95.2722 36.7811C95.0715 36.3557 94.9712 35.8678 94.9712 35.3173C94.9712 34.7669 95.0715 34.2789 95.2722 33.8536C95.4728 33.4282 95.7613 33.103 96.1375 32.8652C96.5137 32.6275 96.9777 32.5024 97.517 32.5024C98.144 32.5024 98.6582 32.6651 99.072 32.9778C99.4733 33.2906 99.7618 33.7285 99.9122 34.2664L99.235 34.4416C99.1222 34.0412 98.9341 33.716 98.6456 33.4908C98.3572 33.2531 97.9935 33.1405 97.5295 33.1405C97.1282 33.1405 96.7896 33.2281 96.5262 33.4157C96.2629 33.6034 96.0497 33.8536 95.9243 34.1789C95.7863 34.5041 95.7236 34.892 95.7111 35.3173C95.7111 35.7552 95.7738 36.1305 95.9117 36.4558C96.0497 36.7811 96.2503 37.0313 96.5262 37.2189C96.8021 37.4066 97.1407 37.4942 97.542 37.4942C98.006 37.4942 98.3697 37.3816 98.6582 37.1439C98.9466 36.9062 99.1347 36.5934 99.2476 36.1931L99.9248 36.3682C99.7743 36.9062 99.4984 37.3315 99.0846 37.6443C98.6833 37.9696 98.1565 38.1197 97.5295 38.1197" fill="#004E90"/>
<path d="M104.916 38.0196H104.239V33.791L101.417 38.0196H100.74V32.6025H101.417V36.8311L104.239 32.6025H104.916V38.0196Z" fill="#004E90"/>
<path d="M105.969 38.0196V32.615H106.646V36.8436L109.468 32.615H110.145V38.0196H109.468V33.791L106.646 38.0196H105.969ZM108.089 32.1396C107.901 32.1396 107.725 32.0896 107.574 32.002C107.424 31.9144 107.299 31.7893 107.211 31.6267C107.11 31.4766 107.073 31.3014 107.073 31.1138H107.612C107.612 31.2514 107.662 31.364 107.75 31.4516C107.85 31.5516 107.963 31.5892 108.089 31.5892C108.214 31.5892 108.339 31.5391 108.427 31.4516C108.528 31.3515 108.565 31.2389 108.565 31.1138H109.104C109.104 31.3014 109.054 31.4766 108.966 31.6267C108.879 31.7768 108.753 31.9019 108.59 32.002C108.427 32.1021 108.264 32.1396 108.076 32.1396" fill="#004E90"/>
<path d="M113.444 38.1322C112.904 38.1322 112.44 38.0071 112.064 37.7694C111.688 37.5317 111.4 37.2064 111.199 36.7811C110.998 36.3557 110.898 35.8678 110.898 35.3173C110.898 34.7669 110.998 34.2789 111.199 33.8536C111.4 33.4282 111.688 33.103 112.064 32.8652C112.44 32.6275 112.904 32.5024 113.444 32.5024C114.071 32.5024 114.585 32.6651 114.999 32.9778C115.4 33.2906 115.689 33.7285 115.839 34.2664L115.162 34.4416C115.049 34.0412 114.861 33.716 114.572 33.4908C114.284 33.2531 113.92 33.1405 113.456 33.1405C113.055 33.1405 112.716 33.2281 112.453 33.4157C112.19 33.6034 111.976 33.8536 111.851 34.1789C111.713 34.5041 111.65 34.892 111.638 35.3173C111.638 35.7552 111.701 36.1305 111.839 36.4558C111.976 36.7811 112.177 37.0313 112.453 37.2189C112.729 37.4066 113.068 37.4942 113.469 37.4942C113.933 37.4942 114.296 37.3816 114.585 37.1439C114.873 36.9062 115.061 36.5934 115.174 36.1931L115.852 36.3682C115.701 36.9062 115.425 37.3315 115.011 37.6443C114.61 37.9696 114.083 38.1197 113.456 38.1197" fill="#004E90"/>
<path d="M116.654 38.0196V32.6025H117.319V35.1422L119.702 32.6025H120.542L118.071 35.2298L120.73 38.0196H119.865L117.319 35.3674V38.0196H116.654Z" fill="#004E90"/>
<path d="M123.225 38.1322C122.686 38.1322 122.222 38.0071 121.846 37.7694C121.47 37.5317 121.181 37.2064 120.981 36.7811C120.78 36.3557 120.68 35.8678 120.68 35.3173C120.68 34.7669 120.78 34.2664 120.981 33.8536C121.181 33.4282 121.47 33.103 121.846 32.8652C122.222 32.6275 122.686 32.5024 123.225 32.5024C123.765 32.5024 124.229 32.6275 124.605 32.8652C124.981 33.103 125.27 33.4282 125.458 33.8536C125.658 34.2789 125.746 34.7669 125.746 35.3173C125.746 35.8678 125.646 36.3557 125.458 36.7811C125.257 37.2064 124.981 37.5317 124.605 37.7694C124.229 38.0071 123.765 38.1322 123.225 38.1322ZM123.225 37.4942C123.627 37.4942 123.965 37.4066 124.241 37.2189C124.505 37.0313 124.718 36.7811 124.843 36.4558C124.981 36.1305 125.044 35.7427 125.044 35.3173C125.044 34.892 124.981 34.5041 124.843 34.1789C124.705 33.8536 124.505 33.6034 124.241 33.4157C123.978 33.2281 123.639 33.1405 123.225 33.1405C122.824 33.1405 122.486 33.2281 122.222 33.4157C121.959 33.6034 121.758 33.8536 121.62 34.1789C121.482 34.5041 121.42 34.892 121.42 35.3173C121.42 35.7427 121.482 36.1305 121.62 36.4558C121.758 36.7811 121.959 37.0313 122.235 37.2189C122.511 37.4066 122.837 37.4942 123.251 37.4942" fill="#004E90"/>
<path d="M126.511 38.0196V32.615H127.188V36.8436L130.01 32.615H130.687V38.0196H130.01V33.791L127.188 38.0196H126.511ZM128.631 32.1396C128.443 32.1396 128.267 32.0896 128.116 32.002C127.966 31.9144 127.841 31.7893 127.753 31.6267C127.652 31.4766 127.615 31.3014 127.615 31.1138H128.154C128.154 31.2514 128.204 31.364 128.292 31.4516C128.392 31.5516 128.505 31.5892 128.631 31.5892C128.756 31.5892 128.881 31.5391 128.969 31.4516C129.07 31.3515 129.107 31.2389 129.107 31.1138H129.646C129.646 31.3014 129.596 31.4766 129.508 31.6267C129.421 31.7768 129.295 31.9019 129.132 32.002C128.969 32.1021 128.806 32.1396 128.618 32.1396" fill="#004E90"/>
<path d="M50.6645 47.0271V46.289C50.3886 46.339 50.1127 46.3265 49.8619 46.2515C49.5985 46.1764 49.3728 46.0513 49.1721 45.8762C48.9715 45.701 48.8085 45.4633 48.6956 45.1756C48.5702 44.8878 48.52 44.55 48.52 44.1747C48.52 43.7994 48.5827 43.4491 48.6956 43.1614C48.8085 42.8736 48.9715 42.6359 49.1721 42.4483C49.3728 42.2606 49.6111 42.1355 49.8619 42.0604C50.1252 41.9854 50.3886 41.9729 50.6645 42.0229V41.6226H51.3292V42.0229C51.605 41.9729 51.8809 41.9854 52.1318 42.0604C52.3951 42.1355 52.6208 42.2606 52.8215 42.4483C53.0222 42.6359 53.1852 42.8736 53.298 43.1614C53.4109 43.4491 53.4736 43.7869 53.4736 44.1747C53.4736 44.5625 53.4109 44.8878 53.298 45.1756C53.1852 45.4633 53.0222 45.701 52.8215 45.8762C52.6208 46.0638 52.3951 46.1889 52.1318 46.2515C51.8684 46.3265 51.605 46.339 51.3292 46.289V47.0271H50.6645ZM50.6645 45.6635V42.6234C50.4388 42.5859 50.2256 42.5984 50.05 42.6734C49.8619 42.736 49.7114 42.8486 49.586 42.9862C49.4606 43.1238 49.3728 43.299 49.2975 43.4991C49.2223 43.6993 49.1972 43.912 49.1972 44.1497C49.1972 44.3874 49.2348 44.6001 49.2975 44.8002C49.3603 45.0004 49.4606 45.163 49.586 45.3007C49.7114 45.4383 49.8619 45.5384 50.05 45.6009C50.2256 45.6635 50.4388 45.676 50.6645 45.651M51.3292 45.651C51.5674 45.6885 51.7681 45.6635 51.9436 45.6009C52.1192 45.5384 52.2822 45.4383 52.4077 45.3007C52.5331 45.163 52.6334 45.0004 52.6961 44.8002C52.7588 44.6001 52.7964 44.3874 52.7964 44.1622C52.7964 43.937 52.7588 43.7118 52.6961 43.5117C52.6334 43.3115 52.5331 43.1363 52.4077 42.9862C52.2822 42.8361 52.1318 42.736 51.9436 42.6609C51.7681 42.5859 51.5549 42.5734 51.3292 42.6109V45.651Z" fill="#004E90"/>
<path d="M54.2388 47.0271V41.6226H57.6624V42.2606H54.9034V43.9495H57.2109V44.5876H54.9034V46.3891H57.6624V47.0271H54.2388Z" fill="#004E90"/>
<path d="M58.3018 47.9282V46.3894C58.5024 46.3894 58.6654 46.3393 58.7908 46.2393C58.9163 46.1392 59.0166 46.0016 59.0793 45.8264C59.1545 45.6513 59.2047 45.4636 59.2423 45.2509C59.2799 45.0382 59.305 44.8131 59.3301 44.5879C59.3677 44.2626 59.3928 43.9498 59.4053 43.6371C59.4304 43.3368 59.443 43.0115 59.468 42.6863C59.4806 42.361 59.5057 41.9982 59.5308 41.6104H62.9418V46.3894H63.3431V47.9282H62.6785V47.0274H58.9915V47.9282H58.3143H58.3018ZM59.4806 46.3894H62.2646V42.2484H60.1452C60.1327 42.5361 60.1202 42.8114 60.1076 43.0866C60.0951 43.3493 60.0825 43.6246 60.0575 43.8873C60.0324 44.15 60.0073 44.4503 59.9822 44.7505C59.9571 45.0257 59.9195 45.2759 59.8944 45.4761C59.8568 45.6763 59.8066 45.8514 59.7439 46.0016C59.6812 46.1517 59.5935 46.2768 59.4806 46.3894Z" fill="#004E90"/>
<path d="M64.1587 47.0271V41.6226H67.5823V42.2606H64.8234V43.9495H67.1308V44.5876H64.8234V46.3891H67.5823V47.0271H64.1587Z" fill="#004E90"/>
<path d="M68.4849 47.0271V41.6226H70.6293C70.6293 41.6226 70.7422 41.6226 70.8174 41.6226C70.8927 41.6226 70.9554 41.6226 71.0306 41.6476C71.3191 41.6976 71.5699 41.7977 71.7705 41.9478C71.9712 42.098 72.1217 42.2981 72.222 42.5358C72.3223 42.7735 72.3725 43.0363 72.3725 43.324C72.3725 43.6117 72.3223 43.8745 72.222 44.1122C72.1217 44.3499 71.9712 44.55 71.7705 44.7002C71.5699 44.8503 71.3316 44.9504 71.0306 45.0004C70.9679 45.0004 70.8927 45.0129 70.8174 45.0254C70.7422 45.0379 70.6795 45.0254 70.6293 45.0254H69.1621V47.0271H68.4974H68.4849ZM69.1495 44.3999H70.6042C70.6042 44.3999 70.7046 44.3999 70.7673 44.3999C70.83 44.3999 70.8927 44.3874 70.9429 44.3749C71.1184 44.3374 71.2564 44.2623 71.3692 44.1497C71.4821 44.0496 71.5573 43.9245 71.6075 43.7744C71.6577 43.6243 71.6828 43.4866 71.6828 43.3365C71.6828 43.1864 71.6577 43.0363 71.6075 42.8986C71.5573 42.761 71.4821 42.6234 71.3692 42.5233C71.2564 42.4107 71.1184 42.3482 70.9429 42.3106C70.8927 42.2981 70.83 42.2856 70.7673 42.2856C70.7046 42.2856 70.6544 42.2856 70.6042 42.2856H69.1495V44.4249V44.3999Z" fill="#004E90"/>
<path d="M72.5234 47.0271L74.3418 41.6226H75.2824L77.1008 47.0271H76.3985L74.7055 42.0104H74.9187L73.2383 47.0271H72.536H72.5234ZM73.4013 45.138H76.2104V45.7636H73.4013V45.138Z" fill="#004E90"/>
<path d="M81.9663 47.7778V47.0271H77.7651V41.6226H78.4298V46.4266H81.3769V41.6976H82.0541V46.4266H82.631V47.7778H81.9663Z" fill="#004E90"/>
<path d="M87.4215 47.0271H86.7443V42.7986L83.9101 47.0271H83.2329V41.6226H83.9101V45.8511L86.7443 41.6226H87.4215V47.0271Z" fill="#004E90"/>
<path d="M92.6512 47.0271H91.974V42.7986L89.1523 47.0271H88.4751V41.6226H89.1523V45.8511L91.974 41.6226H92.6512V47.0271Z" fill="#004E90"/>
</g>
<defs>
<clipPath id="clip0_4904_3250">
<rect width="150" height="61.7647" fill="white"/>
</clipPath>
</defs>
</svg>
