<?xml version="1.0" encoding="utf-8"?><svg xmlns="http://www.w3.org/2000/svg" xmlns:xlink="http://www.w3.org/1999/xlink"><symbol viewBox="0 0 14 15" id="arr-next" xmlns="http://www.w3.org/2000/svg"><g clip-path="url(#aa)"><path d="M-80.56 1.8h4.48c1.27 0 2.197.272 2.784.816.597.544.896 1.27.896 2.176 0 .576-.15 1.072-.448 1.488-.299.405-.71.699-1.232.88.661.15 1.184.453 1.568.912.395.448.592 1.035.592 1.76 0 .47-.075.901-.224 1.296-.15.384-.384.715-.704.992-.31.277-.71.496-1.2.656-.49.15-1.083.224-1.776.224h-4.736V1.8Zm4.528 9.536c.832 0 1.403-.133 1.712-.4.32-.267.48-.677.48-1.232a2.17 2.17 0 0 0-.112-.72 1.16 1.16 0 0 0-.368-.528c-.17-.15-.4-.261-.688-.336a4.075 4.075 0 0 0-1.04-.112h-2.592v3.328h2.608Zm-.288-4.864c.747 0 1.264-.139 1.552-.416.299-.277.448-.65.448-1.12 0-.48-.144-.843-.432-1.088-.288-.256-.81-.384-1.568-.384h-2.32v3.008h2.32Zm9.757 6.704c-.576 0-1.11-.085-1.6-.256a3.532 3.532 0 0 1-1.264-.816 3.852 3.852 0 0 1-.832-1.36c-.203-.544-.304-1.179-.304-1.904v-.32c0-.683.106-1.285.32-1.808A3.8 3.8 0 0 1-69.38 5.4a3.61 3.61 0 0 1 1.28-.784 4.395 4.395 0 0 1 1.536-.272c.555 0 1.045.075 1.472.224.437.15.805.357 1.104.624.31.256.555.56.736.912.181.352.304.73.368 1.136h-1.792a2.01 2.01 0 0 0-.576-.976c-.277-.256-.715-.384-1.312-.384-.299 0-.581.053-.848.16-.267.096-.501.25-.704.464a2.25 2.25 0 0 0-.48.832c-.118.33-.176.725-.176 1.184v.32c0 .501.058.933.176 1.296a2.4 2.4 0 0 0 .48.864c.203.224.437.39.704.496.267.096.55.144.848.144.992 0 1.621-.453 1.888-1.36h1.792a3.77 3.77 0 0 1-.448 1.216 3.21 3.21 0 0 1-.784.912 3.76 3.76 0 0 1-1.104.576 4.548 4.548 0 0 1-1.344.192Zm9.035 0a4.93 4.93 0 0 1-1.6-.256 3.913 3.913 0 0 1-1.328-.8 3.976 3.976 0 0 1-.896-1.36c-.224-.544-.336-1.184-.336-1.92v-.32c0-.704.107-1.317.32-1.84a3.62 3.62 0 0 1 .864-1.296 3.61 3.61 0 0 1 1.28-.784c.48-.17.992-.256 1.536-.256 1.29 0 2.277.347 2.96 1.04.693.693 1.04 1.685 1.04 2.976v.896h-6.208c.01.437.08.81.208 1.12.139.299.315.544.528.736.224.181.474.315.752.4.288.085.581.128.88.128.608 0 1.05-.096 1.328-.288a1.46 1.46 0 0 0 .592-.752h1.76c-.17.843-.592 1.483-1.264 1.92-.661.437-1.467.656-2.416.656Zm-.08-7.296c-.299 0-.587.037-.864.112a2.006 2.006 0 0 0-.72.368c-.203.16-.368.373-.496.64-.128.256-.197.57-.208.944h4.448c-.01-.395-.075-.725-.192-.992a1.575 1.575 0 0 0-.448-.64 1.663 1.663 0 0 0-.688-.336 3.425 3.425 0 0 0-.832-.096Zm12.801 7.296c-.992 0-1.813-.256-2.464-.768-.65-.523-1.056-1.232-1.216-2.128h1.792c.267.907.896 1.36 1.888 1.36.576 0 1.062-.17 1.456-.512.395-.341.635-.912.72-1.712h-3.136V7.944h3.136c-.085-.715-.33-1.237-.736-1.568a2.207 2.207 0 0 0-1.44-.496c-.597 0-1.035.128-1.312.384a2.01 2.01 0 0 0-.576.976h-1.792c.064-.405.187-.784.368-1.136a3 3 0 0 1 .72-.912c.31-.267.678-.475 1.104-.624.427-.15.923-.224 1.488-.224.555 0 1.072.09 1.552.272.49.17.918.432 1.28.784.363.352.645.79.848 1.312.214.523.32 1.125.32 1.808v.32c0 .725-.101 1.36-.304 1.904a3.677 3.677 0 0 1-.816 1.36 3.357 3.357 0 0 1-1.264.816c-.49.17-1.03.256-1.616.256Zm7.599-7.152h-2.8V4.52h7.36v1.504h-2.8V13h-1.76V6.024Zm7.995 7.152c-.458 0-.869-.064-1.232-.192a2.721 2.721 0 0 1-.895-.56 2.502 2.502 0 0 1-.56-.848 2.819 2.819 0 0 1-.193-1.056c0-.843.251-1.467.753-1.872.5-.416 1.237-.624 2.207-.624h2.64V7.56c0-.64-.144-1.077-.431-1.312-.278-.245-.72-.368-1.329-.368-.544 0-.944.085-1.2.256a.98.98 0 0 0-.448.704h-1.712a2.38 2.38 0 0 1 .273-.992c.17-.31.4-.576.688-.8a3.227 3.227 0 0 1 1.072-.512 4.782 4.782 0 0 1 1.407-.192 5.2 5.2 0 0 1 1.408.176c.427.117.79.304 1.088.56.3.245.529.565.689.96.17.395.255.87.255 1.424v3.376c0 .448.006.843.017 1.184.01.33.037.656.08.976h-1.6c-.032-.245-.06-.453-.08-.624-.011-.17-.017-.384-.017-.64-.202.395-.554.736-1.056 1.024-.49.277-1.098.416-1.823.416Zm.48-1.536c.3 0 .582-.037.849-.112.277-.085.517-.203.72-.352.202-.16.362-.352.48-.576.128-.235.192-.501.192-.8v-.464h-2.32c-.448 0-.811.096-1.088.288-.267.192-.4.475-.4.848 0 .352.122.635.367.848.256.213.657.32 1.2.32Zm6.166-7.12h7.36V13h-1.76V6.024h-3.84V13h-1.76V4.52Zm9.593 0h1.76v2.976h1.6c1.088 0 1.894.235 2.416.704.523.459.784 1.141.784 2.048 0 .853-.256 1.525-.768 2.016-.512.49-1.322.736-2.432.736h-3.36V4.52Zm3.2 6.976c.587 0 .998-.101 1.232-.304.246-.213.368-.528.368-.944 0-.416-.122-.725-.368-.928-.234-.213-.645-.32-1.232-.32h-1.44v2.496h1.44Zm4.48-6.976h1.76V13h-1.76V4.52Zm15.496 3.712H1.994V6.568h8.208L6.234 2.6H8.57l4.8 4.8-4.8 4.8H6.234l3.968-3.968Z"/></g><defs><clipPath id="aa"><path d="M0 0h14v15H0z"/></clipPath></defs></symbol><symbol viewBox="0 0 22 18" id="arr-top" xmlns="http://www.w3.org/2000/svg"><g clip-path="url(#ba)"><path d="M.596 12.494 10.739 2.352 20.88 12.494"/></g><defs><clipPath id="ba"><path d="M0 0h22v18H0z"/></clipPath></defs></symbol><symbol viewBox="0 0 22 24" id="basket" xmlns="http://www.w3.org/2000/svg"><g clip-path="url(#ca)"><path d="M10.363 18.443a2.046 2.046 0 0 0-2.045 2.042 2.046 2.046 0 0 0 4.09 0 2.046 2.046 0 0 0-2.045-2.042Zm6.134 0a2.046 2.046 0 0 0-2.045 2.042 2.046 2.046 0 0 0 4.089 0 2.046 2.046 0 0 0-2.044-2.042Zm3.978-8.199L7.413 6.891a.614.614 0 0 0-.75.73L8.67 16.4h-.786L5.482 5.895a.613.613 0 0 0-.474-.464l-4.27-.882A.614.614 0 0 0 .489 5.75l3.885.802L6.797 17.15a.613.613 0 0 0 .598.477h12.07a.615.615 0 0 0 .607-.53l.858-6.175a.613.613 0 0 0-.455-.678Zm-8.14 3.91a.613.613 0 0 1-1.227 0v-2.696a.613.613 0 0 1 1.227 0v2.696Zm2.625 0a.613.613 0 0 1-1.227 0v-1.88a.613.613 0 0 1 1.227 0v1.88Zm2.625 0a.613.613 0 0 1-1.227 0v-1.226a.613.613 0 0 1 1.227 0v1.226Z"/></g><path fill-rule="evenodd" clip-rule="evenodd" d="M16.268 4.568a2.996 2.996 0 0 0-1.693-.523c-.627 0-1.21.193-1.693.523-.28-.843-.492-1.752-.492-2.383C12.39.98 13.37 0 14.575 0s2.185.98 2.185 2.185c0 .631-.212 1.54-.492 2.383Zm-4.722 2.274.024.006v-.011l-.024.005Zm4.972 1.217c-1.333-.33-2.766-.681-4.129-1.013a2.185 2.185 0 1 1 4.129 1.013Zm4.436 1.103c-.866-.217-2.155-.538-3.618-.9a2.995 2.995 0 0 0 .243-1.425c.87.18 1.762.45 2.308.765.596.344.969.928 1.067 1.56ZM9.869 6.439c-.36-.086-.706-.167-1.03-.243a2.19 2.19 0 0 1-.376-2.667 2.188 2.188 0 0 1 3.147-.7c.098.738.338 1.599.61 2.353a3.01 3.01 0 0 0-.449.774c-.628.113-1.305.278-1.902.483Zm10.124.075a3.43 3.43 0 0 1-.217.114c-.696-.295-1.587-.526-2.397-.672a3.01 3.01 0 0 0-.449-.774c.262-.727.494-1.553.599-2.273.095-.067.189-.128.278-.18a2.188 2.188 0 0 1 2.986.8 2.188 2.188 0 0 1-.8 2.985Z"/><defs><clipPath id="ca"><path transform="translate(0 3.064)" d="M0 0h20.936v20.936H0z"/></clipPath></defs></symbol><symbol viewBox="0 0 80 80" id="chat" xmlns="http://www.w3.org/2000/svg"><g clip-path="url(#da)"><path d="M54.063 49.844c-.863 0-1.563.7-1.563 1.562v10.782c0 4.307-3.505 7.812-7.813 7.812h-16.87c-.862 0-1.562.698-1.562 1.56v3.107l-3.732-3.73a1.561 1.561 0 0 0-1.432-.939H10.937c-4.307 0-7.812-3.504-7.812-7.812V38.125c0-4.308 3.505-7.813 7.813-7.813h15.78a1.563 1.563 0 0 0 0-3.125h-15.78C4.905 27.188 0 32.094 0 38.126v24.063c0 6.03 4.906 10.937 10.938 10.937h9.353l6.417 6.417a1.563 1.563 0 0 0 2.667-1.103l.003-5.314h15.31c6.03 0 10.937-4.906 10.937-10.938v-10.78c0-.863-.7-1.563-1.563-1.563Z"/><path d="M57.29 0h-3.956c-12.521 0-22.71 10.188-22.71 22.71 0 12.524 10.187 22.71 22.71 22.71h3.955a22.75 22.75 0 0 0 5.764-.739l5.842 5.84a1.563 1.563 0 0 0 2.668-1.105v-9.041a22.932 22.932 0 0 0 5.97-7.36A22.466 22.466 0 0 0 80 22.712C80 10.188 69.813 0 57.29 0Zm11.77 38.366a1.562 1.562 0 0 0-.622 1.248v6.031l-3.824-3.822a1.565 1.565 0 0 0-1.564-.389c-1.86.572-3.798.861-5.76.861h-3.956c-10.8 0-19.586-8.786-19.586-19.586 0-10.8 8.787-19.586 19.587-19.586h3.954c10.8 0 19.586 8.786 19.586 19.586 0 6.208-2.848 11.914-7.816 15.655v.002Z"/><path d="M62.348 17.097c-.225-3.27-2.862-5.908-6.134-6.133a6.562 6.562 0 0 0-4.978 1.763 6.637 6.637 0 0 0-2.102 4.835 1.563 1.563 0 0 0 3.125 0c0-.978.394-1.884 1.11-2.551a3.466 3.466 0 0 1 2.63-.93 3.493 3.493 0 0 1 3.232 3.232 3.473 3.473 0 0 1-2.714 3.656 2.956 2.956 0 0 0-2.33 2.898v3.753a1.563 1.563 0 0 0 3.125 0v-3.63c3.149-.76 5.261-3.641 5.036-6.895v.002Zm-5.493 15.6a1.574 1.574 0 0 0-1.105-.458c-.41 0-.814.167-1.105.458-.29.29-.458.694-.458 1.105 0 .41.168.815.458 1.106.29.29.694.456 1.105.456.41 0 .814-.166 1.105-.456a1.58 1.58 0 0 0 .458-1.106c0-.413-.168-.815-.458-1.105ZM42.969 48.438H10a1.563 1.563 0 0 0 0 3.124h32.969a1.563 1.563 0 0 0 0-3.124Zm1.104 9.207a1.574 1.574 0 0 0-1.104-.458c-.411 0-.814.168-1.105.458-.29.29-.458.694-.458 1.105 0 .41.167.814.458 1.105.29.29.694.458 1.105.458.41 0 .814-.168 1.104-.458.291-.29.458-.692.458-1.105a1.57 1.57 0 0 0-.458-1.105Zm-7.25-.457H10a1.563 1.563 0 0 0 0 3.124h26.823a1.563 1.563 0 0 0 0-3.124Zm-4.01-17.5H10a1.563 1.563 0 0 0 0 3.124h22.813a1.563 1.563 0 0 0 0-3.124Z"/></g><defs><clipPath id="da"><path d="M0 0h80v80H0z"/></clipPath></defs></symbol><symbol viewBox="0 0 344.96 344.96" id="check" xmlns="http://www.w3.org/2000/svg"><g data-name="Слой 2"><path class="ecls-1" d="m321.85 86.24-40-23.11-23.1-40H212.5L172.48 0l-40 23.11H86.24l-23.11 40-40 23.1v46.21L0 172.48l23.11 40v46.21l40 23.11 23.11 40h46.21l40 23.1 40-23.11h46.21l23.11-40 40-23.11V212.5l23.11-40-23.11-40V86.24ZM156.91 243.07a16.79 16.79 0 0 1-23.34 0l-50.45-50.44a16.19 16.19 0 0 1 0-22.89l13.35-13.35a16.19 16.19 0 0 1 22.89 0l25.87 25.87 80.34-80.35a16.19 16.19 0 0 1 22.89 0l13.35 13.35a16.19 16.19 0 0 1 0 22.89Z" data-name="Capa 1"/></g></symbol><symbol viewBox="0 0 30 46" id="chevron-left" xmlns="http://www.w3.org/2000/svg"><path d="M22.112 45.225 1.414 24.527a2 2 0 0 1 0-2.829L22.112 1"/></symbol><symbol viewBox="0 0 30 46" id="chevron-right" xmlns="http://www.w3.org/2000/svg"><path d="m7.888.775 20.698 20.698a2 2 0 0 1 0 2.829L7.888 45"/></symbol><symbol viewBox="0 0 19 18" id="clip" xmlns="http://www.w3.org/2000/svg"><g clip-path="url(#ha)"><path d="M17.61 6.391a.35.35 0 0 1-.015.018L7.73 16.407c-.844.855-1.845 1.302-2.908 1.302-.081 0-.162-.002-.243-.008-1.016-.064-2.001-.531-2.774-1.315-.774-.784-1.234-1.783-1.298-2.812-.073-1.17.37-2.274 1.277-3.194L11.616.415a.418.418 0 0 1 .597 0 .432.432 0 0 1 0 .605l-9.831 9.965c-1.619 1.64-1.124 3.636.02 4.796 1.145 1.16 3.114 1.661 4.732.021l9.855-9.99c1.083-1.236.716-2.653-.129-3.51-.845-.856-2.242-1.227-3.463-.13L7.101 8.555c-.832.843-.594 1.839.012 2.452.605.614 1.588.855 2.42.012l5.449-5.524a.418.418 0 0 1 .596 0 .431.431 0 0 1 0 .605l-5.45 5.524c-1.181 1.198-2.711.9-3.612-.012-.9-.913-1.194-2.464-.012-3.662l6.306-6.391a.405.405 0 0 1 .017-.017c.73-.66 1.587-.968 2.48-.89.79.07 1.553.441 2.15 1.046a3.555 3.555 0 0 1 1.031 2.179c.078.905-.226 1.775-.877 2.514Z" fill-opacity=".5"/></g><defs><clipPath id="ha"><path transform="translate(.5 .29)" d="M0 0h18v17.419H0z"/></clipPath></defs></symbol><symbol viewBox="0 0 24 24" id="fb" xmlns="http://www.w3.org/2000/svg"><path d="M13.397 20.997v-8.196h2.765l.411-3.209h-3.176V7.548c0-.926.258-1.56 1.587-1.56h1.684v-2.86A22.108 22.108 0 0 0 14.201 3c-2.444 0-4.122 1.492-4.122 4.231v2.355H7.332v3.21h2.753v8.201h3.312Z"/></symbol><symbol viewBox="0 0 24 24" id="instagram" xmlns="http://www.w3.org/2000/svg"><path d="M11.999 7.377a4.624 4.624 0 1 0 0 9.248 4.624 4.624 0 0 0 0-9.248Zm0 7.627a3.004 3.004 0 1 1 0-6.008 3.004 3.004 0 0 1 0 6.008Zm4.807-6.719a1.078 1.078 0 1 0 0-2.156 1.078 1.078 0 0 0 0 2.156Z"/><path d="M20.533 6.11A4.605 4.605 0 0 0 17.9 3.48a6.607 6.607 0 0 0-2.186-.42c-.963-.042-1.268-.054-3.71-.054s-2.755 0-3.71.054a6.554 6.554 0 0 0-2.184.42 4.6 4.6 0 0 0-2.633 2.63 6.585 6.585 0 0 0-.419 2.186c-.043.962-.056 1.267-.056 3.71 0 2.442 0 2.753.056 3.71.015.748.156 1.486.419 2.187a4.61 4.61 0 0 0 2.634 2.632 6.583 6.583 0 0 0 2.185.45c.963.042 1.268.055 3.71.055s2.755 0 3.71-.055a6.616 6.616 0 0 0 2.186-.42 4.613 4.613 0 0 0 2.633-2.632c.263-.7.404-1.438.419-2.186.043-.962.056-1.267.056-3.71s0-2.753-.056-3.71a6.583 6.583 0 0 0-.421-2.217Zm-1.218 9.533a5.046 5.046 0 0 1-.311 1.688 2.987 2.987 0 0 1-1.712 1.71c-.535.2-1.1.305-1.67.312-.95.044-1.218.055-3.654.055-2.438 0-2.687 0-3.655-.055a4.961 4.961 0 0 1-1.67-.311 2.984 2.984 0 0 1-1.718-1.711 5.08 5.08 0 0 1-.311-1.67c-.043-.95-.053-1.217-.053-3.653 0-2.437 0-2.686.053-3.655a5.038 5.038 0 0 1 .311-1.687c.305-.79.93-1.41 1.719-1.712a5.01 5.01 0 0 1 1.669-.311c.95-.043 1.218-.055 3.655-.055s2.687 0 3.654.055a4.96 4.96 0 0 1 1.67.31 2.99 2.99 0 0 1 1.712 1.713 5.06 5.06 0 0 1 .311 1.669c.043.95.054 1.218.054 3.655 0 2.436 0 2.698-.043 3.654h-.011v-.001Z"/></symbol><symbol viewBox="0 0 80 80" id="news" xmlns="http://www.w3.org/2000/svg"><g clip-path="url(#ka)"><path d="M18.063 5.184h25.804v2.592H18.063V5.184Zm29.675 18.143h15.483c.712 0 1.29-.58 1.29-1.296V6.48c0-.716-.578-1.296-1.29-1.296H47.738c-.713 0-1.29.58-1.29 1.296v15.55c0 .716.577 1.296 1.29 1.296Zm1.29-15.551H61.93v12.96H49.028V7.775Zm-36.126 2.592h30.966v2.592H12.902v-2.592Zm0 5.184h30.966v2.591H12.902v-2.591Zm0 5.183h30.966v2.592H12.902v-2.592Zm0 5.185H51.61v2.591H12.902V25.92Zm21.934 15.55h-9.031V32.4c0-.717-.578-1.297-1.29-1.297H14.192c-.713 0-1.29.58-1.29 1.296v18.144c0 .716.577 1.296 1.29 1.296h20.643c.713 0 1.29-.58 1.29-1.296v-7.776c0-.716-.577-1.296-1.29-1.296Zm-1.29 7.777H15.483V33.695h7.741v9.072c0 .716.578 1.296 1.29 1.296h9.032v5.184Zm-5.161-18.144h11.612v2.592H28.385v-2.592Z"/><path d="M28.385 36.287h7.741v2.592h-7.741v-2.592Z"/><path d="M69.672 31.317V1.296C69.672.58 69.094 0 68.382 0H9.032c-.713 0-1.29.58-1.29 1.296v7.776H1.29c-.713 0-1.29.58-1.29 1.296v41.47c0 2.863 2.311 5.184 5.16 5.184h35.066c4.262 10.616 16.286 15.75 26.854 11.467 10.57-4.282 15.68-16.359 11.415-26.974a20.7 20.7 0 0 0-8.825-10.2l.002.002ZM2.58 51.839V11.664h5.161v40.175a2.585 2.585 0 0 1-2.58 2.592 2.585 2.585 0 0 1-2.58-2.592Zm7.024 2.592a5.16 5.16 0 0 0 .718-2.592V2.592h56.77v27.445c-10.516-4.33-22.536.721-26.847 11.283a20.75 20.75 0 0 0-.858 13.11H9.604ZM59.35 67.39c-9.977 0-18.063-8.123-18.063-18.144 0-10.021 8.086-18.144 18.063-18.144 9.977 0 18.063 8.123 18.063 18.144-.011 10.016-8.091 18.132-18.063 18.143Z"/><path d="m64.14 40.23-12.72 3.833h-3.682c-2.137 0-3.87 1.741-3.87 3.888v2.592c0 2.146 1.733 3.888 3.87 3.888v2.592c0 2.146 1.734 3.887 3.87 3.887a3.88 3.88 0 0 0 3.871-3.887v-1.37l8.66 2.61a1.29 1.29 0 0 0 1.662-1.242V41.469a1.293 1.293 0 0 0-1.661-1.24v.001ZM46.448 50.543V47.95c0-.716.577-1.296 1.29-1.296h2.58v5.184h-2.58c-.713 0-1.29-.58-1.29-1.296Zm6.45 6.48c0 .715-.577 1.295-1.29 1.295-.712 0-1.29-.58-1.29-1.295V54.43h1.102l1.479.445v2.147ZM63.22 55.28 52.9 52.171v-5.848l10.322-3.11V55.28Zm5.161-7.33h6.451v2.593h-6.45V47.95Zm-.924-4.8 3.871-3.889 1.824 1.832-3.87 3.888-1.825-1.832Zm-.001 12.2 1.824-1.833 3.87 3.888-1.823 1.832-3.87-3.888Z"/></g><defs><clipPath id="ka"><path d="M0 0h80v70H0z"/></clipPath></defs></symbol><symbol viewBox="0 0 16 28" id="odnoklassniki" xmlns="http://www.w3.org/2000/svg"><g clip-path="url(#la)" fill-opacity=".5"><path d="M8.116 0C4.185 0 .999 3.249.999 7.256s3.186 7.256 7.117 7.256 7.117-3.25 7.117-7.256C15.233 3.249 12.046 0 8.116 0Zm0 10.256c-1.624 0-2.942-1.343-2.942-3s1.317-3 2.942-3c1.625 0 2.942 1.343 2.942 3s-1.317 3-2.942 3Zm2.513 10.029c2.85-.592 4.556-1.968 4.647-2.041a2 2 0 0 0 .3-2.774 1.91 1.91 0 0 0-2.721-.305c-.017.015-1.838 1.44-4.835 1.441-2.996-.002-4.856-1.426-4.873-1.441a1.91 1.91 0 0 0-2.72.305c-.67.85-.535 2.093.3 2.774.09.075 1.869 1.486 4.797 2.064l-4.083 4.35a2 2 0 0 0 .05 2.79c.376.368.86.552 1.343.552.484 0 1.014-.203 1.394-.603l3.792-4.12 4.176 4.146a1.91 1.91 0 0 0 2.737-.002 2.001 2.001 0 0 0-.002-2.79l-4.301-4.346h-.001Z"/></g><defs><clipPath id="la"><path d="M0 0h16v28H0z"/></clipPath></defs></symbol><symbol viewBox="0 0 23 32" id="pdf" xmlns="http://www.w3.org/2000/svg"><g clip-path="url(#ma)"><path d="M6.334 20.495c-.414 0-.793-.176-1.095-.522-.54-.617-.562-1.355-.054-1.972.423-.516 1.234-.977 2.411-1.368.41-.137.86-.264 1.33-.377a21.588 21.588 0 0 0 1.466-3.299c-.663-1.098-1.264-2.371-1.245-3.376.016-.876.533-1.462 1.385-1.567.765-.097 1.368.28 1.615 1.007.328.967.018 2.477-.391 3.777a20.1 20.1 0 0 0 1.138 1.58 20.1 20.1 0 0 0 1.074 1.245c1.445-.02 2.815.125 3.632.555.735.387 1.041 1.028.817 1.72-.264.815-.918 1.223-1.752 1.089-1.044-.167-2.255-1.156-3.215-2.122a22.936 22.936 0 0 0-3.7.462c-.18.306-.364.595-.547.866-.692 1.02-1.353 1.707-1.963 2.045-.275.161-.586.25-.906.257ZM7.962 17.8c-.886.297-1.53.634-1.804.967-.116.14-.143.213.03.41.078.085.14.16.435 0 .386-.22.851-.704 1.336-1.377h.003Zm7.351-.91c.626.508 1.173.83 1.564.892.178.028.267.03.358-.252.024-.071.043-.133-.216-.27-.362-.186-.961-.31-1.71-.37h.004Zm-4.066-2.641a22.121 22.121 0 0 1-.75 1.694 24.865 24.865 0 0 1 1.89-.236 23.44 23.44 0 0 1-.476-.575 18.438 18.438 0 0 1-.668-.883h.004Zm-.554-5.018c-.183.023-.286.051-.293.374-.007.4.166.972.482 1.64.171-.81.207-1.462.078-1.836-.067-.194-.118-.197-.27-.178h.003ZM5.89 23.263a.53.53 0 0 1 .52-.541h1.404c.86 0 1.677.544 1.677 1.627 0 .935-.584 1.62-1.642 1.62h-.846v1.002c0 .383-.234.579-.556.579-.322 0-.557-.195-.557-.579v-3.708Zm1.113 1.735h.598c.475 0 .736-.316.736-.652 0-.43-.296-.659-.736-.659h-.598v1.311Zm3.037-1.735a.53.53 0 0 1 .518-.544h1.369c1.457 0 2.282 1.13 2.282 2.36 0 1.566-1.072 2.427-2.282 2.427h-1.33a.533.533 0 0 1-.556-.506v-3.736Zm1.114 3.235h.591c.866 0 1.272-.585 1.272-1.42 0-.833-.413-1.35-1.224-1.35h-.639v2.77Zm3.677-3.235a.53.53 0 0 1 .517-.544h1.744c.35 0 .557.201.557.504 0 .302-.207.505-.557.505h-1.148v.853h1.004c.35 0 .556.195.556.505 0 .309-.206.504-.556.504h-1.004v1.377c0 .382-.235.578-.557.578-.322 0-.556-.195-.556-.578v-3.704Z"/><path d="M22.377 8.454a.619.619 0 0 0-.626.612v20.446c0 .7-.58 1.266-1.295 1.267H2.55c-.716 0-1.297-.567-1.298-1.267V2.506c0-.7.579-1.268 1.294-1.27h13.048v3.749c.002 1.234 1.024 2.233 2.285 2.235h4.468a.62.62 0 0 0 .626-.612.605.605 0 0 0-.184-.433L16.661.178a.635.635 0 0 0-.557-.167L2.545.012C1.14.015.002 1.128 0 2.503V29.51C.002 30.884 1.14 32 2.546 32h17.908c1.405-.002 2.544-1.116 2.546-2.49V9.065a.619.619 0 0 0-.623-.612Zm-4.5-2.461c-.57 0-1.032-.453-1.033-1.011V2.089l3.988 3.901-2.954.003Z"/></g><defs><clipPath id="ma"><path d="M0 0h23v32H0z"/></clipPath></defs></symbol><symbol viewBox="0 0 91 80" id="people" xmlns="http://www.w3.org/2000/svg"><g clip-path="url(#na)"><path d="m61.178 33.238-7.746-3.489a1.54 1.54 0 0 1-.9-1.404v-2.156a11.493 11.493 0 0 0 4.274-8.96v-3.035a2.806 2.806 0 0 0 1.425-2.446v-.293C58.231 5.138 53.158 0 46.925 0h-2.849c-6.235 0-11.305 5.14-11.305 11.455v2.672c0 .913.387 1.74 1.064 2.27.116.09.235.169.361.237v.596c0 3.625 1.672 6.86 4.275 8.961v2.156a1.54 1.54 0 0 1-.902 1.404l-7.745 3.488c-2.537 1.142-4.177 3.7-4.177 6.51v17.9c0 .746.597 1.351 1.333 1.351s1.333-.605 1.333-1.35v-17.9c0-.157.01-.312.027-.465l3.569 3.616c.554.563.862 1.31.862 2.107v12.641c0 .746.597 1.351 1.333 1.351.735 0 1.333-.605 1.333-1.35V45.007a5.681 5.681 0 0 0-1.643-4.018L29.54 36.68a4.347 4.347 0 0 1 1.367-.973l7.616-3.428 5.647 5.72V57.65c0 .746.597 1.351 1.333 1.351.735 0 1.333-.605 1.333-1.35V37.998l5.646-5.721 7.616 3.428c.523.236.983.57 1.367.973l-4.255 4.311a5.681 5.681 0 0 0-1.642 4.018v12.641c0 .746.597 1.351 1.333 1.351s1.333-.605 1.333-1.35V45.007c0-.796.306-1.545.862-2.107l3.569-3.616c.016.153.026.308.026.464v17.9c0 .746.598 1.351 1.333 1.351.736 0 1.333-.605 1.333-1.35v-17.9c0-2.813-1.64-5.369-4.176-6.51l-.002-.002ZM45.5 35.53l-4.955-5.02c.377-.644.59-1.386.59-2.163v-.55c1.343.573 2.819.89 4.367.89a11.1 11.1 0 0 0 4.365-.89v.55c0 .777.213 1.52.59 2.162l-4.955 5.021H45.5Zm0-9.546c-4.763 0-8.64-3.928-8.64-8.754v-.607c.832-.333 1.644-.866 2.421-1.592.54-.506.574-1.36.075-1.909a1.323 1.323 0 0 0-1.884-.077c-.667.623-1.333 1.027-1.98 1.198l-.036.007a.28.28 0 0 1-.023-.123v-2.672c0-4.826 3.876-8.754 8.64-8.754h2.849c4.765 0 8.64 3.928 8.64 8.754v.293c0 .044-.027.082-.061.089-7.982 1.597-11.986-1.414-13.337-2.783a1.321 1.321 0 0 0-1.886 0 1.364 1.364 0 0 0 0 1.911c4.14 4.194 10.179 4.27 13.856 3.822v2.44c0 4.828-3.876 8.753-8.64 8.753l.006.004Zm-21.463-.092v-2.888a10.04 10.04 0 0 0-4.53-8.41 5.747 5.747 0 0 0 .255-1.695c0-3.133-2.515-5.681-5.607-5.681-3.093 0-5.608 2.548-5.608 5.681 0 .584.087 1.15.256 1.695a10.04 10.04 0 0 0-4.53 8.41v2.886a10.04 10.04 0 0 0 4.274 8.237v2.97a1.53 1.53 0 0 1-.839 1.374l-4.61 2.335C1.188 41.777 0 43.724 0 45.89v11.76C0 58.394.597 59 1.333 59s1.333-.605 1.333-1.35V46.474l2.172 2.2c.554.565.862 1.312.862 2.108v6.868c0 .746.597 1.35 1.333 1.35s1.333-.604 1.333-1.35v-6.868a5.681 5.681 0 0 0-1.642-4.018L3.7 43.702l-.044-.041c.19-.17.402-.317.636-.436l4.61-2.336c.237-.12.457-.26.662-.418l3.26 3.303V57.65c0 .746.597 1.351 1.332 1.351.736 0 1.334-.605 1.334-1.35v-13.88l3.26-3.302c.204.156.424.299.66.417l1.271.645a1.33 1.33 0 0 0 1.788-.605 1.36 1.36 0 0 0-.595-1.812l-1.271-.644a1.53 1.53 0 0 1-.839-1.374v-2.97a10.042 10.042 0 0 0 4.275-8.237l-.002.002ZM14.155 9.92c1.62 0 2.941 1.336 2.941 2.98 0 .182-.016.359-.046.533a9.737 9.737 0 0 0-5.785-.002 3.093 3.093 0 0 1-.05-.53c0-1.645 1.319-2.981 2.941-2.981h-.001Zm0 5.775c3.98 0 7.216 3.28 7.216 7.311v.49c-5.55 1.722-8.857-2.555-8.999-2.742a1.32 1.32 0 0 0-2.008-.144c-1.273 1.289-2.519 1.91-3.42 2.21.1-3.945 3.294-7.123 7.21-7.123v-.002Zm0 25.611-3.08-3.12a4.29 4.29 0 0 0 .138-1.085v-1.647a9.755 9.755 0 0 0 5.883 0V37.1c0 .373.05.737.139 1.084l-3.08 3.121Zm0-8.102c-3.98 0-7.216-3.279-7.216-7.31v-.28c1.063-.247 2.64-.823 4.283-2.163a11.943 11.943 0 0 0 2.472 1.823 10.506 10.506 0 0 0 5.094 1.332c.804 0 1.662-.093 2.57-.311-.206 3.844-3.359 6.91-7.203 6.91ZM87.9 37.922l-7.46-3.78a1.53 1.53 0 0 1-.838-1.374v-1.915a8.59 8.59 0 0 0 2.85-6.405V22.91h.091c.736 0 1.333-.605 1.333-1.35v-2.887c0-4.726-3.794-8.569-8.456-8.569h-2.85c-4.663 0-8.456 3.845-8.456 8.569v2.886c0 .746.597 1.35 1.333 1.35h.093v1.537a8.604 8.604 0 0 0 2.849 6.407v1.915a1.53 1.53 0 0 1-.84 1.374 1.358 1.358 0 0 0-.595 1.811 1.33 1.33 0 0 0 1.193.748c.2 0 .403-.047.596-.143.236-.12.456-.26.66-.417l3.26 3.302V57.65c0 .746.597 1.351 1.333 1.351s1.333-.605 1.333-1.35V39.44l3.26-3.302c.204.156.425.299.661.417l7.218 3.658-2.19 2.218a5.681 5.681 0 0 0-1.642 4.018v11.198c0 .745.597 1.35 1.333 1.35s1.333-.605 1.333-1.35V46.45c0-.796.306-1.545.862-2.107l2.074-2.101c.062.245.098.498.098.76v14.646c0 .745.597 1.35 1.333 1.35s1.333-.605 1.333-1.35V43.002c0-2.167-1.187-4.114-3.1-5.082l-.002.002Zm-21.122-17.99v-1.26c0-3.234 2.599-5.866 5.791-5.866h2.85c3.191 0 5.79 2.632 5.79 5.867v1.5c-5.794-.317-9.292-2.602-9.326-2.624a1.323 1.323 0 0 0-1.683.17c-1.276 1.292-2.526 1.914-3.423 2.212h.001Zm7.216 17.04-3.08-3.12c.091-.348.139-.712.139-1.084v-.288a8.317 8.317 0 0 0 2.942.534 8.31 8.31 0 0 0 2.941-.535v.289c0 .372.05.734.139 1.084l-3.08 3.12Zm0-6.657c-3.192 0-5.79-2.633-5.79-5.867V22.27c.933-.379 2.02-.98 3.128-1.934 1.4.738 4.328 2.013 8.453 2.434v1.677c0 3.236-2.598 5.867-5.79 5.867Z"/></g><defs><clipPath id="na"><path d="M0 0h91v59H0z"/></clipPath></defs></symbol><symbol viewBox="0 0 14 14" id="plus" xmlns="http://www.w3.org/2000/svg"><path d="M7 1v6m0 6V7m0 0h6M7 7H1"/></symbol><symbol viewBox="0 0 28 28" id="telegram" xmlns="http://www.w3.org/2000/svg"><g clip-path="url(#pa)"><path fill-rule="evenodd" clip-rule="evenodd" d="M26.235 16.72c.34-1.942.553-3.235.73-4.335.176-1.1.315-2.012.42-2.732.106-.72.177-1.252.241-1.706.065-.458.123-.842.174-1.239.05-.397.095-.81.129-1.17.034-.364.057-.677.067-.916a3.48 3.48 0 0 0-.013-.505 1.575 1.575 0 0 0-.15-.495.955.955 0 0 0-.172-.238 1.075 1.075 0 0 0-.289-.21 1.605 1.605 0 0 0-.424-.14 1.998 1.998 0 0 0-.516-.024 3.69 3.69 0 0 0-.61.104c-.252.06-.574.145-.961.27-.384.124-.832.282-4.598 1.837A4358.507 4358.507 0 0 0 5.86 11.204c-3.55 1.484-3.556 1.5-3.661 1.548-.105.047-.306.124-.54.229a8.971 8.971 0 0 0-.72.363c-.22.128-.4.246-.535.357a1.592 1.592 0 0 0-.296.296.526.526 0 0 0-.101.249 1.02 1.02 0 0 0-.004.303.66.66 0 0 0 .099.269.93.93 0 0 0 .224.232c.098.077.227.158.393.239.17.08.377.165.7.276.322.111.756.252 1.336.427.58.179 1.304.394 1.857.539.553.144.936.222 1.252.279.315.057.563.094.808.104.24.01.478 0 .709-.04a4.48 4.48 0 0 0 .675-.172 4.69 4.69 0 0 0 .624-.259c.21-.104.428-.232 1.5-.935 1.073-.703 2.997-1.982 4.724-3.13a986.336 986.336 0 0 1 4.11-2.705c.845-.552 1.004-.646 1.123-.72.119-.074.197-.125.278-.158a.802.802 0 0 1 .238-.054.674.674 0 0 1 .204.006.405.405 0 0 1 .149.068c.04.03.071.07.088.141a.82.82 0 0 1 .014.26c-.01.08-.034.134-.17.295-.136.165-.384.438-1.11 1.144-.726.71-1.927 1.854-2.664 2.554-.736.7-1.008.953-1.242 1.171-.237.22-.44.404-.655.603-.213.198-.437.41-.655.616-.217.205-.427.4-.627.588-.2.189-.394.37-.587.56-.194.188-.387.383-.543.548a5.13 5.13 0 0 0-.367.424 2.108 2.108 0 0 0-.346.723.7.7 0 0 0 .017.343 1.762 1.762 0 0 0 .513.818c.145.138.332.293 1.065.797.733.505 2.005 1.36 3.261 2.201 1.256.841 2.494 1.67 3.254 2.177.764.509 1.049.697 1.334.838.282.142.56.233.747.29.186.057.281.074.444.084.163.01.394.013.563-.003a.864.864 0 0 0 .394-.125 1.6 1.6 0 0 0 .38-.306c.133-.142.272-.327.384-.518.115-.196.203-.398.278-.6.075-.201.129-.396.387-1.79.258-1.393.723-3.987 1.059-5.929h.013Z" fill-opacity=".5"/></g><defs><clipPath id="pa"><path d="M0 0h28v28H0z"/></clipPath></defs></symbol><symbol viewBox="0 0 92 80" id="touch" xmlns="http://www.w3.org/2000/svg"><g clip-path="url(#qa)"><path d="M91.899 42.196a1.528 1.528 0 0 0-1.969-.891l-5.556 2.09-8.868-25.29 15.255-6.1a1.524 1.524 0 0 0 .85-1.984 1.532 1.532 0 0 0-1.987-.85l-16.61 6.645a1.526 1.526 0 0 0-.876 1.919l.289.824-4.54 1.248c-.301-.279-.623-.55-.972-.813a1.484 1.484 0 0 0-.597-.275c-8.2-1.79-18.384-3.748-20.31-2.957-3.22 1.324-9.144 5.397-12.682 7.825l-1.569 1.069c-.361.24-.6.625-.661 1.056-.218 1.553-.944 3.566-1.783 5.897-.52 1.444-1.082 3.002-1.602 4.673a1.533 1.533 0 0 0 .361 1.517c1.694 1.75 3.768 2.682 5.918 2.682.3 0 .6-.015.902-.052 2.312-.28 4.388-1.633 5.544-3.616.646-1.105 1.285-2.759 1.732-4.132 1.657-.31 4.507-.927 6.18-1.324a1.526 1.526 0 0 0 1.136-1.837 1.523 1.523 0 0 0-1.84-1.133c-2.202.523-5.923 1.306-6.86 1.43a1.53 1.53 0 0 0-1.269 1.088c-.485 1.673-1.196 3.47-1.722 4.374-.669 1.144-1.923 1.959-3.272 2.121-.902.103-2.223-.019-3.597-1.123.422-1.282.86-2.494 1.269-3.633.79-2.193 1.483-4.124 1.816-5.825l1.049-.714c3.215-2.207 9.195-6.317 12.018-7.487 1.426-.275 10.325 1.294 18.25 3.012.379.31.723.63 1.044.952.392.397.963.55 1.495.4l5.577-1.533 6.286 17.922-1.98.879a1.528 1.528 0 0 0-.906 1.465c.004.015.042 1.362-.484 3.19l-8.388-4.579-13.593-8.424a1.529 1.529 0 0 0-2.104.5 1.524 1.524 0 0 0 .5 2.1l13.66 8.46 10.02 5.473c.012.006.024.01.035.018.004 0 .006.003.008.005 1.319.718 1.83 2.417 1.131 3.709-.743 1.348-2.303 1.865-3.614 1.154l-10.332-5.118a1.533 1.533 0 0 0-2.007.61 1.523 1.523 0 0 0 .493 2.035l5.07 3.291c1.264.69 1.652 2.161.918 3.499a2.855 2.855 0 0 1-1.682 1.383 2.402 2.402 0 0 1-1.87-.199l-7.948-4.334a1.528 1.528 0 0 0-1.605 2.594l4.178 2.9c.433.626.715 1.866.177 2.85-.691 1.263-2.415 1.705-3.797.956l-4.515-2.36c-.602-.317-1.403-.128-1.876.362a1.524 1.524 0 0 0-.056 2.045c.52.605.723 1.843.159 2.87-.373.677-.998.982-1.459 1.117a3.256 3.256 0 0 1-2.421-.26l-.881-.474a5.051 5.051 0 0 0-.24-6.852l-.99-.992c-1.17-1.185-2.904-1.64-4.506-1.366a5.026 5.026 0 0 0-1.452-3.79l-.99-.998c-1.174-1.185-2.904-1.64-4.505-1.366a4.986 4.986 0 0 0-1.453-3.788l-.994-1.004c-1.25-1.255-3.119-1.69-4.797-1.303 0-.036.004-.072.004-.108a5.004 5.004 0 0 0-1.458-3.575l-.994-1.002c-1.665-1.678-4.451-1.886-6.397-.63l-4.119-2.073 5.873-16.744 9.712 1.915a1.522 1.522 0 0 0 1.795-1.2 1.522 1.522 0 0 0-1.203-1.791L18.56 18.59l.33-.943a1.53 1.53 0 0 0-.85-1.911L2.318 9.118a1.538 1.538 0 0 0-2.003.811 1.524 1.524 0 0 0 .816 2l14.398 6.054-8.899 25.37-4.614-1.54a1.535 1.535 0 0 0-1.936.96c-.27.8.163 1.664.963 1.933l6.046 2.02a1.526 1.526 0 0 0 1.927-.939l1.63-4.646 2.746 1.381-.369.362a5.046 5.046 0 0 0-.027 7.137l.994.997a5.015 5.015 0 0 0 3.188 1.47 5.02 5.02 0 0 0-.392 1.941 4.983 4.983 0 0 0 1.464 3.561l.994.998a4.996 4.996 0 0 0 3.588 1.492c.672 0 1.324-.13 1.928-.378a4.99 4.99 0 0 0 1.44 3.043l.99 1.001a5.02 5.02 0 0 0 3.589 1.492c.672 0 1.324-.13 1.928-.378a5.02 5.02 0 0 0 1.435 3.049l.998 1.003a5.03 5.03 0 0 0 3.584 1.484 5.049 5.049 0 0 0 3.557-1.45l.015-.015 1.682.908a6.23 6.23 0 0 0 2.993.76c.59 0 1.181-.083 1.752-.25 1.438-.424 2.604-1.34 3.282-2.585a5.783 5.783 0 0 0 .694-2.454l1.462.764c2.813 1.535 6.437.53 7.924-2.183a5.554 5.554 0 0 0 .654-3.006l.397.214a5.5 5.5 0 0 0 4.201.448c1.474-.431 2.752-1.469 3.505-2.848.623-1.133.862-2.392.692-3.605l1.076.53c2.764 1.507 6.143.452 7.71-2.4 1.279-2.354.671-5.328-1.273-7.08.55-1.6.75-2.994.82-3.896l.878-.39 1.269 3.62a1.522 1.522 0 0 0 1.976.92l7.022-2.64a1.522 1.522 0 0 0 .892-1.964l-.005.002Zm-76.735 5.671a1.998 1.998 0 0 1 .005-2.817l2.013-1.975a2 2 0 0 1 1.41-.574c.534 0 1.044.208 1.417.586l.994 1.001c.372.376.575.876.571 1.41a1.962 1.962 0 0 1-.58 1.398l-2.015 1.978c-.753.744-2.074.742-2.823-.011l-.99-.996h-.002Zm6.248 8.973-.998-1.001a1.983 1.983 0 0 1 .015-2.81l4.002-3.964a1.97 1.97 0 0 1 1.403-.574c.532 0 1.044.21 1.419.585l.993 1.004c.373.372.576.87.572 1.404 0 .534-.209 1.034-.587 1.407l-4.002 3.963c-.753.742-2.074.743-2.82-.012l.003-.002Zm7.947 5.158-.998-1.003a1.957 1.957 0 0 1-.575-1.404 1.973 1.973 0 0 1 .584-1.404l3.013-2.97c.372-.37.871-.574 1.402-.574.532 0 1.046.208 1.419.585l.99.998a1.996 1.996 0 0 1-.01 2.818l-3.008 2.97c-.753.742-2.074.742-2.82-.016h.003Zm7.947 5.162-.994-1.001a1.987 1.987 0 0 1-.575-1.414c.003-.534.21-1.034.58-1.4l2.013-1.974c.373-.37.875-.575 1.407-.575.54 0 1.043.209 1.418.59l.988.988c.776.782.774 2.05-.004 2.818l-2.012 1.974c-.755.744-2.08.742-2.823-.006h.002Z"/></g><defs><clipPath id="qa"><path transform="translate(0 9)" d="M0 0h92v62H0z"/></clipPath></defs></symbol><symbol viewBox="0 0 16 16" id="user" xmlns="http://www.w3.org/2000/svg"><circle cx="7.621" cy="3.862" r="2.862"/><path d="M14.241 16A6.62 6.62 0 0 0 1 16"/></symbol><symbol viewBox="0 0 16 16" id="viber" xmlns="http://www.w3.org/2000/svg"><path d="M8 1.335c-1.071.013-3.374.19-4.662 1.37-.958.948-1.292 2.35-1.331 4.084-.033 1.728-.072 4.973 3.058 5.856v1.346s-.02.538.337.648c.438.14.688-.275 1.105-.72l.778-.879c2.142.178 3.782-.232 3.97-.293.435-.139 2.883-.451 3.283-3.696.41-3.351-.2-5.463-1.301-6.418h-.007c-.332-.306-1.668-1.279-4.652-1.29 0 0-.222-.014-.578-.008Zm.037.942a7.02 7.02 0 0 1 .488.011c2.527.007 3.732.767 4.017 1.023.927.794 1.405 2.697 1.055 5.495-.332 2.713-2.317 2.885-2.685 3.002-.156.05-1.6.406-3.42.289 0 0-1.356 1.634-1.78 2.055-.067.074-.146.095-.196.085-.071-.018-.093-.107-.089-.229l.013-2.233c-2.655-.733-2.498-3.5-2.47-4.946.033-1.446.304-2.628 1.113-3.43 1.088-.982 3.043-1.115 3.953-1.122Zm.2 1.446a.166.166 0 1 0 0 .332 3.136 3.136 0 0 1 2.242.883c.606.588.9 1.378.912 2.411 0 .092.074.167.167.167V7.51a.167.167 0 0 0 .168-.165 3.588 3.588 0 0 0-1.009-2.646c-.66-.645-1.496-.977-2.48-.977Zm-2.198.382a.523.523 0 0 0-.342.067H5.69a2.61 2.61 0 0 0-.637.523 1.003 1.003 0 0 0-.256.525.71.71 0 0 0 .026.302l.01.006c.172.504.396.988.67 1.444a8.48 8.48 0 0 0 1.29 1.762l.015.022.024.017.015.018.017.015c.532.505 1.127.94 1.769 1.295.734.4 1.18.588 1.447.667v.004c.078.024.15.034.221.034.228-.016.444-.109.613-.262a2.53 2.53 0 0 0 .517-.638v-.004c.128-.241.085-.469-.1-.623-.37-.323-.77-.61-1.195-.857-.285-.155-.574-.061-.69.095l-.25.315c-.129.156-.361.134-.361.134l-.007.004C7.093 8.527 6.63 6.772 6.63 6.772s-.022-.239.139-.36l.312-.252c.15-.122.254-.41.094-.695a7.498 7.498 0 0 0-.856-1.194.475.475 0 0 0-.28-.167Zm2.486.495c-.221 0-.221.334.003.334A2.098 2.098 0 0 1 10 5.572 1.94 1.94 0 0 1 10.5 7a.168.168 0 0 0 .167.165l.007.009a.169.169 0 0 0 .167-.167c.015-.662-.191-1.218-.595-1.663C9.84 4.9 9.273 4.65 8.549 4.6h-.024Zm.274.898c-.228-.006-.236.335-.01.341.55.029.816.306.851.877a.166.166 0 0 0 .165.163h.007a.168.168 0 0 0 .16-.178c-.039-.744-.445-1.164-1.166-1.202H8.8Z"/></symbol><symbol viewBox="0 0 30 28" id="vk" xmlns="http://www.w3.org/2000/svg"><g clip-path="url(#ta)"><path fill-rule="evenodd" clip-rule="evenodd" d="M10.066 14.276c-1.221-1.404-2.47-3.691-3.188-5.392-.243-.576-.492-1.138-.708-1.742-.164-.465-.444-1.376-.732-1.718-.451-.527-1.19-.41-2.025-.41-.485 0-2.096-.024-2.445.007-.886.076-1.081.51-.913 1.421.123.67.328 1.325.533 1.918.595 1.708 1.437 3.48 2.33 5.02.588 1.017 1.22 2.062 1.884 3.01.339.487.677.966 1.03 1.418 1.272 1.629 3.187 3.374 5.452 4.326 1.146.483 2.537.883 4.04.849.745-.018 1.569-.049 1.976-.473.215-.224.233-.59.233-.983v-1.238c0-.542-.065-1.953.106-2.35.13-.303.451-.375.879-.338.362.032.656.18.91.325.492.276 1.32.924 1.716 1.32l.319.301c.208.186.434.404.619.614.195.217.39.407.585.624l.584.649c.319.369.814.928 1.225 1.224.599.428 1.248.328 2.104.328.773 0 1.658.042 2.414-.01.784-.055 1.184-.538.934-1.377-.263-.886-1.334-2.197-1.953-2.942l-2.045-2.232c-.058-.062-.086-.103-.148-.162-.376-.352-1.118-1.045-1.197-1.56-.071-.455.544-1.196.821-1.603 1.01-1.494 3.67-5.44 3.954-7.075.076-.439-.044-.704-.328-.863-.277-.159-.691-.145-1.064-.145H26.74c-.605 0-1.843-.072-2.326.11-.608.232-.803.798-1.05 1.398-.18.441-.574 1.228-.797 1.652-.667 1.249-1.032 1.897-1.83 3.067a16.6 16.6 0 0 1-1.067 1.383c-.25.293-.96.976-1.358 1.083-.879.238-.776-.897-.776-1.59V7.204c0-.7.123-1.762-.393-2.06-.294-.168-.698-.127-1.081-.127h-3.663c-.602 0-1.676-.172-1.782.66-.117.893 1.293 1.055 1.293 3.61v2.457c0 .8.03 1.666 0 2.456-.018.359-.072.77-.322.89-.42.204-.975-.235-1.21-.5-.1-.11-.206-.197-.305-.314h-.007Z" fill-opacity=".5"/></g><defs><clipPath id="ta"><path d="M0 0h30v28H0z"/></clipPath></defs></symbol><symbol viewBox="0 0 16 16" id="whatsapp" xmlns="http://www.w3.org/2000/svg"><path fill-rule="evenodd" clip-rule="evenodd" d="M12.269 3.755A5.947 5.947 0 0 0 8.035 2 5.994 5.994 0 0 0 2.05 7.985a5.98 5.98 0 0 0 .799 2.992L2 14.077l3.173-.832c.877.477 1.86.728 2.86.728h.002a5.993 5.993 0 0 0 5.533-8.276 5.953 5.953 0 0 0-1.3-1.942Zm-4.234 9.208h-.002c-.89 0-1.765-.24-2.532-.694l-.181-.108-1.883.494.502-1.835-.118-.188a4.965 4.965 0 0 1-.76-2.647 4.982 4.982 0 0 1 6.88-4.597c.604.25 1.152.618 1.613 1.081a4.946 4.946 0 0 1 1.455 3.52 4.982 4.982 0 0 1-4.974 4.974Zm2.729-3.726c-.15-.075-.885-.436-1.022-.486-.137-.05-.236-.075-.336.074-.1.15-.387.486-.474.586-.087.1-.175.112-.324.038-.15-.075-.631-.233-1.203-.742a4.505 4.505 0 0 1-.832-1.036c-.087-.15-.009-.231.066-.306.068-.066.15-.174.224-.262.075-.087.1-.149.15-.249.05-.1.025-.187-.013-.262-.037-.075-.337-.811-.461-1.11-.121-.29-.244-.252-.336-.256a6.418 6.418 0 0 0-.286-.005.55.55 0 0 0-.4.186c-.137.15-.523.512-.523 1.248s.536 1.447.61 1.547c.075.1 1.055 1.61 2.555 2.258.358.154.636.246.853.315.358.114.684.098.942.06.287-.043.885-.362 1.01-.711.124-.35.124-.649.087-.711-.038-.063-.138-.101-.287-.176Z"/></symbol></svg>