<?xml version="1.0" encoding="utf-8"?><svg xmlns="http://www.w3.org/2000/svg" xmlns:xlink="http://www.w3.org/1999/xlink"><symbol viewBox="0 0 14 15" id="arr-next" xmlns="http://www.w3.org/2000/svg"><g clip-path="url(#aa)"><path d="M-80.56 1.8h4.48c1.27 0 2.197.272 2.784.816.597.544.896 1.27.896 2.176 0 .576-.15 1.072-.448 1.488-.299.405-.71.699-1.232.88.661.15 1.184.453 1.568.912.395.448.592 1.035.592 1.76 0 .47-.075.901-.224 1.296-.15.384-.384.715-.704.992-.31.277-.71.496-1.2.656-.49.15-1.083.224-1.776.224h-4.736V1.8Zm4.528 9.536c.832 0 1.403-.133 1.712-.4.32-.267.48-.677.48-1.232a2.17 2.17 0 0 0-.112-.72 1.16 1.16 0 0 0-.368-.528c-.17-.15-.4-.261-.688-.336a4.075 4.075 0 0 0-1.04-.112h-2.592v3.328h2.608Zm-.288-4.864c.747 0 1.264-.139 1.552-.416.299-.277.448-.65.448-1.12 0-.48-.144-.843-.432-1.088-.288-.256-.81-.384-1.568-.384h-2.32v3.008h2.32Zm9.757 6.704c-.576 0-1.11-.085-1.6-.256a3.532 3.532 0 0 1-1.264-.816 3.852 3.852 0 0 1-.832-1.36c-.203-.544-.304-1.179-.304-1.904v-.32c0-.683.106-1.285.32-1.808A3.8 3.8 0 0 1-69.38 5.4a3.61 3.61 0 0 1 1.28-.784 4.395 4.395 0 0 1 1.536-.272c.555 0 1.045.075 1.472.224.437.15.805.357 1.104.624.31.256.555.56.736.912.181.352.304.73.368 1.136h-1.792a2.01 2.01 0 0 0-.576-.976c-.277-.256-.715-.384-1.312-.384-.299 0-.581.053-.848.16-.267.096-.501.25-.704.464a2.25 2.25 0 0 0-.48.832c-.118.33-.176.725-.176 1.184v.32c0 .501.058.933.176 1.296a2.4 2.4 0 0 0 .48.864c.203.224.437.39.704.496.267.096.55.144.848.144.992 0 1.621-.453 1.888-1.36h1.792a3.77 3.77 0 0 1-.448 1.216 3.21 3.21 0 0 1-.784.912 3.76 3.76 0 0 1-1.104.576 4.548 4.548 0 0 1-1.344.192Zm9.035 0a4.93 4.93 0 0 1-1.6-.256 3.913 3.913 0 0 1-1.328-.8 3.976 3.976 0 0 1-.896-1.36c-.224-.544-.336-1.184-.336-1.92v-.32c0-.704.107-1.317.32-1.84a3.62 3.62 0 0 1 .864-1.296 3.61 3.61 0 0 1 1.28-.784c.48-.17.992-.256 1.536-.256 1.29 0 2.277.347 2.96 1.04.693.693 1.04 1.685 1.04 2.976v.896h-6.208c.01.437.08.81.208 1.12.139.299.315.544.528.736.224.181.474.315.752.4.288.085.581.128.88.128.608 0 1.05-.096 1.328-.288a1.46 1.46 0 0 0 .592-.752h1.76c-.17.843-.592 1.483-1.264 1.92-.661.437-1.467.656-2.416.656Zm-.08-7.296c-.299 0-.587.037-.864.112a2.006 2.006 0 0 0-.72.368c-.203.16-.368.373-.496.64-.128.256-.197.57-.208.944h4.448c-.01-.395-.075-.725-.192-.992a1.575 1.575 0 0 0-.448-.64 1.663 1.663 0 0 0-.688-.336 3.425 3.425 0 0 0-.832-.096Zm12.801 7.296c-.992 0-1.813-.256-2.464-.768-.65-.523-1.056-1.232-1.216-2.128h1.792c.267.907.896 1.36 1.888 1.36.576 0 1.062-.17 1.456-.512.395-.341.635-.912.72-1.712h-3.136V7.944h3.136c-.085-.715-.33-1.237-.736-1.568a2.207 2.207 0 0 0-1.44-.496c-.597 0-1.035.128-1.312.384a2.01 2.01 0 0 0-.576.976h-1.792c.064-.405.187-.784.368-1.136a3 3 0 0 1 .72-.912c.31-.267.678-.475 1.104-.624.427-.15.923-.224 1.488-.224.555 0 1.072.09 1.552.272.49.17.918.432 1.28.784.363.352.645.79.848 1.312.214.523.32 1.125.32 1.808v.32c0 .725-.101 1.36-.304 1.904a3.677 3.677 0 0 1-.816 1.36 3.357 3.357 0 0 1-1.264.816c-.49.17-1.03.256-1.616.256Zm7.599-7.152h-2.8V4.52h7.36v1.504h-2.8V13h-1.76V6.024Zm7.995 7.152c-.458 0-.869-.064-1.232-.192a2.721 2.721 0 0 1-.895-.56 2.502 2.502 0 0 1-.56-.848 2.819 2.819 0 0 1-.193-1.056c0-.843.251-1.467.753-1.872.5-.416 1.237-.624 2.207-.624h2.64V7.56c0-.64-.144-1.077-.431-1.312-.278-.245-.72-.368-1.329-.368-.544 0-.944.085-1.2.256a.98.98 0 0 0-.448.704h-1.712a2.38 2.38 0 0 1 .273-.992c.17-.31.4-.576.688-.8a3.227 3.227 0 0 1 1.072-.512 4.782 4.782 0 0 1 1.407-.192 5.2 5.2 0 0 1 1.408.176c.427.117.79.304 1.088.56.3.245.529.565.689.96.17.395.255.87.255 1.424v3.376c0 .448.006.843.017 1.184.01.33.037.656.08.976h-1.6c-.032-.245-.06-.453-.08-.624-.011-.17-.017-.384-.017-.64-.202.395-.554.736-1.056 1.024-.49.277-1.098.416-1.823.416Zm.48-1.536c.3 0 .582-.037.849-.112.277-.085.517-.203.72-.352.202-.16.362-.352.48-.576.128-.235.192-.501.192-.8v-.464h-2.32c-.448 0-.811.096-1.088.288-.267.192-.4.475-.4.848 0 .352.122.635.367.848.256.213.657.32 1.2.32Zm6.166-7.12h7.36V13h-1.76V6.024h-3.84V13h-1.76V4.52Zm9.593 0h1.76v2.976h1.6c1.088 0 1.894.235 2.416.704.523.459.784 1.141.784 2.048 0 .853-.256 1.525-.768 2.016-.512.49-1.322.736-2.432.736h-3.36V4.52Zm3.2 6.976c.587 0 .998-.101 1.232-.304.246-.213.368-.528.368-.944 0-.416-.122-.725-.368-.928-.234-.213-.645-.32-1.232-.32h-1.44v2.496h1.44Zm4.48-6.976h1.76V13h-1.76V4.52Zm15.496 3.712H1.994V6.568h8.208L6.234 2.6H8.57l4.8 4.8-4.8 4.8H6.234l3.968-3.968Z"/></g><defs><clipPath id="aa"><path d="M0 0h14v15H0z"/></clipPath></defs></symbol><symbol viewBox="0 0 22 18" id="arr-top" xmlns="http://www.w3.org/2000/svg"><g clip-path="url(#ba)"><path d="M.596 12.494 10.739 2.352 20.88 12.494"/></g><defs><clipPath id="ba"><path d="M0 0h22v18H0z"/></clipPath></defs></symbol><symbol viewBox="0 0 22 24" id="basket" xmlns="http://www.w3.org/2000/svg"><g clip-path="url(#ca)"><path d="M10.363 18.443a2.046 2.046 0 0 0-2.045 2.042 2.046 2.046 0 0 0 4.09 0 2.046 2.046 0 0 0-2.045-2.042Zm6.134 0a2.046 2.046 0 0 0-2.045 2.042 2.046 2.046 0 0 0 4.089 0 2.046 2.046 0 0 0-2.044-2.042Zm3.978-8.199L7.413 6.891a.614.614 0 0 0-.75.73L8.67 16.4h-.786L5.482 5.895a.613.613 0 0 0-.474-.464l-4.27-.882A.614.614 0 0 0 .489 5.75l3.885.802L6.797 17.15a.613.613 0 0 0 .598.477h12.07a.615.615 0 0 0 .607-.53l.858-6.175a.613.613 0 0 0-.455-.678Zm-8.14 3.91a.613.613 0 0 1-1.227 0v-2.696a.613.613 0 0 1 1.227 0v2.696Zm2.625 0a.613.613 0 0 1-1.227 0v-1.88a.613.613 0 0 1 1.227 0v1.88Zm2.625 0a.613.613 0 0 1-1.227 0v-1.226a.613.613 0 0 1 1.227 0v1.226Z"/></g><path fill-rule="evenodd" clip-rule="evenodd" d="M16.268 4.568a2.996 2.996 0 0 0-1.693-.523c-.627 0-1.21.193-1.693.523-.28-.843-.492-1.752-.492-2.383C12.39.98 13.37 0 14.575 0s2.185.98 2.185 2.185c0 .631-.212 1.54-.492 2.383Zm-4.722 2.274.024.006v-.011l-.024.005Zm4.972 1.217c-1.333-.33-2.766-.681-4.129-1.013a2.185 2.185 0 1 1 4.129 1.013Zm4.436 1.103c-.866-.217-2.155-.538-3.618-.9a2.995 2.995 0 0 0 .243-1.425c.87.18 1.762.45 2.308.765.596.344.969.928 1.067 1.56ZM9.869 6.439c-.36-.086-.706-.167-1.03-.243a2.19 2.19 0 0 1-.376-2.667 2.188 2.188 0 0 1 3.147-.7c.098.738.338 1.599.61 2.353a3.01 3.01 0 0 0-.449.774c-.628.113-1.305.278-1.902.483Zm10.124.075a3.43 3.43 0 0 1-.217.114c-.696-.295-1.587-.526-2.397-.672a3.01 3.01 0 0 0-.449-.774c.262-.727.494-1.553.599-2.273.095-.067.189-.128.278-.18a2.188 2.188 0 0 1 2.986.8 2.188 2.188 0 0 1-.8 2.985Z"/><defs><clipPath id="ca"><path transform="translate(0 3.064)" d="M0 0h20.936v20.936H0z"/></clipPath></defs></symbol><symbol viewBox="0 0 344.96 344.96" id="check" xmlns="http://www.w3.org/2000/svg"><g data-name="Слой 2"><path class="dcls-1" d="m321.85 86.24-40-23.11-23.1-40H212.5L172.48 0l-40 23.11H86.24l-23.11 40-40 23.1v46.21L0 172.48l23.11 40v46.21l40 23.11 23.11 40h46.21l40 23.1 40-23.11h46.21l23.11-40 40-23.11V212.5l23.11-40-23.11-40V86.24ZM156.91 243.07a16.79 16.79 0 0 1-23.34 0l-50.45-50.44a16.19 16.19 0 0 1 0-22.89l13.35-13.35a16.19 16.19 0 0 1 22.89 0l25.87 25.87 80.34-80.35a16.19 16.19 0 0 1 22.89 0l13.35 13.35a16.19 16.19 0 0 1 0 22.89Z" data-name="Capa 1"/></g></symbol><symbol viewBox="0 0 30 46" id="chevron-left" xmlns="http://www.w3.org/2000/svg"><path d="M22.112 45.225 1.414 24.527a2 2 0 0 1 0-2.829L22.112 1"/></symbol><symbol viewBox="0 0 30 46" id="chevron-right" xmlns="http://www.w3.org/2000/svg"><path d="m7.888.775 20.698 20.698a2 2 0 0 1 0 2.829L7.888 45"/></symbol><symbol viewBox="0 0 24 24" id="fb" xmlns="http://www.w3.org/2000/svg"><path d="M13.397 20.997v-8.196h2.765l.411-3.209h-3.176V7.548c0-.926.258-1.56 1.587-1.56h1.684v-2.86A22.108 22.108 0 0 0 14.201 3c-2.444 0-4.122 1.492-4.122 4.231v2.355H7.332v3.21h2.753v8.201h3.312Z"/></symbol><symbol viewBox="0 0 24 24" id="instagram" xmlns="http://www.w3.org/2000/svg"><path d="M11.999 7.377a4.624 4.624 0 1 0 0 9.248 4.624 4.624 0 0 0 0-9.248Zm0 7.627a3.004 3.004 0 1 1 0-6.008 3.004 3.004 0 0 1 0 6.008Zm4.807-6.719a1.078 1.078 0 1 0 0-2.156 1.078 1.078 0 0 0 0 2.156Z"/><path d="M20.533 6.11A4.605 4.605 0 0 0 17.9 3.48a6.607 6.607 0 0 0-2.186-.42c-.963-.042-1.268-.054-3.71-.054s-2.755 0-3.71.054a6.554 6.554 0 0 0-2.184.42 4.6 4.6 0 0 0-2.633 2.63 6.585 6.585 0 0 0-.419 2.186c-.043.962-.056 1.267-.056 3.71 0 2.442 0 2.753.056 3.71.015.748.156 1.486.419 2.187a4.61 4.61 0 0 0 2.634 2.632 6.583 6.583 0 0 0 2.185.45c.963.042 1.268.055 3.71.055s2.755 0 3.71-.055a6.616 6.616 0 0 0 2.186-.42 4.613 4.613 0 0 0 2.633-2.632c.263-.7.404-1.438.419-2.186.043-.962.056-1.267.056-3.71s0-2.753-.056-3.71a6.583 6.583 0 0 0-.421-2.217Zm-1.218 9.533a5.046 5.046 0 0 1-.311 1.688 2.987 2.987 0 0 1-1.712 1.71c-.535.2-1.1.305-1.67.312-.95.044-1.218.055-3.654.055-2.438 0-2.687 0-3.655-.055a4.961 4.961 0 0 1-1.67-.311 2.984 2.984 0 0 1-1.718-1.711 5.08 5.08 0 0 1-.311-1.67c-.043-.95-.053-1.217-.053-3.653 0-2.437 0-2.686.053-3.655a5.038 5.038 0 0 1 .311-1.687c.305-.79.93-1.41 1.719-1.712a5.01 5.01 0 0 1 1.669-.311c.95-.043 1.218-.055 3.655-.055s2.687 0 3.654.055a4.96 4.96 0 0 1 1.67.31 2.99 2.99 0 0 1 1.712 1.713 5.06 5.06 0 0 1 .311 1.669c.043.95.054 1.218.054 3.655 0 2.436 0 2.698-.043 3.654h-.011v-.001Z"/></symbol><symbol viewBox="0 0 16 28" id="odnoklassniki" xmlns="http://www.w3.org/2000/svg"><g clip-path="url(#ia)" fill-opacity=".5"><path d="M8.116 0C4.185 0 .999 3.249.999 7.256s3.186 7.256 7.117 7.256 7.117-3.25 7.117-7.256C15.233 3.249 12.046 0 8.116 0Zm0 10.256c-1.624 0-2.942-1.343-2.942-3s1.317-3 2.942-3c1.625 0 2.942 1.343 2.942 3s-1.317 3-2.942 3Zm2.513 10.029c2.85-.592 4.556-1.968 4.647-2.041a2 2 0 0 0 .3-2.774 1.91 1.91 0 0 0-2.721-.305c-.017.015-1.838 1.44-4.835 1.441-2.996-.002-4.856-1.426-4.873-1.441a1.91 1.91 0 0 0-2.72.305c-.67.85-.535 2.093.3 2.774.09.075 1.869 1.486 4.797 2.064l-4.083 4.35a2 2 0 0 0 .05 2.79c.376.368.86.552 1.343.552.484 0 1.014-.203 1.394-.603l3.792-4.12 4.176 4.146a1.91 1.91 0 0 0 2.737-.002 2.001 2.001 0 0 0-.002-2.79l-4.301-4.346h-.001Z"/></g><defs><clipPath id="ia"><path d="M0 0h16v28H0z"/></clipPath></defs></symbol><symbol viewBox="0 0 28 28" id="telegram" xmlns="http://www.w3.org/2000/svg"><g clip-path="url(#ja)"><path fill-rule="evenodd" clip-rule="evenodd" d="M26.235 16.72c.34-1.942.553-3.235.73-4.335.176-1.1.315-2.012.42-2.732.106-.72.177-1.252.241-1.706.065-.458.123-.842.174-1.239.05-.397.095-.81.129-1.17.034-.364.057-.677.067-.916a3.48 3.48 0 0 0-.013-.505 1.575 1.575 0 0 0-.15-.495.955.955 0 0 0-.172-.238 1.075 1.075 0 0 0-.289-.21 1.605 1.605 0 0 0-.424-.14 1.998 1.998 0 0 0-.516-.024 3.69 3.69 0 0 0-.61.104c-.252.06-.574.145-.961.27-.384.124-.832.282-4.598 1.837A4358.507 4358.507 0 0 0 5.86 11.204c-3.55 1.484-3.556 1.5-3.661 1.548-.105.047-.306.124-.54.229a8.971 8.971 0 0 0-.72.363c-.22.128-.4.246-.535.357a1.592 1.592 0 0 0-.296.296.526.526 0 0 0-.101.249 1.02 1.02 0 0 0-.004.303.66.66 0 0 0 .099.269.93.93 0 0 0 .224.232c.098.077.227.158.393.239.17.08.377.165.7.276.322.111.756.252 1.336.427.58.179 1.304.394 1.857.539.553.144.936.222 1.252.279.315.057.563.094.808.104.24.01.478 0 .709-.04a4.48 4.48 0 0 0 .675-.172 4.69 4.69 0 0 0 .624-.259c.21-.104.428-.232 1.5-.935 1.073-.703 2.997-1.982 4.724-3.13a986.336 986.336 0 0 1 4.11-2.705c.845-.552 1.004-.646 1.123-.72.119-.074.197-.125.278-.158a.802.802 0 0 1 .238-.054.674.674 0 0 1 .204.006.405.405 0 0 1 .149.068c.04.03.071.07.088.141a.82.82 0 0 1 .014.26c-.01.08-.034.134-.17.295-.136.165-.384.438-1.11 1.144-.726.71-1.927 1.854-2.664 2.554-.736.7-1.008.953-1.242 1.171-.237.22-.44.404-.655.603-.213.198-.437.41-.655.616-.217.205-.427.4-.627.588-.2.189-.394.37-.587.56-.194.188-.387.383-.543.548a5.13 5.13 0 0 0-.367.424 2.108 2.108 0 0 0-.346.723.7.7 0 0 0 .017.343 1.762 1.762 0 0 0 .513.818c.145.138.332.293 1.065.797.733.505 2.005 1.36 3.261 2.201 1.256.841 2.494 1.67 3.254 2.177.764.509 1.049.697 1.334.838.282.142.56.233.747.29.186.057.281.074.444.084.163.01.394.013.563-.003a.864.864 0 0 0 .394-.125 1.6 1.6 0 0 0 .38-.306c.133-.142.272-.327.384-.518.115-.196.203-.398.278-.6.075-.201.129-.396.387-1.79.258-1.393.723-3.987 1.059-5.929h.013Z" fill-opacity=".5"/></g><defs><clipPath id="ja"><path d="M0 0h28v28H0z"/></clipPath></defs></symbol><symbol viewBox="0 0 16 16" id="user" xmlns="http://www.w3.org/2000/svg"><circle cx="7.621" cy="3.862" r="2.862"/><path d="M14.241 16A6.62 6.62 0 0 0 1 16"/></symbol><symbol viewBox="0 0 16 16" id="viber" xmlns="http://www.w3.org/2000/svg"><path d="M8 1.335c-1.071.013-3.374.19-4.662 1.37-.958.948-1.292 2.35-1.331 4.084-.033 1.728-.072 4.973 3.058 5.856v1.346s-.02.538.337.648c.438.14.688-.275 1.105-.72l.778-.879c2.142.178 3.782-.232 3.97-.293.435-.139 2.883-.451 3.283-3.696.41-3.351-.2-5.463-1.301-6.418h-.007c-.332-.306-1.668-1.279-4.652-1.29 0 0-.222-.014-.578-.008Zm.037.942a7.02 7.02 0 0 1 .488.011c2.527.007 3.732.767 4.017 1.023.927.794 1.405 2.697 1.055 5.495-.332 2.713-2.317 2.885-2.685 3.002-.156.05-1.6.406-3.42.289 0 0-1.356 1.634-1.78 2.055-.067.074-.146.095-.196.085-.071-.018-.093-.107-.089-.229l.013-2.233c-2.655-.733-2.498-3.5-2.47-4.946.033-1.446.304-2.628 1.113-3.43 1.088-.982 3.043-1.115 3.953-1.122Zm.2 1.446a.166.166 0 1 0 0 .332 3.136 3.136 0 0 1 2.242.883c.606.588.9 1.378.912 2.411 0 .092.074.167.167.167V7.51a.167.167 0 0 0 .168-.165 3.588 3.588 0 0 0-1.009-2.646c-.66-.645-1.496-.977-2.48-.977Zm-2.198.382a.523.523 0 0 0-.342.067H5.69a2.61 2.61 0 0 0-.637.523 1.003 1.003 0 0 0-.256.525.71.71 0 0 0 .026.302l.01.006c.172.504.396.988.67 1.444a8.48 8.48 0 0 0 1.29 1.762l.015.022.024.017.015.018.017.015c.532.505 1.127.94 1.769 1.295.734.4 1.18.588 1.447.667v.004c.078.024.15.034.221.034.228-.016.444-.109.613-.262a2.53 2.53 0 0 0 .517-.638v-.004c.128-.241.085-.469-.1-.623-.37-.323-.77-.61-1.195-.857-.285-.155-.574-.061-.69.095l-.25.315c-.129.156-.361.134-.361.134l-.007.004C7.093 8.527 6.63 6.772 6.63 6.772s-.022-.239.139-.36l.312-.252c.15-.122.254-.41.094-.695a7.498 7.498 0 0 0-.856-1.194.475.475 0 0 0-.28-.167Zm2.486.495c-.221 0-.221.334.003.334A2.098 2.098 0 0 1 10 5.572 1.94 1.94 0 0 1 10.5 7a.168.168 0 0 0 .167.165l.007.009a.169.169 0 0 0 .167-.167c.015-.662-.191-1.218-.595-1.663C9.84 4.9 9.273 4.65 8.549 4.6h-.024Zm.274.898c-.228-.006-.236.335-.01.341.55.029.816.306.851.877a.166.166 0 0 0 .165.163h.007a.168.168 0 0 0 .16-.178c-.039-.744-.445-1.164-1.166-1.202H8.8Z"/></symbol><symbol viewBox="0 0 30 28" id="vk" xmlns="http://www.w3.org/2000/svg"><g clip-path="url(#ma)"><path fill-rule="evenodd" clip-rule="evenodd" d="M10.066 14.276c-1.221-1.404-2.47-3.691-3.188-5.392-.243-.576-.492-1.138-.708-1.742-.164-.465-.444-1.376-.732-1.718-.451-.527-1.19-.41-2.025-.41-.485 0-2.096-.024-2.445.007-.886.076-1.081.51-.913 1.421.123.67.328 1.325.533 1.918.595 1.708 1.437 3.48 2.33 5.02.588 1.017 1.22 2.062 1.884 3.01.339.487.677.966 1.03 1.418 1.272 1.629 3.187 3.374 5.452 4.326 1.146.483 2.537.883 4.04.849.745-.018 1.569-.049 1.976-.473.215-.224.233-.59.233-.983v-1.238c0-.542-.065-1.953.106-2.35.13-.303.451-.375.879-.338.362.032.656.18.91.325.492.276 1.32.924 1.716 1.32l.319.301c.208.186.434.404.619.614.195.217.39.407.585.624l.584.649c.319.369.814.928 1.225 1.224.599.428 1.248.328 2.104.328.773 0 1.658.042 2.414-.01.784-.055 1.184-.538.934-1.377-.263-.886-1.334-2.197-1.953-2.942l-2.045-2.232c-.058-.062-.086-.103-.148-.162-.376-.352-1.118-1.045-1.197-1.56-.071-.455.544-1.196.821-1.603 1.01-1.494 3.67-5.44 3.954-7.075.076-.439-.044-.704-.328-.863-.277-.159-.691-.145-1.064-.145H26.74c-.605 0-1.843-.072-2.326.11-.608.232-.803.798-1.05 1.398-.18.441-.574 1.228-.797 1.652-.667 1.249-1.032 1.897-1.83 3.067a16.6 16.6 0 0 1-1.067 1.383c-.25.293-.96.976-1.358 1.083-.879.238-.776-.897-.776-1.59V7.204c0-.7.123-1.762-.393-2.06-.294-.168-.698-.127-1.081-.127h-3.663c-.602 0-1.676-.172-1.782.66-.117.893 1.293 1.055 1.293 3.61v2.457c0 .8.03 1.666 0 2.456-.018.359-.072.77-.322.89-.42.204-.975-.235-1.21-.5-.1-.11-.206-.197-.305-.314h-.007Z" fill-opacity=".5"/></g><defs><clipPath id="ma"><path d="M0 0h30v28H0z"/></clipPath></defs></symbol><symbol viewBox="0 0 16 16" id="whatsapp" xmlns="http://www.w3.org/2000/svg"><path fill-rule="evenodd" clip-rule="evenodd" d="M12.269 3.755A5.947 5.947 0 0 0 8.035 2 5.994 5.994 0 0 0 2.05 7.985a5.98 5.98 0 0 0 .799 2.992L2 14.077l3.173-.832c.877.477 1.86.728 2.86.728h.002a5.993 5.993 0 0 0 5.533-8.276 5.953 5.953 0 0 0-1.3-1.942Zm-4.234 9.208h-.002c-.89 0-1.765-.24-2.532-.694l-.181-.108-1.883.494.502-1.835-.118-.188a4.965 4.965 0 0 1-.76-2.647 4.982 4.982 0 0 1 6.88-4.597c.604.25 1.152.618 1.613 1.081a4.946 4.946 0 0 1 1.455 3.52 4.982 4.982 0 0 1-4.974 4.974Zm2.729-3.726c-.15-.075-.885-.436-1.022-.486-.137-.05-.236-.075-.336.074-.1.15-.387.486-.474.586-.087.1-.175.112-.324.038-.15-.075-.631-.233-1.203-.742a4.505 4.505 0 0 1-.832-1.036c-.087-.15-.009-.231.066-.306.068-.066.15-.174.224-.262.075-.087.1-.149.15-.249.05-.1.025-.187-.013-.262-.037-.075-.337-.811-.461-1.11-.121-.29-.244-.252-.336-.256a6.418 6.418 0 0 0-.286-.005.55.55 0 0 0-.4.186c-.137.15-.523.512-.523 1.248s.536 1.447.61 1.547c.075.1 1.055 1.61 2.555 2.258.358.154.636.246.853.315.358.114.684.098.942.06.287-.043.885-.362 1.01-.711.124-.35.124-.649.087-.711-.038-.063-.138-.101-.287-.176Z"/></symbol></svg>