<svg width="14" height="15" viewBox="0 0 14 15" fill="none" xmlns="http://www.w3.org/2000/svg">
<g clip-path="url(#clip0_4905_198)">
<path d="M-80.56 1.8H-76.08C-74.8107 1.8 -73.8827 2.072 -73.296 2.616C-72.6987 3.16 -72.4 3.88533 -72.4 4.792C-72.4 5.368 -72.5493 5.864 -72.848 6.28C-73.1467 6.68533 -73.5573 6.97867 -74.08 7.16C-73.4187 7.30933 -72.896 7.61333 -72.512 8.072C-72.1173 8.52 -71.92 9.10667 -71.92 9.832C-71.92 10.3013 -71.9947 10.7333 -72.144 11.128C-72.2933 11.512 -72.528 11.8427 -72.848 12.12C-73.1573 12.3973 -73.5573 12.616 -74.048 12.776C-74.5387 12.9253 -75.1307 13 -75.824 13H-80.56V1.8ZM-76.032 11.336C-75.2 11.336 -74.6293 11.2027 -74.32 10.936C-74 10.6693 -73.84 10.2587 -73.84 9.704C-73.84 9.43733 -73.8773 9.19733 -73.952 8.984C-74.0267 8.77067 -74.1493 8.59467 -74.32 8.456C-74.4907 8.30667 -74.72 8.19467 -75.008 8.12C-75.2853 8.04533 -75.632 8.008 -76.048 8.008H-78.64V11.336H-76.032ZM-76.32 6.472C-75.5733 6.472 -75.056 6.33333 -74.768 6.056C-74.4693 5.77867 -74.32 5.40533 -74.32 4.936C-74.32 4.456 -74.464 4.09333 -74.752 3.848C-75.04 3.592 -75.5627 3.464 -76.32 3.464H-78.64V6.472H-76.32ZM-66.5631 13.176C-67.1391 13.176 -67.6725 13.0907 -68.1631 12.92C-68.6431 12.7387 -69.0645 12.4667 -69.4271 12.104C-69.7791 11.7413 -70.0565 11.288 -70.2591 10.744C-70.4618 10.2 -70.5631 9.56533 -70.5631 8.84V8.52C-70.5631 7.83733 -70.4565 7.23467 -70.2431 6.712C-70.0298 6.18933 -69.7418 5.752 -69.3791 5.4C-69.0058 5.048 -68.5791 4.78667 -68.0991 4.616C-67.6085 4.43467 -67.0965 4.344 -66.5631 4.344C-66.0085 4.344 -65.5178 4.41867 -65.0911 4.568C-64.6538 4.71733 -64.2858 4.92533 -63.9871 5.192C-63.6778 5.448 -63.4325 5.752 -63.2511 6.104C-63.0698 6.456 -62.9471 6.83467 -62.8831 7.24H-64.6751C-64.7818 6.84533 -64.9738 6.52 -65.2511 6.264C-65.5285 6.008 -65.9658 5.88 -66.5631 5.88C-66.8618 5.88 -67.1445 5.93333 -67.4111 6.04C-67.6778 6.136 -67.9125 6.29067 -68.1151 6.504C-68.3178 6.71733 -68.4778 6.99467 -68.5951 7.336C-68.7125 7.66667 -68.7711 8.06133 -68.7711 8.52V8.84C-68.7711 9.34133 -68.7125 9.77333 -68.5951 10.136C-68.4778 10.488 -68.3178 10.776 -68.1151 11C-67.9125 11.224 -67.6778 11.3893 -67.4111 11.496C-67.1445 11.592 -66.8618 11.64 -66.5631 11.64C-65.5711 11.64 -64.9418 11.1867 -64.6751 10.28H-62.8831C-62.9685 10.728 -63.1178 11.1333 -63.3311 11.496C-63.5338 11.848 -63.7951 12.152 -64.1151 12.408C-64.4351 12.6533 -64.8031 12.8453 -65.2191 12.984C-65.6351 13.112 -66.0831 13.176 -66.5631 13.176ZM-57.5281 13.176C-58.0935 13.176 -58.6268 13.0907 -59.1281 12.92C-59.6295 12.7387 -60.0721 12.472 -60.4561 12.12C-60.8295 11.7573 -61.1281 11.304 -61.3521 10.76C-61.5761 10.216 -61.6881 9.576 -61.6881 8.84V8.52C-61.6881 7.816 -61.5815 7.20267 -61.3681 6.68C-61.1548 6.15733 -60.8668 5.72533 -60.5041 5.384C-60.1308 5.032 -59.7041 4.77067 -59.2241 4.6C-58.7441 4.42933 -58.2321 4.344 -57.6881 4.344C-56.3975 4.344 -55.4108 4.69067 -54.7281 5.384C-54.0348 6.07733 -53.6881 7.06933 -53.6881 8.36V9.256H-59.8961C-59.8855 9.69333 -59.8161 10.0667 -59.6881 10.376C-59.5495 10.6747 -59.3735 10.92 -59.1601 11.112C-58.9361 11.2933 -58.6855 11.4267 -58.4081 11.512C-58.1201 11.5973 -57.8268 11.64 -57.5281 11.64C-56.9201 11.64 -56.4775 11.544 -56.2001 11.352C-55.9121 11.16 -55.7148 10.9093 -55.6081 10.6H-53.8481C-54.0188 11.4427 -54.4401 12.0827 -55.1121 12.52C-55.7735 12.9573 -56.5788 13.176 -57.5281 13.176ZM-57.6081 5.88C-57.9068 5.88 -58.1948 5.91733 -58.4721 5.992C-58.7388 6.06667 -58.9788 6.18933 -59.1921 6.36C-59.3948 6.52 -59.5601 6.73333 -59.6881 7C-59.8161 7.256 -59.8855 7.57067 -59.8961 7.944H-55.4481C-55.4588 7.54933 -55.5228 7.21867 -55.6401 6.952C-55.7468 6.68533 -55.8961 6.472 -56.0881 6.312C-56.2801 6.152 -56.5095 6.04 -56.7761 5.976C-57.0321 5.912 -57.3095 5.88 -57.6081 5.88ZM-44.8069 13.176C-45.7989 13.176 -46.6202 12.92 -47.2709 12.408C-47.9215 11.8853 -48.3269 11.176 -48.4869 10.28H-46.6949C-46.4282 11.1867 -45.7989 11.64 -44.8069 11.64C-44.2309 11.64 -43.7455 11.4693 -43.3509 11.128C-42.9562 10.7867 -42.7162 10.216 -42.6309 9.416H-45.7669V7.944H-42.6309C-42.7162 7.22933 -42.9615 6.70667 -43.3669 6.376C-43.7722 6.04533 -44.2522 5.88 -44.8069 5.88C-45.4042 5.88 -45.8415 6.008 -46.1189 6.264C-46.3962 6.52 -46.5882 6.84533 -46.6949 7.24H-48.4869C-48.4229 6.83467 -48.3002 6.456 -48.1189 6.104C-47.9375 5.752 -47.6975 5.448 -47.3989 5.192C-47.0895 4.92533 -46.7215 4.71733 -46.2949 4.568C-45.8682 4.41867 -45.3722 4.344 -44.8069 4.344C-44.2522 4.344 -43.7349 4.43467 -43.2549 4.616C-42.7642 4.78667 -42.3375 5.048 -41.9749 5.4C-41.6122 5.752 -41.3295 6.18933 -41.1269 6.712C-40.9135 7.23467 -40.8069 7.83733 -40.8069 8.52V8.84C-40.8069 9.56533 -40.9082 10.2 -41.1109 10.744C-41.3029 11.288 -41.5749 11.7413 -41.9269 12.104C-42.2789 12.4667 -42.7002 12.7387 -43.1909 12.92C-43.6815 13.0907 -44.2202 13.176 -44.8069 13.176ZM-37.2081 6.024H-40.0081V4.52H-32.6481V6.024H-35.4481V13H-37.2081V6.024ZM-29.2125 13.176C-29.6712 13.176 -30.0818 13.112 -30.4445 12.984C-30.7965 12.8453 -31.0952 12.6587 -31.3405 12.424C-31.5858 12.1787 -31.7725 11.896 -31.9005 11.576C-32.0285 11.256 -32.0925 10.904 -32.0925 10.52C-32.0925 9.67733 -31.8418 9.05333 -31.3405 8.648C-30.8392 8.232 -30.1032 8.024 -29.1325 8.024H-26.4925V7.56C-26.4925 6.92 -26.6365 6.48267 -26.9245 6.248C-27.2018 6.00267 -27.6445 5.88 -28.2525 5.88C-28.7965 5.88 -29.1965 5.96533 -29.4525 6.136C-29.7085 6.30667 -29.8578 6.54133 -29.9005 6.84H-31.6125C-31.5912 6.47733 -31.5005 6.14667 -31.3405 5.848C-31.1698 5.53867 -30.9405 5.272 -30.6525 5.048C-30.3538 4.824 -29.9965 4.65333 -29.5805 4.536C-29.1645 4.408 -28.6952 4.344 -28.1725 4.344C-27.6498 4.344 -27.1805 4.40267 -26.7645 4.52C-26.3378 4.63733 -25.9752 4.824 -25.6765 5.08C-25.3778 5.32533 -25.1485 5.64533 -24.9885 6.04C-24.8178 6.43467 -24.7325 6.90933 -24.7325 7.464V10.84C-24.7325 11.288 -24.7272 11.6827 -24.7165 12.024C-24.7058 12.3547 -24.6792 12.68 -24.6365 13H-26.2365C-26.2685 12.7547 -26.2952 12.5467 -26.3165 12.376C-26.3272 12.2053 -26.3325 11.992 -26.3325 11.736C-26.5352 12.1307 -26.8872 12.472 -27.3885 12.76C-27.8792 13.0373 -28.4872 13.176 -29.2125 13.176ZM-28.7325 11.64C-28.4338 11.64 -28.1512 11.6027 -27.8845 11.528C-27.6072 11.4427 -27.3672 11.3253 -27.1645 11.176C-26.9618 11.016 -26.8018 10.824 -26.6845 10.6C-26.5565 10.3653 -26.4925 10.0987 -26.4925 9.8V9.336H-28.8125C-29.2605 9.336 -29.6232 9.432 -29.9005 9.624C-30.1672 9.816 -30.3005 10.0987 -30.3005 10.472C-30.3005 10.824 -30.1778 11.1067 -29.9325 11.32C-29.6765 11.5333 -29.2765 11.64 -28.7325 11.64ZM-22.5675 4.52H-15.2075V13H-16.9675V6.024H-20.8075V13H-22.5675V4.52ZM-12.9737 4.52H-11.2137V7.496H-9.61375C-8.52575 7.496 -7.72042 7.73067 -7.19775 8.2C-6.67508 8.65867 -6.41375 9.34133 -6.41375 10.248C-6.41375 11.1013 -6.66975 11.7733 -7.18175 12.264C-7.69375 12.7547 -8.50442 13 -9.61375 13H-12.9737V4.52ZM-9.77375 11.496C-9.18708 11.496 -8.77642 11.3947 -8.54175 11.192C-8.29642 10.9787 -8.17375 10.664 -8.17375 10.248C-8.17375 9.832 -8.29642 9.52267 -8.54175 9.32C-8.77642 9.10667 -9.18708 9 -9.77375 9H-11.2137V11.496H-9.77375ZM-5.29375 4.52H-3.53375V13H-5.29375V4.52ZM10.2018 8.232H1.99375V6.568H10.2018L6.23375 2.6H8.56975L13.3698 7.4L8.56975 12.2H6.23375L10.2018 8.232Z" fill="#396084"/>
</g>
<defs>
<clipPath id="clip0_4905_198">
<rect width="14" height="15" fill="white"/>
</clipPath>
</defs>
</svg>
