<svg width="63" height="95" viewBox="0 0 63 95" fill="none" xmlns="http://www.w3.org/2000/svg">
<path fill-rule="evenodd" clip-rule="evenodd" d="M63.0007 32.7854C59.6852 36.1905 57.3898 34.9721 57.3898 34.9721C63.1556 32.2061 62.4036 22.0839 61.5539 20.6213C56.2327 30.0421 45.6617 30.4227 45.6617 30.4227C60.927 23.3861 59.0416 9.80497 58.3444 7.17898C55.8382 14.0528 42.1377 19.8266 42.1377 19.8266C54.4831 12.1832 50.4061 0 50.4061 0C45.937 15.1443 14.2148 11.4076 4.1456 21.9271C-2.01104 27.689 -1.95621 37.8901 8.72434 48.3821C19.219 58.6922 24.1481 77.9227 24.3829 81.4296H10.1735V95.0012H57.4685V81.4296H40.76C45.595 75.4308 61.7374 54.2684 63.0018 32.7866L63.0007 32.7854Z" fill="#0F70CA"/>
</svg>
