<svg width="19" height="18" viewBox="0 0 19 18" fill="none" xmlns="http://www.w3.org/2000/svg">
<g clip-path="url(#clip0_3044_3681)">
<path d="M17.6107 6.39119C17.6055 6.39725 17.6002 6.40295 17.5946 6.40865L7.73062 16.4069C6.88689 17.2621 5.88601 17.7093 4.8229 17.7093C4.74204 17.7093 4.66119 17.7068 4.57963 17.7014C3.56398 17.6369 2.57892 17.1698 1.8055 16.3858C1.03243 15.6019 0.571541 14.6034 0.507909 13.5739C0.435489 12.4048 0.877394 11.3005 1.78511 10.3804L11.6164 0.415004C11.7812 0.24788 12.0484 0.248237 12.213 0.415004C12.3778 0.582128 12.3778 0.85259 12.213 1.01971L2.3817 10.9851C0.76349 12.6254 1.25813 14.6212 2.40244 15.7811C3.54676 16.941 5.51582 17.4424 7.13403 15.8021L16.9892 5.81285C18.0716 4.57564 17.7053 3.15918 16.8602 2.30254C16.015 1.4459 14.6176 1.07459 13.397 2.17176L7.10063 8.55454C6.26885 9.39764 6.50721 10.394 7.11258 11.0072C7.71761 11.6205 8.70056 11.8621 9.53234 11.019L14.9818 5.49535C15.1467 5.32823 15.4135 5.32823 15.5784 5.49535C15.7433 5.66248 15.7433 5.93294 15.5784 6.10006L10.1289 11.6237C8.947 12.8217 7.41668 12.5245 6.51599 11.6119C5.61531 10.6994 5.32211 9.14784 6.50404 7.94983L12.8095 1.5585C12.8152 1.5528 12.8208 1.54745 12.8268 1.54211C13.5562 0.88181 14.414 0.573932 15.3077 0.652683C16.0973 0.72217 16.8605 1.09348 17.4571 1.69783C18.0537 2.30254 18.42 3.07616 18.4882 3.8765C18.5659 4.78231 18.2625 5.65179 17.6111 6.39119H17.6107Z" fill="#111111" fill-opacity="0.5"/>
</g>
<defs>
<clipPath id="clip0_3044_3681">
<rect width="18" height="17.4194" fill="white" transform="translate(0.5 0.290283)"/>
</clipPath>
</defs>
</svg>
