<svg width="26" height="26" viewBox="0 0 26 26" fill="none" xmlns="http://www.w3.org/2000/svg">
<g clip-path="url(#clip0_3430_103)">
<path d="M24.3638 13.0003C23.7363 13.0003 23.2276 13.509 23.2276 14.1365V20.9547C23.2276 22.2097 22.2102 23.2276 20.9547 23.2276H5.04531C3.79033 23.2276 2.77239 22.2102 2.77239 20.9547V5.04531C2.77239 3.79033 3.7898 2.77239 5.04531 2.77239H11.8635C12.491 2.77239 12.9997 2.26368 12.9997 1.63619C12.9997 1.0087 12.4916 0.5 11.8635 0.5H5.04531C2.53535 0.5 0.5 2.53535 0.5 5.04531V20.9547C0.5 23.4652 2.53535 25.5 5.04531 25.5H20.9547C23.4652 25.5 25.5 23.4647 25.5 20.9547V14.1365C25.5 13.509 24.9913 13.0003 24.3638 13.0003Z" fill="#0F70CA"/>
<path d="M5.32866 16.4094V17.5456C5.32866 17.9072 5.55611 18.2295 5.89702 18.3499C5.98864 18.3819 6.08452 18.3978 6.18094 18.3978C6.43982 18.3978 6.68485 18.2801 6.84678 18.0788L8.32388 16.2357C10.078 14.0272 12.7376 12.7318 15.5581 12.7131V16.4099C15.5571 16.8797 15.9374 17.2616 16.4072 17.2627C16.6118 17.2627 16.8099 17.1897 16.9649 17.056L24.9194 10.2378C25.0994 10.0833 25.207 9.86014 25.2161 9.6231C25.2251 9.38606 25.134 9.15541 24.9652 8.98922L17.0102 1.03426C16.6773 0.70187 16.1377 0.70187 15.8048 1.03479C15.6455 1.19459 15.5555 1.41086 15.5555 1.63618V5.36117C9.78714 5.81395 5.33505 10.6229 5.32812 16.4088L5.32866 16.4094Z" fill="#0F70CA"/>
</g>
<defs>
<clipPath id="clip0_3430_103">
<rect width="25" height="25" fill="white" transform="translate(0.5 0.5)"/>
</clipPath>
</defs>
</svg>
