<svg width="16" height="28" viewBox="0 0 16 28" fill="none" xmlns="http://www.w3.org/2000/svg">
<g clip-path="url(#clip0_4904_52)">
<path d="M8.11602 0C4.18477 0 0.999023 3.24898 0.999023 7.25595C0.999023 11.2629 4.18477 14.5119 8.11602 14.5119C12.0473 14.5119 15.233 11.2629 15.233 7.25595C15.233 3.24898 12.0463 0 8.11602 0ZM8.11602 10.2557C6.49158 10.2557 5.17369 8.91315 5.17369 7.25595C5.17369 5.59875 6.49056 4.25617 8.11602 4.25617C9.74148 4.25617 11.0583 5.59875 11.0583 7.25595C11.0583 8.91315 9.74148 10.2557 8.11602 10.2557Z" fill="white" fill-opacity="0.5"/>
<path d="M10.6286 20.2851C13.4782 19.6932 15.1852 18.3174 15.2758 18.2437C16.1099 17.5615 16.2434 16.3207 15.5752 15.4703C14.9071 14.6199 13.6891 14.4839 12.8549 15.165C12.8376 15.1796 11.0166 16.6042 8.02032 16.6062C5.02401 16.6042 3.1643 15.1796 3.14699 15.165C2.31287 14.4839 1.09479 14.6199 0.426681 15.4703C-0.242447 16.3207 -0.10801 17.5626 0.726108 18.2437C0.81777 18.3185 2.596 19.7296 5.52407 20.3079L1.44107 24.6576C0.699628 25.4415 0.721016 26.6906 1.49097 27.4476C1.86678 27.8162 2.35055 28 2.83432 28C3.31809 28 3.84769 27.7975 4.22757 27.3967L8.02032 23.2776L12.196 27.4227C12.9527 28.1931 14.1779 28.1911 14.9326 27.4206C15.6873 26.6491 15.6863 25.4 14.9306 24.6306L10.6296 20.2851H10.6286Z" fill="white" fill-opacity="0.5"/>
</g>
<defs>
<clipPath id="clip0_4904_52">
<rect width="16" height="28" fill="white"/>
</clipPath>
</defs>
</svg>
