<svg width="23" height="32" viewBox="0 0 23 32" fill="none" xmlns="http://www.w3.org/2000/svg">
<g clip-path="url(#clip0_3058_20661)">
<path d="M6.33416 20.4954C5.9197 20.4954 5.54122 20.3194 5.23937 19.9728C4.69823 19.3555 4.67711 18.618 5.18463 18.0006C5.60769 17.4849 6.41939 17.0244 7.5963 16.6327C8.00606 16.4957 8.45649 16.3695 8.92568 16.2555C9.21424 15.7322 9.49654 15.1623 9.76085 14.564C10.0025 14.017 10.2144 13.4769 10.3919 12.9574C9.72879 11.8588 9.12822 10.5858 9.14699 9.58056C9.16263 8.70536 9.68031 8.11934 10.5319 8.01377C11.2967 7.91737 11.9004 8.29454 12.1467 9.02056C12.4752 9.98756 12.1647 11.4985 11.7557 12.7983C12.0881 13.3124 12.4712 13.8457 12.8943 14.3781C13.2478 14.8234 13.6098 15.2418 13.968 15.6228C15.4131 15.6037 16.7832 15.7483 17.5996 16.1783C18.3354 16.5646 18.6412 17.2065 18.4175 17.8973C18.1532 18.7128 17.4987 19.1213 16.6651 18.9867C15.6211 18.8199 14.4098 17.8307 13.4503 16.8653C12.7692 16.8936 12.0427 16.9578 11.3006 17.0596C10.7595 17.1361 10.2387 17.2241 9.74991 17.3266C9.56927 17.6326 9.38628 17.9218 9.20251 18.1934C8.51123 19.2124 7.85044 19.9002 7.23971 20.2383C6.96523 20.399 6.65399 20.4877 6.33416 20.4954ZM7.96227 17.8001C7.07627 18.097 6.43191 18.4336 6.15821 18.7671C6.04247 18.9079 6.0151 18.9798 6.18792 19.1764C6.26612 19.2621 6.3279 19.3363 6.62271 19.1764C7.00902 18.9576 7.4743 18.4726 7.95914 17.8001H7.96227ZM15.313 16.8897C15.9386 17.3977 16.486 17.7198 16.877 17.7818C17.0545 17.8101 17.1437 17.8116 17.2352 17.5301C17.2586 17.4589 17.2782 17.397 17.0185 17.26C16.6565 17.0741 16.0575 16.9494 15.3083 16.8897H15.313ZM11.2466 14.2488C11.1145 14.5839 10.9964 14.8609 10.9127 15.0491C10.779 15.3551 10.639 15.6511 10.4959 15.9426C10.7039 15.9082 10.9143 15.8768 11.127 15.847C11.5297 15.7919 11.9536 15.7437 12.3852 15.707C12.1866 15.4736 12.0247 15.2747 11.9113 15.1324C11.7526 14.9374 11.5149 14.6298 11.2427 14.2488H11.2466ZM10.693 9.23094C10.51 9.25389 10.4068 9.2822 10.4005 9.60505C10.3935 10.0059 10.5663 10.5766 10.8815 11.2453C11.0535 10.4343 11.0895 9.7833 10.9596 9.4092C10.8932 9.21488 10.8416 9.21182 10.6899 9.23094H10.693Z" fill="#0F70CA"/>
<path d="M5.88992 23.2633C5.88054 22.9733 6.11357 22.7308 6.40995 22.7216C6.42246 22.7216 6.43419 22.7216 6.4467 22.7216H7.81441C8.6746 22.7216 9.491 23.2663 9.491 24.3489C9.491 25.2837 8.90685 25.9692 7.84882 25.9692H7.00348V26.9714C7.00348 27.3539 6.76888 27.5498 6.4467 27.5498C6.12452 27.5498 5.88992 27.3547 5.88992 26.9714V23.2633ZM7.00348 24.9984H7.60092C8.07559 24.9984 8.33678 24.6824 8.33678 24.3458C8.33678 23.9158 8.04119 23.6871 7.60092 23.6871H7.00348V24.9984Z" fill="#0F70CA"/>
<path d="M10.0408 23.2633C10.0298 22.9733 10.2613 22.7293 10.5577 22.7186C10.571 22.7186 10.5843 22.7186 10.5976 22.7186H11.9269C13.3838 22.7186 14.2088 23.8485 14.2088 25.0787C14.2088 26.6455 13.1367 27.5062 11.9269 27.5062H10.5976C10.3012 27.5169 10.0517 27.2904 10.0408 27.0005C10.0408 26.9875 10.0408 26.9745 10.0408 26.9615V23.2633ZM11.1543 26.4979H11.7455C12.6112 26.4979 13.017 25.9126 13.017 25.0787C13.017 24.2448 12.6042 23.7277 11.7932 23.7277H11.1543V26.4979Z" fill="#0F70CA"/>
<path d="M14.8313 23.2633C14.8204 22.9733 15.0518 22.7293 15.3482 22.7186C15.3615 22.7186 15.374 22.7186 15.3873 22.7186H17.092C17.4424 22.7186 17.6488 22.9205 17.6488 23.2227C17.6488 23.5249 17.4424 23.7277 17.092 23.7277H15.9441V24.5814H16.9482C17.2985 24.5814 17.5042 24.7765 17.5042 25.0856C17.5042 25.3947 17.2985 25.5898 16.9482 25.5898H15.9441V26.9668C15.9441 27.3493 15.7095 27.5452 15.3873 27.5452C15.0651 27.5452 14.8313 27.3501 14.8313 26.9668V23.2633Z" fill="#0F70CA"/>
<path d="M22.3768 8.45445C22.0311 8.45445 21.7512 8.72833 21.7512 9.06648V29.5121C21.7504 30.2114 21.1709 30.7783 20.4562 30.779H2.54852C1.83299 30.779 1.25197 30.2121 1.25119 29.5121V2.50628C1.25041 1.80627 1.82987 1.23785 2.54539 1.23632H15.593V4.985C15.5945 6.21901 16.6166 7.21815 17.8779 7.21968H22.3455C22.6911 7.21968 22.9711 6.9458 22.9718 6.60841C22.9718 6.44546 22.9062 6.29016 22.7881 6.17464L16.6612 0.177507C16.5149 0.0352101 16.3061 -0.026758 16.1036 0.0107289L2.54539 0.012259C1.14015 0.0145541 0.00156399 1.12845 0 2.50322V29.5091C0.00156399 30.8838 1.14093 31.9985 2.54617 32H20.4538C21.8591 31.9985 22.9984 30.8838 23 29.5091V9.06648C23 8.7291 22.7216 8.45598 22.3768 8.45445ZM17.8779 5.99256C17.3071 5.99256 16.8449 5.54042 16.8441 4.98194V2.08857L20.8323 5.99026L17.8779 5.99256Z" fill="#0F70CA"/>
</g>
<defs>
<clipPath id="clip0_3058_20661">
<rect width="23" height="32" fill="white"/>
</clipPath>
</defs>
</svg>
