<svg width="91" height="80" viewBox="0 0 91 80" fill="none" xmlns="http://www.w3.org/2000/svg">
<g clip-path="url(#clip0_4906_278)">
<path d="M61.1779 33.2376L53.4322 29.7494C52.8848 29.5027 52.5311 28.9517 52.5311 28.3448V26.1892C55.1331 24.0895 56.8056 20.8534 56.8056 17.2284V14.194C57.6623 13.715 58.231 12.7858 58.231 11.7485V11.455C58.231 5.13772 53.1585 0 46.9253 0H44.0763C37.8413 0 32.7706 5.13952 32.7706 11.455V14.1274C32.7706 15.0404 33.158 15.867 33.8352 16.3964C33.9507 16.4864 34.0698 16.5657 34.196 16.6341V17.2302C34.196 20.8552 35.8685 24.0895 38.4705 26.191V28.3466C38.4705 28.9535 38.1168 29.5045 37.5694 29.7512L29.8237 33.2394C27.2875 34.3811 25.647 36.9383 25.647 39.7493V57.6494C25.647 58.3949 26.2442 59 26.98 59C27.7158 59 28.313 58.3949 28.313 57.6494V39.7493C28.313 39.5926 28.3237 39.4378 28.3396 39.2847L31.9086 42.9007C32.4631 43.4644 32.7706 44.2117 32.7706 45.0077V57.6494C32.7706 58.3949 33.3678 59 34.1036 59C34.8394 59 35.4366 58.3949 35.4366 57.6494V45.0077C35.4366 43.4896 34.8536 42.0634 33.7943 40.9901L29.5394 36.6789C29.9233 36.2756 30.3818 35.9424 30.9061 35.7065L38.5221 32.2778L44.1687 37.9989V57.6494C44.1687 58.3949 44.7659 59 45.5017 59C46.2375 59 46.8347 58.3949 46.8347 57.6494V37.9989L52.4813 32.2778L60.0972 35.7065C60.6198 35.9424 61.0801 36.2756 61.464 36.6789L57.209 40.9901C56.1497 42.0634 55.5668 43.4896 55.5668 45.0077V57.6494C55.5668 58.3949 56.164 59 56.8998 59C57.6356 59 58.2328 58.3949 58.2328 57.6494V45.0077C58.2328 44.2117 58.5385 43.4626 59.0948 42.9007L62.6637 39.2847C62.6797 39.4378 62.6904 39.5926 62.6904 39.7493V57.6494C62.6904 58.3949 63.2876 59 64.0234 59C64.7592 59 65.3564 58.3949 65.3564 57.6494V39.7493C65.3564 36.9365 63.7159 34.3811 61.1796 33.2394L61.1779 33.2376ZM45.4999 35.53L40.5447 30.5094C40.9215 29.8665 41.1347 29.1245 41.1347 28.3466V27.7973C42.4784 28.37 43.9536 28.6869 45.5017 28.6869C47.0497 28.6869 48.5232 28.37 49.8668 27.7973V28.3466C49.8668 29.1245 50.0801 29.8665 50.4569 30.5094L45.5017 35.53H45.4999ZM45.4999 25.9839C40.7366 25.9839 36.8602 22.0563 36.8602 17.2302V16.6233C37.692 16.2901 38.5043 15.7571 39.281 15.0314C39.8213 14.5253 39.8551 13.6718 39.3556 13.1225C38.8562 12.5751 38.0137 12.5409 37.4716 13.0451C36.8051 13.6682 36.1386 14.0715 35.4917 14.2426C35.4757 14.2462 35.465 14.248 35.4561 14.2498C35.4472 14.2318 35.433 14.1922 35.433 14.1274V11.455C35.433 6.62879 39.3094 2.70122 44.0727 2.70122H46.9218C51.6868 2.70122 55.5614 6.62879 55.5614 11.455V11.7485C55.5614 11.7917 55.5348 11.8295 55.501 11.8367C47.519 13.4341 43.5146 10.4231 42.1638 9.05448C41.6431 8.52684 40.7988 8.52684 40.2781 9.05448C39.7573 9.58212 39.7573 10.4375 40.2781 10.9651C44.4175 15.1592 50.4569 15.2349 54.1342 14.7865V17.2266C54.1342 22.0545 50.2579 25.9803 45.4946 25.9803L45.4999 25.9839Z" fill="#396084"/>
<path d="M24.0368 25.8921V23.0036C24.0368 19.4794 22.2292 16.3784 19.5063 14.5938C19.6752 14.0463 19.7623 13.4755 19.7623 12.8992C19.7623 9.7658 17.2473 7.21765 14.1548 7.21765C11.0622 7.21765 8.54725 9.7658 8.54725 12.8992C8.54725 13.4827 8.63434 14.0481 8.80318 14.5938C6.08029 16.3784 4.27273 19.4794 4.27273 23.0036V25.8903C4.27273 29.3028 5.96654 32.3192 8.54725 34.1272V37.0967C8.54725 37.682 8.22555 38.2096 7.70834 38.4707L3.09791 40.8064C1.18727 41.777 0 43.7237 0 45.8901V57.6494C0 58.3949 0.597188 59 1.33301 59C2.06883 59 2.66602 58.3949 2.66602 57.6494V46.4753L4.83793 48.6759C5.39246 49.2396 5.69994 49.9869 5.69994 50.7829V57.6512C5.69994 58.3967 6.29713 59.0018 7.03295 59.0018C7.76877 59.0018 8.36596 58.3967 8.36596 57.6512V50.7829C8.36596 49.2648 7.78299 47.8386 6.72369 46.7653L3.70043 43.7021C3.68621 43.6877 3.67021 43.6751 3.656 43.6607C3.84617 43.4914 4.05768 43.3437 4.29229 43.2249L8.90271 40.8892C9.1391 40.7686 9.35949 40.6281 9.56389 40.4714L12.8235 43.7741V57.6494C12.8235 58.3949 13.4207 59 14.1565 59C14.8924 59 15.4896 58.3949 15.4896 57.6494V43.7723L18.7492 40.4696C18.9536 40.6263 19.174 40.7686 19.4104 40.8874L20.6812 41.5321C20.8731 41.6294 21.0757 41.6744 21.2766 41.6744C21.7654 41.6744 22.2363 41.4007 22.4692 40.927C22.798 40.2607 22.5314 39.4486 21.8738 39.1154L20.603 38.4707C20.0858 38.2096 19.7641 37.682 19.7641 37.0967V34.1272C22.3448 32.3192 24.0386 29.301 24.0386 25.8903L24.0368 25.8921ZM14.1548 9.91887C15.7757 9.91887 17.0963 11.2551 17.0963 12.8992C17.0963 13.0811 17.0803 13.2576 17.0501 13.4323C16.1347 13.1477 15.1625 12.9929 14.1548 12.9929C13.147 12.9929 12.1784 13.1459 11.2648 13.4305C11.2346 13.2576 11.215 13.0793 11.215 12.8992C11.215 11.2551 12.5338 9.91887 14.1565 9.91887H14.1548ZM14.1548 15.6941C18.1342 15.6941 21.3708 18.9734 21.3708 23.0054V23.4952C15.8219 25.2168 12.5143 20.9398 12.3721 20.7526C12.1393 20.4392 11.7856 20.2429 11.3999 20.2159C11.0142 20.1889 10.6356 20.3312 10.3637 20.6085C9.09111 21.8979 7.8452 22.5191 6.94408 22.8199C7.04361 18.8743 10.2375 15.6959 14.1548 15.6959V15.6941ZM14.1548 41.3052L11.0746 38.1844C11.1653 37.8369 11.2133 37.4731 11.2133 37.1003V35.4526C12.1428 35.7461 13.131 35.9064 14.1548 35.9064C15.1785 35.9064 16.1667 35.7479 17.0963 35.4526V37.1003C17.0963 37.4731 17.146 37.8369 17.2349 38.1844L14.1548 41.3052ZM14.1548 33.2034C10.1753 33.2034 6.93875 29.9241 6.93875 25.8921V25.6129C8.0016 25.3662 9.57811 24.79 11.2221 23.4502C11.8033 24.0066 12.6351 24.6891 13.6944 25.2726C14.9475 25.9641 16.6768 26.6052 18.7883 26.6052C19.5917 26.6052 20.4501 26.5115 21.3583 26.2937C21.1522 30.1384 17.9992 33.2034 14.1548 33.2034Z" fill="#396084"/>
<path d="M87.9004 37.9215L80.4409 34.1416C79.9237 33.8805 79.602 33.3529 79.602 32.7676V30.8533C81.3492 29.283 82.4511 26.9942 82.4511 24.4478V22.9099C82.4813 22.9099 82.5115 22.9099 82.5435 22.9099C83.2794 22.9099 83.8765 22.3049 83.8765 21.5593V18.6726C83.8765 13.9473 80.0819 10.1044 75.4199 10.1044H72.5709C67.9071 10.1044 64.1143 13.9491 64.1143 18.6726V21.5593C64.1143 22.3049 64.7114 22.9099 65.4473 22.9099C65.4579 22.9099 65.4899 22.9099 65.5397 22.9081V24.446C65.5397 26.9924 66.6434 29.2812 68.3888 30.8533V32.7676C68.3888 33.3529 68.0671 33.8805 67.5499 34.1416C66.8922 34.4748 66.6239 35.2869 66.9544 35.9532C67.1873 36.4268 67.6583 36.7006 68.1471 36.7006C68.3479 36.7006 68.5505 36.6537 68.7425 36.5583C68.9788 36.4376 69.1992 36.2972 69.4036 36.1405L72.6633 39.4432V57.6494C72.6633 58.3949 73.2605 59 73.9963 59C74.7321 59 75.3293 58.3949 75.3293 57.6494V39.4414L78.5889 36.1387C78.7933 36.2954 79.0137 36.4376 79.2501 36.5565L86.4679 40.2139L84.2782 42.4325C83.2189 43.5058 82.636 44.9321 82.636 46.4502V57.6476C82.636 58.3931 83.2331 58.9982 83.969 58.9982C84.7048 58.9982 85.302 58.3931 85.302 57.6476V46.4502C85.302 45.6542 85.6077 44.9051 86.164 44.3432L88.2381 42.2417C88.3003 42.4866 88.3359 42.7405 88.3359 43.0016V57.6476C88.3359 58.3931 88.9331 58.9982 89.6689 58.9982C90.4047 58.9982 91.0019 58.3931 91.0019 57.6476V43.0016C91.0019 40.8352 89.8146 38.8885 87.9022 37.9197L87.9004 37.9215ZM66.7785 19.9314V18.6726C66.7785 15.4384 69.377 12.8056 72.5691 12.8056H75.4182C78.6103 12.8056 81.2087 15.4384 81.2087 18.6726V20.1727C75.4146 19.8558 71.9168 17.5705 71.883 17.5489C71.6573 17.3959 71.3996 17.322 71.1437 17.322C70.7988 17.322 70.4576 17.4571 70.1999 17.7182C68.9237 19.0112 67.6743 19.6325 66.7767 19.9314H66.7785ZM73.9945 36.9725L70.9144 33.8517C71.005 33.5041 71.053 33.1404 71.053 32.7676V32.4795C71.9701 32.8252 72.9601 33.0143 73.9945 33.0143C75.0289 33.0143 76.0189 32.8252 76.936 32.4795V32.7676C76.936 33.1404 76.9858 33.5023 77.0746 33.8517L73.9945 36.9725ZM73.9945 30.3149C70.8024 30.3149 68.2039 27.6821 68.2039 24.4478V22.2707C69.137 21.8925 70.2248 21.291 71.332 20.3366C72.7326 21.0749 75.6599 22.3499 79.7851 22.7713V24.4478C79.7851 27.6839 77.1866 30.3149 73.9945 30.3149Z" fill="#396084"/>
</g>
<defs>
<clipPath id="clip0_4906_278">
<rect width="91" height="59" fill="white"/>
</clipPath>
</defs>
</svg>
