<svg width="28" height="28" viewBox="0 0 28 28" fill="none" xmlns="http://www.w3.org/2000/svg">
<g clip-path="url(#clip0_4904_50)">
<path fill-rule="evenodd" clip-rule="evenodd" d="M26.2352 16.7192C26.5746 14.7775 26.7883 13.4854 26.9648 12.385C27.1413 11.2846 27.2804 10.3727 27.3856 9.6526C27.4908 8.93249 27.5621 8.40081 27.6265 7.94653C27.691 7.48889 27.7487 7.10527 27.7996 6.7082C27.8505 6.31113 27.8946 5.89723 27.9286 5.53717C27.9625 5.17374 27.9863 4.8608 27.9964 4.62188C28.0032 4.38633 27.9964 4.22817 27.9829 4.11712C27.9693 4.00608 27.9557 3.94551 27.932 3.87148C27.9082 3.79745 27.8777 3.70659 27.8336 3.62246C27.7894 3.53834 27.7351 3.45758 27.6605 3.38355C27.5858 3.30615 27.4908 3.23549 27.372 3.17491C27.2533 3.11434 27.1073 3.06387 26.9478 3.03358C26.7883 3.0033 26.6119 2.99657 26.432 3.01003C26.2522 3.02349 26.0723 3.05377 25.8212 3.11434C25.5701 3.17491 25.2477 3.25904 24.8608 3.38355C24.4774 3.50805 24.0294 3.66621 20.2626 5.22085C16.4958 6.7755 9.41009 9.7199 5.86046 11.2039C2.31083 12.6879 2.30404 12.7047 2.19884 12.7518C2.09364 12.7989 1.89342 12.8763 1.65927 12.9806C1.42512 13.0849 1.16042 13.2195 0.939843 13.344C0.719264 13.4719 0.539407 13.5897 0.403666 13.7007C0.267925 13.8118 0.169512 13.9094 0.108429 13.9969C0.0473453 14.081 0.020197 14.155 0.00662293 14.2459C-0.00695118 14.3367 -0.0137382 14.4478 0.0032294 14.5487C0.0168035 14.6497 0.0507388 14.7372 0.101642 14.8179C0.152545 14.8987 0.227202 14.9727 0.325615 15.0501C0.424027 15.1275 0.552981 15.2083 0.719264 15.289C0.88894 15.3698 1.09595 15.4539 1.41833 15.565C1.74072 15.676 2.17509 15.8173 2.75538 15.9923C3.33567 16.1707 4.0585 16.386 4.61164 16.5307C5.16479 16.6754 5.54825 16.7528 5.86385 16.81C6.17945 16.8672 6.42718 16.9042 6.67151 16.9143C6.91245 16.9244 7.15 16.9143 7.38076 16.874C7.61152 16.8369 7.83889 16.773 8.05607 16.7023C8.26986 16.6317 8.47008 16.5476 8.68048 16.4432C8.89088 16.3389 9.10806 16.2111 10.1804 15.5078C11.2528 14.8045 13.1769 13.5258 14.9042 12.3783C16.6349 11.2342 18.1688 10.2247 19.0138 9.67279C19.8588 9.12093 20.0183 9.02671 20.137 8.95268C20.2558 8.87865 20.3339 8.82817 20.4153 8.79452C20.4967 8.76087 20.5782 8.74741 20.6528 8.74068C20.7275 8.73395 20.7954 8.73395 20.8565 8.74741C20.9141 8.76087 20.9651 8.78443 21.0058 8.81471C21.0465 8.845 21.077 8.88538 21.094 8.95604C21.111 9.03007 21.1178 9.13439 21.1076 9.21515C21.0974 9.29591 21.0736 9.34975 20.9379 9.51127C20.8022 9.67616 20.5544 9.94873 19.8282 10.6554C19.102 11.3654 17.9007 12.5095 17.1643 13.2094C16.4279 13.9094 16.1564 14.1617 15.9223 14.3805C15.6847 14.5992 15.4811 14.7843 15.2673 14.9828C15.0535 15.1814 14.8296 15.3933 14.6124 15.5986C14.3952 15.8039 14.1848 15.9991 13.9846 16.1875C13.7843 16.3759 13.5909 16.5577 13.3975 16.7461C13.2041 16.9345 13.0106 17.1297 12.8545 17.2946C12.6984 17.4595 12.5796 17.5974 12.488 17.7186C12.3964 17.8431 12.3319 17.9541 12.2742 18.0753C12.2165 18.1964 12.1656 18.3277 12.1419 18.4421C12.1181 18.5565 12.1249 18.6574 12.1588 18.7853C12.1962 18.9132 12.2607 19.068 12.3421 19.2059C12.4235 19.3439 12.5253 19.465 12.6713 19.603C12.8172 19.741 13.0038 19.8958 13.7368 20.4005C14.4698 20.9053 15.7424 21.76 16.998 22.6012C18.2536 23.4425 19.4923 24.2703 20.2524 24.7784C21.016 25.2865 21.301 25.475 21.5861 25.6163C21.8677 25.7577 22.146 25.8485 22.3326 25.9057C22.5193 25.9629 22.6143 25.9797 22.7772 25.9898C22.9401 25.9999 23.1708 26.0033 23.3405 25.9865C23.5102 25.9696 23.6154 25.9326 23.7342 25.862C23.8529 25.7947 23.9819 25.6971 24.1142 25.5557C24.2466 25.4144 24.3857 25.2293 24.4977 25.0375C24.6131 24.8424 24.7013 24.6405 24.776 24.4386C24.8506 24.2367 24.9049 24.0415 25.1628 22.6484C25.4208 21.2552 25.8857 18.6608 26.2216 16.7192H26.2352Z" fill="white" fill-opacity="0.5"/>
</g>
<defs>
<clipPath id="clip0_4904_50">
<rect width="28" height="28" fill="white"/>
</clipPath>
</defs>
</svg>
