<svg width="92" height="80" viewBox="0 0 92 80" fill="none" xmlns="http://www.w3.org/2000/svg">
<g clip-path="url(#clip0_4906_281)">
<path d="M91.8986 42.1958C91.6024 41.406 90.7213 41.0093 89.93 41.3049L84.374 43.3956L75.5058 18.105L90.7614 12.0046C91.545 11.6898 91.9273 10.8028 91.6119 10.0207C91.2966 9.23859 90.4098 8.86089 89.6242 9.17183L73.0135 15.8159C72.2548 16.1173 71.8706 16.9662 72.1382 17.7349L72.4268 18.559L67.8876 19.8066C67.5856 19.5281 67.2645 19.2572 66.9147 18.9939C66.7408 18.8604 66.5363 18.765 66.3184 18.7192C58.1172 16.9299 47.9341 14.9709 46.0076 15.7625C42.7871 17.0864 36.8641 21.159 33.3264 23.5874L31.7573 24.6556C31.396 24.896 31.1571 25.2813 31.096 25.7124C30.8781 27.2652 30.1518 29.2777 29.3128 31.6087C28.7929 33.0528 28.231 34.6112 27.7112 36.2823C27.5468 36.8164 27.6844 37.3963 28.0724 37.7988C29.7657 39.5481 31.8395 40.4809 33.9896 40.4809C34.2897 40.4809 34.5897 40.4656 34.8917 40.4294C37.2043 40.1489 39.28 38.7965 40.4363 36.8126C41.0823 35.7081 41.7206 34.0542 42.1679 32.6808C43.8249 32.3718 46.6746 31.7537 48.3488 31.3569C49.1707 31.1624 49.6791 30.3402 49.4841 29.5199C49.2911 28.7016 48.4635 28.1827 47.6436 28.3868C45.4418 28.9095 41.7206 29.6935 40.7841 29.8175C40.1821 29.8976 39.6832 30.3249 39.515 30.9048C39.0296 32.5778 38.3186 34.3747 37.793 35.2789C37.1241 36.4234 35.8703 37.238 34.5209 37.4001C33.6188 37.5031 32.2982 37.381 30.924 36.2766C31.3464 34.9947 31.784 33.7834 32.193 32.6445C32.9824 30.4508 33.6762 28.5204 34.0087 26.8188L35.058 26.1054C38.2727 23.8983 44.253 19.7875 47.076 18.6181C48.5017 18.3434 57.4005 19.9115 65.3265 21.6302C65.7049 21.9392 66.0489 22.2597 66.37 22.5821C66.7618 22.9789 67.3333 23.1315 67.8646 22.9827L73.4417 21.449L79.7278 39.3706L77.7477 40.25C77.1724 40.5057 76.815 41.0856 76.8418 41.7151C76.8456 41.7303 76.8838 43.0771 76.3582 44.9045L67.9698 40.3263L54.3769 31.9025C53.6545 31.4599 52.7141 31.6831 52.2726 32.4023C51.8292 33.1233 52.0548 34.06 52.7734 34.5025L66.4331 42.9626L76.4538 48.4354C76.4653 48.4412 76.4767 48.445 76.4882 48.4526C76.492 48.4526 76.4939 48.4564 76.4958 48.4583C77.8146 49.1756 78.3268 50.8752 77.6273 52.1667C76.8838 53.5153 75.3242 54.0323 74.0131 53.3207L63.6809 48.2027C62.9585 47.8422 62.0755 48.115 61.6741 48.8131C61.2727 49.5151 61.4868 50.406 62.1672 50.8485L67.2377 54.1391C68.5011 54.8296 68.8891 56.3004 68.1551 57.6376C67.7882 58.3129 67.1728 58.8165 66.4732 59.0206C66.026 59.1541 65.338 59.2247 64.6021 58.8222L56.6551 54.4882C55.9365 54.0971 55.0459 54.3318 54.6216 55.0261C54.1973 55.7167 54.3827 56.6189 55.0497 57.0825L59.2277 59.982C59.6615 60.6077 59.9425 61.8476 59.4054 62.8319C58.7136 64.0947 56.9896 64.5373 55.6078 63.7876L51.0934 61.4279C50.4914 61.1113 49.6905 61.3001 49.2166 61.7904C48.6757 62.3588 48.6508 63.2401 49.1611 63.8353C49.681 64.44 49.8836 65.678 49.3198 66.7043C48.9471 67.3815 48.3221 67.6867 47.8615 67.8221C47.0664 68.0548 46.1605 67.9557 45.4399 67.5627L44.5588 67.0877C46.2637 65.1191 46.191 62.1242 44.3199 60.2357L43.3299 59.2438C42.1583 58.0592 40.4248 57.6032 38.8232 57.8779C38.8882 56.514 38.4046 55.131 37.3706 54.0876L36.3806 53.0899C35.2071 51.9053 33.4774 51.4494 31.8758 51.7241C31.8796 51.6497 31.8815 51.5772 31.8815 51.5028C31.8872 50.1542 31.3712 48.8875 30.4232 47.9357L29.4294 46.9323C28.1794 45.6771 26.3102 45.2422 24.6321 45.6294C24.6321 45.5932 24.6359 45.5569 24.6359 45.5207C24.6417 44.1682 24.1256 42.9016 23.1777 41.9459L22.1838 40.9444C20.5191 39.2657 17.7325 39.0578 15.7869 40.3149L11.6681 38.2414L17.5414 21.4967L27.2525 23.4119C27.3537 23.4329 27.455 23.4424 27.5525 23.4424C28.2673 23.4424 28.9076 22.9388 29.0471 22.212C29.2115 21.3841 28.6744 20.5848 27.8449 20.4208L18.5601 18.5895L18.8907 17.6472C19.1564 16.888 18.7837 16.0505 18.0402 15.7358L2.31826 9.11842C1.54229 8.79794 0.645917 9.15466 0.315271 9.92914C-0.0115535 10.7074 0.351584 11.6021 1.13137 11.9283L15.5288 17.9829L6.63005 43.3537L2.01628 41.8123C1.2212 41.5472 0.349673 41.9745 0.0801866 42.7738C-0.1893 43.573 0.242643 44.4372 1.04346 44.7061L7.08875 46.7263C7.2512 46.7816 7.41366 46.8064 7.5742 46.8064C8.20492 46.8064 8.7974 46.4134 9.01529 45.7877L10.6456 41.1409L13.3921 42.522L13.0232 42.8844C11.0469 44.8416 11.0317 48.0387 12.9964 50.0206L13.9903 51.0183C14.8503 51.8824 15.9703 52.3937 17.1782 52.4871C16.9221 53.0937 16.7883 53.7519 16.7864 54.429C16.7826 55.7758 17.3025 57.0424 18.2505 57.9905L19.2443 58.9881C20.1961 59.9534 21.4709 60.4799 22.8317 60.4799C23.5045 60.4799 24.1562 60.3502 24.7602 60.1022C24.8749 61.2524 25.3756 62.3188 26.1994 63.1448L27.1894 64.1462C28.1431 65.1076 29.4179 65.638 30.7787 65.638C31.4515 65.638 32.1032 65.5082 32.7072 65.2603C32.8218 66.4086 33.3188 67.4769 34.1425 68.3086L35.1402 69.3119C36.0939 70.2676 37.3668 70.796 38.7238 70.796C40.0693 70.796 41.3326 70.2772 42.2806 69.3463L42.2959 69.331L43.9778 70.239C44.8952 70.7426 45.9311 70.9982 46.9708 70.9982C47.5614 70.9982 48.152 70.9162 48.7234 70.7483C50.1607 70.3249 51.3266 69.4092 52.0051 68.1636C52.4217 67.4063 52.6511 66.5574 52.6989 65.7104L54.161 66.4735C56.9743 68.0091 60.5981 67.0038 62.085 64.2912C62.6106 63.3298 62.7979 62.2825 62.7387 61.2849L63.1362 61.4985C64.4263 62.2005 65.919 62.3626 67.3371 61.9468C68.8107 61.5157 70.0893 60.478 70.8424 59.0988C71.4654 57.9657 71.7043 56.7067 71.5342 55.4935L72.6103 56.0238C75.3739 57.5308 78.753 56.4759 80.3203 53.624C81.5989 51.2701 80.9911 48.2962 79.0474 46.5431C79.5978 44.9446 79.7966 43.5501 79.8673 42.6479L80.7446 42.2587L82.0136 45.8774C82.1474 46.2646 82.436 46.5832 82.8087 46.7568C83.0113 46.8522 83.233 46.8998 83.4547 46.8998C83.6382 46.8998 83.8217 46.8655 83.9899 46.7987L91.0118 44.1587C91.8031 43.863 92.2044 42.9798 91.9044 42.1939L91.8986 42.1958ZM15.1638 47.867C14.3897 47.0849 14.3935 45.8183 15.1695 45.0495L17.1821 43.0752C17.5586 42.7051 18.0593 42.501 18.5926 42.501C19.1258 42.501 19.6361 42.7089 20.0088 43.0866L21.0027 44.0881C21.3754 44.4639 21.5779 44.9637 21.5741 45.4978C21.5703 46.0319 21.3658 46.5298 20.9931 46.896L18.9786 48.8742C18.2256 49.6181 16.9049 49.6162 16.1557 48.8627L15.1657 47.867H15.1638ZM21.4117 56.8402L20.414 55.8387C20.0413 55.4668 19.8387 54.9689 19.8387 54.4386C19.8425 53.9045 20.0489 53.4047 20.4293 53.0289L24.4314 49.0649C24.8041 48.693 25.303 48.4908 25.8343 48.4908C26.3656 48.4908 26.8778 48.7006 27.2525 49.0764L28.2463 50.0798C28.619 50.4518 28.8216 50.9496 28.8178 51.4838C28.8178 52.0179 28.6094 52.5177 28.231 52.8915L24.2288 56.8536C23.4758 57.5956 22.1551 57.5975 21.4098 56.8421L21.4117 56.8402ZM29.3587 61.9983L28.361 60.9949C27.9883 60.6229 27.7838 60.1251 27.7857 59.5909C27.7895 59.0568 27.994 58.5589 28.3705 58.187L31.3827 55.2169C31.7554 54.8468 32.2542 54.6427 32.7855 54.6427C33.3169 54.6427 33.831 54.8506 34.2037 55.2283L35.1937 56.226C35.9678 57.0081 35.962 58.2709 35.1841 59.0435L32.1758 62.0136C31.4228 62.7556 30.1021 62.7556 29.3567 61.9983H29.3587ZM37.3056 67.1602L36.3118 66.1587C35.9391 65.7829 35.7365 65.2831 35.7365 64.7452C35.7403 64.2111 35.9467 63.7113 36.3175 63.3451L38.3301 61.3707C38.7028 61.0006 39.2054 60.7965 39.7367 60.7965C40.2776 60.7965 40.7803 61.0045 41.1549 61.386L42.143 62.3741C42.919 63.1562 42.9171 64.4247 42.1392 65.1916L40.1266 67.1659C39.3717 67.9099 38.0472 67.908 37.3037 67.1602H37.3056Z" fill="#396084"/>
</g>
<defs>
<clipPath id="clip0_4906_281">
<rect width="92" height="62" fill="white" transform="translate(0 9)"/>
</clipPath>
</defs>
</svg>
