<svg width="30" height="28" viewBox="0 0 30 28" fill="none" xmlns="http://www.w3.org/2000/svg">
<g clip-path="url(#clip0_4904_48)">
<path fill-rule="evenodd" clip-rule="evenodd" d="M10.066 14.276C8.84491 12.872 7.59648 10.5849 6.8782 8.88427C6.63536 8.30819 6.38567 7.74591 6.17019 7.14223C6.00601 6.67653 5.72554 5.76584 5.43823 5.42433C4.98674 4.89654 4.24794 5.01382 3.41338 5.01382C2.92768 5.01382 1.31669 4.98968 0.967817 5.02072C0.0819434 5.09662 -0.113017 5.53126 0.0545805 6.44196C0.177714 7.11118 0.382935 7.7666 0.588157 8.35993C1.1833 10.0675 2.02471 11.8406 2.91742 13.3791C3.50573 14.3967 4.13849 15.442 4.80204 16.3906C5.14066 16.877 5.47928 17.3565 5.83157 17.8084C7.10395 19.4366 9.01935 21.1821 11.2836 22.1342C12.4295 22.6171 13.8215 23.0173 15.3231 22.9828C16.0687 22.9655 16.893 22.9345 17.3001 22.5102C17.5155 22.286 17.5326 21.9203 17.5326 21.527C17.5326 21.1131 17.5326 20.7026 17.5326 20.2886C17.5326 19.7471 17.4676 18.3362 17.6387 17.9395C17.7686 17.6359 18.0902 17.5635 18.5177 17.6014C18.8803 17.6325 19.1744 17.7808 19.4275 17.9257C19.92 18.2016 20.7478 18.8502 21.1445 19.2469L21.4626 19.547C21.6713 19.7333 21.897 19.9506 22.0817 20.161C22.2767 20.3783 22.4716 20.5681 22.6666 20.7854L23.2515 21.4339C23.5696 21.803 24.0655 22.3619 24.476 22.6585C25.0745 23.0863 25.7244 22.9862 26.5795 22.9862C27.3525 22.9862 28.2384 23.0276 28.9943 22.9759C29.7775 22.9207 30.1777 22.4377 29.928 21.5995C29.6647 20.7129 28.5941 19.4021 27.975 18.657L25.9296 16.4251C25.8715 16.363 25.8441 16.3216 25.7825 16.263C25.4063 15.9111 24.6641 15.2177 24.5854 14.7037C24.5136 14.2484 25.1293 13.5067 25.4063 13.0997C26.4153 11.606 29.0764 7.65967 29.3602 6.02456C29.4355 5.58646 29.3158 5.32084 29.0319 5.16216C28.7548 5.00348 28.341 5.01727 27.9682 5.01727H26.7403C26.1348 5.01727 24.8967 4.94483 24.4144 5.12766C23.8056 5.35878 23.6106 5.92452 23.3644 6.52475C23.1831 6.9663 22.7897 7.75281 22.5674 8.17711C21.9004 9.42586 21.5345 10.0744 20.7375 11.2438C20.4023 11.7336 20.0398 12.1924 19.6704 12.6271C19.4207 12.9203 18.7092 13.6033 18.3125 13.7103C17.4334 13.9483 17.5361 12.8134 17.5361 12.12V7.20432C17.5361 6.50405 17.6592 5.44157 17.1427 5.14491C16.8486 4.97588 16.445 5.01727 16.0619 5.01727H12.3987C11.7967 5.01727 10.7227 4.84479 10.6167 5.67615C10.5004 6.56959 11.9096 6.73172 11.9096 9.28788V11.744C11.9096 12.5443 11.9403 13.4101 11.9096 14.2001C11.8925 14.5589 11.8377 14.9694 11.588 15.0901C11.1673 15.2936 10.6132 14.8555 10.3772 14.5899C10.278 14.4795 10.172 14.3933 10.0728 14.276H10.066Z" fill="white" fill-opacity="0.5"/>
</g>
<defs>
<clipPath id="clip0_4904_48">
<rect width="30" height="28" fill="white"/>
</clipPath>
</defs>
</svg>
