<svg width="32" height="35" viewBox="0 0 32 35" fill="none" xmlns="http://www.w3.org/2000/svg">
<g clip-path="url(#clip0_3379_417)">
<path d="M23.6252 16.7254C23.6205 15.5066 22.6483 14.5222 21.4453 14.5183H18.3565L18.5294 12.987C18.5703 11.8511 17.6983 10.8995 16.5764 10.8581H16.3951C15.6412 10.8807 14.9737 11.3456 14.6782 12.0495L13.9421 14.0363C13.8333 14.3261 13.5516 14.5191 13.2422 14.5144C12.9829 14.0636 12.5061 13.7831 11.9929 13.7784H9.81311C9.00908 13.7831 8.364 14.4363 8.35938 15.2503V22.6083C8.35938 23.4224 9.00908 24.0802 9.81311 24.0802H11.9929C12.5107 24.0802 12.9876 23.7998 13.2422 23.3443H20.3419C21.3142 23.3396 22.1676 22.6911 22.4407 21.7481C22.636 20.902 23.7895 17.5582 23.6259 16.7262L23.6252 16.7254ZM11.9968 22.6122H9.81697V15.2543H11.9968V22.6122ZM21.0449 21.3474C20.9584 21.6646 20.6722 21.881 20.345 21.8763H13.4498V15.9808C14.2854 15.9027 15.0031 15.355 15.3032 14.5597L16.0208 12.6097C16.1165 12.4393 16.2886 12.3339 16.4799 12.3245C16.6844 12.3104 16.875 12.412 16.9884 12.5823C17.0432 12.6651 17.0749 12.762 17.0841 12.8628L16.821 15.1714C16.794 15.3785 16.8573 15.5902 16.9938 15.7465C17.1343 15.9027 17.3303 15.9902 17.5386 15.9902H21.4446C21.8443 15.9902 22.1714 16.3215 22.1714 16.7262C22.1984 17.7606 21.1583 20.8372 21.0449 21.3481V21.3474Z" fill="#0F70CA"/>
<path d="M6.43825 7.82049C9.97228 4.25478 15.1298 2.93991 19.8915 4.38525C21.1786 4.77667 22.363 5.36575 23.4595 6.10404L20.6408 6.51187C19.9664 6.60952 19.4972 7.24313 19.5937 7.92674C19.6816 8.55019 20.2094 8.99942 20.8136 8.99942C20.8722 8.99942 20.9309 8.99551 20.9903 8.98692L26.6077 8.17362C27.2729 8.04159 27.7165 7.4447 27.6548 6.75875L26.8515 1.07112C26.7551 0.387509 26.1239 -0.082814 25.4549 0.0101568C24.7797 0.107815 24.3114 0.741423 24.4078 1.42503L24.7697 3.98603C23.4873 3.13054 22.1037 2.44615 20.6014 1.98911C14.967 0.279694 8.87195 1.83442 4.69361 6.05014C0.037631 10.7651 -1.28725 17.7621 1.31775 23.8779C1.51915 24.3505 1.97441 24.6326 2.45204 24.6326C2.61563 24.6326 2.78152 24.5998 2.94048 24.5302C3.56704 24.2568 3.85485 23.5216 3.58556 22.8872C1.38334 17.7184 2.50374 11.8042 6.43825 7.82127V7.82049Z" fill="#0F70CA"/>
<path d="M30.6826 11.1213C30.411 10.487 29.6826 10.1948 29.0599 10.4698C28.4333 10.7432 28.1455 11.4784 28.4148 12.1128C30.617 17.2816 29.4966 23.1958 25.5621 27.1787C22.0281 30.7444 16.8744 32.0601 12.1089 30.614C10.8218 30.2226 9.63736 29.6335 8.54088 28.8952L11.3596 28.4874C12.034 28.3897 12.5032 27.7561 12.4067 27.0725C12.3103 26.3889 11.6845 25.9201 11.0101 26.0115L5.39266 26.8248C4.72752 26.9569 4.28383 27.5537 4.34556 28.2397L5.14883 33.9273C5.23679 34.5508 5.76458 35 6.36876 35C6.42741 35 6.48605 34.9961 6.54546 34.9875C7.22063 34.8898 7.68901 34.2562 7.59256 33.5726L7.23067 31.0116C8.5131 31.8671 9.89662 32.5515 11.399 33.0086C12.9121 33.4679 14.4585 33.6922 15.9917 33.6922C20.1677 33.6922 24.2496 32.0304 27.306 28.9475C31.962 24.2341 33.2868 17.2371 30.6818 11.1213H30.6826Z" fill="#0F70CA"/>
</g>
<defs>
<clipPath id="clip0_3379_417">
<rect width="32" height="35" fill="white"/>
</clipPath>
</defs>
</svg>
